<svg width="45" height="41" viewBox="0 0 45 41" fill="none" xmlns="http://www.w3.org/2000/svg">
<path d="M44.1799 3.04327C44.1799 3.44722 43.271 4.31282 41.4533 5.64008L34.3553 10.7904L29.0319 15.3781L22.2801 21.9567L26.8246 26.3713C31.3257 30.7282 35.3075 33.5702 38.7699 34.8975L42.3189 35.5034C43.5019 35.7054 44.0934 36.3834 44.0934 37.5376C44.0934 38.3743 43.7038 39.0524 42.9248 39.5717C42.2323 39.9468 41.1503 40.1344 39.6788 40.1344C37.1974 40.1344 33.1723 37.855 27.6036 33.2961L18.2118 25.5922L16.2642 27.2802L12.7152 30.0068L5.87696 34.7244C3.82836 36.1382 2.29913 36.8451 1.28926 36.8451C0.654483 36.8451 0.322668 36.5133 0.293815 35.8496C0.264961 35.186 1.98174 33.3827 5.44416 30.4396L9.94529 26.631L15.0956 22.1298L9.68561 17.1526C8.38721 15.9408 7.17536 14.7289 6.05008 13.5171C5.76154 13.1997 5.14119 12.5505 4.18903 11.5695C2.94833 10.3288 2.29913 9.39103 2.24142 8.75625C2.24142 7.74638 2.89063 7.24145 4.18903 7.24145C5.02578 7.24145 7.36291 8.91495 11.2004 12.2619L18.4715 18.5809L31.3257 7.24145C33.634 5.19285 36 3.50493 38.4237 2.17767C39.9529 1.34092 41.107 0.864836 41.8861 0.749422C43.4153 0.749422 44.1799 1.51404 44.1799 3.04327Z" fill="#FFD55A"/>
</svg>
