<svg width="278" height="63" viewBox="0 0 278 63" fill="none" xmlns="http://www.w3.org/2000/svg">
<path d="M47.4688 43.6875C47.4688 48.75 44.8125 52.8438 39.5 55.9688C34.6562 58.8125 28.8281 60.2344 22.0156 60.2344C19.7969 60.2344 18 60.2031 16.625 60.1406C15.4375 60.0781 13.2344 59.9688 10.0156 59.8125C6.42188 59.6875 3.98438 59.4375 2.70312 59.0625C0.984375 58.5625 0.125 57.9219 0.125 57.1406C0.125 56.3594 0.375 55.7188 0.875 55.2188C1.40625 54.8438 2.15625 54.5938 3.125 54.4688L12.875 55.0312L22.0156 55.3125C27.3594 55.4688 31.875 54.6406 35.5625 52.8281C39.7188 50.7656 41.7969 47.75 41.7969 43.7812C41.7969 39.2188 40 35.7344 36.4062 33.3281C33.9688 31.7031 30.3281 30.5156 25.4844 29.7656L17.5156 28.5469C13.4219 27.9219 9.76562 26.3438 6.54688 23.8125C2.82812 20.9375 0.96875 17.5781 0.96875 13.7344C0.96875 10.0469 3.95312 6.82812 9.92188 4.07812C15.0781 1.70312 20.6406 0.515625 26.6094 0.515625C29.5781 0.515625 32.7812 1.21875 36.2188 2.625C40.5 4.375 42.6406 6.60938 42.6406 9.32812L42.7344 10.125C42.3594 10.4375 42.0469 10.5938 41.7969 10.5938C44.3281 10.5938 42.9062 9.76562 37.5312 8.10938C32.1562 6.42188 28.5156 5.57812 26.6094 5.57812C24.0469 5.57812 20.6562 6.28125 16.4375 7.6875C10.625 9.625 7.71875 11.9062 7.71875 14.5312C7.71875 17.0938 9.07812 19.25 11.7969 21C13.9219 22.3438 16.4375 23.25 19.3438 23.7188L29.8906 25.3594C33.5156 25.9219 37 27.2656 40.3438 29.3906C45.0938 32.4219 47.4688 37.1875 47.4688 43.6875ZM110.607 28.1719C110.607 28.6094 110.295 28.8906 109.67 29.0156L107.936 29.3906L95.3731 31.2188C93.9044 31.4375 93.17 32.4688 93.17 34.3125C93.17 34.9375 93.5137 37.8438 94.2012 43.0312L95.2794 51.1875C95.2794 58.8125 93.6075 62.625 90.2637 62.625C87.67 62.625 85.2794 61.5625 83.0919 59.4375C81.7481 58.125 80.2637 56.1719 78.6387 53.5781L76.4356 50.0625C75.6856 48.8438 74.8887 48.2344 74.045 48.2344C73.4825 48.2344 72.6856 49.2969 71.6544 51.4219C70.3106 54.2031 69.1544 56.1719 68.1856 57.3281C66.4356 59.4531 64.3887 60.5156 62.045 60.5156C60.545 60.5156 59.0919 59.9219 57.6856 58.7344C56.3106 57.5469 55.5294 56.2188 55.3419 54.75L52.6231 32.8594C52.6231 31.4531 52.92 30.2344 53.5137 29.2031C53.9512 28.4531 54.7169 28.0781 55.8106 28.0781C57.1231 28.0781 57.9512 28.1562 58.295 28.3125C58.9512 28.5938 59.3106 29.2812 59.3731 30.375L59.8419 38.8125L60.8262 49.0781C60.8262 50.1094 61.1075 51.1719 61.67 52.2656C62.1075 53.1406 62.5294 53.5781 62.9356 53.5781C63.7481 53.5781 64.7481 52.5469 65.9356 50.4844C67.8419 47.2031 68.9981 45.2969 69.4044 44.7656C70.9981 42.7031 72.67 41.6719 74.42 41.6719C76.7012 41.6719 78.5294 42.7344 79.9044 44.8594L83.8419 51C85.4356 53.5 86.7169 54.75 87.6856 54.75C88.8419 54.75 89.42 53.625 89.42 51.375C89.42 49.2812 89.0294 46.1562 88.2481 42C87.4981 37.8438 87.1231 34.7031 87.1231 32.5781C87.1231 28.2344 90.1544 26.0625 96.2169 26.0625H100.623C102.467 26.0625 104.295 26.1875 106.107 26.4375C107.139 26.5 108.264 26.6562 109.482 26.9062C110.232 27.1875 110.607 27.6094 110.607 28.1719ZM159.027 48.6094C159.027 49.5469 156.887 51.3438 152.606 54C149.168 56.1562 146.496 57.6562 144.59 58.5C138.09 61.4375 131.481 62.9062 124.762 62.9062C121.043 62.9062 117.746 61.8438 114.871 59.7188C111.465 57.1875 109.699 53.4844 109.574 48.6094L109.481 44.6719V40.3594L109.574 36.5156C109.606 35.3281 109.731 34.1719 109.949 33.0469C110.387 30.7969 111.699 28.9062 113.887 27.375C115.949 25.9062 118.152 25.1719 120.496 25.1719C123.809 25.1719 126.824 25.9375 129.543 27.4688C132.668 29.2188 134.231 31.5 134.231 34.3125C134.231 36.75 133.34 38.8281 131.559 40.5469C130.465 41.6094 128.481 42.625 125.606 43.5938L120.215 45.4219L115.059 47.3438C115.059 49.6875 115.824 51.8594 117.356 53.8594C119.231 56.2969 121.918 57.5156 125.418 57.5156C128.356 57.5156 131.231 57.2031 134.043 56.5781C140.043 55.2344 146.121 52.8906 152.277 49.5469L156.496 47.25C157.527 47.25 158.199 47.3438 158.512 47.5312C158.793 47.5938 158.965 47.9531 159.027 48.6094ZM127.34 34.3125C127.34 31.875 124.777 30.6562 119.652 30.6562C118.84 30.6562 117.965 31.0625 117.027 31.875C116.121 32.6875 115.59 33.5 115.434 34.3125L115.059 38.7188L114.871 42.5625C115.871 42.4062 117.402 41.8906 119.465 41.0156L124.059 39.0938C126.246 38.1875 127.34 36.5938 127.34 34.3125ZM207.541 48.6094C207.541 49.5469 205.401 51.3438 201.119 54C197.682 56.1562 195.01 57.6562 193.104 58.5C186.604 61.4375 179.994 62.9062 173.276 62.9062C169.557 62.9062 166.26 61.8438 163.385 59.7188C159.979 57.1875 158.213 53.4844 158.088 48.6094L157.994 44.6719V40.3594L158.088 36.5156C158.119 35.3281 158.244 34.1719 158.463 33.0469C158.901 30.7969 160.213 28.9062 162.401 27.375C164.463 25.9062 166.666 25.1719 169.01 25.1719C172.322 25.1719 175.338 25.9375 178.057 27.4688C181.182 29.2188 182.744 31.5 182.744 34.3125C182.744 36.75 181.854 38.8281 180.072 40.5469C178.979 41.6094 176.994 42.625 174.119 43.5938L168.729 45.4219L163.572 47.3438C163.572 49.6875 164.338 51.8594 165.869 53.8594C167.744 56.2969 170.432 57.5156 173.932 57.5156C176.869 57.5156 179.744 57.2031 182.557 56.5781C188.557 55.2344 194.635 52.8906 200.791 49.5469L205.01 47.25C206.041 47.25 206.713 47.3438 207.026 47.5312C207.307 47.5938 207.479 47.9531 207.541 48.6094ZM175.854 34.3125C175.854 31.875 173.291 30.6562 168.166 30.6562C167.354 30.6562 166.479 31.0625 165.541 31.875C164.635 32.6875 164.104 33.5 163.947 34.3125L163.572 38.7188L163.385 42.5625C164.385 42.4062 165.916 41.8906 167.979 41.0156L172.572 39.0938C174.76 38.1875 175.854 36.5938 175.854 34.3125ZM253.617 49.2656C253.617 50.1094 252.352 51.2969 249.821 52.8281L240.211 58.5938C236.805 60.625 233.383 61.9375 229.946 62.5312C228.102 62.8438 225.883 63 223.289 63C220.414 63 218.149 61.2656 216.492 57.7969C214.367 53.3594 213.305 47.9219 213.305 41.4844C213.305 40.1094 213.336 38.9219 213.399 37.9219L213.727 32.6719L198.352 33.0469L195.352 32.7656C194.602 32.5781 194.196 32.1562 194.133 31.5C194.133 30.5625 194.414 29.8906 194.977 29.4844C195.508 29.1719 196.399 28.8594 197.649 28.5469L205.149 27.75L213.821 27.375L214.571 3.46875C214.633 1.8125 215.492 0.765625 217.149 0.328125C219.899 0.328125 221.274 3.34375 221.274 9.375C221.274 10.4062 221.242 11.3281 221.18 12.1406L220.617 19.4062L220.149 27.2812L235.102 27.75C238.602 27.875 240.774 28.0469 241.617 28.2656C243.742 28.8594 244.805 29.9375 244.805 31.5C244.805 32.7812 244.383 33.5781 243.539 33.8906C242.727 34.2969 241.461 34.5 239.742 34.5C238.93 34.5 237.352 34.2969 235.008 33.8906L230.696 33.1406L225.727 32.8594L219.867 32.7656L219.774 35.625L219.633 38.3438L220.805 52.1719C221.524 55.9844 223.055 57.8906 225.399 57.8906C227.461 57.8906 229.899 57.4531 232.711 56.5781C236.399 55.4219 239.242 54.2656 241.242 53.1094L247.196 49.6406C249.821 48.1094 251.492 47.3438 252.211 47.3438C253.149 47.3438 253.617 47.9844 253.617 49.2656ZM277.756 28.6406C277.756 29.9219 277.694 30.7188 277.569 31.0312C277.35 31.6562 276.741 32.0469 275.741 32.2031C274.834 32.2031 274.194 32.0938 273.819 31.875L270.819 28.2656C269.913 27.4844 268.928 27.0938 267.866 27.0938C265.303 27.0938 264.022 29.3281 264.022 33.7969C264.022 36.3281 265.616 39.9844 268.803 44.7656L272.834 50.8125C274.178 52.8438 274.85 55.0156 274.85 57.3281C274.85 60.7344 273.131 62.4375 269.694 62.4375C264.475 62.4375 260.788 60.7344 258.631 57.3281L256.241 53.5781C255.459 52.3594 255.069 51.25 255.069 50.25C255.069 48.5 255.678 47.625 256.897 47.625C257.584 47.625 258.319 48.4375 259.1 50.0625L260.459 52.9219C260.834 53.7344 261.85 54.7188 263.506 55.875C264.975 56.9062 266.256 57.4844 267.35 57.6094C268.35 57.6094 268.866 57.2031 268.897 56.3906C268.928 55.6406 268.444 54.4219 267.444 52.7344L261.491 42.75C259.334 39.125 258.256 36.1406 258.256 33.7969C258.256 30.4531 258.944 27.6719 260.319 25.4531C261.975 22.8281 264.381 21.5156 267.538 21.5156C270.413 21.5156 272.913 22.3906 275.038 24.1406C276.85 25.6406 277.756 27.1406 277.756 28.6406Z" fill="#E0E1DC"/>
</svg>
