<svg width="360" height="64" viewBox="0 0 360 64" fill="none" xmlns="http://www.w3.org/2000/svg">
<path d="M47.4688 43.6875C47.4688 48.75 44.8125 52.8438 39.5 55.9688C34.6562 58.8125 28.8281 60.2344 22.0156 60.2344C19.7969 60.2344 18 60.2031 16.625 60.1406C15.4375 60.0781 13.2344 59.9688 10.0156 59.8125C6.42188 59.6875 3.98438 59.4375 2.70312 59.0625C0.984375 58.5625 0.125 57.9219 0.125 57.1406C0.125 56.3594 0.375 55.7188 0.875 55.2188C1.40625 54.8438 2.15625 54.5938 3.125 54.4688L12.875 55.0312L22.0156 55.3125C27.3594 55.4688 31.875 54.6406 35.5625 52.8281C39.7188 50.7656 41.7969 47.75 41.7969 43.7812C41.7969 39.2188 40 35.7344 36.4062 33.3281C33.9688 31.7031 30.3281 30.5156 25.4844 29.7656L17.5156 28.5469C13.4219 27.9219 9.76562 26.3438 6.54688 23.8125C2.82812 20.9375 0.96875 17.5781 0.96875 13.7344C0.96875 10.0469 3.95312 6.82812 9.92188 4.07812C15.0781 1.70312 20.6406 0.515625 26.6094 0.515625C29.5781 0.515625 32.7812 1.21875 36.2188 2.625C40.5 4.375 42.6406 6.60938 42.6406 9.32812L42.7344 10.125C42.3594 10.4375 42.0469 10.5938 41.7969 10.5938C44.3281 10.5938 42.9062 9.76562 37.5312 8.10938C32.1562 6.42188 28.5156 5.57812 26.6094 5.57812C24.0469 5.57812 20.6562 6.28125 16.4375 7.6875C10.625 9.625 7.71875 11.9062 7.71875 14.5312C7.71875 17.0938 9.07812 19.25 11.7969 21C13.9219 22.3438 16.4375 23.25 19.3438 23.7188L29.8906 25.3594C33.5156 25.9219 37 27.2656 40.3438 29.3906C45.0938 32.4219 47.4688 37.1875 47.4688 43.6875ZM102.639 49.2656C102.639 50.1094 101.373 51.2969 98.8419 52.8281L89.2325 58.5938C85.8262 60.625 82.4044 61.9375 78.9669 62.5312C77.1231 62.8438 74.9044 63 72.3106 63C69.4356 63 67.17 61.2656 65.5137 57.7969C63.3887 53.3594 62.3262 47.9219 62.3262 41.4844C62.3262 40.1094 62.3575 38.9219 62.42 37.9219L62.7481 32.6719L47.3731 33.0469L44.3731 32.7656C43.6231 32.5781 43.2169 32.1562 43.1544 31.5C43.1544 30.5625 43.4356 29.8906 43.9981 29.4844C44.5294 29.1719 45.42 28.8594 46.67 28.5469L54.17 27.75L62.8419 27.375L63.5919 3.46875C63.6544 1.8125 64.5137 0.765625 66.17 0.328125C68.92 0.328125 70.295 3.34375 70.295 9.375C70.295 10.4062 70.2637 11.3281 70.2012 12.1406L69.6387 19.4062L69.17 27.2812L84.1231 27.75C87.6231 27.875 89.795 28.0469 90.6387 28.2656C92.7637 28.8594 93.8262 29.9375 93.8262 31.5C93.8262 32.7812 93.4044 33.5781 92.5606 33.8906C91.7481 34.2969 90.4825 34.5 88.7637 34.5C87.9512 34.5 86.3731 34.2969 84.0294 33.8906L79.7169 33.1406L74.7481 32.8594L68.8887 32.7656L68.795 35.625L68.6544 38.3438L69.8262 52.1719C70.545 55.9844 72.0762 57.8906 74.42 57.8906C76.4825 57.8906 78.92 57.4531 81.7325 56.5781C85.42 55.4219 88.2637 54.2656 90.2637 53.1094L96.2169 49.6406C98.8419 48.1094 100.514 47.3438 101.232 47.3438C102.17 47.3438 102.639 47.9844 102.639 49.2656ZM163.434 48.0469C163.434 48.5781 162.465 49.75 160.527 51.5625C158.184 53.75 155.731 55.5781 153.168 57.0469C145.199 61.5781 137.809 63.8438 130.996 63.8438C124.715 63.8438 121.574 57.6094 121.574 45.1406C116.356 55.7656 111.527 61.0781 107.09 61.0781C104.402 61.0781 102.574 60.125 101.606 58.2188C100.887 56.8438 100.527 54.6562 100.527 51.6562C100.527 47.2188 102.074 42.2031 105.168 36.6094C109.012 29.6406 113.59 26.1562 118.902 26.1562C120.746 26.1562 122.137 26.3438 123.074 26.7188C124.012 27.0625 125.106 27.8594 126.356 29.1094H126.543C127.356 29.1094 128.059 29.8125 128.652 31.2188C129.152 32.4062 129.387 33.4688 129.356 34.4062L128.793 49.1719C128.699 51.9531 128.918 53.9688 129.449 55.2188C130.231 57 131.824 57.8906 134.231 57.8906C136.356 57.8906 138.434 57.7031 140.465 57.3281C143.34 56.7969 146.699 55.4531 150.543 53.2969C151.449 52.7969 154.277 50.75 159.027 47.1562L161.324 45.4219C162.731 45.6094 163.434 46.4844 163.434 48.0469ZM121.012 35.3438L121.293 33.8906C121.293 32.1719 120.559 31.3125 119.09 31.3125C116.434 31.3125 113.606 33.5938 110.606 38.1562C107.793 42.4375 106.387 45.9844 106.387 48.7969L106.715 52.4531C106.902 53.3281 107.277 53.8281 107.84 53.9531C109.434 53.9531 112.34 50.3125 116.559 43.0312L121.012 35.3438ZM203.557 30.5625C203.557 31.5 202.541 31.9688 200.51 31.9688C196.947 31.9688 193.963 32.2656 191.557 32.8594C187.526 33.8594 184.401 35.9062 182.182 39C181.588 39.8438 180.885 42.1094 180.072 45.7969L177.635 57.0469C176.76 61.0156 174.744 63 171.588 63C170.182 63 169.213 62.4531 168.682 61.3594C168.432 60.7969 168.197 59.5781 167.979 57.7031L167.182 51L166.994 44.1094C166.901 41.2031 166.713 39.1094 166.432 37.8281L164.979 33.5156C164.979 31.6719 165.838 30.75 167.557 30.75C169.401 30.75 170.822 31.9375 171.822 34.3125C172.572 36.125 172.947 38.0781 172.947 40.1719V42.2812C172.947 42.9062 173.01 43.6406 173.135 44.4844L173.322 48.1406L174.401 43.6875C174.494 43.3438 174.947 42 175.76 39.6562C176.354 37.9375 176.979 36.6875 177.635 35.9062C181.885 30.75 187.432 28.1719 194.276 28.1719C195.869 28.1719 196.979 28.2031 197.604 28.2656C198.104 28.3906 199.041 28.6094 200.416 28.9219C202.51 29.3906 203.557 29.9375 203.557 30.5625ZM247.992 49.2656C247.992 50.1094 246.727 51.2969 244.196 52.8281L234.586 58.5938C231.18 60.625 227.758 61.9375 224.321 62.5312C222.477 62.8438 220.258 63 217.664 63C214.789 63 212.524 61.2656 210.867 57.7969C208.742 53.3594 207.68 47.9219 207.68 41.4844C207.68 40.1094 207.711 38.9219 207.774 37.9219L208.102 32.6719L192.727 33.0469L189.727 32.7656C188.977 32.5781 188.571 32.1562 188.508 31.5C188.508 30.5625 188.789 29.8906 189.352 29.4844C189.883 29.1719 190.774 28.8594 192.024 28.5469L199.524 27.75L208.196 27.375L208.946 3.46875C209.008 1.8125 209.867 0.765625 211.524 0.328125C214.274 0.328125 215.649 3.34375 215.649 9.375C215.649 10.4062 215.617 11.3281 215.555 12.1406L214.992 19.4062L214.524 27.2812L229.477 27.75C232.977 27.875 235.149 28.0469 235.992 28.2656C238.117 28.8594 239.18 29.9375 239.18 31.5C239.18 32.7812 238.758 33.5781 237.914 33.8906C237.102 34.2969 235.836 34.5 234.117 34.5C233.305 34.5 231.727 34.2969 229.383 33.8906L225.071 33.1406L220.102 32.8594L214.242 32.7656L214.149 35.625L214.008 38.3438L215.18 52.1719C215.899 55.9844 217.43 57.8906 219.774 57.8906C221.836 57.8906 224.274 57.4531 227.086 56.5781C230.774 55.4219 233.617 54.2656 235.617 53.1094L241.571 49.6406C244.196 48.1094 245.867 47.3438 246.586 47.3438C247.524 47.3438 247.992 47.9844 247.992 49.2656ZM296.413 48.6094C296.413 49.5469 294.272 51.3438 289.991 54C286.553 56.1562 283.881 57.6562 281.975 58.5C275.475 61.4375 268.866 62.9062 262.147 62.9062C258.428 62.9062 255.131 61.8438 252.256 59.7188C248.85 57.1875 247.084 53.4844 246.959 48.6094L246.866 44.6719V40.3594L246.959 36.5156C246.991 35.3281 247.116 34.1719 247.334 33.0469C247.772 30.7969 249.084 28.9062 251.272 27.375C253.334 25.9062 255.538 25.1719 257.881 25.1719C261.194 25.1719 264.209 25.9375 266.928 27.4688C270.053 29.2188 271.616 31.5 271.616 34.3125C271.616 36.75 270.725 38.8281 268.944 40.5469C267.85 41.6094 265.866 42.625 262.991 43.5938L257.6 45.4219L252.444 47.3438C252.444 49.6875 253.209 51.8594 254.741 53.8594C256.616 56.2969 259.303 57.5156 262.803 57.5156C265.741 57.5156 268.616 57.2031 271.428 56.5781C277.428 55.2344 283.506 52.8906 289.663 49.5469L293.881 47.25C294.913 47.25 295.584 47.3438 295.897 47.5312C296.178 47.5938 296.35 47.9531 296.413 48.6094ZM264.725 34.3125C264.725 31.875 262.163 30.6562 257.038 30.6562C256.225 30.6562 255.35 31.0625 254.413 31.875C253.506 32.6875 252.975 33.5 252.819 34.3125L252.444 38.7188L252.256 42.5625C253.256 42.4062 254.788 41.8906 256.85 41.0156L261.444 39.0938C263.631 38.1875 264.725 36.5938 264.725 34.3125ZM336.442 30.5625C336.442 31.5 335.426 31.9688 333.395 31.9688C329.832 31.9688 326.848 32.2656 324.442 32.8594C320.411 33.8594 317.286 35.9062 315.067 39C314.473 39.8438 313.77 42.1094 312.957 45.7969L310.52 57.0469C309.645 61.0156 307.629 63 304.473 63C303.067 63 302.098 62.4531 301.567 61.3594C301.317 60.7969 301.082 59.5781 300.864 57.7031L300.067 51L299.879 44.1094C299.786 41.2031 299.598 39.1094 299.317 37.8281L297.864 33.5156C297.864 31.6719 298.723 30.75 300.442 30.75C302.286 30.75 303.707 31.9375 304.707 34.3125C305.457 36.125 305.832 38.0781 305.832 40.1719V42.2812C305.832 42.9062 305.895 43.6406 306.02 44.4844L306.207 48.1406L307.286 43.6875C307.379 43.3438 307.832 42 308.645 39.6562C309.239 37.9375 309.864 36.6875 310.52 35.9062C314.77 30.75 320.317 28.1719 327.161 28.1719C328.754 28.1719 329.864 28.2031 330.489 28.2656C330.989 28.3906 331.926 28.6094 333.301 28.9219C335.395 29.3906 336.442 29.9375 336.442 30.5625ZM359.034 28.6406C359.034 29.9219 358.971 30.7188 358.846 31.0312C358.628 31.6562 358.018 32.0469 357.018 32.2031C356.112 32.2031 355.471 32.0938 355.096 31.875L352.096 28.2656C351.19 27.4844 350.206 27.0938 349.143 27.0938C346.581 27.0938 345.299 29.3281 345.299 33.7969C345.299 36.3281 346.893 39.9844 350.081 44.7656L354.112 50.8125C355.456 52.8438 356.128 55.0156 356.128 57.3281C356.128 60.7344 354.409 62.4375 350.971 62.4375C345.753 62.4375 342.065 60.7344 339.909 57.3281L337.518 53.5781C336.737 52.3594 336.346 51.25 336.346 50.25C336.346 48.5 336.956 47.625 338.174 47.625C338.862 47.625 339.596 48.4375 340.378 50.0625L341.737 52.9219C342.112 53.7344 343.128 54.7188 344.784 55.875C346.253 56.9062 347.534 57.4844 348.628 57.6094C349.628 57.6094 350.143 57.2031 350.174 56.3906C350.206 55.6406 349.721 54.4219 348.721 52.7344L342.768 42.75C340.612 39.125 339.534 36.1406 339.534 33.7969C339.534 30.4531 340.221 27.6719 341.596 25.4531C343.253 22.8281 345.659 21.5156 348.815 21.5156C351.69 21.5156 354.19 22.3906 356.315 24.1406C358.128 25.6406 359.034 27.1406 359.034 28.6406Z" fill="#E0E1DC"/>
</svg>
