<svg width="244" height="69" viewBox="0 0 244 69" fill="none" xmlns="http://www.w3.org/2000/svg">
<path d="M63.5 15.7031C63.5 19.0781 63.4375 22.5312 63.3125 26.0625L62.1875 57.75C62.1875 58.0312 62.2031 58.4531 62.2344 59.0156C62.3281 59.7344 62.375 60.2656 62.375 60.6094C62.4062 61.8594 62.3125 62.8594 62.0938 63.6094C61.8125 64.1719 61.3281 64.4844 60.6406 64.5469C59.2344 64.5469 58.2031 62.8281 57.5469 59.3906C57.0469 56.7656 56.7969 52.3125 56.7969 46.0312V42L56.8906 38.1562L56.9844 30.1875L57.2656 20.3906L51.9688 29.4375C51.4688 30.2812 50.6406 31.6875 49.4844 33.6562C49.1719 34.0938 48.5938 34.8906 47.75 36.0469L41.2344 45.4688C39.0781 48.5938 36.5156 50.1562 33.5469 50.1562C31.1094 50.1562 28.2812 48.6719 25.0625 45.7031C22.6562 43.4844 20.5312 40.9688 18.6875 38.1562L15.0312 32.5781L11.6562 26.7188C10.6562 35.6562 9.0625 44.5625 6.875 53.4375C5.09375 60.6562 3.5625 64.2656 2.28125 64.2656C1 64.2656 0.359375 63.5625 0.359375 62.1562V61.0312C0.359375 60.2812 1.5 52.5938 3.78125 37.9688L6.3125 21.75L6.6875 14.8125C6.75 13.6562 6.84375 11.7812 6.96875 9.1875C7.03125 7.5 7.67188 6.65625 8.89062 6.65625C10.2344 6.65625 11.3594 8.0625 12.2656 10.875L14.6562 18.2812L18.125 26.1562C18.4375 26.8438 19.0781 28.0312 20.0469 29.7188C20.5469 30.5625 21.4062 31.9688 22.625 33.9375C24.375 36.5938 26.2344 38.8906 28.2031 40.8281C30.7969 43.3906 32.75 44.6719 34.0625 44.6719C35.25 44.6719 36.8125 43.2656 38.75 40.4531L44.4219 32.2031C45.9219 30.0469 48.1875 26.2656 51.2188 20.8594L55.1562 13.875C55.7188 12.8438 56.5469 11.5 57.6406 9.84375C58.5781 8.40625 59.4219 7.67188 60.1719 7.64062C61.5156 7.60938 62.4688 7.89062 63.0312 8.48438C63.5938 9.07812 63.8438 10.0469 63.7812 11.3906L63.6875 13.5938C63.6562 14 63.5938 14.7031 63.5 15.7031ZM133.389 51.0469C133.389 51.5781 132.42 52.75 130.482 54.5625C128.139 56.75 125.686 58.5781 123.123 60.0469C115.154 64.5781 107.764 66.8438 100.951 66.8438C94.67 66.8438 91.5294 60.6094 91.5294 48.1406C86.3106 58.7656 81.4825 64.0781 77.045 64.0781C74.3575 64.0781 72.5294 63.125 71.5606 61.2188C70.8419 59.8438 70.4825 57.6562 70.4825 54.6562C70.4825 50.2188 72.0294 45.2031 75.1231 39.6094C78.9669 32.6406 83.545 29.1562 88.8575 29.1562C90.7012 29.1562 92.0919 29.3438 93.0294 29.7188C93.9669 30.0625 95.0606 30.8594 96.3106 32.1094H96.4981C97.3106 32.1094 98.0137 32.8125 98.6075 34.2188C99.1075 35.4062 99.3419 36.4688 99.3106 37.4062L98.7481 52.1719C98.6544 54.9531 98.8731 56.9688 99.4044 58.2188C100.186 60 101.779 60.8906 104.186 60.8906C106.311 60.8906 108.389 60.7031 110.42 60.3281C113.295 59.7969 116.654 58.4531 120.498 56.2969C121.404 55.7969 124.232 53.75 128.982 50.1562L131.279 48.4219C132.686 48.6094 133.389 49.4844 133.389 51.0469ZM90.9669 38.3438L91.2481 36.8906C91.2481 35.1719 90.5137 34.3125 89.045 34.3125C86.3887 34.3125 83.5606 36.5938 80.5606 41.1562C77.7481 45.4375 76.3419 48.9844 76.3419 51.7969L76.67 55.4531C76.8575 56.3281 77.2325 56.8281 77.795 56.9531C79.3887 56.9531 82.295 53.3125 86.5137 46.0312L90.9669 38.3438ZM141.871 8.76562C141.871 9.95312 141.606 10.7344 141.074 11.1094C140.668 11.4219 139.84 11.5781 138.59 11.5781C137.434 11.5781 136.152 10.5781 134.746 8.57812C133.402 6.67188 132.731 5.10938 132.731 3.89062C132.731 1.70312 133.684 0.609375 135.59 0.609375C137.121 0.609375 138.574 1.59375 139.949 3.5625C141.231 5.40625 141.871 7.14062 141.871 8.76562ZM173.043 51.2344C173.074 53.1719 170.043 56.0156 163.949 59.7656C157.293 63.8594 151.402 65.9062 146.277 65.9062L139.762 65.0625C137.168 64.7188 135.246 62.9531 133.996 59.7656C133.402 58.2344 133.106 56.1562 133.106 53.5312V46.3125L133.199 38.5312L133.106 35.3906C133.074 33.9531 133.277 32.6094 133.715 31.3594C134.059 30.3906 134.793 29.9062 135.918 29.9062C138.199 29.9062 139.309 32.0781 139.246 36.4219L139.059 51.6094C139.027 54.9844 139.324 57.1875 139.949 58.2188C140.887 59.75 143.184 60.5156 146.84 60.5156C151.059 60.5156 155.356 59.4375 159.731 57.2812L170.652 49.875H172.106C172.699 49.9375 173.012 50.3906 173.043 51.2344ZM243.026 50.1562C243.026 51.2812 241.51 53.2344 238.479 56.0156C235.791 58.4844 232.947 60.625 229.947 62.4375C222.76 66.7812 216.619 68.9531 211.526 68.9531C207.526 68.9531 204.369 67.8281 202.057 65.5781C200.088 63.6406 198.541 60.6094 197.416 56.4844L195.776 50.4375C195.182 48.8438 194.354 48.0469 193.291 48.0469C192.604 48.0469 191.354 49.0781 189.541 51.1406C188.541 52.2656 187.963 52.9375 187.807 53.1562C186.838 54.3438 185.682 55.9375 184.338 57.9375L182.041 61.3125C180.791 63.1562 179.572 64.0781 178.385 64.0781C176.854 64.0781 175.697 62.9844 174.916 60.7969L173.791 54.6562L172.526 44.3906L172.057 36.4219C171.932 34.1094 173.088 32.9531 175.526 32.9531C176.401 32.9531 177.072 33.7344 177.541 35.2969C177.822 36.2344 178.041 38.0781 178.197 40.8281L178.479 45.8438C178.666 47.0625 178.869 48.0469 179.088 48.7969C179.213 49.6406 179.557 51.375 180.119 54C181.338 51.9688 183.291 49.3438 185.979 46.125C189.447 41.9688 192.385 39.8906 194.791 39.8906C197.135 39.8906 198.963 41.0781 200.276 43.4531C201.088 44.9531 201.916 47.75 202.76 51.8438C203.635 56.0625 204.447 58.9844 205.197 60.6094C206.291 62.9219 207.885 64.0781 209.979 64.0781C212.291 64.0781 214.885 63.5938 217.76 62.625C218.604 62.3438 220.104 61.8125 222.26 61.0312C226.51 59.375 231.666 55.9062 237.729 50.625C239.697 48.9062 240.916 48.0469 241.385 48.0469C242.26 48.0469 242.729 48.1719 242.791 48.4219L243.026 50.1562Z" fill="#E0E1DC"/>
</svg>
