<svg width="231" height="126" viewBox="0 0 231 126" fill="none" xmlns="http://www.w3.org/2000/svg">
<path d="M230.33 38.5957C232.328 32.969 230.074 20.2411 220.595 19.4553C212.442 18.7793 203.388 18.8213 196.886 23.1234C197.008 22.5727 197.128 22.0361 197.249 21.5237C201.832 2.02203 210.424 4.31609 207.751 1.44851C205.078 -1.4198 195.722 0.301485 191.712 3.74257C187.701 7.1844 184.647 7.37532 175.099 4.69868C165.552 2.02203 161.733 7.75791 149.895 13.4326C138.056 19.1073 141.124 5.84202 125.263 6.80402C116.996 7.30529 115.45 15.232 104.128 15.232C92.8058 15.232 91.1228 7.13869 82.9923 6.80402C67.1162 6.15163 70.1994 19.1073 58.3606 13.4326C46.5226 7.75718 42.7032 2.02129 33.1562 4.69794C23.6092 7.37459 20.554 7.18366 16.5439 3.74184C12.5346 0.300748 3.1783 -1.4198 0.505174 1.44778C-2.16796 4.31535 6.42419 2.02129 11.007 21.523C15.5898 41.0247 20.7454 89.2058 41.7491 102.59C62.7528 115.974 62.9435 113.87 62.7528 115.974C62.5621 118.078 59.3162 121.327 66.3808 122.857C68.7565 123.371 78.1128 124.361 89.9862 125.171C89.9862 125.171 99.4559 126.18 104.128 125.972C108.8 126.181 118.269 125.171 118.269 125.171C130.143 124.361 139.499 123.371 141.875 122.857C148.939 121.327 145.693 118.077 145.503 115.974C145.312 113.871 145.503 115.974 166.506 102.59C170.455 100.074 173.843 96.3283 176.772 91.7756C179.414 90.5497 182.988 89.6526 187.469 90.2099C198.13 91.5353 218.868 84.0147 218.368 72.7884L217.869 61.5621C217.869 61.5621 220.916 65.3364 224.59 62.8028C228.264 60.2691 231.8 52.6786 228.889 51.0701C225.977 49.4623 225.512 51.4106 224.426 53.244C223.34 55.078 217.416 54.7338 218.703 51.2241C219.991 47.7145 228.332 44.2225 230.33 38.5957ZM212.159 46.6972C209.92 47.2471 202.509 47.9135 204.664 52.8076C206.819 57.7016 213.685 57.577 212.396 65.1551C211.108 72.7331 206.122 85.3018 194.548 83.7007C189.18 82.9584 184.608 83.3336 180.954 84.1378C187.501 70.2327 191.227 52.2274 193.987 37.8402C198.297 34.06 205.09 28.5696 211.538 31.4873C219.927 35.2844 214.399 46.1473 212.159 46.6972Z" fill="#AD4419"/>
</svg>
