<svg width="37" height="37" viewBox="0 0 37 37" fill="none" xmlns="http://www.w3.org/2000/svg">
<path d="M15.5014 6.7665C14.9266 5.17244 14.2126 3.6541 13.0743 2.37244C11.6316 0.74792 9.69444 0.21809 7.9131 1.45532C7.84468 1.50288 7.69416 1.47507 7.6021 1.43546C7.39673 1.34709 7.21249 1.20696 7.00472 1.12726C6.37289 0.884922 5.72365 0.966786 5.1013 1.13533C3.70309 1.51419 3.26426 2.43095 3.62711 3.71357C3.75122 4.15214 4.00436 4.55376 4.19821 4.97139C3.14027 5.33316 2.26574 5.99782 1.53501 6.84066C1.02213 7.43225 0.829361 8.14591 1.03221 8.93133C1.24166 9.74178 1.63535 10.4439 2.26887 10.98C1.44811 11.7275 0.680646 12.4874 0.2381 13.5108C0.0089648 14.0406 -0.0784161 14.5977 0.0817022 15.1528C0.361249 16.122 0.868251 16.9473 1.68661 17.4712C1.37441 18.0393 1.04541 18.5832 0.770787 19.1535C0.513446 19.6879 0.304716 20.2474 0.414182 20.8671C0.57442 21.7747 1.02561 22.5193 1.70881 23.1846C1.61435 23.3085 1.52877 23.419 1.44499 23.5308C0.965474 24.1712 0.628673 24.8769 0.513686 25.6739C0.386935 26.5525 0.709453 27.3222 1.26315 27.9489C1.79439 28.5501 2.4057 29.1204 3.34792 28.9033C3.69217 28.824 3.78135 28.9017 3.84676 29.2606C4.07662 30.5219 4.52685 31.7039 5.08066 32.8555C5.64443 34.0279 6.48295 34.9898 7.36565 35.9122C7.85056 36.4189 8.47159 36.7852 9.16848 36.9009C10.3983 37.105 11.4686 36.7053 12.3938 35.8835C13.2733 35.1025 13.9221 34.148 14.458 33.1116C15.6001 30.9029 16.2467 28.5327 16.6751 26.0984C17.3465 22.2828 17.4763 18.4429 17.1198 14.5863C16.8732 11.9194 16.4135 9.29526 15.5017 6.76674L15.5014 6.7665ZM15.5442 12.3992C15.6176 12.4551 15.6593 12.5829 15.673 12.6834C15.7481 13.2353 15.8207 13.7882 15.8668 14.343C15.8757 14.4497 15.8672 14.7886 15.6992 15.0319C15.5313 15.2752 14.8745 15.4188 14.3772 15.399C13.2787 15.3551 12.178 15.373 11.078 15.3636C10.6184 15.3597 10.5213 14.8992 10.5216 14.4431C10.5218 14.0496 10.5334 13.656 10.5208 13.263C10.5157 13.1039 10.4561 12.947 10.4281 12.7879C10.4127 12.7013 10.4114 12.6121 10.4038 12.5242C10.484 12.5179 10.5686 12.4916 10.6435 12.5085C11.4638 12.6936 12.2314 12.5805 12.9064 12.066C13.258 11.798 13.5697 11.4773 13.895 11.1844C14.4088 11.5602 14.9821 11.9723 15.5443 12.3992H15.5442ZM4.79355 2.1295C5.52681 1.63482 6.3448 1.40319 7.23121 1.45617C7.37789 1.46495 7.52072 1.54032 7.64435 1.57836C7.21705 2.05269 6.78267 2.48272 6.4113 2.96198C6.03897 3.44257 5.72965 3.9724 5.36477 4.52282C4.80891 4.11206 4.41678 3.611 4.36541 2.87892C4.33972 2.51462 4.54593 2.2966 4.79367 2.1295H4.79355ZM0.964874 14.5922C0.986479 14.1425 1.20913 13.7912 1.49072 13.4802C1.95907 12.9629 2.45407 12.4698 2.93791 11.9666C2.96851 11.9896 2.99924 12.0125 3.02985 12.0355C2.86805 13.5516 2.70637 15.0678 2.54457 16.5839C1.78467 16.4501 0.928265 15.3551 0.964874 14.5924V14.5922ZM1.57186 21.3482C1.33876 20.9143 1.30744 20.458 1.54701 20.0246C1.78683 19.5908 2.06986 19.1807 2.33848 18.7631C2.36933 18.7151 2.42934 18.6858 2.49824 18.6296C2.53317 19.8965 2.56714 21.1267 2.60183 22.3851C2.11439 22.1809 1.81156 21.7944 1.57174 21.3481L1.57186 21.3482ZM1.66932 26.135C1.65072 25.8075 1.78455 25.438 1.94707 25.142C2.15604 24.7613 2.46367 24.4352 2.76639 24.036C2.98304 25.3368 3.18493 26.5481 3.38813 27.7679C2.54961 27.558 1.71529 26.9457 1.66932 26.1351V26.135ZM3.35873 10.2816C2.54625 10.1625 1.77519 9.10168 1.88921 8.25149C1.90566 8.12942 1.96039 7.99362 2.04045 7.902C2.72329 7.12092 3.57214 6.58905 4.56057 6.23174C4.1526 7.60645 3.75614 8.94228 3.35873 10.2816ZM4.39469 26.4831C3.78423 23.1272 3.62495 19.7511 3.82384 16.3514C3.97832 13.7112 4.35148 11.1072 5.10382 8.56775C5.61863 6.83043 6.2633 5.14607 7.38137 3.69539C7.69825 3.28438 8.06985 2.89734 8.47831 2.57951C9.49279 1.79012 10.4868 1.80433 11.5078 2.57915C12.3047 3.18374 12.8504 3.99239 13.3331 4.87532C12.7949 4.96404 12.2797 4.99619 11.7965 5.13789C9.81723 5.71804 8.21317 6.80021 7.16532 8.64456C6.32776 10.1187 5.79183 11.6859 5.62283 13.3668C5.49344 14.6534 5.38217 15.9473 5.37269 17.2389C5.36513 18.2678 5.50364 19.3 5.61395 20.3269C5.72137 21.3274 5.85881 22.3253 6.01532 23.3192C6.1057 23.8927 6.27026 24.4542 6.37805 25.0256C6.40398 25.1632 6.38333 25.3514 6.30579 25.4601C5.9235 25.9958 5.818 26.5529 6.08398 27.1678C6.10798 27.2234 6.13907 27.3078 6.11519 27.3476C5.63183 28.1552 5.52416 29.0854 5.25206 29.9819C5.09938 29.6592 4.54521 27.31 4.39493 26.4834L4.39469 26.4831ZM13.6834 32.514C13.0703 33.5231 12.3294 34.4256 11.3772 35.1265C11.0594 35.3604 10.6807 35.5479 10.3013 35.653C9.55293 35.8605 8.89193 35.6293 8.38553 35.0421C7.54917 34.0725 6.80451 33.0371 6.20593 31.8982C5.9954 31.4975 5.94391 30.6773 6.01088 30.2431C6.07342 29.837 6.45931 27.8588 6.52676 27.9304C7.21873 28.6644 7.93026 28.8991 9.12227 28.2702C9.05877 29.1645 9.33712 29.9388 10.1217 30.3879C10.8466 30.8028 11.5158 30.4603 12.1177 29.969C12.4549 30.8893 12.5505 31.9799 13.8216 32.2346C13.7823 32.3151 13.741 32.4195 13.6835 32.5141L13.6834 32.514ZM15.8883 22.6174H12.3483C12.5338 22.0985 12.7159 21.5893 12.9063 21.0567C13.75 21.7126 14.7613 22.1267 15.9488 22.182C15.9233 22.3651 15.9059 22.4902 15.8883 22.6174ZM16.0081 20.9152C14.2134 21.2539 11.7364 19.0272 11.5612 16.6432C13.0099 16.4259 14.5096 16.908 16.0059 16.3237V18.8357C15.7824 18.8282 15.0676 18.7538 14.649 18.1196C14.4662 17.8425 14.0935 17.7662 13.8173 17.95C13.5409 18.1335 13.4651 18.5069 13.6482 18.7842C14.3902 19.9085 15.6134 20.0304 16.008 20.0394V20.9152H16.0081Z" fill="#E0E1DC"/>
<path d="M36.74 15.1528C36.9001 14.5977 36.8127 14.0406 36.5836 13.5108C36.1411 12.4875 35.3736 11.7276 34.5528 10.98C35.1865 10.4439 35.5802 9.74178 35.7895 8.93133C35.9923 8.14591 35.7996 7.43225 35.2867 6.84066C34.556 5.9977 33.6814 5.33316 32.6235 4.97139C32.8173 4.55376 33.0705 4.15202 33.1946 3.71357C33.5574 2.43095 33.1186 1.51407 31.7204 1.13533C31.098 0.966666 30.4488 0.884922 29.817 1.12726C29.6092 1.20696 29.425 1.34721 29.2196 1.43546C29.1274 1.47507 28.9769 1.50288 28.9085 1.45532C27.1271 0.21809 25.19 0.74792 23.7471 2.37244C22.6089 3.6541 21.895 5.17232 21.32 6.7665C20.4082 9.29502 19.9485 11.9191 19.7019 14.5861C19.3454 18.4426 19.4752 22.2825 20.1466 26.0981C20.575 28.5326 21.2217 30.9027 22.3637 33.1114C22.8995 34.1478 23.5484 35.1022 24.4279 35.8833C25.3531 36.705 26.4234 37.1046 27.6532 36.9007C28.3501 36.7851 28.9711 36.4188 29.456 35.912C30.3387 34.9897 31.1773 34.0276 31.741 32.8553C32.2948 31.7037 32.7451 30.5217 32.9749 29.2604C33.0403 28.9016 33.1295 28.8237 33.4738 28.9031C34.4159 29.1202 35.0272 28.55 35.5586 27.9486C36.1122 27.322 36.4346 26.5522 36.308 25.6736C36.193 24.8767 35.8562 24.1709 35.3767 23.5306C35.2929 23.4188 35.2073 23.3082 35.1129 23.1844C35.7961 22.5191 36.2473 21.7746 36.4075 20.8669C36.5169 20.2472 36.3083 19.6877 36.0509 19.1533C35.7763 18.583 35.4473 18.0391 35.1351 17.471C35.9534 16.947 36.4604 16.1218 36.74 15.1525V15.1528ZM29.5906 1.45604C30.477 1.40307 31.295 1.63482 32.0283 2.12938C32.276 2.29648 32.4822 2.5145 32.4565 2.8788C32.405 3.61088 32.013 4.11194 31.4572 4.5227C31.0923 3.97228 30.783 3.44246 30.4106 2.96186C30.0394 2.4826 29.6049 2.05257 29.1776 1.57824C29.3012 1.5402 29.4439 1.46483 29.5906 1.45604ZM25.9698 6.92541C26.8568 7.48016 27.4356 8.3478 27.8684 9.28864C28.1347 9.86735 28.3853 10.4676 28.5309 11.0847C28.7547 12.0331 28.9303 12.9991 29.0358 13.9675C29.1275 14.8095 29.1453 15.6679 29.1027 16.5142C29.0489 17.5802 28.9174 18.6434 28.7865 19.7037C28.7118 20.3095 28.6979 20.6678 28.5774 21.2672C28.5461 21.4227 28.2306 21.7863 27.5025 21.7783C26.7744 21.7704 26.3798 21.4322 25.7274 21.0484C25.1869 20.7305 24.7036 20.371 25.1022 19.8919C26.0697 18.7294 26.6847 17.3928 26.9317 15.9116C27.3498 13.9787 27.2688 12.8015 27.1664 12.1805C27.1209 11.9044 26.8385 11.7361 26.5737 11.8243C25.9099 12.0452 25.1642 12.29 24.5895 12.4437C23.7678 12.6632 22.9417 12.5764 22.15 12.2691C21.8531 12.1539 21.466 11.6622 21.3414 11.2881C21.689 9.25939 22.1909 7.49449 22.8032 6.06379C23.8351 5.79412 25.3663 6.54788 25.9698 6.92529V6.92541ZM24.6323 31.4646C25.2408 31.4985 25.6739 31.2067 26.0135 30.7558C26.2347 30.4621 26.4955 30.276 26.8545 30.2155C27.3446 30.1329 27.6142 30.3781 27.4672 30.8483C27.2042 31.6898 26.7142 32.3657 25.8091 32.5841C24.8594 32.8132 24.0333 32.4883 23.3004 31.8888C23.219 31.8222 22.7322 31.4559 23.1788 31.459C23.6633 31.459 24.1491 31.4375 24.6322 31.4644L24.6323 31.4646ZM24.2793 29.9963C24.3207 29.7241 24.5577 29.6939 24.778 29.689C25.0151 29.6837 25.1371 29.8083 25.1891 30.0498C25.2412 30.2913 25.1541 30.6932 24.833 30.728C24.4204 30.7728 24.241 30.2479 24.2793 29.9963ZM20.8786 20.9934V20.1863L20.8703 20.0391C20.877 20.0391 20.8816 20.0393 20.8896 20.0393C21.2136 20.0393 22.5251 19.9634 23.304 18.7831C23.4869 18.5058 23.4113 18.1325 23.1349 17.9489C22.8582 17.7653 22.4861 17.8413 22.3032 18.1185C21.8156 18.8572 20.9244 18.8371 20.8778 18.8353C20.8559 18.8341 20.8349 18.8369 20.8136 18.8383C20.8073 18.4891 20.8058 18.1444 20.8071 17.8025C20.8411 17.1038 20.912 16.3819 20.9357 15.7677C20.9631 15.7622 21.0321 15.7942 21.103 15.8333C21.2553 15.9172 21.4213 15.9736 21.5933 15.9975C24.2515 16.3663 25.703 15.957 25.8013 15.9613C25.3601 17.3106 24.5573 18.9899 23.4798 19.9584C22.8257 20.5463 22.0707 20.9017 21.1956 20.992C21.1012 21.0017 21.0051 20.9933 20.8786 20.9933V20.9934ZM21.2494 13.0694C22.5436 13.9167 24.173 14.1697 26.4427 13.1112V13.1591C26.4427 13.1677 26.4427 13.1837 26.4426 13.2131C26.4414 13.6833 26.3298 14.1101 26.3298 14.1101C26.3298 14.1101 26.2282 14.6872 25.9558 14.7403C25.6833 14.7934 23.0975 15.6867 21.1513 14.6578C21.1066 14.6369 21.0785 14.5246 21.0854 14.459C21.1327 14.0043 21.1912 13.5506 21.2496 13.0696L21.2494 13.0694ZM20.8139 20.7026C20.8152 20.7738 20.8167 20.8447 20.8183 20.9158C20.8169 20.9155 20.8153 20.9154 20.8139 20.9152V20.7026ZM32.4272 26.4831C32.2768 27.3097 31.7228 29.659 31.5701 29.9816C31.4711 29.4272 30.6981 26.8248 30.6098 26.3134C29.8615 23.2539 27.345 22.7144 24.1793 22.7144C23.2309 22.7306 22.2818 22.7115 21.333 22.7077C21.2161 22.7073 21.0992 22.7077 20.9569 22.7077C20.9489 22.5386 20.9428 22.4117 20.9357 22.2622C21.2185 22.221 21.4894 22.2028 21.7494 22.1394C23.3388 21.8969 23.7326 21.3437 24.2969 20.9212C25.3195 21.9917 25.9881 22.3335 27.2254 22.5443C27.7233 22.6291 28.2333 22.6542 28.7391 22.6772C29.2131 22.6987 29.3426 22.5672 29.3746 22.0836C29.4239 21.3366 30.119 17.4256 30.1381 15.9863C30.1504 15.0524 30.0566 11.6508 29.1249 9.00813C27.4482 4.95911 23.9173 4.99848 23.3426 4.94286C24.1321 3.48495 25.0566 2.51679 26.044 2.15502C26.3275 2.04065 26.6098 1.98768 26.8919 1.99551C26.9011 1.99551 26.9102 1.99466 26.9195 1.99466C29.2512 1.99466 31.2772 5.60572 32.3058 10.9133C32.6777 12.7024 32.8908 14.5182 32.9981 16.3516C33.197 19.7512 33.0377 23.1274 32.4272 26.4834V26.4831ZM32.2614 6.23174C33.2497 6.58905 34.0985 7.12092 34.7815 7.90201C34.8615 7.99362 34.9164 8.12942 34.9327 8.25149C35.0469 9.10168 34.2758 10.1625 33.4632 10.2816C33.0658 8.94228 32.6693 7.60657 32.2614 6.23174ZM35.1526 26.135C35.1066 26.9457 34.2723 27.5578 33.4338 27.7678C33.637 26.548 33.8388 25.3367 34.0554 24.0359C34.3581 24.4351 34.6658 24.7612 34.8747 25.1419C35.0373 25.438 35.1711 25.8075 35.1525 26.1348L35.1526 26.135ZM35.2749 20.0246C35.5145 20.458 35.4833 20.9143 35.2501 21.3482C35.0103 21.7945 34.7074 22.181 34.22 22.3852C34.2547 21.1268 34.2886 19.8967 34.3236 18.6297C34.3925 18.6859 34.4524 18.7152 34.4833 18.7632C34.752 19.1808 35.035 19.5909 35.2748 20.0248L35.2749 20.0246ZM34.2774 16.5838C34.1156 15.0676 33.9539 13.5516 33.7921 12.0354C33.8227 12.0124 33.8534 11.9894 33.884 11.9664C34.3679 12.4697 34.8629 12.9628 35.3312 13.4801C35.6128 13.791 35.8356 14.1423 35.8571 14.5921C35.8936 15.3549 35.0373 16.4498 34.2774 16.5837V16.5838Z" fill="#E0E1DC"/>
</svg>
