<svg width="108" height="203" viewBox="0 0 108 203" fill="none" xmlns="http://www.w3.org/2000/svg">
<g clip-path="url(#clip0_19_349)">
<path d="M62.4486 131.851C62.4491 131.771 62.416 131.657 62.4026 131.559C62.533 131.796 62.5804 131.921 62.4486 131.851Z" fill="#E0E1DC"/>
<path d="M61.2287 128.233C61.6522 129.123 62.2807 130.547 62.4043 131.559C61.9801 130.79 60.6012 128.85 61.2287 128.233Z" fill="#E0E1DC"/>
<path d="M61.2813 132.546L61.0259 131.334C61.5211 131.893 61.1043 131.933 61.2813 132.546Z" fill="#E0E1DC"/>
<path d="M61.8164 131.831L62.123 131.766L62.1084 132.481L61.8164 131.831Z" fill="#E0E1DC"/>
<path d="M75.0781 192.717C75.2858 192.679 75.4693 192.687 75.567 192.861L75.0781 192.717Z" fill="#E0E1DC"/>
<path d="M71.6636 193.959L71.0838 194.252C71.2404 194.138 71.3791 194.061 71.6636 193.959Z" fill="#E0E1DC"/>
<path d="M76.605 189.981C76.559 190.17 76.4568 190.352 76.3724 190.537C76.4253 190.348 76.5297 190.155 76.605 189.981Z" fill="#E0E1DC"/>
<path d="M73.2602 157.956L73.4397 156.593C73.9255 157.407 73.4678 157.624 73.2602 157.956Z" fill="#E0E1DC"/>
<path d="M60.1704 190.096L59.9828 190.273C59.9478 190.13 59.9565 190.013 60.1704 190.096Z" fill="#E0E1DC"/>
<path d="M69.0879 190.747C69.1646 190.869 69.1946 190.967 69.1982 191.049L69.0748 191.033L69.0879 190.747Z" fill="#E0E1DC"/>
<path d="M76.9357 187.671L76.9193 187.631L77.1647 187.236C77.1559 187.484 77.0791 187.622 76.9345 187.668L76.9357 187.671Z" fill="#E0E1DC"/>
<path d="M58.1528 188.224C58.1725 188.035 58.2212 187.828 58.3293 187.604C58.4094 187.865 58.3177 188.13 58.1528 188.224Z" fill="#E0E1DC"/>
<path d="M71.0143 194.284L71.0039 194.275L71.0845 194.252L71.0131 194.281L71.0143 194.284Z" fill="#E0E1DC"/>
<path d="M71.2561 189.143C71.1552 189.271 71.0077 189.318 70.8681 189.408C70.9434 189.234 71.1253 189.19 71.2561 189.143Z" fill="#E0E1DC"/>
<path d="M73.2592 157.956L73.1924 158.388C73.145 158.207 73.184 158.074 73.2592 157.956Z" fill="#E0E1DC"/>
<path d="M64.2456 134.655C64.4011 135.019 64.2763 135.17 64.1399 135.309C64.1322 135.079 64.1585 134.857 64.2456 134.655Z" fill="#E0E1DC"/>
<path d="M59.0968 128.702L59.1603 128.555C59.1483 128.624 59.1241 128.67 59.0968 128.702Z" fill="#E0E1DC"/>
<path d="M53.6936 142.966C53.6218 143.019 53.5415 143.075 53.4506 143.106C53.4253 142.962 53.5528 142.924 53.6936 142.966Z" fill="#E0E1DC"/>
<path d="M56.1468 157.834C55.9956 156.82 56.8999 155.999 57.1219 155.196L56.7615 155.407L57.1981 154.641L56.7687 154.552C57.2683 153.239 57.2435 151.441 58.0471 151.116L57.3296 151.105L58.227 149.803L57.5624 150.509C57.8276 148.85 59.0204 146.541 59.119 146.204L58.8297 146.278C58.7773 145.979 59.0012 145.817 59.1584 145.566L58.7243 145.67C59.5152 143.275 58.8754 142.353 60.1089 139.778C60.2504 139.015 59.8598 140.147 59.6479 140.093C59.4747 139.596 60.059 138.742 60.2944 138.592C59.6448 138.617 59.4571 139.813 59.2686 138.798C59.7548 138.275 58.5956 139.043 59.0614 137.997L59.9413 137.818C60.0087 137.175 59.3971 137.505 59.7848 136.578C60.4706 135.606 60.1827 138.18 60.8745 136.481C61.1164 135.597 59.7781 134.058 60.7731 132.505C60.9117 130.912 59.3526 132.862 60.2641 130.909L59.3164 132.031C59.2282 131.62 58.7848 131.701 59.2547 130.877C59.64 130.703 60.2034 130.296 60.4133 129.839C59.1575 131.528 60.1985 127.862 58.8214 129.36L59.0973 128.706C59.0366 128.777 58.9609 128.772 58.9214 128.708L59.2106 127.801C58.8348 128.292 58.2889 129.557 57.9739 128.754L58.3323 127.404C57.7879 127.613 57.8152 127.044 57.4606 126.992L55.2576 130.539C55.5557 130.477 55.9108 129.984 56.0881 130.28C55.9413 131.372 55.3459 130.95 55.3525 132.027L55.8227 131.718C55.6723 131.749 55.5885 131.87 55.6176 131.648C55.5236 131.239 55.8228 131.18 56.028 131.25C56.3243 131.73 55.7143 132.594 55.3279 132.782C54.9585 134.039 55.9872 133.295 56.0202 133.612C55.1084 134.015 55.3424 135.68 54.7737 136.344L55.3863 136C55.6277 137.121 54.9046 137.814 54.5719 138.321L55.0123 138.224C54.5292 139.521 55.5842 140.554 53.96 141.154L54.25 141.089C54.2067 141.668 54.2377 142.567 53.6926 142.971C53.8461 143.028 54.0136 143.177 53.9989 143.41C53.4012 143.554 53.6287 144.233 53.4963 145.059C53.781 144.565 54.4006 144.924 54.7196 144.416C55.0575 145.838 53.6493 145.327 53.3841 146.375C53.5603 147.091 53.9069 145.917 54.1979 145.838C53.4014 147.347 54.8689 149.527 53.2836 150.199L53.0265 149.398C52.5745 149.964 52.4915 150.315 52.639 150.268C52.6469 150.051 52.791 150.012 52.9351 149.973C53.1423 152.071 51.2146 152.768 51.0465 154.812C51.3317 154.719 51.4733 154.454 51.688 154.49C51.7653 155.454 50.1881 155.092 50.4083 156.683L50.7645 156.454C50.84 156.981 50.3375 157.26 50.2663 157.176C51.4203 157.439 49.6082 160.312 50.9829 161.604C50.2241 162.219 49.4067 164.247 49.6996 164.939C50.2873 165.945 50.5721 164.228 51.1837 164.657C51.1003 165.366 50.4082 165.662 50.5038 166.752C49.8496 166.709 49.4464 164.474 48.8229 166.464L49.1419 166.788C49.1138 166.572 49.023 166.268 49.1427 165.982C49.6012 165.44 49.5374 166.385 49.6963 166.538L49.3006 168.701C48.5897 168.804 48.87 167.5 48.7071 167.346C48.6703 169.116 49.581 171.263 49.0602 172.859L49.3232 172.712C48.7256 174.78 50.5968 173.912 49.4799 175.558C49.6968 176.415 50.1964 175.232 50.3229 176.52C50.3483 176.884 50.0727 176.683 49.9788 176.624C49.8358 178.24 50.6581 177.276 50.1499 178.796L50.843 178.413C50.6985 179.291 50.3648 180.236 50.1359 181.168C49.9769 182.092 49.9209 183.007 50.2399 183.739C50.7709 183.505 50.5202 182.582 50.8643 182.127C50.1941 184.426 52.0876 186.98 52.6274 188.905C51.8702 188.61 52.2051 190.351 51.1156 189.372C51.537 188.716 50.8877 188.366 50.6469 187.663C50.1189 188.54 50.8868 189.636 51.7559 190.491C52.5153 191.404 53.5417 191.95 53.1212 192.593L53.7561 192.45C53.8907 192.78 54.2765 193.691 53.6873 193.407C54.4385 193.876 55.1951 194.308 55.9338 194.722C55.4285 193.779 54.7021 192.017 53.982 191.984C53.986 191.08 54.8996 192.411 55.0072 191.491C55.4416 193.215 55.9661 191.791 56.9804 192.887C55.8896 193.203 57.72 194.64 57.5264 194.933C57.8043 194.993 58.1686 195.249 58.5172 195.548C58.8763 195.798 59.2282 196.072 59.4133 196.281C59.8736 196.437 60.6948 196.636 61.5589 196.63C62.4254 196.631 63.33 196.675 64.0734 196.896C63.5138 196.587 62.6846 196.107 62.8219 195.603C63.4745 196.001 64.2673 196.099 64.4195 195.452C62.1338 194.107 63.4833 196.773 61.3132 195.752C60.9148 194.915 60.3927 194.567 59.3997 194.037C60.0225 193.816 59.8693 193.588 60.2242 193.193C61.0208 195.053 63.4446 194.199 65.0846 194.869C65.8438 195.267 65.2631 196.276 67.124 196.305C66.6024 196.561 66.092 196.65 65.5525 196.83C67.317 196.353 65.9603 197.355 67.5386 197.295L66.8656 196.928C67.7873 196.672 68.125 196.691 68.7315 196.928L67.7984 196.357C68.2742 196.176 69.1316 195.909 69.268 196.324C69.3466 196.125 69.3465 195.978 69.3111 195.859C69.4379 195.941 69.6853 195.926 70.2357 195.675C69.8814 195.729 69.6608 195.866 69.5874 195.662C71.718 194.972 69.7653 194.728 71.0028 194.282C70.7381 194.213 70.983 193.899 71.2797 193.541C71.5699 194.047 72.2786 193.955 73.0832 193.689C73.855 193.401 74.5543 192.804 75.078 192.724L75.0602 192.721C75.6707 192.331 76.0469 191.817 76.5448 191.323C76.2591 191.626 76.211 191.085 76.3761 190.543L76.3367 190.626C76.4319 190.019 74.9606 190.667 75.9432 189.279L76.5758 188.577C76.4812 188.712 76.3677 188.508 76.3135 188.4C76.512 188.151 76.7369 187.902 76.917 187.642C76.1846 186.07 78.1228 185.251 77.7368 183.564C77.7768 184.029 77.6111 184.708 77.2976 184.365C77.201 184.047 77.3802 183.613 77.5806 183.394L77.4442 183.46C77.8293 182.494 78.0166 181.525 78.3126 180.529C77.9152 180.771 77.8349 182.418 77.4154 181.66C76.8954 181.211 77.4989 180.397 77.5288 179.867C77.8525 179.925 78.0929 180.913 78.2725 179.917C78.1185 179.793 77.7664 178.874 77.5632 179.314C77.8442 178.314 77.9804 176.845 78.4087 175.911C78.2477 175.64 78.165 176.098 78.1359 176.247L78.2292 176.312C78.1083 176.93 77.4763 176.459 77.859 177.616C76.8884 177.769 77.4503 175.955 77.2092 174.941L76.6823 176.62C75.1423 174.058 75.9947 170.322 75.4813 167.654C75.9657 168.358 75.7699 169.07 76.5284 168.83C76.5896 167.104 76.4348 167.362 76.2443 165.688L76.2358 165.839C75.6725 165.08 76.1353 163.758 75.3155 163.375C74.9847 163.837 76.0032 164.47 75.1563 164.689L74.7214 162.638C74.3708 163.403 75.1677 164.685 75.2163 165.497C75.3952 166.049 75.08 164.34 75.6898 164.478C76.1064 166.403 75.6349 166.97 75.0395 168.065C74.5673 168.753 74.256 167.363 74.1728 167.013C74.8156 165.617 74.784 163.745 73.9199 161.973L72.9993 161.123C73.3302 160.049 74.5784 160.127 73.9739 158.493L73.6542 159.121C73.3788 158.806 73.2458 158.586 73.1967 158.409C73.0642 159.219 72.8722 160.102 72.6881 160.842C71.4693 160.168 72.4221 158.014 72.194 156.567C72.0917 156.675 72.1973 157.17 71.9888 157.386C71.1613 155.401 71.6167 152.903 71.2351 151.268C70.5935 150.741 71.3947 152.669 70.6619 152.548C70.6245 151.641 69.7655 150.892 70.2686 150.476C69.5691 151.113 69.5728 148.602 69.3342 150.44C67.9656 147.605 67.5381 144.104 66.8471 140.961C66.6605 141.197 66.4566 141.277 66.2452 141.217C66.6427 142.214 66.9674 143.775 66.6099 144.54C65.9484 144.038 66.5757 142.776 66.2603 142.681C66.1881 143.091 66.447 143.757 66.0443 143.922C65.2633 143.242 65.7272 142.518 65.5752 141.885L65.9056 142.131C65.7323 140.043 66.917 140.545 65.912 138.639C65.1288 138.117 65.5105 138.807 64.9086 139.063C64.959 138.501 63.6936 137.264 64.1355 136.518L64.6731 137.695C64.5074 136.784 64.1747 135.994 64.1457 135.328C64.0389 135.442 63.9286 135.547 63.9497 135.745C63.8713 134.999 63.4643 134.166 63.7197 133.657L62.9961 133.746C63.4505 134.018 64 135.184 63.7193 135.532C63.1082 135.651 62.9607 134.312 62.6911 133.807C63.4847 136.189 62.4883 136.63 63.7015 138.417L63.7669 138.006C64.7576 139.028 64.4356 140.613 64.8766 141.676C64.6241 141.425 64.3613 141.458 64.3089 141.64C65.7368 143.814 66.2361 146.3 67.5015 148.924L67.1366 149.972L67.6508 149.852C68.3358 151.112 67.0535 150.38 67.3958 151.226C67.2819 150.898 67.3848 150.93 67.487 150.821C67.4437 152.566 68.2396 151.529 68.3751 152.456C68.7696 151.864 68.0007 150.708 68.838 150.857C68.8085 152.603 69.8967 154.932 68.7562 155.542C70.1539 158.286 70.4266 162.117 70.8913 164.584C71.1899 164.866 71.0095 164.335 71.2108 164.42C70.7578 165.554 72.4634 167.567 71.8258 167.728C72.1022 168.159 72.6165 168.26 72.8184 168.355C72.6574 169.045 72.6198 169.826 72.6851 170.638L72.7573 170.024L72.8563 170.07L72.7564 170.943L72.7098 170.919C72.8892 172.924 73.333 175.209 72.7774 177.029C73.1055 175.973 73.5876 177.226 73.7983 176.723C72.8491 177.719 72.9602 179.842 72.9679 181.516C73.1851 181.518 73.3559 181.658 73.5365 181.464L73.0809 182.429L73.3465 182.321C73.3897 184.131 71.9326 185.662 72.0672 186.693C72.4216 186.174 72.57 186.17 72.9389 186.216C72.6021 187.333 72.1527 188.345 71.2621 189.167C71.3439 189.147 71.4265 189.153 71.4927 189.193C71.431 189.556 70.9184 189.598 70.6538 189.75L71.0095 190.139C70.5011 190.477 69.9632 191.044 69.2024 191.075C69.2089 191.376 68.7325 191.417 68.2388 191.448C67.7342 191.477 67.0861 191.278 66.7172 191.509C66.37 191.45 67.5181 191.96 66.5888 192.116C66.3702 191.059 65.2787 192.106 65.1913 190.906L64.3551 191.371L64.2145 190.733C63.4097 191.741 63.1945 190.121 62.2237 190.257C62.2393 190.401 62.3264 190.476 62.2588 190.547C61.9881 190.317 61.3514 190.039 61.9543 189.899C61.4179 189.834 60.1531 188.868 60.5118 189.754C60.607 189.424 61.0577 190.005 61.3497 190.173C61.1195 190.678 60.4596 190.229 60.0702 190.606C60.0708 190.542 60.017 190.41 59.9908 190.297L59.7407 190.533C59.4101 190.067 59.0141 189.791 58.7193 189.42C58.4099 189.079 58.0884 188.806 58.1577 188.249C58.0157 188.334 57.8171 188.288 57.6228 188.017L58.1097 187.577C57.89 187.35 57.663 187.128 57.4993 186.817C57.3237 187.13 57.1403 187.472 56.9946 187.792C56.1416 186.871 56.6548 185.599 56.4513 184.636C55.8798 184.746 55.7781 184.236 55.7322 183.61C55.6658 182.999 55.5744 182.351 55.0314 181.968C54.999 182.272 54.9415 182.596 54.9491 182.884C54.7238 181.028 53.9785 180.851 54.1365 178.979C54.6714 180.451 54.4836 180.538 55.7925 182.396C54.8981 180.419 55.6874 178.729 54.974 176.739C54.7219 176.888 54.5837 177.423 54.2896 176.931C54.8161 176.499 54.1666 174.967 54.847 175.253C54.6226 174.606 54.0097 174.493 53.9169 174.086C54.1743 173.346 54.4547 172.613 54.7712 171.879L54.6365 171.941C53.289 168.007 56.2398 164.92 56.2468 161.031L55.8888 161.044L56.5726 160.173C56.0987 160.864 56.2002 159.767 55.9098 159.651L57.1392 157.335C56.8505 157.215 56.1388 157.219 56.1452 157.854L56.1468 157.834ZM57.5156 188.007L57.7748 188.372C57.8571 188.419 57.923 188.482 57.9384 188.61L57.7748 188.372C57.5618 188.259 57.2356 188.309 57.5156 188.007ZM69.5006 156.842C69.7067 156.474 69.7077 157.218 69.809 157.401L69.602 156.429C69.3933 156.351 69.5022 156.691 69.5006 156.842ZM54.3182 190.784L53.7354 190.785L53.6922 190.214L54.3182 190.784ZM50.5214 182.584L50.4622 183.524L50.3609 183.472L50.4236 182.541L50.5225 182.587L50.5214 182.584ZM53.2463 172.836C53.2175 172.888 53.2001 172.935 53.157 172.993C53.1732 172.943 53.2037 172.887 53.2463 172.836C53.5923 172.207 52.8197 171.915 53.6036 171.427C54.2263 172.095 53.5309 172.473 53.2463 172.836ZM55.5691 186.457C55.6039 186.713 55.6484 186.822 55.7761 186.947C55.9311 186.706 56.0215 186.145 56.2853 186.375C56.1454 186.709 56.5033 187.422 56.1501 187.683C56.1843 186.837 54.8232 187.029 55.568 186.454L55.5691 186.457ZM69.6262 191.182L69.5248 191.317L70.1787 191.254L69.6262 191.182ZM71.9437 189.604C72.5475 189.581 73.0861 188.746 73.3971 188.104C73.0079 187.755 72.2931 188.208 71.9416 188.799C71.1652 189.297 72.4063 189.488 71.9437 189.604ZM52.9474 181.035L52.6087 181.307L52.5229 181.122L52.4452 181.975C51.6647 181.011 52.565 180.059 52.6716 179.504C52.6749 179.977 51.9434 181.449 52.9502 181.034L52.9474 181.035ZM74.2306 183.065C74.6919 182.376 75.0854 180.982 75.4998 181.123C74.7572 181.059 74.3868 182.143 74.3782 182.48C74.4062 182.68 74.342 182.816 74.2278 183.067L74.2306 183.065ZM75.6166 183.244C75.13 184.329 74.8273 184.379 73.9825 185.051C73.8606 183.978 74.7932 183.798 75.1838 183.979C75.615 183.248 75.1195 183.34 75.077 182.927L75.6126 183.243L75.6166 183.244ZM73.4159 184.113L73.4688 184.553C73.6841 185.08 74.462 185.377 73.4907 185.871L73.4688 184.553C73.4117 184.429 73.3824 184.284 73.4159 184.113ZM73.3999 175.054L73.1884 175.532C73.172 175.084 73.2792 175.02 73.3999 175.054L73.5782 174.651C73.9426 175.608 73.6366 175.128 73.3999 175.054ZM73.8668 182.044C73.8458 182.474 73.7506 182.877 73.6812 183.287C74.0299 183.251 73.974 182.462 73.8668 182.044ZM74.0825 175.273C74.1828 175.82 74.4223 177.263 74.3582 177.065C73.9522 176.96 73.9034 175.65 74.0825 175.273ZM67.5546 146.289L67.8147 147.105L67.1757 146.895L67.5546 146.289ZM71.1454 155.689L70.8309 155.563L70.7191 155.077L71.1482 155.687L71.1454 155.689ZM73.6445 164.619C73.5241 164.601 73.391 164.659 73.2905 164.763C73.2808 164.911 73.243 165.047 73.1525 165.127C73.12 165.007 73.1859 164.866 73.2905 164.763C73.3153 164.376 73.1218 163.853 72.9058 163.651C72.6898 163.856 72.8748 164.399 72.7589 164.653C71.9573 163.988 73.3043 161.69 71.7079 162.66C71.826 162.264 71.955 160.965 72.3652 161.292C72.5359 162.248 73.1453 163.984 73.6469 164.624C73.7479 164.643 73.8401 164.706 73.8947 164.864C73.8182 164.832 73.7338 164.739 73.6469 164.624L73.6445 164.619ZM76.0931 176.891C76.0846 177.245 76.0412 177.4 75.9817 177.475C75.8616 177.784 75.6722 178.022 75.4217 177.947C75.6098 177.209 75.8279 177.661 75.9817 177.475C76.0609 177.285 76.0913 177.082 76.0931 176.891ZM76.3093 179.108L76.6033 177.936L76.2387 178.536C76.4515 177.948 76.6986 177.345 76.8695 176.744C77.323 177.732 76.771 178.95 76.3122 179.107L76.3093 179.108ZM76.6668 179.51L76.25 179.754L76.6709 179.382L76.6657 179.507L76.7598 179.452C76.7246 180.108 76.5896 180.765 76.4965 181.418C76.5549 180.786 76.6624 180.144 76.6668 179.51ZM66.691 194.34C66.085 195.947 68.5755 195.053 69.1942 195.646C69.1517 195.085 69.6475 194.284 67.7647 194.659C69.2511 193.885 69.104 195.352 69.6186 193.838C68.9388 194.303 67.9018 194.049 67.7727 194.035L68.6374 193.818C67.9316 193.021 67.3996 194.508 66.691 194.34ZM57.2316 192.36L56.3002 191.581L57.131 192.391L57.2316 192.36ZM50.8647 164.333C50.4977 164.372 50.1051 162.718 50.8146 162.448C50.7828 163.243 50.6209 164.095 50.8647 164.333ZM53.3734 151.682L52.7834 152.946C52.0783 152.509 53.0812 151.758 53.1078 151.106C53.5406 150.982 53.1694 151.411 53.3762 151.681L53.3734 151.682ZM55.6674 143.106L55.9118 142.726L55.0305 142.942L55.6645 143.107L55.6674 143.106ZM54.503 143.388C54.2409 143.024 53.8252 143.882 53.807 144.107L54.503 143.388ZM56.2325 135.494L56.1019 136.055L56.9209 135.784L56.2337 135.496L56.2325 135.494ZM56.7215 136.617C56.2061 136.587 55.5861 136.326 55.4955 137.686C55.9792 137.899 56.0824 137.557 56.5234 138.212C56.7781 137.84 56.6756 137.434 56.699 137.214C56.5263 137.469 56.6294 137.868 56.2732 137.836C56.235 137.31 56.4524 136.847 56.7215 136.617C56.9033 136.63 57.0779 136.608 57.2045 136.47C57.0529 136.425 56.8768 136.483 56.7215 136.617ZM55.8199 141.326C55.8283 141.51 55.852 141.674 55.9198 141.767L55.7717 141.804C55.6053 141.568 55.701 141.435 55.8227 141.325C55.8101 141.123 55.8162 140.893 55.8269 140.658C55.447 140.389 54.9005 141.164 54.5952 141.322C54.8419 140.947 55.3575 140.716 55.2698 140.094C55.1233 140.127 55.0584 140.033 54.9592 140.378L55.1006 139.598C55.958 138.924 55.8799 139.801 55.8281 140.661C55.9139 140.716 55.9932 140.804 56.0554 140.989C56.079 141.137 55.937 141.221 55.8239 141.328L55.8199 141.326ZM58.6613 135.647L58.4041 136.013C58.1699 136.166 58.0468 135.979 57.8992 136.009C58.0959 135.544 58.589 135.022 58.6584 135.649L58.6613 135.647ZM52.3553 160.429C52.2783 160.126 51.6376 160.679 51.6798 161.336L51.0847 160.891C51.5069 160.946 51.6906 159.675 51.7559 159.541C52.3956 159.427 52.0521 159.874 52.3553 160.429ZM54.6349 189.121C54.0489 189.831 55.5795 190.723 55.6381 191.143C54.9143 190.661 53.5172 189.223 54.6349 189.121ZM56.6794 190.878C57.0002 191.142 57.139 191.155 56.8481 191.454C56.9071 191.721 57.3045 191.756 57.3715 192.026C56.4864 191.793 56.9264 191.295 56.6794 190.878C56.5946 190.809 56.5051 190.729 56.3987 190.615C56.5461 190.699 56.6225 190.788 56.6794 190.878ZM51.4401 175.462L52.0449 174.871L51.9893 173.968L51.4401 175.462ZM53.075 165.779C52.7183 165.811 52.8391 164.769 53.0375 164.578C52.5762 164.582 52.5483 165.289 52.4297 165.839C52.3832 165.904 52.347 166.019 52.3267 166.198C52.3734 166.092 52.4016 165.974 52.4297 165.839C52.5633 165.644 52.7774 165.817 52.9351 165.836L53.0338 166.126L53.2516 165.379L53.0722 165.78L53.075 165.779ZM56.905 148.989C56.7233 148.292 56.8674 148.253 57.1003 147.877C57.2365 148.055 57.1397 148.61 56.905 148.989ZM53.0109 170.931C52.8319 169.881 52.2955 171.39 52.1012 170.694L52.1236 171.247C51.6786 170.329 52.6727 170.641 52.5619 170.012L52.6342 170.433C53.0561 170.789 52.9598 169.819 53.3278 169.766C53.4597 170.26 53.0894 171.343 53.0109 170.931ZM57.4472 148.106C57.2865 146.979 58.1244 147.399 58.3676 146.811C58.5391 147.72 57.7701 147.38 57.4472 148.106ZM54.9688 164.591L55.0462 164.666L55.4162 163.883L55.3376 163.805L54.966 164.592L54.9688 164.591Z" fill="#E0E1DC"/>
<path d="M53.3525 145.619C53.3685 145.349 53.4279 145.184 53.4985 145.055C53.4708 145.24 53.4248 145.429 53.3525 145.619Z" fill="#E0E1DC"/>
<path d="M57.1766 194.989C57.2595 194.899 57.3844 194.894 57.5314 194.928C57.4831 194.981 57.3894 195.013 57.1766 194.989Z" fill="#E0E1DC"/>
<path d="M59.3242 196.246L59.4133 196.277L59.4751 196.338L59.3242 196.246Z" fill="#E0E1DC"/>
<path d="M65.0185 135.015C65.3673 134.384 65.2696 135.377 65.4082 135.708C65.2696 135.377 64.8526 135.4 65.0185 135.015Z" fill="#E0E1DC"/>
<path d="M65.2202 137.98C65.2948 137.722 65.2858 137.399 65.1923 137.039C65.2943 137.248 65.336 137.505 65.2202 137.98Z" fill="#E0E1DC"/>
<path d="M64.575 135.76C64.8935 136.222 65.0977 136.656 65.1937 137.038C65.0368 136.711 64.7211 136.509 64.575 135.76Z" fill="#E0E1DC"/>
<path d="M68.1005 145.001C68.272 144.466 67.8039 143.729 67.8039 143.729C68.7533 145.359 68.2873 143.15 68.4699 142.912C68.7704 144.039 68.3568 144.201 68.0993 144.998L68.1005 145.001Z" fill="#E0E1DC"/>
<path d="M68.7677 147.37C68.702 147.193 68.6273 147.026 68.5352 146.907C68.6756 147.046 68.7399 147.204 68.7677 147.37Z" fill="#E0E1DC"/>
<path d="M69.3157 147.908C69.4511 148.541 69.1582 148.885 68.9711 149.259C68.4471 148.621 68.8713 147.946 68.7691 147.37C68.9268 147.796 69.0341 148.23 69.3157 147.908Z" fill="#E0E1DC"/>
<path d="M76.7054 166.539C76.7144 166.382 76.6341 166.03 76.8445 165.974L77.0867 167.048C77.0539 167.506 76.7937 166.747 76.7025 166.54L76.7054 166.539Z" fill="#E0E1DC"/>
<path d="M76.4399 170.704C76.5594 171.567 77.0398 171.03 76.9777 171.49L76.239 171.558L76.4411 170.707L76.4399 170.704Z" fill="#E0E1DC"/>
<path d="M72.6518 170.872L72.6806 170.617L72.7065 170.9L72.6518 170.872Z" fill="#E0E1DC"/>
<path d="M77.7589 174.789L78.5192 174.081C78.3836 174.858 77.7315 174.934 77.7589 174.789Z" fill="#E0E1DC"/>
<path d="M78.5835 178.156L78.8156 177.607L78.6343 179.291L78.5835 178.156Z" fill="#E0E1DC"/>
<path d="M78.183 182.346L78.3523 182.508C78.2867 182.885 78.1398 183.276 78.0352 183.656C78.0969 183.22 78.1729 182.778 78.1842 182.349L78.183 182.346Z" fill="#E0E1DC"/>
<path d="M49.232 178.533C49.9052 178.305 49.8381 180.09 50.084 180.577C49.1686 180.343 50.1936 179.149 49.232 178.533Z" fill="#E0E1DC"/>
<path d="M53.2687 147.16L52.6909 148.723C52.7476 147.41 52.778 148.373 53.2687 147.16Z" fill="#E0E1DC"/>
</g>
<g clip-path="url(#clip1_19_349)">
<path d="M24.0603 52.7008C24.0728 52.6438 24.0666 52.5583 24.0719 52.4867C24.1284 52.6749 24.1432 52.7703 24.0603 52.7008Z" fill="#E0E1DC"/>
<path d="M23.7408 49.9489C23.9064 50.6442 24.1364 51.7498 24.0707 52.4867C23.8864 51.8768 23.202 50.2917 23.7408 49.9489Z" fill="#E0E1DC"/>
<path d="M23.1209 53.0166L23.1234 52.1178C23.39 52.5899 23.0882 52.5551 23.1209 53.0166Z" fill="#E0E1DC"/>
<path d="M23.6131 52.5913L23.8405 52.5916L23.7218 53.0962L23.6131 52.5913Z" fill="#E0E1DC"/>
<path d="M23.793 97.7991C23.9461 97.8035 24.075 97.8374 24.1179 97.9757L23.793 97.7991Z" fill="#E0E1DC"/>
<path d="M21.1818 98.1622L20.726 98.2827C20.8544 98.2254 20.9644 98.192 21.1818 98.1622Z" fill="#E0E1DC"/>
<path d="M25.2923 96.0893C25.231 96.2166 25.1308 96.3303 25.0429 96.4486C25.109 96.3228 25.2124 96.2017 25.2923 96.0893Z" fill="#E0E1DC"/>
<path d="M27.7698 72.861L28.1038 71.921C28.3251 72.5722 27.9674 72.6568 27.7698 72.861Z" fill="#E0E1DC"/>
<path d="M13.6116 93.6798L13.4516 93.7769C13.4484 93.6703 13.4724 93.5885 13.6116 93.6798Z" fill="#E0E1DC"/>
<path d="M19.8398 95.4931C19.8757 95.5916 19.8821 95.6657 19.8722 95.7245L19.7872 95.6941L19.8398 95.4931Z" fill="#E0E1DC"/>
<path d="M25.8724 94.5005L25.8669 94.4695L26.1008 94.227C26.057 94.4013 25.9816 94.4877 25.872 94.4983L25.8724 94.5005Z" fill="#E0E1DC"/>
<path d="M12.4634 92.0456C12.5059 91.9149 12.5718 91.7754 12.6826 91.6324C12.6998 91.83 12.5946 92.0039 12.4634 92.0456Z" fill="#E0E1DC"/>
<path d="M20.6701 98.2947L20.6641 98.2866L20.7248 98.2826L20.6697 98.2925L20.6701 98.2947Z" fill="#E0E1DC"/>
<path d="M21.622 94.6837C21.531 94.7593 21.4193 94.7702 21.3065 94.8132C21.3864 94.7009 21.5221 94.6971 21.622 94.6837Z" fill="#E0E1DC"/>
<path d="M27.7702 72.8608L27.6573 73.1569C27.6512 73.0212 27.699 72.9329 27.7702 72.8608Z" fill="#E0E1DC"/>
<path d="M24.9108 54.9628C24.9659 55.2448 24.8544 55.3332 24.7365 55.4113C24.7661 55.2464 24.8182 55.0934 24.9108 54.9628Z" fill="#E0E1DC"/>
<path d="M22.1589 49.9589L22.2262 49.8648C22.2073 49.9115 22.183 49.9409 22.1589 49.9589Z" fill="#E0E1DC"/>
<path d="M16.1642 59.2602C16.1053 59.2867 16.0398 59.3144 15.9707 59.3222C15.9745 59.2167 16.0708 59.2085 16.1642 59.2602Z" fill="#E0E1DC"/>
<path d="M15.6475 70.1799C15.694 69.4375 16.46 68.9923 16.7392 68.4567L16.4515 68.5515L16.8775 68.0739L16.5862 67.946C17.1398 67.0898 17.3948 65.8106 18.0142 65.7018L17.5068 65.5853L18.3409 64.7974L17.7624 65.1975C18.202 64.0608 19.3982 62.6037 19.5194 62.3791L19.3028 62.3883C19.311 62.1679 19.4943 62.0872 19.644 61.9327L19.3203 61.9406C20.2445 60.3613 19.9302 59.6105 21.1959 57.97C21.4119 57.4502 20.9632 58.1941 20.821 58.1239C20.7735 57.7448 21.3174 57.2277 21.5072 57.1572C21.0425 57.0764 20.728 57.8966 20.7483 57.1474C21.1725 56.8502 20.2336 57.2191 20.7226 56.5478L21.374 56.5541C21.5192 56.1086 21.0353 56.25 21.4509 55.6511C22.0848 55.0655 21.4904 56.8479 22.2388 55.747C22.5445 55.1564 21.8282 53.8621 22.7695 52.9113C23.1094 51.8016 21.7077 52.9489 22.6504 51.7015L21.8079 52.3541C21.8077 52.0486 21.4808 52.0388 21.9391 51.5258C22.2389 51.4606 22.7003 51.257 22.9185 50.9649C21.7714 51.973 23.0659 49.5294 21.8617 50.3837L22.1566 49.9615C22.1026 50.003 22.0498 49.9874 22.0315 49.936L22.3742 49.3365C22.0331 49.6279 21.454 50.4431 21.3523 49.8252L21.8111 48.9221C21.3932 48.988 21.4989 48.5882 21.2552 48.4974L19.1545 50.6798C19.3753 50.6812 19.702 50.3855 19.783 50.6218C19.5133 51.3747 19.1547 50.9852 18.9963 51.7501L19.3767 51.6021C19.2652 51.6015 19.1874 51.6748 19.2418 51.5214C19.2372 51.2167 19.4584 51.2204 19.5933 51.3011C19.7307 51.6868 19.1669 52.2074 18.8643 52.2822C18.4116 53.118 19.2543 52.7458 19.2297 52.9759C18.5217 53.1234 18.4352 54.3404 17.9312 54.7249L18.418 54.5738C18.4193 55.4057 17.8012 55.7879 17.4883 56.0971L17.8154 56.0954C17.276 56.9422 17.868 57.8347 16.6247 58.0143L16.8403 58.0121C16.7218 58.4164 16.6074 59.0594 16.1596 59.2628C16.2597 59.3269 16.356 59.4578 16.3102 59.6211C15.8644 59.6326 15.9228 60.1488 15.7037 60.7148C15.9805 60.4075 16.3658 60.7557 16.6691 60.4436C16.6932 61.5041 15.7715 60.9283 15.4246 61.6312C15.441 62.1663 15.8649 61.3858 16.0833 61.374C15.2895 62.3234 16.0001 64.093 14.7737 64.3288L14.7126 63.7219C14.3062 64.0547 14.194 64.2914 14.3057 64.2805C14.3443 64.1277 14.4524 64.122 14.5605 64.1163C14.3895 65.6357 12.9161 65.8383 12.4871 67.2627C12.7036 67.2399 12.8442 67.0733 12.9911 67.1313C12.8998 67.8271 11.8356 67.3316 11.7506 68.4937L12.0381 68.3852C12.0117 68.7706 11.6129 68.8923 11.5752 68.8215C12.354 69.1835 10.6329 70.9467 11.4122 72.0724C10.7808 72.3931 9.89335 73.7081 9.99619 74.2437C10.2607 75.0467 10.723 73.8717 11.092 74.2684C10.9253 74.7589 10.3893 74.8641 10.2919 75.6522C9.83432 75.5222 9.88701 73.8757 9.14311 75.1924L9.32033 75.4707C9.33305 75.3133 9.31469 75.0841 9.44298 74.8992C9.85038 74.5845 9.6619 75.2453 9.75152 75.3774L9.14284 76.8522C8.62282 76.8178 9.01933 75.935 8.92711 75.8011C8.63277 77.0508 8.95339 78.7125 8.34193 79.766L8.55086 79.7012C7.81324 81.0783 9.27248 80.746 8.23052 81.7445C8.25448 82.3854 8.78829 81.6217 8.68275 82.5549C8.6456 82.8169 8.48061 82.6322 8.42286 82.5764C8.07652 83.701 8.80611 83.1415 8.21497 84.1436L8.76482 83.9766C8.52921 84.5774 8.14923 85.1973 7.84551 85.824C7.59262 86.4553 7.41419 87.0961 7.52958 87.6636C7.94174 87.5783 7.90387 86.8852 8.2169 86.6147C7.3929 88.1441 8.34906 90.2436 8.44029 91.691C7.94786 91.3666 7.9215 92.6527 7.29681 91.7934C7.69538 91.3913 7.28768 91.0449 7.22347 90.5092C6.71592 91.0516 7.09452 91.9459 7.58152 92.684C7.98199 93.4466 8.62733 93.9899 8.23158 94.3823L8.70363 94.3775C8.74918 94.6315 8.88471 95.3368 8.50973 95.0461C8.97169 95.4922 9.4429 95.9139 9.90433 96.3191C9.6888 95.5734 9.44045 94.2135 8.93464 94.0807C9.07443 93.44 9.52092 94.5228 9.73658 93.8868C9.78348 95.1757 10.3715 94.2449 10.925 95.1762C10.1033 95.2346 11.1839 96.532 11.0022 96.7105C11.1902 96.7954 11.4099 97.0319 11.612 97.2966C11.8288 97.5291 12.0369 97.7767 12.1366 97.9527C12.4395 98.1332 12.9919 98.399 13.6059 98.526C14.2206 98.6575 14.8557 98.8264 15.3496 99.0958C14.9995 98.7915 14.4839 98.3253 14.6577 97.9886C15.0603 98.3701 15.6081 98.5592 15.8141 98.1233C14.3964 96.8225 14.9496 98.919 13.5647 97.8654C13.4089 97.2116 13.0912 96.8855 12.4671 96.359C12.9424 96.2966 12.8683 96.1115 13.1801 95.8846C13.4633 97.3249 15.3123 97.0869 16.3743 97.8108C16.8526 98.2085 16.2876 98.8364 17.6036 99.1386C17.1946 99.2415 16.8191 99.2268 16.409 99.2729C17.7332 99.202 16.6188 99.7073 17.7477 99.9039L17.3258 99.5418C18.0185 99.4997 18.2552 99.5644 18.6497 99.8243L18.0742 99.2776C18.4393 99.2213 19.088 99.162 19.1218 99.4774C19.2077 99.348 19.23 99.2437 19.2229 99.1538C19.3004 99.2311 19.4782 99.2585 19.9067 99.1634C19.6471 99.1484 19.4698 99.2121 19.4487 99.0563C21.065 98.8897 19.7166 98.42 20.6622 98.2916C20.4848 98.2025 20.7062 98.0169 20.971 97.8076C21.1002 98.2108 21.617 98.2526 22.2281 98.1864C22.8194 98.0986 23.406 97.7814 23.7897 97.8038L23.7775 97.7992C24.2697 97.6152 24.6147 97.3071 25.0428 97.032C24.794 97.2043 24.842 96.8126 25.0413 96.4531L25.0008 96.506C25.1604 96.0898 24.0182 96.3265 24.9257 95.4912L25.481 95.0884C25.3934 95.1702 25.3439 95.0081 25.3218 94.9232C25.5003 94.7772 25.6975 94.6346 25.8648 94.477C25.5836 93.2506 27.0828 92.9636 27.0646 91.7083C27.0225 92.0442 26.802 92.5009 26.6316 92.21C26.6113 91.9697 26.8042 91.6888 26.9796 91.5639L26.8729 91.5899C27.2925 90.9629 27.5723 90.304 27.9333 89.6419C27.6146 89.7538 27.308 90.91 27.1252 90.3089C26.8243 89.9114 27.376 89.4249 27.4776 89.0533C27.6985 89.1437 27.7192 89.8809 27.9976 89.2017C27.9072 89.0903 27.7967 88.3851 27.5857 88.6668C27.9368 87.9997 28.2561 86.978 28.7015 86.3806C28.6284 86.1634 28.5003 86.476 28.4571 86.5772L28.5134 86.6378C28.334 87.0575 27.9569 86.6281 28.053 87.5069C27.3412 87.4681 28.0148 86.2666 27.9975 85.5105L27.3691 86.6218C26.6649 84.5706 27.8362 82.0487 27.8763 80.0784C28.1132 80.6516 27.8665 81.1267 28.4409 81.0716C28.746 79.8564 28.5971 80.0153 28.7156 78.7994L28.6868 78.9049C28.4022 78.281 28.931 77.4133 28.4075 77.017C28.1026 77.295 28.7292 77.8986 28.0952 77.9257L28.0976 76.4045C27.7329 76.8939 28.104 77.9241 28.0154 78.5077C28.0586 78.9263 28.0941 77.6659 28.5057 77.8566C28.5095 79.2855 28.089 79.6162 27.5005 80.3031C27.0613 80.7193 27.0511 79.686 27.0452 79.4249C27.7128 78.5323 27.9741 77.1995 27.6297 75.8112L27.1055 75.0684C27.5031 74.3565 28.3768 74.6011 28.1957 73.3499L27.8736 73.7474C27.726 73.482 27.6649 73.306 27.657 73.1729C27.4403 73.7271 27.17 74.325 26.9272 74.8222C26.1648 74.1586 27.1673 72.7751 27.2248 71.7137C27.1358 71.7752 27.1357 72.1423 26.9551 72.2636C26.6688 70.7304 27.3707 69.0268 27.3478 67.8088C26.9724 67.338 27.2485 68.8275 26.7471 68.6301C26.858 67.981 26.3621 67.3198 26.7821 67.1008C26.1893 67.4465 26.5725 65.6655 26.1246 66.9337C25.5835 64.7142 25.8109 62.1655 25.7971 59.831C25.6289 59.9706 25.4721 59.9964 25.3313 59.9213C25.4621 60.689 25.4558 61.8461 25.0863 62.3341C24.6931 61.878 25.3294 61.0776 25.1201 60.9624C25.0066 61.2426 25.0893 61.7545 24.7787 61.8102C24.3276 61.2093 24.7665 60.7658 24.7546 60.2937L24.9518 60.5183C25.1453 59.0107 25.9098 59.5463 25.4856 58.0423C25.0091 57.5532 25.1754 58.1002 24.7095 58.1905C24.8304 57.7995 24.1203 56.7298 24.5468 56.268L24.7498 57.1847C24.7703 56.513 24.654 55.9023 24.7344 55.425C24.6414 55.4896 24.5472 55.5475 24.5321 55.6916C24.5896 55.15 24.4272 54.4974 24.6854 54.1752L24.1586 54.1283C24.4398 54.3903 24.653 55.3005 24.401 55.5053C23.9493 55.4974 24.0478 54.5244 23.933 54.1254C24.1349 55.9361 23.3612 56.0975 23.9511 57.549L24.0598 57.2674C24.6077 58.1427 24.139 59.2185 24.2907 60.0395C24.1496 59.8231 23.958 59.8073 23.8933 59.9283C24.5769 61.6867 24.5543 63.5262 25.0543 65.5797L24.6365 66.268L25.0195 66.2609C25.3144 67.2591 24.5157 66.545 24.6303 67.197C24.5992 66.9473 24.6673 66.9852 24.7564 66.9236C24.461 68.1553 25.1829 67.5403 25.1386 68.2185C25.5082 67.8582 25.1379 66.9213 25.7094 67.1541C25.4237 68.3886 25.8427 70.2059 24.9411 70.4655C25.5168 72.6241 25.1294 75.3839 25.0852 77.2044C25.2542 77.45 25.2068 77.0458 25.3367 77.1365C24.8434 77.8725 25.7483 79.5593 25.2717 79.5764C25.4023 79.9246 25.7519 80.074 25.8809 80.1717C25.6619 80.6373 25.5169 81.1854 25.4401 81.7715L25.5845 81.3466L25.6476 81.3945L25.4444 81.9987L25.4151 81.9743C25.2384 83.4241 25.2069 85.1124 24.5367 86.3201C24.9296 85.6204 25.0817 86.5827 25.3075 86.2572C24.483 86.82 24.24 88.3432 23.9916 89.5323C24.1455 89.5663 24.2453 89.692 24.4029 89.5817L23.9334 90.1971L24.1383 90.1604C23.8945 91.4512 22.6286 92.3166 22.5679 93.0685C22.898 92.7539 23.0039 92.7737 23.2585 92.8626C22.8503 93.6038 22.378 94.2539 21.6216 94.7019C21.6826 94.7 21.7403 94.7171 21.7812 94.7553C21.6824 95.0033 21.3124 94.9557 21.1016 95.0231L21.295 95.3532C20.8831 95.516 20.4154 95.8369 19.8711 95.743C19.83 95.9578 19.4858 95.9147 19.1307 95.862C18.7683 95.8062 18.3388 95.5663 18.0421 95.6742C17.8046 95.5799 18.5419 96.1158 17.8589 96.0855C17.864 95.3025 16.9308 95.8802 17.0508 95.0151L16.387 95.2185L16.384 94.7448C15.6603 95.3374 15.7531 94.1557 15.0438 94.105C15.0329 94.2095 15.0834 94.2757 15.0247 94.3159C14.8676 94.1115 14.458 93.8178 14.9068 93.8103C14.5361 93.683 13.7853 92.8053 13.9055 93.4882C14.023 93.2688 14.2547 93.7494 14.4364 93.9129C14.1965 94.2364 13.7963 93.8179 13.463 94.0258C13.4731 93.9807 13.4549 93.8791 13.4535 93.795L13.2402 93.9244C13.0764 93.5434 12.8373 93.2876 12.6843 92.9798C12.5166 92.6907 12.3299 92.4483 12.4633 92.0641C12.3498 92.1027 12.2158 92.0401 12.1191 91.8181L12.5312 91.58C12.4098 91.3852 12.2823 91.1937 12.2133 90.9485C12.0414 91.1434 11.8594 91.3585 11.7074 91.5635C11.2419 90.7806 11.7989 89.9557 11.8005 89.2418C11.3783 89.2331 11.3835 88.856 11.4458 88.4048C11.4913 87.9611 11.5247 87.4878 11.1975 87.1337C11.1284 87.3445 11.0385 87.5658 11.0002 87.771C11.1218 86.42 10.6198 86.1817 11.0158 84.8772C11.1721 86.0029 11.0257 86.0359 11.6727 87.5524C11.3378 86.0142 12.1539 84.9354 11.9495 83.4148C11.748 83.4828 11.5689 83.841 11.4348 83.4478C11.8738 83.2209 11.6454 82.0352 12.0846 82.3418C12.0235 81.8488 11.6058 81.6752 11.6016 81.3727C11.8965 80.8867 12.2065 80.4093 12.5424 79.9364L12.4374 79.9598C12.0778 76.9645 14.6392 75.2216 15.2338 72.4634L14.9779 72.4181L15.5951 71.9039C15.154 72.3227 15.3924 71.5595 15.2038 71.4337L16.4273 69.9763C16.2406 69.8479 15.7351 69.7425 15.6433 70.1944L15.6475 70.1799ZM12.0445 91.795L12.173 92.0934C12.2244 92.1389 12.2615 92.1938 12.2531 92.2865L12.173 92.0934C12.0391 91.9806 11.8001 91.9664 12.0445 91.795ZM25.2722 71.5006C25.4743 71.2706 25.3621 71.7991 25.4063 71.9439L25.4067 71.2234C25.2705 71.1361 25.2962 71.3937 25.2722 71.5006ZM9.35501 93.2803L8.9414 93.1926L8.99726 92.7813L9.35501 93.2803ZM7.90426 86.8874L7.71979 87.5452L7.65584 87.4928L7.8415 86.8416L7.90466 86.8896L7.90426 86.8874ZM11.3153 80.3844C11.287 80.4168 11.2675 80.4476 11.2282 80.4821C11.2473 80.449 11.2774 80.414 11.3153 80.3844C11.6562 79.9904 11.1524 79.6657 11.7824 79.4388C12.123 80.007 11.5724 80.1696 11.3153 80.3844ZM10.8986 90.3998C10.8844 90.5871 10.8994 90.671 10.9711 90.779C11.1175 90.6319 11.2668 90.2472 11.4191 90.4502C11.2692 90.6663 11.415 91.2261 11.1249 91.3579C11.2774 90.7628 10.2826 90.6927 10.8982 90.3976L10.8986 90.3998ZM20.1555 95.8835L20.063 95.964L20.5366 96.0181L20.1555 95.8835ZM22.039 95.115C22.4708 95.1903 22.9795 94.6796 23.2974 94.2715C23.0742 93.9649 22.4984 94.1776 22.1594 94.5439C21.5331 94.7793 22.3847 95.1031 22.039 95.115ZM9.86035 86.1559L9.57881 86.2976L9.54606 86.153L9.36151 86.747C8.95391 85.9445 9.73712 85.4051 9.89681 85.0276C9.82748 85.3638 9.08534 86.2972 9.86255 86.1555L9.86035 86.1559ZM24.6527 90.8228C25.0845 90.4034 25.575 89.4742 25.8476 89.6374C25.3304 89.4793 24.9034 90.1919 24.846 90.4302C24.8357 90.5757 24.7695 90.6628 24.6505 90.8232L24.6527 90.8228ZM25.6089 91.1599C25.0993 91.8554 24.8769 91.8451 24.1755 92.1943C24.2517 91.4146 24.9408 91.4278 25.1904 91.6156C25.6071 91.1625 25.2416 91.1527 25.2742 90.8528L25.6063 91.158L25.6089 91.1599ZM23.9158 91.4429L23.8867 91.7627C23.9596 92.1692 24.4664 92.4978 23.7025 92.7009L23.8867 91.7627C23.8649 91.6663 23.8661 91.5589 23.9158 91.4429ZM25.2777 85.0131L25.0553 85.3197C25.1116 84.9996 25.1973 84.9705 25.2777 85.0131L25.4654 84.7537C25.5789 85.4881 25.4345 85.1013 25.2777 85.0131ZM24.5493 90.0434C24.4693 90.345 24.3406 90.6166 24.2293 90.8965C24.4821 90.9241 24.5621 90.3557 24.5493 90.0434ZM25.7289 85.2719C25.717 85.6753 25.6683 86.7351 25.6528 86.5852C25.3806 86.4493 25.5446 85.5124 25.7289 85.2719ZM25.4914 63.7184L25.5522 64.3368L25.1307 64.0909L25.4914 63.7184ZM26.614 70.9317L26.4099 70.795L26.4042 70.4335L26.6162 70.9313L26.614 70.9317ZM27.0333 77.6463C26.9505 77.6156 26.8474 77.6364 26.7602 77.6953C26.731 77.7986 26.6835 77.8892 26.6072 77.9325C26.6023 77.8422 26.6704 77.7525 26.7602 77.6953C26.8366 77.424 26.7785 77.024 26.656 76.8476C26.4716 76.9605 26.5206 77.3735 26.3998 77.5365C25.9319 76.9432 27.2359 75.517 25.9562 75.963C26.1001 75.7001 26.3886 74.798 26.63 75.0921C26.6062 75.7963 26.7753 77.1203 27.0341 77.6508C27.1029 77.6795 27.1589 77.7378 27.1737 77.8583C27.1243 77.8238 27.0784 77.7454 27.0341 77.6508L27.0333 77.6463ZM26.9101 86.7246C26.8504 86.9747 26.7961 87.0779 26.7426 87.1217C26.6104 87.3232 26.44 87.4632 26.2736 87.3722C26.519 86.8768 26.6052 87.2307 26.7426 87.1217C26.8275 86.9993 26.8798 86.86 26.9101 86.7246ZM26.7274 88.3305L27.1137 87.5431L26.764 87.9136C27.0042 87.5285 27.2708 87.1387 27.4832 86.7381C27.6553 87.5075 27.079 88.288 26.7296 88.3301L26.7274 88.3305ZM26.9201 88.6699L26.5873 88.7797L26.9425 88.5792L26.9197 88.6677L26.9948 88.6428C26.8704 89.1029 26.6751 89.5483 26.5101 89.9974C26.6473 89.5578 26.8209 89.1186 26.9201 88.6699ZM17.5943 97.6788C16.9206 98.7275 18.8231 98.4708 19.1722 98.985C19.2271 98.5808 19.7003 98.0878 18.3076 98.0684C19.4795 97.7443 19.1528 98.7628 19.7474 97.767C19.1946 97.9938 18.4974 97.6559 18.408 97.6264L19.0542 97.604C18.6744 96.9311 18.0715 97.9056 17.5943 97.6788ZM11.1831 94.8404L10.6403 94.1466L11.107 94.8472L11.1831 94.8404ZM10.9148 73.9901C10.6484 73.9626 10.6206 72.7296 11.1648 72.6457C11.0218 73.2048 10.7778 73.7844 10.9148 73.9901ZM14.6124 65.3951L14.0022 66.2022C13.5683 65.7852 14.3936 65.4047 14.5114 64.9459C14.8371 64.9239 14.5087 65.172 14.6146 65.3947L14.6124 65.3951ZM17.5401 59.6582L17.7712 59.4253L17.1131 59.4452L17.5379 59.6586L17.5401 59.6582ZM16.6712 59.6818C16.5405 59.3837 16.1154 59.9296 16.0685 60.0862L16.6712 59.6818ZM19.095 54.343L18.9173 54.7214L19.5395 54.6532L19.0954 54.3452L19.095 54.343ZM19.2717 55.2142C18.9105 55.1148 18.5103 54.8354 18.2398 55.7868C18.5506 56.0115 18.6758 55.7838 18.8894 56.3156C19.1264 56.0907 19.1152 55.7871 19.1652 55.6346C19.0041 55.7888 19.0167 56.0875 18.7688 56.0111C18.8214 55.6323 19.0458 55.3367 19.2717 55.2142C19.3987 55.2507 19.5258 55.2621 19.6367 55.1829C19.5359 55.128 19.4022 55.1429 19.2717 55.2142ZM17.9181 58.4185C17.8962 58.5501 17.8882 58.6702 17.9223 58.7461L17.8115 58.75C17.7292 58.5573 17.8173 58.4777 17.9203 58.4182C17.942 58.2729 17.9812 58.1108 18.0243 57.9458C17.7956 57.6972 17.2904 58.164 17.0498 58.2299C17.2817 58.0014 17.6825 57.9159 17.7146 57.461C17.6057 57.4622 17.5738 57.3859 17.4512 57.6153L17.6697 57.0837C18.3803 56.7351 18.1919 57.3457 18.0247 57.948C18.0773 58.0001 18.1202 58.0745 18.1363 58.2153C18.1307 58.3234 18.0171 58.362 17.9207 58.4204L17.9181 58.4185ZM20.7949 54.8203L20.557 55.0407C20.3677 55.1134 20.3088 54.9621 20.1995 54.9612C20.4095 54.6614 20.8384 54.3656 20.7927 54.8207L20.7949 54.8203ZM12.5641 71.4464C12.5554 71.2199 12.0171 71.5148 11.9473 71.9879L11.5926 71.5818C11.8838 71.6846 12.2069 70.8105 12.2735 70.7255C12.7447 70.7414 12.4331 71.007 12.5641 71.4464ZM9.8319 92.1483C9.30838 92.5636 10.2592 93.4283 10.2369 93.7355C9.79662 93.2832 9.02333 92.0516 9.8319 92.1483ZM11.0159 93.7053C11.2037 93.9407 11.3001 93.9713 11.0483 94.1395C11.0497 94.3376 11.3264 94.4226 11.333 94.6243C10.7405 94.3247 11.128 94.0386 11.0159 93.7053C10.9662 93.6435 10.9149 93.5729 10.8566 93.4762C10.9486 93.5578 10.9893 93.6326 11.0159 93.7053ZM9.63579 81.9737L10.1545 81.6458L10.2519 80.9968L9.63579 81.9737ZM12.2637 75.3511C12.0058 75.3198 12.2494 74.599 12.4192 74.4933C12.0912 74.4267 11.9643 74.9237 11.7968 75.2957C11.7539 75.3354 11.7107 75.4115 11.6692 75.5352C11.7184 75.4671 11.7564 75.3873 11.7968 75.2957C11.9212 75.1777 12.0468 75.333 12.1558 75.3705L12.1818 75.5915L12.4496 75.0944L12.2615 75.3515L12.2637 75.3511ZM17.5263 64.02C17.5031 63.4975 17.6112 63.4918 17.8335 63.2605C17.903 63.4076 17.7503 63.7861 17.5263 64.02ZM11.4372 78.9968C11.4693 78.225 10.86 79.2143 10.8276 78.6911L10.7598 79.0863C10.5832 78.3679 11.2411 78.7401 11.258 78.2765L11.2454 78.5866C11.4908 78.9028 11.5695 78.2002 11.8387 78.218C11.8574 78.5886 11.4304 79.3013 11.4372 78.9968ZM18.0448 63.4756C18.1017 62.6515 18.6326 63.0762 18.8942 62.6964C18.878 63.3673 18.3841 63.009 18.0448 63.4756ZM13.7875 74.7952L13.831 74.8604L14.2121 74.3611L14.1682 74.2938L13.7853 74.7956L13.7875 74.7952Z" fill="#E0E1DC"/>
<path d="M15.5169 61.0904C15.5693 60.9009 15.6364 60.7931 15.706 60.7122C15.6583 60.8393 15.597 60.9666 15.5169 61.0904Z" fill="#E0E1DC"/>
<path d="M10.7451 96.6972C10.8177 96.6455 10.9069 96.6614 11.0061 96.7074C10.9638 96.7378 10.8926 96.746 10.7451 96.6972Z" fill="#E0E1DC"/>
<path d="M12.0781 97.9148L12.1367 97.9499L12.1712 98.003L12.0781 97.9148Z" fill="#E0E1DC"/>
<path d="M25.4009 55.3353C25.744 54.9409 25.5243 55.6301 25.5724 55.886C25.5243 55.6301 25.2249 55.5835 25.4009 55.3353Z" fill="#E0E1DC"/>
<path d="M25.0933 57.4694C25.1854 57.2979 25.2281 57.0668 25.2162 56.7976C25.2569 56.9613 25.2475 57.1499 25.0933 57.4694Z" fill="#E0E1DC"/>
<path d="M24.9745 55.7969C25.1305 56.1725 25.2095 56.5117 25.2197 56.7971C25.158 56.5415 24.9646 56.3504 24.9745 55.7969Z" fill="#E0E1DC"/>
<path d="M26.0734 62.8869C26.2761 62.5337 26.0559 61.9393 26.0559 61.9393C26.4823 63.24 26.4866 61.6022 26.6522 61.4608C26.6946 62.3059 26.3766 62.3583 26.073 62.8847L26.0734 62.8869Z" fill="#E0E1DC"/>
<path d="M26.1885 64.6694C26.1688 64.5339 26.141 64.4044 26.0938 64.3057C26.1722 64.4261 26.194 64.5476 26.1885 64.6694Z" fill="#E0E1DC"/>
<path d="M26.4951 65.1344C26.4952 65.604 26.2353 65.8034 26.0459 66.0402C25.7709 65.5082 26.1741 65.0939 26.1889 64.6694C26.2361 64.9961 26.2465 65.3203 26.4951 65.1344Z" fill="#E0E1DC"/>
<path d="M28.9145 79.4729C28.9448 79.3626 28.9411 79.101 29.0989 79.0933L29.1079 79.8919C29.0152 80.2118 28.9456 79.6337 28.9123 79.4733L28.9145 79.4729Z" fill="#E0E1DC"/>
<path d="M28.0939 82.3877C28.0479 83.0184 28.4701 82.7102 28.3563 83.027L27.8219 82.9632L28.0943 82.3899L28.0939 82.3877Z" fill="#E0E1DC"/>
<path d="M25.3805 81.9327L25.4397 81.7557L25.4151 81.9607L25.3805 81.9327Z" fill="#E0E1DC"/>
<path d="M28.4115 85.4863L29.0582 85.0991C28.8442 85.6299 28.37 85.585 28.4115 85.4863Z" fill="#E0E1DC"/>
<path d="M28.4833 87.9995L28.7312 87.645L28.3471 88.8128L28.4833 87.9995Z" fill="#E0E1DC"/>
<path d="M27.5649 90.9117L27.6605 91.0519C27.5567 91.3099 27.3932 91.5649 27.2614 91.8188C27.3713 91.5187 27.4922 91.2166 27.5653 90.9139L27.5649 90.9117Z" fill="#E0E1DC"/>
<path d="M7.6041 83.8174C8.1163 83.7575 7.79812 85.0139 7.89866 85.3971C7.28468 85.0922 8.1929 84.4004 7.6041 83.8174Z" fill="#E0E1DC"/>
<path d="M15.2259 62.171L14.5791 63.1922C14.8183 62.2692 14.6939 62.9573 15.2259 62.171Z" fill="#E0E1DC"/>
</g>
<g clip-path="url(#clip2_19_349)">
<path d="M83.9181 4.71245C83.9008 4.65674 83.8998 4.571 83.8885 4.50006C83.8481 4.69239 83.8413 4.78868 83.9181 4.71245Z" fill="#E0E1DC"/>
<path d="M84.0017 1.94365C83.8953 2.65048 83.7592 3.77152 83.8867 4.50019C84.0191 3.87692 84.5674 2.23987 84.0017 1.94365Z" fill="#E0E1DC"/>
<path d="M84.8749 4.94827L84.7966 4.0529C84.5708 4.54573 84.8686 4.48562 84.8749 4.94827Z" fill="#E0E1DC"/>
<path d="M84.3516 4.56592L84.125 4.58535L84.2858 5.07819L84.3516 4.56592Z" fill="#E0E1DC"/>
<path d="M87.9805 49.6279C87.8283 49.6453 87.7027 49.6899 87.6715 49.8313L87.9805 49.6279Z" fill="#E0E1DC"/>
<path d="M90.6138 49.7698L91.0782 49.8515C90.9454 49.8053 90.833 49.7813 90.6138 49.7698Z" fill="#E0E1DC"/>
<path d="M86.3409 48.0504C86.4127 48.1721 86.5221 48.2769 86.6197 48.3875C86.5432 48.2676 86.43 48.1556 86.3409 48.0504Z" fill="#E0E1DC"/>
<path d="M81.9156 25.1135L81.5036 24.205C81.338 24.8725 81.7015 24.9267 81.9156 25.1135Z" fill="#E0E1DC"/>
<path d="M97.774 44.6658L97.9416 44.749C97.9358 44.6426 97.905 44.5631 97.774 44.6658Z" fill="#E0E1DC"/>
<path d="M91.7256 46.9973C91.6982 47.0984 91.698 47.1727 91.7128 47.2305L91.795 47.1931L91.7256 46.9973Z" fill="#E0E1DC"/>
<path d="M85.6272 46.5165L85.6301 46.4852L85.3766 46.2632C85.4349 46.4332 85.5174 46.513 85.6274 46.5143L85.6272 46.5165Z" fill="#E0E1DC"/>
<path d="M98.7824 42.9407C98.729 42.814 98.6516 42.6805 98.5291 42.5474C98.5286 42.7457 98.6481 42.9101 98.7824 42.9407Z" fill="#E0E1DC"/>
<path d="M91.1314 49.8589L91.1367 49.8503L91.0759 49.8514L91.1316 49.8566L91.1314 49.8589Z" fill="#E0E1DC"/>
<path d="M89.8824 46.3408C89.9795 46.4084 90.0917 46.4099 90.2077 46.4432C90.1186 46.338 89.9831 46.3457 89.8824 46.3408Z" fill="#E0E1DC"/>
<path d="M81.9155 25.1135L82.0529 25.399C82.0476 25.2633 81.9925 25.1793 81.9155 25.1135Z" fill="#E0E1DC"/>
<path d="M83.2582 7.03799C83.2271 7.32359 83.3456 7.40227 83.4697 7.47019C83.4263 7.30837 83.3615 7.16032 83.2582 7.03799Z" fill="#E0E1DC"/>
<path d="M85.5784 1.82019L85.5035 1.73205C85.5263 1.777 85.5529 1.80429 85.5784 1.82019Z" fill="#E0E1DC"/>
<path d="M92.3377 10.5833C92.3986 10.6047 92.4663 10.6268 92.5358 10.6288C92.5231 10.5239 92.4264 10.5239 92.3377 10.5833Z" fill="#E0E1DC"/>
<path d="M93.7689 21.421C93.66 20.6851 92.8592 20.306 92.5359 19.7958L92.8306 19.8661L92.3659 19.426L92.6453 19.2741C92.0216 18.4675 91.6597 17.2144 91.0334 17.1582L91.5292 16.9993L90.6317 16.2845L91.2418 16.6344C90.708 15.5388 89.3933 14.1877 89.2536 13.974L89.4703 13.965C89.4435 13.7461 89.254 13.6811 89.0919 13.5397L89.4151 13.5203C88.3612 12.0245 88.611 11.2499 87.2117 9.72185C86.9526 9.22209 87.4624 9.92556 87.5982 9.84356C87.6136 9.46183 87.028 8.99245 86.833 8.9382C87.2892 8.81848 87.6717 9.60925 87.5884 8.86443C87.1407 8.60402 88.1072 8.89256 87.5634 8.2648L86.9149 8.32599C86.7327 7.89426 87.2268 7.99447 86.7622 7.4327C86.0812 6.90258 86.8237 8.62853 85.9852 7.5946C85.6308 7.03185 86.2356 5.68181 85.2175 4.8137C84.7853 3.73654 86.2787 4.76172 85.2343 3.59812L86.1287 4.17746C86.1032 3.87305 86.4281 3.83575 85.9282 3.36311C85.624 3.32345 85.1471 3.15948 84.905 2.8867C86.133 3.79469 84.6373 1.46877 85.9092 2.21857L85.5798 1.82269C85.637 1.85958 85.6883 1.83958 85.7022 1.78678L85.3102 1.21827C85.6747 1.47992 86.3204 2.24342 86.3697 1.61916L85.8364 0.757975C86.2584 0.788338 86.1194 0.398956 86.3546 0.287914L88.6316 2.28554C88.4117 2.30559 88.0613 2.03848 88.0005 2.28074C88.3327 3.00822 88.6572 2.58996 88.8795 3.33873L88.4879 3.22331C88.599 3.21338 88.6827 3.2798 88.6156 3.13154C88.5945 2.82754 88.3744 2.84983 88.2468 2.94159C88.1424 3.33757 88.748 3.80881 89.0558 3.85782C89.5773 4.65255 88.7062 4.35263 88.7502 4.57987C89.4681 4.66715 89.6568 5.87259 90.1914 6.21325L89.6936 6.10369C89.7624 6.9328 90.4105 7.2615 90.7483 7.54322L90.4222 7.56914C91.031 8.3675 90.5163 9.30671 91.7704 9.3809L91.5553 9.3969C91.7075 9.78977 91.8756 10.4208 92.339 10.5857C92.2446 10.6581 92.1597 10.7967 92.2191 10.9555C92.6643 10.9294 92.6496 11.4487 92.9156 11.9942C92.6138 11.7113 92.2592 12.0907 91.9307 11.8054C91.996 12.864 92.866 12.2127 93.2709 12.8838C93.2996 13.4185 92.8115 12.6764 92.5928 12.6831C93.4638 13.5623 92.9048 15.3854 94.1467 15.5171L94.1565 14.9071C94.5895 15.2045 94.7212 15.4309 94.6089 15.4295C94.5577 15.2804 94.4495 15.2839 94.3413 15.2873C94.6396 16.787 96.1248 16.8647 96.6723 18.2479C96.4547 18.2433 96.3005 18.0892 96.1591 18.1594C96.3086 18.8451 97.3273 18.2617 97.5099 19.4125L97.2143 19.3285C97.2731 19.7104 97.6807 19.798 97.7123 19.7244C96.9668 20.1507 98.8303 21.7626 98.1486 22.9499C98.8048 23.2163 99.7998 24.4519 99.7425 24.9942C99.5466 25.8167 98.9869 24.6848 98.6527 25.1112C98.8601 25.5858 99.403 25.6455 99.5665 26.4226C100.011 26.2545 99.8202 24.6183 100.672 25.8677L100.519 26.1599C100.493 26.0042 100.492 25.7742 100.349 25.6008C99.9165 25.3215 100.16 25.9641 100.082 26.1033L100.813 27.5216C101.328 27.4435 100.858 26.5973 100.939 26.456C101.338 27.6765 101.158 29.3593 101.856 30.3576L101.642 30.3106C102.493 31.6206 101.011 31.4125 102.134 32.3196C102.164 32.9603 101.568 32.2443 101.751 33.1652C101.81 33.4232 101.959 33.2252 102.012 33.1648C102.452 34.2562 101.678 33.7602 102.351 34.7088L101.789 34.5888C102.075 35.1676 102.506 35.7533 102.861 36.3522C103.166 36.96 103.398 37.5834 103.331 38.1587C102.913 38.1084 102.892 37.4145 102.558 37.1714C103.507 38.6259 102.732 40.7985 102.763 42.2484C103.226 41.8837 103.361 43.163 103.911 42.2541C103.48 41.8871 103.857 41.5075 103.876 40.9683C104.427 41.4661 104.125 42.3891 103.702 43.1655C103.367 43.9592 102.77 44.5549 103.197 44.9126L102.727 44.9475C102.703 45.2045 102.627 45.9187 102.976 45.5974C102.553 46.0809 102.119 46.5408 101.694 46.9834C101.846 46.2222 101.978 44.8462 102.471 44.6713C102.278 44.0447 101.924 45.1612 101.656 44.5456C101.718 45.8339 101.053 44.956 100.58 45.9306C101.404 45.9196 100.437 47.3034 100.633 47.4659C100.452 47.5663 100.253 47.8205 100.074 48.1013C99.878 48.3512 99.6915 48.6155 99.6069 48.7992C99.3203 49.0046 98.7922 49.316 98.1912 49.4943C97.5897 49.6771 96.9711 49.8989 96.5016 50.2089C96.8249 49.8762 97.2994 49.3683 97.0978 49.0474C96.7287 49.4615 96.1989 49.6961 95.9568 49.279C97.26 47.8634 96.8854 49.9991 98.1765 48.8325C98.2767 48.1679 98.5658 47.8163 99.1434 47.239C98.6644 47.2169 98.7227 47.0262 98.3929 46.8264C98.232 48.2855 96.3696 48.2041 95.3723 49.0149C94.9293 49.4514 95.5451 50.0295 94.2592 50.4414C94.6754 50.5096 95.0484 50.4632 95.4609 50.4747C94.1354 50.5155 95.2885 50.9252 94.1802 51.2162L94.5701 50.8198C93.8762 50.8362 93.6458 50.9207 93.2747 51.2128L93.802 50.6197C93.4335 50.5943 92.7821 50.5899 92.775 50.907C92.6785 50.7853 92.6475 50.6832 92.647 50.593C92.5762 50.6766 92.4015 50.7189 91.9664 50.6602C92.2238 50.6234 92.4058 50.672 92.4137 50.5149C90.7892 50.485 92.0932 49.9035 91.1402 49.8551C91.3094 49.7515 91.0732 49.5852 90.7917 49.3989C90.697 49.8115 90.1855 49.8968 89.571 49.8822C88.9744 49.8446 88.3632 49.5779 87.9827 49.6326L87.9945 49.6269C87.4885 49.485 87.1188 49.2071 86.669 48.9691C86.9314 49.1198 86.8506 48.7336 86.6217 48.3921L86.6666 48.4414C86.4725 48.0401 87.6305 48.1797 86.6559 47.4239L86.0686 47.0693C86.1628 47.1434 86.1985 46.9777 86.2133 46.8912C86.0232 46.7608 85.8147 46.6354 85.6347 46.4924C85.8116 45.2466 84.2936 45.087 84.2059 43.8346C84.2762 44.1657 84.5344 44.6023 84.6797 44.298C84.6797 44.0569 84.4638 43.7933 84.2785 43.6836L84.387 43.7005C83.9161 43.1111 83.5818 42.4781 83.1663 41.8487C83.4933 41.9334 83.8961 43.0596 84.0276 42.4453C84.294 42.0239 83.7033 41.5856 83.5707 41.2238C83.3583 41.3325 83.3997 42.0689 83.0651 41.4156C83.1458 41.2969 83.1965 40.5848 83.4305 40.8478C83.0245 40.2127 82.6202 39.2215 82.1261 38.6637C82.1806 38.4412 82.3346 38.7418 82.3862 38.839L82.3352 38.9041C82.5493 39.3073 82.8889 38.8476 82.8671 39.7314C83.5731 39.6327 82.8007 38.4923 82.7542 37.7374L83.474 38.7918C84.0029 36.6886 82.6234 34.2743 82.4174 32.3145C82.2296 32.9055 82.5156 33.3582 81.9385 33.3517C81.5321 32.1665 81.6938 32.3123 81.4733 31.1107L81.5109 31.2133C81.742 30.5677 81.142 29.7476 81.6302 29.3086C81.9574 29.56 81.3839 30.2142 82.018 30.1878L81.8874 28.6722C82.2921 29.1292 82.0091 30.1869 82.1465 30.761C82.1387 31.1818 81.9972 29.9289 81.6031 30.1536C81.7197 31.5777 82.1665 31.8718 82.8108 32.5067C83.2835 32.8844 83.2066 31.8539 83.1905 31.5932C82.4501 30.76 82.0775 29.454 82.3037 28.0416L82.7635 27.2573C82.3073 26.5814 81.4573 26.8988 81.5323 25.6368L81.8868 26.0057C82.0115 25.7288 82.0576 25.5483 82.0543 25.415C82.3169 25.9489 82.6365 26.5219 82.9204 26.997C83.6242 26.2715 82.5087 24.9773 82.3619 23.9245C82.4558 23.9784 82.4869 24.3442 82.677 24.4498C82.8331 22.8979 81.9903 21.2595 81.9104 20.0439C82.2448 19.5432 82.0952 21.0506 82.5782 20.8117C82.413 20.1742 82.8515 19.4736 82.4145 19.2908C83.0343 19.5853 82.5024 17.8429 83.0556 19.0689C83.4078 16.8117 82.9665 14.2912 82.7835 11.9638C82.9629 12.0887 83.1214 12.1013 83.2553 12.0146C83.1897 12.7906 83.2934 13.943 83.7027 14.3982C84.0561 13.9105 83.3546 13.1666 83.5535 13.0341C83.6902 13.3039 83.6509 13.8209 83.9651 13.8502C84.3639 13.2135 83.8893 12.8085 83.8613 12.3371L83.6838 12.5775C83.3639 11.0916 82.6473 11.6896 82.9433 10.1552C83.3769 9.62771 83.2573 10.1868 83.7291 10.2376C83.5757 9.85813 84.1932 8.73242 83.7293 8.30821L83.6043 9.2387C83.5272 8.5711 83.5917 7.95277 83.4713 7.48398C83.5694 7.54047 83.6682 7.59026 83.6954 7.73254C83.5924 7.19776 83.6993 6.5338 83.4148 6.23452L83.9358 6.14339C83.6777 6.4281 83.542 7.35308 83.8104 7.53591C84.2597 7.48993 84.0797 6.52872 84.1604 6.12153C84.1118 7.9427 84.8963 8.03845 84.4308 9.53447L84.2988 9.26294C83.8265 10.1813 84.3842 11.2138 84.3022 12.0447C84.4246 11.8171 84.6141 11.7853 84.6888 11.9004C84.1558 13.7102 84.3333 15.5412 84.008 17.6296L84.4823 18.2801L84.1001 18.3053C83.8903 19.3248 84.626 18.546 84.5668 19.2054C84.5767 18.9539 84.512 18.9974 84.4181 18.9436C84.8161 20.146 84.045 19.594 84.1464 20.2661C83.7477 19.9381 84.0377 18.9734 83.4879 19.2535C83.8766 20.4595 83.6121 22.3057 84.5324 22.4885C84.1406 24.6878 84.7591 27.4052 84.9565 29.2155C84.8087 29.4745 84.822 29.0678 84.7001 29.1691C85.2537 29.8609 84.4941 31.6179 84.9705 31.5948C84.8697 31.9528 84.5339 32.131 84.4136 32.2393C84.671 32.6848 84.8617 33.2187 84.9876 33.7962L84.8079 33.385L84.749 33.4381L85.0024 34.023L85.0296 33.9963C85.3278 35.426 85.5014 37.1057 86.271 38.2526C85.8205 37.5885 85.7501 38.5601 85.4976 38.2548C86.3665 38.7462 86.737 40.2436 87.0847 41.4075C86.9342 41.4543 86.8453 41.588 86.679 41.4913L87.1987 42.065L86.9914 42.0457C87.3431 43.3114 88.6774 44.067 88.8013 44.8111C88.4458 44.5255 88.342 44.5541 88.0957 44.6641C88.5649 45.3683 89.0904 45.9763 89.8818 46.359C89.8208 46.3623 89.7648 46.3841 89.7272 46.4257C89.8466 46.6645 90.2113 46.5858 90.4269 46.6353L90.2621 46.9805C90.6863 47.108 91.1793 47.3884 91.7138 47.249C91.7728 47.4596 92.1122 47.3876 92.4615 47.3052C92.818 47.219 93.2258 46.9438 93.5305 47.0263C93.7591 46.9124 93.0697 47.5085 93.7477 47.4207C93.6766 46.641 94.6551 47.138 94.4627 46.2861L95.1413 46.4328L95.1044 45.9606C95.8754 46.4901 95.6834 45.3204 96.386 45.2101C96.4056 45.3134 96.3608 45.3836 96.4227 45.4187C96.5621 45.2018 96.9455 44.8746 96.4976 44.905C96.8563 44.7469 97.5304 43.809 97.4682 44.4997C97.3326 44.2909 97.1422 44.7893 96.975 44.9676C97.2413 45.2696 97.6048 44.819 97.9544 44.9981C97.9406 44.954 97.9501 44.8512 97.9445 44.7673L98.1679 44.8783C98.299 44.4848 98.5157 44.2098 98.6422 43.8902C98.785 43.588 98.9507 43.3307 98.7853 42.9592C98.9017 42.9881 99.03 42.9144 99.1076 42.685L98.6769 42.4825C98.7814 42.2781 98.8924 42.0766 98.9404 41.8264C99.1282 42.0062 99.3277 42.2051 99.4963 42.3967C99.8942 41.5773 99.2698 40.8023 99.208 40.091C99.628 40.0468 99.5911 39.6714 99.4909 39.2271C99.4082 38.7889 99.3351 38.32 99.6313 37.9396C99.7179 38.1438 99.8261 38.3568 99.8815 38.558C99.6466 37.2221 100.127 36.9423 99.6223 35.6758C99.5613 36.8106 99.71 36.8313 99.193 38.3969C99.3971 36.8359 98.4931 35.8297 98.5686 34.2972C98.7752 34.3481 98.9838 34.6899 99.0843 34.2868C98.6277 34.0977 98.7555 32.8969 98.3437 33.2394C98.363 32.7431 98.7646 32.5349 98.7433 32.2331C98.4085 31.7736 98.0594 31.3241 97.6849 30.8812L97.7914 30.8956C97.8975 27.8807 95.1983 26.3598 94.3735 23.6615L94.6247 23.5948L93.9664 23.1344C94.4411 23.5145 94.1393 22.7741 94.3166 22.6329L92.9748 21.2838C93.15 21.1401 93.6448 20.9924 93.7743 21.435L93.7689 21.421ZM99.18 42.6556L99.077 42.9639C99.0297 43.0135 98.9973 43.0714 99.0135 43.163L99.077 42.9639C99.201 42.8402 99.4379 42.8059 99.18 42.6556ZM84.2897 23.5477C84.069 23.3355 84.2252 23.8527 84.1934 24.0008L84.1323 23.2828C84.2606 23.1844 84.2567 23.4432 84.2897 23.5477ZM101.985 43.9092L102.39 43.7869L102.299 43.3818L101.985 43.9092ZM102.892 37.4167L103.131 38.0566L103.191 37.9991L102.951 37.3659L102.892 37.419L102.892 37.4167ZM98.9453 31.2242C98.9762 31.2541 98.9983 31.2832 99.0403 31.3142C99.0185 31.2829 98.9856 31.2505 98.9453 31.2242C98.5724 30.8603 99.0471 30.4944 98.4002 30.3213C98.1087 30.9162 98.6711 31.0318 98.9453 31.2242ZM100.204 41.169C100.234 41.3543 100.226 41.4392 100.164 41.5529C100.006 41.4186 99.8245 41.0479 99.6898 41.2629C99.8574 41.4657 99.7593 42.0358 100.059 42.1427C99.8574 41.5626 100.843 41.4088 100.205 41.1667L100.204 41.169ZM91.4423 47.413L91.5411 47.4853L91.0739 47.5792L91.4423 47.413ZM89.5007 46.8058C89.0767 46.9172 88.5268 46.4512 88.1757 46.0713C88.3723 45.7471 88.9639 45.9105 89.3326 46.2469C89.9765 46.4287 89.1552 46.8231 89.5007 46.8058ZM100.881 36.8527L101.174 36.9701L101.194 36.8233L101.428 37.3996C101.767 36.5656 100.941 36.0941 100.75 35.7315C100.847 36.0606 101.665 36.9281 100.879 36.8525L100.881 36.8527ZM86.5347 42.7491C86.0691 42.3676 85.502 41.4829 85.2442 41.6685C85.7462 41.4674 86.2318 42.1416 86.309 42.3742C86.3315 42.5183 86.4048 42.5995 86.5369 42.7493L86.5347 42.7491ZM85.6103 43.1655C86.1767 43.8156 86.3974 43.7866 87.1257 44.0755C86.9841 43.3049 86.2986 43.3762 86.0657 43.5844C85.6123 43.1679 85.9757 43.1274 85.9179 42.8313L85.6127 43.1634L85.6103 43.1655ZM87.3212 43.3049L87.3771 43.6211C87.3388 44.0323 86.8614 44.4024 87.6397 44.5404L87.3771 43.6211C87.3908 43.5232 87.3805 43.4163 87.3212 43.3049ZM85.4224 37.0127L85.6699 37.2995C85.5868 36.9852 85.499 36.9635 85.4224 37.0127L85.2136 36.77C85.1624 37.5113 85.2737 37.1137 85.4224 37.0127ZM86.572 41.9637C86.6772 42.2575 86.8283 42.5173 86.9627 42.7868C86.7132 42.8356 86.5856 42.276 86.572 41.9637ZM84.9947 37.3086C85.0405 37.7096 85.1783 38.7615 85.1812 38.6107C85.4409 38.4524 85.1986 37.5327 84.9947 37.3086ZM83.4157 15.8117L83.4072 16.433L83.8065 16.1524L83.4157 15.8117ZM82.9047 23.0939L83.0966 22.9405L83.0718 22.5798L82.9025 23.0937L82.9047 23.0939ZM83.0525 29.82C83.1324 29.7824 83.237 29.7944 83.3288 29.8458C83.3667 29.9462 83.4215 30.0325 83.5013 30.0692C83.4985 29.9788 83.4231 29.8951 83.3288 29.8458C83.2298 29.5818 83.254 29.1784 83.3613 28.9923C83.5545 29.0892 83.5405 29.5049 83.6746 29.6572C84.0908 29.0266 82.6713 27.7153 83.984 28.0519C83.8185 27.802 83.4551 26.9274 83.2393 27.2409C83.3223 27.9406 83.2653 29.2741 83.0521 29.8245C82.986 29.8589 82.9351 29.9217 82.9306 30.043C82.9769 30.0045 83.016 29.9225 83.0521 29.8245L83.0525 29.82ZM83.9401 38.8556C84.0207 39.0997 84.0834 39.198 84.1405 39.2371C84.2891 39.4268 84.4707 39.552 84.6288 39.4473C84.3426 38.9743 84.2865 39.3342 84.1405 39.2371C84.0455 39.1224 83.9817 38.9879 83.9401 38.8556ZM84.2574 40.4404L83.8062 39.6883L84.1858 40.028C83.914 39.6646 83.6155 39.2986 83.3701 38.9173C83.2635 39.6985 83.9035 40.4277 84.2552 40.4402L84.2574 40.4404ZM84.094 40.7948L84.4348 40.8762L84.064 40.7064L84.0942 40.7926L84.0173 40.7741C84.18 41.2221 84.4121 41.6494 84.6144 42.0831C84.4406 41.6566 84.2306 41.2336 84.094 40.7948ZM94.1455 48.9861C94.9052 49.9743 92.9878 49.8788 92.6833 50.4206C92.5946 50.0224 92.0815 49.5711 93.4676 49.4344C92.2725 49.2102 92.6839 50.1975 92.0076 49.2554C92.5775 49.4348 93.2437 49.0394 93.3303 49.0024L92.6845 49.0345C93.0063 48.332 93.6891 49.2523 94.1455 48.9861ZM100.295 45.6177L100.777 44.8806L100.371 45.6181L100.295 45.6177ZM98.8058 24.8189C99.0689 24.7691 98.9928 23.5381 98.4433 23.5003C98.633 24.0455 98.9249 24.6024 98.8058 24.8189ZM94.3972 16.566L95.0732 17.3188C95.4706 16.8668 94.6161 16.5571 94.46 16.1098C94.1336 16.1154 94.4817 16.335 94.395 16.5658L94.3972 16.566ZM90.9967 11.0961L90.7468 10.8834L91.4042 10.8479L90.9989 11.0963L90.9967 11.0961ZM91.8645 11.0463C91.9696 10.7384 92.4392 11.2465 92.4991 11.3986L91.8645 11.0463ZM88.9995 5.93072L89.2085 6.29282L88.5828 6.27726L88.9993 5.93296L88.9995 5.93072ZM88.8969 6.81371C89.2484 6.68423 89.6236 6.37214 89.9733 7.29734C89.6825 7.54744 89.5386 7.33116 89.3706 7.87897C89.1155 7.67484 89.1011 7.37147 89.0384 7.22362C89.2119 7.36378 89.2245 7.66248 89.4651 7.56547C89.3808 7.19245 89.1323 6.91682 88.8969 6.81371C88.7734 6.86079 88.6477 6.88287 88.5305 6.81334C88.6263 6.75015 88.7609 6.75369 88.8969 6.81371ZM90.5156 9.89267C90.5485 10.022 90.5666 10.1409 90.5391 10.2194L90.6497 10.214C90.7155 10.015 90.621 9.94308 90.5134 9.89246C90.4795 9.74955 90.4268 9.59137 90.3699 9.43053C90.5769 9.1636 91.1196 9.58615 91.3649 9.63157C91.1146 9.42339 90.708 9.37193 90.6377 8.92133C90.7463 8.91344 90.7717 8.83466 90.9131 9.05297L90.6507 8.54162C89.9133 8.25418 90.1524 8.84675 90.3697 9.43277C90.3217 9.48915 90.2853 9.56689 90.281 9.70849C90.2958 9.8158 90.4122 9.8447 90.5132 9.89469L90.5156 9.89267ZM87.3459 6.54952L87.6015 6.74918C87.7963 6.80567 87.8423 6.64993 87.9511 6.6398C87.7166 6.35872 87.2642 6.10012 87.3481 6.54973L87.3459 6.54952ZM96.948 22.4232C96.9377 22.1968 97.4989 22.4453 97.6083 22.9108L97.9275 22.4762C97.646 22.6032 97.2504 21.7594 97.1769 21.6804C96.7087 21.7359 97.0416 21.9743 96.948 22.4232ZM101.414 42.8213C101.971 43.1911 101.097 44.1328 101.145 44.437C101.545 43.9493 102.212 42.6568 101.414 42.8213ZM100.366 44.4726C100.199 44.7229 100.105 44.7615 100.37 44.908C100.385 45.1055 100.117 45.2134 100.127 45.415C100.692 45.0665 100.282 44.8141 100.366 44.4726C100.41 44.4068 100.455 44.3321 100.505 44.2309C100.42 44.3199 100.386 44.3978 100.366 44.4726ZM100.753 32.6663L100.208 32.3834L100.057 31.7449L100.753 32.6663ZM97.5763 26.2887C97.8307 26.2358 97.5272 25.5381 97.3491 25.4471C97.6703 25.3531 97.8386 25.8376 98.0369 26.1942C98.083 26.2301 98.1324 26.3023 98.1842 26.4221C98.1294 26.3584 98.0849 26.2821 98.0369 26.1942C97.903 26.0871 97.7909 26.2524 97.6854 26.2989L97.6782 26.5214L97.3694 26.0485L97.5785 26.2889L97.5763 26.2887ZM91.3779 15.4413C91.357 14.9186 91.2488 14.9221 91.0078 14.7102C90.9509 14.8627 91.1349 15.227 91.3779 15.4413ZM98.707 29.8518C98.61 29.0854 99.3005 30.0199 99.2887 29.4959L99.3896 29.884C99.505 29.1532 98.8808 29.5795 98.8248 29.119L98.8635 29.4269C98.6456 29.7627 98.5081 29.0692 98.2413 29.1096C98.2539 29.4805 98.7394 30.1546 98.707 29.8518ZM90.8153 14.9425C90.6892 14.126 90.196 14.5939 89.9034 14.2375C89.976 14.9047 90.438 14.506 90.8153 14.9425ZM96.0111 25.8632L95.9732 25.9318L95.5514 25.4664L95.5895 25.3956L96.0133 25.8634L96.0111 25.8632Z" fill="#E0E1DC"/>
<path d="M93.1326 12.3525C93.0644 12.1681 92.9885 12.0664 92.9123 11.9916C92.9705 12.1143 93.0423 12.2359 93.1326 12.3525Z" fill="#E0E1DC"/>
<path d="M100.889 47.4311C100.812 47.3856 100.725 47.409 100.63 47.4632C100.675 47.4899 100.746 47.4921 100.889 47.4311Z" fill="#E0E1DC"/>
<path d="M99.6602 48.7568L99.6047 48.7967L99.5748 48.8526L99.6602 48.7568Z" fill="#E0E1DC"/>
<path d="M82.8013 7.45057C82.4261 7.08649 82.7032 7.75472 82.6768 8.01372C82.7032 7.75472 82.9976 7.68302 82.8013 7.45057Z" fill="#E0E1DC"/>
<path d="M83.2843 9.55138C83.1782 9.38821 83.1162 9.16153 83.1053 8.8923C83.0785 9.05885 83.1038 9.24603 83.2843 9.55138Z" fill="#E0E1DC"/>
<path d="M83.2636 7.8747C83.1397 8.2621 83.0896 8.60678 83.1034 8.89207C83.1434 8.63209 83.3201 8.42543 83.2636 7.8747Z" fill="#E0E1DC"/>
<path d="M82.7658 15.0321C82.5341 14.6972 82.7034 14.0864 82.7034 14.0864C82.3881 15.4183 82.2459 13.7867 82.0689 13.6598C82.0979 14.5055 82.4192 14.5309 82.766 15.0299L82.7658 15.0321Z" fill="#E0E1DC"/>
<path d="M82.7995 16.818C82.8078 16.6812 82.8245 16.5498 82.8633 16.4475C82.7953 16.5741 82.7838 16.697 82.7995 16.818Z" fill="#E0E1DC"/>
<path d="M82.5325 17.307C82.572 17.775 82.8477 17.9518 83.0565 18.1719C83.2857 17.6185 82.849 17.2397 82.7985 16.818C82.779 17.1475 82.7959 17.4714 82.5325 17.307Z" fill="#E0E1DC"/>
<path d="M81.3326 31.7985C81.2932 31.6912 81.2748 31.4302 81.117 31.4358L81.1752 32.2324C81.2946 32.5433 81.3151 31.9614 81.3348 31.7987L81.3326 31.7985Z" fill="#E0E1DC"/>
<path d="M82.3941 34.6339C82.4932 35.2585 82.0465 34.9869 82.1865 35.293L82.7136 35.1844L82.3939 34.6361L82.3941 34.6339Z" fill="#E0E1DC"/>
<path d="M85.059 33.9517L84.9851 33.7803L85.0269 33.9825L85.059 33.9517Z" fill="#E0E1DC"/>
<path d="M82.3413 37.7481L81.6642 37.4167C81.9222 37.9276 82.3909 37.8429 82.3413 37.7481Z" fill="#E0E1DC"/>
<path d="M82.4766 40.2586L82.1997 39.9262L82.6807 41.0575L82.4766 40.2586Z" fill="#E0E1DC"/>
<path d="M83.6409 43.0829L83.5574 43.2306C83.6826 43.4789 83.8669 43.7193 84.0197 43.9612C83.8849 43.6714 83.739 43.3805 83.6406 43.0851L83.6409 43.0829Z" fill="#E0E1DC"/>
<path d="M102.933 34.3325C102.418 34.316 102.841 35.5411 102.773 35.9314C103.359 35.5759 102.396 34.9631 102.933 34.3325Z" fill="#E0E1DC"/>
<path d="M93.5148 13.4048L94.2453 14.3678C93.9292 13.4683 94.1112 14.1434 93.5148 13.4048Z" fill="#E0E1DC"/>
</g>
<defs>
<clipPath id="clip0_19_349">
<rect width="34" height="69" fill="white" transform="translate(29.9062 138.247) rotate(-22.2248)"/>
</clipPath>
<clipPath id="clip1_19_349">
<rect width="24.667" height="50.0594" fill="white" transform="translate(0 52.3057) rotate(-10.1636)"/>
</clipPath>
<clipPath id="clip2_19_349">
<rect width="24.667" height="50.0594" fill="white" transform="matrix(-0.995674 -0.0929141 -0.0929141 0.995674 107.855 2.29199)"/>
</clipPath>
</defs>
</svg>
