<svg width="38" height="38" viewBox="0 0 38 38" fill="none" xmlns="http://www.w3.org/2000/svg">
<circle cx="19" cy="19" r="19" fill="#224486"/>
<path d="M26.9362 30.4058C26.8177 30.6447 27.006 30.4546 27.1994 30.3804L26.9362 30.4058Z" fill="#E0E1DC"/>
<path d="M27.1456 30.3952C27.2121 30.3932 27.2801 30.3826 27.3481 30.3721C27.2809 30.3519 27.2165 30.3675 27.1456 30.3952Z" fill="#E0E1DC"/>
<path d="M28.7891 29.7153C28.6792 29.9377 28.455 30.0765 28.2666 30.1691C28.0738 30.265 27.9083 30.3414 27.8259 30.4961C28.0465 30.4973 28.3215 30.3912 28.5249 30.2329C28.7329 30.0713 28.8473 29.8456 28.7891 29.7153Z" fill="#E0E1DC"/>
<path d="M28.194 29.9552L28.2108 30.096C28.284 29.9745 28.3559 29.8609 28.4102 29.7322C28.3436 29.8142 28.2704 29.887 28.194 29.9552Z" fill="#E0E1DC"/>
<path d="M27.8744 29.9366L27.9388 29.9596C28.0785 29.8465 28.2131 29.7165 28.3242 29.5825C28.1929 29.7171 28.0408 29.8321 27.8744 29.9366Z" fill="#E0E1DC"/>
<path d="M28.9512 28.1303C29.0434 28.2502 29.1224 28.4001 29.1833 28.563C29.1494 28.8343 29.0676 28.7482 29.0001 28.6726C28.9293 28.5923 28.8481 28.5264 28.8367 28.665C28.8922 28.9073 28.9669 28.9641 29.0454 29.0456C29.111 29.1089 29.2206 29.2921 28.9543 29.6325C29.033 29.6659 29.2752 29.3495 29.2825 28.9733C29.3074 28.6121 29.1877 28.3469 29.3451 28.3655C29.2379 28.002 29.1845 28.0332 29.1551 28.0884C29.1165 28.1502 29.0772 28.2399 28.9512 28.1303Z" fill="#E0E1DC"/>
<path d="M22.0669 12.7035C22.0843 12.6798 22.0864 12.6668 22.0908 12.6409C22.053 12.6678 22.0281 12.6969 22.0669 12.7035Z" fill="#E0E1DC"/>
<path d="M17.9892 10.4798C17.9146 10.4277 17.8449 10.4247 17.7731 10.4081C17.7943 10.4381 17.8206 10.4645 17.8519 10.4873C17.901 10.4824 17.9415 10.4761 17.9892 10.4798Z" fill="#E0E1DC"/>
<path d="M21.5918 15.9315C21.525 15.9927 21.4628 16.0507 21.413 16.1068C21.4686 16.088 21.5295 16.0378 21.5918 15.9315Z" fill="#E0E1DC"/>
<path d="M12.2111 26.5764C12.2417 26.5717 12.2683 26.5613 12.2982 26.5315C12.2982 26.5315 12.2942 26.5259 12.2958 26.5162L12.1789 26.5312L12.2111 26.5764Z" fill="#E0E1DC"/>
<path d="M15.8614 13.4148C15.8816 13.4934 15.9031 13.5638 15.934 13.6275C15.9093 13.5022 15.8864 13.4399 15.8614 13.4148Z" fill="#E0E1DC"/>
<path d="M20.3962 17.7832C20.4176 17.7538 20.4344 17.7278 20.4512 17.7018C20.4231 17.7218 20.3936 17.7498 20.3627 17.7858L20.3962 17.7832Z" fill="#E0E1DC"/>
<path d="M19.5111 11.2202C19.4481 11.1719 19.3905 11.1412 19.3349 11.1234C19.3898 11.1704 19.4487 11.1929 19.5111 11.2202Z" fill="#E0E1DC"/>
<path d="M23.9422 24.7018C23.834 24.6501 23.7319 24.637 23.6418 24.651C23.7033 24.7073 23.7932 24.7434 23.9422 24.7018Z" fill="#E0E1DC"/>
<path d="M21.6307 24.2565L21.6518 24.2533C21.6397 24.2032 21.6241 24.2143 21.6307 24.2565Z" fill="#E0E1DC"/>
<path d="M20.4801 23.9288L20.4993 23.9321C20.5058 23.8937 20.5018 23.8881 20.4801 23.9288Z" fill="#E0E1DC"/>
<path d="M23.6481 24.6384C23.4848 24.4952 23.4901 24.1571 23.1707 24.466L23.2126 24.5249C23.0809 24.407 22.8434 24.5144 22.6747 24.4978C22.6882 24.536 22.703 24.5664 22.7178 24.5969C22.8018 24.619 22.9091 24.6451 23.0758 24.6973C23.263 24.8166 23.4269 24.6728 23.6481 24.6384Z" fill="#E0E1DC"/>
<path d="M22.1333 12.6722C22.056 12.7005 22.1136 12.819 22.1333 12.6722V12.6722Z" fill="#E0E1DC"/>
<path d="M22.211 14.1642L22.2793 13.9949C22.2449 14.042 22.214 14.0942 22.211 14.1642Z" fill="#E0E1DC"/>
<path d="M18.6177 20.5594C18.635 20.5357 18.6501 20.5249 18.6599 20.5066C18.6071 20.4644 18.5984 20.5162 18.6177 20.5594Z" fill="#E0E1DC"/>
<path d="M22.3232 13.8483L22.2712 14.0033C22.2999 13.9607 22.3252 13.9133 22.3232 13.8483Z" fill="#E0E1DC"/>
<path d="M19.8904 18.5183C19.9027 18.5095 19.915 18.5009 19.9229 18.486C19.9106 18.4947 19.8983 18.5034 19.8904 18.5183Z" fill="#E0E1DC"/>
<path d="M31.8276 19.3939C31.7652 19.5748 31.6261 19.619 31.5145 19.7597C31.527 20.2285 31.9209 19.0547 31.8264 19.6609C31.9082 19.5072 31.9596 19.3683 31.9773 19.2397C31.8829 19.2796 31.7683 19.32 31.6629 19.354C31.5742 19.69 31.8385 19.1883 31.8276 19.3939Z" fill="#E0E1DC"/>
<path d="M11.5766 25.0003L11.5828 25.0566C11.6553 24.9781 11.7013 24.9859 11.6557 24.7889C11.4321 24.7117 11.354 25.0574 11.0457 24.8514C11.0929 24.8988 11.1259 24.9833 11.1545 25.071C11.2163 24.8921 11.4086 24.9443 11.5766 25.0003Z" fill="#E0E1DC"/>
<path d="M11.1416 25.0443C11.1402 25.0525 11.1402 25.0524 11.1355 25.0558C11.1232 25.0789 11.1109 25.1019 11.1068 25.1264C11.1291 25.1678 11.1453 25.2208 11.1513 25.2595C11.1677 25.212 11.1604 25.1312 11.1416 25.0443Z" fill="#E0E1DC"/>
<path d="M26.4889 22.5502C26.4066 22.5407 26.3315 22.5412 26.2679 22.5261C26.3686 22.5828 26.4366 22.5722 26.4889 22.5502Z" fill="#E0E1DC"/>
<path d="M12.9074 13.3387C12.8767 13.2566 12.8474 13.1667 12.8174 13.105C12.84 13.2343 12.8733 13.3006 12.9074 13.3387Z" fill="#E0E1DC"/>
<path d="M13.5515 27.1265C13.5922 27.1632 13.6294 27.195 13.6797 27.2248C13.708 27.2339 13.7363 27.2429 13.7728 27.2533L13.5515 27.1265Z" fill="#E0E1DC"/>
<path d="M11.0524 16.9061C11.1098 17.21 11.1088 16.8109 11.4897 16.7263C11.5677 16.6226 11.6535 16.5203 11.7393 16.4179C11.5791 16.4835 11.4307 16.5752 11.3024 16.6664C11.216 16.7485 11.1296 16.8306 11.0524 16.9061Z" fill="#E0E1DC"/>
<path d="M31.9786 19.2149C31.9692 19.2133 31.9652 19.2078 31.9518 19.2007C31.9502 19.2101 31.9486 19.2196 31.947 19.2291L31.9786 19.2149Z" fill="#E0E1DC"/>
<path d="M19.0442 17.1294C19.0768 17.1555 19.1095 17.1816 19.1422 17.2078C19.1222 17.1797 19.0929 17.1582 19.0442 17.1294Z" fill="#E0E1DC"/>
<path d="M11.7343 26.1587C11.9158 26.3566 12.1123 26.5371 12.2983 26.7318L12.1749 26.5199C12.0012 26.5343 11.917 26.1378 11.7343 26.1587Z" fill="#E0E1DC"/>
<path d="M9.55694 18.3471C9.86881 18.1667 10.0935 18.1926 10.3665 17.6479C10.4039 17.5457 10.0964 17.5098 10.4676 17.3353C10.4314 17.478 10.4239 17.6415 10.4144 17.7926C10.5986 17.6067 10.8322 17.4613 11.0118 17.2786C11.207 17.0986 11.3273 16.9099 11.4894 16.7122C11.7236 16.587 11.9572 16.4416 12.1978 16.3737C12.1325 16.427 12.075 16.4816 12.0227 16.5531C12.2869 16.441 12.5691 16.4124 12.8175 16.3458C13.0638 16.3151 13.2907 16.257 13.5106 16.1213C13.3344 16.2603 13.0698 16.5653 13.5221 16.5051L13.8821 16.373C13.9321 16.4337 13.7534 16.492 14.3615 16.438C14.2153 16.2806 14.8816 16.3571 14.9697 16.5971C14.9526 16.3892 14.5828 16.2463 14.597 16.0437C15.2012 16.2262 15.1373 15.7009 15.6697 15.9276L15.5488 16.096C15.9603 16.2299 16.2848 16.2124 16.5826 16.1864L16.5166 16.2677C17.2027 16.5846 17.7195 16.5473 18.0591 17.0349L18.4598 17.0664C18.3287 17.1046 18.3507 17.1646 18.4925 17.2769C18.7456 17.4202 19.254 17.3615 19.1468 17.2107C19.898 17.8321 20.3149 17.577 21.2299 18.0612C21.1064 18.2454 21.5806 18.2934 21.3412 18.4016L21.6669 18.4245C21.62 18.4166 21.6375 18.4798 21.6492 18.5059C21.733 18.6045 21.8048 18.5604 21.8811 18.513L21.8446 18.5389L22.2331 18.7373L22.3169 18.5746L22.5424 18.8338C22.2742 18.9693 21.8886 18.659 21.7181 18.8351C21.8339 18.911 22.2271 19.3673 22.7252 19.2265C22.9718 19.3606 23.225 19.5039 23.4743 19.6224C23.4747 19.739 23.4344 19.6438 23.6733 19.7766C23.8639 19.9093 23.9117 19.7928 24.1852 19.8873C24.0933 19.8838 24.0451 19.8837 24.0085 19.9096C24.3235 20.0915 24.4601 19.8775 24.7235 19.8416C24.5587 19.7936 24.3834 19.8082 24.2434 19.8046C24.2168 19.7479 24.265 19.748 24.2533 19.7219C24.1132 19.7183 23.9732 19.7147 23.8298 19.7066C23.888 19.624 23.8916 19.7452 23.6894 19.5864C23.9498 19.6626 24.0129 19.6933 24.3034 19.7344C24.4822 19.628 24.1913 19.4703 24.3967 19.4206C25.0897 19.5538 25.6647 19.6952 26.174 19.7733C26.6853 19.8637 27.1491 19.926 27.5767 19.8697C27.8034 19.8598 27.9971 19.784 28.2084 19.7232C28.3917 19.6135 28.6102 19.5339 28.7696 19.3518C29.126 19.0503 29.3735 18.5374 29.4811 17.9245C29.5569 17.8569 29.607 17.8694 29.6697 17.8318C29.731 17.8019 29.8021 17.7376 29.8577 17.6706C29.9655 17.5321 30.0474 17.357 30.0065 17.2898L29.9183 17.3593C29.8891 17.3182 29.9342 17.2655 29.9193 17.2349C29.9044 17.2042 29.9097 17.1729 29.9117 17.1371C29.9144 17.0733 29.8859 17.0041 29.7198 17.0122C29.5972 17.0237 29.4844 17.0488 29.3768 17.0909C29.3588 17.0075 29.1871 16.882 29.2798 16.8092C29.2198 16.8312 29.0239 16.7298 28.8852 16.6702C28.7388 16.6092 28.6026 16.5822 28.5169 16.7325C28.0281 16.5092 27.749 16.3294 27.2208 16.2441C27.2625 16.2351 27.2724 16.2006 27.2724 16.2006C27.1763 16.0557 26.9873 16.3413 26.8698 16.1567C26.9547 16.0826 27.391 16.1644 27.0546 15.9909C26.9005 16.0935 26.6537 16.0558 26.4304 15.9739C26.2025 15.8951 25.9805 15.8054 25.9227 15.7433C25.7773 15.771 25.632 15.7987 25.5197 15.8923C25.3243 15.8592 25.0198 15.6631 25.3412 15.5928C24.7349 15.7074 24.6769 15.4323 24.607 15.7983C24.273 15.9669 23.9766 15.9369 23.6885 15.9767C23.4018 16.0086 23.1118 16.0359 22.8505 16.2972C21.7998 16.4734 20.8591 16.9494 19.9087 17.1505L19.9201 17.2731C19.8922 16.9629 19.0839 17.393 19.2319 17.0402C19.0617 17.3812 18.6251 17.7053 18.34 17.8461L18.3399 17.633C18.8865 17.3476 18.3983 17.454 18.9798 17.0337C18.9379 17.091 18.8923 17.1234 18.943 17.1561C19.0743 17.0216 19.293 16.8455 19.5071 16.6727C19.729 16.5012 19.9659 16.3603 20.1069 16.2395L20.1039 16.3997C20.3642 16.2628 20.4943 16.0879 20.627 15.8973C20.7597 15.7067 20.8769 15.4652 21.1366 15.3081C21.6376 15.3164 21.1069 15.4599 21.3207 15.693C21.894 15.4643 21.3838 14.6304 22.1336 14.9501L22.0038 15.0286C22.7725 14.833 21.7374 15.273 22.3394 15.2783C22.9152 15.0822 22.7864 14.9881 22.631 14.8854C22.4787 14.7873 22.279 14.6611 22.8151 14.4382C22.78 14.6695 23.0491 14.6707 23.337 14.7274C23.4459 14.4162 24.2987 14.1745 24.6538 13.8808C24.6054 13.9771 24.8925 14.0619 25.2633 14.0321C25.0355 14.2146 24.8806 14.1322 24.4317 14.1487C24.3865 14.2496 24.2661 14.4383 24.4549 14.5104C24.5975 14.2853 25.0075 14.2139 25.4091 14.121C25.8178 14.0574 26.2238 14.0095 26.3982 13.8099C26.1973 13.9046 26.6635 14.0477 26.6287 14.1825C26.8408 14.0455 27.2035 14.1108 27.3254 14.0792L27.0169 13.9547C27.6002 14.1658 28.4339 14.0133 29.1717 14.2385L29.1317 14.3081C29.4021 14.3498 29.6495 14.4077 29.9107 14.4559C30.039 14.4816 30.1738 14.5164 30.3073 14.5591C30.4635 14.6337 30.6619 14.7678 30.8414 14.8946C30.428 14.7483 30.6454 15.1508 30.7043 15.3015C30.6838 15.4467 30.3387 15.3482 30.0996 15.3118C29.9759 15.2829 29.8892 15.2964 29.8592 15.3315C29.8323 15.3712 29.8505 15.4064 29.987 15.55C30.519 15.7083 31.0894 15.5917 31.7733 16.2539C32.1882 16.3442 31.655 15.836 31.4573 15.674C31.6284 15.7793 31.8067 15.9139 31.9836 16.0563C32.0681 16.1269 32.1559 16.2021 32.245 16.2694L32.3757 16.3759L32.4395 16.4269C32.4525 16.4451 32.427 16.477 32.4263 16.505C32.2898 16.9321 32.1918 17.2974 32.2625 17.4742C32.3387 17.1655 32.4159 17.0419 32.4954 17.0473C32.4752 17.0479 32.532 17.2826 32.554 17.6039C32.5715 17.9284 32.5726 18.3265 32.4444 18.5139C32.389 18.2714 32.3604 18.5117 32.2966 18.1995C32.05 18.6361 31.9559 19.0262 31.9522 19.2145C31.8826 19.1746 31.8697 19.1081 31.8783 19.0332C31.8862 18.9863 31.8856 18.9661 31.9099 18.8938C31.9374 18.8261 31.9617 18.7538 31.986 18.6816C32.0987 18.3951 32.1534 18.1431 31.9422 18.1556C31.7837 18.5228 31.6219 18.8853 31.5858 19.0279C31.5293 19.2194 31.4644 19.3893 31.4275 19.5599C31.3861 19.7338 31.3603 19.9103 31.2992 20.105C31.2303 20.2984 31.1373 20.5158 30.9986 20.7656C30.8333 20.9588 30.6434 21.1075 30.4847 21.2616C30.3998 21.3357 30.3149 21.4098 30.219 21.478C30.1198 21.5416 30.0017 21.598 29.8837 21.6544C29.9366 21.6031 30.0769 21.5102 29.9974 21.5048C29.4822 21.6991 29.3379 21.8154 29.1944 21.9037C29.0554 21.9887 28.9418 22.0901 28.5189 22.095C28.1628 22.5131 27.062 22.6767 26.4634 22.5796C26.5384 22.54 26.5647 22.4319 26.6599 22.3918C25.4745 22.4848 24.4312 22.5456 23.4849 22.056L23.5215 22.0301C22.9049 21.8494 22.352 21.7198 21.7343 21.4024C21.9023 21.4549 21.9832 21.4043 22.0081 21.3522C21.2332 20.8715 20.4577 20.9414 19.6404 20.4495C19.467 20.2152 18.9174 20.0901 19.1205 19.8632C18.4227 19.5684 19.2609 20.2929 18.6029 19.9767L18.6602 20.0185C17.7308 19.8333 17.0792 19.2649 16.2239 19.1645C16.0764 19.015 15.8417 18.7623 15.4648 18.6383C15.2879 18.7571 15.0169 18.7435 14.7776 18.8035C14.6058 18.7262 14.4404 18.6581 14.2046 18.6263C14.4987 18.8367 13.9894 18.7105 13.9202 18.7872C14.0724 18.624 13.851 18.5544 14.19 18.4509C13.5461 18.2416 13.7857 18.9172 13.3232 18.8471C13.2777 18.7831 13.229 18.7146 13.1757 18.6493C13.2806 18.671 13.3265 18.5421 13.4458 18.5261C13.4191 18.5176 13.3689 18.5051 13.3142 18.4958C13.266 18.4957 13.2087 18.5021 13.1545 18.5131C13.0288 18.52 12.9315 18.596 12.902 18.6995C12.9199 18.8311 13.2681 18.7212 13.0467 18.9611C12.9649 18.8267 12.9336 18.8214 12.8434 18.9268C12.7546 19.0243 12.6397 19.1335 12.4346 19.0867C12.4851 19.2159 12.394 19.4457 12.2333 19.5874C12.1741 19.5814 12.1885 19.5436 12.1749 19.5051C11.8752 19.7801 12.2981 19.7751 12.0759 20.0431C11.9482 20.0376 11.9868 19.7145 11.7891 19.8137C11.4851 19.9955 11.7931 20.0516 11.5254 20.3037C11.6623 20.2545 11.8156 20.4895 11.7761 20.6757C11.6224 20.6337 11.3405 20.5177 11.4924 20.1896C11.2759 20.2817 11.0433 20.5639 11.0148 20.1853C11.0279 20.4648 10.9946 20.7567 10.9503 21.0426C10.9594 21.3456 10.9385 21.6355 11.0428 21.8984C10.9404 21.9574 10.9172 22.1183 10.8985 22.3241C10.995 22.5856 11.4554 22.6916 11.3728 22.8947C11.4984 22.9843 11.5261 22.8201 11.6096 22.8021L11.7294 23.1158C11.635 23.341 11.4289 22.8962 11.3073 23.0444C11.2797 23.1603 11.2723 23.2756 11.2772 23.389C11.4486 23.6592 11.6187 23.3664 11.7232 23.2715C11.6208 23.5918 11.9583 23.5926 11.9011 23.8121C11.732 23.4096 11.5582 24.152 11.4169 23.5855L11.3889 23.846C11.2323 23.9161 11.142 23.5471 10.998 23.5187C11.0073 23.7253 11.0637 23.8434 11.126 23.9504C11.1916 24.0619 11.28 24.1573 11.3213 24.3411C11.0379 24.3294 11.1776 23.9068 10.8801 23.7882C10.8352 24.0539 10.939 24.2483 10.998 24.399C11.0602 24.5542 11.0931 24.6683 11.0036 24.7939C10.834 24.5843 10.9535 24.1624 10.665 24.1337C10.5636 24.2814 10.2915 24.4886 10.5869 24.9525C10.7645 25.067 10.7528 24.7314 10.681 24.5142L10.58 24.5173L10.7314 24.4303C10.7511 24.6708 10.9791 24.9626 11.1018 25.1642C11.0834 25.2254 11.0898 25.2827 11.1085 25.3382C11.1222 25.3284 11.1373 25.3109 11.1445 25.292C11.147 25.3246 11.145 25.3604 11.1319 25.3904C11.2427 25.6623 11.6815 25.7767 11.6965 26.0686L11.3461 25.7401C11.2051 25.8609 11.3588 26.1643 11.513 26.536C11.6287 26.6601 11.8087 26.8553 11.9726 26.9795C12.1307 27.1148 12.3098 27.1249 12.3388 27.0012C12.2646 26.9646 12.1858 26.9311 12.1234 26.8724C12.4151 26.6925 12.5027 27.3867 12.6801 27.0268C12.6451 26.9485 12.5592 26.934 12.4707 26.8868C12.7065 26.9187 12.7903 26.7077 12.598 26.4662C12.4774 26.49 12.3719 26.4963 12.2494 26.5078C12.2222 26.1213 11.8029 26.2474 11.7329 25.8296C11.8079 25.79 11.8055 25.7092 11.883 25.7504C11.9904 26.066 12.3521 26.3041 12.5521 26.3338C12.2986 26.0739 12.7075 26.1752 12.5925 26.0231C12.7693 26.2138 12.8737 26.1671 12.9767 26.1283C13.0797 26.0894 13.1841 26.0427 13.3812 26.1846C13.2873 26.2169 13.1888 26.2526 13.0839 26.279C13.4317 26.6232 13.6384 26.2562 13.8445 26.1785C13.905 26.2249 13.9523 26.3494 14.0211 26.4656C14.1017 26.5596 14.2129 26.6387 14.3582 26.611C14.684 26.8952 14.6726 26.4632 14.9516 26.4299C14.9022 26.6507 14.586 26.7379 14.4068 26.7278C14.4244 26.7428 14.4433 26.75 14.4622 26.7572C14.442 26.7578 14.425 26.763 14.4132 26.7851C14.4692 26.8348 14.5479 26.8682 14.6346 26.8547C14.7259 26.838 14.8198 26.8056 14.8922 26.7817C15.0402 26.7383 15.1301 26.7294 15.0091 26.9461C14.8729 26.9191 14.7517 26.9227 14.6233 26.9452C14.4962 26.9599 14.3796 26.9603 14.2499 26.9906C14.1123 27.0196 13.9793 27.0454 13.834 27.0731C13.6971 27.0741 13.5538 27.0659 13.4008 27.0441C13.3195 26.9781 13.2218 26.9374 13.1365 26.8949C13.0572 26.8413 12.9948 26.7825 12.9708 26.7101C12.8115 26.844 12.6744 26.9896 12.7741 27.2557C13.2151 27.286 13.1974 27.0579 13.6512 27.203C13.7819 27.3095 13.9807 27.2989 14.1618 27.3214C14.3501 27.3251 14.5188 27.3496 14.6746 27.3076L14.6333 27.1238C14.8217 27.0793 15.0857 27.0636 15.3027 27.04C15.5393 26.9956 15.733 26.9198 15.702 26.8181C15.6574 26.9392 15.8345 26.9852 16.0099 26.9224L15.7899 27.1063C15.916 27.2642 16.5201 27.1855 16.3529 27.3662C16.9533 27.2627 16.8645 27.0507 17.4276 27.0012C17.6278 26.9346 17.7357 26.7478 17.7942 26.5205C17.8284 26.4138 17.8703 26.3083 17.9298 26.2179C17.9672 26.1156 18.0462 26.0527 18.1394 26.0001C18.3842 26.1218 17.9548 26.3789 18.2909 26.4357C18.535 26.2759 18.594 26.1171 18.5839 25.9868C18.5926 25.8636 18.4939 25.7344 18.4146 25.6326C18.2901 25.6799 18.2382 25.5585 18.1106 25.5048C18.1569 25.4925 18.1713 25.4548 18.2124 25.4256C18.3875 25.5074 18.1485 25.471 18.3078 25.5984C18.373 25.5934 18.4063 25.5628 18.4363 25.5277C18.4664 25.4926 18.501 25.4542 18.4999 25.3656C18.5461 25.4016 18.5923 25.4375 18.6417 25.478C18.6771 25.4116 18.6544 25.3314 18.6526 25.2708C18.6443 25.2011 18.6536 25.1464 18.7761 25.135C18.6812 25.0305 18.5739 24.9279 18.4653 24.8332C18.5984 24.498 18.3431 24.4387 18.1872 24.2194C18.1727 24.3054 18.166 24.3927 18.1482 24.4741L18.1326 24.162C17.9642 23.9928 17.9783 24.4092 17.8239 24.0857C18.1722 24.237 17.8698 23.6955 18.158 23.6075C18.2208 23.783 18.2865 24.1076 18.4432 23.9894C18.3959 23.8648 18.4917 23.5835 18.5339 23.3334C18.5012 23.3842 18.4153 23.0602 18.3443 23.0763C18.1568 23.2576 17.9675 23.4266 17.7736 23.5988C17.5705 23.5163 18.1661 22.9416 18.0323 22.7341C18.2955 23.056 18.0651 22.6352 18.2593 22.6278C17.907 22.2386 17.3976 21.8993 17.1413 21.442L17.3465 21.4887C17.0349 21.2632 17.3237 21.1954 16.9327 20.9163C16.7544 20.8299 17.1196 21.2373 16.8327 21.0562C16.3386 20.2933 15.81 19.5207 15.2547 18.7395C14.9735 18.3342 14.6988 17.938 14.4195 17.5451C14.1319 17.1307 13.8639 16.6473 13.6264 16.1972C13.9087 16.1203 13.4485 15.3471 13.4468 14.977C13.2895 14.8137 13.229 15.0286 13.3668 15.2127C13.1037 14.8426 13.0266 14.6568 12.9371 14.2115C13.1298 13.9989 12.9872 13.6532 12.8857 13.3266C13.0138 13.4487 13.1354 13.2522 13.1145 13.8516C13.1533 13.6934 13.6212 14.5161 13.5025 13.7202C13.0623 13.0429 12.7792 12.0544 13.0833 10.9924C13.2162 10.7054 13.289 10.4886 13.352 10.3063C13.426 10.1299 13.5247 9.99784 13.6618 9.90042L13.6522 10.0998C13.8763 9.84421 13.7932 9.71762 13.7779 9.57032C14.1509 9.14701 14.1558 9.56989 14.1189 9.74052C14.3032 9.50638 14.4529 9.3106 14.5856 9.12C14.728 8.9431 14.8717 8.8066 15.018 8.65447C15.0905 8.58231 15.1675 8.50689 15.2524 8.43281C15.3424 8.37568 15.4325 8.31856 15.5427 8.26083C15.6484 8.20634 15.7665 8.14993 15.8956 8.0994C16.0261 8.04106 16.1695 8.001 16.3246 7.98702C16.606 8.03458 16.4288 8.29806 16.9594 8.20285C17.3791 8.14517 17.7727 8.14738 18.1643 8.1372C18.5324 8.17128 18.9005 8.20536 19.26 8.26613C19.6032 8.35228 19.9483 8.45079 20.2986 8.56628C20.6449 8.70521 20.9853 8.85523 21.3314 9.09059L21.599 9.45739C21.7678 9.43367 21.9431 9.41908 22.1184 9.4045C22.7387 9.96759 23.325 10.5892 23.6919 11.415C24.0418 12.2459 24.0644 13.2064 23.798 14.0215C23.799 13.8489 23.8659 13.6431 23.7821 13.5445C23.7411 14.0963 23.965 14.7693 23.693 15.1896C23.7704 15.2308 23.4899 15.107 23.4353 15.0495C23.288 15.6356 23.4101 16.0783 23.1689 16.6968C23.0613 16.7389 23.1905 16.3788 22.9784 16.5158L22.8193 16.8627C22.8675 16.5534 22.5415 16.9364 22.5633 16.8315C22.6149 16.788 22.6944 16.7452 22.7084 16.639C22.5867 16.5742 22.3931 16.8631 22.2104 16.993C22.1416 17.1381 22.1556 17.2932 22.29 17.2114C22.0525 17.3803 22.1806 17.1929 22.0602 17.1203C21.8055 17.3908 21.8575 17.4639 21.994 17.6075C22.1294 17.6626 22.1294 17.6626 22.3584 17.5204C22.0255 17.7777 21.7484 18.1328 21.4699 18.2345L21.4791 18.4893L21.4126 18.5021C21.464 18.555 21.4913 18.5837 21.4997 18.6053L21.5187 18.5643C21.3109 19.6747 20.2397 20.8281 20.4356 21.7617L20.3284 22.1817L20.2715 22.566C20.0338 22.2123 20.2403 21.4191 20.1305 21.284C20.129 21.34 20.1179 21.3824 20.1229 21.4475C20.0382 21.4734 20.1991 21.1871 20.0345 21.0909C19.9665 21.1598 19.911 21.2268 19.8463 21.3003C19.661 21.7071 20.2672 21.5925 19.88 21.9572C19.8807 21.3584 19.673 22.1593 19.558 21.746C19.396 21.8954 19.5584 22.1239 19.7449 22.3282C19.7283 22.1888 19.7443 22.0468 19.7888 21.9257C19.8765 22.049 19.749 22.5179 20.0095 22.594C19.9963 22.6722 19.9636 22.7229 19.944 22.7438C19.9438 22.8402 19.8648 22.9032 19.7871 22.9584C19.7896 22.991 19.8033 23.0295 19.8188 23.0803C19.8925 23.0486 19.9673 23.1054 20.0369 23.1453C20.1065 23.1852 20.1611 23.2427 20.1649 23.3157C20.1693 23.3607 20.0196 23.2952 19.9238 23.3151C19.8805 23.4284 19.8868 23.534 19.9224 23.6325C19.9379 23.6833 19.9534 23.7342 19.9735 23.7818L20.069 23.9064C20.134 23.9978 20.2198 24.0606 20.3213 24.126C20.4091 24.2011 20.54 24.2594 20.6668 24.3411C20.4678 24.1869 20.4676 23.9738 20.4795 23.9035C20.5232 23.9069 20.5655 23.918 20.6267 23.9364C20.6594 23.8857 20.7682 23.884 20.8568 23.8829L20.6957 23.9561C20.8233 24.0098 20.9633 24.0616 21.0937 24.0033C21.1877 23.9227 21.2406 23.8714 21.3965 24.0907C21.2955 24.0937 21.2433 24.117 21.1918 24.1605C21.3193 24.2143 21.4678 24.2394 21.6268 24.2502C21.6286 24.3108 21.6796 24.5083 21.9524 24.6308L21.9141 24.2867C22.4262 24.5621 22.3651 24.4956 22.6549 24.5646C22.8003 24.7982 23.1619 24.8232 23.4968 24.8396C23.8349 24.8606 24.1437 24.8887 24.1354 25.0802L23.591 24.9239C23.7194 25.2109 22.9887 25.3245 23.1642 25.523C23.4014 25.4988 23.6314 25.4934 23.866 25.4849C23.3307 25.0607 24.593 25.2982 24.5748 25.0017C24.873 25.0923 24.9674 25.3897 25.3676 25.3528C25.5698 25.5116 25.093 25.4792 25.3421 25.6459C25.5362 25.6868 25.5822 25.5097 25.8177 25.6861C25.7779 25.7075 25.656 25.7392 25.6734 25.8024C25.9192 26.0128 25.9322 25.7698 26.2844 25.8977L26.2239 25.8512C26.4639 25.7632 26.5744 26.1316 26.5977 26.232C26.9004 26.3193 27.2051 26.4191 27.5105 26.539C27.3371 26.566 26.8761 26.4398 27.0592 26.6878C26.6538 26.756 26.0787 25.7825 25.8632 26.2726C26.0184 26.5199 26.5177 26.4194 26.5945 26.75C26.778 26.5921 27.1294 26.7962 27.4022 26.8704L27.4176 26.9695C27.8586 27.3093 27.6653 26.6215 28.1263 27.0571C28.1371 27.1595 27.8791 27.1641 28.16 27.4045C28.246 27.419 28.3853 27.4989 28.4708 27.445L28.4228 27.3484C28.4512 27.1563 28.8574 27.6309 29.0111 27.9343C28.8295 27.8433 28.7049 27.8905 28.8027 28.1442C28.536 27.7012 28.2484 28.0706 28.0145 27.7899C28.1813 27.802 28.56 28.0348 28.485 27.7649C28.3535 27.4251 27.9502 27.4092 27.5916 27.224L27.7821 27.4049C27.6022 27.7323 27.0854 27.1987 26.7786 27.4443C26.8723 27.5084 26.9556 27.5386 26.9229 27.5893C26.9531 27.506 26.5996 27.3859 26.4532 27.2768L26.6976 27.2337C26.377 26.7052 26.2542 27.1225 25.8133 26.7345C25.9191 26.6318 26.6917 26.9835 26.3517 26.6406C26.2615 26.7942 26.0081 26.486 25.9003 26.5764L25.6967 26.1641C25.3659 26.076 24.9405 26.0483 24.7287 26.0407C24.923 25.9851 25.0317 26.0316 25.2442 26.0112C25.0234 25.9619 24.9176 25.8033 24.8019 25.6792C24.6849 25.563 24.5639 25.4702 24.367 25.5414L24.5835 25.7107C24.2385 25.5639 24.0887 25.5466 23.9108 25.5768C23.7339 25.6956 23.9948 25.8885 24.1691 25.9983C24.0097 25.9191 23.689 25.7001 23.6443 25.8694C23.5052 25.6932 23.2791 25.7233 23.1902 25.8208C22.8961 25.6585 23.1019 25.6773 23.1101 25.5339C22.8273 25.5424 22.2493 25.3 22.2968 25.5894C22.4035 25.6717 22.7867 25.6401 22.5908 25.7999C22.5178 25.5423 22.3893 25.8743 22.1732 25.7735C22.629 25.6214 21.6989 25.4642 22.0283 25.347C21.6181 25.2053 21.5154 25.3609 21.1916 25.3503L21.2253 25.1751C21.0617 25.1676 20.8976 25.1399 20.7276 25.1232C20.6955 24.8846 20.9871 24.753 20.598 24.5345C20.1951 24.6352 20.166 25.0684 19.508 24.7522C19.5941 24.7185 19.6756 24.6881 19.763 24.6466C19.6941 24.5787 19.5485 24.4415 19.3995 24.348C19.2655 24.2369 19.1491 24.1409 19.089 24.2111C19.081 24.3062 19.0905 24.4163 19.1189 24.5337C19.161 24.6413 19.2343 24.7542 19.3371 24.86L19.2727 24.7888C19.0768 24.6873 19.1442 24.8595 19.2025 24.99C19.2609 25.1204 19.2854 25.213 18.9382 24.889C19.0406 24.8782 19.0473 24.7909 19.0189 24.6735C18.9918 24.5484 18.946 24.3678 18.8923 24.1859C18.8032 23.809 18.7808 23.3712 18.8842 23.1876C18.8297 23.082 18.7389 22.9058 18.6891 22.7487C18.6393 22.5915 18.5803 22.4409 18.5192 22.3743C18.4312 22.3956 18.3593 22.7492 18.2053 22.5905C18.2781 22.3737 18.2988 22.1803 18.3076 22.0089C18.3276 21.8435 18.3214 21.6897 18.3152 21.5359C18.3136 21.3789 18.3016 21.2361 18.3385 21.0655C18.3813 20.8838 18.4488 20.6983 18.5977 20.5305C18.6159 20.5657 18.666 20.5782 18.7278 20.3555L18.855 20.2926C18.8761 20.1676 18.9039 20.0034 18.9823 19.9202C19.0797 19.7478 19.1772 19.5753 19.2812 19.412C19.3314 19.4245 19.3043 19.2994 19.2974 19.1736C19.2641 19.2041 19.2327 19.2471 19.1909 19.3043L19.2974 19.1736C19.293 19.0804 19.2998 18.9931 19.3455 18.9606C19.2234 18.7792 19.6647 18.6649 19.8313 18.5122C19.8058 18.544 19.7874 18.6053 19.7808 18.6443C20.0551 18.3531 19.839 17.9909 20.2381 17.8172L20.3313 17.8129C20.283 17.861 20.2457 17.915 20.2574 17.941C20.2979 17.8916 20.3338 17.8455 20.3607 17.8058C20.4815 17.6855 20.4613 17.6861 20.4143 17.7264C20.5764 17.4805 20.4435 17.458 20.6939 17.0944L20.4916 17.2451C20.5446 17.1455 20.5786 17.0869 20.6119 17.0564C20.6908 16.7803 20.9763 16.1372 21.2871 15.8682C21.2738 15.4238 21.1318 15.4078 21.3225 14.9215L21.4968 15.0796C21.604 14.9209 21.7112 14.7621 21.8074 14.5975C21.8619 14.7032 22.0624 14.4919 22.2084 14.1749C22.2071 14.1827 22.2025 14.186 22.2058 14.1905C22.5455 14.059 22.4455 13.6281 22.3931 13.4866C22.3483 13.3946 22.2771 13.1977 22.3528 13.1783C22.1809 13.101 22.2049 12.8639 22.137 12.6715C22.1324 12.6748 22.1246 12.6735 22.12 12.6767C22.1194 12.6565 22.1201 12.6285 22.1176 12.5959C22.1071 12.6102 22.0843 12.6265 22.066 12.6394C22.1349 12.4461 21.8253 12.4942 21.9138 12.2319C21.8842 12.0741 21.969 12.0482 22.0537 12.0224C22.1307 11.9952 22.2324 11.9642 22.1293 11.7417L21.9054 11.6396C21.903 11.5588 21.9336 11.5921 21.9772 11.5954C21.81 11.4667 21.8191 11.1989 21.5908 11.3131C21.7724 11.6653 21.7513 11.7904 21.8646 12.0949C21.5811 11.8219 21.386 11.9537 21.1128 11.7629C21.0593 11.794 21.1289 11.8339 21.1386 11.8958C20.9759 11.8121 20.9321 11.5956 21.0605 11.5731C20.9383 11.4399 20.7522 11.6135 20.5446 11.4859L20.368 11.7696C20.1935 11.7562 20.0399 11.6659 19.9027 11.5503C19.7518 11.4444 19.6172 11.3131 19.4962 11.2203C19.7989 11.3558 20.149 11.2583 20.3495 11.3564C20.4264 11.068 20.6738 11.1259 20.893 11.2795C21.1351 11.4169 21.2929 11.6486 21.4194 11.6137C21.3274 11.3971 21.7849 11.6152 21.4997 11.2816C21.1856 11.2847 21.1912 11.1088 20.9413 10.9701C20.8799 10.7387 21.2954 10.8491 20.8086 10.59C20.9757 10.7669 20.418 10.737 20.8236 10.8819C20.4549 10.8276 20.2707 10.7523 20.0604 10.6886C19.8624 10.623 19.6639 10.5371 19.3148 10.5103C19.8676 10.6399 19.0048 10.7031 19.2819 10.9188C19.3184 10.6315 20.1814 11.0427 19.5456 10.69C19.713 10.7223 19.8764 10.7781 20.0425 10.8182C20.0357 10.9537 19.5018 10.7831 19.849 11.1071C19.4138 11.0657 19.3164 10.9286 18.8914 11.0175C19.0116 10.8771 18.6145 10.7054 18.596 10.5536C18.42 10.548 18.2366 10.7059 18.0774 10.5302L18.3662 10.4625C18.0953 10.4006 18.0983 10.1921 17.8581 10.1153C17.6944 10.156 17.6733 10.2811 17.7382 10.3724C17.5585 10.342 17.3611 10.3448 17.1942 10.3809C17.0357 10.4386 16.865 10.4499 16.6891 10.4443C17.101 10.3853 16.7014 10.1811 17.0651 10.122L16.7649 10.0672C16.6331 10.1333 16.535 10.2856 16.4292 10.3883C16.3202 10.4864 16.2592 10.6329 16.2146 10.754C16.1963 10.8152 16.1746 10.8718 16.1621 10.922C16.1594 10.9858 16.1657 11.0432 16.1721 11.1005C16.1895 11.212 16.2277 11.2948 16.2888 11.3614C16.2617 11.5458 16.1386 11.537 16.0153 11.5765C15.9664 11.6044 15.9161 11.6401 15.8997 11.7137C15.8721 11.7814 15.8706 11.8856 15.9647 12.0664C15.9369 11.9692 15.7223 12.0736 15.6397 12.0154C15.6226 12.0688 15.5937 12.1443 15.5695 12.2166C15.5517 12.298 15.5606 12.3879 15.5937 12.4538C15.661 12.3647 15.7094 12.2684 15.793 12.2021C15.8461 12.3638 15.8567 12.5626 15.8236 12.758C15.8394 12.9737 15.7822 13.1932 15.8443 13.3966C15.7767 13.3208 15.6773 13.4809 15.5645 13.2448C15.4172 13.2601 15.4993 13.5593 15.5081 13.6975C15.6905 13.9735 15.8755 13.7114 16.0742 14.0102C16.3223 14.9204 16.7533 15.6525 17.4762 16.6308C18.1595 17.5824 18.8903 18.5621 19.5661 19.629C20.2374 20.6991 20.8948 21.8272 21.3216 23.2499C21.5232 23.9593 21.6816 24.782 21.5439 25.7395C21.5075 25.9785 21.4633 26.2162 21.3696 26.4617C21.296 26.7065 21.1834 26.9447 21.0565 27.1725C20.8013 27.6358 20.4427 28.0214 20.066 28.3235L20.0011 28.2321C19.128 29.0452 18.1311 29.355 17.2119 29.5614C16.7523 29.6405 16.2895 29.715 15.8451 29.7283L15.5036 29.751C15.3903 29.7559 15.2437 29.7432 15.1114 29.741C14.8482 29.7286 14.5818 29.7117 14.3166 29.687C13.2628 29.5008 12.1769 29.1243 11.3516 28.4181C10.5198 27.7509 9.85256 26.9186 9.43371 26.0198L9.3814 26.0913C9.30144 25.4467 9.15965 25.3343 8.95149 25.1866C8.77002 25.0474 8.52351 24.865 8.66851 24.1499C8.5106 23.9665 8.3795 23.7433 8.33448 23.4865C8.28489 23.2329 8.26727 22.9566 8.25555 22.6693C8.24708 22.3864 8.29597 22.0973 8.29664 21.808C8.28949 21.5173 8.31037 21.2274 8.28758 20.9342L8.46431 20.8636C8.40944 20.6413 8.40735 20.4158 8.48667 20.2081C8.56731 19.9926 8.68571 19.7916 8.81192 19.5918L9.00354 19.2906C9.08 19.195 9.1532 19.0948 9.22184 18.9979C9.38256 18.808 9.49446 18.5978 9.55694 18.3471Z" fill="#E0E1DC"/>
<path d="M18.8672 20.3184L18.7955 20.3769C18.8614 20.6396 18.8474 20.5137 18.8672 20.3184Z" fill="#E0E1DC"/>
<path d="M21.5615 15.8255C21.4119 15.8082 21.2815 15.9146 21.1861 16.0511C21.2375 16.0558 21.3052 16.0833 21.3866 16.0529C21.093 16.3646 21.0279 16.6307 20.7049 16.9977C20.7875 17.0076 20.8105 17.2043 20.986 16.736C20.7326 16.8337 21.6969 16.1415 21.5615 15.8255Z" fill="#E0E1DC"/>
<path d="M20.9914 24.1097C21.0237 24.0953 21.0519 24.0752 21.0762 24.0494L20.9914 24.1097Z" fill="#E0E1DC"/>
<path d="M19.7822 22.9633C19.7671 23.0269 19.7433 23.0891 19.6831 23.1318C19.6503 23.0645 19.707 23.0167 19.7822 22.9633Z" fill="#E0E1DC"/>
<path d="M21.4883 18.7078C21.4076 18.8754 21.3085 19.1043 21.1537 19.1385C21.3175 18.8843 21.4281 18.7781 21.4883 18.7078Z" fill="#E0E1DC"/>
<path d="M18.5716 23.3027C18.573 23.2949 18.5775 23.2916 18.5756 23.2792C18.4033 23.2501 18.4796 22.9891 18.3374 22.9248C18.3145 22.6793 18.5256 22.86 18.624 22.9692C18.6343 23.0032 18.6027 23.1428 18.5716 23.3027Z" fill="#E0E1DC"/>
<path d="M10.8023 24.9831C10.8694 25.0387 10.9024 25.1531 10.9354 25.2674C10.9008 25.2575 10.8864 25.2954 10.8706 25.341C10.8687 25.3286 10.8635 25.3116 10.857 25.3025C10.8163 25.4003 10.6577 25.3614 10.5447 25.3866C10.4049 25.1414 10.3979 25.0638 10.4502 25.0404C10.5149 25.0151 10.6311 25.0427 10.8023 24.9831Z" fill="#E0E1DC"/>
<path d="M14.5919 26.7659C14.5516 26.7591 14.5194 26.7536 14.4953 26.7496C14.5147 26.757 14.5469 26.7624 14.5919 26.7659Z" fill="#E0E1DC"/>
<path d="M10.7743 24.9513C10.7461 24.9506 10.7799 25.0859 10.8209 25.2508C10.846 25.1984 10.8403 25.1123 10.7743 24.9513Z" fill="#E0E1DC"/>
<path d="M27.7772 28.058L27.6585 27.9977C27.6922 28.084 27.7384 28.1683 27.7643 28.2533C28.1243 28.4592 28.2486 28.3915 28.4602 28.3789C28.1028 28.1574 27.9995 27.9345 27.5554 27.6298C27.6361 27.7723 27.7122 27.9181 27.7772 28.058Z" fill="#E0E1DC"/>
<path d="M28.4041 26.995C28.3958 26.9246 28.3699 26.7417 28.3115 26.6791L28.1793 26.7176C28.2573 26.8079 28.3274 26.8968 28.4041 26.995Z" fill="#E0E1DC"/>
<path d="M23.1692 23.9357L23.6373 24.1331C23.8152 24.0694 23.2812 23.7794 23.1692 23.9357Z" fill="#E0E1DC"/>
<path d="M24.6187 26.3163L24.8673 26.2931C24.723 26.1097 24.4495 26.039 24.3693 26.1518C24.6475 26.1703 24.4068 26.2438 24.6187 26.3163Z" fill="#E0E1DC"/>
<path d="M21.9114 23.6682C21.7484 23.8608 21.512 23.4988 21.3946 23.6869C21.5037 23.6442 21.8547 23.8829 21.9114 23.6682Z" fill="#E0E1DC"/>
<path d="M21.8913 25.7713C22.0024 25.9955 22.2632 25.8583 22.5248 25.9549C22.3055 25.9178 22.0123 25.6508 21.8913 25.7713Z" fill="#E0E1DC"/>
<path d="M20.0693 23.602C20.1948 23.5266 20.2534 23.609 20.3282 23.7143C20.2662 23.7239 20.1956 23.7603 20.1277 23.7327C20.3822 23.7999 20.3763 23.811 20.5623 23.8304C20.4498 23.6623 20.3536 23.4688 20.5138 23.3549C20.3674 23.4108 20.0985 23.3814 20.0693 23.602Z" fill="#E0E1DC"/>
<path d="M21.1968 25.6755C21.4241 25.7771 21.5573 25.9455 21.8315 25.98C21.796 25.8636 21.7439 25.7049 21.3994 25.6664L21.5475 25.514C21.2641 25.3241 21.6313 25.7648 21.1968 25.6755Z" fill="#E0E1DC"/>
<path d="M20.2387 22.7331L20.1732 22.8348C20.3359 23.0637 20.3257 23.2432 20.5589 23.1739C20.5245 23.1157 20.4755 23.0953 20.4242 22.994C20.3696 22.8881 20.3013 22.792 20.2387 22.7331Z" fill="#E0E1DC"/>
<path d="M20.034 24.9683L19.8697 25.1689C20.2584 25.4017 19.8765 25.0803 20.0489 25.0973C20.1413 25.1781 20.2918 25.2524 20.3844 25.2355C19.9485 25.1129 20.4324 25.0479 20.034 24.9683Z" fill="#E0E1DC"/>
<path d="M18.7573 24.2097C18.6144 24.0661 18.5302 23.8806 18.4248 23.7036C18.3902 23.8848 18.3697 24.0765 18.3589 24.2817C18.8622 24.8844 18.5036 24.2265 18.7573 24.2097Z" fill="#E0E1DC"/>
<path d="M18.6711 23.5083C18.6796 23.4815 18.6869 23.4626 18.7032 23.4372C18.5503 23.222 18.3647 22.961 18.2373 22.7138C18.427 23.1649 18.4236 23.2086 18.6711 23.5083Z" fill="#E0E1DC"/>
<path d="M22.8403 16.8971C22.7834 16.7779 22.4665 17.0448 22.6587 16.9637C22.6966 17.0756 23.09 16.6918 22.8403 16.8971Z" fill="#E0E1DC"/>
<path d="M20.3292 17.099C20.5006 16.9909 20.6874 16.4101 20.7578 16.1602C20.6461 16.4394 20.1843 17.0503 20.3292 17.099Z" fill="#E0E1DC"/>
<path d="M20.7568 16.0724C20.7479 16.0957 20.7397 16.1441 20.7203 16.2004C20.7454 16.1401 20.7519 16.1014 20.7568 16.0724Z" fill="#E0E1DC"/>
<path d="M17.7655 10.8875C17.7454 10.8936 17.72 10.9036 17.6984 10.9189C17.7239 10.909 17.7401 10.8975 17.7655 10.8875Z" fill="#E0E1DC"/>
<path d="M17.9842 10.8638C18.1081 10.9242 18.3792 10.9069 18.4523 10.801C18.2349 10.8273 18.0278 10.7923 17.7962 10.903C17.8704 10.884 17.9743 10.9923 17.9842 10.8638Z" fill="#E0E1DC"/>
<path d="M16.4503 10.985C16.452 10.8706 16.5786 10.8788 16.5023 10.782C16.4172 10.7368 16.3724 10.9498 16.4503 10.985Z" fill="#E0E1DC"/>
<path d="M18.3173 24.8292C18.2749 24.984 18.3292 25.0702 18.483 25.0233C18.4604 24.8453 18.3742 24.9482 18.3173 24.8292Z" fill="#E0E1DC"/>
<path d="M18.5036 25.219L18.4201 25.2347C18.3813 25.2622 18.3343 25.2883 18.2887 25.3061C18.364 25.2891 18.4338 25.254 18.5036 25.219Z" fill="#E0E1DC"/>
<path d="M18.0479 25.6857C18.0278 25.6575 18.0077 25.6293 18.0029 25.5986C18.0061 25.6389 18.0132 25.6849 18.0479 25.6857Z" fill="#E0E1DC"/>
<path d="M18.0029 25.5986C17.9989 25.6226 17.9988 25.6226 17.9948 25.6466L18.0029 25.5986Z" fill="#E0E1DC"/>
<path d="M18.0855 25.6348L18.0067 25.5718C18.0147 25.5831 18.0155 25.6081 18.0122 25.6274C18.0155 25.6081 18.0405 25.6073 18.0855 25.6348Z" fill="#E0E1DC"/>
<path d="M17.9145 25.7796C18.0051 25.8193 18.078 25.8438 18.1746 25.8723C18.1914 25.7007 17.9786 25.8797 17.8951 25.606C17.9016 25.6639 17.9238 25.7244 17.9145 25.7796Z" fill="#E0E1DC"/>
<path d="M17.369 26.1271C17.2532 26.1197 17.1711 26.2471 17.0453 26.3227C16.9274 26.3996 16.8134 26.453 16.7175 26.3278C16.037 26.6044 16.9932 26.7741 16.1492 27.0149C17.0057 27.0345 16.4765 26.4163 17.1622 26.4192C16.9811 26.3684 17.025 26.3233 17.1252 26.2797C17.2065 26.2288 17.3375 26.1702 17.369 26.1271Z" fill="#E0E1DC"/>
<path d="M17.6489 26.5099C17.629 26.366 17.3503 26.4474 17.2934 26.5703C17.3754 26.56 17.5938 26.6933 17.6489 26.5099Z" fill="#E0E1DC"/>
<path d="M16.118 26.5585C16.0407 26.5374 15.9614 26.5037 15.8775 26.4734L15.8287 26.5703C15.9258 26.5706 16.0262 26.5754 16.118 26.5585Z" fill="#E0E1DC"/>
<path d="M15.301 26.5908L15.5011 26.414C15.4096 26.4998 15.1437 26.467 15.301 26.5908Z" fill="#E0E1DC"/>
<path d="M14.3677 26.269C14.2398 26.1866 13.9724 26.5222 14.3422 26.5159L14.266 26.4868C14.3003 26.4278 14.1621 26.2626 14.3677 26.269Z" fill="#E0E1DC"/>
<path d="M12.1978 25.4792C12.2718 25.5932 12.3972 25.6914 12.4434 25.61L12.1711 25.3733L12.1978 25.4792Z" fill="#E0E1DC"/>
<path d="M11.5386 26.1493C11.4404 26.4239 11.8146 26.4512 11.9718 26.7011C11.8706 26.5684 11.8287 26.5094 11.7804 26.4414C11.7243 26.3721 11.6637 26.3061 11.5386 26.1493Z" fill="#E0E1DC"/>
<path d="M12.2731 25.015C12.4136 25.0346 12.4466 25.18 12.4824 25.26C12.5647 25.1383 12.3978 24.9826 12.2731 25.015Z" fill="#E0E1DC"/>
<path d="M11.8516 24.5303C11.8832 24.3911 11.978 24.4954 11.9984 24.3985C12.0029 24.1343 11.9156 23.9147 11.742 23.8251C11.6715 23.9096 11.453 24.0855 11.3035 24.02C11.5324 24.4 11.9815 24.4037 11.7888 24.7124C11.9592 24.7492 12.131 24.7783 12.2917 24.8014C12.2084 24.5103 11.9371 24.7375 11.8516 24.5303Z" fill="#E0E1DC"/>
<path d="M11.6693 25.666L11.638 25.3989C11.5495 25.5169 11.4376 25.3691 11.3412 25.2722C11.2274 25.3738 11.2859 25.4562 11.3752 25.5237C11.4783 25.5814 11.6211 25.6176 11.6693 25.666Z" fill="#E0E1DC"/>
<path d="M11.203 22.4072L11.1572 21.9306L11.1351 22.0858L11.203 22.4072Z" fill="#E0E1DC"/>
<path d="M11.3352 22.1036L11.4214 22.0979C11.3802 21.9815 11.3167 21.8531 11.2881 21.7347C11.2885 21.8524 11.3237 21.98 11.3352 22.1036Z" fill="#E0E1DC"/>
<path d="M11.5098 21.6702L11.4847 21.7226C11.4858 21.812 11.5027 21.9039 11.5287 21.9893C11.5067 21.8803 11.5049 21.7706 11.5098 21.6702Z" fill="#E0E1DC"/>
<path d="M11.7916 20.8048L11.6482 20.8373C11.6407 20.9537 11.4292 21.1248 11.5948 21.1528C11.576 21.0482 11.6778 20.8302 11.7916 20.8048Z" fill="#E0E1DC"/>
<path d="M12.7486 15.8597C12.605 15.9895 12.7252 16.022 12.8336 16.0768C12.8969 15.9902 12.9635 15.9082 13.0347 15.8229C12.9649 15.8516 12.8235 15.8967 12.7486 15.8597Z" fill="#E0E1DC"/>
<path d="M13.7455 16.0622C13.928 15.9806 14.1332 15.8828 14.3117 15.8246C13.6499 15.773 13.559 15.9543 12.9605 16.0981C13.0945 16.1127 13.2469 16.0662 13.4085 16.0132C13.5641 15.9713 13.7249 15.9463 13.8811 15.9727L13.7455 16.0622Z" fill="#E0E1DC"/>
<path d="M22.3566 18.9083C22.2655 19.042 22.3641 19.0546 22.0363 19.0395C22.4731 19.1012 22.8019 19.2535 23.2705 19.3891C23.2218 19.2721 23.6144 19.2136 23.427 19.202C23.2487 19.184 23.0699 19.1457 22.8929 19.1198L23.0061 19.0463C22.684 18.8065 22.7094 19.1331 22.3566 18.9083Z" fill="#E0E1DC"/>
<path d="M20.354 16.1019C20.3621 16.0057 20.2639 15.985 20.1643 15.9722C19.9177 16.2519 20.4088 16.042 20.354 16.1019Z" fill="#E0E1DC"/>
</svg>
