<svg width="38" height="38" viewBox="0 0 38 38" fill="none" xmlns="http://www.w3.org/2000/svg">
<circle cx="19" cy="19" r="19" fill="#224486"/>
<path d="M18.551 21.3229C18.3542 21.3087 18.5332 21.3865 18.6297 21.5037L18.551 21.3229Z" fill="#E0E1DC"/>
<path d="M18.6045 21.5028L18.6664 21.6414C18.6678 21.5891 18.6395 21.5454 18.6045 21.5028Z" fill="#E0E1DC"/>
<path d="M19.1365 22.6361C18.9056 22.4348 18.8829 22.0617 18.6321 22.0032C18.6714 22.3069 18.9302 22.6524 19.1365 22.6361Z" fill="#E0E1DC"/>
<path d="M19.0324 22.2027L18.927 22.2207L19.1918 22.37L19.0324 22.2027Z" fill="#E0E1DC"/>
<path d="M19.0596 21.9704L19.0434 22.0239L19.3326 22.3259L19.0596 21.9704Z" fill="#E0E1DC"/>
<path d="M19.4478 23.5353L19.3312 23.2796C19.3776 22.977 19.5673 23.3818 19.5988 23.1768C19.4735 22.8339 19.2804 23.1679 19.1476 22.7439C19.095 22.7877 19.1665 22.9466 19.2272 23.0978C19.2818 23.25 19.307 23.3978 19.1967 23.4008C19.2465 23.7662 19.3137 23.3808 19.4478 23.5353Z" fill="#E0E1DC"/>
<path d="M17.7344 21.4224C17.7379 21.3996 17.7343 21.3781 17.7348 21.3596C17.7128 21.3818 17.7021 21.4058 17.7344 21.4224Z" fill="#E0E1DC"/>
<path d="M21.5663 19.2401C21.6342 19.2665 21.7 19.2806 21.7658 19.2947C21.7493 19.2722 21.723 19.2482 21.6916 19.2313L21.5663 19.2401Z" fill="#E0E1DC"/>
<path d="M18.377 24.4159C18.3432 24.479 18.3182 24.5373 18.2957 24.5921C18.3286 24.561 18.3608 24.5078 18.377 24.4159Z" fill="#E0E1DC"/>
<path d="M25.2237 16.2247C25.2307 16.2067 25.2366 16.1822 25.2283 16.1534C25.2283 16.1534 25.2218 16.1545 25.218 16.1518L25.1835 16.2249L25.2237 16.2247Z" fill="#E0E1DC"/>
<path d="M26.9158 19.2702C26.9866 19.2674 27.0538 19.2621 27.113 19.2458C26.998 19.2438 26.9439 19.253 26.9158 19.2702Z" fill="#E0E1DC"/>
<path d="M18.0201 26.0931C18.0284 26.0657 18.034 26.042 18.0371 26.022C18.0241 26.0405 18.0069 26.0726 17.9934 26.1073L18.0201 26.0931Z" fill="#E0E1DC"/>
<path d="M19.7172 18.9216C19.8403 18.9325 19.9535 18.9418 20.0424 18.9394C19.9317 18.9264 19.8221 18.9196 19.7172 18.9216Z" fill="#E0E1DC"/>
<path d="M19.0199 27.6267C18.9704 27.6891 18.9563 27.7549 18.9545 27.8186C19.0021 27.7819 19.0332 27.7227 19.0199 27.6267Z" fill="#E0E1DC"/>
<path d="M18.2859 29.087L18.2935 29.0764C18.254 29.0645 18.2556 29.0735 18.2859 29.087Z" fill="#E0E1DC"/>
<path d="M17.6023 29.9356L17.6121 29.9104C17.5831 29.906 17.5702 29.9129 17.6023 29.9356Z" fill="#E0E1DC"/>
<path d="M18.9125 27.7957C18.7789 27.8851 18.5275 27.8046 18.7156 28.0892L18.7638 28.0746C18.664 28.1392 18.6832 28.326 18.636 28.4387C18.6678 28.4396 18.6935 28.4415 18.7207 28.4337C18.7528 28.3807 18.8013 28.3122 18.8789 28.2102C18.9934 28.1019 18.9106 27.9513 18.9125 27.7957Z" fill="#E0E1DC"/>
<path d="M17.7626 21.423C17.6924 21.4468 17.8168 21.6483 17.7626 21.423V21.423Z" fill="#E0E1DC"/>
<path d="M18.4075 22.9828C18.4129 22.9333 18.4116 22.885 18.417 22.8354C18.4048 22.8861 18.3955 22.9328 18.4075 22.9828Z" fill="#E0E1DC"/>
<path d="M17.2221 28.3753C17.2305 28.3634 17.2389 28.3515 17.2516 28.3336C17.2057 28.3101 17.2025 28.3525 17.2221 28.3753Z" fill="#E0E1DC"/>
<path d="M18.4102 22.7098L18.4091 22.8421C18.4155 22.8004 18.4285 22.7575 18.4102 22.7098Z" fill="#E0E1DC"/>
<path d="M17.7956 26.7448C17.8025 26.7352 17.8093 26.7255 17.8161 26.7159C17.8045 26.7221 17.7976 26.7318 17.7956 26.7448Z" fill="#E0E1DC"/>
<path d="M8.18453 16.9756C8.1244 17.0301 8.05615 16.9817 7.97894 16.9918C7.94057 17.2288 8.26484 16.8545 8.14672 17.1052C8.20132 17.0737 8.25023 17.0275 8.29556 16.9787L8.117 16.8577C8.0096 16.9865 8.23014 16.873 8.18453 16.9756Z" fill="#E0E1DC"/>
<path d="M23.731 16.3263L23.7802 16.3241C23.7197 16.26 23.7386 16.2257 23.5532 16.2481C23.4489 16.418 23.7403 16.5077 23.5337 16.7322C23.5778 16.6999 23.6551 16.6804 23.731 16.6706C23.5864 16.6053 23.6481 16.4583 23.731 16.3263Z" fill="#E0E1DC"/>
<path d="M23.7313 16.6714C23.7349 16.6739 23.7384 16.6764 23.7419 16.6789C23.7595 16.6913 23.7761 16.6978 23.7963 16.7068C23.8314 16.6946 23.8735 16.6874 23.9046 16.6882C23.8669 16.6668 23.8011 16.6626 23.7313 16.6714Z" fill="#E0E1DC"/>
<path d="M8.03783 18.2902C8.05092 18.3243 8.06574 18.3472 8.07763 18.3742C8.08209 18.3153 8.06141 18.3007 8.03783 18.2902Z" fill="#E0E1DC"/>
<path d="M26.6205 21.5778C26.5614 21.5978 26.5022 21.6177 26.4559 21.6356C26.5466 21.6266 26.5918 21.6024 26.6205 21.5778Z" fill="#E0E1DC"/>
<path d="M26.3589 15.6799C26.4084 15.6813 26.4531 15.6736 26.5014 15.6686C26.5259 15.6579 26.5503 15.6471 26.5848 15.638L26.3589 15.6799Z" fill="#E0E1DC"/>
<path d="M18.5163 20.3457C18.5471 20.1191 18.4503 20.3855 18.2293 20.3316L18.0891 20.4916C18.2571 20.4755 18.3914 20.3924 18.5163 20.3457Z" fill="#E0E1DC"/>
<path d="M8.30832 17.0069C8.30614 16.9942 8.29866 16.9889 8.30176 16.9687C8.29648 16.9761 8.29648 16.9761 8.28592 16.9911L8.30832 17.0069Z" fill="#E0E1DC"/>
<path d="M13.2204 21.7072C13.1876 21.7002 13.1583 21.6957 13.1255 21.6886C13.1435 21.7014 13.1727 21.7059 13.2204 21.7072Z" fill="#E0E1DC"/>
<path d="M24.7548 16.4268L25.3948 16.2264L25.1931 16.2389C25.1387 16.3611 24.805 16.2802 24.7548 16.4268Z" fill="#E0E1DC"/>
<path d="M19.7394 20.0177C19.5194 19.97 19.3965 19.8614 19.0824 20.0763C19.0345 20.1288 19.2006 20.2679 18.9459 20.2388L19.0917 19.9641C18.7615 20.0111 18.4208 20.1263 18.2183 20.3285L17.8356 20.4192L17.9314 20.3143C17.6387 20.3771 17.3302 20.3476 17.1243 20.5852C17.1986 20.465 17.3241 20.2191 17.0519 20.291L16.8517 20.4516C16.8086 20.4211 16.9091 20.3249 16.54 20.4955C16.6684 20.581 16.2416 20.673 16.1109 20.5373C16.1878 20.6727 16.4527 20.6874 16.501 20.8404C16.0862 20.8545 16.2784 21.2388 15.8875 21.2267L15.9042 21.0658C15.6058 21.1137 15.4116 21.2354 15.2309 21.3611L15.2428 21.2832C14.6929 21.3204 14.3624 21.5508 13.9447 21.3631L13.661 21.497C13.7328 21.4183 13.6958 21.3867 13.5569 21.3694C13.328 21.3801 12.9965 21.6043 13.1279 21.6703C12.3529 21.5374 12.1504 21.8692 11.2559 21.8136C11.2936 21.6459 10.896 21.7424 11.0541 21.5952L10.7794 21.6707C10.8224 21.6633 10.7868 21.622 10.7714 21.6057C10.6775 21.5554 10.627 21.6114 10.5791 21.6639L10.603 21.6376L10.2186 21.5706L10.1889 21.7116C10.1011 21.6603 10.0144 21.615 9.92806 21.5539C10.1328 21.402 10.5345 21.5514 10.626 21.384C10.5024 21.3451 10.0896 21.1122 9.68765 21.2758C9.44866 21.2092 9.20443 21.1119 8.96993 21.0161C8.96286 20.9193 9.00318 21.0073 8.78396 20.8899C8.61238 20.7738 8.56971 20.857 8.32083 20.751C8.40848 20.7645 8.45103 20.773 8.48578 20.7544C8.21455 20.5732 8.07886 20.7039 7.82101 20.6564C7.9725 20.7474 8.13805 20.7728 8.27035 20.8071C8.2885 20.8577 8.24594 20.8492 8.25629 20.8727L8.65304 20.9376C8.60362 20.9998 8.59655 20.903 8.78567 21.0477C8.54354 20.9626 8.48554 20.9378 8.21269 20.858C8.03053 20.9018 8.30746 21.0978 8.09995 21.0859C7.39556 20.8303 6.83357 20.3353 6.47172 19.8093C6.27852 19.5484 6.16053 19.2651 6.05077 18.9931C5.95584 18.7153 5.89476 18.4508 5.84133 18.1754C5.8233 18.0331 5.8002 17.898 5.79086 17.751C5.78916 17.5932 5.77473 17.4535 5.7904 17.2864C5.81816 16.9498 5.89249 16.6083 6.06123 16.3012C6.22743 15.9978 6.47768 15.7053 6.75283 15.4844C7.01928 15.2681 7.29819 15.0876 7.57095 14.9082C7.88558 14.9365 8.55794 14.8942 8.74681 14.7418L8.65811 14.7222C8.91034 14.5336 9.11779 14.7668 9.3288 14.5221L9.54323 14.242C9.69994 14.2342 10.0818 14.1751 10.0228 14.2737C10.1275 14.2021 10.3128 14.1767 10.4643 14.1382C10.6214 14.1144 10.7498 14.0704 10.7549 13.9336C11.0329 13.9144 11.2506 13.912 11.47 13.9377C11.6882 13.9572 11.8988 13.9496 12.1621 13.9741C12.1263 13.9866 12.1183 14.0133 12.1183 14.0133C12.2242 14.1152 12.3861 13.8789 12.5163 14.0305C12.4331 14.0795 12.0134 14.047 12.3463 14.1639C12.4832 14.0773 12.7292 14.111 12.9407 14.2013C13.1536 14.2818 13.3349 14.3994 13.3747 14.4653C13.5063 14.4775 13.6381 14.4898 13.7639 14.4493C13.9364 14.5336 14.1101 14.7915 13.8332 14.7251C14.3563 14.8632 14.2855 15.0776 14.4884 14.8595C15.139 14.9853 15.3306 15.4772 15.932 15.6114C16.6124 16.2442 17.2449 16.9294 17.4478 17.6723L17.5436 17.6591C17.3127 17.6954 17.6221 18.3031 17.3538 18.1941C17.6272 18.2959 17.7764 18.6876 17.8367 18.8923L17.6748 18.8694C17.5506 18.4576 17.569 18.8053 17.3305 18.372C17.3736 18.4025 17.3922 18.4373 17.4202 18.3977C17.236 18.208 16.9335 17.7887 16.7305 17.618L16.8472 17.598C16.6151 17.2394 16.23 17.3717 15.9012 17.1498C15.7769 16.8297 16.0148 17.1114 16.1235 16.8968C15.7759 16.6022 15.4268 17.2404 15.3777 16.6767L15.4721 16.7111C15.0665 16.3538 15.73 16.7587 15.5041 16.399C15.147 16.1409 15.1532 16.2694 15.1528 16.4149C15.1524 16.5603 15.1581 16.7048 14.8225 16.5536C14.9649 16.4438 14.8511 16.3147 14.7474 16.1333C14.6457 16.1855 14.4581 16.1607 14.2629 16.1467C14.0692 16.1229 13.8606 16.1049 13.7185 16.1608C13.7787 16.1063 13.6531 15.9634 13.4351 15.89C13.6145 15.8119 13.68 15.9177 13.9285 16.0395C13.9887 15.985 14.1353 15.8998 14.0554 15.7839C13.7299 15.9692 13.0009 15.5882 12.7441 15.8976C12.8729 15.8377 12.6152 15.6984 12.646 15.6015C12.5066 15.6917 12.2948 15.6552 12.2217 15.6898L12.4004 15.7731C12.231 15.7072 12.0231 15.7112 11.8138 15.7628C11.6041 15.8303 11.3948 15.8819 11.1891 15.936L11.1909 15.8725C11.043 15.9136 10.9163 15.9859 10.7885 16.052C10.6593 16.1278 10.529 16.1976 10.3636 16.2101C10.4952 16.0927 10.3082 15.9603 10.2219 15.8992C10.0853 15.7108 10.7557 15.4349 10.3252 15.3947C10.0402 15.5763 9.99041 15.9135 9.55431 15.9881C9.4859 16.1611 9.81968 16.1166 9.91586 16.0875C9.68294 16.2411 9.00759 16.3029 8.91837 16.5205C9.05184 16.4692 9.12001 16.4797 9.12946 16.535C9.11298 16.5125 8.79405 17.0317 8.64692 17.0032C8.68478 16.8734 8.61437 16.9424 8.68084 16.7951C8.48053 16.7882 8.39591 16.8849 8.31385 16.978C8.21758 16.7479 8.70963 16.8154 8.58294 16.5368C8.24722 16.6069 8.08739 16.7259 7.99425 16.8651C7.93614 16.932 7.92059 17.0073 7.8881 17.0761C7.88378 17.1432 7.8712 17.1991 7.89234 17.2303C7.85548 17.2366 7.86479 17.2539 7.786 17.2737C7.7788 17.2687 7.78537 17.2517 7.74387 17.2493C7.62927 17.2816 7.64068 17.3113 7.66646 17.3511C7.67936 17.371 7.68865 17.3884 7.68417 17.4176C7.67609 17.4443 7.65421 17.4828 7.62128 17.5674C7.83436 17.6859 7.97892 18.0689 8.05571 18.296C8.0157 18.2839 7.94006 18.3221 7.89541 18.3013C8.2271 18.725 8.64992 18.776 9.06639 19.141L9.04137 19.161C9.36413 19.2923 9.67936 19.3427 10.0953 19.4644C9.98922 19.4541 9.94384 19.5029 9.92917 19.5465C10.4824 19.7869 10.9751 19.5257 11.6316 19.6125C11.8104 19.7336 12.2135 19.6141 12.1556 19.8484C12.7107 19.804 11.9169 19.5984 12.4516 19.5828L12.4003 19.579C13.0617 19.3615 13.7015 19.4796 14.3263 19.2147C14.4888 19.2596 14.7484 19.3353 15.0678 19.2807C15.1537 19.1364 15.3571 19.032 15.5328 18.9134C15.6931 18.9081 15.8549 18.8931 16.0786 18.8517C15.7648 18.7916 16.2363 18.7204 16.3154 18.6468C16.2019 18.8148 16.4174 18.8 16.1375 18.9743C16.77 18.9578 16.3977 18.4999 17.0362 18.4444L17.1936 18.5882C17.0665 18.5847 16.9768 18.6885 16.8571 18.728C16.9852 18.7377 17.3847 18.7073 17.5484 18.537C17.6165 18.4179 17.034 18.5238 17.5023 18.3046C17.5413 18.5698 17.8341 18.1562 18.1345 18.3419C18.1438 18.2297 18.3306 18.065 18.544 18.0379C18.5862 18.0623 18.555 18.0834 18.5418 18.1173C18.9292 18.0352 18.5951 17.8743 18.9368 17.7653C19.0246 17.8166 18.8007 18.0414 19.0035 18.0446C19.3254 18.0781 19.1519 17.896 19.4976 17.8653C19.3786 17.8351 19.4283 17.5895 19.6082 17.4955C19.6758 17.6135 19.7473 17.8099 19.4452 17.947C19.641 17.983 19.9544 17.9673 19.7305 18.1921C20.0646 17.8726 20.6057 17.6725 20.9628 17.3206C21.0506 17.372 21.1887 17.3294 21.3616 17.2682C21.5401 17.0923 21.534 16.7424 21.7383 16.7359C21.7967 16.6153 21.637 16.6427 21.602 16.5854L21.8849 16.3916C22.1134 16.3968 21.7248 16.694 21.891 16.7414L22.2129 16.6832C22.4432 16.4952 22.1591 16.4237 22.0471 16.3607C22.3766 16.3834 22.3528 16.0966 22.5875 16.1007C22.1914 16.3171 22.9141 16.3104 22.387 16.5365L22.6287 16.5078C22.6988 16.6222 22.3721 16.7635 22.369 16.8746C22.7246 16.7916 22.7505 16.6102 23.0917 16.517C23.0768 16.744 22.6882 16.6525 22.6146 16.9243C23.0606 16.8891 23.2786 16.6115 23.4677 16.7562C23.2926 16.8968 22.9281 16.8169 22.9132 17.0439C23.0492 17.1186 23.2197 17.3202 23.5721 17.0892C23.6678 16.9464 23.4046 16.9598 23.2281 17.0184L23.232 17.0968L23.1619 16.9824C23.3533 16.9559 23.5994 16.7684 23.7907 16.7041C23.839 16.7274 23.8866 16.7288 23.9321 16.7178C23.9265 16.703 23.9157 16.6953 23.9013 16.6852C23.9294 16.6835 23.9561 16.6916 23.9777 16.7069C24.1961 16.6347 24.4141 16.3572 24.6464 16.4028L24.2963 16.5923C24.3635 16.7262 24.6291 16.6713 24.9385 16.6689C25.1886 16.5977 25.7233 16.4525 25.574 16.282L25.3895 16.3674C25.4 16.0779 25.9053 16.3708 25.7581 16.083C25.6889 16.0664 25.6337 16.1138 25.5606 16.1484C25.7025 16.0167 25.6224 15.8628 25.3249 15.879L25.1878 16.149C24.8851 16.0427 24.8019 16.3509 24.4688 16.3257C24.4573 16.2581 24.3942 16.2405 24.4518 16.1895C24.7329 16.1509 25.0791 16.0127 25.208 15.861C24.8811 15.9644 25.1663 15.6911 24.9856 15.7252C25.4813 15.574 25.1076 15.3851 25.6453 15.2204L25.4988 15.473C25.9845 15.3741 25.9101 15.1055 26.0681 14.9205C26.2524 14.8889 26.5672 15.0848 26.8313 14.91C27.2679 14.9491 27.0961 14.6656 27.4075 14.5459C27.4011 14.7303 27.1026 14.8699 26.9263 14.9665C26.9519 14.9684 26.9703 14.9652 26.9913 14.9585C26.9739 14.9678 26.9566 14.9771 26.9546 15.0027C27.2406 15.0486 27.7347 14.5184 27.5915 14.919C27.0406 14.988 26.7125 15.3982 26.2291 15.6769C26.0356 15.691 25.8629 15.7901 25.7331 15.7522C25.721 15.9218 25.7498 16.0718 25.9617 16.1462C26.2291 15.8981 26.0996 15.8065 26.4943 15.6378C26.7804 15.592 27.1208 15.401 27.3697 15.2857L27.2729 15.1632C27.5907 14.9887 28.2662 14.8352 28.1985 14.6793C28.1748 14.7813 28.3311 14.7893 28.4737 14.7175L28.3074 14.8914C28.4272 14.9815 28.9349 14.882 28.8034 15.0373C29.2982 14.9179 29.2391 14.7573 29.7554 14.7448C30.1502 14.7057 30.224 14.121 30.9632 14.1368C31.1027 14.3057 30.4611 14.3428 30.788 14.4986C31.464 14.4588 31.6258 14.3142 31.9369 14.1187C31.7066 14.0475 31.9178 13.9703 31.9245 13.8616C32.0424 13.8857 32.1942 13.923 32.3265 13.9572C32.2221 14.1047 32.0952 13.8799 31.9037 14.0359C31.992 14.0714 32.0972 14.1134 32.1992 14.1371C32.2526 14.1532 32.3084 14.1658 32.373 14.1737C32.434 14.1791 32.513 14.1972 32.6222 14.2259C32.5506 14.2508 32.4682 14.2681 32.411 14.3031C32.6747 14.4034 33.115 14.3534 33.0738 14.5564C33.2854 14.555 33.5098 14.5735 33.7232 14.6381C34.0801 15.0797 34.3035 15.092 34.5505 15.4828C34.5411 15.3359 34.4776 15.2045 34.4252 15.0649L34.5477 15.319C34.5758 15.409 34.5915 15.5011 34.616 15.5886C34.8193 15.9268 34.6752 15.177 34.8935 15.8066C34.6143 15.4308 34.8687 16.4747 34.5664 16.4442C34.6 16.1603 34.5189 15.6495 34.3987 15.7965C34.441 15.9884 34.3632 16.3652 34.1948 16.6185C34.2412 16.5757 34.1538 16.989 34.1801 17.0129C34.4097 16.9325 34.6121 16.8221 34.8153 16.6798C34.8402 16.7514 34.817 16.8376 34.7682 16.9218C34.7071 17.0081 34.6132 17.0874 34.5193 17.1667C34.333 17.3155 34.1441 17.4679 34.1031 17.5793C34.1891 17.0841 34.0189 17.66 33.9255 17.5022C33.8738 17.7355 33.8463 18.0183 33.7761 18.2548C33.7131 18.4963 33.6317 18.741 33.4595 18.9538L33.4438 18.77C33.3326 19.1177 33.2258 18.9179 33.0539 19.3361C33.0024 19.5156 33.3022 19.0692 33.1898 19.3729C32.6006 20.068 31.7961 20.5944 30.9928 20.9057C30.1854 21.2304 29.3849 21.3926 28.6483 21.5028C28.6581 21.283 28.0235 21.4169 27.7708 21.3621C27.6339 21.4488 27.7695 21.5394 27.9157 21.4701C27.6197 21.6061 27.4778 21.6082 27.1705 21.6229C27.053 21.4533 26.795 21.4974 26.5756 21.5634C26.6648 21.4755 26.5413 21.3449 26.9484 21.4333C26.8386 21.3825 27.4716 21.1288 26.8974 21.1164C26.3689 21.3902 25.7385 21.5486 25.0914 21.5171C24.729 21.4495 24.5552 21.5424 24.3888 21.4192L24.4909 21.3511C24.3042 21.2945 24.2596 21.4033 24.1979 21.4676C23.8981 21.4335 24.076 21.2356 24.1782 21.1675C23.48 21.17 23.2783 21.4321 22.5644 21.3425C22.4175 21.2601 22.5643 21.0833 22.2369 21.0729C21.7114 21.068 21.2351 21.0926 20.769 21.1028C20.6553 21.1033 20.5354 21.1048 20.4156 21.1063L20.2445 21.104L20.1712 21.1007C20.0785 21.0945 19.9836 21.0759 19.8513 21.0416C19.7794 20.9907 19.6977 20.9383 19.6038 20.888C19.6246 20.973 19.6639 21.0548 19.7191 21.137C19.6124 21.1047 19.4981 21.0831 19.3859 21.0739L19.2993 21.0666C19.2906 21.0712 19.2999 21.0886 19.3009 21.0947C19.3077 21.1157 19.3155 21.1428 19.3269 21.1725C19.3476 21.2195 19.3729 21.2752 19.388 21.3453C19.4068 21.418 19.4321 21.4737 19.449 21.572C19.4668 21.6764 19.4847 21.7808 19.5036 21.8914C19.5212 22.0496 19.5319 22.2785 19.5399 22.4731C19.4907 22.3519 19.5013 22.1921 19.4232 22.1422C19.4543 22.3424 19.5807 22.5452 19.6583 22.7405C19.736 22.9359 19.8025 23.1394 19.7643 23.323C19.835 23.3299 19.5922 23.3145 19.5378 23.2922C19.5802 23.7433 19.8115 24.042 19.7972 24.5501C19.7283 24.6093 19.7219 24.3133 19.6099 24.4716L19.5918 24.7718C19.541 24.5307 19.412 24.9037 19.3948 24.8213C19.4181 24.773 19.4661 24.7206 19.4488 24.6382C19.3417 24.6218 19.2829 24.8878 19.1774 25.0292C19.1667 25.1511 19.2174 25.2626 19.2959 25.167C19.1696 25.3529 19.2073 25.1853 19.1027 25.1652C18.9902 25.4311 19.0477 25.4718 19.1863 25.5429C19.3011 25.5485 19.3011 25.5485 19.4305 25.381C19.2601 25.6599 19.1396 25.9903 18.9569 26.1417L19.0273 26.3319L18.9813 26.3587C19.0332 26.3846 19.0609 26.3989 19.0702 26.4162L19.0736 26.3809C19.1856 27.2753 18.6484 28.385 18.6692 29.3013C18.6005 29.528 18.5293 29.7583 18.4877 29.9772C18.4107 29.8039 18.4245 29.5708 18.4451 29.3586C18.457 29.1511 18.488 28.9625 18.4512 28.8771L18.4371 29.0344C18.3711 29.0741 18.5168 28.7615 18.3731 28.6976L18.2219 28.9037C18.0573 29.2353 18.54 29.1559 18.2216 29.4379C18.2447 28.963 18.0548 29.5898 17.9724 29.2561C17.8433 29.3699 17.9654 29.5481 18.0851 29.73C18.0871 29.6127 18.1148 29.4973 18.1467 29.4065C18.1868 29.4565 18.1602 29.578 18.1582 29.6954C18.1597 29.8152 18.1761 29.9294 18.2751 29.9725C18.261 30.0381 18.2356 30.0741 18.2106 30.0942C18.192 30.189 18.1139 30.2308 18.0444 30.268C18.0435 30.2998 18.0462 30.3341 18.0571 30.3796C18.1687 30.3668 18.3059 30.5773 18.2652 30.7644C18.2577 30.8131 18.1618 30.6588 18.0864 30.6433C18.0503 30.7095 18.024 30.7772 18.0002 30.8414L17.1948 30.5682C17.4987 30.3677 17.7153 30.0999 18.0255 29.8066C17.8559 29.9241 17.6842 29.8997 17.6243 29.9005C17.644 29.8497 17.6649 29.805 17.6979 29.7583C17.6635 29.7231 17.7004 29.6251 17.7319 29.5502L17.7397 29.7069C17.8197 29.6015 17.9069 29.5013 17.9013 29.3948C17.8696 29.3022 17.8591 29.2407 18.0623 29.1902C18.0334 29.2615 18.0392 29.3142 18.0538 29.3623C18.1308 29.2765 18.1908 29.184 18.2441 29.0706C18.2913 29.0878 18.4471 29.1117 18.614 28.9599L18.3509 28.8816C18.6934 28.6112 18.6172 28.6274 18.7383 28.4487C18.9533 28.4119 19.0387 28.1539 19.093 27.917C19.1607 27.6841 19.1813 27.472 19.3299 27.4908C19.2823 27.6191 19.2311 27.7448 19.1691 27.8629C19.4127 27.8085 19.3834 28.3762 19.5597 28.2797C19.5809 28.0896 19.6201 27.9122 19.6254 27.7216C19.2705 28.0858 19.519 27.155 19.2568 27.1746C19.3221 26.9832 19.5338 26.8901 19.4435 26.6211C19.5335 26.4634 19.5841 26.7962 19.6739 26.6006C19.6707 26.4526 19.5273 26.4645 19.5977 26.2659C19.6203 26.2874 19.6755 26.3696 19.7179 26.3402C19.8071 26.1226 19.6372 26.1644 19.6212 25.9047L19.6076 25.9545C19.4646 25.8209 19.6821 25.6509 19.7398 25.5999C19.7045 25.3752 19.6201 25.1589 19.5526 24.9492C19.6507 25.0241 19.7771 25.3565 19.8541 25.141C19.9112 25.1976 19.9331 25.2887 19.9315 25.3901C19.9237 25.4926 19.8924 25.6054 19.8749 25.7064C19.8374 25.912 19.8094 26.0811 20.0133 26.0905C20.157 25.8952 19.8954 25.586 20.0996 25.4119C19.919 25.3543 19.8946 25.0456 19.8119 24.8574L19.8649 24.7978C19.8176 24.3918 19.5362 24.835 19.5226 24.4043C19.5694 24.3457 19.7277 24.4577 19.68 24.1972C19.6311 24.1518 19.5774 24.0598 19.498 24.0576L19.485 24.1294C19.3748 24.2241 19.3516 23.8298 19.3078 23.6476C19.4121 23.7215 19.5268 23.7271 19.5112 23.5433C19.5889 23.8682 19.8885 23.7348 19.9451 24.0286C19.8438 23.9353 19.6716 23.6676 19.6232 23.8655C19.5833 24.1126 19.8258 24.2734 19.9188 24.5768L19.9097 24.376C20.1889 24.2713 20.2013 24.8793 20.4716 24.9627C20.467 24.8623 20.4447 24.7871 20.4913 24.7823C20.4258 24.8061 20.5173 25.1192 20.5129 25.278L20.3729 25.125C20.1802 25.5878 20.4836 25.4948 20.3709 25.9819C20.2698 25.9265 20.2351 25.2434 20.1158 25.6178C20.2562 25.6254 20.1269 25.9225 20.2295 25.9682C20.1572 26.0627 20.0618 26.1518 19.9822 26.2412C19.9956 26.3749 20.0147 26.5233 20.0291 26.6631C20.0374 26.8039 20.0497 26.9314 20.0594 27.0246C19.9916 26.8687 20.0173 26.7789 19.9705 26.6163C19.9409 26.9785 19.5723 27.0416 19.6801 27.3392C19.7209 27.2817 19.7713 27.2256 19.8085 27.1655C19.7005 27.44 19.6816 27.5508 19.6934 27.6941C19.7699 27.8454 19.9514 27.65 20.0353 27.4934C19.9749 27.6397 19.7639 27.8844 19.8994 27.9371C19.74 28.0402 19.7326 28.2185 19.7852 28.3043C19.6043 28.5218 19.6578 28.3546 19.5486 28.3258C19.5163 28.5621 19.1624 28.9324 19.3936 28.9719C19.4809 28.9095 19.5616 28.6049 19.6321 28.7952C19.4169 28.7941 19.6333 28.9688 19.4947 29.119C19.5068 28.7281 19.1347 29.3987 19.1427 29.1128C18.9179 29.3694 18.9978 29.4853 18.8948 29.7147L18.7772 29.6369C18.7239 29.7503 18.6634 29.8586 18.6004 29.9706C18.4168 29.9324 18.3973 29.6703 18.134 29.905C18.121 30.2359 18.414 30.3407 18.1769 30.7289L18.088 30.5419C17.9747 30.6182 17.7349 30.9721 17.8617 31.0294C17.9928 31.0197 18.1421 30.9688 18.2748 30.8576L18.2309 30.8967C18.1372 31.1435 18.6862 30.7493 18.3543 31.119C18.2994 30.983 18.1016 31.0643 17.8818 31.1841L16.757 31.7969L17.0739 30.9145C17.1574 30.6821 17.2331 30.4226 17.3161 30.2978C17.2549 30.1249 17.2109 29.7752 17.1234 29.6701C17.0558 29.6816 16.9754 29.9325 16.8642 29.7998C16.9986 29.4954 17.0085 29.2757 17.0039 29.0457C16.9993 28.8157 17.0189 28.5974 17.2053 28.3569C17.2218 28.3794 17.2644 28.3879 17.2883 28.2321L17.3767 28.1758C17.3732 28.0816 17.3799 27.973 17.4236 27.896L17.5596 27.4902C17.5975 27.4901 17.5547 27.4057 17.5241 27.3193C17.5037 27.348 17.4869 27.3794 17.4672 27.4302L17.5241 27.3193C17.5002 27.2538 17.4861 27.1899 17.5152 27.1564C17.3836 27.0525 17.6902 26.8862 17.7787 26.7383C17.7681 26.7686 17.7668 26.8163 17.7684 26.8444C17.9092 26.5769 17.6572 26.3608 17.9114 26.1467L17.9794 26.1192C17.9586 26.1639 17.9414 26.2111 17.9568 26.2274C17.974 26.1802 17.9898 26.1427 18.0055 26.1053C18.0649 25.9908 18.0526 25.9929 18.0221 26.036C18.0734 25.8186 17.9751 25.8355 18.0613 25.5078L17.9493 25.666C17.9602 25.582 17.9738 25.5322 17.987 25.4984C17.9748 25.2792 18.0043 24.7494 18.1588 24.4701C18.0171 24.1593 17.9224 24.1786 17.9202 23.7776L18.0931 23.846L18.1896 23.4122C18.2636 23.4754 18.3478 23.265 18.3676 22.993C18.3686 22.9991 18.3661 23.0027 18.3697 23.0052C18.4774 22.9141 18.5004 22.7901 18.4718 22.678C18.437 22.567 18.3736 22.4735 18.3385 22.4163C18.2865 22.3525 18.1916 22.2044 18.2524 22.1718C18.0877 22.1147 17.9607 21.7602 17.801 21.4367C17.7949 21.4377 17.7949 21.4377 17.7888 21.4388C17.7763 21.403 17.7833 21.3702 17.7364 21.2992C17.7298 21.3161 17.7304 21.3381 17.7141 21.3536C17.673 21.2057 17.547 21.0787 17.4178 20.9332C17.2922 20.7904 17.1527 20.6214 17.1402 20.456C17.0207 20.1825 17.1857 20.3155 17.3217 20.3902C17.4624 20.4736 17.5856 20.5284 17.4709 20.3014L17.4185 20.2535C17.3762 20.1912 17.3375 20.1315 17.3086 20.0732C17.3772 20.0678 17.3727 20.097 17.4144 20.1373C17.4081 20.1004 17.4197 20.0763 17.435 20.0547L17.4554 20.0259C17.4579 20.0223 17.4569 20.0162 17.4692 20.0141L17.5132 20.0129C17.6197 20.0073 17.6827 19.9871 17.6336 19.9038C17.5163 19.9017 17.421 19.8991 17.3293 19.8989L17.2658 19.8972L17.2361 19.9086L17.1794 19.9278C17.1016 19.9537 17.0167 19.9746 16.9129 20.0144C16.9109 20.0401 16.9492 20.1157 16.9977 20.2149C16.921 20.1174 16.8453 20.026 16.7717 19.9469C16.7846 19.8372 16.7663 19.7487 16.7746 19.6682C16.7812 19.6513 16.7709 19.6278 16.7995 19.6103C16.8255 19.5963 16.8542 19.5788 16.89 19.5663C16.958 19.5389 17.0444 19.5083 17.1662 19.4811C17.1491 19.4366 17.0345 19.4689 16.8967 19.4577C17.2047 19.3734 17.5762 19.4205 17.5126 19.5104C17.7957 19.4841 17.7038 19.3165 18.0933 19.2467L17.9105 19.0093C18.0317 18.9601 18.1708 18.9236 18.3182 18.8984C18.4764 18.8808 18.6429 18.8745 18.8078 18.8779C19.1321 18.8698 19.4509 18.9227 19.6984 18.9468C19.1216 18.938 18.7691 19.169 18.444 19.2088C18.678 19.4122 18.3946 19.4923 18.0424 19.5399C17.6937 19.59 17.2304 19.6345 17.2061 19.7145C17.5909 19.7278 17.0805 19.9225 17.6908 19.8687C17.8207 19.6853 18.0715 19.7656 18.3847 19.712C18.673 19.8081 18.3247 19.9341 18.8623 19.8611C18.5733 19.8347 18.9943 19.5983 18.5563 19.6985C19.2262 19.4385 19.5098 19.5259 20.3172 19.4225C19.6283 19.4424 20.6226 19.2122 20.2026 19.1039C20.269 19.3075 18.9679 19.2772 19.9613 19.338C19.7345 19.361 19.5092 19.3743 19.2931 19.4049C19.1641 19.2974 19.9722 19.254 19.2787 19.1355C19.5811 19.0743 19.805 19.0708 20.017 19.0535C20.1137 19.0464 20.2459 19.0428 20.316 19.0276C20.3861 19.0125 20.4638 18.9865 20.559 18.9513C20.4843 19.0873 20.8855 19.123 20.9357 19.2503C21.1011 19.2378 21.2614 19.103 21.434 19.2251L21.169 19.3021C21.4334 19.3327 21.4464 19.4822 21.671 19.5387C21.822 19.516 21.8467 19.4201 21.7828 19.3425C22.1524 19.4152 22.528 19.3193 22.9111 19.4339C22.4468 19.3806 22.8116 19.628 22.4334 19.5979L22.713 19.6986C23.2727 19.5333 24.1028 19.3597 24.2527 19.0717C24.9007 18.9798 24.7062 19.4682 25.4763 19.1658C25.3678 19.197 25.5406 19.3571 25.4825 19.4239C25.6081 19.4372 25.8255 19.4885 25.9615 19.4337L25.6699 19.2813C26.03 19.1691 26.53 19.3016 26.9167 19.2892C26.8385 19.331 26.969 19.4288 26.7352 19.4846C26.7382 19.5948 27.0112 19.5828 27.1346 19.5838C27.4103 19.4766 27.2148 19.2951 27.5207 19.1985C28.3612 19.178 29.1567 19.0609 29.8456 18.8197C30.1842 18.6923 30.4904 18.5419 30.7595 18.3599C31.024 18.1693 31.2465 17.9542 31.4477 17.708C31.5347 17.5698 31.627 17.4624 31.72 17.2852L31.8588 17.0434L31.9603 16.8237L32.0146 16.7164L32.0161 16.7067C32.015 16.7005 32.0201 16.6934 32.0191 16.6872C32.0231 16.6739 32.0246 16.6641 32.0189 16.6493C32.0111 16.6222 31.9921 16.6033 31.9644 16.5891C31.9417 16.5677 31.477 16.5302 31.1026 16.5405L31.1002 16.4525C29.1041 16.8319 26.552 17.3791 24.2793 18.1188L24.3256 18.1678C23.5035 18.0556 24.074 18.7293 23.1638 18.6195C22.8111 19.1634 21.9436 19.1 21.4054 19.5936L21.3041 19.5003C20.9592 19.9417 20.2176 19.6166 19.7394 20.0177Z" fill="#E0E1DC"/>
<path d="M17.3907 28.1977L17.3437 28.2474C17.422 28.4214 17.3975 28.3388 17.3907 28.1977Z" fill="#E0E1DC"/>
<path d="M18.3588 24.3721C18.2433 24.3982 18.1839 24.5126 18.1476 24.6325C18.187 24.6226 18.2443 24.6254 18.2932 24.5792C18.1615 24.8796 18.1885 25.0928 18.0482 25.4357C18.1121 25.4217 18.1864 25.5605 18.1873 25.1783C18.0272 25.313 18.5562 24.5657 18.3588 24.3721Z" fill="#E0E1DC"/>
<path d="M17.9386 29.5172C17.9378 29.4912 17.9299 29.4664 17.9219 29.4416L17.9386 29.5172Z" fill="#E0E1DC"/>
<path d="M18.0613 30.2776C18.0451 30.3312 18.0169 30.371 17.9733 30.3943C17.9602 30.3362 18.0064 30.3092 18.0613 30.2776Z" fill="#E0E1DC"/>
<path d="M19.0732 26.4805C19.0569 26.6258 19.0306 26.8235 18.921 26.8866C18.9888 26.6533 19.0458 26.5422 19.0732 26.4805Z" fill="#E0E1DC"/>
<path d="M34.1758 16.6915C34.1707 16.6987 34.1682 16.7022 34.1617 16.719C34.2794 16.8397 34.0704 17.0822 34.0954 17.2282C33.9514 17.4845 33.9581 17.1577 33.9706 17.0115C33.9973 16.9663 34.0938 16.8527 34.1758 16.6915Z" fill="#E0E1DC"/>
<path d="M23.5698 16.9626C23.6189 16.9162 23.7173 16.8994 23.8071 16.8872C23.7929 16.915 23.8232 16.9256 23.8618 16.9475C23.8495 16.9496 23.8372 16.9518 23.831 16.9528C23.9046 16.9941 23.8584 17.1128 23.8706 17.2026C23.478 17.3521 23.6428 17.2415 23.5698 16.9626Z" fill="#E0E1DC"/>
<path d="M27.1295 14.9342C27.0875 14.9477 27.0542 14.9566 27.0282 14.9705C27.0553 14.9627 27.085 14.9513 27.1295 14.9342Z" fill="#E0E1DC"/>
<path d="M23.5964 16.9435C23.5934 16.963 23.7053 16.9502 23.8393 16.9368C23.8033 16.9113 23.7298 16.908 23.5964 16.9435Z" fill="#E0E1DC"/>
<path d="M20.2452 23.9597L20.2986 24.0678L20.3263 23.8223C20.144 23.4606 20.0147 23.4827 19.8456 23.4388C19.9704 23.5758 20.0059 23.7092 20.0522 23.8502C20.0898 23.9958 20.1321 24.1502 20.1751 24.3646C20.2084 24.2258 20.233 24.0917 20.2452 23.9597Z" fill="#E0E1DC"/>
<path d="M19.3508 24.3411C19.3164 24.3821 19.2347 24.482 19.2334 24.53L19.3285 24.5647L19.3508 24.3411Z" fill="#E0E1DC"/>
<path d="M18.3457 27.9866C18.415 27.9042 18.4806 27.8192 18.5462 27.7343C18.5135 27.618 18.2482 27.8847 18.3457 27.9866Z" fill="#E0E1DC"/>
<path d="M20.3257 27.1369L20.2827 26.9226C20.1658 27.0724 20.1191 27.299 20.2005 27.3674C20.2133 27.1277 20.2726 27.3266 20.3257 27.1369Z" fill="#E0E1DC"/>
<path d="M17.9102 28.6985C18.0007 28.8762 17.6735 28.9259 17.7737 29.0671C17.7799 28.9742 18.0456 28.8052 17.9102 28.6985Z" fill="#E0E1DC"/>
<path d="M19.4136 29.33C19.6082 29.3124 19.5823 29.0691 19.7258 28.8814C19.63 29.0547 19.3552 29.2083 19.4136 29.33Z" fill="#E0E1DC"/>
<path d="M17.2645 30.404C17.1825 30.3135 17.2785 30.2083 17.4003 30.1051C17.3959 30.1724 17.4188 30.2319 17.3862 30.3008C17.4831 30.0339 17.5088 30.0359 17.5978 29.8337C17.3986 29.947 17.1551 30.1534 17.058 30.0306C17.0491 30.2191 17.0528 30.4814 17.2645 30.404Z" fill="#E0E1DC"/>
<path d="M19.152 29.8169C19.2953 29.6826 19.4516 29.6433 19.5712 29.444C19.4756 29.4353 19.3313 29.4349 19.2022 29.6703L19.135 29.5155C18.916 29.6659 19.3444 29.5299 19.152 29.8169Z" fill="#E0E1DC"/>
<path d="M18.4291 30.0952L18.3528 30.1877C18.4495 30.4187 18.4074 30.6926 18.5787 30.8029L16.7726 30.1913L16.7715 30.1852L16.769 30.1888L18.5812 30.7993C18.5807 30.555 18.4888 30.2406 18.4291 30.0952Z" fill="#E0E1DC"/>
<path d="M18.3921 30.4496L18.5304 30.6022C18.7109 30.4014 18.4654 30.5781 18.4857 30.472C18.5551 30.4281 18.6369 30.3436 18.6412 30.2755C18.4813 30.5401 18.4985 30.1909 18.3921 30.4496Z" fill="#E0E1DC"/>
<path d="M18.0332 31.2571L18.0281 31.2643L17.3959 32.5787L16.9968 30.9138L16.9109 30.5602L16.6926 30.8611C16.6978 30.8919 16.7057 30.9191 16.7078 30.9315L17.482 32.9704L18.2378 31.4506C18.3802 31.1882 18.1285 31.4058 18.0332 31.2571Z" fill="#E0E1DC"/>
<path d="M17.1177 30.4861L17.1551 30.4484C17.0522 30.2684 16.9747 30.0903 16.8926 29.9036C16.9829 30.23 16.9642 30.2489 17.1177 30.4861Z" fill="#E0E1DC"/>
<path d="M19.5981 24.7814C19.5249 24.7078 19.3628 24.9907 19.4807 24.878C19.5477 24.9527 19.7228 24.5591 19.5981 24.7814Z" fill="#E0E1DC"/>
<path d="M17.7964 25.5842C17.8953 25.4671 17.8791 25.0064 17.8555 24.8132C17.8564 25.0385 17.6812 25.5883 17.7964 25.5842Z" fill="#E0E1DC"/>
<path d="M17.8701 24.7596C17.8696 24.7792 17.8761 24.8172 17.8794 24.8596C17.8805 24.8204 17.8785 24.7855 17.8701 24.7596Z" fill="#E0E1DC"/>
<path d="M21.7859 18.9152C21.8086 18.9146 21.8339 18.9102 21.8544 18.897C21.8291 18.9013 21.8112 18.9109 21.7859 18.9152Z" fill="#E0E1DC"/>
<path d="M21.5776 18.9281C21.4383 18.893 21.1615 18.9248 21.1086 19.0145C21.3301 18.9859 21.5225 18.9685 21.7825 18.893C21.6901 18.8964 21.5757 18.826 21.5776 18.9281Z" fill="#E0E1DC"/>
<path d="M23.5407 19.1302C23.4371 19.1766 23.2965 19.1369 23.3274 19.224C23.3817 19.2625 23.6019 19.1898 23.5407 19.1302Z" fill="#E0E1DC"/>
<path d="M33.9106 14.5833C33.7926 14.4733 33.6892 14.3948 33.6132 14.3675C33.5322 14.3472 33.4896 14.37 33.4924 14.4409C33.7897 14.6195 33.6669 14.4637 33.9106 14.5833Z" fill="#E0E1DC"/>
<path d="M33.0693 14.3079L33.054 14.2371L32.873 14.0927C32.9426 14.1637 33.0111 14.2285 33.0693 14.3079Z" fill="#E0E1DC"/>
<path d="M31.303 13.9169C31.313 13.8943 31.354 13.87 31.4 13.8552C31.3068 13.8781 31.227 13.8986 31.303 13.9169Z" fill="#E0E1DC"/>
<path d="M31.4147 13.8486C31.3944 13.8521 31.3639 13.8573 31.3435 13.8608L31.4147 13.8486Z" fill="#E0E1DC"/>
<path d="M31.5204 13.8824L31.5421 13.8109C31.513 13.8193 31.4603 13.8283 31.4153 13.8428C31.451 13.8333 31.5005 13.8451 31.5204 13.8824Z" fill="#E0E1DC"/>
<path d="M30.8466 13.9121C30.9444 13.965 31.0396 14.0216 31.1384 14.0807C31.4305 13.9737 30.7951 14 31.0781 13.7838C30.9936 13.8267 30.9188 13.8712 30.8466 13.9121Z" fill="#E0E1DC"/>
<path d="M29.9092 14.0641C29.6458 14.0457 29.3412 14.3993 29.1624 14.2077C28.4948 14.4616 29.3902 14.537 28.633 14.7872C29.3844 14.7443 28.9184 14.2844 29.6097 14.2804C29.256 14.198 29.8077 14.1386 29.9092 14.0641Z" fill="#E0E1DC"/>
<path d="M30.0494 14.4198C30.0737 14.3008 29.7555 14.3425 29.669 14.4339C29.7641 14.4304 29.9456 14.5588 30.0494 14.4198Z" fill="#E0E1DC"/>
<path d="M28.5278 14.4073L28.2984 14.3701L28.2616 14.4528L28.5278 14.4073Z" fill="#E0E1DC"/>
<path d="M27.7738 14.562L27.9423 14.3847C27.8843 14.4515 27.5833 14.5188 27.7738 14.562Z" fill="#E0E1DC"/>
<path d="M26.6573 14.7125C26.4604 14.724 26.379 15.06 26.7466 14.8835L26.6546 14.8992C26.6646 14.847 26.4239 14.8061 26.6573 14.7125Z" fill="#E0E1DC"/>
<path d="M24.3568 15.9224C24.4818 15.885 24.6207 15.7971 24.5737 15.7474L24.2513 15.9244L24.3568 15.9224Z" fill="#E0E1DC"/>
<path d="M24.6612 16.5899C24.8326 16.7221 24.9696 16.4674 25.2138 16.451C24.9502 16.5024 24.9696 16.4674 24.6612 16.5899Z" fill="#E0E1DC"/>
<path d="M23.893 15.8168C23.9613 15.7126 24.1194 15.7047 24.2124 15.6888C24.1309 15.6038 23.907 15.7123 23.893 15.8168Z" fill="#E0E1DC"/>
<path d="M23.3614 16.0726C23.2234 16.0454 23.3496 15.9667 23.2457 15.9527C22.9715 15.9647 22.7241 16.0769 22.628 16.2203C22.7187 16.2682 22.8799 16.4311 22.8187 16.5559C23.1671 16.3471 23.2529 15.9578 23.5268 16.13L23.7348 15.7135C23.4162 15.7807 23.5792 16.0099 23.3614 16.0726Z" fill="#E0E1DC"/>
<path d="M24.3446 16.3525L24.1052 16.3238C24.18 16.4092 24.0335 16.4786 23.9409 16.5483C24.0701 16.7479 24.2329 16.4033 24.3446 16.3525Z" fill="#E0E1DC"/>
<path d="M21.3839 17.0077L20.9896 17.2209L21.128 17.1782L21.3839 17.0077Z" fill="#E0E1DC"/>
<path d="M21.0759 17.025L21.0392 16.9606L20.7627 17.2039L21.0759 17.025Z" fill="#E0E1DC"/>
<path d="M20.6387 17.1473L20.6883 17.1388L20.9145 16.9885L20.6387 17.1473Z" fill="#E0E1DC"/>
<path d="M19.7325 17.4207L19.8455 17.4844C19.9434 17.4229 20.1896 17.4446 20.125 17.3281C20.0426 17.406 19.8211 17.4726 19.7325 17.4207Z" fill="#E0E1DC"/>
<path d="M17.5889 20.7699C17.6505 20.6829 17.5863 20.6429 17.5185 20.6004L17.4378 20.799C17.479 20.7792 17.5491 20.7417 17.5889 20.7699Z" fill="#E0E1DC"/>
<path d="M16.9893 20.6711L16.7107 20.95C17.1026 20.8703 17.1096 20.7075 17.434 20.5855C17.2789 20.5676 17.1216 20.7593 16.928 20.7576L16.9893 20.6711Z" fill="#E0E1DC"/>
<path d="M10.0439 21.4727C10.0899 21.3543 10.0065 21.3654 10.2842 21.3084C10.099 21.3338 9.92452 21.3289 9.74327 21.303C9.56307 21.2833 9.37464 21.2524 9.15747 21.2012C9.21467 21.2956 8.85311 21.3417 9.02867 21.3527C9.20169 21.3673 9.36706 21.3927 9.53333 21.3863L9.4446 21.4584C9.77526 21.6007 9.69286 21.359 10.0439 21.4727Z" fill="#E0E1DC"/>
<path d="M16.6259 17.4716C16.5549 17.4869 16.5516 17.5611 16.5483 17.6352C16.7697 17.7701 16.5796 17.4443 16.6259 17.4716Z" fill="#E0E1DC"/>
</svg>
