<svg width="37" height="38" viewBox="0 0 37 38" fill="none" xmlns="http://www.w3.org/2000/svg">
<path d="M18.1019 21.1335C17.8867 21.1181 18.0824 21.2031 18.188 21.3313L18.1019 21.1335Z" fill="#E0E1DC"/>
<path d="M18.1601 21.3306L18.2278 21.4822C18.2294 21.425 18.1985 21.3771 18.1601 21.3306Z" fill="#E0E1DC"/>
<path d="M18.7422 22.5697C18.4897 22.3496 18.4649 21.9414 18.1906 21.8775C18.2336 22.2097 18.5166 22.5875 18.7422 22.5697Z" fill="#E0E1DC"/>
<path d="M18.6261 22.0956L18.5108 22.1153L18.8004 22.2786L18.6261 22.0956Z" fill="#E0E1DC"/>
<path d="M18.6562 21.8418L18.6385 21.9003L18.9549 22.2307L18.6562 21.8418Z" fill="#E0E1DC"/>
<path d="M19.0835 23.5535L18.9559 23.2738C19.0067 22.9429 19.2141 23.3856 19.2486 23.1614C19.1116 22.7863 18.9004 23.1517 18.7552 22.6879C18.6975 22.7359 18.7758 22.9096 18.8422 23.075C18.9019 23.2415 18.9295 23.4031 18.8088 23.4064C18.8633 23.806 18.9367 23.3846 19.0835 23.5535Z" fill="#E0E1DC"/>
<path d="M17.2082 21.2425C17.212 21.2177 17.208 21.1942 17.2085 21.1739C17.1845 21.1982 17.1728 21.2244 17.2082 21.2425Z" fill="#E0E1DC"/>
<path d="M21.4018 18.8557C21.476 18.8846 21.548 18.9 21.62 18.9155C21.6019 18.8908 21.5731 18.8646 21.5388 18.8462L21.4018 18.8557Z" fill="#E0E1DC"/>
<path d="M17.9102 24.5166C17.8732 24.5856 17.8459 24.6494 17.8213 24.7093C17.8573 24.6753 17.8925 24.6171 17.9102 24.5166Z" fill="#E0E1DC"/>
<path d="M25.4018 15.5575C25.4094 15.5378 25.4158 15.511 25.4068 15.4795C25.4068 15.4795 25.3997 15.4808 25.3955 15.4778L25.3577 15.5577L25.4018 15.5575Z" fill="#E0E1DC"/>
<path d="M27.2513 18.8886C27.3287 18.8855 27.4023 18.8797 27.467 18.8618C27.3413 18.8596 27.282 18.8698 27.2513 18.8886Z" fill="#E0E1DC"/>
<path d="M17.5205 26.3511C17.5295 26.3212 17.5357 26.2953 17.5391 26.2734C17.5248 26.2936 17.506 26.3288 17.4912 26.3667L17.5205 26.3511Z" fill="#E0E1DC"/>
<path d="M19.3787 18.5074C19.5133 18.5192 19.6371 18.5294 19.7344 18.5267C19.6133 18.5126 19.4934 18.5052 19.3787 18.5074Z" fill="#E0E1DC"/>
<path d="M18.6137 28.0281C18.5595 28.0963 18.5441 28.1683 18.5422 28.238C18.5942 28.1979 18.6282 28.1331 18.6137 28.0281Z" fill="#E0E1DC"/>
<path d="M17.8122 29.6245L17.8202 29.6132C17.7784 29.6005 17.78 29.6101 17.8122 29.6245Z" fill="#E0E1DC"/>
<path d="M17.0627 30.5524L17.0731 30.5257C17.0424 30.521 17.0287 30.5284 17.0627 30.5524Z" fill="#E0E1DC"/>
<path d="M18.4962 28.2132C18.35 28.311 18.0751 28.2229 18.2808 28.5342L18.3335 28.5182C18.2243 28.5889 18.2454 28.7932 18.1937 28.9164C18.2285 28.9174 18.2566 28.9195 18.2863 28.911C18.3215 28.853 18.3745 28.7781 18.4594 28.6665C18.5846 28.548 18.4941 28.3833 18.4962 28.2132Z" fill="#E0E1DC"/>
<path d="M17.2396 21.243C17.1628 21.269 17.2989 21.4894 17.2396 21.243V21.243Z" fill="#E0E1DC"/>
<path d="M17.9466 22.9493C17.9525 22.8951 17.9511 22.8422 17.957 22.7881C17.9437 22.8435 17.9335 22.8946 17.9466 22.9493Z" fill="#E0E1DC"/>
<path d="M16.6474 28.8472C16.6566 28.8341 16.6659 28.8211 16.6797 28.8016C16.6295 28.7758 16.626 28.8222 16.6474 28.8472Z" fill="#E0E1DC"/>
<path d="M17.9492 22.6504L17.948 22.7952C17.955 22.7495 17.9693 22.7026 17.9492 22.6504Z" fill="#E0E1DC"/>
<path d="M17.2745 27.0637C17.282 27.0532 17.2895 27.0426 17.2969 27.0321C17.2842 27.0389 17.2767 27.0495 17.2745 27.0637Z" fill="#E0E1DC"/>
<path d="M6.76264 16.3788C6.69687 16.4383 6.62223 16.3855 6.53779 16.3965C6.49581 16.6558 6.85048 16.2463 6.72128 16.5205C6.78101 16.4861 6.8345 16.4355 6.88407 16.3821L6.68878 16.2498C6.57132 16.3908 6.81252 16.2666 6.76264 16.3788Z" fill="#E0E1DC"/>
<path d="M23.7672 15.6686L23.8211 15.6662C23.7549 15.5961 23.7756 15.5586 23.5728 15.5831C23.4587 15.7688 23.7774 15.867 23.5515 16.1126C23.5997 16.0772 23.6843 16.0559 23.7672 16.0451C23.6092 15.9738 23.6766 15.813 23.7672 15.6686Z" fill="#E0E1DC"/>
<path d="M23.7696 16.0459C23.7735 16.0486 23.7773 16.0513 23.7812 16.054C23.8005 16.0677 23.8186 16.0748 23.8406 16.0845C23.879 16.0712 23.9251 16.0633 23.9592 16.0643C23.9179 16.0408 23.8459 16.0362 23.7696 16.0459Z" fill="#E0E1DC"/>
<path d="M6.60411 17.8169C6.61843 17.8541 6.63464 17.8792 6.64764 17.9087C6.65252 17.8443 6.6299 17.8283 6.60411 17.8169Z" fill="#E0E1DC"/>
<path d="M26.9261 21.4125C26.8614 21.4343 26.7967 21.4562 26.746 21.4757C26.8452 21.4659 26.8947 21.4394 26.9261 21.4125Z" fill="#E0E1DC"/>
<path d="M26.642 14.9616C26.6961 14.9631 26.7449 14.9547 26.7979 14.9492C26.8246 14.9375 26.8513 14.9257 26.8891 14.9157L26.642 14.9616Z" fill="#E0E1DC"/>
<path d="M18.0648 20.0651C18.0984 19.8172 17.9926 20.1085 17.7509 20.0496L17.5975 20.2246C17.7812 20.207 17.9282 20.1161 18.0648 20.0651Z" fill="#E0E1DC"/>
<path d="M6.89759 16.4117C6.89527 16.3981 6.88734 16.3925 6.89062 16.3711C6.88502 16.379 6.88502 16.379 6.87382 16.3948L6.89759 16.4117Z" fill="#E0E1DC"/>
<path d="M12.2701 21.5538C12.2342 21.5461 12.2022 21.5412 12.1663 21.5335C12.186 21.5474 12.218 21.5523 12.2701 21.5538Z" fill="#E0E1DC"/>
<path d="M24.8854 15.7786L25.5854 15.5593L25.3648 15.5731C25.3053 15.7067 24.9403 15.6182 24.8854 15.7786Z" fill="#E0E1DC"/>
<path d="M19.4038 19.7058C19.1633 19.6537 19.0289 19.5349 18.6853 19.77C18.6329 19.8274 18.8145 19.9795 18.5359 19.9477L18.6954 19.6473C18.3343 19.6987 17.9617 19.8246 17.7403 20.0458L17.3216 20.145L17.4265 20.0303C17.1063 20.0989 16.7689 20.0667 16.5437 20.3265C16.6249 20.1951 16.7621 19.9261 16.4644 20.0047L16.2456 20.1805C16.1984 20.1471 16.3083 20.0418 15.9046 20.2284C16.0451 20.322 15.5782 20.4225 15.4353 20.2741C15.5194 20.4222 15.8091 20.4384 15.862 20.6057C15.4082 20.6211 15.6184 21.0415 15.1909 21.0282L15.2092 20.8522C14.8828 20.9046 14.6705 21.0377 14.4728 21.1752L14.4859 21.09C13.8843 21.1307 13.5229 21.3827 13.066 21.1773L12.7557 21.3238C12.8343 21.2377 12.7939 21.2032 12.6419 21.1842C12.3916 21.1959 12.029 21.4412 12.1728 21.5134C11.325 21.368 11.1036 21.7309 10.1252 21.6701C10.1664 21.4867 9.73158 21.5922 9.90456 21.4312L9.60408 21.5138C9.6511 21.5057 9.61223 21.4605 9.59535 21.4427C9.49259 21.3876 9.43741 21.4489 9.38499 21.5063L9.4112 21.4776L8.99068 21.4044L8.9583 21.5586C8.86226 21.5024 8.76737 21.4529 8.67296 21.3861C8.8969 21.2199 9.33627 21.3833 9.43632 21.2002C9.30112 21.1576 8.8496 20.903 8.41002 21.0819C8.14863 21.0091 7.88151 20.9027 7.62504 20.7979C7.6173 20.692 7.6614 20.7882 7.42163 20.6598C7.23397 20.5329 7.1873 20.6239 6.91509 20.5079C7.01095 20.5226 7.0575 20.532 7.09551 20.5116C6.79885 20.3135 6.65045 20.4564 6.36842 20.4044C6.53412 20.504 6.71518 20.5317 6.85989 20.5692C6.87973 20.6246 6.83319 20.6153 6.8445 20.641L7.27844 20.712C7.22439 20.78 7.21666 20.6741 7.42351 20.8324C7.15867 20.7394 7.09524 20.7122 6.79682 20.625C6.59759 20.6729 6.90047 20.8873 6.67351 20.8742C5.90311 20.5946 5.28844 20.0533 4.89268 19.4779C4.68137 19.1925 4.55232 18.8827 4.43227 18.5852C4.32844 18.2814 4.26164 17.9921 4.20321 17.6909C4.18349 17.5353 4.15822 17.3875 4.14801 17.2267C4.14614 17.0542 4.13036 16.9013 4.14751 16.7186C4.17786 16.3504 4.25916 15.9769 4.44372 15.6411C4.62549 15.3092 4.8992 14.9893 5.20013 14.7476C5.49156 14.5111 5.79661 14.3137 6.09494 14.1175C6.43905 14.1485 7.17443 14.1022 7.381 13.9355L7.28399 13.914C7.55986 13.7078 7.78675 13.9629 8.01754 13.6952L8.25207 13.3888C8.42346 13.3803 8.84112 13.3157 8.7766 13.4236C8.89111 13.3452 9.09381 13.3174 9.25946 13.2753C9.43134 13.2493 9.57175 13.2011 9.57727 13.0515C9.88139 13.0306 10.1195 13.0279 10.3594 13.056C10.5981 13.0774 10.8284 13.0691 11.1164 13.0959C11.0773 13.1095 11.0684 13.1387 11.0684 13.1387C11.1843 13.2502 11.3614 12.9917 11.5038 13.1575C11.4127 13.2111 10.9538 13.1756 11.3179 13.3034C11.4676 13.2087 11.7367 13.2456 11.9679 13.3443C12.2008 13.4324 12.3991 13.561 12.4426 13.633C12.5866 13.6464 12.7307 13.6598 12.8683 13.6155C13.0569 13.7077 13.2469 13.9898 12.9441 13.9172C13.5162 14.0682 13.4388 14.3028 13.6607 14.0643C14.3722 14.2018 14.5818 14.7399 15.2396 14.8866C15.9838 15.5787 16.6755 16.3281 16.8975 17.1406L17.0022 17.1262C16.7497 17.1659 17.0882 17.8306 16.7947 17.7114C17.0937 17.8227 17.2569 18.2512 17.3229 18.475L17.1457 18.45C17.0099 17.9995 17.03 18.3799 16.7692 17.9059C16.8164 17.9393 16.8367 17.9773 16.8673 17.9341C16.6659 17.7265 16.335 17.268 16.1129 17.0812L16.2406 17.0594C15.9868 16.6672 15.5656 16.8119 15.206 16.5692C15.07 16.219 15.3301 16.5272 15.449 16.2925C15.0689 15.9703 14.687 16.6683 14.6334 16.0517L14.7367 16.0894C14.293 15.6986 15.0187 16.1414 14.7716 15.748C14.381 15.4657 14.3878 15.6063 14.3873 15.7654C14.3869 15.9245 14.3932 16.0824 14.0261 15.9171C14.1819 15.7971 14.0575 15.6559 13.944 15.4575C13.8328 15.5145 13.6276 15.4874 13.4141 15.4721C13.2022 15.4461 12.9741 15.4263 12.8186 15.4875C12.8845 15.4278 12.7471 15.2716 12.5087 15.1913C12.7049 15.1059 12.7766 15.2216 13.0483 15.3549C13.1142 15.2952 13.2745 15.2021 13.1872 15.0753C12.8312 15.2779 12.0338 14.8612 11.7529 15.1996C11.8938 15.1341 11.6119 14.9817 11.6457 14.8757C11.4931 14.9744 11.2616 14.9345 11.1816 14.9724L11.377 15.0634C11.1918 14.9914 10.9644 14.9957 10.7355 15.0522C10.5061 15.126 10.2772 15.1824 10.0522 15.2417L10.0542 15.1722C9.89245 15.2171 9.75384 15.2962 9.6141 15.3685C9.47271 15.4514 9.3302 15.5277 9.1493 15.5414C9.29329 15.413 9.08872 15.2682 8.99432 15.2014C8.84497 14.9953 9.57816 14.6936 9.10737 14.6496C8.79561 14.8482 8.74116 15.217 8.26418 15.2986C8.18936 15.4878 8.55443 15.4391 8.65962 15.4073C8.40487 15.5754 7.66622 15.643 7.56864 15.8809C7.71462 15.8248 7.78917 15.8363 7.79952 15.8967C7.78148 15.8721 7.43266 16.4401 7.27174 16.4088C7.31315 16.2669 7.23615 16.3423 7.30885 16.1812C7.08977 16.1737 6.99722 16.2795 6.90746 16.3812C6.80217 16.1296 7.34034 16.2035 7.20177 15.8987C6.83458 15.9754 6.65977 16.1055 6.5579 16.2578C6.49435 16.3309 6.47734 16.4133 6.44181 16.4886C6.43708 16.562 6.42333 16.6231 6.44644 16.6572C6.40613 16.6641 6.41632 16.6831 6.33013 16.7047C6.32227 16.6992 6.32945 16.6806 6.28406 16.678C6.15872 16.7133 6.1712 16.7458 6.1994 16.7893C6.2135 16.8111 6.22367 16.8301 6.21876 16.8621C6.20993 16.8913 6.18599 16.9334 6.14998 17.026C6.38303 17.1555 6.54114 17.5744 6.62512 17.8228C6.58137 17.8096 6.49864 17.8514 6.4498 17.8286C6.81258 18.2921 7.27503 18.3478 7.73053 18.747L7.70317 18.7689C8.05617 18.9125 8.40095 18.9676 8.85587 19.1007C8.73986 19.0894 8.69022 19.1428 8.67418 19.1905C9.27924 19.4535 9.8181 19.1677 10.5362 19.2627C10.7317 19.3952 11.1726 19.2644 11.1093 19.5207C11.7164 19.4722 10.8482 19.2473 11.433 19.2302L11.3769 19.226C12.1003 18.9882 12.8 19.1174 13.4834 18.8276C13.6612 18.8767 13.945 18.9595 14.2944 18.8997C14.3884 18.7419 14.6109 18.6278 14.803 18.4981C14.9784 18.4923 15.1553 18.4759 15.3999 18.4306C15.0568 18.3648 15.5724 18.287 15.6589 18.2065C15.5348 18.3902 15.7706 18.3741 15.4644 18.5647C16.1562 18.5466 15.749 18.0459 16.4474 17.9852L16.6195 18.1424C16.4805 18.1385 16.3824 18.2521 16.2515 18.2952C16.3916 18.3058 16.8284 18.2726 17.0075 18.0864C17.082 17.9561 16.4449 18.072 16.9571 17.8323C16.9998 18.1223 17.32 17.6699 17.6486 17.873C17.6587 17.7503 17.863 17.5701 18.0965 17.5405C18.1425 17.5672 18.1084 17.5903 18.094 17.6274C18.5178 17.5376 18.1523 17.3616 18.526 17.2423C18.6221 17.2985 18.3772 17.5444 18.599 17.5479C18.951 17.5845 18.7614 17.3853 19.1394 17.3517C19.0093 17.3187 19.0636 17.0501 19.2603 16.9473C19.3343 17.0764 19.4125 17.2912 19.0821 17.4411C19.2962 17.4805 19.639 17.4633 19.3941 17.7092C19.7596 17.3597 20.3514 17.1409 20.7419 16.756C20.8379 16.8122 20.989 16.7656 21.1781 16.6987C21.3733 16.5063 21.3666 16.1236 21.5902 16.1165C21.654 15.9846 21.4794 16.0145 21.441 15.9519L21.7504 15.7399C22.0003 15.7456 21.5754 16.0707 21.7571 16.1225L22.1092 16.0588C22.361 15.8533 22.0503 15.7751 21.9279 15.7061C22.2882 15.7309 22.2623 15.4173 22.5189 15.4218C22.0857 15.6584 22.8761 15.6511 22.2996 15.8984L22.5639 15.867C22.6406 15.9921 22.2833 16.1466 22.2799 16.2682C22.6689 16.1775 22.6972 15.979 23.0704 15.8771C23.0541 16.1254 22.629 16.0252 22.5485 16.3225C23.0363 16.284 23.2748 15.9805 23.4816 16.1387C23.2901 16.2924 22.8914 16.2051 22.8751 16.4533C23.0239 16.535 23.2103 16.7555 23.5958 16.5029C23.7005 16.3467 23.4125 16.3614 23.2195 16.4255L23.2238 16.5112L23.1471 16.3861C23.3565 16.3571 23.6257 16.152 23.8349 16.0817C23.8877 16.1072 23.9398 16.1087 23.9896 16.0967C23.9833 16.0805 23.9715 16.0721 23.9558 16.061C23.9866 16.0592 24.0158 16.068 24.0394 16.0847C24.2783 16.0058 24.5167 15.7023 24.7707 15.7522L24.3879 15.9594C24.4613 16.1059 24.7518 16.0458 25.0902 16.0432C25.3638 15.9653 25.9486 15.8065 25.7853 15.6201L25.5835 15.7134C25.595 15.3968 26.1477 15.7171 25.9866 15.4024C25.9109 15.3842 25.8506 15.436 25.7707 15.4739C25.9258 15.3298 25.8383 15.1616 25.5128 15.1792L25.3629 15.4746C25.0318 15.3583 24.9408 15.6954 24.5765 15.6678C24.5639 15.5939 24.4949 15.5746 24.558 15.5189C24.8653 15.4767 25.244 15.3255 25.385 15.1596C25.0275 15.2726 25.3394 14.9738 25.1418 15.0111C25.684 14.8457 25.2752 14.639 25.8633 14.4589L25.7031 14.7353C26.2343 14.6271 26.1529 14.3333 26.3257 14.1309C26.5273 14.0964 26.8716 14.3106 27.1604 14.1195C27.6379 14.1622 27.45 13.8521 27.7907 13.7212C27.7837 13.9229 27.4572 14.0756 27.2643 14.1812C27.2924 14.1833 27.3125 14.1799 27.3355 14.1725C27.3165 14.1827 27.2974 14.1928 27.2953 14.2208C27.6082 14.271 28.1485 13.6911 27.9919 14.1293C27.3894 14.2048 27.0305 14.6534 26.5018 14.9582C26.2901 14.9737 26.1012 15.082 25.9593 15.0406C25.9461 15.2261 25.9776 15.3901 26.2094 15.4715C26.5018 15.2002 26.3602 15.1 26.7919 14.9155C27.1048 14.8654 27.477 14.6565 27.7493 14.5304L27.6434 14.3964C27.9911 14.2055 28.7299 14.0377 28.6557 13.8671C28.6299 13.9787 28.8008 13.9875 28.9568 13.909L28.7749 14.0991C28.9059 14.1977 29.4612 14.0889 29.3174 14.2587C29.8586 14.1281 29.794 13.9524 30.3586 13.9388C30.7904 13.896 30.8711 13.2565 31.6796 13.2737C31.8322 13.4585 31.1304 13.499 31.488 13.6695C32.2273 13.626 32.4043 13.4678 32.7445 13.254C32.4926 13.1761 32.7237 13.0916 32.731 12.9728C32.86 12.9992 33.026 13.0399 33.1707 13.0774C33.0565 13.2387 32.9176 12.9928 32.7083 13.1634C32.8048 13.2022 32.9199 13.2482 33.0315 13.2741C33.0898 13.2918 33.1509 13.3055 33.2215 13.3142C33.2882 13.32 33.3746 13.3398 33.4941 13.3713C33.4158 13.3985 33.3256 13.4173 33.2631 13.4557C33.5515 13.5654 34.0331 13.5107 33.9881 13.7327C34.2194 13.7312 34.4649 13.7514 34.6983 13.8221C35.0886 14.305 35.3329 14.3186 35.6031 14.746C35.5929 14.5852 35.5234 14.4416 35.4661 14.2889L35.6001 14.5667C35.6308 14.6652 35.648 14.766 35.6748 14.8617C35.8971 15.2316 35.7395 14.4115 35.9783 15.1001C35.6729 14.6891 35.9512 15.8308 35.6205 15.7975C35.6573 15.4869 35.5686 14.9282 35.4371 15.089C35.4834 15.2989 35.3983 15.711 35.214 15.988C35.2648 15.9413 35.1693 16.3933 35.198 16.4195C35.4491 16.3316 35.6705 16.2107 35.8928 16.0551C35.92 16.1335 35.8946 16.2277 35.8412 16.3198C35.7744 16.4142 35.6717 16.5009 35.569 16.5876C35.3652 16.7504 35.1586 16.9171 35.1138 17.0389C35.2078 16.4973 35.0217 17.1272 34.9196 16.9546C34.863 17.2097 34.8329 17.5191 34.7562 17.7777C34.6873 18.0419 34.5982 18.3095 34.4099 18.5423L34.3927 18.3412C34.2711 18.7216 34.1542 18.503 33.9663 18.9604C33.91 19.1567 34.2378 18.6685 34.1149 19.0007C33.4705 19.7609 32.5906 20.3367 31.7119 20.6771C30.8289 21.0322 29.9534 21.2096 29.1477 21.3302C29.1585 21.0898 28.4644 21.2362 28.188 21.1763C28.0382 21.2711 28.1865 21.3701 28.3464 21.2944C28.0227 21.4431 27.8675 21.4455 27.5315 21.4615C27.4029 21.276 27.1208 21.3243 26.8807 21.3965C26.9784 21.3003 26.8433 21.1574 27.2885 21.2541C27.1684 21.1986 27.8608 20.9211 27.2327 20.9076C26.6547 21.207 25.9652 21.3802 25.2575 21.3457C24.8611 21.2718 24.6711 21.3735 24.489 21.2387L24.6007 21.1642C24.3965 21.1024 24.3477 21.2213 24.2802 21.2917C23.9523 21.2544 24.1469 21.0379 24.2586 20.9635C23.4951 20.9662 23.2744 21.2528 22.4936 21.1548C22.333 21.0647 22.4935 20.8713 22.1355 20.86C21.5606 20.8546 21.0397 20.8815 20.53 20.8926C20.4056 20.8932 20.2745 20.8949 20.1434 20.8965L19.9563 20.894L19.8761 20.8904C19.7747 20.8835 19.671 20.8633 19.5263 20.8258C19.4476 20.7701 19.3583 20.7128 19.2555 20.6578C19.2783 20.7507 19.3213 20.8401 19.3816 20.9301C19.265 20.8947 19.1399 20.8711 19.0172 20.861L18.9225 20.853C18.913 20.8581 18.9231 20.8771 18.9243 20.8838C18.9317 20.9068 18.9402 20.9364 18.9527 20.9689C18.9753 21.0203 19.003 21.0813 19.0196 21.1579C19.0401 21.2374 19.0678 21.2984 19.0862 21.4058C19.1057 21.5201 19.1253 21.6343 19.146 21.7552C19.1652 21.9282 19.1769 22.1786 19.1857 22.3914C19.1319 22.2589 19.1435 22.0841 19.0581 22.0295C19.0921 22.2484 19.2303 22.4702 19.3152 22.6839C19.4002 22.8975 19.4728 23.1202 19.4311 23.3209C19.5085 23.3284 19.2428 23.3117 19.1833 23.2873C19.2297 23.7806 19.4827 24.1073 19.4671 24.6631C19.3918 24.7279 19.3848 24.4041 19.2623 24.5772L19.2424 24.9055C19.1869 24.6419 19.0458 25.0498 19.0269 24.9597C19.0525 24.9069 19.1049 24.8496 19.086 24.7594C18.9689 24.7415 18.9045 25.0325 18.7892 25.187C18.7775 25.3204 18.8329 25.4423 18.9188 25.3377C18.7807 25.5411 18.8219 25.3578 18.7075 25.3359C18.5844 25.6266 18.6473 25.6711 18.7989 25.7489C18.9245 25.7551 18.9245 25.7551 19.066 25.5718C18.8796 25.8769 18.7478 26.2382 18.548 26.4038L18.625 26.6119L18.5748 26.6412C18.6315 26.6695 18.6618 26.6851 18.6719 26.7041L18.6757 26.6654C18.7981 27.6436 18.2106 28.8574 18.2334 29.8596C18.1583 30.1075 18.0803 30.3594 18.0349 30.5988C17.9506 30.4093 17.9657 30.1543 17.9883 29.9222C18.0013 29.6953 18.0351 29.489 17.995 29.3956L17.9795 29.5677C17.9074 29.6111 18.0667 29.2692 17.9095 29.1993L17.7441 29.4247C17.5641 29.7874 18.0921 29.7005 17.7438 30.009C17.769 29.4896 17.5613 30.1751 17.4712 29.8102C17.33 29.9346 17.4636 30.1295 17.5945 30.3284C17.5967 30.2001 17.627 30.0739 17.6619 29.9746C17.7058 30.0293 17.6767 30.1623 17.6744 30.2906C17.6761 30.4216 17.694 30.5465 17.8023 30.5937C17.787 30.6654 17.7591 30.7048 17.7318 30.7267C17.7115 30.8305 17.626 30.8762 17.5499 30.9169C17.549 30.9516 17.5519 30.9891 17.5639 31.0389C17.686 31.025 17.836 31.2551 17.7915 31.4598C17.7833 31.5131 17.6784 31.3443 17.596 31.3273C17.5565 31.3998 17.5277 31.4738 17.5016 31.544L16.6208 31.2452C16.9532 31.0259 17.19 30.733 17.5293 30.4122C17.3438 30.5407 17.156 30.5141 17.0905 30.5149C17.1121 30.4594 17.1349 30.4105 17.1711 30.3594C17.1334 30.3209 17.1738 30.2137 17.2082 30.1318L17.2168 30.3032C17.3042 30.1879 17.3996 30.0783 17.3935 29.9618C17.3589 29.8605 17.3474 29.7933 17.5695 29.738C17.5379 29.8161 17.5444 29.8737 17.5603 29.9263C17.6445 29.8324 17.7101 29.7313 17.7684 29.6072C17.82 29.626 17.9905 29.6522 18.173 29.4862L17.8852 29.4005C18.2598 29.1048 18.1764 29.1225 18.3089 28.927C18.5441 28.8868 18.6375 28.6046 18.6969 28.3455C18.7709 28.0908 18.7934 27.8588 18.956 27.8794C18.9039 28.0197 18.8479 28.1572 18.7801 28.2863C19.0466 28.2269 19.0145 28.8478 19.2073 28.7422C19.2305 28.5343 19.2734 28.3402 19.2792 28.1318C18.891 28.5301 19.1628 27.5121 18.8761 27.5335C18.9474 27.3242 19.1789 27.2224 19.0802 26.9281C19.1786 26.7557 19.234 27.1196 19.3322 26.9058C19.3287 26.7439 19.1719 26.7569 19.2488 26.5397C19.2736 26.5632 19.3339 26.6531 19.3803 26.621C19.4779 26.383 19.2921 26.4286 19.2746 26.1446L19.2597 26.1991C19.1033 26.0529 19.3412 25.867 19.4043 25.8113C19.3657 25.5655 19.2733 25.3289 19.1995 25.0996C19.3069 25.1815 19.4451 25.545 19.5293 25.3094C19.5917 25.3713 19.6157 25.4709 19.6139 25.5818C19.6054 25.6939 19.5712 25.8173 19.5521 25.9278C19.511 26.1526 19.4805 26.3376 19.7035 26.3479C19.8606 26.1343 19.5745 25.796 19.7978 25.6057C19.6003 25.5427 19.5737 25.205 19.4831 24.9992L19.5411 24.934C19.4894 24.4899 19.1816 24.9747 19.1667 24.5036C19.218 24.4395 19.3911 24.562 19.3389 24.2771C19.2854 24.2275 19.2267 24.1269 19.1399 24.1244L19.1256 24.2029C19.0051 24.3065 18.9797 23.8753 18.9318 23.676C19.0458 23.7568 19.1714 23.763 19.1543 23.5619C19.2393 23.9173 19.567 23.7714 19.6288 24.0927C19.518 23.9906 19.3297 23.6979 19.2768 23.9143C19.2331 24.1846 19.4983 24.3604 19.6 24.6922L19.5901 24.4727C19.8955 24.3582 19.909 25.0231 20.2046 25.1143C20.1997 25.0045 20.1753 24.9223 20.2262 24.917C20.1546 24.9431 20.2547 25.2855 20.2498 25.4592L20.0967 25.2918C19.886 25.798 20.2178 25.6963 20.0946 26.2291C19.984 26.1685 19.946 25.4213 19.8156 25.8308C19.9691 25.8391 19.8276 26.1641 19.9399 26.2141C19.8608 26.3175 19.7564 26.4148 19.6695 26.5127C19.6841 26.6589 19.705 26.8212 19.7208 26.9741C19.7298 27.1282 19.7433 27.2676 19.7538 27.3695C19.6797 27.1989 19.7079 27.1008 19.6567 26.9229C19.6242 27.3191 19.2211 27.388 19.339 27.7136C19.3836 27.6507 19.4388 27.5894 19.4794 27.5236C19.3614 27.8239 19.3406 27.945 19.3536 28.1018C19.4372 28.2672 19.6357 28.0535 19.7274 27.8822C19.6615 28.0422 19.4307 28.3099 19.5788 28.3675C19.4045 28.4803 19.3964 28.6753 19.4539 28.7692C19.2561 29.007 19.3147 28.8241 19.1952 28.7927C19.1599 29.0511 18.7728 29.4561 19.0257 29.4993C19.1212 29.4311 19.2094 29.0979 19.2865 29.306C19.0512 29.3048 19.2879 29.4959 19.1362 29.6602C19.1495 29.2326 18.7425 29.9661 18.7513 29.6534C18.5054 29.934 18.5928 30.0608 18.4801 30.3117L18.3515 30.2266C18.2932 30.3507 18.227 30.4691 18.1581 30.5916C17.9573 30.5498 17.9359 30.2631 17.648 30.5198C17.6338 30.8818 17.9542 30.9964 17.695 31.421L17.5977 31.2164C17.4737 31.2998 17.2115 31.687 17.3501 31.7497C17.4935 31.739 17.6569 31.6834 17.802 31.5617L17.754 31.6045C17.6515 31.8744 18.2519 31.4433 17.889 31.8477C17.8289 31.6989 17.6125 31.7878 17.3722 31.9188L16.142 32.5891L16.4885 31.624C16.5799 31.3698 16.6627 31.086 16.7534 30.9494C16.6865 30.7604 16.6384 30.3779 16.5426 30.2629C16.4687 30.2756 16.3808 30.5499 16.2592 30.4048C16.4062 30.0719 16.417 29.8315 16.412 29.58C16.407 29.3285 16.4284 29.0897 16.6323 28.8266C16.6503 28.8512 16.6968 28.8605 16.723 28.6901L16.8197 28.6286C16.8159 28.5256 16.8232 28.4068 16.871 28.3225L17.0198 27.8787C17.0613 27.8786 17.0144 27.7863 16.9809 27.6918C16.9586 27.7232 16.9403 27.7575 16.9187 27.8131L16.9809 27.6918C16.9548 27.6202 16.9394 27.5502 16.9712 27.5137C16.8273 27.4 17.1626 27.2182 17.2594 27.0564C17.2478 27.0895 17.2463 27.1416 17.2481 27.1724C17.4021 26.8799 17.1265 26.6435 17.4045 26.4093L17.4789 26.3793C17.4562 26.4281 17.4373 26.4797 17.4542 26.4976C17.473 26.4459 17.4903 26.405 17.5074 26.364C17.5725 26.2388 17.559 26.2411 17.5256 26.2883C17.5817 26.0505 17.4742 26.0689 17.5685 25.7105L17.446 25.8836C17.4579 25.7916 17.4728 25.7373 17.4872 25.7002C17.4739 25.4605 17.5061 24.8811 17.6751 24.5756C17.5201 24.2356 17.4166 24.2568 17.4142 23.8181L17.6033 23.8929L17.7088 23.4185C17.7898 23.4877 17.8818 23.2576 17.9035 22.96C17.9046 22.9667 17.9018 22.9706 17.9058 22.9734C18.0236 22.8738 18.0488 22.7381 18.0174 22.6155C17.9794 22.4941 17.91 22.3919 17.8716 22.3293C17.8148 22.2595 17.711 22.0975 17.7775 22.0619C17.5974 21.9994 17.4585 21.6117 17.2838 21.2578C17.2771 21.259 17.2771 21.259 17.2704 21.2601C17.2568 21.221 17.2645 21.1851 17.2131 21.1074C17.2059 21.1259 17.2066 21.15 17.1888 21.1669C17.1438 21.0052 17.0059 20.8663 16.8646 20.7072C16.7273 20.5509 16.5747 20.3662 16.561 20.1853C16.4303 19.8861 16.6108 20.0316 16.7596 20.1133C16.9135 20.2045 17.0482 20.2644 16.9227 20.0162L16.8654 19.9638C16.8192 19.8957 16.7769 19.8303 16.7452 19.7666C16.8203 19.7606 16.8153 19.7926 16.8609 19.8366C16.854 19.7963 16.8668 19.7699 16.8835 19.7463L16.9058 19.7149C16.9085 19.7109 16.9074 19.7042 16.9208 19.7019L16.969 19.7006C17.0855 19.6945 17.1543 19.6724 17.1007 19.5813C16.9724 19.579 16.8682 19.5761 16.7679 19.576L16.6984 19.574L16.666 19.5865L16.6039 19.6075C16.5189 19.6359 16.426 19.6587 16.3124 19.7023C16.3103 19.7303 16.3521 19.8131 16.4052 19.9215C16.3213 19.8149 16.2385 19.7149 16.158 19.6285C16.1721 19.5085 16.1521 19.4117 16.1612 19.3237C16.1684 19.3051 16.1571 19.2794 16.1884 19.2603C16.2169 19.245 16.2482 19.2258 16.2874 19.2122C16.3617 19.1822 16.4563 19.1487 16.5895 19.119C16.5708 19.0704 16.4454 19.1056 16.2947 19.0934C16.6316 19.0012 17.0379 19.0527 16.9683 19.151C17.278 19.1222 17.1775 18.9389 17.6035 18.8626L17.4035 18.6029C17.5361 18.5491 17.6883 18.5092 17.8495 18.4817C18.0225 18.4624 18.2046 18.4555 18.385 18.4592C18.7396 18.4504 19.0883 18.5083 19.359 18.5346C18.7282 18.525 18.3427 18.7776 17.9871 18.8211C18.243 19.0436 17.933 19.1312 17.5478 19.1833C17.1665 19.2381 16.6597 19.2868 16.6331 19.3743C17.0539 19.3887 16.4958 19.6018 17.1633 19.5429C17.3053 19.3423 17.5796 19.4302 17.9222 19.3716C18.2375 19.4767 17.8566 19.6144 18.4445 19.5346C18.1284 19.5057 18.589 19.2471 18.1099 19.3568C18.8426 19.0724 19.1528 19.168 20.0358 19.0549C19.2824 19.0767 20.3698 18.8249 19.9105 18.7064C19.9831 18.9291 18.56 18.896 19.6466 18.9625C19.3985 18.9876 19.1521 19.0021 18.9158 19.0357C18.7747 18.918 19.6585 18.8706 18.9 18.741C19.2308 18.6741 19.4756 18.6702 19.7074 18.6513C19.8133 18.6436 19.9578 18.6396 20.0345 18.623C20.1112 18.6064 20.1962 18.578 20.3002 18.5395C20.2185 18.6883 20.6574 18.7273 20.7123 18.8666C20.8932 18.8529 21.0685 18.7054 21.2573 18.839L20.9674 18.9232C21.2567 18.9567 21.2708 19.1202 21.5165 19.1819C21.6816 19.1571 21.7086 19.0522 21.6388 18.9674C22.0431 19.0469 22.4538 18.942 22.8729 19.0674C22.3651 19.0091 22.764 19.2796 22.3504 19.2467L22.6562 19.3569C23.2683 19.1761 24.1762 18.9862 24.3401 18.6712C25.049 18.5707 24.8361 19.1049 25.6784 18.7741C25.5598 18.8082 25.7488 18.9833 25.6852 19.0564C25.8226 19.071 26.0603 19.1271 26.2091 19.0671L25.8902 18.9004C26.2841 18.7777 26.8309 18.9227 27.2538 18.9091C27.1683 18.9548 27.3111 19.0618 27.0553 19.1228C27.0586 19.2433 27.3572 19.2302 27.4922 19.2313C27.7937 19.1141 27.5799 18.9155 27.9145 18.8099C28.8337 18.7875 29.7038 18.6594 30.4573 18.3956C30.8276 18.2562 31.1625 18.0917 31.4568 17.8927C31.7462 17.6842 31.9894 17.449 32.2095 17.1797C32.3047 17.0285 32.4056 16.911 32.5073 16.7173L32.6591 16.4528L32.7701 16.2125L32.8296 16.0952L32.8312 16.0845C32.83 16.0778 32.8356 16.07 32.8345 16.0632C32.8389 16.0487 32.8405 16.038 32.8343 16.0218C32.8258 15.9921 32.8049 15.9715 32.7746 15.9559C32.7499 15.9325 32.2416 15.8915 31.8321 15.9028L31.8294 15.8065C29.6463 16.2215 26.8549 16.82 24.3693 17.629L24.4199 17.6826C23.5208 17.5598 24.1447 18.2967 23.1492 18.1766C22.7635 18.7715 21.8147 18.7022 21.226 19.242L21.1152 19.1399C20.738 19.6228 19.9269 19.2672 19.4038 19.7058Z" fill="#E0E1DC"/>
<path d="M16.8328 28.6526L16.7814 28.7069C16.8671 28.8972 16.8403 28.8069 16.8328 28.6526Z" fill="#E0E1DC"/>
<path d="M17.8934 24.4687C17.767 24.4972 17.7021 24.6223 17.6623 24.7535C17.7054 24.7426 17.7681 24.7457 17.8216 24.6951C17.6775 25.0237 17.707 25.2569 17.5536 25.632C17.6235 25.6166 17.7048 25.7685 17.7058 25.3504C17.5307 25.4978 18.1092 24.6805 17.8934 24.4687Z" fill="#E0E1DC"/>
<path d="M17.4323 30.0959C17.4315 30.0674 17.4228 30.0403 17.4141 30.0132L17.4323 30.0959Z" fill="#E0E1DC"/>
<path d="M17.5656 30.9274C17.5478 30.9861 17.517 31.0296 17.4693 31.0551C17.4549 30.9915 17.5055 30.9621 17.5656 30.9274Z" fill="#E0E1DC"/>
<path d="M18.6719 26.7744C18.654 26.9334 18.6252 27.1496 18.5054 27.2186C18.5795 26.9634 18.6419 26.8419 18.6719 26.7744Z" fill="#E0E1DC"/>
<path d="M35.1914 16.0679C35.1859 16.0757 35.1831 16.0795 35.176 16.0979C35.3047 16.23 35.0761 16.4951 35.1035 16.6548C34.9459 16.9352 34.9533 16.5778 34.967 16.4179C34.9962 16.3684 35.1017 16.2442 35.1914 16.0679Z" fill="#E0E1DC"/>
<path d="M23.5932 16.3649C23.6469 16.3141 23.7546 16.2957 23.8528 16.2824C23.8372 16.3127 23.8703 16.3244 23.9125 16.3484C23.8991 16.3507 23.8856 16.353 23.8789 16.3541C23.9594 16.3992 23.9088 16.5291 23.9222 16.6273C23.4929 16.7908 23.6731 16.6699 23.5932 16.3649Z" fill="#E0E1DC"/>
<path d="M27.4848 14.1459C27.4389 14.1607 27.4025 14.1704 27.374 14.1856C27.4036 14.1771 27.4361 14.1646 27.4848 14.1459Z" fill="#E0E1DC"/>
<path d="M23.6188 16.344C23.6155 16.3654 23.7379 16.3514 23.8845 16.3367C23.845 16.3088 23.7647 16.3052 23.6188 16.344Z" fill="#E0E1DC"/>
<path d="M19.9542 24.0177L20.0126 24.136L20.0429 23.8674C19.8435 23.4718 19.7021 23.496 19.5172 23.448C19.6537 23.5979 19.6925 23.7437 19.7432 23.8979C19.7843 24.0572 19.8305 24.226 19.8775 24.4606C19.9139 24.3088 19.9408 24.1621 19.9542 24.0177Z" fill="#E0E1DC"/>
<path d="M18.9772 24.4348C18.9395 24.4796 18.8502 24.589 18.8488 24.6415L18.9528 24.6794L18.9772 24.4348Z" fill="#E0E1DC"/>
<path d="M17.8779 28.4221C17.9536 28.332 18.0254 28.2391 18.0972 28.1461C18.0614 28.019 17.7711 28.3106 17.8779 28.4221Z" fill="#E0E1DC"/>
<path d="M20.0437 27.4926L19.9966 27.2582C19.8688 27.4221 19.8176 27.6699 19.9067 27.7447C19.9207 27.4825 19.9856 27.7 20.0437 27.4926Z" fill="#E0E1DC"/>
<path d="M17.4023 29.2007C17.5014 29.3951 17.1435 29.4494 17.2531 29.6038C17.2599 29.5022 17.5505 29.3174 17.4023 29.2007Z" fill="#E0E1DC"/>
<path d="M19.046 29.8913C19.2588 29.8721 19.2304 29.6059 19.3874 29.4007C19.2826 29.5902 18.9821 29.7582 19.046 29.8913Z" fill="#E0E1DC"/>
<path d="M16.6928 31.0656C16.6031 30.9666 16.7082 30.8516 16.8413 30.7387C16.8366 30.8123 16.8616 30.8773 16.826 30.9527C16.932 30.6608 16.9601 30.663 17.0574 30.4419C16.8395 30.5658 16.5732 30.7915 16.467 30.6572C16.4572 30.8634 16.4613 31.1503 16.6928 31.0656Z" fill="#E0E1DC"/>
<path d="M18.7574 30.4238C18.9141 30.277 19.0851 30.234 19.2159 30.0161C19.1114 30.0065 18.9535 30.0061 18.8123 30.2635L18.7387 30.0943C18.4993 30.2587 18.9678 30.11 18.7574 30.4238Z" fill="#E0E1DC"/>
<path d="M17.97 30.7283L17.8866 30.8294C17.9923 31.0821 17.9463 31.3816 18.1336 31.5023L16.1582 30.8334L16.1571 30.8267L16.1543 30.8306L18.1364 31.4984C18.1359 31.2311 18.0354 30.8873 17.97 30.7283Z" fill="#E0E1DC"/>
<path d="M17.9284 31.1155L18.0797 31.2825C18.2771 31.0629 18.0085 31.2561 18.0308 31.1401C18.1067 31.092 18.1961 30.9996 18.2009 30.9251C18.026 31.2145 18.0448 30.8326 17.9284 31.1155Z" fill="#E0E1DC"/>
<path d="M17.536 31.9987L17.5304 32.0066L16.8389 33.4442L16.4024 31.6232L16.3084 31.2366L16.0696 31.5656C16.0754 31.5993 16.084 31.6291 16.0863 31.6426L16.933 33.8725L17.7597 32.2104C17.9154 31.9234 17.6402 32.1614 17.536 31.9987Z" fill="#E0E1DC"/>
<path d="M16.5353 31.1557L16.5762 31.1143C16.4637 30.9175 16.3789 30.7227 16.2891 30.5186C16.3879 30.8756 16.3674 30.8962 16.5353 31.1557Z" fill="#E0E1DC"/>
<path d="M19.2456 24.9161C19.1655 24.8356 18.9882 25.1451 19.1172 25.0219C19.1904 25.1035 19.3819 24.673 19.2456 24.9161Z" fill="#E0E1DC"/>
<path d="M17.2791 25.7944C17.3873 25.6663 17.3696 25.1625 17.3437 24.9512C17.3448 25.1976 17.1532 25.7988 17.2791 25.7944Z" fill="#E0E1DC"/>
<path d="M17.3594 24.8926C17.3588 24.9141 17.3659 24.9556 17.3695 25.002C17.3707 24.9591 17.3685 24.9209 17.3594 24.8926Z" fill="#E0E1DC"/>
<path d="M21.6414 18.5003C21.6662 18.4996 21.6939 18.4949 21.7163 18.4804C21.6886 18.4851 21.669 18.4956 21.6414 18.5003Z" fill="#E0E1DC"/>
<path d="M21.4116 18.5141C21.2591 18.4757 20.9564 18.5106 20.8986 18.6087C21.1408 18.5774 21.3513 18.5583 21.6357 18.4758C21.5345 18.4795 21.4094 18.4025 21.4116 18.5141Z" fill="#E0E1DC"/>
<path d="M23.5604 18.7352C23.4471 18.786 23.2933 18.7426 23.327 18.8379C23.3865 18.88 23.6273 18.8004 23.5604 18.7352Z" fill="#E0E1DC"/>
<path d="M34.9017 13.7625C34.7726 13.6421 34.6595 13.5563 34.5764 13.5264C34.4878 13.5043 34.4412 13.5292 34.4443 13.6067C34.7694 13.8021 34.6351 13.6317 34.9017 13.7625Z" fill="#E0E1DC"/>
<path d="M33.9803 13.461L33.9636 13.3836L33.7656 13.2256C33.8417 13.3033 33.9166 13.3742 33.9803 13.461Z" fill="#E0E1DC"/>
<path d="M32.0499 13.0336C32.0609 13.0089 32.1056 12.9823 32.156 12.9661C32.054 12.9912 31.9668 13.0137 32.0499 13.0336Z" fill="#E0E1DC"/>
<path d="M32.1706 12.9585C32.1483 12.9624 32.115 12.9681 32.0927 12.9719L32.1706 12.9585Z" fill="#E0E1DC"/>
<path d="M32.2866 12.9957L32.3103 12.9175C32.2785 12.9267 32.2209 12.9365 32.1717 12.9523C32.2107 12.942 32.2648 12.9549 32.2866 12.9957Z" fill="#E0E1DC"/>
<path d="M31.5525 13.0283C31.6594 13.0862 31.7635 13.148 31.8715 13.2127C32.191 13.0957 31.4962 13.1245 31.8056 12.888C31.7132 12.9349 31.6314 12.9836 31.5525 13.0283Z" fill="#E0E1DC"/>
<path d="M30.525 13.1946C30.2368 13.1745 29.9037 13.5613 29.7082 13.3517C28.9779 13.6294 29.9573 13.7119 29.1291 13.9855C29.9509 13.9386 29.4413 13.4356 30.1974 13.4312C29.8105 13.3412 30.4139 13.2761 30.525 13.1946Z" fill="#E0E1DC"/>
<path d="M30.6803 13.5836C30.7068 13.4535 30.3588 13.4991 30.2642 13.599C30.3682 13.5951 30.5667 13.7356 30.6803 13.5836Z" fill="#E0E1DC"/>
<path d="M29.0144 13.5699L28.7636 13.5292L28.7233 13.6197L29.0144 13.5699Z" fill="#E0E1DC"/>
<path d="M28.1901 13.7392L28.3745 13.5453C28.311 13.6183 27.9818 13.692 28.1901 13.7392Z" fill="#E0E1DC"/>
<path d="M26.9673 13.9035C26.7519 13.9162 26.6628 14.2837 27.0649 14.0906L26.9642 14.1078C26.9752 14.0507 26.712 14.0059 26.9673 13.9035Z" fill="#E0E1DC"/>
<path d="M24.4532 15.2271C24.59 15.1862 24.7419 15.0901 24.6905 15.0358L24.3379 15.2293L24.4532 15.2271Z" fill="#E0E1DC"/>
<path d="M24.7852 15.9571C24.9727 16.1017 25.1225 15.8231 25.3897 15.8051C25.1014 15.8614 25.1226 15.8231 24.7852 15.9571Z" fill="#E0E1DC"/>
<path d="M23.9436 15.1112C24.0183 14.9973 24.1912 14.9886 24.2929 14.9712C24.2037 14.8783 23.9589 14.997 23.9436 15.1112Z" fill="#E0E1DC"/>
<path d="M23.3633 15.391C23.2124 15.3613 23.3505 15.2752 23.2368 15.2599C22.9369 15.273 22.6663 15.3957 22.5612 15.5526C22.6604 15.605 22.8367 15.7832 22.7698 15.9196C23.1508 15.6912 23.2447 15.2655 23.5442 15.4538L23.7718 14.9982C23.4233 15.0717 23.6016 15.3225 23.3633 15.391Z" fill="#E0E1DC"/>
<path d="M24.4392 15.6972L24.1775 15.6658C24.2593 15.7592 24.0991 15.8351 23.9978 15.9113C24.1391 16.1297 24.3171 15.7528 24.4392 15.6972Z" fill="#E0E1DC"/>
<path d="M21.2008 16.4141L20.7695 16.6473L20.9209 16.6006L21.2008 16.4141Z" fill="#E0E1DC"/>
<path d="M20.8662 16.4328L20.826 16.3624L20.5236 16.6285L20.8662 16.4328Z" fill="#E0E1DC"/>
<path d="M20.3838 16.5666L20.438 16.5573L20.6855 16.3929L20.3838 16.5666Z" fill="#E0E1DC"/>
<path d="M19.3949 16.8656L19.5184 16.9352C19.6255 16.868 19.8947 16.8917 19.8241 16.7643C19.734 16.8495 19.4918 16.9223 19.3949 16.8656Z" fill="#E0E1DC"/>
<path d="M17.0486 20.5288C17.1159 20.4337 17.0457 20.3899 16.9715 20.3434L16.8833 20.5606C16.9283 20.5389 17.005 20.498 17.0486 20.5288Z" fill="#E0E1DC"/>
<path d="M16.3917 20.4205L16.087 20.7256C16.5156 20.6384 16.5232 20.4604 16.8781 20.3269C16.7085 20.3074 16.5364 20.5171 16.3247 20.5152L16.3917 20.4205Z" fill="#E0E1DC"/>
<path d="M8.79566 21.2974C8.84603 21.1679 8.75485 21.1801 9.05847 21.1178C8.856 21.1455 8.66514 21.1402 8.4669 21.1119C8.26981 21.0904 8.06372 21.0566 7.82619 21.0005C7.88875 21.1038 7.49331 21.1542 7.68532 21.1662C7.87455 21.1822 8.05543 21.21 8.23728 21.203L8.14024 21.2818C8.50188 21.4375 8.41177 21.1732 8.79566 21.2974Z" fill="#E0E1DC"/>
<path d="M15.9968 16.9215C15.9191 16.9383 15.9155 17.0194 15.9119 17.1005C16.1541 17.248 15.9462 16.8917 15.9968 16.9215Z" fill="#E0E1DC"/>
</svg>
