<svg width="93" height="92" viewBox="0 0 93 92" fill="none" xmlns="http://www.w3.org/2000/svg">
<path d="M42.553 51.5352C42.0734 51.2686 42.4335 51.6747 42.5393 52.0838L42.553 51.5352Z" fill="#AD4419"/>
<path d="M42.4753 52.0508L42.4687 52.473C42.5337 52.3428 42.5137 52.1993 42.4753 52.0508Z" fill="#AD4419"/>
<path d="M42.4872 55.5339C42.1412 54.7552 42.5221 53.7875 41.9582 53.3456C41.7007 54.1579 41.9477 55.3328 42.4872 55.5339Z" fill="#AD4419"/>
<path d="M42.7335 54.3188L42.4466 54.2406L42.9391 54.9279L42.7335 54.3188Z" fill="#AD4419"/>
<path d="M43.0737 53.7642L42.9701 53.8799L43.345 54.9814L43.0737 53.7642Z" fill="#AD4419"/>
<path d="M42.2162 58.1668L42.2222 57.385C42.6945 56.6763 42.6977 57.9199 43.0177 57.4398C43.1045 56.4279 42.2252 57.0436 42.3882 55.8184C42.2038 55.8672 42.1977 56.3517 42.1734 56.8043C42.1323 57.2524 42.0226 57.6547 41.7407 57.5328C41.4375 58.5127 42.0592 57.6197 42.2162 58.1668Z" fill="#AD4419"/>
<path d="M40.3766 50.8275C40.412 50.7743 40.428 50.7157 40.4511 50.6696C40.3695 50.6998 40.3145 50.7477 40.3766 50.8275Z" fill="#AD4419"/>
<path d="M52.6023 49.8216C52.7426 49.968 52.892 50.0808 53.0414 50.1936C53.0261 50.1173 52.988 50.0259 52.9286 49.9466L52.6023 49.8216Z" fill="#AD4419"/>
<path d="M38.4819 59.1309C38.3228 59.2503 38.1911 59.3682 38.0702 59.4799C38.1896 59.4401 38.3335 59.3436 38.4819 59.1309Z" fill="#AD4419"/>
<path d="M65.3661 46.5097C65.4049 46.4725 65.4485 46.4176 65.4614 46.3353C65.4614 46.3353 65.4436 46.3305 65.4372 46.3192L65.2644 46.4629L65.3661 46.5097Z" fill="#AD4419"/>
<path d="M66.0575 56.1768C66.2393 56.2528 66.4151 56.3183 66.5835 56.3466C66.2959 56.2065 66.1484 56.1663 66.0575 56.1768Z" fill="#AD4419"/>
<path d="M35.613 62.9421C35.666 62.8828 35.7081 62.8297 35.7393 62.783C35.6847 62.8142 35.6036 62.875 35.5288 62.9468L35.613 62.9421Z" fill="#AD4419"/>
<path d="M48.3124 46.8475C48.61 47.0193 48.8847 47.1758 49.1117 47.274C48.8478 47.1114 48.5793 46.9657 48.3124 46.8475Z" fill="#AD4419"/>
<path d="M36.3354 67.9846C36.1372 68.0837 36.0244 68.2331 35.9452 68.3916C36.1083 68.355 36.2561 68.2422 36.3354 67.9846Z" fill="#AD4419"/>
<path d="M32.769 70.8029L32.7995 70.7855C32.7166 70.7114 32.7101 70.7353 32.769 70.8029Z" fill="#AD4419"/>
<path d="M30.0496 72.1396L30.1022 72.0892C30.0365 72.0453 29.997 72.0475 30.0496 72.1396Z" fill="#AD4419"/>
<path d="M35.8654 68.2841C35.4234 68.3527 34.884 67.8544 35.0242 68.7931L35.1629 68.8129C34.8353 68.8587 34.6646 69.3524 34.4132 69.581C34.4924 69.6206 34.5549 69.6557 34.6326 69.6678C34.7758 69.5718 34.9785 69.456 35.294 69.2899C35.71 69.1512 35.678 68.6742 35.8654 68.2841Z" fill="#AD4419"/>
<path d="M40.4456 50.8612C40.2407 50.8386 40.3178 51.493 40.4456 50.8612V50.8612Z" fill="#AD4419"/>
<path d="M40.2427 55.5534C40.3145 55.4349 40.3679 55.3114 40.4397 55.1929C40.3496 55.3064 40.2711 55.4132 40.2427 55.5534Z" fill="#AD4419"/>
<path d="M30.9221 67.7617C30.9574 67.7415 30.9926 67.7214 31.0455 67.6912C30.9573 67.5779 30.8995 67.6811 30.9221 67.7617Z" fill="#AD4419"/>
<path d="M40.5696 54.8677L40.4115 55.2003C40.4767 55.1024 40.5598 55.0095 40.5696 54.8677Z" fill="#AD4419"/>
<path d="M34.2818 64.3221C34.3104 64.3058 34.3389 64.2895 34.3674 64.2732C34.3308 64.2752 34.3022 64.2915 34.2818 64.3221Z" fill="#AD4419"/>
<path d="M21.5115 28.4015C21.2959 28.4684 21.1805 28.2664 20.9739 28.2011C20.5989 28.7539 21.8562 28.1904 21.264 28.684C21.4386 28.6688 21.6163 28.6095 21.7879 28.5397L21.4796 28.0249C21.0574 28.2239 21.7469 28.1965 21.5115 28.4015Z" fill="#AD4419"/>
<path d="M61.4821 45.0136L61.6089 45.0658C61.5314 44.8331 61.6193 44.7689 61.1256 44.6078C60.6631 44.9137 61.2927 45.482 60.508 45.8057C60.6572 45.7759 60.875 45.8177 61.0779 45.8818C60.79 45.5477 61.1181 45.2493 61.4821 45.0136Z" fill="#AD4419"/>
<path d="M61.0782 45.8844C61.0842 45.8948 61.0902 45.9052 61.0961 45.9156C61.1259 45.9678 61.1602 46.0036 61.2004 46.0498C61.3033 46.0602 61.418 46.0915 61.4955 46.1302C61.4255 46.0319 61.2645 45.944 61.0782 45.8844Z" fill="#AD4419"/>
<path d="M19.5976 31.5447C19.5906 31.646 19.6011 31.7212 19.5994 31.8033C19.6797 31.66 19.6448 31.5988 19.5976 31.5447Z" fill="#AD4419"/>
<path d="M62.6043 61.6499C62.4316 61.6309 62.259 61.6119 62.1212 61.6024C62.3603 61.6863 62.5029 61.6785 62.6043 61.6499Z" fill="#AD4419"/>
<path d="M68.8672 46.4677C68.9903 46.5293 69.112 46.5624 69.2399 46.6066C69.3141 46.6082 69.3883 46.6097 69.4862 46.6271L68.8672 46.4677Z" fill="#AD4419"/>
<path d="M43.6123 49.03C43.956 48.4946 43.3994 49.0528 42.9051 48.6574L42.3636 48.8962C42.8062 49.0529 43.2427 49.0011 43.6123 49.03Z" fill="#AD4419"/>
<path d="M21.787 28.6225C21.7961 28.5888 21.7839 28.5674 21.8145 28.5215C21.793 28.5337 21.793 28.5337 21.7502 28.5582L21.787 28.6225Z" fill="#AD4419"/>
<path d="M28.6549 46.2452C28.5804 46.1889 28.5119 46.1432 28.4374 46.087C28.4678 46.1402 28.5363 46.1858 28.6549 46.2452Z" fill="#AD4419"/>
<path d="M63.9452 46.4686L65.7947 46.7144L65.2712 46.5093C64.9907 46.7537 64.2439 46.1579 63.9452 46.4686Z" fill="#AD4419"/>
<path d="M47.083 49.6385C46.5843 49.2599 46.4018 48.8418 45.3573 49.0152C45.1748 49.0912 45.4303 49.6371 44.8221 49.2646L45.5123 48.743C44.6244 48.474 43.63 48.3646 42.882 48.6368L41.8101 48.4164L42.175 48.2643C41.3631 48.0789 40.6196 47.6426 39.8214 47.9999C40.1498 47.784 40.7549 47.3111 39.984 47.1728L39.2907 47.3431C39.2177 47.2154 39.5842 47.0908 38.453 47.0878C38.6765 47.4542 37.4921 47.1851 37.3218 46.6895C37.3568 47.1213 38.0076 47.4695 37.9498 47.9119C36.887 47.4604 36.9205 48.6554 35.949 48.1659L36.18 47.7797C35.3712 47.5502 34.7387 47.6293 34.1351 47.7342L34.2567 47.5518C32.826 47 31.7222 47.1931 30.8889 46.2292L30.0162 46.2339C30.2899 46.1198 30.2336 45.9967 29.9037 45.7899C29.3137 45.5482 28.2145 45.7247 28.4684 46.0454C26.6697 44.8003 25.7697 45.3995 23.5787 44.2091C23.8706 43.8305 22.7546 43.6071 23.3262 43.4216L22.5448 43.2894C22.6618 43.3213 22.6207 43.1753 22.601 43.116C22.4231 42.8788 22.23 42.961 22.0476 43.037L22.1388 42.999L21.2477 42.3787L21.0076 42.6995C20.8464 42.4669 20.6807 42.251 20.5347 41.9956C21.2295 41.8526 22.0673 42.701 22.4945 42.3862C22.2284 42.143 21.4605 41.0711 20.2548 41.0119C19.7303 40.5634 19.2285 40.0313 18.7496 39.5144C18.8453 39.262 18.8438 39.5311 18.4287 38.9777C18.1322 38.4836 17.927 38.6433 17.4237 38.0838C17.6289 38.2207 17.7263 38.2921 17.8357 38.286C17.3644 37.5106 16.8687 37.681 16.2742 37.2583C16.5494 37.6658 16.9371 37.9242 17.2306 38.1659C17.2169 38.3149 17.1196 38.2435 17.1181 38.3149L18.0425 38.9443C17.8449 39.0431 17.9407 38.7908 18.2478 39.3776C17.737 38.879 17.6198 38.7482 17.0253 38.2268C16.5145 38.1234 16.9828 38.9428 16.4735 38.6692C14.997 37.1975 14.1607 35.2895 13.8656 33.538C13.6846 32.6531 13.7196 31.8002 13.7621 30.9853C13.8487 30.1734 14.0052 29.4344 14.1937 28.6773C14.3153 28.2971 14.4157 27.9292 14.5646 27.5476C14.7455 27.1477 14.8732 26.7783 15.1089 26.3754C15.574 25.5589 16.1624 24.7849 16.9484 24.2086C17.7238 23.6384 18.6983 23.1944 19.6516 22.9602C20.5775 22.7275 21.4928 22.5998 22.3914 22.4674C23.1516 22.9083 24.897 23.5908 25.5523 23.4281L25.3516 23.2745C26.2091 23.0951 26.4585 23.9267 27.278 23.5572L28.1476 23.1026C28.552 23.2667 29.5844 23.5662 29.3199 23.7456C29.6681 23.6878 30.1653 23.8413 30.5925 23.9219C31.0167 24.0465 31.3922 24.0861 31.5655 23.747C32.2893 24.0252 32.8412 24.2745 33.3642 24.5968C33.8918 24.9023 34.4316 25.1303 35.0672 25.5013C34.9622 25.4906 34.9106 25.5485 34.9106 25.5485C35.0581 25.9301 35.7437 25.5241 35.8943 26.0593C35.6267 26.0851 34.6065 25.5105 35.3089 26.1961C35.7559 26.1383 36.3367 26.5123 36.764 26.9881C37.2065 27.4412 37.5258 27.9505 37.5486 28.1634C37.8664 28.3488 38.1842 28.5343 38.5491 28.5799C38.8851 28.9949 39.0205 29.8494 38.4001 29.3568C39.5572 30.3192 39.127 30.7769 39.8948 30.4651C41.3879 31.546 41.2937 33.0117 42.653 34.0561C43.6262 36.4507 44.417 38.9213 44.0568 41.0332L44.3137 41.1122C43.6888 40.9328 43.7559 42.8288 43.207 42.2389C43.7772 42.8166 43.6936 43.9797 43.6055 44.5666L43.2238 44.3188C43.394 43.1344 43.0322 44.033 42.9394 42.6601C43.0124 42.7878 43.0185 42.8973 43.1356 42.8304C42.8938 42.1356 42.623 40.7231 42.3113 40.0541L42.6291 40.1408C42.4648 38.964 41.3382 38.8455 40.7695 37.8998C40.8318 36.9465 41.1009 37.9363 41.627 37.5227C41.0963 36.3718 39.4665 37.5715 40.0046 36.0921L40.2023 36.2898C39.5986 34.9123 40.7968 36.7124 40.6492 35.5402C40.0516 34.4698 39.9163 34.8013 39.7445 35.1677C39.5728 35.5341 39.4177 35.9051 38.7487 35.1298C39.2367 35.0203 39.1014 34.5611 39.0527 33.9818C38.7349 33.994 38.2909 33.7113 37.815 33.4467C37.3543 33.1594 36.8495 32.8691 36.4253 32.8432C36.6412 32.7763 36.4922 32.2685 36.0285 31.8276C36.5728 31.8413 36.6139 32.1849 37.0974 32.7839C37.3133 32.717 37.783 32.6744 37.7176 32.2882C36.6792 32.3734 35.2879 30.5567 34.2769 31.0357C34.6722 31.0356 34.1856 30.3819 34.3772 30.1736C33.9196 30.2375 33.4284 29.8969 33.2034 29.8984L33.5562 30.318C33.2064 29.9531 32.6773 29.7191 32.0889 29.6036C31.4808 29.5276 30.8924 29.4121 30.3101 29.3072L30.3891 29.149C29.9679 29.0791 29.5635 29.1126 29.1636 29.1294C28.7486 29.1689 28.3381 29.1918 27.9063 29.0291C28.3761 28.8877 28.0598 28.3343 27.9138 28.0788C27.7906 27.4433 29.8052 27.5344 28.7667 26.9279C27.8347 27.0511 27.3132 27.8432 26.1258 27.5195C25.7502 27.8753 26.6443 28.1549 26.921 28.1944C26.1532 28.3085 24.3773 27.6716 23.8969 28.1156C24.2937 28.143 24.4534 28.2493 24.4123 28.3999C24.3971 28.3238 22.9832 29.259 22.6457 29.0143C22.8935 28.7314 22.635 28.8227 22.9756 28.5292C22.4784 28.2769 22.1515 28.4213 21.8352 28.5597C21.8626 27.8664 23.0243 28.6144 23.0318 27.763C22.1028 27.5456 21.56 27.6581 21.1617 27.8999C20.9367 28.0002 20.809 28.1721 20.6463 28.3074C20.5566 28.4716 20.4593 28.5978 20.476 28.7012C20.3757 28.6738 20.3787 28.7286 20.1568 28.686C20.1446 28.6647 20.181 28.6297 20.0792 28.575C19.7523 28.5218 19.7462 28.6101 19.7645 28.7408C19.7736 28.8062 19.7767 28.8609 19.7311 28.9293C19.6794 28.9871 19.579 29.0585 19.3966 29.2334C19.7949 29.7822 19.7099 30.918 19.6369 31.5809C19.5503 31.5033 19.3146 31.511 19.2264 31.4061C19.5656 32.8641 20.5722 33.489 21.1941 34.8983L21.1074 34.9196C21.7673 35.6296 22.5032 36.1267 23.4094 36.9218C23.154 36.7713 22.9822 36.8412 22.894 36.934C24.007 38.1898 25.5563 38.1091 27.1103 39.0988C27.4189 39.6142 28.5759 39.7859 28.1548 40.309C29.6069 40.8486 27.8461 39.3983 29.213 39.9866L29.0884 39.9167C31.0117 40.1446 32.4865 41.1936 34.3733 41.2588C34.7307 41.5629 35.2963 42.0585 36.166 42.2956C36.5521 42.0326 37.1877 42.0082 37.77 41.9154C38.1805 42.0903 38.6062 42.2423 39.219 42.4003C38.4983 41.8804 39.7708 42.2543 40.0567 42.1616C39.5732 42.452 40.1342 42.6678 39.2235 42.7789C40.8382 43.4797 40.4368 41.8879 42.1123 42.4974L42.3404 43.0448C42.0241 42.8867 41.676 43.0433 41.3278 43.0023C41.6395 43.1771 42.6825 43.5693 43.2952 43.3321C43.6069 43.1116 42.0135 42.6951 43.4518 42.692C43.239 43.4066 44.4629 42.7071 45.0027 43.5281C45.1577 43.256 45.8221 43.0598 46.3923 43.2422C46.4699 43.3532 46.3665 43.3699 46.2935 43.4398C47.3669 43.6876 46.7131 42.8894 47.7029 43.0155C47.864 43.2482 47.0354 43.5523 47.5433 43.7985C48.3157 44.2607 48.0921 43.5978 48.9998 43.9262C48.7352 43.7103 49.1488 43.1493 49.7129 43.1234C49.7448 43.5004 49.6947 44.0797 48.7718 44.0706C49.2234 44.3914 50.0322 44.7197 49.2036 45.0239C50.4214 44.6102 52.0209 44.7409 53.3345 44.2725C53.4957 44.5051 53.894 44.5598 54.4019 44.6084C55.0587 44.3743 55.4539 43.4848 55.9769 43.7083C56.2658 43.4726 55.831 43.3541 55.8097 43.1686L56.7508 43.0119C57.3209 43.2931 55.9921 43.5867 56.3555 43.9014L57.2358 44.1324C58.0371 43.9286 57.4046 43.4148 57.1963 43.1244C58.0006 43.5683 58.2773 42.8172 58.8642 43.103C57.6114 43.1837 59.4419 44.0152 57.847 43.9666L58.4902 44.1779C58.5328 44.5489 57.543 44.5216 57.4047 44.7983C58.399 45.0066 58.6773 44.5793 59.6473 44.745C59.3432 45.2999 58.4705 44.6128 57.9658 45.2119C59.1319 45.6466 60.0076 45.2026 60.3148 45.7895C59.7082 45.9385 58.8825 45.3091 58.5785 45.8641C58.8339 46.2122 59.0271 46.9207 60.1872 46.7519C60.5961 46.504 59.9165 46.2288 59.4026 46.1696L59.3205 46.3719L59.2779 46.0008C59.7918 46.1589 60.6326 45.9749 61.1906 46.0372C61.2848 46.1527 61.4034 46.2121 61.5311 46.2379C61.5342 46.1938 61.5159 46.1618 61.4916 46.1193C61.5646 46.1481 61.6224 46.1999 61.6589 46.2637C62.2944 46.3382 63.1701 45.8941 63.7023 46.2818L62.597 46.3488C62.6092 46.7654 63.3435 46.9387 64.1265 47.2959C64.8411 47.4099 66.3601 47.6713 66.1836 47.0662L65.618 47.0647C65.9844 46.3471 66.915 47.6789 66.8815 46.7803C66.7264 46.6572 66.5318 46.7119 66.3067 46.7134C66.8191 46.5477 66.7978 46.0657 66.0285 45.7571L65.3656 46.2772C64.727 45.6539 64.1554 46.3335 63.345 45.8789C63.3951 45.695 63.2567 45.5764 63.462 45.5155C64.2161 45.7481 65.2516 45.8058 65.7548 45.5747C64.8091 45.4516 65.849 45.0973 65.3533 44.9711C66.781 45.1717 66.0603 44.2565 67.6096 44.4723L66.9437 44.9375C68.2847 45.2583 68.4124 44.4935 69.0281 44.2122C69.5299 44.349 70.094 45.2126 70.9652 45.0818C72.0204 45.6929 71.92 44.7761 72.8459 44.8399C72.6133 45.2975 71.6965 45.2991 71.1385 45.3357C71.2009 45.3706 71.2511 45.3843 71.3119 45.3919C71.2571 45.3949 71.2024 45.398 71.1674 45.4603C71.8349 45.9118 73.7034 45.1545 72.8718 45.9969C71.4016 45.5242 70.0926 46.1735 68.5463 46.3089C68.0415 46.1174 67.4896 46.1645 67.2068 45.9167C66.9773 46.3303 66.8739 46.7423 67.3209 47.1787C68.2864 46.8669 68.0674 46.4838 69.2609 46.5217C70.0364 46.7421 71.1188 46.6599 71.8821 46.6614L71.7817 46.2387C72.7882 46.1717 74.672 46.5776 74.6842 46.1047C74.5048 46.3343 74.8894 46.538 75.3334 46.5243L74.7101 46.7676C74.9062 47.1355 76.3035 47.4806 75.7896 47.7178C77.1778 47.9975 77.2173 47.5231 78.534 48.0978C79.5755 48.4626 80.4481 47.0744 82.2939 47.982C82.4475 48.5719 80.7857 47.9121 81.4273 48.689C83.1789 49.3822 83.7566 49.2073 84.7707 49.0795C84.2735 48.6295 84.8969 48.6827 85.0413 48.4166C85.3105 48.6158 85.6495 48.8879 85.943 49.1296C85.5066 49.379 85.4503 48.6629 84.7844 48.8317C84.9653 49.0248 85.1813 49.2543 85.4109 49.4337C85.5264 49.5371 85.6526 49.6344 85.8062 49.7302C85.9536 49.8153 86.1316 49.9537 86.3733 50.1544C86.1635 50.1331 85.9354 50.0798 85.7499 50.1011C86.2973 50.6636 87.4665 51.0543 87.1245 51.5181C87.6597 51.7628 88.204 52.0729 88.6662 52.4865C89.0479 54.019 89.5968 54.3124 89.7611 55.588C89.9101 55.2064 89.904 54.8004 89.9359 54.3869L89.9466 55.1715C89.9116 55.4315 89.8432 55.6823 89.8022 55.9317C89.9178 57.0233 90.4346 54.9631 90.2462 56.8074C89.9831 55.5318 89.3994 58.4631 88.6727 58.0314C89.0907 57.3548 89.486 55.9712 89.0101 56.2008C88.8915 56.7345 88.253 57.5936 87.5309 58.0345C87.6981 57.9813 86.9927 58.9209 87.0307 59.0122C87.7043 59.079 88.3443 59.0379 89.024 58.9178C89.0027 59.1276 88.843 59.3176 88.6211 59.4727C88.3657 59.6187 88.0358 59.7085 87.7058 59.7982C87.0612 59.9548 86.4059 60.1175 86.1718 60.3502C86.9699 59.2022 85.8647 60.4551 85.8144 59.9473C85.4101 60.4749 85.0087 61.1561 84.5541 61.67C84.1117 62.2052 83.6192 62.7268 82.935 63.0613L83.1113 62.5793C82.4226 63.3259 82.3877 62.6964 81.4633 63.5494C81.1228 63.9417 82.4029 63.1678 81.7628 63.8018C79.461 64.8632 76.814 65.2465 74.4224 65.0886C72.0049 64.9595 69.7958 64.429 67.8086 63.8423C68.0913 63.2995 66.3337 62.8921 65.7605 62.4573C65.3135 62.5151 65.5492 62.9028 65.9992 62.8997C65.093 62.8952 64.7327 62.7341 63.9405 62.4103C63.8432 61.8447 63.1408 61.6532 62.5098 61.562C62.8382 61.4449 62.68 60.9705 63.6029 61.6713C63.3855 61.4144 65.28 61.5177 63.8462 60.8123C62.192 60.8824 60.4161 60.5419 58.8212 59.7028C57.9864 59.1068 57.4391 59.1373 57.1639 58.631L57.5014 58.5793C57.0969 58.2174 56.8567 58.4394 56.6256 58.5291C55.9095 58.0913 56.5906 57.8009 56.9281 57.7492C55.1644 56.9359 54.348 57.3601 52.6526 56.2959C52.3789 55.9158 52.9567 55.6422 52.1433 55.2317C50.8235 54.6023 49.5935 54.1053 48.406 53.5838C48.1186 53.4516 47.8145 53.3148 47.5104 53.1779L47.0817 52.9712L46.9007 52.8769C46.6742 52.7523 46.4568 52.5942 46.1633 52.3524C46.0417 52.1396 45.8972 51.9116 45.7193 51.6744C45.6722 51.9131 45.6752 52.1655 45.7178 52.4376C45.4867 52.2309 45.2237 52.0423 44.9515 51.8873L44.7417 51.7672C44.7143 51.7687 44.7174 51.8234 44.7128 51.8401C44.7052 51.901 44.6931 51.9785 44.687 52.0667C44.684 52.2096 44.6824 52.3799 44.6383 52.5745C44.6003 52.7798 44.5988 52.9501 44.5259 53.2177C44.4484 53.502 44.3709 53.7863 44.2888 54.0874C44.1474 54.507 43.9057 55.0969 43.6974 55.5971C43.7156 55.2337 43.93 54.843 43.7916 54.6256C43.6351 55.1669 43.7157 55.8267 43.6823 56.4105C43.6489 56.9944 43.5775 57.5859 43.2658 58.004C43.4361 58.1043 42.8416 57.7805 42.7306 57.6604C42.308 58.8479 42.5407 59.8726 41.9083 61.1376C41.665 61.2061 41.9964 60.4519 41.5281 60.7195L41.1298 61.4554C41.2849 60.7879 40.5217 61.5771 40.5749 61.349C40.6904 61.2548 40.8729 61.1788 40.9261 60.9507C40.6752 60.7835 40.2146 61.3855 39.7828 61.6182C39.6125 61.9131 39.6095 62.2537 39.9197 62.1047C39.383 62.4256 39.6749 62.047 39.4346 61.8737C38.8387 62.4119 38.936 62.5822 39.2021 62.9242C39.4849 63.0732 39.4849 63.0732 40.0079 62.8025C39.2507 63.3059 38.559 63.9977 37.9205 64.165L37.8748 64.7275L37.7274 64.7412C37.8278 64.8674 37.8809 64.9358 37.884 64.9906L37.9342 64.9054C37.1665 67.2925 34.509 69.4608 33.4859 71.7962C33.0466 72.2873 32.5966 72.7845 32.2347 73.2878C32.2438 72.7602 32.5524 72.1885 32.8534 71.6776C33.1271 71.1683 33.4266 70.7289 33.4341 70.4704L33.2137 70.8505C33.0008 70.8733 33.7352 70.256 33.4478 69.9261L32.8244 70.2682C32.0202 70.9114 33.3308 71.2777 32.1966 71.6154C32.8123 70.4446 31.5976 71.8024 31.7815 70.8643C31.3223 70.9996 31.4212 71.5926 31.5094 72.1916C31.6523 71.8982 31.8576 71.6397 32.0445 71.4481C32.0871 71.6215 31.8774 71.8967 31.7345 72.1901C31.5976 72.4942 31.5049 72.8013 31.7041 73.0263C31.5916 73.1753 31.4852 73.2362 31.3985 73.2575C31.2404 73.4749 30.9941 73.4886 30.7752 73.5008C30.7356 73.5798 30.7022 73.6695 30.6763 73.7972C30.9728 73.896 31.0717 74.5878 30.7494 75.012C30.6734 75.1261 30.6125 74.6244 30.4407 74.4967C30.272 74.6213 30.126 74.7612 29.9907 74.895L28.2802 73.2607C29.2821 73.1116 30.1426 72.6904 31.2692 72.3148C30.7036 72.4121 30.2992 72.1491 30.1471 72.0807C30.2566 71.9758 30.3615 71.8876 30.4999 71.8086C30.4542 71.6793 30.6625 71.4756 30.8297 71.3235L30.6656 71.728C30.9909 71.5562 31.3285 71.4056 31.4394 71.1304C31.4683 70.8598 31.5139 70.6925 32.0856 70.8035C31.929 70.9494 31.8819 71.0893 31.8621 71.2277C32.1571 71.1015 32.417 70.9388 32.6846 70.7152C32.7834 70.8141 33.1484 71.0573 33.7474 70.8703L33.1757 70.364C34.357 70.0842 34.1457 70.0356 34.6611 69.7269C35.2465 69.8865 35.7648 69.336 36.1799 68.8023C36.6238 68.2945 36.9248 67.7836 37.2776 68.0056C37.0069 68.2732 36.7303 68.5302 36.4353 68.7552C37.1134 68.9041 36.3731 70.3015 36.9311 70.265C37.2077 69.8103 37.5148 69.4089 37.752 68.9346C36.4293 69.4364 38.1487 67.3807 37.4645 67.1222C37.8537 66.7163 38.4969 66.7299 38.585 65.9453C38.997 65.6534 38.734 66.552 39.1901 66.1643C39.3558 65.7872 38.9803 65.6489 39.3907 65.2307C39.4227 65.3113 39.4653 65.5834 39.6067 65.5591C40.0871 65.1151 39.6097 65.0209 39.8742 64.3473L39.7814 64.4568C39.5777 63.952 40.3257 63.7787 40.531 63.7178C40.7058 63.1097 40.7468 62.465 40.8227 61.8568C40.9824 62.1609 40.911 63.1477 41.358 62.6945C41.4355 62.9044 41.3838 63.1598 41.2607 63.4137C41.1208 63.663 40.9095 63.9109 40.7468 64.145C40.4109 64.6194 40.1418 65.0132 40.6451 65.2762C41.2365 64.9523 40.94 63.8653 41.6591 63.6661C41.2714 63.3088 41.5724 62.5014 41.5845 61.9298L41.7882 61.8416C42.1454 60.7621 40.9155 61.5497 41.3867 60.4474C41.5737 60.3546 41.8413 60.8229 42.0268 60.1098C41.9568 59.938 41.9295 59.643 41.7318 59.5442L41.6147 59.71C41.2255 59.8195 41.6299 58.7977 41.7332 58.2868C41.9096 58.5955 42.1924 58.7445 42.3688 58.2625C42.1833 59.1733 43.0956 59.1884 42.8934 59.9958C42.7474 59.6415 42.6273 58.7642 42.2731 59.2067C41.8824 59.783 42.3051 60.4732 42.1835 61.3474L42.3963 60.8304C43.2234 60.8942 42.5408 62.4421 43.1247 62.9696C43.2311 62.7111 43.2631 62.4953 43.3862 62.5378C43.1931 62.5211 43.0563 63.4182 42.8587 63.8135L42.6853 63.2631C41.6561 64.2043 42.5303 64.3259 41.6744 65.4221C41.4843 65.1637 42.1988 63.3999 41.4584 64.2043C41.8036 64.3882 41.1285 64.9858 41.3338 65.2214C41.0404 65.375 40.6953 65.4876 40.3897 65.6199C40.2666 65.9726 40.1404 66.3695 40.0127 66.7389C39.8683 67.1038 39.7497 67.4398 39.6646 67.6861C39.6767 67.2133 39.847 67.0172 39.9199 66.5519C39.4198 67.4308 38.4163 67.1571 38.3388 68.0344C38.5091 67.9371 38.7022 67.855 38.8664 67.747C38.2719 68.3127 38.0941 68.5696 37.9557 68.9451C37.971 69.4165 38.6582 69.1367 39.0535 68.8402C38.7296 69.1382 37.9102 69.5077 38.1899 69.7996C37.6669 69.8726 37.4389 70.3136 37.4708 70.5918C36.7593 70.9279 37.0907 70.569 36.8489 70.3683C36.4902 70.9263 35.1629 71.4449 35.6996 71.8158C35.9931 71.7611 36.5541 71.0875 36.5085 71.6501C35.9672 71.3947 36.3078 72.0894 35.7818 72.3054C36.2713 71.3338 34.5457 72.5883 34.9014 71.8767C34.0333 72.2599 34.0987 72.6461 33.5696 73.1037L33.3644 72.7693C33.0968 72.9928 32.8171 73.195 32.5267 73.4033C32.1085 73.0917 32.3669 72.4075 31.4273 72.6903C31.0062 73.5099 31.622 74.118 30.5684 74.8189L30.5639 74.2427C30.1883 74.3021 29.1681 74.9133 29.4206 75.2067C29.7627 75.3359 30.1991 75.3831 30.6643 75.2584L30.5077 75.3055C29.9816 75.8179 31.8289 75.4681 30.5579 76.011C30.5792 75.6035 29.9847 75.5762 29.2899 75.6203L25.7336 75.8456L27.5687 73.992C28.0521 73.504 28.5477 72.9384 28.9035 72.7209C28.9521 72.2131 29.2516 71.2796 29.1542 70.9116C28.9703 70.8615 28.4731 71.3997 28.3484 70.9345C29.0447 70.3248 29.3275 69.782 29.5859 69.1966C29.8444 68.6112 30.1499 68.0836 30.9025 67.6958C30.9177 67.7719 31.015 67.8433 31.2583 67.4784L31.5471 67.4404C31.649 67.1986 31.7934 66.9325 31.9941 66.7896L32.8135 65.926C32.9093 65.9701 32.9002 65.707 32.9245 65.4531C32.8393 65.5017 32.7603 65.5611 32.6508 65.666L32.9245 65.4531C32.9412 65.26 32.9807 65.0821 33.0932 65.032C32.8834 64.6154 33.8519 64.556 34.2487 64.2869C34.1864 64.3507 34.127 64.4693 34.0982 64.5423C34.7671 64.0329 34.3854 63.1921 35.2779 62.9503L35.4816 62.961C35.3767 63.0492 35.2779 63.148 35.2977 63.2073C35.3965 63.1085 35.4802 63.0325 35.5638 62.9565C35.8481 62.7375 35.8146 62.7283 35.6869 62.8013C36.0715 62.3132 35.8039 62.2403 36.4059 61.515L35.9377 61.7826C36.0639 61.5835 36.1566 61.474 36.2296 61.4041C36.4561 60.837 37.1523 59.5354 37.8699 59.0123C37.8775 58.0621 37.616 57.9998 38.0811 56.9857L38.4369 57.3611L39.1895 56.3805C39.302 56.6268 39.7611 56.1949 40.1305 55.532C40.126 55.5487 40.1153 55.5548 40.1214 55.5655C40.5 55.4621 40.7037 55.1762 40.763 54.86C40.8056 54.5392 40.7553 54.229 40.7341 54.0435C40.6778 53.8215 40.6124 53.3365 40.8039 53.3259C40.4558 52.9884 40.5515 51.9454 40.5286 50.9419C40.5119 50.9374 40.5119 50.9373 40.4951 50.9328C40.5058 50.8279 40.562 50.7533 40.527 50.5192C40.4905 50.5542 40.4662 50.6104 40.4069 50.6302C40.4769 50.2091 40.3081 49.7407 40.1529 49.2223C40.0039 48.7145 39.8503 48.1246 40.013 47.6928C40.0327 46.8627 40.2927 47.3918 40.5481 47.7399C40.8051 48.1155 41.0514 48.3982 41.0286 47.6912L40.9526 47.5088C40.9191 47.302 40.8917 47.1059 40.8871 46.925C41.0666 46.9918 41.021 47.0602 41.0787 47.2107C41.1061 47.1104 41.1639 47.0633 41.2277 47.0268L41.3128 46.9781C41.3235 46.972 41.3281 46.9553 41.3615 46.9644L41.474 47.0131C41.7492 47.1241 41.9317 47.1469 41.9058 46.8793C41.6124 46.7364 41.3752 46.6178 41.1441 46.5099L40.986 46.4308L40.8977 46.4247L40.732 46.4065C40.5055 46.3807 40.2668 46.3336 39.9581 46.3123C39.9232 46.3746 39.9308 46.6103 39.9369 46.9174C39.8578 46.5814 39.7741 46.2621 39.6814 45.9763C39.8425 45.7148 39.9003 45.47 40.0159 45.2769C40.0523 45.2419 40.0539 45.1705 40.1466 45.1598C40.2287 45.1553 40.3215 45.1446 40.4264 45.1552C40.6301 45.1659 40.884 45.1901 41.223 45.2646C41.2321 45.1323 40.9053 45.0792 40.5708 44.8892C41.4465 45.0381 42.3284 45.5929 42.0623 45.745C42.8073 46.011 42.7723 45.4805 43.8367 45.7617L43.6541 44.9482C44.0175 44.9664 44.4113 45.0379 44.8127 45.1473C45.2323 45.2887 45.6596 45.4681 46.0716 45.6703C46.8987 46.0305 47.6408 46.5383 48.2368 46.8895C46.7924 46.1902 45.6323 46.359 44.7656 46.0778C45.1169 46.8654 44.308 46.7347 43.3638 46.4413C42.4257 46.1585 41.2048 45.7268 41.0497 45.9002C42.0046 46.3851 40.4888 46.2773 42.0913 46.858C42.6341 46.5478 43.1723 47.0449 44.0253 47.2774C44.6396 47.8582 43.6133 47.7671 45.0546 48.214C44.3567 47.8081 45.6963 47.7061 44.4738 47.4447C46.4686 47.5753 47.0813 48.1287 49.2388 48.8158C47.4782 48.0572 50.256 48.6439 49.3239 47.8777C49.2525 48.4691 46.0064 46.8653 48.4406 48.1849C47.8416 47.9766 47.2577 47.7456 46.6769 47.5692C46.4777 47.1466 48.5668 47.9857 46.9566 46.8728C47.7913 47.0735 48.36 47.3274 48.9149 47.5326C49.1673 47.6284 49.5049 47.7743 49.6995 47.8184C49.8941 47.8625 50.1206 47.8883 50.4019 47.9111C50.0537 48.1665 51.0238 48.7274 51.001 49.1075C51.4328 49.2702 51.9954 49.1181 52.2873 49.629L51.5286 49.5119C52.1596 49.8996 52.0167 50.2919 52.517 50.6979C52.9244 50.8179 53.0993 50.605 53.0293 50.3344C53.8762 50.9516 54.9359 51.1507 55.7677 51.8896C54.6592 51.2101 55.2888 52.2621 54.3704 51.7422L54.9573 52.3245C56.5629 52.5646 58.8602 53.1012 59.5763 52.5507C61.3187 53.0797 60.2546 54.0833 62.5519 54.2245C62.2417 54.1759 62.4896 54.7825 62.2646 54.8828C62.5656 55.0638 63.0537 55.4484 63.4612 55.4697L62.9046 54.743C63.9446 54.8828 65.05 55.804 66.0398 56.2266C65.7935 56.2403 66.0079 56.6402 65.3526 56.5065C65.231 56.7877 65.9334 57.0781 66.2436 57.2255C67.0646 57.2787 66.7848 56.5915 67.6697 56.707C69.8135 57.6419 71.9573 58.2803 73.978 58.4809C74.9815 58.5568 75.9302 58.537 76.8227 58.394C77.7136 58.2237 78.527 57.9423 79.3237 57.5576C79.7053 57.3113 80.0641 57.1486 80.5065 56.811L81.1405 56.364L81.6544 55.9292L81.9173 55.7223L81.9326 55.6995C81.9371 55.6828 81.9584 55.6707 81.963 55.6539C81.9888 55.6251 82.004 55.6023 82.0071 55.5582C82.0192 55.4806 81.9934 55.4106 81.9401 55.3422C81.9082 55.2616 80.78 54.6216 79.8237 54.2082L79.921 53.9831C74.4413 52.5969 67.3622 50.9811 60.7621 50.1788L60.8214 50.3567C58.8798 49.1086 59.5276 51.4774 57.3609 50.1319C55.833 51.0899 53.7195 49.9117 51.7826 50.5245L51.6366 50.1703C50.2485 50.8789 48.76 49.1883 47.083 49.6385Z" fill="#AD4419"/>
<path d="M31.5551 67.5111L31.3782 67.5813C31.3715 68.1121 31.4065 67.875 31.5551 67.5111Z" fill="#AD4419"/>
<path d="M38.4881 58.9997C38.1661 58.9299 37.8821 59.1486 37.6497 59.4084C37.7606 59.4296 37.9019 59.504 38.0796 59.4448C37.3946 60.0478 37.2124 60.6174 36.4561 61.3176C36.6338 61.3571 36.6582 61.7945 37.1092 60.8316C36.5472 60.9835 38.7585 59.7196 38.4881 58.9997Z" fill="#AD4419"/>
<path d="M31.3881 71.4823C31.4169 71.4158 31.4258 71.3438 31.4348 71.272L31.3881 71.4823Z" fill="#AD4419"/>
<path d="M30.8049 73.5441C30.701 73.6602 30.5833 73.7275 30.4458 73.7351C30.4809 73.5731 30.6291 73.5594 30.8049 73.5441Z" fill="#AD4419"/>
<path d="M37.8147 65.1558C37.603 65.5031 37.3044 65.9709 36.954 66.0014C37.3988 65.4925 37.673 65.2792 37.8147 65.1558Z" fill="#AD4419"/>
<path d="M87.394 58.1953C87.373 58.2074 87.3624 58.2133 87.3262 58.248C87.4814 58.6907 86.6697 59.0568 86.5613 59.4544C85.8972 59.9319 86.2977 59.1155 86.501 58.7616C86.6215 58.6788 86.998 58.5056 87.394 58.1953Z" fill="#AD4419"/>
<path d="M60.3283 46.4295C60.5065 46.3701 60.7746 46.4432 61.0153 46.5179C60.9468 46.5712 61.0108 46.6337 61.0824 46.7342C61.0489 46.7251 61.0154 46.7159 60.9986 46.7114C61.1357 46.9018 60.8798 47.147 60.8051 47.3878C59.6397 47.304 60.1851 47.2187 60.3283 46.4295Z" fill="#AD4419"/>
<path d="M71.6855 45.4916C71.5639 45.4764 71.4695 45.4597 71.3874 45.4642C71.465 45.4764 71.5532 45.4825 71.6855 45.4916Z" fill="#AD4419"/>
<path d="M60.4172 46.4122C60.3867 46.4579 60.6839 46.557 61.0376 46.6804C60.9766 46.5737 60.7952 46.4792 60.4172 46.4122Z" fill="#AD4419"/>
<path d="M43.7291 60.1737L43.7368 60.5089L44.0949 59.9223C44.0598 58.7961 43.7077 58.7001 43.3328 58.3908C43.4868 58.883 43.4197 59.2609 43.371 59.6708C43.2948 60.0823 43.2202 60.5212 43.077 61.1125C43.3238 60.8016 43.5432 60.4922 43.7291 60.1737Z" fill="#AD4419"/>
<path d="M41.0273 60.086C40.8924 60.1488 40.5691 60.3051 40.5093 60.4246L40.7086 60.6238L41.0273 60.086Z" fill="#AD4419"/>
<path d="M34.2097 68.0993C34.4811 67.9728 34.7463 67.8356 35.0115 67.6983C35.0655 67.3667 34.0832 67.7277 34.2097 68.0993Z" fill="#AD4419"/>
<path d="M40.2031 68.2813L40.3463 67.6901C39.8755 67.9309 39.4917 68.4474 39.6166 68.7155C39.9304 68.1259 39.8467 68.6972 40.2031 68.2813Z" fill="#AD4419"/>
<path d="M32.2788 69.3845C32.2987 69.9391 31.415 69.6801 31.5019 70.1539C31.6268 69.9269 32.4952 69.8126 32.2788 69.3845Z" fill="#AD4419"/>
<path d="M35.3286 72.7422C35.84 72.9262 36.0602 72.282 36.6425 71.9772C36.1975 72.3016 35.3241 72.3665 35.3286 72.7422Z" fill="#AD4419"/>
<path d="M28.646 72.9272C28.5454 72.6026 28.9112 72.4502 29.3394 72.3328C29.2495 72.4974 29.2373 72.6742 29.0742 72.8098C29.632 72.2505 29.6945 72.2856 30.1562 71.8802C29.5207 71.932 28.6643 72.1668 28.5637 71.7431C28.3199 72.208 28.0212 72.8739 28.646 72.9272Z" fill="#AD4419"/>
<path d="M34.0946 73.6614C34.6136 73.4909 35.0541 73.5754 35.5896 73.2133C35.3588 73.079 34.9952 72.9086 34.3933 73.3507L34.4053 72.8815C33.6767 73.0038 34.9168 73.1636 34.0946 73.6614Z" fill="#AD4419"/>
<path d="M31.9467 73.5162L31.6459 73.6597C31.6184 74.356 31.1909 74.9973 31.4933 75.4767L27.656 71.814L27.6606 71.7972L27.65 71.8033L31.504 75.4706C31.7895 74.8537 31.9269 73.9529 31.9467 73.5162Z" fill="#AD4419"/>
<path d="M31.4372 74.366L31.6069 74.9134C32.2978 74.6189 31.4712 74.7762 31.647 74.5325C31.8737 74.5032 32.179 74.386 32.2699 74.2194C31.556 74.6991 32.0093 73.8386 31.4372 74.366Z" fill="#AD4419"/>
<path d="M29.5836 75.981L29.5622 75.9932L26.4247 78.5662L27.3726 73.8985L27.571 72.9061L26.6671 73.4085C26.6442 73.4924 26.632 73.5703 26.6229 73.6039L26.182 79.6549L29.8722 76.7093C30.5394 76.2146 29.6493 76.4681 29.5836 75.981Z" fill="#AD4419"/>
<path d="M28.1806 72.9624L28.3194 72.9111C28.2711 72.3363 28.2846 71.7962 28.2966 71.229C28.1413 72.1583 28.0719 72.184 28.1806 72.9624Z" fill="#AD4419"/>
<path d="M41.1312 61.4858C41.033 61.2142 40.292 61.7375 40.7216 61.5917C40.8029 61.8587 41.7065 61.0715 41.1312 61.4858Z" fill="#AD4419"/>
<path d="M35.6473 61.3968C36.0344 61.2176 36.5343 60.0368 36.7014 59.5217C36.4394 60.091 35.3521 61.2719 35.6473 61.3968Z" fill="#AD4419"/>
<path d="M36.7998 59.4026C36.7754 59.4515 36.7471 59.5549 36.7058 59.6659C36.7547 59.5681 36.7904 59.4778 36.7998 59.4026Z" fill="#AD4419"/>
<path d="M53.5364 49.259C53.5944 49.2841 53.6633 49.3029 53.7307 49.2935C53.6617 49.2747 53.6053 49.2778 53.5364 49.259Z" fill="#AD4419"/>
<path d="M52.9955 49.0471C52.6852 48.7951 51.9497 48.5504 51.711 48.7145C52.3033 48.9025 52.809 49.0844 53.5534 49.1992C53.3162 49.0993 53.1103 48.7876 52.9955 49.0471Z" fill="#AD4419"/>
<path d="M57.7104 51.8617C57.3947 51.8572 57.0867 51.5921 57.0622 51.848C57.1542 52.0089 57.7947 52.0839 57.7104 51.8617Z" fill="#AD4419"/>
<path d="M89.201 52.5672C89.0324 52.151 88.8638 51.8318 88.7042 51.6737C88.5237 51.5275 88.3894 51.535 88.3133 51.717C88.8534 52.5166 88.7265 51.9795 89.201 52.5672Z" fill="#AD4419"/>
<path d="M87.4045 50.8855L87.449 50.6891L87.1621 50.1123C87.2542 50.3731 87.3508 50.617 87.4045 50.8855Z" fill="#AD4419"/>
<path d="M83.4074 47.8256C83.4592 47.7805 83.591 47.7672 83.7246 47.7838C83.4625 47.7321 83.2372 47.6904 83.4074 47.8256Z" fill="#AD4419"/>
<path d="M83.7678 47.784C83.7124 47.7689 83.6293 47.7463 83.5739 47.7312L83.7678 47.784Z" fill="#AD4419"/>
<path d="M83.9949 47.9931L84.1335 47.8382C84.0504 47.8252 83.9069 47.7861 83.7765 47.7698C83.8775 47.7877 83.9884 47.8757 83.9949 47.9931Z" fill="#AD4419"/>
<path d="M82.2633 47.2786C82.4476 47.5269 82.6213 47.7812 82.8011 48.0463C83.6634 48.1194 82.0302 47.44 82.9975 47.2267C82.734 47.2358 82.4933 47.2603 82.2633 47.2786Z" fill="#AD4419"/>
<path d="M79.7191 46.5609C79.0763 46.2051 77.893 46.7396 77.667 46.0464C75.6851 45.903 77.8549 47.1443 75.6516 46.8864C77.5968 47.6604 76.9616 45.9533 78.7099 46.7548C77.9143 46.1319 79.3756 46.6296 79.7191 46.5609Z" fill="#AD4419"/>
<path d="M79.6566 47.6234C79.8576 47.3518 79.0061 47.0834 78.6808 47.2123C78.9248 47.315 79.2316 47.852 79.6566 47.6234Z" fill="#AD4419"/>
<path d="M75.833 45.8051L75.2982 45.442L75.1082 45.6075L75.833 45.8051Z" fill="#AD4419"/>
<path d="M73.7494 45.3096L74.3826 45.0605C74.1579 45.1607 73.3197 44.9771 73.7494 45.3096Z" fill="#AD4419"/>
<path d="M70.7555 44.3782C70.2452 44.1763 69.6455 44.928 70.7798 44.9143L70.5293 44.8459C70.6158 44.7259 70.0569 44.3403 70.7555 44.3782Z" fill="#AD4419"/>
<path d="M63.5352 44.7303C63.8945 44.7827 64.3479 44.7241 64.2878 44.5437L63.2669 44.6116L63.5352 44.7303Z" fill="#AD4419"/>
<path d="M63.5165 46.7696C63.7938 47.3043 64.4381 46.8229 65.0734 47.0681C64.3483 46.8884 64.4382 46.8229 63.5165 46.7696Z" fill="#AD4419"/>
<path d="M62.4869 43.918C62.7815 43.7354 63.1896 43.901 63.4428 43.97C63.3369 43.6601 62.645 43.6709 62.4869 43.918Z" fill="#AD4419"/>
<path d="M60.8483 43.9401C60.5322 43.7095 60.9429 43.6591 60.6971 43.5019C59.9916 43.2103 59.2358 43.2027 58.8251 43.4516C58.9977 43.679 59.213 44.2791 58.9123 44.5219C60.036 44.4043 60.7093 43.5232 61.198 44.279L62.2117 43.4727C61.3292 43.2682 61.4712 44.0377 60.8483 43.9401Z" fill="#AD4419"/>
<path d="M62.9976 45.7994L62.4278 45.4459C62.5161 45.7491 62.0652 45.7522 61.7499 45.8193C61.8413 46.4744 62.6563 45.7964 62.9976 45.7994Z" fill="#AD4419"/>
<path d="M54.7623 43.9767L53.5176 44.0514L53.9168 44.1063L54.7623 43.9767Z" fill="#AD4419"/>
<path d="M53.9668 43.6599L53.9498 43.4543L52.9668 43.7434L53.9668 43.6599Z" fill="#AD4419"/>
<path d="M52.7199 43.4549L52.8549 43.4916L53.6021 43.3781L52.7199 43.4549Z" fill="#AD4419"/>
<path d="M50.113 43.0802L50.3232 43.3732C50.6423 43.3333 51.2376 43.6769 51.2115 43.3072C50.9123 43.4069 50.2756 43.3149 50.113 43.0802Z" fill="#AD4419"/>
<path d="M40.7729 49.0101C41.0303 48.8629 40.9154 48.6867 40.7943 48.4998L40.3576 48.9059C40.4848 48.9044 40.7055 48.8921 40.7729 49.0101Z" fill="#AD4419"/>
<path d="M39.379 48.0579L38.3488 48.4344C39.4308 48.6934 39.6396 48.291 40.6012 48.3641C40.2309 48.1371 39.6091 48.4359 39.123 48.2043L39.379 48.0579Z" fill="#AD4419"/>
<path d="M20.9209 41.9261C21.176 41.6815 20.9527 41.6116 21.7198 41.7939C21.2231 41.6405 20.7887 41.4233 20.3619 41.1454C19.9306 40.8842 19.4916 40.5851 19.004 40.2008C19.0375 40.5061 18.0715 40.1979 18.5014 40.4317C18.9206 40.6717 19.3078 40.9298 19.7346 41.109L19.4263 41.1865C20.0931 41.9337 20.169 41.2275 20.9209 41.9261Z" fill="#AD4419"/>
<path d="M42.218 39.5617C42.021 39.5171 41.9257 39.7003 41.8303 39.8834C42.2304 40.4835 42.1334 39.4386 42.218 39.5617Z" fill="#AD4419"/>
</svg>
