<svg width="79" height="82" viewBox="0 0 79 82" fill="none" xmlns="http://www.w3.org/2000/svg">
<path d="M43.5407 21.7362C44.0599 21.9221 43.6477 21.5849 43.4766 21.2065L43.5407 21.7362Z" fill="#AD4419"/>
<path d="M43.3942 21.2368L43.336 20.8413C43.2998 20.9607 43.3249 21.1072 43.3942 21.2368Z" fill="#AD4419"/>
<path d="M42.8326 17.8473C43.3625 18.5234 43.1527 19.5641 43.7982 19.8856C43.8832 19.0425 43.4484 17.8918 42.8326 17.8473Z" fill="#AD4419"/>
<path d="M42.6698 18.9909L42.9747 19.0097L42.3555 18.4502L42.6698 18.9909Z" fill="#AD4419"/>
<path d="M42.6218 19.6013L42.6898 19.4839L42.1172 18.5068L42.6218 19.6013Z" fill="#AD4419"/>
<path d="M42.3956 15.1879L42.6746 15.9422C42.481 16.7686 42.0332 15.5936 41.9055 16.1354C42.1582 17.097 42.7745 16.2688 42.9683 17.5049C43.2974 17.3163 42.4702 15.5718 43.0788 15.6263C42.9958 14.574 42.7333 15.6677 42.3956 15.1879Z" fill="#AD4419"/>
<path d="M46.9373 36.0475C46.9358 36.1035 46.9433 36.1469 46.9417 36.203C46.9829 36.1178 47.0023 36.0364 46.9373 36.0475Z" fill="#AD4419"/>
<path d="M52.879 48.4336C52.8693 48.6495 52.8778 48.8623 52.9013 49.054C52.9538 48.9798 52.9852 48.8906 53.0134 48.7833L52.879 48.4336Z" fill="#AD4419"/>
<path d="M42.1434 29.4127C42.1182 29.2137 42.0788 29.0349 42.0352 28.8833C42.0143 29.0195 42.0235 29.1769 42.1434 29.4127Z" fill="#AD4419"/>
<path d="M41.0093 40.2082C41.0531 40.1913 41.112 40.1533 41.1722 40.0683C41.1722 40.0683 41.169 40.0501 41.1659 40.032L40.9726 40.1025L41.0093 40.2082Z" fill="#AD4419"/>
<path d="M53.3712 64.9395C53.2896 65.1818 53.2082 65.4241 53.1408 65.6464C53.3455 65.2513 53.3716 65.0448 53.3712 64.9395Z" fill="#AD4419"/>
<path d="M40.092 25.1836C40.1276 25.2645 40.1509 25.3367 40.1952 25.4052C40.1932 25.3295 40.175 25.2238 40.1446 25.1094L40.092 25.1836Z" fill="#AD4419"/>
<path d="M52.2696 43.7236C52.3049 43.9297 52.3442 44.1086 52.4021 44.2401C52.3798 44.0583 52.3333 43.8895 52.2696 43.7236Z" fill="#AD4419"/>
<path d="M38.6415 3.15891C38.6286 3.13464 38.6228 3.10037 38.6198 3.08321L37.8116 0.837063L36.0352 3.04844C35.8971 3.22218 35.8307 3.40141 35.7914 3.58475C35.927 3.49974 36.0437 3.3561 36.0854 3.08403L36.2729 1.75381L38.5742 3.12634C38.5843 3.13346 38.6143 3.15474 38.6415 3.15891Z" fill="#AD4419"/>
<path d="M34.0296 7.87075L34.0363 7.82693C33.9257 7.84584 33.9467 7.88494 34.0296 7.87075Z" fill="#AD4419"/>
<path d="M33.744 11.1415L33.7212 11.0709C33.6663 11.1228 33.6492 11.1471 33.744 11.1415Z" fill="#AD4419"/>
<path d="M35.689 3.53813C35.2831 3.79267 34.5051 3.57319 35.0017 4.46658L35.1499 4.40593C34.8467 4.6429 34.8951 5.23403 34.7895 5.59583C34.8751 5.58118 34.9436 5.56946 35.0163 5.53059C35.0927 5.35887 35.2287 5.12401 35.4458 4.796C35.7687 4.46755 35.5898 4.03987 35.689 3.53813Z" fill="#AD4419"/>
<path d="M46.7663 36.0874C46.6503 35.7267 46.8818 35.968 46.7663 36.0874V36.0874Z" fill="#AD4419"/>
<path d="M44.3282 32.8276C44.3882 32.9525 44.4514 33.0962 44.5114 33.2211C44.4701 33.093 44.4367 32.9539 44.3282 32.8276Z" fill="#AD4419"/>
<path d="M38.3648 19.1944C38.3591 19.2315 38.3535 19.2687 38.3477 19.3059C38.4787 19.2956 38.4294 19.2195 38.3648 19.1944Z" fill="#AD4419"/>
<path d="M44.762 33.5915L44.5665 33.2388C44.6077 33.3669 44.6567 33.484 44.762 33.5915Z" fill="#AD4419"/>
<path d="M39.5352 23.5151C39.5401 23.5434 39.5332 23.5883 39.5381 23.6166C39.5498 23.6 39.5566 23.5552 39.5352 23.5151Z" fill="#AD4419"/>
<path d="M44.9094 39.015C44.5707 38.9521 44.4717 38.6757 44.1997 38.4979C43.3296 38.7072 45.5485 39.0695 44.4162 39.1079C44.7131 39.2297 44.9691 39.2635 45.2124 39.2737L44.9833 38.6399C44.3371 38.5952 45.3048 38.9559 44.9094 39.015Z" fill="#AD4419"/>
<path d="M40.0046 38.3996L39.9957 38.3476C40.0202 38.3345 40.0389 38.2868 40.0829 38.4398C40.0271 38.5831 39.9971 38.6685 39.9641 38.7365C39.924 38.8148 39.9041 38.9073 39.7394 39.2477C39.8184 39.136 39.8395 38.9987 39.8983 38.8727C39.8438 38.9712 40.033 38.6177 40.0046 38.3996Z" fill="#AD4419"/>
<path d="M39.82 38.8831C39.8275 38.8725 39.8062 38.8575 39.8107 38.8287C39.8164 38.753 39.8222 38.6774 39.8204 38.6123C39.8297 38.6667 39.8377 38.7681 39.82 38.8831Z" fill="#AD4419"/>
<path d="M35.6611 34.0721C35.5645 34.0037 35.4251 33.905 35.4219 33.8867C35.4332 34.0074 35.5878 34.0846 35.6611 34.0721Z" fill="#AD4419"/>
<path d="M47.6793 61.8022C47.665 61.6632 47.64 61.5167 47.6212 61.4067C47.5899 61.6101 47.627 61.7169 47.6793 61.8022Z" fill="#AD4419"/>
<path d="M41.9962 43.8828C41.9642 44.0552 41.9322 44.2276 41.9173 44.397C41.9248 44.4923 41.9293 44.5705 41.9427 44.7L41.9962 43.8828Z" fill="#AD4419"/>
<path d="M24.5373 47.8624C24.8733 47.3027 24.3076 47.9105 23.722 47.5261L23.122 47.7785C23.6394 47.9191 24.1318 47.8613 24.5373 47.8624Z" fill="#AD4419"/>
<path d="M45.3945 39.4248C45.4062 39.4082 45.4131 39.3633 45.4248 39.3467C45.3965 39.3516 45.3799 39.3398 45.3516 39.3446L45.3945 39.4248Z" fill="#AD4419"/>
<path d="M19.0185 32.9712C19.1182 32.9365 19.2107 32.9119 19.3104 32.8773C19.242 32.889 19.1494 32.9136 19.0185 32.9712Z" fill="#AD4419"/>
<path d="M40.4046 39.4281C40.581 39.8035 40.7978 40.1632 40.9909 40.5357L41.0414 40.8809L41.0465 40.4571L40.9925 40.2421C40.8375 40.2945 40.7778 40.0459 40.6971 39.8268C40.5997 39.6105 40.5052 39.4109 40.4046 39.4281Z" fill="#AD4419"/>
<path d="M28.4007 48.0671C27.7896 47.7848 27.5415 47.4139 26.4614 47.7307C26.2851 47.8312 26.6278 48.344 25.9183 48.0521L26.5883 47.4451C25.6059 47.3054 24.5557 47.2828 23.7247 47.5657C23.3183 47.5033 22.919 47.4309 22.5068 47.3343L22.9223 47.193C21.9895 46.9832 21.1877 46.4608 20.1625 46.6362C20.608 46.516 21.3532 46.1424 20.487 45.8597L19.6346 45.8119C19.5612 45.6398 20.0618 45.7389 18.65 45.1451C18.728 45.3955 18.4154 45.2644 18.0664 44.9723C17.7217 44.6532 17.3789 44.1402 17.4359 43.8051C17.1756 44.2366 17.9065 45.2195 17.6557 45.5526C16.9786 44.833 16.5688 44.6481 16.1132 44.4007C15.6375 44.1391 15.2891 43.9526 15.0604 43.1299L15.5451 43.1877C15.0425 41.9458 14.6491 40.9315 14.4183 39.9421L14.6255 40.0738C14.7297 38.7809 15.0073 37.7309 15.4567 36.8626C15.8961 35.9872 16.5473 35.3218 17.3028 35.0606C17.5053 34.7534 17.7177 34.4532 17.9402 34.1602C17.829 34.487 17.9957 34.4848 18.4054 34.3092C19.0462 33.8918 19.7103 32.8901 19.2714 32.8948C20.4512 32.5435 21.0424 32.1961 21.6733 31.7716C22.2971 31.3571 22.9563 30.8926 24.0907 30.5842C24.1625 31.0556 25.0305 30.4235 24.7877 30.9574L25.3785 30.5045C25.2818 30.5563 25.4089 30.6313 25.469 30.6737C25.7499 30.7224 25.8061 30.5369 25.8623 30.3514L25.8327 30.4357L26.7809 30.2207L26.6966 29.8306L27.4481 29.9571C27.1728 30.5582 26.0671 30.5715 26.0452 31.1116C26.3528 31.059 27.639 31.2786 28.3105 30.3723L30.1447 30.0937C30.2853 30.2983 30.0981 30.1809 30.6949 30.1227C31.185 30.1092 31.1412 29.8529 31.7375 29.6893C31.5713 29.7969 31.4845 29.8557 31.455 29.9399C32.2385 29.8937 32.2034 29.3282 32.615 28.9588C32.2691 29.0444 31.9967 29.302 31.7337 29.4613C31.6237 29.3834 31.7032 29.3347 31.6432 29.2922L30.8644 29.7771C30.8635 29.5662 31.021 29.7679 30.4709 29.7389C31.0272 29.547 31.1739 29.5307 31.7398 29.2404C31.9318 28.8206 31.2254 28.9063 31.5275 28.5645C32.0025 28.3601 32.4705 28.1657 32.9143 27.9843C33.6382 27.6406 34.3391 27.2657 34.9775 26.9366C35.9041 27.3673 36.7883 27.858 37.6124 28.3061C37.8167 28.4207 38.0209 28.5351 38.178 28.6314L38.5354 28.8693C38.7655 29.0322 38.9955 29.195 39.2227 29.3408C40.0961 29.974 40.9224 30.589 41.7658 31.2009C43.4308 32.3494 45.2579 33.4174 47.6958 33.6863C47.9022 33.9675 48.344 34.3404 48.8255 34.6361C49.307 34.9319 49.8235 35.0722 50.134 35.0366L49.9722 34.862C50.7828 34.8201 50.9014 35.5648 51.5652 35.1786C51.7739 35.011 51.9886 34.8776 52.1644 34.6716C52.4399 34.7916 53.188 34.7955 53.0552 35.0469C53.2898 34.9276 53.6202 34.9062 53.9119 34.8123C54.1966 34.7284 54.4312 34.6092 54.3527 34.2533C55.2608 34.01 55.9047 33.9702 56.6814 33.3185C56.6489 33.3856 56.6877 33.4582 56.6877 33.4582C57.0329 33.5222 56.8333 32.8704 57.2726 32.9711C57.2894 33.2232 56.5731 33.6623 57.2891 33.4783C57.3461 33.1432 57.6864 32.7684 58.1044 32.5386C58.5294 32.2988 59.0032 32.1386 59.1641 32.1023C59.2911 31.8167 59.4183 31.5313 59.3998 31.2179C59.7236 30.9514 60.4807 30.7515 60.1512 31.3443C60.3549 30.9928 60.5479 30.784 60.6912 30.6452L61.3169 32.3496C60.9172 32.1717 60.8666 32.0309 60.6051 32.5065C59.8786 32.578 59.3364 32.3894 58.7687 32.2579C58.2039 32.1435 57.6108 32.0691 56.9741 32.4594C54.813 32.2663 52.5867 32.823 50.5452 32.6095L50.5008 32.8634C50.6348 32.2073 48.7494 32.4947 49.2768 31.8768C48.7494 32.4947 47.6258 32.6605 47.0019 32.7145L47.1668 32.2906C48.3934 32.2127 47.4121 32.0288 48.8028 31.6765C48.6778 31.7683 48.5682 31.7958 48.6641 31.8937C49.3408 31.5317 50.774 31.1195 51.4895 30.83L51.3954 31.1538C52.5873 30.9763 52.8079 29.9009 54.0073 29.4583C55.0302 29.7318 53.876 29.7709 54.1992 30.3752C55.4808 30.1559 54.8454 28.1894 56.2249 29.2108C56.1253 29.2455 56.0256 29.2801 55.919 29.3247C57.6132 29.3075 55.2352 29.6968 56.4878 30.0277C57.7697 29.9139 57.565 29.6939 57.2986 29.3701C57.0351 29.0635 56.6844 28.7101 57.9376 28.5309C57.7343 28.9877 58.305 29.1364 58.8506 29.4475C59.2643 28.8843 61.2366 28.8986 62.233 28.6578C62.1563 28.7237 62.2009 28.8303 62.351 28.9366L65.6612 31.58L63.7206 32.6242C63.503 32.7406 63.1994 33.0212 62.9303 33.4014C62.9355 32.9696 63.1043 32.7737 63.4234 32.4289L65.2603 30.4702L62.2599 29.2776C62.0815 29.2114 61.853 29.1097 61.5733 29.0169C61.3987 29.1786 61.0067 29.4568 61.3515 29.776C61.5561 29.6354 61.8366 29.5786 62.1871 29.5714L64.1747 29.5216L63.1832 32.2589C62.793 33.3193 61.7662 34.7701 61.7869 35.6107C61.9188 35.1484 61.0051 35.7181 60.8416 35.4823C60.7585 36.0241 60.1851 36.5794 60.0122 36.8024C60.2698 36.7144 60.4502 36.5868 60.6677 36.4705C59.4664 37.1069 58.3833 38.7431 56.6693 39.4672L56.6401 39.2964C56.0801 39.6208 55.5367 39.837 54.9779 40.1172C54.692 40.2453 54.399 40.3833 54.0773 40.4559C53.7697 40.5085 53.4221 40.5328 53.0616 40.5329C53.7187 40.2622 53.0372 39.8248 52.7912 39.6207C52.5351 39.0489 54.9057 38.5643 53.4752 38.2726C52.9901 38.4699 52.6038 38.7822 52.1517 39.0179C51.6996 39.2535 51.1669 39.327 50.4095 39.1663C49.9066 39.5162 51.0821 39.8076 51.4784 39.8628C50.8858 39.8939 50.096 39.8004 49.4683 39.6264C48.8334 39.4624 48.2757 39.338 47.9302 39.529C48.3937 39.6167 48.5468 39.7401 48.4847 39.8914C48.4959 39.8543 48.0663 40.0158 47.5595 40.1376C47.074 40.2295 46.5285 40.2789 46.3226 40.1031C46.6822 39.8921 46.3517 39.9134 46.8197 39.719C46.2765 39.3195 45.8193 39.3713 45.3474 39.3377C45.6156 38.7467 46.8813 39.8227 47.0273 38.98C45.9723 38.5185 45.3262 38.3916 44.6506 38.3489C43.9679 38.3162 43.314 38.349 42.3853 38.1121C41.6354 37.6865 41.1144 37.4678 40.4836 36.9162C40.5949 36.9499 40.8191 37.0787 40.7857 36.9349C39.5975 35.6433 39.6299 36.5522 38.8113 35.4172C37.8957 35.565 36.5085 34.7032 35.701 34.1467C35.8477 34.1304 35.9993 33.9373 36.176 33.9423C35.9876 33.869 35.7121 33.7491 35.6008 33.7153C35.5095 33.6958 35.4682 33.7116 35.3899 33.7162C35.2702 33.7367 35.1748 33.7442 35.0881 33.803C35.0031 33.9231 34.9124 34.009 34.854 34.0278C34.2935 34.2468 33.7354 34.3774 33.1557 34.4326L33.1853 34.3484C31.95 34.7356 30.9275 35.1832 29.5877 35.4212C29.9006 35.2973 29.9667 35.1189 29.9433 34.9822C28.1229 35.1353 27.0664 36.3098 25.2969 36.7093C24.7221 36.5878 23.8541 37.2198 23.753 36.5776C22.4533 37.2045 24.5643 37.0016 23.3283 37.5385L23.4549 37.508C22.1628 38.5908 20.6859 39.1073 20.9337 39.7332C20.6774 39.7771 20.2182 40.0227 20.2772 40.4699C20.6423 40.5481 20.8553 40.7139 21.1609 40.8551C21.1126 40.881 20.9804 40.9827 21.2164 41.1797C21.1858 40.6925 21.5052 41.0688 21.7102 41.0337C21.3606 41.2518 21.5812 41.5131 21.0269 41.5112C21.3309 41.9516 21.6963 41.7748 21.9334 41.5671C22.2217 41.3507 22.4318 41.139 23.0487 41.4555C23.088 41.6335 23.1372 41.8185 23.1935 41.9935C22.9392 41.8435 22.6704 41.9686 22.3824 41.93C22.5954 42.0958 23.4396 42.5582 23.9955 42.2608C24.2468 42.0332 22.9299 41.6868 24.1223 41.6147C23.9559 42.3379 24.963 41.594 25.4963 42.347C25.6162 42.0714 26.158 41.7941 26.6857 41.8973C26.7645 41.9981 26.6819 42.0298 26.6253 42.1099C27.606 42.1883 26.9177 41.5058 27.7996 41.4693C27.9843 41.6751 27.3021 42.1083 27.7944 42.2616C28.5781 42.576 28.2478 41.9818 29.1118 42.0978C28.8375 41.9337 29.0828 41.3113 29.5595 41.1682C29.6722 41.5182 29.7745 42.1163 28.9431 42.2937C29.4129 42.5211 30.2257 42.6459 29.5352 43.1333C30.547 42.4678 32.0247 42.1622 32.9571 41.2904C33.1672 41.4391 33.529 41.3948 33.9687 41.2404C34.0807 41.1245 34.1699 40.9774 34.2319 40.8261C34.311 40.6718 34.4811 40.4318 34.6086 40.2517C34.7502 40.0516 34.8947 39.8685 35.0722 39.7238C35.156 39.6479 35.2497 39.5791 35.3464 39.5274C35.4518 39.5269 35.5636 39.6662 35.6837 39.7512C35.8021 39.7749 35.8362 39.769 35.8274 39.7177C35.7999 39.6081 35.3146 39.0844 35.2558 38.9977C35.4184 39.0227 35.6102 39.2185 35.7873 39.3289L36.7704 38.9585C37.5797 38.9607 35.7308 39.7694 36.2614 39.8897L37.4091 39.711C38.3446 39.2168 37.724 39.0327 37.3813 38.8803C38.4175 38.9229 38.7594 38.2488 39.2783 38.3008C38.0135 38.7722 39.7106 38.772 38.1 39.3289L38.718 39.2407C38.6972 39.3762 38.4955 39.5338 38.2084 39.7061C37.9213 39.8783 37.6272 40.0605 37.5381 40.2077C38.3507 39.9719 38.7041 39.6213 39.1745 39.3386C39.2683 39.2698 39.3991 39.2122 39.4758 39.1464C39.3895 39.3106 39.2603 39.4294 39.1011 39.527C38.8441 39.7204 38.4127 39.8206 38.0428 40.2796C38.4229 40.1882 38.7542 40.0172 38.98 39.8467C39.3792 39.5586 39.5833 39.3126 39.592 39.3638C39.52 39.5081 39.418 39.6311 39.2859 39.7328C39.181 39.8387 39.0629 39.9204 38.9279 40.005C38.7717 40.1197 38.6113 40.2615 38.4626 40.4716C38.5426 40.5283 38.573 40.655 38.6997 40.6245C38.8193 40.604 39.0353 40.4264 39.3523 39.915C39.5926 39.4693 39.3492 39.8978 39.0113 40.1843L38.911 40.3685L38.9614 40.1489C39.2839 39.9267 39.7725 39.2362 39.8107 38.8428C39.7949 38.8015 39.8074 38.7203 39.8169 38.6219C39.824 38.6119 39.824 38.6119 39.8269 38.629C39.8282 38.5848 39.8293 38.5406 39.8164 38.5164C39.7989 38.4139 39.7568 38.2189 39.7651 38.1647C39.8297 38.2856 39.9043 38.4135 39.976 38.5243C40.1195 38.746 40.2842 38.9377 40.3481 39.2082C40.1875 38.9894 40.0412 38.7506 39.909 38.4918C39.8711 38.6302 40.1343 39.192 40.1417 40.2635C40.186 40.6253 40.2253 41.1637 40.3209 41.5167C40.4294 41.8938 40.5858 42.1397 40.822 41.7212L40.6831 41.2174C41.0097 40.968 40.9861 41.4469 40.9479 41.8404C40.8926 42.2367 40.8397 42.5447 41.2197 42.0928C41.2884 41.826 41.2079 41.6639 41.1528 41.4447C41.3921 41.7643 41.8647 41.2878 41.8368 40.0967C41.6913 40.0688 41.5558 40.0479 41.4203 40.0272L41.1799 40.1123C41.2034 39.6334 40.9609 39.5518 40.7708 39.4172C40.5736 39.2927 40.436 39.1052 40.2921 38.7781C40.3517 38.7151 40.2971 38.6014 40.4142 38.6693C40.6953 39.0784 41.273 39.5775 41.8298 39.4911C41.8557 39.5394 41.8757 39.5535 41.9057 39.5748C41.894 39.5064 41.8853 39.4552 41.8794 39.421C41.3608 39.114 42.3519 38.9445 41.9963 38.7679C42.1247 38.7987 42.2431 38.8224 42.3314 38.8249C42.6669 39.9634 43.1382 38.555 43.4323 40.6854C43.2193 40.5196 43.0192 40.378 42.822 40.2535C42.9349 42.3006 43.7078 41.7814 44.1498 42.5148C44.1233 42.9766 43.9322 43.6073 43.7724 44.2151C43.6155 44.8399 43.5027 45.4659 43.6509 46.1264C43.5389 46.6028 43.4761 46.9038 43.4899 47.1388C43.4938 47.3668 43.5668 47.4335 43.6414 47.5614C43.802 47.7802 44.0279 47.9701 44.0313 48.4531C43.7929 48.3444 43.6479 48.0616 43.5652 47.7327C43.526 47.5548 43.4926 47.411 43.4746 47.203C43.4578 46.9509 43.441 46.6987 43.4231 46.4908C43.3964 46.5921 43.3839 46.6733 43.3673 46.7817C43.3697 46.6933 43.348 46.6179 43.298 46.5825C43.0686 47.2461 43.2134 47.7841 43.2753 48.2484C43.3442 48.7026 43.3468 48.9748 42.892 48.5778C42.9773 48.2026 42.9913 47.8221 42.957 47.4675L42.8972 46.8094C42.8734 46.5672 42.8295 46.3109 42.7715 46.0746C42.5294 45.1224 42.2466 44.2914 42.0633 43.4258C42.1143 42.696 41.9266 42.1126 42.0681 41.552C41.6526 41.6934 41.2793 42.0299 40.9878 42.8448C41.2272 43.1644 41.4298 43.2176 41.6099 43.3451C41.79 43.4726 41.9305 43.6772 41.9779 44.4165C41.9289 44.9525 41.964 45.5181 42.0363 46.0949C42.0757 46.6333 42.125 47.1789 42.1668 47.629L42.5824 47.4876C42.7578 48.5128 42.4224 50.408 42.9055 50.4045C42.6654 50.2346 42.4876 50.6343 42.5194 51.0773L42.2474 50.4643C41.8978 50.6824 41.5974 52.0616 41.3359 51.5612C41.1138 52.9358 41.5826 52.9523 41.0809 54.2341C40.7903 55.2599 42.1873 56.0234 41.5235 57.7462C40.9501 57.941 41.4192 56.3658 40.728 57.0029C40.2393 58.6694 40.589 59.1722 40.9473 59.9815C41.2631 59.5142 41.3608 60.0339 41.6547 60.1067L41.3127 60.7808C40.9325 60.5116 41.5435 60.4335 41.1966 59.9477C40.8975 60.3066 40.7417 60.5268 40.5836 61.1958L40.3396 60.7978C40.0851 61.2635 40.3446 61.9577 39.8115 61.9258L40.1953 63.0385C39.5946 63.8447 40.0335 64.2005 40.0609 64.9257L40.4304 64.3613L40.086 65.1237C40.1813 65.7317 40.6714 64.7421 40.56 65.6845C40.1051 64.927 40.0006 66.4749 39.357 66.2596C39.4606 65.8374 39.7267 65.0796 39.3037 65.1256C39.2238 65.4295 38.7443 65.9161 38.3397 66.2755C38.4522 66.265 38.2685 66.6306 38.4282 66.6384C38.9879 66.569 39.5251 66.5738 40.0569 66.6499C40.2324 66.699 39.8902 66.6521 39.4872 66.7123C39.0913 66.7624 38.6375 66.9367 38.655 67.0393C38.4911 66.698 38.4688 67.1327 38.0841 67.1458C38.2514 67.6096 38.7519 67.7086 38.8495 67.8678C38.8654 67.909 38.982 67.8715 39.0121 67.8927C38.8629 67.9974 38.7037 68.0949 38.5274 68.1954C39.1475 67.9135 38.4775 68.5206 39.2155 68.1569C39.5039 67.9405 38.9759 68.0924 39.4463 67.8096C39.7214 67.8241 39.9864 67.8315 40.2586 67.8289C40.3298 67.8343 40.3882 67.8155 40.4665 67.8109L41.0704 67.7427C41.4505 67.6513 41.8393 67.6112 42.1965 67.4886C43.6467 67.0734 44.8748 66.3357 45.7067 65.2876C46.122 65.7618 46.7914 64.6888 47.166 64.3081C47.1217 63.9464 46.7587 64.0349 46.7488 64.3883C46.7715 63.6985 46.9202 63.4884 47.1501 62.9302C47.7044 62.9321 47.7888 62.3461 47.7582 61.8589C47.9246 62.1119 48.3701 61.9916 47.8189 62.7278C48.0589 62.5373 48.1229 64.1444 48.6834 62.9493C48.4279 61.5069 48.2595 60.1112 48.4028 58.6357C48.64 57.8125 48.3219 57.3921 48.6594 57.0002L48.857 57.2302C49.009 56.7821 48.675 56.6809 48.4849 56.5464C48.5118 55.8295 49.1033 56.2032 49.321 56.4473C49.1382 54.7111 48.3358 54.3384 48.1673 52.5821C48.308 52.1711 48.8691 52.418 48.6846 51.5966C47.9823 48.982 46.9396 47.1026 46.1985 44.4155L46.2962 43.5986L45.373 43.2905C44.6202 40.535 43.3382 38.3361 42.0736 35.5187C42.3054 35.7428 42.4209 36.1099 42.6647 36.1474C42.1239 35.299 40.8238 34.8443 40.5763 33.9633C40.3971 34.0467 40.9943 33.7335 41.1581 33.7143C40.4288 32.7926 39.5144 32.5358 38.7447 31.4804C38.8021 31.2507 39.2819 31.8457 39.2997 31.3326L38.8723 30.6847C39.3571 31.1029 39.0751 30.1224 39.231 30.2628C39.2544 30.3995 39.2353 30.5962 39.3912 30.7366C39.657 30.5944 39.3693 29.9401 39.3587 29.4671C39.1794 29.19 38.8738 29.0488 38.8681 29.3751C38.8341 28.7654 39.0298 29.1892 39.3056 29.0541C39.1157 28.3039 38.9149 28.3119 38.4906 28.4021C38.2306 28.5785 38.2305 28.5785 38.2245 29.1599C38.1467 28.2938 37.8151 27.3833 37.962 26.7514L37.4834 26.4727L37.5383 26.3314C37.3774 26.3677 37.2921 26.3823 37.245 26.364L37.2937 26.4436C35.5022 24.7099 34.7709 21.3089 33.5813 18.7248C33.4627 17.9801 33.3612 17.2324 33.2838 16.4718C33.9593 17.4906 34.2334 19.2464 34.6824 19.6093L34.4939 19.1755C34.6014 18.9812 34.6783 19.9969 35.1213 19.965L35.1995 19.2394C35.1508 18.1838 34.0783 18.9564 34.5322 17.806C35.0394 19.1262 34.7903 17.2077 35.3766 18.0132C35.5898 17.5634 35.0371 17.2623 34.5622 16.8511C34.6549 17.187 34.7375 17.5157 34.753 17.8121C34.4145 17.6325 34.4491 16.3956 33.8431 16.297C33.8151 16.082 33.8559 15.9606 33.9125 15.8806C33.887 15.5772 34.0587 15.3984 34.2262 15.2466C34.2016 15.1541 34.1841 15.0516 34.1336 14.9107C33.8277 15.0246 33.349 14.3854 33.3946 13.7269C33.4025 13.5672 33.7253 14.066 33.9391 14.0822C34.3737 12.7679 34.1707 11.6331 34.5278 10.1738C34.288 10.7249 33.893 10.9859 33.7538 11.0977C33.7104 10.9468 33.6912 10.783 33.689 10.6163C33.5506 10.5784 33.4981 10.2709 33.4542 10.0146L33.7052 10.4025C33.7405 9.99197 33.8028 9.58556 33.6306 9.29845C33.4217 9.10555 33.3113 8.92225 33.7896 8.47988C33.7864 8.71786 33.8739 8.86994 33.9627 8.97786C34.051 8.61981 34.118 8.29179 34.1391 7.90125C34.2787 7.89496 34.7142 7.76768 35.0295 7.19492L34.2772 7.21813C34.9891 6.08508 34.8928 6.24219 35.1281 5.61277C35.5165 5.46718 35.7444 5.10289 35.9164 4.66897C36.0955 4.22503 36.2958 3.75107 36.4565 3.35424L37.0587 1.88818L38.2007 3.37235C38.47 3.71319 38.6081 4.00614 38.3952 4.20085L37.9932 3.49582L37.3585 2.35575L36.6536 3.47874L36.4471 3.81309C37.1181 3.77744 36.8852 5.2946 37.4186 5.07144L37.6355 4.12865L37.0269 4.11841L37.3917 4.45175C37.2175 3.02183 38.7786 5.20812 39.221 4.71034C39.5455 5.27038 39.2189 5.88021 39.9235 6.34885C40.0212 6.86854 39.2957 6.17487 39.4522 6.78123C39.6945 7.11791 40.0071 6.8886 40.1365 7.4908C40.0452 7.47124 39.7967 7.35544 39.7388 7.47966C39.8358 8.14898 40.1962 7.78837 40.5853 8.46926L40.5589 8.31542C41.0841 8.50696 40.7168 9.23816 40.6093 9.43242C40.9679 9.98661 41.3195 10.5508 41.6539 11.1179C41.3254 10.9455 40.7462 10.13 40.6976 10.7715C39.9377 10.3387 40.425 7.99539 39.357 8.48589C39.2513 9.10192 40.1997 9.60802 39.8519 10.2479C40.3691 10.2385 40.6561 11.0424 41.0101 11.5183L40.8927 11.7055C41.171 12.8186 41.7807 11.448 41.987 12.7053C41.8695 12.8925 41.4152 12.6009 41.6092 13.324C41.7522 13.4402 41.9045 13.7132 42.1224 13.7023L42.1485 13.4955C42.4252 13.2107 42.5698 14.3643 42.6463 14.914C42.3673 14.6715 42.0652 14.6529 42.0574 15.173C41.8966 14.2332 41.012 14.6133 40.8705 13.8373C41.1465 14.0627 41.6355 14.8143 41.7699 14.2637C41.8881 13.5664 41.1966 13.122 40.8271 12.3498L40.9205 12.8966C40.1725 13.2532 39.979 11.6595 39.1525 11.6602C39.2276 11.8935 39.3281 12.0698 39.2014 12.1003C39.3677 11.9927 38.9444 11.3176 38.853 10.9375L39.3116 11.2021C39.5454 9.89581 38.7453 10.4108 38.5961 9.1788C38.9095 9.16036 39.6532 10.7831 39.6033 9.77161C39.2291 9.89718 39.2767 9.04482 38.9704 9.05326L39.2414 8.11874C38.8157 7.53206 38.2286 6.87625 37.8767 6.56712C38.2694 6.75495 38.3858 6.9725 38.7489 7.24453C38.2126 6.4745 38.92 5.62361 38.0763 5.26671L38.1557 5.83347C37.8462 5.10379 37.6315 4.87672 37.3142 4.66719C36.8637 4.60357 36.9606 5.27295 37.075 5.68427C36.9352 5.33006 36.7979 4.52698 36.4724 4.73214C36.482 4.63378 36.4774 4.55542 36.4557 4.47999L38.1656 4.50392C37.9286 4.71156 37.9128 5.03083 38.0334 5.22125C37.5279 5.65946 37.6846 5.28976 37.3849 5.18275C37.3191 5.4666 37.1141 5.86216 36.983 6.17479C36.8647 6.51159 36.8574 6.77668 37.1766 6.79241C37.3483 6.61355 37.4635 5.89917 37.7233 6.33837C37.1348 6.34232 37.8105 6.74552 37.5456 7.09862C37.3436 6.17469 36.7452 7.86874 36.58 7.21112C36.2214 7.99354 36.5144 8.21598 36.5384 8.81864L36.1491 8.75329C36.1504 9.06963 36.1177 9.39188 36.1461 9.71237C35.6623 9.8655 35.2336 9.26168 34.9484 10.2162C35.4234 10.9879 36.239 10.7692 36.4219 11.8899L35.8909 11.6642C35.7827 12.0081 35.9726 13.1187 36.3268 12.979C36.5722 12.7172 36.7959 12.3799 36.8483 11.9664L36.8275 12.1019C37.1007 12.6707 37.4874 11.1273 37.5024 12.2943C36.7829 11.9953 36.5151 14.0284 36.1978 14.7949C36.4518 15.2 36.8443 16.0034 37.1557 16.1788C37.3248 16.0883 37.3492 15.4598 37.7448 15.6647C37.4453 17.2548 38.7083 17.6983 38.4242 19.2242C38.3571 19.1917 38.2332 19.2392 38.3929 19.6076L38.2501 19.8519C38.3906 20.0565 38.537 20.2952 38.5408 20.5232L38.8404 21.6063C38.7537 21.6651 38.9851 21.7838 39.1852 21.9254C39.1777 21.83 39.1702 21.7346 39.1468 21.5979L39.1852 21.9254C39.3424 22.0217 39.4754 22.1309 39.4617 22.2563C39.9306 22.2728 39.4924 23.104 39.5542 23.5683C39.5325 23.4929 39.4437 23.385 39.3979 23.3225C39.5423 24.1156 40.4359 24.1473 40.2616 25.0301L40.1583 25.1973C40.1278 25.0706 40.0774 24.9298 40.0161 24.9315C40.0566 25.0653 40.0912 25.1648 40.1258 25.2644C40.1943 25.6132 40.2055 25.5762 40.2093 25.4436C40.4624 25.9983 40.6553 25.7894 41.0194 26.6328L40.9901 26.1014C41.1135 26.309 41.1781 26.4297 41.1856 26.5252C41.5851 26.9581 42.4424 28.1656 42.5673 29.05C43.3902 29.5423 43.5944 29.2964 44.2541 30.274L43.7543 30.3858L44.227 31.6064C43.9632 31.5548 44.0913 32.2012 44.4108 32.938C44.4008 32.9309 44.3979 32.9138 44.3879 32.9067C44.1047 33.6674 44.9193 34.214 45.2253 34.4606C45.4325 34.5922 45.8657 34.9138 45.7494 35.0568C46.1754 35.0279 46.4774 35.6622 46.8572 36.1864C46.8643 36.1764 46.8714 36.1664 46.8885 36.1635C46.9073 36.2218 46.9389 36.3043 46.9835 36.4109C47.0018 36.3638 47.0272 36.3067 47.0455 36.2596C47.0937 36.8493 47.8143 36.7437 47.7779 37.559C48.0659 38.5737 46.9331 37.6067 47.3386 38.7948L47.8347 39.176C47.8227 39.3627 47.7539 39.269 47.6597 39.2323C47.9737 39.6799 47.7979 40.2463 48.3564 40.2211C48.1827 39.2571 48.2727 38.9604 47.9523 38.0127C48.6661 38.9986 49.1629 38.8696 49.7096 39.7522C49.8492 39.7459 49.7216 39.5655 49.7407 39.3687C50.0647 39.8233 50.0215 40.3935 49.7089 40.2623C49.8891 40.7503 50.3901 40.5943 50.735 41.2739L51.4063 40.9832C52.1363 41.7552 52.2173 42.9989 52.3376 43.8049C52.0318 42.9427 51.25 42.4345 50.9698 41.8757C50.4615 42.2968 50.0886 41.7626 49.7767 41.1213C49.4676 40.497 49.1923 39.7615 48.9226 39.6757C48.9837 40.2896 48.1444 39.2901 48.5195 40.3515C49.2035 40.7005 49.0298 41.0732 49.373 41.6916C49.2186 42.228 48.5769 41.4584 49.1775 42.6044C49.0881 42.0305 50.0836 42.9154 49.5198 42.0358C50.7069 43.3716 50.6062 43.8109 51.4732 45.2806C50.9076 43.9792 52.2456 45.6321 52.2061 44.7331C51.7074 45.0559 50.9822 42.7705 51.433 44.5313C51.2261 44.1446 51.0463 43.762 50.8253 43.3953C51.0394 43.1564 51.6763 44.4632 51.5671 43.2596C52.2622 44.1871 52.1514 44.6194 52.9344 45.4439C52.518 45.3744 52.8136 46.4847 52.5211 46.7282C52.7096 47.162 53.2282 47.469 53.0454 48.0454L52.608 47.3904C52.7608 48.1293 52.3753 48.292 52.4352 48.9501C52.6178 49.3497 52.897 49.3371 53.047 49.0828C53.1528 50.1639 53.7141 51.1319 53.6266 52.3164C53.4811 50.9519 53.053 52.1507 52.8688 51.0742C52.8472 51.3593 52.8328 51.6344 52.7842 51.9153C53.6253 53.3367 54.4251 55.75 55.2092 56.1698C55.4188 57.1892 55.1254 57.5823 54.9305 57.985C54.7385 58.4047 54.6036 58.8499 54.9312 60.1481C54.894 59.7763 54.3791 60.3129 54.2144 60.1212C54.1249 60.5235 53.9227 61.1912 53.9703 61.6755C54.1757 61.3854 54.361 61.081 54.5293 60.7797C54.7056 62.0158 53.9488 63.6577 53.44 64.9495C53.4315 64.6432 53.0212 64.9684 53.163 64.1527C52.8733 64.0528 52.6035 64.9431 52.3856 65.3145C52.1947 66.3057 53.0352 65.9245 52.6455 67.0903C51.7699 68.6031 50.6147 70.0231 49.2047 71.1876C47.7847 72.3451 46.1383 73.2072 44.4806 73.7458C43.6525 74.0458 42.8082 74.199 41.9738 74.3593L40.4755 74.5453C39.8416 74.5922 39.2102 74.5507 38.5875 74.5605C37.3109 74.6031 36.126 74.4101 34.9115 74.3013L31.2303 73.8583C31.5217 71.7067 31.8273 69.5352 32.19 67.389C32.2732 66.8472 32.3664 66.3125 32.4837 65.7648L32.7663 64.5381C32.902 63.9433 33.0405 63.3656 33.1962 62.7849C33.7948 60.4753 34.4863 58.2466 35.1524 56.075L35.3849 56.1494C35.775 53.7524 36.302 51.332 36.685 48.945C36.7936 48.3461 36.885 47.75 36.9494 47.1498L36.9976 46.7634C37.0089 46.7263 37.0202 46.6893 37.0173 46.6722L37.0651 46.5409C37.1284 46.3454 37.19 46.0886 37.2128 45.7594C37.2277 45.5897 37.2398 45.403 37.2247 45.2121L37.2091 44.9158C37.2104 44.8716 37.238 44.9812 37.2267 45.0183L37.0955 45.3309C37.3595 44.7669 37.2591 44.9512 37.1292 45.2196C36.9951 45.5151 36.8752 45.7907 36.744 46.1033C36.6507 46.2776 36.7103 46.2146 36.7185 45.7999C36.5552 46.2851 36.5416 46.4106 36.5132 46.4506C36.4991 46.4706 36.489 46.4635 36.462 46.4593C36.4449 46.4623 36.4762 46.4394 36.4179 46.4582L36.1674 46.5362L35.6594 46.7022C34.9693 46.9346 34.2821 47.1841 33.6754 47.5956L33.4147 47.306C32.0365 48.5531 30.0476 47.3105 28.4007 48.0671Z" fill="#AD4419"/>
<path d="M38.2633 19.8039L38.3093 19.6223C37.8874 19.3566 38.0477 19.503 38.2633 19.8039Z" fill="#AD4419"/>
<path d="M42.2153 29.4783C42.4292 29.2396 42.3821 28.8613 42.2554 28.5316C42.1918 28.6215 42.0569 28.7061 42.0178 28.8885C41.7977 28.0126 41.3745 27.593 41.1027 26.6205C40.9937 26.7534 40.5972 26.5928 41.237 27.4057C41.3471 26.8685 41.4817 29.3491 42.2153 29.4783Z" fill="#AD4419"/>
<path d="M33.846 9.57105C33.8016 9.50251 33.7485 9.4463 33.6954 9.39014L33.846 9.57105Z" fill="#AD4419"/>
<path d="M34.3019 15.1689C34.3166 15.0026 34.3705 14.8641 34.4763 14.7771C34.5384 14.9388 34.4355 15.0426 34.3019 15.1689Z" fill="#AD4419"/>
<path d="M37.0866 26.1912C36.8683 25.854 36.5786 25.3595 36.7188 25.0322C36.96 25.6599 37.0366 26.0036 37.0866 26.1912Z" fill="#AD4419"/>
<path d="M38.2483 66.3346C38.2412 66.3447 38.2311 66.3376 38.2168 66.3577C38.5176 66.5101 38.0834 66.7174 38.2821 66.8429C38.0449 67.1139 37.8326 66.8577 37.78 66.654C37.8056 66.5965 38.0119 66.4548 38.2483 66.3346Z" fill="#AD4419"/>
<path d="M39.5207 39.5256C39.6331 39.3667 39.672 39.1856 39.7348 38.9916C39.7195 39.0553 39.7236 39.0284 39.7149 38.9775C39.7108 39.0044 39.7067 39.0313 39.7096 39.0483C39.7067 39.0313 39.7067 39.0313 39.6926 39.0512C39.6744 39.0979 39.6592 39.1616 39.6269 39.2282C39.5319 39.4888 39.3988 39.782 39.3008 40.0256C39.1389 40.507 39.0331 40.5513 39.1298 40.3515C39.1802 40.2382 39.2559 40.0682 39.3567 39.8416C39.4129 39.7622 39.4562 39.6588 39.5207 39.5256Z" fill="#AD4419"/>
<path d="M43.4057 47.2124C43.4182 47.0179 43.4189 46.862 43.4258 46.7417C43.4116 46.8724 43.4078 47.0105 43.4057 47.2124Z" fill="#AD4419"/>
<path d="M39.52 39.5115C39.5187 39.5585 39.6043 39.3472 39.7032 39.0493C39.6912 39.0888 39.6659 39.2149 39.52 39.5115Z" fill="#AD4419"/>
<path d="M40.0116 13.9606L39.8519 13.697L39.7761 14.3358C40.2727 15.2292 40.6283 15.1948 41.0674 15.3401C40.4856 14.567 40.5359 13.9855 40.1329 12.9175L40.0116 13.9606Z" fill="#AD4419"/>
<path d="M42.5 12.8655C42.5756 12.7374 42.7696 12.4206 42.7531 12.2727L42.4813 12.1863L42.5 12.8655Z" fill="#AD4419"/>
<path d="M33.9188 4.26144C34.1455 3.94117 34.3722 3.62093 34.646 3.31899C34.6451 3.10804 34.3962 3.24729 34.1649 3.48917C33.9536 3.74523 33.787 4.10806 33.9188 4.26144Z" fill="#AD4419"/>
<path d="M37.0768 6.69645L37.5172 7.02342C37.5412 6.53658 37.255 6.01338 36.9525 6.07407C37.3585 6.51416 36.878 6.26561 37.0768 6.69645Z" fill="#AD4419"/>
<path d="M32.7834 7.15652C33.1423 7.60618 32.3612 8.24206 32.7651 8.54303C32.6752 8.22358 33.2153 7.31173 32.7834 7.15652Z" fill="#AD4419"/>
<path d="M37.3782 7.60685C37.8789 7.49476 37.6411 6.98031 37.9161 6.52794C37.7621 6.91554 37.1129 7.34384 37.3782 7.60685Z" fill="#AD4419"/>
<path d="M33.7376 12.9556C33.3975 12.9256 33.3929 12.4858 33.4437 12.01C33.5586 12.1666 33.7261 12.2701 33.7884 12.4798C33.4694 11.6971 33.5463 11.6311 33.3907 10.979C33.1236 11.6329 33.0307 12.6359 32.6104 12.5491C32.9481 13.029 33.4646 13.5752 33.7376 12.9556Z" fill="#AD4419"/>
<path d="M37.1459 8.88714C37.3209 8.47016 37.7336 8.31165 37.8085 7.82384C37.5563 7.8406 37.1831 7.92201 37.0945 8.53532L36.7626 8.24026C36.3542 8.73236 37.2936 8.10537 37.1459 8.88714Z" fill="#AD4419"/>
<path d="M33.2938 16.0349L33.4193 15.6873C32.9579 14.9994 33.0064 13.9951 32.4649 13.6118C32.5747 14.5626 32.9837 15.6649 33.2938 16.0349Z" fill="#AD4419"/>
<path d="M36.2732 11.0259L36.8301 11.117C36.9064 10.474 36.6433 11.1667 36.5129 10.9228C36.5868 10.7327 36.6562 10.4635 36.5606 10.3201C36.6013 11.0763 36.1064 10.3623 36.2732 11.0259Z" fill="#AD4419"/>
<path d="M36.9776 13.1002L37.3066 13.8899L37.8375 13.1822C37.5152 12.2769 37.4863 13.1894 36.9776 13.1002Z" fill="#AD4419"/>
<path d="M36.717 14.1638L36.6298 14.266C36.9736 14.6434 37.2975 15.0067 37.6383 15.3672C37.1675 14.7061 37.2196 14.6536 36.717 14.1638Z" fill="#AD4419"/>
<path d="M38.8082 30.6219C39.0883 30.6537 38.9956 29.8011 38.9084 30.2237C38.6698 30.1759 38.8756 31.2751 38.8082 30.6219Z" fill="#AD4419"/>
<path d="M41.4286 25.8039C41.4204 26.2195 42.2457 27.18 42.6331 27.5896C42.2423 27.0572 41.6733 25.5857 41.4286 25.8039Z" fill="#AD4419"/>
<path d="M42.7628 27.7863C42.7279 27.7456 42.6716 27.6898 42.6016 27.6084C42.6534 27.6929 42.7097 27.7487 42.7628 27.7863Z" fill="#AD4419"/>
<path d="M54.086 48.6753C54.1092 48.7475 54.1448 48.8284 54.2191 48.8809C54.1536 48.816 54.1216 48.7562 54.086 48.6753Z" fill="#AD4419"/>
<path d="M53.829 48.1219C53.8004 47.7 53.4572 46.9661 53.1591 46.9039C53.4664 47.4784 53.6606 48.0027 54.1067 48.6755C54.0336 48.4005 54.1081 48.0219 53.829 48.1219Z" fill="#AD4419"/>
<path d="M54.6828 53.9476C54.4991 53.6511 54.5418 53.2273 54.3155 53.3546C54.2315 53.5374 54.5329 54.1594 54.6828 53.9476Z" fill="#AD4419"/>
<path d="M40.5263 63.2813C40.7756 62.8221 40.7671 62.5134 40.3853 62.561C40.2469 63.0987 40.5245 62.8562 40.5263 63.2813Z" fill="#AD4419"/>
<path d="M40.5099 61.9634L40.692 61.9411L41.0382 61.6872L40.5099 61.9634Z" fill="#AD4419"/>
<path d="M41.9891 58.7021C42.0422 58.7397 42.0715 58.8561 42.0901 58.965C42.0892 58.7411 42.0837 58.5459 41.9891 58.7021Z" fill="#AD4419"/>
<path d="M42.071 59.0979C42.0779 59.053 42.0801 58.9799 42.0704 58.9233L42.071 59.0979Z" fill="#AD4419"/>
<path d="M41.8866 59.2414L42.0551 59.3299C42.0431 59.2597 42.0499 59.1413 42.0494 59.0332C42.0499 59.1413 41.9947 59.2409 41.8866 59.2414Z" fill="#AD4419"/>
<path d="M42.1858 57.6596L41.4915 58.1887C41.5598 58.9529 41.9668 57.4741 42.3302 58.2949L42.1858 57.6596Z" fill="#AD4419"/>
<path d="M42.7147 55.329C43.0309 54.7127 42.4268 53.595 43.1162 53.3629C43.1534 51.4239 42.0196 53.5768 42.1954 51.4209C41.5061 53.3484 43.193 52.6821 42.4629 54.3706C43.0318 53.5881 42.6321 55.0005 42.7147 55.329Z" fill="#AD4419"/>
<path d="M41.5362 55.3511C41.8174 55.5348 42.0336 54.713 41.8906 54.3986C41.7977 54.6374 41.2816 54.9576 41.5362 55.3511Z" fill="#AD4419"/>
<path d="M43.1985 51.5925L43.5546 51.0461L43.379 50.8604C43.3232 51.1127 43.247 51.3505 43.1985 51.5925Z" fill="#AD4419"/>
<path d="M43.6956 49.395L43.9726 50.03C43.8654 49.8179 44.0096 48.9513 43.6956 49.395Z" fill="#AD4419"/>
<path d="M44.3844 45.4717C44.4843 44.4589 43.648 43.8971 43.8558 45.7296L43.8781 45.2939C44.0114 45.4033 44.2921 44.2627 44.3844 45.4717Z" fill="#AD4419"/>
<path d="M40.5361 38.3131C40.7663 38.4155 41.0809 38.4414 41.0947 38.315C40.8448 38.3046 40.5991 38.2668 40.3777 38.2161L40.5361 38.3131Z" fill="#AD4419"/>
<path d="M40.1016 39.2603C40.0454 39.8074 40.3874 40.0043 40.4816 40.6578C40.3586 39.9387 40.3917 39.9772 40.1016 39.2603Z" fill="#AD4419"/>
<path d="M39.9586 37.9494C40.1854 37.9284 40.5042 37.927 40.6882 37.9664C40.6503 37.8488 40.0619 37.9318 39.9586 37.9494Z" fill="#AD4419"/>
<path d="M40.032 38.2458C40.053 38.2161 40.0963 38.1128 40.1004 38.086C40.0298 38.0807 39.8198 38.1254 39.4747 38.2976C39.355 38.3617 39.2452 38.4327 39.1453 38.5108C39.2362 38.6346 39.2644 38.952 38.9904 39.2341L39.169 39.1077C39.9061 38.5286 40.0992 38.1298 39.9911 38.2615C40.003 38.0766 39.9658 37.961 39.8118 37.9263C40.0446 37.9126 40.0336 37.9494 40.0451 38.0171C40.0766 38.0989 40.0402 38.1922 40.032 38.2458Z" fill="#AD4419"/>
<path d="M40.2157 38.4538C40.1479 38.3155 40.0559 38.1902 39.9597 38.092C39.9857 38.1404 39.9355 38.1049 39.8624 38.0381C39.8482 38.0582 39.9118 38.2237 39.9365 38.3164C39.9194 38.3194 39.9034 38.278 39.8846 38.2195C39.8787 38.1852 39.8729 38.151 39.857 38.1096L39.8381 38.0511L39.8741 38.1067C39.9891 38.2633 40.1325 38.3799 40.2157 38.4538Z" fill="#AD4419"/>
<path d="M33.977 40.4256C33.641 40.5991 33.3152 40.7798 32.9834 40.9257L33.3371 40.8562L33.977 40.4256Z" fill="#AD4419"/>
<path d="M33.238 40.4903L33.1467 40.3196C32.9217 40.5089 32.7069 40.7054 32.4647 40.8976C32.7258 40.7642 32.9769 40.6237 33.238 40.4903Z" fill="#AD4419"/>
<path d="M32.0404 40.5914L32.164 40.588C32.3589 40.4838 32.5335 40.3653 32.7183 40.2539C32.5062 40.3611 32.2697 40.4813 32.0404 40.5914Z" fill="#AD4419"/>
<path d="M29.8999 40.9527L30.1439 41.1861C30.3979 41.0628 31.0069 41.2514 30.876 40.9011C30.6654 41.0702 30.0934 41.1503 29.8999 40.9527Z" fill="#AD4419"/>
<path d="M21.2894 47.788C21.6149 47.6703 21.4763 47.4813 21.3447 47.2823C21.1599 47.3936 20.978 47.5222 20.7832 47.6264C20.9298 47.6545 21.1969 47.662 21.2894 47.788Z" fill="#AD4419"/>
<path d="M19.5642 46.4665C19.1117 46.4912 18.5875 46.4052 18.0704 46.3092C18.8112 46.7886 19.2742 46.8763 19.6772 46.9215C20.1103 46.988 20.4646 46.9537 21.0558 47.0721C20.629 46.785 19.8096 46.9252 19.2029 46.5107L19.5642 46.4665Z" fill="#AD4419"/>
<path d="M27.301 30.3034C27.3253 30.6506 27.5084 30.5402 26.9323 30.9726C27.7515 30.4723 28.5379 30.2938 29.5199 29.9237C29.283 29.771 29.911 29.1804 29.5618 29.3983L28.5066 29.9566L28.5993 29.6771C27.7296 29.6766 28.2044 30.1928 27.301 30.3034Z" fill="#AD4419"/>
<path d="M52.029 30.7066C52.0925 30.5106 51.9007 30.42 51.716 30.3194C51.0705 30.7208 52.1644 30.6217 52.029 30.7066Z" fill="#AD4419"/>
</svg>
