<svg width="25" height="24" viewBox="0 0 25 24" fill="none" xmlns="http://www.w3.org/2000/svg">
<path d="M23.1782 12.5851C23.2845 12.8063 23.2532 12.562 23.3088 12.3797L23.1782 12.5851Z" fill="#E0E1DC"/>
<path d="M23.2935 12.4279C23.3295 12.3788 23.3602 12.3238 23.3908 12.2688C23.3384 12.3059 23.3134 12.3612 23.2935 12.4279Z" fill="#E0E1DC"/>
<path d="M23.7266 10.8494C23.8257 11.055 23.7995 11.2963 23.7601 11.4854C23.7205 11.6797 23.6823 11.8431 23.748 11.9905C23.8737 11.831 23.9523 11.5714 23.9526 11.3341C23.9531 11.0916 23.8541 10.8808 23.7266 10.8494Z" fill="#E0E1DC"/>
<path d="M23.5629 11.4174L23.6746 11.485C23.6279 11.363 23.5862 11.2465 23.5234 11.1343C23.5453 11.2291 23.5567 11.3234 23.5629 11.4174Z" fill="#E0E1DC"/>
<path d="M23.3697 11.6375L23.4229 11.6037C23.4199 11.4383 23.4017 11.267 23.3674 11.1105C23.3907 11.282 23.3881 11.4575 23.3697 11.6375Z" fill="#E0E1DC"/>
<path d="M22.6653 9.83191C22.8045 9.83295 22.9581 9.86042 23.1107 9.90849C23.2885 10.0867 23.1797 10.0973 23.0865 10.1035C22.9882 10.1094 22.8944 10.131 22.9886 10.2177C23.1958 10.3147 23.2793 10.2926 23.383 10.2818C23.466 10.27 23.661 10.2941 23.7573 10.6802C23.8261 10.642 23.7335 10.2871 23.4647 10.0687C23.2166 9.84616 22.9564 9.78296 23.059 9.67919C22.7345 9.55124 22.7269 9.60764 22.7503 9.66027C22.7733 9.72321 22.8162 9.80252 22.6653 9.83191Z" fill="#E0E1DC"/>
<path d="M7.57443 6.0949C7.56713 6.06925 7.55907 6.06045 7.54297 6.04285C7.54109 6.08498 7.54802 6.11905 7.57443 6.0949Z" fill="#E0E1DC"/>
<path d="M3.64835 7.79447C3.56875 7.81896 3.52734 7.86756 3.47498 7.91009C3.50856 7.91158 3.54238 7.9075 3.57646 7.8978C3.60059 7.85963 3.61887 7.8268 3.64835 7.79447Z" fill="#E0E1DC"/>
<path d="M9.64431 8.26782C9.65096 8.35097 9.65783 8.42894 9.67034 8.49681C9.68815 8.44583 9.68621 8.37325 9.64431 8.26782Z" fill="#E0E1DC"/>
<path d="M12.0582 21.1035C12.072 21.0787 12.0795 21.0537 12.0748 21.0154C12.0748 21.0154 12.0685 21.0151 12.0624 21.0085L12.0075 21.1013L12.0582 21.1035Z" fill="#E0E1DC"/>
<path d="M4.57808 11.0018C4.64649 11.0317 4.70978 11.056 4.77354 11.0695C4.66862 11.0166 4.61044 10.9979 4.57808 11.0018Z" fill="#E0E1DC"/>
<path d="M10.3129 10.1823C10.3038 10.1503 10.2945 10.1236 10.2852 10.0968C10.2838 10.1283 10.2874 10.1654 10.296 10.2079L10.3129 10.1823Z" fill="#E0E1DC"/>
<path d="M5.0483 7.10894C4.97795 7.1272 4.92338 7.15149 4.87925 7.18162C4.94402 7.16846 4.99349 7.13859 5.0483 7.10894Z" fill="#E0E1DC"/>
<path d="M17.3426 11.5229C17.2439 11.5721 17.1765 11.6388 17.1357 11.7121C17.2114 11.6994 17.2885 11.6546 17.3426 11.5229Z" fill="#E0E1DC"/>
<path d="M15.7121 12.9532L15.7218 12.9358C15.678 12.916 15.6772 12.9338 15.7121 12.9532Z" fill="#E0E1DC"/>
<path d="M14.8222 13.6039L14.8354 13.5918C14.8112 13.5654 14.8049 13.5651 14.8222 13.6039Z" fill="#E0E1DC"/>
<path d="M17.1355 11.7038C16.9391 11.7411 16.6967 11.5459 16.7401 11.9526L16.8066 11.9556C16.6464 11.9843 16.5899 12.2175 16.4824 12.3306C16.5177 12.3424 16.5482 12.3489 16.5787 12.3553C16.6423 12.3069 16.722 12.2439 16.8542 12.1524C17.0468 12.0841 17.0352 11.8838 17.1355 11.7038Z" fill="#E0E1DC"/>
<path d="M7.58819 6.02903C7.56532 6.10024 7.68241 6.12516 7.58819 6.02903V6.02903Z" fill="#E0E1DC"/>
<path d="M8.71656 6.81727L8.63281 6.67261C8.64743 6.72399 8.66768 6.77563 8.71656 6.81727Z" fill="#E0E1DC"/>
<path d="M11.3194 13.0438C11.3121 13.0182 11.3128 13.0013 11.3052 12.9841C11.2454 12.9983 11.2776 13.0335 11.3194 13.0438Z" fill="#E0E1DC"/>
<path d="M8.54688 6.55969L8.62942 6.68453C8.61489 6.63983 8.59486 6.59487 8.54688 6.55969Z" fill="#E0E1DC"/>
<path d="M10.5599 10.9652C10.5606 10.9508 10.5612 10.9365 10.5547 10.9219C10.554 10.9362 10.5534 10.9505 10.5599 10.9652Z" fill="#E0E1DC"/>
<path d="M17.9527 2.79846C18.0486 2.94621 18.002 3.07222 18.041 3.23281C18.3882 3.48912 17.7593 2.53873 18.1458 2.95052C18.0806 2.80414 18.0089 2.68822 17.9256 2.60252C17.901 2.69367 17.8655 2.79967 17.8305 2.89547C18.0242 3.15006 17.8097 2.67422 17.9527 2.79846Z" fill="#E0E1DC"/>
<path d="M10.5548 20.67L10.5991 20.6973C10.5832 20.6003 10.6149 20.5713 10.4461 20.4929C10.2635 20.6114 10.4701 20.8639 10.1461 20.971C10.2072 20.9636 10.2873 20.9875 10.367 21.0163C10.2722 20.8702 10.419 20.7602 10.5548 20.67Z" fill="#E0E1DC"/>
<path d="M10.3398 21.016C10.3449 21.0216 10.3449 21.0215 10.3447 21.0269C10.3544 21.0487 10.3641 21.0706 10.3795 21.0873C10.4219 21.0945 10.4693 21.1127 10.5006 21.1301C10.4755 21.0915 10.4132 21.0514 10.3398 21.016Z" fill="#E0E1DC"/>
<path d="M17.221 8.45878C17.1678 8.51278 17.1259 8.56729 17.0792 8.60467C17.1768 8.56392 17.2075 8.50891 17.221 8.45878Z" fill="#E0E1DC"/>
<path d="M2.84948 13.1051C2.77257 13.0809 2.69071 13.0512 2.62891 13.0381C2.73556 13.0948 2.80255 13.1082 2.84948 13.1051Z" fill="#E0E1DC"/>
<path d="M13.2183 20.4447C13.2679 20.436 13.3121 20.427 13.3622 20.4074C13.3848 20.392 13.4073 20.3765 13.4356 20.3559L13.2183 20.4447Z" fill="#E0E1DC"/>
<path d="M4.38696 16.4688C4.63997 16.5991 4.34978 16.3739 4.504 16.0495C4.4729 15.9342 4.4472 15.814 4.42149 15.6938C4.37842 15.8472 4.36096 16.0069 4.35451 16.1515C4.36518 16.2607 4.37584 16.3699 4.38696 16.4688Z" fill="#E0E1DC"/>
<path d="M17.9122 2.58609C17.9056 2.59213 17.8993 2.59186 17.8864 2.59762C17.8924 2.60422 17.8985 2.61085 17.9045 2.61745L17.9122 2.58609Z" fill="#E0E1DC"/>
<path d="M9.07672 10.7937C9.11398 10.7849 9.15124 10.776 9.18851 10.7671C9.15697 10.7657 9.12496 10.7748 9.07672 10.7937Z" fill="#E0E1DC"/>
<path d="M11.486 21.2135C11.7325 21.1938 11.9747 21.1534 12.2214 21.1286L11.9976 21.0982C11.9098 21.2324 11.5743 21.0691 11.486 21.2135Z" fill="#E0E1DC"/>
<path d="M4.58674 18.3696C4.63236 18.0411 4.7784 17.8926 4.53759 17.3861C4.48457 17.3011 4.28444 17.504 4.36798 17.1358C4.45101 17.2428 4.56543 17.3409 4.66976 17.4333C4.63909 17.1944 4.66581 16.9425 4.63491 16.7087C4.61478 16.4651 4.54597 16.271 4.49422 16.0414C4.53594 15.8006 4.56265 15.5487 4.64961 15.3357C4.65132 15.4132 4.65841 15.4858 4.68073 15.5643C4.74891 15.3091 4.88788 15.0881 4.98023 14.8701C5.09742 14.6739 5.18368 14.4764 5.20971 14.24C5.21083 14.4466 5.28238 14.8113 5.49477 14.4489L5.6027 14.1129C5.67509 14.1109 5.6162 14.2736 5.92127 13.8017C5.72426 13.8187 6.15704 13.3784 6.38107 13.4504C6.2205 13.3451 5.90745 13.5325 5.76841 13.4075C6.24298 13.0723 5.82552 12.8214 6.29149 12.5632L6.3453 12.7464C6.67542 12.5235 6.84646 12.2781 6.99619 12.0472L7.01782 12.1411C7.63625 11.8227 7.90179 11.4265 8.4479 11.456L8.69763 11.1831C8.65112 11.2998 8.70712 11.3178 8.86897 11.2785C9.11627 11.1759 9.36142 10.7737 9.19133 10.7661C10.0676 10.5728 10.1185 10.1257 10.988 9.73583C11.0516 9.92975 11.355 9.61274 11.298 9.84777L11.4991 9.62432C11.4668 9.65387 11.5225 9.677 11.5481 9.68331C11.6671 9.67828 11.6757 9.60122 11.6845 9.51898L11.6827 9.56019L12.0466 9.3905L11.9759 9.23759L12.2917 9.22068C12.2383 9.49201 11.7947 9.5962 11.826 9.81966C11.9467 9.77856 12.5004 9.75159 12.6802 9.3103C12.9172 9.20724 13.1645 9.10462 13.3916 8.99079C13.4765 9.05655 13.3846 9.03182 13.6163 8.93369C13.8205 8.87049 13.763 8.7698 13.9864 8.62482C13.9318 8.68953 13.9045 8.72444 13.9026 8.76568C14.2129 8.64007 14.1349 8.41969 14.258 8.20827C14.1299 8.30069 14.0413 8.43616 13.9593 8.5358C13.9031 8.52297 13.9305 8.48805 13.9049 8.48174C13.823 8.58138 13.7411 8.68101 13.6541 8.78042C13.627 8.69142 13.7171 8.75741 13.4873 8.81431C13.69 8.66841 13.7481 8.64002 13.9424 8.45243C13.9664 8.26241 13.6872 8.38424 13.7674 8.20706C14.2564 7.77954 14.6846 7.44229 15.0296 7.11681C15.3847 6.79695 15.6925 6.49564 15.8937 6.15342C16.0149 5.98323 16.0696 5.79974 16.1451 5.61202C16.1693 5.41685 16.2351 5.21321 16.1932 4.99443C16.1762 4.56503 15.9441 4.09505 15.5602 3.66995C15.554 3.57672 15.5915 3.5474 15.5996 3.48063C15.6127 3.41924 15.6063 3.33116 15.5891 3.25293C15.5496 3.09623 15.4689 2.93771 15.397 2.92934L15.3975 3.03266C15.3511 3.03059 15.3384 2.96805 15.3077 2.96152C15.2771 2.95499 15.2574 2.93344 15.2325 2.91167C15.1877 2.87353 15.1214 2.85509 15.0332 2.98027C14.9721 3.07568 14.9265 3.17178 14.8962 3.27371C14.8254 3.23957 14.6371 3.29314 14.6368 3.18467C14.6188 3.24068 14.4342 3.32541 14.3125 3.39229C14.1853 3.46409 14.0887 3.5476 14.1492 3.6949C13.7104 3.92324 13.4219 4.024 13.0609 4.3591C13.078 4.32371 13.0585 4.29699 13.0585 4.29699C12.899 4.28472 12.9993 4.58358 12.7987 4.56431C12.793 4.46077 13.0994 4.19038 12.7831 4.33638C12.7703 4.50624 12.6032 4.66406 12.4173 4.77972C12.2312 4.90054 12.0403 5.01081 11.9625 5.01768C11.9003 5.13885 11.8381 5.26002 11.8425 5.39449C11.7079 5.5176 11.3931 5.62753 11.5241 5.35449C11.264 5.85934 11.0315 5.74567 11.2576 6.00364C11.1909 6.34152 11.0013 6.53966 10.867 6.77124C10.7278 6.99743 10.5835 7.2234 10.6253 7.56094C10.1582 8.42325 9.97116 9.37548 9.579 10.1791L9.6744 10.2402C9.43343 10.0849 9.28798 10.915 9.11575 10.6078C9.26691 10.9244 9.25494 11.4248 9.19569 11.7114L9.04096 11.5909C9.14331 11.0325 8.94408 11.4471 8.96833 10.7872C8.98619 10.85 8.98388 10.9015 9.03634 10.8832C9.013 10.7117 9.00902 10.4533 9.00481 10.2001C9.00598 9.94189 9.03787 9.69025 9.02998 9.51947L9.14462 9.61237C9.19264 9.34596 9.13928 9.15251 9.07608 8.94828C9.01288 8.74406 8.90399 8.52228 8.93701 8.24487C9.22671 7.88594 9.03034 8.35232 9.32058 8.3291C9.47917 7.78358 8.5851 7.68179 9.24167 7.31855L9.22515 7.45723C9.51833 6.78859 9.2517 7.78895 9.59639 7.355C9.78006 6.82609 9.63882 6.86627 9.47628 6.921C9.3189 6.97596 9.11422 7.04948 9.25596 6.53419C9.40392 6.69055 9.55719 6.49595 9.76132 6.31913C9.5971 6.06392 9.9045 5.30813 9.8924 4.88411C9.93489 4.9738 10.1589 4.81337 10.3473 4.52739C10.3508 4.79609 10.2033 4.8618 9.96109 5.19702C10.0087 5.28694 10.0775 5.48111 10.2368 5.38491C10.1541 5.15399 10.3344 4.81599 10.4943 4.47194C10.6796 4.13934 10.8747 3.81754 10.8286 3.57792C10.7835 3.77733 11.1513 3.51999 11.2294 3.6216C11.2501 3.39012 11.5029 3.16382 11.5489 3.05742L11.2839 3.21088C11.7674 2.90706 12.1287 2.21563 12.7098 1.80771L12.7378 1.87609C12.921 1.7035 13.1032 1.5567 13.286 1.39442C13.3773 1.31586 13.4789 1.23774 13.5854 1.16502C13.728 1.0939 13.9376 1.02578 14.1313 0.967276C13.7911 1.18452 14.2063 1.25466 14.349 1.29717C14.4428 1.39431 14.1759 1.589 14.0142 1.74189C13.9231 1.8153 13.8838 1.88584 13.8923 1.92754C13.9059 1.96946 13.9418 1.97621 14.1233 1.95848C14.5393 1.66199 14.7776 1.18199 15.6455 1.06056C15.9459 0.810559 15.2752 0.909811 15.0457 0.961556C15.219 0.896977 15.4176 0.843824 15.6211 0.796085C15.7202 0.774678 15.8245 0.753514 15.9238 0.726953L16.0751 0.69237L16.1481 0.674981C16.1688 0.675899 16.1775 0.712425 16.1974 0.728807C16.4301 1.0697 16.6398 1.34759 16.808 1.3964C16.6272 1.16627 16.5812 1.04029 16.6301 0.985661C16.6191 1.00066 16.8216 1.09231 17.0672 1.25819C17.3127 1.42922 17.6022 1.65389 17.6656 1.85296C17.4582 1.75592 17.6165 1.91272 17.3538 1.78223C17.531 2.20845 17.7609 2.49756 17.8954 2.60684C17.827 2.63478 17.7715 2.60651 17.722 2.55783C17.6925 2.52552 17.6775 2.51452 17.6388 2.45599C17.6052 2.39769 17.5665 2.33914 17.5278 2.28061C17.3837 2.03663 17.2318 1.85428 17.1213 2.01462C17.298 2.33752 17.4696 2.66018 17.5526 2.76717C17.6596 2.91654 17.7461 3.05985 17.8491 3.18322C17.9518 3.31175 18.0653 3.43042 18.172 3.58494C18.2734 3.74439 18.3785 3.93499 18.4813 4.17714C18.5279 4.40645 18.5284 4.62851 18.5503 4.8309C18.5561 4.93445 18.5618 5.03801 18.5569 5.14625C18.547 5.25426 18.5211 5.37188 18.4952 5.4895C18.4878 5.42204 18.4999 5.26764 18.451 5.32227C18.3003 5.80618 18.303 5.97673 18.2858 6.1309C18.2689 6.27991 18.2781 6.41976 18.0423 6.72944C18.1441 7.2246 17.6396 8.11622 17.2302 8.49563C17.244 8.41878 17.1804 8.33849 17.2052 8.24664C16.6016 9.15966 16.055 9.95127 15.164 10.3609L15.1658 10.3197C14.6856 10.6649 14.2785 10.9928 13.6985 11.2613C13.8317 11.1692 13.8407 11.0818 13.817 11.0342C13.0294 11.3245 12.6411 11.9269 11.8214 12.2416C11.5532 12.2348 11.1512 12.5629 11.1015 12.2869C10.4925 12.6265 11.4929 12.4283 10.8908 12.7269L10.9536 12.709C10.293 13.2786 9.51162 13.4297 8.95456 13.9937C8.76248 14.0161 8.44624 14.0433 8.14281 14.2467C8.12893 14.4423 7.96557 14.6313 7.87369 14.839C7.72031 14.9199 7.57724 15.0013 7.42065 15.1544C7.73988 15.0602 7.35993 15.3583 7.37641 15.452C7.34413 15.2492 7.16829 15.3704 7.28515 15.0658C6.76866 15.4146 7.3946 15.6232 7.08188 15.9192C7.00972 15.916 6.93241 15.9125 6.85486 15.9142C6.93001 15.8504 6.86245 15.7441 6.91835 15.6485C6.89705 15.663 6.85958 15.6924 6.82189 15.7268C6.79451 15.7618 6.76668 15.807 6.744 15.8525C6.67778 15.9477 6.67787 16.0613 6.73628 16.1413C6.84199 16.2029 6.95933 15.8879 7.00809 16.1844C6.86423 16.1677 6.84269 16.1874 6.8681 16.3125C6.88859 16.4322 6.90278 16.5774 6.75272 16.6998C6.87504 16.7362 6.99024 16.9325 7.00213 17.1293C6.96421 17.1689 6.94498 17.1371 6.90936 17.1251C6.93921 17.4983 7.17507 17.1886 7.24376 17.5015C7.16747 17.5911 6.95479 17.3802 6.91491 17.5798C6.87467 17.9034 7.0898 17.7116 7.12126 18.0487C7.16308 17.9214 7.42034 17.9432 7.53314 18.0774C7.41561 18.1651 7.17186 18.304 7.01979 18.008C6.96399 18.2172 7.03714 18.5459 6.74623 18.3521C6.95651 18.501 7.14948 18.6903 7.33192 18.8844C7.55696 19.0493 7.75555 19.2286 8.00535 19.3017C7.99022 19.4095 8.09386 19.5174 8.23267 19.6475C8.47708 19.7255 8.81466 19.4514 8.91532 19.6263C9.0514 19.5859 8.94797 19.4728 8.98211 19.402L9.27762 19.4927C9.38767 19.6886 8.94808 19.5864 8.98689 19.7586C9.05537 19.8443 9.13485 19.9149 9.21995 19.9755C9.51305 20.0041 9.39683 19.7149 9.38711 19.5853C9.56163 19.841 9.75329 19.5965 9.88018 19.7622C9.49236 19.6572 9.9328 20.2036 9.44158 19.9854L9.61486 20.1532C9.57704 20.3065 9.25806 20.1632 9.156 20.2516C9.31119 20.3618 9.42882 20.3877 9.54175 20.4031C9.65984 20.4186 9.77907 20.4085 9.93586 20.4826C9.7669 20.6816 9.53936 20.341 9.28484 20.4897C9.45227 20.6728 9.65213 20.7075 9.79484 20.75C9.9427 20.7927 10.0442 20.8334 10.0846 20.9695C9.83651 20.9739 9.59797 20.6483 9.41377 20.8415C9.46357 20.9986 9.45987 21.3135 9.96383 21.3618C10.1474 21.2976 9.8973 21.1161 9.69905 21.0453L9.64407 21.1203L9.66666 20.9612C9.85231 21.0831 10.1932 21.0828 10.4089 21.1079C10.443 21.1559 10.4882 21.1837 10.5391 21.2015C10.5397 21.186 10.5355 21.1652 10.5259 21.1493C10.551 21.1659 10.5758 21.1876 10.5901 21.2141C10.8503 21.2877 11.1817 21.0339 11.4021 21.1883L10.9652 21.2566C10.9731 21.4274 11.2803 21.4876 11.6374 21.5861C11.793 21.5724 12.0366 21.5523 12.2195 21.5036C12.4071 21.4655 12.516 21.3412 12.4426 21.2501C12.3739 21.2832 12.3051 21.3215 12.2271 21.3335C12.2617 21.02 12.8151 21.3494 12.6544 21.0169C12.5777 20.998 12.5185 21.0521 12.4342 21.0897C12.5908 20.9366 12.4852 20.7563 12.2011 20.7591C12.1501 20.8601 12.0949 20.9403 12.0338 21.0357C11.738 20.8366 11.5921 21.2123 11.2492 21.0266C11.263 20.9497 11.203 20.9057 11.2767 20.8728C11.5666 20.9735 11.9441 20.8458 12.079 20.7175C11.7468 20.7543 12.0518 20.5149 11.8764 20.5122C12.1148 20.4919 12.14 20.3897 12.1702 20.2929C12.2003 20.1962 12.2255 20.094 12.4401 20.0312C12.4104 20.1177 12.3805 20.2094 12.3403 20.3005C12.787 20.243 12.6377 19.8851 12.6979 19.6915C12.7658 19.6739 12.883 19.7101 13.0063 19.7259C13.1201 19.7207 13.2405 19.6847 13.3027 19.5636C13.6934 19.488 13.3734 19.2517 13.5072 19.0304C13.6395 19.1913 13.5238 19.4701 13.4149 19.5944C13.4358 19.5902 13.4517 19.5805 13.4676 19.5709C13.4566 19.5859 13.4508 19.6011 13.4602 19.6222C13.5279 19.6097 13.5967 19.5715 13.636 19.5009C13.6755 19.4252 13.7052 19.3388 13.7288 19.2727C13.7812 19.1407 13.8256 19.0704 13.9144 19.2809C13.8177 19.3644 13.7517 19.4544 13.6953 19.5604C13.634 19.6609 13.5683 19.7458 13.5169 19.8572C13.46 19.9734 13.4034 20.0845 13.3412 20.2057C13.2645 20.3055 13.1774 20.4049 13.0749 20.5037C12.981 20.5253 12.8962 20.5732 12.817 20.611C12.7332 20.6382 12.6552 20.6502 12.5891 20.6266C12.5961 20.818 12.6241 21 12.8737 21.0783C13.1454 20.7753 12.9698 20.6591 13.332 20.4118C13.4833 20.3773 13.5882 20.227 13.7071 20.1083C13.8164 19.9738 13.9296 19.8652 13.9874 19.7284L13.8306 19.6542C13.9049 19.4923 14.043 19.2919 14.1487 19.121C14.2505 18.9241 14.3051 18.7406 14.2137 18.7056C14.2764 18.8065 14.41 18.704 14.4638 18.5411L14.4727 18.8049C14.6587 18.8028 14.9436 18.3198 14.9801 18.5435C15.2449 18.0491 15.0408 17.9936 15.3236 17.5569C15.3886 17.3738 15.3141 17.1898 15.1823 17.0186C15.1242 16.9334 15.0714 16.8432 15.0394 16.7489C14.9864 16.6639 14.9854 16.5709 15.0001 16.4734C15.227 16.3647 15.1704 16.8218 15.4019 16.6101C15.4242 16.3425 15.3423 16.2098 15.242 16.1433C15.1576 16.0673 15.0079 16.0658 14.8891 16.0656C14.8529 16.1828 14.7355 16.1517 14.6243 16.2139C14.6416 16.1734 14.6223 16.1415 14.6244 16.0952C14.7829 16.0144 14.6212 16.1673 14.8039 16.1238C14.8371 16.0736 14.8338 16.0322 14.8253 15.9905C14.8168 15.9488 14.8086 15.902 14.7437 15.8526C14.7959 15.8394 14.8481 15.8262 14.9055 15.8133C14.8773 15.7501 14.8063 15.7211 14.7613 15.6881C14.706 15.6547 14.6715 15.617 14.7326 15.5216C14.6031 15.5313 14.4679 15.5511 14.3377 15.5763C14.1697 15.2899 13.9822 15.4416 13.7348 15.4306C13.7889 15.4898 13.8485 15.5441 13.8975 15.6031L13.6621 15.4377C13.444 15.4641 13.7542 15.6897 13.432 15.6185C13.739 15.4515 13.1748 15.3644 13.2741 15.1054C13.437 15.1591 13.7098 15.2952 13.7127 15.1146C13.5955 15.0784 13.4456 14.8497 13.288 14.6774C13.3064 14.7298 13.0225 14.6087 12.994 14.6694C13.0195 14.9081 13.035 15.1412 13.0502 15.3795C12.8752 15.4801 12.7954 14.7225 12.5691 14.7021C12.9516 14.6934 12.5158 14.6223 12.6204 14.4772C12.1385 14.5125 11.6039 14.6901 11.1268 14.6172L11.2769 14.4948C10.9368 14.5933 11.0511 14.3453 10.6272 14.471C10.4635 14.5515 10.966 14.5171 10.6721 14.6228C9.83873 14.5495 8.97867 14.4957 8.09731 14.4564C7.64397 14.4311 7.20094 14.4061 6.75768 14.3864C6.29403 14.3606 5.79145 14.2814 5.33033 14.1988C5.43436 13.9504 4.61268 13.8467 4.34308 13.6384C4.13553 13.6602 4.25726 13.8257 4.46881 13.8299C4.05132 13.8113 3.87276 13.7621 3.49893 13.575C3.45372 13.3147 3.12215 13.2225 2.82757 13.1112C2.98873 13.0874 2.91499 12.8879 3.33816 13.2425C3.24529 13.1247 4.10728 13.2509 3.46247 12.8865C2.72165 12.8225 1.84399 12.4683 1.24539 11.6463C1.11233 11.3874 0.996207 11.2118 0.899554 11.0629C0.813439 10.9093 0.773488 10.7629 0.780378 10.6082L0.919642 10.7281C0.861034 10.4207 0.722093 10.4094 0.606532 10.3371C0.510493 9.82672 0.82018 10.0626 0.923136 10.186C0.857536 9.91965 0.800186 9.70018 0.736984 9.49595C0.689245 9.29242 0.671507 9.11088 0.643925 8.91857C0.632596 8.8251 0.621489 8.72648 0.615774 8.62294C0.625291 8.52524 0.634818 8.42755 0.655333 8.31485C0.675619 8.2073 0.70152 8.08967 0.737957 7.96735C0.76947 7.83964 0.821598 7.71286 0.899268 7.59238C1.09309 7.41509 1.184 7.69285 1.4153 7.25386C1.61108 6.91656 1.83549 6.63219 2.04983 6.3422C2.28294 6.09437 2.51606 5.84652 2.76371 5.62C3.02053 5.4197 3.28742 5.22501 3.56954 5.03617C3.86645 4.86348 4.16805 4.70135 4.53482 4.58341L4.95253 4.59686C5.03089 4.46091 5.11955 4.32542 5.20822 4.18993C5.96808 4.05853 6.7512 3.98496 7.55821 4.18618C8.35938 4.40264 9.06922 4.93007 9.51 5.58493C9.38528 5.48642 9.27384 5.32134 9.15484 5.32636C9.53208 5.66853 10.1473 5.88703 10.2983 6.32241C10.372 6.28955 10.1234 6.42306 10.0507 6.43015C10.3927 6.86887 10.7831 7.03089 11.0954 7.55608C11.0651 7.65801 10.8769 7.36041 10.8563 7.59188L11.018 7.9038C10.8208 7.6936 10.9142 8.14705 10.8504 8.07191C10.848 8.00983 10.862 7.92784 10.7928 7.85762C10.6769 7.90926 10.7769 8.21327 10.7678 8.41943C10.8342 8.5515 10.9547 8.62917 10.9714 8.48531C10.9595 8.75333 10.896 8.55425 10.7752 8.60051C10.8273 8.93852 10.9097 8.94218 11.0913 8.92444C11.2079 8.85734 11.2079 8.85734 11.2344 8.61063C11.2326 8.99788 11.3335 9.40005 11.2496 9.6597L11.4397 9.79728L11.4114 9.85282C11.4789 9.8455 11.5152 9.84194 11.5356 9.84801L11.5166 9.81101C12.2049 10.5905 12.4355 12.021 13.2239 12.4073L13.4681 12.7229L13.7148 12.9818C13.3235 12.954 12.8647 12.3552 12.7045 12.3584C12.7443 12.3911 12.7687 12.4232 12.8189 12.4564C12.7897 12.5326 12.673 12.2537 12.51 12.3187C12.5216 12.407 12.5387 12.4853 12.5555 12.5738C12.7458 12.9386 13.0058 12.4338 13.0512 12.9212C12.6171 12.5817 13.0808 13.1859 12.7156 13.0354C12.7325 13.2376 12.9902 13.2491 13.2441 13.2294C13.1335 13.1625 13.0394 13.0705 12.9768 12.9696C13.116 12.9758 13.384 13.3337 13.5868 13.1879C13.636 13.2417 13.6544 13.2941 13.6584 13.3202C13.7282 13.3749 13.7293 13.4679 13.7253 13.5555C13.7504 13.5722 13.786 13.584 13.8317 13.6016C13.8504 13.5301 13.934 13.508 14.0024 13.4801C14.0708 13.4521 14.1434 13.445 14.1985 13.4836C14.2337 13.5059 14.1014 13.5775 14.0616 13.6583C14.1193 13.7538 14.1995 13.8091 14.2911 13.839C14.3368 13.8565 14.3825 13.874 14.4285 13.8864L14.573 13.8877C14.6761 13.8922 14.7702 13.8655 14.8752 13.8288C14.9794 13.8077 15.0958 13.7457 15.2269 13.6999C15.0023 13.757 14.8476 13.6365 14.8033 13.5881C14.8304 13.5583 14.8625 13.5339 14.9105 13.4999C14.8921 13.4474 14.9525 13.3675 15.0019 13.3025L14.9639 13.4609C15.0751 13.3988 15.1919 13.3265 15.2234 13.1988C15.2182 13.085 15.2109 13.0175 15.4583 13.0285C15.4033 13.1035 15.3907 13.1546 15.3931 13.2167C15.5043 13.1545 15.6066 13.0609 15.7044 12.9517C15.7494 12.9847 15.9217 13.0595 16.165 12.9309L15.8935 12.7639C16.3834 12.5481 16.3005 12.5548 16.5147 12.3836C16.7666 12.4103 16.9894 12.162 17.1909 11.9282C17.3975 11.6947 17.5927 11.4865 17.7271 11.6009L17.3054 11.9075C17.5864 11.9768 17.2552 12.5715 17.4986 12.5565C17.6153 12.3706 17.7417 12.2007 17.8682 12.0256C17.2574 12.1739 18.1443 11.3923 17.9188 11.2376C18.1534 11.0725 18.4227 11.1723 18.6225 10.861C18.8523 10.8041 18.5588 11.1319 18.8209 11.0454C18.9604 10.9277 18.8579 10.794 19.1193 10.7231C19.1123 10.7641 19.0662 10.8704 19.122 10.8936C19.4138 10.8343 19.2448 10.6873 19.537 10.5041L19.4691 10.5217C19.541 10.2977 19.871 10.426 19.957 10.466C20.1918 10.2957 20.4367 10.131 20.6966 9.97735C20.618 10.1185 20.2655 10.3816 20.5492 10.3891C20.3691 10.7219 19.337 10.5881 19.5707 11.022C19.8381 11.0494 20.0478 10.6301 20.3312 10.7615C20.3204 10.539 20.6675 10.3995 20.8759 10.2436L20.9565 10.2885C21.4528 10.1608 20.8442 9.91163 21.4213 9.82373C21.5017 9.87379 21.359 10.0637 21.6926 9.99591C21.7518 9.94174 21.8885 9.88585 21.8978 9.7933L21.8006 9.77349C21.6772 9.64405 22.2517 9.618 22.5588 9.67817C22.39 9.75844 22.3538 9.87562 22.5933 9.94826C22.1207 9.89105 22.226 10.3089 21.8899 10.3197C21.9931 10.2055 22.3764 10.0625 22.1381 9.9641C21.8171 9.86717 21.5772 10.1509 21.2397 10.3063L21.4789 10.2704C21.6146 10.5863 20.9348 10.6593 20.9393 11.021C21.0389 10.9893 21.108 10.9459 21.1263 10.9984C21.0829 10.9293 20.7956 11.1179 20.6335 11.1623L20.7406 10.9606C20.1755 10.8941 20.4089 11.2195 19.8777 11.3197C19.863 11.1848 20.5557 10.8232 20.1143 10.8758C20.1747 11.0283 19.8076 11.0378 19.8122 11.1671L19.3977 11.0815C19.1465 11.2717 18.8855 11.5648 18.7601 11.7141C18.8297 11.5416 18.925 11.4891 19.0305 11.3233C18.8697 11.4556 18.6947 11.4426 18.5392 11.4564C18.3885 11.4755 18.2527 11.5107 18.1929 11.694L18.4383 11.6326C18.1365 11.7999 18.0391 11.8989 17.9603 12.0451C17.9464 12.2408 18.2341 12.1606 18.4125 12.0963C18.2648 12.1671 17.9242 12.2759 18.0218 12.4042C17.8152 12.4053 17.709 12.5865 17.7295 12.7062C17.4452 12.8278 17.5753 12.689 17.4759 12.602C17.3219 12.812 16.8187 13.0943 17.0557 13.2236C17.1758 13.1928 17.3698 12.8968 17.3749 13.1294C17.1467 13.0366 17.3149 13.3178 17.1194 13.4175C17.267 13.0006 16.6264 13.5867 16.7278 13.2813C16.3927 13.4988 16.4474 13.6613 16.2565 13.8904L16.1484 13.7668C16.0503 13.8812 15.9373 13.9846 15.8289 14.0986C15.6376 13.9868 15.7072 13.7006 15.3283 13.8593C15.1733 14.2088 15.4712 14.4751 14.8692 14.7736C14.8935 14.6921 14.9176 14.6157 14.9369 14.5288C14.8486 14.5403 14.6666 14.5684 14.5144 14.6236C14.3579 14.6579 14.2223 14.688 14.2392 14.7714C14.3037 14.8311 14.389 14.8865 14.4903 14.9324C14.5922 14.9627 14.7157 14.9734 14.8506 14.9588L14.7625 14.9651C14.578 15.0499 14.7411 15.0985 14.8688 15.13C14.9965 15.1615 15.0776 15.1961 14.6459 15.2647C14.696 15.1843 14.6364 15.1299 14.5352 15.0841C14.429 15.0329 14.272 14.9639 14.1096 14.8999C13.7857 14.7512 13.4552 14.5196 13.3805 14.3407C13.2729 14.3204 13.0937 14.2865 12.9515 14.2337C12.8092 14.1809 12.6665 14.1384 12.5836 14.145C12.5492 14.221 12.7652 14.4733 12.5628 14.4953C12.4467 14.3197 12.3179 14.1952 12.1986 14.0917C12.0898 13.9836 11.9747 13.901 11.8596 13.8184C11.7447 13.7307 11.6343 13.6586 11.5314 13.5352C11.4237 13.4013 11.3273 13.2473 11.2899 13.0442C11.3257 13.0509 11.3632 13.0216 11.2365 12.8507L11.2629 12.7228C11.1841 12.6366 11.0807 12.5236 11.0646 12.4196C10.9947 12.2512 10.9247 12.0828 10.8651 11.9149C10.9025 11.8856 10.7963 11.8344 10.7012 11.7682C10.7045 11.8096 10.7179 11.8567 10.7357 11.9195L10.7012 11.7682C10.6311 11.7186 10.5715 11.6642 10.5738 11.6127C10.373 11.5986 10.54 11.2135 10.5234 11.0062C10.5321 11.0428 10.5661 11.0908 10.5907 11.1177C10.5346 10.7537 10.1495 10.7055 10.2494 10.3175L10.299 10.2474C10.3065 10.3097 10.3246 10.3673 10.3502 10.3736C10.3372 10.3162 10.3241 10.264 10.3104 10.2221C10.2915 10.0663 10.2805 10.0813 10.2832 10.1382C10.1965 9.88133 10.105 9.96505 9.9828 9.57744L9.97763 9.80958C9.93538 9.71474 9.91213 9.6569 9.90882 9.61543C9.75307 9.40192 9.44801 8.83059 9.42869 8.45272C9.09862 8.21078 9.00664 8.30479 8.76169 7.89105L8.97508 7.8541C8.92058 7.68641 8.86607 7.51871 8.80104 7.35572C8.90859 7.376 8.86875 7.11083 8.72137 6.82539C8.7263 6.83077 8.72608 6.83594 8.73123 6.83617C8.82817 6.51513 8.45879 6.34374 8.32639 6.30169C8.23431 6.28209 8.05106 6.22227 8.07981 6.15642C7.92644 6.23738 7.76794 6.0857 7.58984 6.02612C7.58961 6.03128 7.58422 6.03622 7.58399 6.04137C7.56899 6.03037 7.54906 6.01398 7.52398 5.99737C7.52845 6.01306 7.52729 6.03883 7.52637 6.05945C7.42502 5.9 7.28468 6.15196 7.1444 5.93913C7.01315 5.87131 7.04236 5.79516 7.07158 5.71899C7.09541 5.64775 7.13047 5.55637 6.91068 5.50527L6.70977 5.60992C6.64975 5.56593 6.69122 5.5626 6.71837 5.53282C6.5303 5.58125 6.3411 5.42306 6.29468 5.65339C6.65318 5.72101 6.73196 5.80717 7.01715 5.89734C6.65853 5.9485 6.64374 6.16475 6.35051 6.25497C6.34283 6.31143 6.41121 6.28348 6.46161 6.31155C6.30869 6.3822 6.12681 6.29145 6.18317 6.18551C6.01732 6.19878 6.03791 6.43211 5.82783 6.51054L5.93375 6.7993C5.82516 6.91841 5.67271 6.97876 5.51109 7.01287C5.34879 7.06245 5.17731 7.08579 5.04146 7.12106C5.31121 6.97814 5.43863 6.66877 5.62339 6.57888C5.45756 6.35975 5.63968 6.21294 5.87529 6.14081C6.11206 6.0429 6.36953 6.05955 6.41582 5.94799C6.20657 5.89219 6.62385 5.68354 6.22022 5.7017C6.04472 5.93145 5.92023 5.8278 5.67809 5.93063C5.47536 5.84413 5.79071 5.60512 5.32704 5.81169C5.55005 5.79064 5.21258 6.17841 5.5474 5.9661C5.29928 6.20294 5.14029 6.29399 4.97499 6.41057C4.81532 6.51708 4.64064 6.61256 4.42345 6.85078C4.83055 6.5229 4.38791 7.1849 4.7013 7.1059C4.51348 6.91678 5.3005 6.5232 4.6846 6.78496C4.80281 6.68178 4.93581 6.59473 5.05895 6.49693C5.15343 6.57861 4.72732 6.86949 5.15902 6.80093C4.88261 7.09332 4.72798 7.08642 4.5519 7.44525C4.51801 7.27848 4.16865 7.46949 4.04793 7.39698C3.94426 7.52147 3.955 7.74401 3.73737 7.76013L3.85172 7.51218C3.65343 7.67377 3.50386 7.55349 3.31211 7.68438C3.24898 7.82617 3.32778 7.91232 3.43086 7.91691C3.30703 8.03017 3.19729 8.17504 3.12901 8.31661C3.08112 8.46424 2.99267 8.59457 2.889 8.71906C3.0794 8.38669 2.70496 8.56109 2.86798 8.26365L2.65823 8.45055C2.63165 8.58364 2.68662 8.74103 2.70127 8.87596C2.71076 9.01066 2.78256 9.1378 2.8452 9.23872C2.87921 9.28671 2.90807 9.33448 2.93739 9.37193C2.98217 9.41008 3.0274 9.43794 3.07264 9.46578C3.16335 9.5163 3.24512 9.53543 3.32805 9.52879C3.44647 9.65285 3.37041 9.73725 3.32927 9.84904C3.32182 9.90035 3.31929 9.95704 3.36338 10.0107C3.39693 10.069 3.47173 10.1291 3.65613 10.1631C3.56989 10.1283 3.52416 10.3432 3.43516 10.3702C3.46425 10.4128 3.50273 10.4765 3.54144 10.535C3.59045 10.594 3.66077 10.6385 3.72731 10.6518C3.70075 10.5525 3.65827 10.4628 3.65748 10.3646C3.80488 10.4176 3.95514 10.5225 4.07825 10.6571C4.24375 10.7677 4.37064 10.9335 4.55344 11.0036C4.4602 11.0098 4.52008 11.1725 4.28483 11.1207C4.21254 11.2363 4.4762 11.3462 4.58145 11.418C4.88509 11.4419 4.79957 11.1592 5.12897 11.1842C5.93001 11.5194 6.7053 11.6211 7.82467 11.6503C8.90213 11.6931 10.0269 11.7174 11.1838 11.831C12.3405 11.9496 13.5315 12.1112 14.8057 12.6069C15.4347 12.8622 16.1214 13.213 16.7383 13.855C16.8912 14.0168 17.0387 14.1834 17.1638 14.3904C17.2998 14.5824 17.409 14.799 17.5024 15.0201C17.6942 15.4676 17.771 15.9462 17.777 16.3906L17.6739 16.386C17.7698 17.4799 17.4302 18.3789 17.0596 19.1629C16.8568 19.5412 16.6489 19.9192 16.4069 20.2493L16.2301 20.51C16.1695 20.5951 16.0773 20.6943 16.0007 20.789C15.8428 20.973 15.6796 21.1568 15.5116 21.3353C14.7798 21.9947 13.8918 22.5697 12.912 22.7688C11.9568 22.9947 10.975 23.0078 10.0855 22.8029L10.1079 22.8814C9.59476 22.5745 9.43291 22.6137 9.20784 22.6812C9.00407 22.7341 8.73216 22.8097 8.29525 22.2996C8.0727 22.3104 7.83653 22.2792 7.62465 22.1665C7.41254 22.0589 7.20202 21.9152 6.98682 21.7611C6.77678 21.6071 6.59457 21.4079 6.38499 21.2436C6.17002 21.0843 5.97143 20.905 5.74569 20.7555L5.79451 20.5873C5.6021 20.5012 5.43728 20.3751 5.33147 20.1999C5.22073 20.0194 5.14184 19.8197 5.06833 19.615L4.95819 19.3054C4.93208 19.1957 4.90082 19.0859 4.86934 18.9812C4.82251 18.757 4.73332 18.5568 4.58674 18.3696Z" fill="#E0E1DC"/>
<path d="M11.2891 12.7274L11.2909 12.8121C11.5176 12.9124 11.4188 12.8516 11.2891 12.7274Z" fill="#E0E1DC"/>
<path d="M9.55026 8.22857C9.45299 8.32742 9.45641 8.48232 9.50147 8.62878C9.53397 8.59412 9.59221 8.56061 9.61624 8.4843C9.67627 8.8739 9.83255 9.07173 9.91602 9.51396C9.97003 9.45962 10.1257 9.55427 9.88528 9.16179C9.81272 9.40103 9.8562 8.30927 9.55026 8.22857Z" fill="#E0E1DC"/>
<path d="M15.2419 13.3335C15.2496 13.3021 15.251 13.2704 15.2461 13.2384L15.2419 13.3335Z" fill="#E0E1DC"/>
<path d="M13.7265 13.5637C13.7639 13.6105 13.7954 13.6626 13.7924 13.7302C13.7254 13.7159 13.7228 13.6481 13.7265 13.5637Z" fill="#E0E1DC"/>
<path d="M11.6055 9.91504C11.6814 10.0685 11.7915 10.27 11.7287 10.4018C11.6369 10.139 11.6224 9.99859 11.6055 9.91504Z" fill="#E0E1DC"/>
<path d="M13.2876 14.634C13.2826 14.6286 13.2829 14.6234 13.2728 14.6178C13.1541 14.7263 13.0079 14.5232 12.8807 14.59C12.6895 14.4676 12.9402 14.4167 13.0752 14.4072C13.1057 14.4189 13.1891 14.5209 13.2876 14.634Z" fill="#E0E1DC"/>
<path d="M10.1064 21.22C10.1848 21.2028 10.2865 21.2436 10.3882 21.2844C10.3614 21.3039 10.3807 21.3358 10.4049 21.3731C10.3948 21.3674 10.3795 21.3616 10.3692 21.3611C10.4172 21.4461 10.2992 21.5391 10.2535 21.6354C9.99641 21.5981 9.93606 21.5592 9.94869 21.508C9.96694 21.4467 10.0528 21.3781 10.1064 21.22Z" fill="#E0E1DC"/>
<path d="M13.5473 19.4791C13.5199 19.5042 13.498 19.5242 13.4816 19.5392C13.4978 19.5294 13.5197 19.5094 13.5473 19.4791Z" fill="#E0E1DC"/>
<path d="M10.0678 21.2261C10.0513 21.2462 10.1687 21.2983 10.3116 21.3619C10.2877 21.314 10.222 21.2694 10.0678 21.2261Z" fill="#E0E1DC"/>
<path d="M21.9474 10.6456L21.8364 10.6976C21.9181 10.7219 22.0054 10.7362 22.0818 10.7654C22.435 10.6207 22.4563 10.4922 22.567 10.3315C22.2038 10.4655 21.9836 10.4143 21.511 10.564C21.6601 10.5862 21.809 10.6135 21.9474 10.6456Z" fill="#E0E1DC"/>
<path d="M21.5339 9.58556C21.4781 9.55181 21.3308 9.46707 21.2523 9.47399L21.2053 9.59175C21.315 9.58622 21.4193 9.58566 21.5339 9.58556Z" fill="#E0E1DC"/>
<path d="M16.3505 11.6537L16.7588 11.4257C16.8133 11.2605 16.3005 11.4839 16.3505 11.6537Z" fill="#E0E1DC"/>
<path d="M18.9014 11.9492L19.0252 11.7557C18.8104 11.7566 18.6043 11.915 18.6408 12.0371C18.8117 11.8457 18.7287 12.062 18.9014 11.9492Z" fill="#E0E1DC"/>
<path d="M15.4435 12.4159C15.491 12.6433 15.0944 12.6099 15.1645 12.8016C15.1953 12.6982 15.5673 12.5786 15.4435 12.4159Z" fill="#E0E1DC"/>
<path d="M16.9572 13.6195C17.1828 13.6658 17.2309 13.3988 17.4491 13.2637C17.2981 13.4018 16.9383 13.4634 16.9572 13.6195Z" fill="#E0E1DC"/>
<path d="M14.3574 13.7147C14.3737 13.5809 14.4667 13.5851 14.5855 13.5904C14.5574 13.6409 14.5438 13.7127 14.4854 13.7463C14.6782 13.5997 14.6829 13.6102 14.8023 13.4862C14.6166 13.4727 14.4217 13.433 14.4298 13.2522C14.3874 13.3901 14.2139 13.5686 14.3574 13.7147Z" fill="#E0E1DC"/>
<path d="M16.4955 14.0713C16.6979 13.9638 16.8956 13.9625 17.0759 13.783C16.9712 13.7429 16.8266 13.6908 16.6036 13.9191L16.5768 13.7253C16.2785 13.8235 16.8062 13.8065 16.4955 14.0713Z" fill="#E0E1DC"/>
<path d="M13.8159 13.1012L13.8526 13.2063C14.1108 13.2178 14.2353 13.3269 14.3171 13.1184C14.2553 13.1104 14.2129 13.1344 14.1103 13.1143C14.0025 13.094 13.894 13.0892 13.8159 13.1012Z" fill="#E0E1DC"/>
<path d="M15.3228 14.5148L15.3752 14.7476C15.7643 14.5973 15.3149 14.6925 15.4248 14.5769C15.5357 14.5557 15.6749 14.4886 15.715 14.4118C15.3792 14.6587 15.606 14.2707 15.3228 14.5148Z" fill="#E0E1DC"/>
<path d="M14.0478 15.0105C13.8626 15.033 13.6804 14.9891 13.4922 14.9653C13.6042 15.0931 13.7317 15.2164 13.8745 15.3405C14.5969 15.3164 13.9164 15.2042 14.0478 15.0105Z" fill="#E0E1DC"/>
<path d="M13.4904 14.6773C13.4758 14.656 13.4662 14.64 13.457 14.6137C13.2142 14.6029 12.9197 14.5898 12.6682 14.5424C13.103 14.6601 13.1328 14.6873 13.4904 14.6773Z" fill="#E0E1DC"/>
<path d="M11.0526 7.90674C10.9339 7.88061 10.9482 8.26169 10.9981 8.0763C11.1007 8.11215 11.045 7.60935 11.0526 7.90674Z" fill="#E0E1DC"/>
<path d="M9.77853 9.8477C9.79715 9.66218 9.48137 9.19778 9.33984 9.00513C9.4793 9.24428 9.66119 9.92529 9.77853 9.8477Z" fill="#E0E1DC"/>
<path d="M9.27344 8.95276C9.28527 8.97234 9.31554 9.00545 9.34525 9.05123C9.31582 8.99912 9.2916 8.97262 9.27344 8.95276Z" fill="#E0E1DC"/>
<path d="M3.81675 8.18926C3.80991 8.2071 3.80281 8.23096 3.80173 8.25511C3.80884 8.23123 3.80964 8.21313 3.81675 8.18926Z" fill="#E0E1DC"/>
<path d="M3.92478 8.01604C4.03874 7.96032 4.17968 7.75377 4.14418 7.64071C4.04021 7.81343 3.89758 7.94389 3.84676 8.17472C3.87497 8.1101 4.01242 8.09596 3.92478 8.01604Z" fill="#E0E1DC"/>
<path d="M3.14493 9.19523C3.0633 9.12958 3.14046 9.04282 3.0277 9.04343C2.94718 9.0793 3.07566 9.2316 3.14493 9.19523Z" fill="#E0E1DC"/>
<path d="M14.2518 15.6785C14.3402 15.7969 14.4335 15.8063 14.4865 15.6681C14.3445 15.5837 14.3703 15.7046 14.2518 15.6785Z" fill="#E0E1DC"/>
<path d="M14.639 15.7639L14.6031 15.8334C14.6011 15.8771 14.5935 15.926 14.5806 15.9692C14.6108 15.9049 14.6249 15.8344 14.639 15.7639Z" fill="#E0E1DC"/>
<path d="M14.7207 16.3634C14.6891 16.3619 14.6575 16.3606 14.6328 16.3468C14.6636 16.3672 14.7006 16.3878 14.7207 16.3634Z" fill="#E0E1DC"/>
<path d="M14.6328 16.3468C14.6481 16.3636 14.6481 16.3636 14.6635 16.3804L14.6328 16.3468Z" fill="#E0E1DC"/>
<path d="M14.7017 16.303L14.6122 16.3244C14.6248 16.3249 14.6432 16.3384 14.6553 16.3516C14.6432 16.3384 14.6566 16.32 14.7017 16.303Z" fill="#E0E1DC"/>
<path d="M14.7109 16.5137C14.791 16.4703 14.8501 16.4313 14.9255 16.3773C14.8105 16.268 14.8199 16.5238 14.574 16.4294C14.6196 16.4575 14.6762 16.4756 14.7109 16.5137Z" fill="#E0E1DC"/>
<path d="M14.6552 17.1063C14.5843 17.1861 14.6303 17.3178 14.6139 17.4519C14.603 17.5811 14.5772 17.6941 14.432 17.6928C14.2475 18.3432 14.912 17.7453 14.609 18.4942C15.1081 17.8837 14.3598 17.9178 14.7501 17.4217C14.6107 17.5244 14.6029 17.467 14.628 17.3696C14.6371 17.2818 14.6687 17.1536 14.6552 17.1063Z" fill="#E0E1DC"/>
<path d="M15.0899 17.1208C14.9742 17.0538 14.8755 17.3021 14.9324 17.413C14.9714 17.3477 15.1918 17.2646 15.0899 17.1208Z" fill="#E0E1DC"/>
<path d="M14.2623 18.2557C14.2031 18.2999 14.1338 18.3384 14.0643 18.3821L14.1071 18.4724C14.1622 18.4021 14.2225 18.332 14.2623 18.2557Z" fill="#E0E1DC"/>
<path d="M13.8212 18.8705L13.8062 18.6252C13.8166 18.7401 13.6423 18.9146 13.8212 18.8705Z" fill="#E0E1DC"/>
<path d="M13.0605 19.3613C12.9283 19.4074 13.0205 19.7915 13.2252 19.5196L13.161 19.5583C13.1376 19.5 12.9395 19.5068 13.0605 19.3613Z" fill="#E0E1DC"/>
<path d="M11.2526 20.4932C11.3772 20.504 11.5195 20.4686 11.4865 20.389L11.1606 20.4527L11.2526 20.4932Z" fill="#E0E1DC"/>
<path d="M11.3697 21.3461C11.5133 21.5729 11.7451 21.3168 12.0154 21.3442C11.8618 21.3425 11.7953 21.3395 11.7186 21.3361C11.6365 21.3375 11.5543 21.3441 11.3697 21.3461Z" fill="#E0E1DC"/>
<path d="M10.9641 20.1725C11.0579 20.0817 11.1821 20.14 11.2604 20.1593C11.2186 20.0307 11.0112 20.0637 10.9641 20.1725Z" fill="#E0E1DC"/>
<path d="M10.3745 20.2054C10.2913 20.1037 10.4208 20.0939 10.3619 20.0242C10.1727 19.8714 9.96391 19.8105 9.80063 19.8857C9.82201 19.9847 9.82598 20.2428 9.69382 20.3143C10.0992 20.3633 10.3561 20.0395 10.4711 20.3541C10.5943 20.2513 10.7126 20.143 10.8204 20.0395C10.562 19.9351 10.5732 20.2607 10.3745 20.2054Z" fill="#E0E1DC"/>
<path d="M11.0936 20.9829L10.8819 20.8544C10.9175 20.9854 10.7469 20.9829 10.622 20.9981C10.6313 21.1382 10.7242 21.1423 10.8237 21.1157C10.9239 21.0736 11.0311 20.9904 11.0936 20.9829Z" fill="#E0E1DC"/>
<path d="M8.46167 19.4752L8.08984 19.2386L8.18996 19.3426L8.46167 19.4752Z" fill="#E0E1DC"/>
<path d="M8.31799 19.2091L8.36262 19.1433C8.25478 19.1073 8.12568 19.0807 8.02351 19.0344C8.10915 19.1008 8.22171 19.1475 8.31799 19.2091Z" fill="#E0E1DC"/>
<path d="M8.10547 18.8354L8.12935 18.8834C8.1948 18.9331 8.27109 18.9729 8.34785 19.0024C8.2562 18.9567 8.17565 18.8958 8.10547 18.8354Z" fill="#E0E1DC"/>
<path d="M7.63795 18.1406L7.58038 18.2631C7.66058 18.3344 7.66506 18.5848 7.77915 18.4805C7.69258 18.4349 7.59194 18.2376 7.63795 18.1406Z" fill="#E0E1DC"/>
<path d="M4.59113 14.6471C4.60406 14.8249 4.69572 14.756 4.79686 14.7084C4.76982 14.6134 4.74799 14.5186 4.72638 14.4186C4.70777 14.4856 4.66037 14.6137 4.59113 14.6471Z" fill="#E0E1DC"/>
<path d="M5.30036 14.0344C5.34443 13.8558 5.38964 13.6515 5.44847 13.489C5.03629 13.9401 5.11647 14.1088 4.88197 14.6245C4.96848 14.5355 5.02101 14.3986 5.07401 14.2513C5.13169 14.1146 5.20458 13.9837 5.31215 13.8853L5.30036 14.0344Z" fill="#E0E1DC"/>
<path d="M12.2452 9.3973C12.2907 9.53909 12.3557 9.47468 12.1591 9.70403C12.4512 9.42199 12.7479 9.26957 13.1116 9.00626C12.9991 8.97536 13.1789 8.65727 13.0644 8.78676C12.9504 8.90591 12.8214 9.01404 12.7024 9.1278L12.7131 9.00404C12.3567 9.10204 12.6081 9.26853 12.2452 9.3973Z" fill="#E0E1DC"/>
<path d="M9.07222 9.26229C9.00697 9.20189 8.93636 9.26147 8.87074 9.3265C8.93411 9.66384 9.05983 9.18857 9.07222 9.26229Z" fill="#E0E1DC"/>
</svg>
