<svg width="163" height="150" viewBox="0 0 163 150" fill="none" xmlns="http://www.w3.org/2000/svg">
<path d="M64.9896 112.341L63.9479 111.942L63.5123 112.56L64.9896 112.341Z" fill="#E0E1DC"/>
<path d="M60.3401 109.121L58.4981 109.062C59.1662 111.184 57.8534 110.372 60.4643 112.275C60.9962 112.208 61.8457 112.1 62.5361 111.906C63.2289 111.701 63.7617 111.414 63.6732 111.013C62.9453 110.99 61.7703 111.556 60.7444 111.138C61.2955 110.653 62.4218 110.921 63.0748 110.268C61.467 109.391 61.9164 110.571 60.0872 109.981L60.3404 109.121L60.3401 109.121Z" fill="#E0E1DC"/>
<path d="M57.8432 110.646C58.077 110.341 58.3131 110.044 58.3379 109.767C58.1039 110.072 57.137 110.31 57.8432 110.646Z" fill="#E0E1DC"/>
<path d="M56.7027 110.617C55.5731 110.305 56.8673 109.912 56.7739 109.784L55.2074 110.753L56.703 110.617L56.7027 110.617Z" fill="#E0E1DC"/>
<path d="M51.9759 109.46C51.7805 109.443 51.5983 109.435 51.4138 109.437C51.5445 109.68 51.7407 109.558 51.9759 109.46Z" fill="#E0E1DC"/>
<path d="M49.6199 109.003C49.967 109.56 50.6263 109.446 51.4158 109.437C51.3996 109.409 51.3848 109.389 51.3638 109.342C50.808 108.819 51.6441 108.095 52.6199 108.599C53.7569 108.659 53.4604 109.502 54.54 109.15L53.4119 108.134C51.6905 107.833 50.3894 108.843 49.6198 109.003L49.6199 109.003Z" fill="#E0E1DC"/>
<path d="M51.9767 109.459C52.1802 109.476 52.3835 109.506 52.605 109.559C52.366 109.347 52.1636 109.385 51.9767 109.459Z" fill="#E0E1DC"/>
<path d="M54.3268 110.129L54.9563 110.081L54.8984 109.675L54.3268 110.129Z" fill="#E0E1DC"/>
<path d="M45.7769 107.93C46.0946 107.387 46.7592 107.631 47.4223 107.911C48.0889 108.177 48.7578 108.468 49.0374 108.051C47.5042 107.684 46.5942 106.427 47.1175 105.887L45.3738 105.738C44.692 105.994 45.0765 107.11 45.7769 107.93Z" fill="#E0E1DC"/>
<path d="M43.5947 103.907C43.4549 103.969 43.306 103.992 43.1575 103.972C43.3455 103.991 43.5155 103.986 43.5947 103.907Z" fill="#E0E1DC"/>
<path d="M34.8923 102.448C35.5741 102.581 36.2687 102.677 36.9582 102.769C37.6483 102.86 38.3226 102.967 39.0164 103.024C38.5206 103.238 38.4902 103.674 37.6081 103.412C38.3736 103.868 38.9107 103.896 39.3926 103.936C39.8817 103.962 40.3223 103.989 40.9803 104.306C40.9561 105.555 38.5668 103.39 38.9489 104.663C39.9096 105.057 41.3929 105.564 42.5067 104.948C42.9203 105.393 43.3533 105.806 43.7852 106.233L43.6775 104.864C43.1833 104.32 42.0911 105.326 42.0172 104.368C42.0191 103.791 42.6673 103.93 43.1396 103.973C42.6106 103.906 42.0334 103.422 41.3472 102.884C40.6679 102.329 39.8916 101.707 38.9091 101.372C37.8975 100.969 37.2925 101.27 36.7383 101.659C36.1822 102.052 35.6855 102.528 34.8915 102.449L34.8923 102.448Z" fill="#E0E1DC"/>
<path d="M35.3782 101.146L35.3828 100.593L35.2369 101.264L35.3782 101.146Z" fill="#E0E1DC"/>
<path d="M30.803 100.455C31.5299 100.608 32.278 100.71 33.0005 100.832C33.1405 101.036 33.1199 101.329 33.1372 101.603C33.2009 101.314 33.9269 101.154 33.9652 100.896C33.8228 100.173 33.253 99.9382 32.563 99.8415C32.2203 99.7899 31.844 99.7794 31.4969 99.7407C31.1521 99.6983 30.8249 99.6442 30.565 99.5367C29.4692 98.5292 29.5897 98.4252 29.9269 98.375C30.2668 98.3273 30.8191 98.3323 30.648 97.5853C31.3 98.0394 31.1738 98.2867 32.0718 98.9484C31.6788 97.9211 30.8665 97.4068 30.0376 97.0327C29.2235 96.6545 28.3042 96.4821 27.7886 96.2743C27.9593 96.5568 27.8167 96.8861 28.3867 97.1688C27.9938 97.0425 27.5974 96.9163 27.2261 96.7754C27.406 97.5044 27.735 98.058 28.2612 98.6362C28.7846 99.2275 29.5913 99.7645 30.8037 100.455L30.803 100.455Z" fill="#E0E1DC"/>
<path d="M34.0641 102.298C33.3291 102.017 33.1125 101.8 33.1357 101.627C33.159 102 33.2936 102.315 34.0641 102.298Z" fill="#E0E1DC"/>
<path d="M27.3069 95.9381C27.3514 96.0714 27.5335 96.1713 27.7868 96.2745C27.7112 96.1524 27.577 96.0414 27.3069 95.9381Z" fill="#E0E1DC"/>
<path d="M27.3722 97.6971C27.0059 97.3793 26.655 97.0575 26.3198 96.7209C26.348 96.9757 26.3756 97.2376 26.4163 97.4921C26.6118 97.5702 27.2276 97.9435 27.3719 97.6973L27.3722 97.6971Z" fill="#E0E1DC"/>
<path d="M55.4913 70.6798C55.4037 70.2114 54.9091 69.9472 53.8329 69.9894C53.9733 69.3652 55.3744 69.5754 56.0698 69.2554C54.6423 68.7758 56.1535 68.5382 55.8327 67.9217C54.9884 67.85 54.3678 67.979 53.7462 68.1479C53.1222 68.3322 52.4982 68.4921 51.6036 68.4332C51.6842 68.2497 51.6431 67.9797 51.3965 67.7874C50.8572 67.927 50.2285 68.0852 49.559 68.2382C48.8911 68.4104 48.186 68.6164 47.4794 68.7731C46.0735 69.1374 44.6775 69.43 43.594 69.4494C41.5581 69.7155 40.1879 70.4817 38.1984 71.4904C34.7205 72.6491 31.3706 74.3981 28.1649 76.4472C26.6219 77.4582 25.2401 78.7484 24.0876 80.2408C22.9363 81.7314 21.9761 83.4028 21.3478 85.2358C21.6296 85.6892 21.9673 86.1185 22.2949 86.509C21.969 86.6223 21.9164 87.0476 21.8574 87.3962C21.8176 87.7446 21.7552 88.0305 21.3722 87.918C21.4589 87.7203 21.4754 87.5275 21.4711 87.32C21.4765 87.1133 21.4746 86.8929 21.4964 86.6509C20.8426 87.3596 20.812 88.5192 21.0729 89.611C21.3281 90.7211 21.8768 91.7188 22.1509 92.6593C22.2387 92.3479 23.0735 91.6652 23.4562 92.0369C23.1429 92.1599 23.0502 92.3329 23.0739 92.5497C23.0856 92.6578 23.125 92.7764 23.1806 92.9017C23.2447 93.0234 23.324 93.152 23.4045 93.2858C23.5559 93.5593 23.7602 93.8294 23.8434 94.1373C23.9421 94.4365 23.952 94.7593 23.7527 95.1228C24.2737 95.9915 24.5108 95.7971 24.7516 95.5975C25.0026 95.3956 25.2457 95.1999 25.8967 95.9466C26.239 95.7218 25.9473 95.3432 25.6338 94.9214C25.3138 94.5026 24.967 94.0366 25.0987 93.7206C25.5104 93.7337 25.7398 94.064 25.9294 94.336C26.1359 94.5984 26.301 94.7899 26.5575 94.4615C25.6493 93.3124 24.1777 92.1068 23.2467 90.2755C22.7678 89.3649 22.4578 88.2636 22.3962 87.0636C22.3316 85.8692 22.4967 84.6089 22.8932 83.4745C23.0442 83.727 23.2188 83.9782 23.3854 84.2169C23.4664 83.6288 23.6896 82.974 23.996 82.3118C24.3177 81.6568 24.7485 81.0078 25.2524 80.442C26.2723 79.316 27.5872 78.5677 28.6543 78.5631C28.2943 78.3892 28.953 78.0233 29.8132 77.5039C30.2184 77.2506 30.609 76.9672 30.8348 76.6802C31.0645 76.4006 31.1235 76.1029 30.842 75.8013C31.599 75.8046 31.7392 75.6509 32.6241 75.3314L32.6173 74.7662C33.218 74.473 33.5573 74.5255 33.9111 74.5614C34.2649 74.5958 34.6318 74.6117 35.3115 74.2855C34.1194 74.0668 35.0354 73.432 35.2178 72.7247C36.1629 72.7046 37.1849 72.6825 38.181 72.6613C39.1577 72.6383 40.1102 72.6779 40.9224 72.7121C40.7408 72.5437 40.5298 72.3507 39.9352 72.2444C41.0016 72.1279 40.6205 71.5563 40.8188 71.255C41.7865 70.9283 41.9414 71.8105 42.0269 72.2525C42.4834 72.1865 42.8422 72.018 43.1534 71.81C43.4671 71.6169 43.7316 71.3774 43.9875 71.1491C44.4991 70.6994 44.9784 70.2621 45.7191 70.421L45.0854 69.8261C45.5518 69.6905 46.0127 69.6164 46.4701 69.5723C46.9273 69.5236 47.3818 69.5121 47.8438 69.5302C48.3047 69.5389 48.7685 69.5446 49.2456 69.5157C49.7228 69.4827 50.2159 69.4734 50.7365 69.3665C51.2749 69.8097 50.8569 70.0528 50.221 70.2427C49.5826 70.4094 48.7171 70.6377 48.3275 70.8935C48.7682 71.0454 49.6422 70.9539 49.9445 71.2668C50.3465 70.9879 50.8974 70.6502 51.4919 70.3122C52.0851 69.976 52.7206 69.7113 53.2755 69.4612C52.7531 70.0337 53.1558 70.2953 53.7524 70.4206C54.3492 70.566 55.15 70.6323 55.4918 70.6819L55.4913 70.6798Z" fill="#E0E1DC"/>
<path d="M49.9437 71.2649C49.7167 71.4215 49.5252 71.5902 49.4174 71.7104C49.6022 71.6223 49.7747 71.5318 50.0672 71.5625C50.0821 71.4354 50.0318 71.3414 49.9431 71.2648L49.9437 71.2649Z" fill="#E0E1DC"/>
<path d="M55.4925 70.6799C55.4965 70.7172 55.5254 70.7504 55.5259 70.7907C55.728 70.7379 55.6646 70.7077 55.4925 70.6799Z" fill="#E0E1DC"/>
<path d="M43.3075 69.46C43.3945 69.4656 43.5037 69.4491 43.5971 69.449C43.7221 69.4354 43.8232 69.4034 43.9488 69.3935L43.3075 69.46Z" fill="#E0E1DC"/>
<path d="M42.6483 72.9783C42.2023 72.8601 41.6019 72.7656 40.924 72.7105C41.1867 72.9548 41.4099 73.1584 42.6483 72.9783Z" fill="#E0E1DC"/>
<path d="M30.7938 77.2632C30.5228 77.573 30.8223 77.6408 30.7043 77.9774C31.4016 77.5914 31.5253 77.2573 30.7938 77.2632Z" fill="#E0E1DC"/>
<path d="M52.1372 71.2941L53.6386 71.0519C53.8248 70.982 54.0105 70.9248 54.1959 70.8779C53.5053 70.9825 52.8143 71.1601 52.1375 71.2938L52.1372 71.2941Z" fill="#E0E1DC"/>
<path d="M70.4732 79.2618C70.7173 79.5815 70.9108 79.8207 71.1968 80.0976C71.4758 80.3653 71.8064 80.6249 72.1788 80.8676C72.5531 81.1095 72.9628 81.3391 73.4377 81.53C73.6745 81.6252 73.9373 81.7078 74.237 81.7576C74.5417 81.8009 74.9275 81.7991 75.318 81.6139L75.7653 81.4015L75.696 80.8915C75.672 80.7145 75.6522 80.5421 75.6381 80.3712C75.4061 79.5139 75.067 79.1237 74.824 78.9379C74.5697 78.7546 74.3489 78.7822 74.1392 78.8094C73.9267 78.8392 73.7241 78.87 73.505 78.7336C73.3954 78.6654 73.2819 78.5564 73.162 78.3853C73.0529 78.209 72.8981 77.9888 72.7229 77.6871C73.309 77.556 73.9092 77.4508 74.522 77.3732C73.7896 75.8958 72.5651 74.2567 71.0134 73.1428C69.4619 72.0354 67.6999 71.4195 66.2003 71.5546C66.084 71.2635 65.6909 70.7869 66.5343 70.9096C65.5683 70.4892 65.0619 70.9764 64.5406 71.3284C64.0028 71.7 63.4616 71.9544 62.2933 71.2222C63.6631 71.1535 63.5728 70.8462 63.2427 70.4515C63.0791 70.2544 62.8588 70.0365 62.7422 69.8198C62.6245 69.6131 62.6084 69.4004 62.8704 69.1998C63.0174 69.1984 63.1578 69.2133 63.3024 69.2192C62.8774 69.0808 62.3826 69.0151 61.8954 68.9287C61.6504 68.8913 61.403 68.8536 61.1574 68.8161C60.9127 68.7785 60.6702 68.7424 60.4257 68.7362C59.9408 68.7076 59.4803 68.6782 59.0716 68.636C58.8672 68.6147 58.6759 68.5906 58.5002 68.5613C58.3233 68.5401 58.1608 68.5242 58.0187 68.4942C57.9116 68.9286 58.7592 69.7353 57.2732 69.5937C57.8589 69.7604 57.5402 70.228 57.4252 70.6677C58.2072 70.4944 58.7743 70.6118 59.2804 70.6496C59.7856 70.7007 60.2262 70.7017 60.7376 70.5714C61.3762 71.3774 60.154 70.5858 60.7849 71.3896L62.0923 71.2213C62.8908 71.6351 61.0246 71.4832 62.3014 72.0473C62.5673 71.7814 63.7981 71.8319 64.7799 72.3493L64.4093 72.4073C65.2836 72.5179 66.2034 73.3083 66.2735 72.2546C66.4381 72.6844 66.5709 73.1335 66.703 73.5618L66.8672 72.9026C67.3516 73.2184 67.6701 73.6082 67.9558 73.9702C68.2114 74.361 68.4499 74.7194 68.6535 75.0973C68.7608 75.282 68.8743 75.4602 69.0051 75.6301C69.1223 75.8087 69.2514 75.9818 69.4105 76.145C69.579 76.303 69.7314 76.4782 69.9389 76.6387C70.155 76.7949 70.3718 76.967 70.6416 77.1427C70.425 76.5545 71.0312 76.7476 71.3571 76.9399C71.1891 76.3752 70.8781 76.1692 70.4951 76.0729C70.3089 76.0197 70.1177 75.9807 69.9233 75.9176C69.7161 75.8622 69.5084 75.7812 69.3023 75.6269C69.455 75.3238 69.9956 75.321 70.4384 75.2721C70.6607 75.2439 70.8352 75.2171 70.9252 75.104C71.0137 74.9916 71.0059 74.8004 70.7972 74.4918C71.1219 75.3018 71.5987 75.8142 71.9054 76.3432C72.0718 76.5958 72.1384 76.8794 72.1393 77.1528C72.1352 77.2921 72.1061 77.434 72.0431 77.5805C71.9743 77.7302 71.8652 77.8875 71.7191 78.0485C71.8596 78.3761 72.0373 78.6267 72.1654 78.8783C72.3023 79.1246 72.4874 79.3282 72.6022 79.5629C72.7279 79.7928 72.8722 80.0181 72.9679 80.2828C73.0493 80.5523 73.1112 80.8505 73.1338 81.1958L74.6407 80.344C74.6228 80.3162 74.6111 80.288 74.605 80.2619C74.6022 80.2487 74.6004 80.2362 74.5997 80.224L74.5766 80.1262C74.5628 80.0532 74.5599 79.9806 74.5675 79.9105C74.5699 79.8269 74.5623 79.6763 74.5794 79.5643C74.5735 79.6128 74.5699 79.6622 74.5683 79.7116C74.571 79.5902 74.591 79.4624 74.635 79.2675C74.6497 79.172 74.6394 79.2171 74.6348 79.2234C74.6295 79.2338 74.6245 79.2431 74.6194 79.2502C74.6079 79.2646 74.6007 79.2764 74.5853 79.2784C74.5041 79.2701 74.4078 79.1751 74.2539 79.0255C73.9528 78.7426 73.5063 78.3091 72.5338 78.3377L73.2914 79.1196C73.0099 79.4736 72.594 79.2169 71.9107 78.8672C72.0742 78.7699 72.0777 78.772 71.9726 78.4519C71.8149 78.5883 71.5715 78.6118 71.2398 78.5869C70.9375 78.5795 70.6212 78.5406 70.2921 78.4762C69.6429 78.3512 69.0141 78.1698 68.835 78.2156C69.2503 78.4749 69.7917 78.5808 70.3723 78.6605L70.8127 78.7191C70.9604 78.738 71.1063 78.7541 71.2775 78.7963C71.5987 78.8724 71.8949 78.9696 72.1627 79.0846C71.791 79.1165 71.5496 79.2998 71.3176 79.398C71.2001 79.4494 71.0845 79.4776 70.9544 79.4629C70.8296 79.4519 70.6782 79.3956 70.4723 79.2634L70.4732 79.2618Z" fill="#E0E1DC"/>
<path d="M63.6998 72.525C63.9373 72.4813 64.1738 72.441 64.4078 72.4064C64.1554 72.3667 63.9019 72.3868 63.6998 72.525Z" fill="#E0E1DC"/>
<path d="M62.7229 74.3152C61.6505 73.6209 63.3113 73.8457 62.3954 73.0318C61.0029 72.9785 63.2527 74.6735 61.7681 74.8768C61.2644 74.1157 59.7645 74.2948 59.2863 74.062C60.0108 73.9132 60.1807 72.8258 60.0806 72.5353C59.5152 72.5742 58.7951 71.6133 58.1045 71.1804C59.5466 72.7438 56.4259 70.6856 57.6714 72.2074C57.2574 72.6902 55.3179 72.0885 54.9108 71.2494C55.2011 70.9023 55.685 71.3226 56.1438 71.576C56.9359 71.0729 55.2729 70.5084 55.4601 69.699C54.3351 69.6853 52.5215 68.7409 51.0898 67.9876C49.6568 67.2521 48.5242 66.7231 48.527 68.0534C48.6606 68.4267 48.9204 68.6345 49.2198 68.8026C49.5247 68.9642 49.872 69.0816 50.1839 69.2997C49.4983 68.463 49.6688 68.2793 50.0414 68.2763C50.4155 68.2747 50.9904 68.4511 51.1635 68.3765C51.6442 69.1714 53.213 69.5886 52.5347 69.9239C52.0231 69.8341 51.5009 69.7443 50.9869 69.6263C52.6532 71.2024 54.9056 72.737 57.347 74.0481C59.7878 75.3667 62.429 76.4442 64.8398 77.3359L62.8169 76.4037C63.2636 76.0448 64.2366 76.4404 65.0806 76.5393L64.5903 74.9651C65.1332 75.3064 65.7672 75.3783 65.5396 75.7647C66.4649 75.5905 66.2645 75.1549 66.0076 74.5784C67.6093 75.033 67.6654 75.5876 69.175 75.3588C67.0428 73.3062 66.6701 75.209 64.1981 73.1287L62.7237 74.3156L62.7229 74.3152Z" fill="#E0E1DC"/>
<path d="M68.4979 76.1064L67.6366 76.4171L68.6987 76.5447L68.4979 76.1064Z" fill="#E0E1DC"/>
<path d="M66.4366 78.2054C66.5142 77.9406 66.9358 77.9888 67.0144 77.7233C65.9082 77.0457 65.896 77.4572 66.4366 78.2054Z" fill="#E0E1DC"/>
<path d="M54.143 68.7372C53.6669 68.4953 53.2076 68.2307 52.7424 67.9677C52.9622 68.2444 53.1952 68.5111 53.4233 68.7859C53.5661 68.5495 53.9444 68.6782 54.1432 68.7376L54.143 68.7372Z" fill="#E0E1DC"/>
<path d="M43.9784 62.2772C44.1246 62.5718 44.2692 62.84 44.4108 63.0886C44.5567 63.3345 44.7294 63.5429 44.8801 63.7503C45.0385 63.9522 45.1759 64.1559 45.3385 64.3319C45.4977 64.5087 45.6544 64.6834 45.8129 64.8593C46.4301 65.5754 47.0104 66.2508 47.7313 67.4654C48.4963 67.6516 48.648 67.2608 48.7433 66.8276C48.8358 66.3914 48.871 65.912 49.3246 65.842C48.6007 64.8142 47.6841 65.871 46.5954 64.9794C46.7118 64.5565 46.3959 64.1837 45.9574 63.7479C45.761 63.5144 45.5352 63.2634 45.3246 62.9903C45.107 62.7216 44.9696 62.3948 44.8624 62.0753C44.659 62.3384 44.3627 62.4814 43.9788 62.2779L43.9784 62.2772Z" fill="#E0E1DC"/>
<path d="M46.4152 54.3612C46.5805 53.9087 46.615 53.4023 46.7346 52.9364C46.8264 52.4637 47.0064 52.0408 47.3339 51.7722C47.6807 52.0903 47.5237 52.6527 47.2042 53.1362C47.7378 53.171 47.7922 52.9249 47.8882 52.5868C47.9715 52.2493 48.0637 51.8006 48.6267 51.5391C48.489 51.5568 48.1453 51.7918 48.1124 51.432C48.4885 50.8986 48.7179 50.548 48.8476 50.2539C48.9741 49.958 49.0292 49.7363 49.1097 49.4989C49.27 49.0317 49.5104 48.451 50.9216 47.367C51.0702 46.8101 51.4474 46.4641 50.9181 46.0464C51.9446 45.6296 52.2829 45.6481 52.628 45.5871C52.8001 45.5584 52.9912 45.5328 53.2738 45.4471C53.5587 45.3652 53.9331 45.2176 54.5161 45.0164C54.2131 44.7507 53.0336 44.5382 52.522 43.8947C53.4011 43.565 54.009 43.2789 54.4829 43.0215C54.9488 42.7536 55.2741 42.5095 55.5664 42.2809C55.8541 42.0461 56.1114 41.8331 56.4495 41.6626C56.617 41.5752 56.803 41.4959 57.0206 41.4279C57.2417 41.367 57.4956 41.3212 57.7914 41.2906C57.5926 41.4533 57.4227 41.7509 56.8572 41.9609C57.0633 42.1782 57.2569 42.219 57.4513 42.152C57.6491 42.0926 57.849 41.9265 58.0642 41.7188C58.2768 41.5059 58.5135 41.2716 58.7733 41.0664C59.031 40.8577 59.3127 40.6816 59.6191 40.626L59.8912 41.5892C60.3543 41.3076 60.9701 40.8535 61.6842 40.549C62.0403 40.3986 62.4164 40.2711 62.7945 40.2397C63.1717 40.1871 63.547 40.2324 63.8891 40.3694C63.8144 40.5477 63.7436 40.7257 63.6768 40.9029C64.8658 40.3352 66.407 40.2148 67.8502 40.2926C69.3082 40.3684 70.708 40.6193 71.9241 40.7257C72.2967 41.0303 72.6564 41.3493 73.0103 41.6562C74.6835 41.7873 73.9491 41.457 73.0938 41.0108C72.2458 40.5869 71.2448 40.0696 72.6468 39.6588C72.5997 40.6009 73.0532 40.5478 73.7457 40.4663C74.4342 40.3744 75.3931 40.2447 76.1814 40.9491C76.4731 41.4644 75.9827 41.3523 75.4985 41.2907C75.0103 41.2298 74.5425 41.191 74.87 41.7538C75.5901 41.0087 75.9203 41.8497 76.955 41.9986C76.6781 42.3589 77.1437 42.6068 77.5549 42.8435C77.9611 43.093 78.3009 43.3399 77.8038 43.6414C79.0745 43.6688 80.3633 43.7972 81.658 44.087C81.7534 44.4537 81.9858 44.7961 82.2849 45.0896C82.5971 45.3689 82.9316 45.6572 83.2429 45.8844C82.5831 45.1974 82.8926 45.0466 83.231 44.8475C83.5601 44.651 83.9585 44.3883 83.1626 43.4484C81.6855 42.4735 79.656 41.4779 77.4908 40.5983C75.319 39.733 73.0171 38.9801 70.9981 38.3604C70.6527 38.921 70.0142 38.7756 69.3336 38.6629C68.6599 38.523 67.9409 38.4191 67.5821 38.8811C67.5179 38.4787 67.2259 38.137 67.141 37.7439C66.4517 37.7789 66.1505 37.845 66.0712 37.9335C65.9927 38.018 66.1376 38.0994 66.3423 38.1988C66.7536 38.4044 67.3947 38.6426 67.0626 38.8504C66.774 38.8789 66.5036 38.8522 66.2576 38.7901C66.0118 38.7411 65.7911 38.6542 65.6059 38.5479C65.2365 38.3355 65.0087 38.0463 65.0541 37.826C64.0637 37.8665 64.0174 37.9542 64.1005 38.1213C64.1861 38.2905 64.3811 38.5342 63.9387 38.9068C63.4897 38.53 62.9866 38.1224 62.4685 37.7922C59.3871 38.6418 56.3164 40.5074 53.5346 42.7607C50.7508 45.0352 48.24 47.685 46.1641 50.4716C46.4951 50.4623 46.8228 50.4591 47.1466 50.4617C46.1559 51.6354 46.0118 53.0174 45.9433 54.2098C45.9144 54.8139 45.8543 55.3737 45.7246 55.9288C45.6878 56.0671 45.6413 56.2053 45.5837 56.3438C45.5335 56.4832 45.4827 56.624 45.4126 56.7669C45.2773 57.0534 45.0739 57.3482 44.8628 57.6734C45.1117 57.9749 45.3204 58.2601 45.6 58.5182C45.3721 58.3058 45.0703 58.4364 44.7465 58.5539C44.4248 58.6667 44.0707 58.7688 43.7575 58.3553C43.9363 58.7912 43.9583 59.2427 44.0239 59.6995C44.1149 60.1491 44.1607 60.6243 44.4442 61.0143L44.4189 60.6058L44.4345 60.1939C44.4489 59.9212 44.4509 59.6553 44.4793 59.3908C44.6945 59.6327 44.864 59.8749 44.9614 60.1206C45.0137 60.2427 45.0433 60.3674 45.0756 60.488C45.1121 60.6072 45.1354 60.7267 45.1475 60.8446C45.1715 61.0802 45.1502 61.3115 45.0952 61.5235C45.0459 61.7329 44.9795 61.9164 44.8718 62.0635C45.7432 62.9817 45.8994 62.4438 45.9571 61.725C45.9746 61.5415 45.9656 61.3501 45.9903 61.1483C46.015 60.9464 46.0392 60.746 46.0684 60.5617C46.1133 60.1964 46.2327 59.8837 46.3844 59.7425C46.1244 59.4546 45.9369 59.1719 45.8588 58.9027C45.7739 58.6347 45.7136 58.3918 45.7533 58.167C45.8183 57.7179 46.0141 57.3707 46.3091 57.0568L46.7268 56.5968C46.8681 56.4433 47.0208 56.2851 47.1386 56.1095C47.2588 55.933 47.3486 55.7382 47.4421 55.5077C47.5354 55.2774 47.5553 55.0068 47.5994 54.6806C47.6394 53.851 47.4479 53.7995 47.1908 53.9611C46.9345 54.1174 46.6077 54.4796 46.4152 54.3612Z" fill="#E0E1DC"/>
<path d="M43.5312 57.8549C43.597 58.068 43.6738 58.2314 43.7548 58.3553C43.7028 58.1811 43.6327 58.0179 43.5312 57.8549Z" fill="#E0E1DC"/>
<path d="M83.2385 45.8845C83.3162 45.967 83.4041 46.0533 83.5073 46.1479L83.8396 46.4891C84.0127 46.534 83.998 46.4901 83.8741 46.3773C83.7527 46.2622 83.5229 46.0812 83.2385 45.8845Z" fill="#E0E1DC"/>
<path d="M44.8638 62.0754C44.8638 62.0754 44.869 62.0733 44.8711 62.064C44.8642 62.0623 44.8593 62.0555 44.8507 62.0458L44.8638 62.0754Z" fill="#E0E1DC"/>
<path d="M47.3506 62.4542C47.2396 62.234 47.1094 62.0225 47.0117 61.7983C46.9151 61.8938 46.8156 61.9923 46.7267 62.0887L47.3506 62.4542Z" fill="#E0E1DC"/>
<path d="M86.2259 53.7169L86.649 53.6094C86.4969 53.5754 86.3505 53.5841 86.2259 53.7169Z" fill="#E0E1DC"/>
<path d="M85.2408 77.25L85.2812 76.7342C85.2044 76.8947 85.2116 77.0737 85.2408 77.25Z" fill="#E0E1DC"/>
<path d="M116.613 43.4744C117.316 43.1725 118.158 42.8797 118.975 42.5984C119.793 42.3324 120.585 42.0593 121.192 41.7345L121.063 42.1714C121.48 42.0572 122.381 41.9181 123.016 41.7237C123.333 41.6143 123.577 41.516 123.64 41.3399C123.7 41.1776 123.578 40.9263 123.122 40.6611L122.598 40.9674C121.487 41.1625 121.135 40.9985 120.797 40.6864C120.63 40.5287 120.475 40.3567 120.249 40.2033C120.025 40.0536 119.723 39.9091 119.281 39.8809C118.223 40.0601 117.488 40.6679 116.828 41.1961C116.165 41.7365 115.575 42.2086 114.699 42.2756C114.003 42.5567 113.968 42.1058 114.079 41.7154C113.215 41.9364 112.739 42.4378 112.378 42.9382C112.011 43.4406 111.732 43.938 111.244 44.2597C110.351 42.843 109.182 43.6132 107.988 44.7432C107.683 45.0143 107.388 45.3291 107.079 45.6188C106.767 45.9045 106.46 46.1962 106.137 46.4455C105.81 46.6885 105.476 46.9012 105.12 47.0538C104.763 47.2034 104.374 47.277 103.961 47.2771C103.403 47.8902 102.672 48.4999 101.971 49.2239C101.619 49.5837 101.27 49.9654 100.964 50.3895C100.646 50.8042 100.374 51.2605 100.155 51.7489C100.214 51.0686 99.8764 51.4119 99.4752 51.8144C99.0872 52.2246 98.6346 52.6904 98.4206 52.2183C98.9656 53.0595 97.8879 54.0563 96.9077 55.1314C95.9363 56.187 95.0776 57.4041 96.0219 58.1798C95.0411 59.1826 95.0657 59.2423 95.0722 59.3347C95.0758 59.3829 95.0764 59.4446 94.9466 59.6488C94.8241 59.8574 94.5868 60.2147 94.1003 60.8626C93.8574 60.7377 94.0972 60.2586 94.1486 60.0452C93.6375 60.5012 93.6427 61.0543 93.6341 61.5507C93.6179 62.048 93.5387 62.4711 92.825 62.7408C91.7131 65.0497 93.262 63.3866 93.3447 65.0148C92.7641 66.1845 92.4716 66.5825 92.1429 66.8148C91.8118 67.0474 91.4336 67.1098 90.7308 67.6585C91.7711 68.2325 90.7762 69.5643 91.0091 70.9651C91.1516 70.6718 91.8612 69.0281 91.9621 70.27C90.9578 73.1346 92.0499 72.7998 91.6085 75.6283C89.9968 76.6872 92.3116 72.876 90.6811 75.028C90.5725 73.1326 90.9857 71.8362 90.3506 70.6504C89.617 72.9735 89.0916 75.8726 88.8866 78.5565C88.3145 79.9163 88.5112 77.6732 88.0782 78.7428C87.2401 80.3061 87.5468 81.6405 87.4791 82.9259L87.5391 82.9265C87.191 82.3973 87.013 81.7503 87.1516 81.0435C87.3823 81.172 87.6098 81.2953 87.8459 81.4066C86.7868 80.2634 88.0599 76.8357 87.6461 74.453C87.2909 74.7333 87.0536 74.9309 86.8575 74.5924C87.6879 74.6604 87.5122 73.8256 87.4029 72.6447C87.2845 71.4646 87.231 69.9521 88.0368 68.8926C86.9628 68.8742 86.8455 66.4836 86.9062 65.1143C87.2541 64.6688 87.6738 64.8176 87.9473 64.8593C87.5005 65.976 87.6735 66.5751 88.0082 67.1613C88.335 67.7445 88.8056 68.3041 88.8616 69.2885C88.745 68.456 88.9542 67.4197 89.0975 66.3907C89.2466 65.3656 89.2991 64.3326 88.9608 63.6169C89.2288 63.8157 89.4861 64.0207 89.7429 64.2306C89.9027 63.0946 89.4202 62.5685 89.0402 62.084C88.6374 61.5932 88.3412 61.112 88.6657 59.9511L89.2804 60.1432C89.1968 58.9798 89.1331 57.762 89.0116 56.5302C88.9036 55.2975 88.7209 54.0513 88.4317 52.8517C88.1591 51.6488 87.7129 50.5093 87.1704 49.5061C86.8706 49.0164 86.5866 48.5422 86.2187 48.1467C86.0426 47.9449 85.8637 47.7542 85.6819 47.5763C85.4843 47.4076 85.2847 47.2517 85.0834 47.1097C84.7858 47.1228 84.6635 47.6847 84.5544 48.2366C84.4279 48.8081 84.305 49.3811 84.1595 49.5097C84.5029 49.874 84.7962 50.2295 85.126 50.5339C85.4269 50.8576 85.7265 51.1562 86.0277 51.4476C86.3072 51.75 86.5854 52.0457 86.8551 52.3578C87.1115 52.6748 87.3478 53.0118 87.5722 53.3839L86.6467 53.6101C87.0158 53.6971 87.3952 54.2063 87.7302 54.5512C88.0581 54.8961 88.3182 55.0823 88.4543 54.4719C89.2087 55.7514 87.851 55.6517 88.6278 57.1215C87.6212 57.1219 87.3763 56.2397 86.5568 56.3673C86.7792 56.7693 87.0217 57.1736 87.2322 57.5928C86.7997 57.229 86.9893 58.4148 86.5579 58.0609C87.2989 59.1904 87.2269 60.0787 87.0739 60.9429C86.984 61.3736 86.8851 61.8287 86.824 62.286C86.7637 62.7311 86.7455 63.2192 86.833 63.828C86.9216 63.3905 87.0118 62.9503 87.0667 62.5147C87.3418 62.5218 87.4692 62.7165 87.5362 62.9887C87.5933 63.2624 87.6107 63.6063 87.6607 63.9126C86.8232 64.5195 86.9 64.9097 86.3615 66.1289C86.6118 67.2929 87.4544 68.1209 87.1475 69.6719C86.6652 69.4071 86.3985 70.0255 86.1466 70.7457C85.891 71.4624 85.6655 72.2908 85.2079 72.3885C85.6987 72.6396 85.6815 73.4458 85.6598 74.2506C85.629 75.0472 85.6157 75.8659 85.9118 75.9616C86.12 76.7531 85.9459 77.9218 85.3954 77.8916C85.3685 77.768 85.2756 77.5093 85.2399 77.2497L85.1669 78.0915C85.0499 78.0058 84.9589 78.032 84.9422 77.9317C84.8923 78.7039 85.647 78.7195 85.1212 79.7475C84.8427 79.7393 84.8441 79.1657 84.7547 78.7154C84.6596 79.5547 84.897 80.3572 85.2024 81.1191C85.5116 81.8878 85.8656 82.5872 86.0965 83.397L87.3281 87.7236L88.9135 83.4235C89.0282 83.1127 89.2102 82.8242 89.4976 82.5605C89.1534 82.0819 89.7881 79.8314 88.5754 79.9956C89.1311 79.5096 89.9075 79.9876 90.2296 78.3056C89.5865 77.1165 91.0677 76.5705 90.8183 75.1714C91.3222 77.075 91.0793 75.2481 91.597 76.9373C92.2782 75.9252 91.4915 73.9418 92.1904 72.0809C92.4575 71.9432 92.7239 72.0252 92.992 71.8874C92.8752 71.0992 92.3635 70.0617 93.32 69.6077L92.6574 69.503C93.3577 68.3195 93.7431 66.4767 94.9176 65.4108C94.7143 64.752 94.5323 64.0896 94.3472 63.4071C94.8705 63.0175 95.2852 62.5484 95.5846 62.0087C95.9076 61.4835 96.1313 60.8965 96.2948 60.2846C96.4829 59.6891 96.5762 59.0453 96.6641 58.435C96.7572 57.829 96.7968 57.2223 96.8139 56.6796C97.082 56.3531 97.444 55.9662 97.7672 55.6844C98.098 55.4084 98.3862 55.2357 98.4967 55.3215C98.4619 55.5362 98.4165 55.91 98.3321 56.3166C99.0946 55.3553 100.551 54.6635 100.188 53.4727C100.751 52.3091 101.334 53.2577 102.064 52.7008C102.354 51.2873 103.889 50.1694 105.247 49.3168C106.607 48.4485 107.782 47.7794 107.511 46.6199C107.286 46.7501 107.008 46.9037 106.686 47.0728C106.361 47.2394 105.993 47.4223 105.614 47.6471C105.23 47.8635 104.826 48.1072 104.435 48.3957C104.035 48.6723 103.651 48.9947 103.294 49.3465C103.511 48.7899 102.903 48.7317 103.442 48.1926C103.826 47.851 104.196 47.5884 104.562 47.3763C104.934 47.1724 105.295 47.009 105.648 46.8404C106.01 46.6823 106.366 46.5234 106.722 46.3107C107.081 46.1013 107.454 45.8614 107.838 45.5111L108.379 46.8712C110.168 46.6449 111.315 45.5399 112.561 44.5592C113.18 44.0742 113.797 43.6187 114.474 43.3903C115.145 43.1494 115.87 43.1327 116.612 43.4758L116.613 43.4744Z" fill="#E0E1DC"/>
<path d="M97.2986 58.1548C97.7559 57.8941 98.2007 57.6464 98.6817 57.4032L98.0886 57.1661C97.9054 57.5816 97.6885 57.9482 97.2986 58.1548Z" fill="#E0E1DC"/>
<path d="M98.0914 57.1664C98.2094 56.8934 98.2815 56.6005 98.3359 56.3163C98.1432 56.5652 97.9904 56.8272 97.9406 57.1101L98.0914 57.1664Z" fill="#E0E1DC"/>
<path d="M122.022 42.7924C122.17 42.8292 122.381 42.9099 122.631 42.9652C122.883 43.0124 123.166 43.0647 123.469 43.0545C123.14 42.7884 122.347 42.5991 122.022 42.7924Z" fill="#E0E1DC"/>
<path d="M123.674 42.6449C123.464 42.5221 123.251 42.3873 123.03 42.2708L122.898 42.4189C123.162 42.4737 123.417 42.5714 123.674 42.6449Z" fill="#E0E1DC"/>
<path d="M134.271 79.3781L134.136 80.6501L133.952 81.9281C133.651 82.0066 133.283 82.7107 132.94 83.2388C132.592 83.765 132.3 84.1251 132.209 83.545C132.275 84.4319 131.631 85.3937 131.198 86.0923C130.772 86.7957 130.546 87.2582 131.513 87.2452C132.508 85.7136 133.581 84.0372 134.581 82.1894C135.579 80.3431 136.511 78.3284 137.233 76.1832C138.681 71.8698 139.086 67.1385 138.247 63.0209C138.471 63.4551 138.675 63.8966 138.88 64.345C138.262 62.1768 138.437 60.7081 138.422 59.2903C138.4 57.8985 138.178 56.5409 136.564 55.1899C136.996 55.2259 137.431 55.2683 137.866 55.3171C137.75 54.2833 137.041 53.4644 136.382 52.6743C135.736 51.8678 135.155 51.0987 135.234 49.8555L134.889 50.2679C134.623 49.7823 134.717 49.4792 134.434 48.9829C134.41 49.0849 134.386 49.186 134.357 49.2889C133.176 48.2864 132.742 47.5632 132.06 46.2276C132.173 46.0635 132.32 46.1644 132.482 46.3447C132.637 46.5311 132.806 46.7939 132.989 46.9416C132.934 46.5564 132.572 46.2463 132.103 45.9692C131.65 45.6752 131.101 45.4174 130.703 45.02C130.279 44.1683 131.1 44.6112 131.302 44.5949C129.858 43.5732 128.928 42.7145 127.96 42.0783C127.716 41.9264 127.473 41.7875 127.223 41.6677C126.957 41.5531 126.671 41.4639 126.381 41.4009C125.792 41.294 125.144 41.321 124.436 41.5926C124.138 41.8476 125.062 42.4221 123.897 42.2434C124.841 42.7827 125.673 43.1085 126.562 43.42C127.003 43.5772 127.46 43.7101 127.913 43.8785C128.379 44.0268 128.831 44.2187 129.301 44.4288L128.867 44.0905C130.041 43.8736 130.231 44.193 130.397 44.6399C130.487 44.863 130.567 45.134 130.762 45.433C130.861 45.5806 130.992 45.7333 131.172 45.8898C131.345 46.0516 131.56 46.2251 131.846 46.4035C130.869 46.356 130.129 45.5928 129.543 45.6025C129.698 45.9523 129.835 46.269 130.001 46.5251C130.168 46.7792 130.335 47.0017 130.508 47.1974C130.867 47.577 131.236 47.8694 131.589 48.1499C131.941 48.4304 132.241 48.7253 132.45 49.0866C132.632 49.4649 132.724 49.91 132.566 50.5178L132.423 50.3715C132.468 50.8036 133.107 51.2641 133.519 51.7623C133.63 51.4824 133.466 50.8686 133.397 50.4234C133.861 50.8974 134.681 50.8627 135.084 50.9223C134.905 51.4306 135.085 51.6138 135.339 51.8378C135.594 52.0585 135.922 52.3238 135.95 52.9593C135.429 53.6063 134.982 52.2697 134.44 52.0395C134.779 52.3959 135.113 52.7646 135.428 53.1497C135.692 53.7457 135.588 54.121 135.431 54.4185C135.267 54.7187 135.026 54.9529 134.923 55.3049C135.748 56.1727 135.12 54.5904 136.104 55.2053C135.881 55.9939 136.18 57.7568 136.478 59.7009C136.802 61.6411 137.107 63.7748 137.425 65.1867C137.34 64.2198 136.66 64.8408 136.77 63.6877C136.688 63.8973 136.75 64.3689 136.891 64.7957C137.025 65.2217 137.251 65.6064 137.527 65.6211C137.97 67.5943 137.332 70.0948 136.459 71.7479L137.11 71.3375C137.417 72.1801 137.056 73.1268 136.533 74.1498C136.008 75.1779 135.376 76.2776 135.108 77.627L135.142 77.5794C135.041 78.0093 135.214 78.5212 135.299 79.1139C135.393 79.7087 135.361 80.3701 134.872 81.0472C134.488 80.3368 134.913 79.582 134.272 79.3783L134.271 79.3781Z" fill="#E0E1DC"/>
<path d="M130.193 88.1874C130.188 87.7929 130.176 87.4005 130.152 87.0058C129.426 87.6645 129.375 89.2361 129.887 89.4069C130.208 88.7871 131.031 88.3086 130.76 87.9396C130.605 87.9586 130.396 87.7745 130.193 88.1877L130.193 88.1874Z" fill="#E0E1DC"/>
<path d="M114.011 97.8255C113.65 98.0293 113.775 98.3108 113.627 98.5393C115.703 98.3519 118.064 97.813 120.023 97.03C120.508 96.8229 120.987 96.657 121.418 96.4503C121.854 96.2514 122.262 96.0649 122.635 95.8943C123.364 95.5211 123.995 95.269 124.429 95.1245C125.103 94.7892 125.331 94.3448 125.498 93.8046C125.673 93.2702 125.854 92.6763 126.352 92.0099C126.712 92.0278 127.083 92.0497 127.443 92.0541C127.598 91.5561 128.314 90.968 128.772 90.452C129.241 89.9463 129.439 89.5283 128.644 89.472C128.504 89.4733 128.557 90.4551 127.862 90.8645L127.63 90.4663C127.251 90.9185 126.876 91.3776 126.478 91.8168C126.491 91.5554 126.502 91.2955 126.505 91.0315C125.372 91.5702 125.359 92.1405 125.242 92.814C125.189 93.15 125.121 93.5098 124.887 93.8896C124.632 94.2437 124.217 94.637 123.467 94.9688L122.887 94.0211C122.439 94.2673 122.069 94.5198 121.711 94.7273C121.35 94.9265 121.02 95.1134 120.688 95.2787C120.01 95.5683 119.316 95.7877 118.369 95.717C118.369 95.717 118.52 96.2558 118.785 95.9373C119.118 95.8945 119.694 96.1648 119.583 96.5549C118.186 97.4657 118.24 97.2688 118.39 96.8759C118.534 96.4723 118.71 95.9281 117.632 95.9907C116.496 96.7137 114.635 97.3642 112.891 97.5778C111.147 97.8039 109.564 97.6461 108.9 97.1641C109.473 97.5296 109.317 97.8671 108.822 98.0953C108.332 98.3161 107.507 98.4191 106.802 98.3152C106.197 97.8576 107.311 97.7077 107.57 97.388C106.926 97.2156 106.431 96.8795 105.772 96.975C106.539 97.6757 105.904 98.4451 104.336 98.6344C105.953 99.1848 107.536 99.0066 109.11 98.6882C110.693 98.3669 112.243 97.9177 114.012 97.8253L114.011 97.8255Z" fill="#E0E1DC"/>
<path d="M113.015 98.8336C113.386 98.7716 113.548 98.661 113.628 98.5392C113.137 98.5903 112.646 98.627 112.195 98.6326C112.466 98.6991 112.736 98.7781 113.015 98.8334L113.015 98.8336Z" fill="#E0E1DC"/>
</svg>
