<svg width="77" height="76" viewBox="0 0 77 76" fill="none" xmlns="http://www.w3.org/2000/svg">
<path d="M58.993 53.6443C58.9212 54.2231 59.1725 53.6946 59.518 53.4017L58.993 53.6443Z" fill="#E0E1DC"/>
<path d="M59.4171 53.4713C59.553 53.4191 59.6857 53.3482 59.8183 53.2772C59.665 53.2841 59.5434 53.3629 59.4171 53.4713Z" fill="#E0E1DC"/>
<path d="M62.3179 50.8801C62.2519 51.4185 61.8894 51.8671 61.5676 52.1944C61.2388 52.5318 60.9525 52.8091 60.8943 53.188C61.3506 53.0309 61.8413 52.6132 62.1467 52.1393C62.4593 51.6554 62.5324 51.107 62.3179 50.8801Z" fill="#E0E1DC"/>
<path d="M61.2634 51.8052L61.3998 52.0836C61.4632 51.7799 61.5295 51.4935 61.5483 51.1886C61.4702 51.4061 61.3719 51.6092 61.2634 51.8052Z" fill="#E0E1DC"/>
<path d="M60.5907 51.998L60.7403 51.9988C60.947 51.6644 61.1307 51.2987 61.2632 50.9418C61.0895 51.3146 60.8587 51.6619 60.5907 51.998Z" fill="#E0E1DC"/>
<path d="M61.5057 47.4914C61.7826 47.6724 62.0542 47.9246 62.2974 48.2168C62.4238 48.8013 62.1927 48.6827 61.9986 48.5754C61.7946 48.4609 61.5793 48.3835 61.656 48.6779C61.9455 49.1378 62.1408 49.2011 62.3619 49.3126C62.5431 49.3958 62.9016 49.6946 62.598 50.5898C62.7845 50.6018 63.0557 49.7737 62.7989 48.9919C62.5893 48.2283 62.1503 47.7676 62.4888 47.6921C62.0048 47.0195 61.917 47.1223 61.8962 47.2576C61.8613 47.4129 61.8451 47.6266 61.5057 47.4914Z" fill="#E0E1DC"/>
<path d="M36.1458 20.6269C36.1644 20.5655 36.1596 20.5372 36.1499 20.4806C36.0913 20.5634 36.0609 20.6414 36.1458 20.6269Z" fill="#E0E1DC"/>
<path d="M26.1222 18.9849C25.9306 18.9313 25.7845 18.9755 25.6243 18.9933C25.6899 19.0397 25.7631 19.0752 25.8442 19.0997C25.942 19.0542 26.0212 19.0118 26.1222 18.9849Z" fill="#E0E1DC"/>
<path d="M37.4976 27.6332C37.404 27.8079 37.3175 27.9725 37.2553 28.1243C37.3564 28.0452 37.4458 27.8977 37.4976 27.6332Z" fill="#E0E1DC"/>
<path d="M25.8324 56.3857C25.8922 56.3537 25.9396 56.313 25.9797 56.23C25.9797 56.23 25.9674 56.2212 25.9638 56.2001L25.7334 56.3156L25.8324 56.3857Z" fill="#E0E1DC"/>
<path d="M23.8517 26.5809C23.95 26.7285 24.0453 26.8583 24.1553 26.9674C24.0136 26.7267 23.9214 26.6146 23.8517 26.5809Z" fill="#E0E1DC"/>
<path d="M36.3687 32.3196C36.3917 32.2435 36.4075 32.1777 36.4233 32.1118C36.3798 32.1734 36.3392 32.2525 36.3016 32.3491L36.3687 32.3196Z" fill="#E0E1DC"/>
<path d="M29.7972 19.4135C29.6322 19.3593 29.4911 19.3376 29.3635 19.3411C29.5107 19.3984 29.6487 19.4023 29.7972 19.4135Z" fill="#E0E1DC"/>
<path d="M48.6907 44.0357C48.4301 44.0073 48.2097 44.0541 48.034 44.1481C48.2015 44.2199 48.4133 44.2294 48.6907 44.0357Z" fill="#E0E1DC"/>
<path d="M43.5986 44.7877L43.6398 44.7657C43.5786 44.6711 43.5545 44.7052 43.5986 44.7877Z" fill="#E0E1DC"/>
<path d="M40.9852 44.9431L41.0271 44.9359C41.0128 44.852 41.0005 44.8434 40.9852 44.9431Z" fill="#E0E1DC"/>
<path d="M48.0363 44.118C47.5958 43.9404 47.3623 43.2387 46.9263 44.1073L47.0554 44.1986C46.6985 44.0503 46.2859 44.4437 45.9257 44.5315C45.9811 44.6005 46.0337 44.6526 46.0862 44.7047C46.2756 44.6897 46.5159 44.6661 46.8976 44.6532C47.3703 44.7643 47.6046 44.3489 48.0363 44.118Z" fill="#E0E1DC"/>
<path d="M36.2603 20.5146C36.1213 20.629 36.3259 20.8318 36.2603 20.5146V20.5146Z" fill="#E0E1DC"/>
<path d="M37.4985 23.538L37.5171 23.139C37.4801 23.2612 37.454 23.3912 37.4985 23.538Z" fill="#E0E1DC"/>
<path d="M34.7063 39.3348C34.7249 39.2734 34.7484 39.2403 34.7552 39.1954C34.6158 39.1464 34.6351 39.2596 34.7063 39.3348Z" fill="#E0E1DC"/>
<path d="M37.5015 22.8048L37.506 23.1624C37.5346 23.0538 37.5525 22.9375 37.5015 22.8048Z" fill="#E0E1DC"/>
<path d="M35.8563 34.202C35.8753 34.1752 35.8943 34.1484 35.8999 34.1121C35.8809 34.1389 35.8619 34.1657 35.8563 34.202Z" fill="#E0E1DC"/>
<path d="M61.1268 27.3802C61.1286 27.7987 60.8736 27.9906 60.7451 28.3616C61.1097 29.3201 61.0741 26.6126 61.3173 27.9321C61.375 27.5558 61.3807 27.232 61.3244 26.9537C61.1582 27.1043 60.9511 27.2706 60.758 27.4171C60.8178 28.1746 61.0006 26.9481 61.1268 27.3802Z" fill="#E0E1DC"/>
<path d="M23.3825 53.5916L23.4361 53.7032C23.5288 53.4889 23.6294 53.4717 23.3929 53.098C22.8756 53.1002 22.9642 53.8702 22.179 53.6681C22.3107 53.7318 22.44 53.8823 22.5623 54.0425C22.5605 53.6287 22.9952 53.5975 23.3825 53.5916Z" fill="#E0E1DC"/>
<path d="M22.5171 53.9962C22.5201 54.014 22.5201 54.014 22.5128 54.0244C22.5041 54.0808 22.4954 54.1373 22.5045 54.1907C22.5806 54.2602 22.6523 54.3578 22.6927 54.4333C22.6922 54.3235 22.6187 54.162 22.5171 53.9962Z" fill="#E0E1DC"/>
<path d="M52.3901 37.754C52.2135 37.7939 52.0588 37.8493 51.9165 37.864C52.1655 37.9083 52.2982 37.8373 52.3901 37.754Z" fill="#E0E1DC"/>
<path d="M17.6999 28.5596C17.5773 28.4123 17.4518 28.2479 17.3452 28.1422C17.4854 28.3927 17.6021 28.5055 17.6999 28.5596Z" fill="#E0E1DC"/>
<path d="M28.9953 56.5523C29.1057 56.5986 29.2055 56.6374 29.3309 56.6625C29.3958 56.6608 29.4607 56.6589 29.5437 56.654L28.9953 56.5523Z" fill="#E0E1DC"/>
<path d="M16.4489 37.2639C16.787 37.8495 16.4964 37.0266 17.2215 36.5765C17.3074 36.3062 17.4105 36.0329 17.5136 35.7597C17.2304 36.0108 16.9904 36.3075 16.7916 36.5883C16.6726 36.8202 16.5536 37.0521 16.4489 37.2639Z" fill="#E0E1DC"/>
<path d="M61.3116 26.9012C61.2909 26.9048 61.2788 26.8962 61.246 26.8912C61.2496 26.9119 61.2531 26.9326 61.2566 26.9533L61.3116 26.9012Z" fill="#E0E1DC"/>
<path d="M33.1068 31.9471C33.1932 31.9774 33.2795 32.0077 33.3659 32.038C33.3043 31.9945 33.2282 31.9714 33.1068 31.9471Z" fill="#E0E1DC"/>
<path d="M24.5465 55.868C25.0643 56.1453 25.6002 56.3759 26.125 56.6432L25.717 56.295C25.369 56.4503 24.9085 55.6928 24.5465 55.868Z" fill="#E0E1DC"/>
<path d="M14.405 41.319C14.9183 40.7212 15.4009 40.6122 15.5705 39.2905C15.5737 39.0526 14.9132 39.2008 15.5531 38.5725C15.5816 38.893 15.6842 39.2359 15.774 39.5547C16.0197 39.0378 16.3967 38.5688 16.6354 38.0619C16.9082 37.5492 17.0201 37.0728 17.2117 36.5476C17.6045 36.1198 17.9816 35.6508 18.4291 35.3368C18.3329 35.494 18.2537 35.6482 18.1975 35.8337C18.6617 35.4114 19.2234 35.1482 19.688 34.8313C20.1743 34.5898 20.6006 34.3058 20.9563 33.8668C20.6931 34.2812 20.3675 35.1019 21.2576 34.6507L21.905 34.1178C22.0522 34.2069 21.7255 34.4563 22.9415 33.9053C22.5259 33.6862 23.9566 33.3624 24.3118 33.794C24.1262 33.3773 23.2597 33.3496 23.1425 32.9212C24.5216 32.8612 24.0098 31.8231 25.2727 31.9061L25.1449 32.3412C26.091 32.32 26.7482 32.0494 27.3441 31.7803L27.2666 31.9958C28.9117 32.1541 29.9514 31.7036 31.0049 32.4642L31.8547 32.2398C31.6117 32.4132 31.7005 32.5211 32.0744 32.6506C32.7005 32.7633 33.7072 32.2746 33.3771 32.0409C35.3766 32.7804 36.0528 31.9524 38.2914 32.2905C38.1695 32.7598 39.183 32.5161 38.7672 32.9126L39.4561 32.7244C39.3535 32.7419 39.4353 32.8598 39.4782 32.9052C39.7225 33.0481 39.8387 32.9052 39.962 32.7522L39.9054 32.8321L40.8507 32.9606L40.906 32.5643L41.5588 32.9362C41.1034 33.4099 40.083 33.048 39.8585 33.5349C40.1524 33.6078 41.2937 34.2655 42.22 33.6146C42.826 33.7131 43.4521 33.8258 44.0523 33.8902C44.1374 34.1307 43.9856 33.9632 44.5746 34.0647C45.0639 34.2008 45.0784 33.9257 45.7111 33.923C45.519 33.9823 45.4194 34.0169 45.3627 34.0969C46.1443 34.2446 46.2716 33.704 46.7891 33.4396C46.4144 33.4597 46.0632 33.6165 45.7715 33.7104C45.6756 33.6125 45.7751 33.5779 45.7322 33.5325C45.4405 33.6263 45.1488 33.7202 44.8471 33.807C44.9074 33.5944 45.0025 33.842 44.4702 33.6604C45.0629 33.6294 45.2154 33.6473 45.8447 33.522C46.1368 33.1731 45.4224 33.0579 45.8103 32.8068C47.3369 32.5808 48.626 32.4571 49.7337 32.25C50.8544 32.067 51.8567 31.8604 52.6984 31.435C53.1593 31.2506 53.5043 30.9541 53.8964 30.676C54.1955 30.3171 54.5889 29.9947 54.7862 29.5037C55.304 28.6237 55.4441 27.3862 55.2231 26.0434C55.3306 25.8492 55.4431 25.8387 55.5452 25.7157C55.6502 25.6098 55.7506 25.4256 55.8168 25.2472C55.9392 24.8833 55.9815 24.4627 55.8485 24.3536L55.7169 24.5608C55.6269 24.4971 55.6818 24.3558 55.6289 24.3033C55.5759 24.2508 55.5643 24.1824 55.5426 24.107C55.5021 23.9732 55.3933 23.8511 55.0561 23.988C54.8115 24.1001 54.5969 24.2336 54.4052 24.3983C54.3076 24.2391 53.8625 24.1042 54.0012 23.887C53.8933 23.9758 53.4156 23.908 53.0864 23.8852C52.74 23.8653 52.4395 23.908 52.3713 24.2802C51.201 24.1727 50.4948 24.0033 49.3429 24.2091C49.4225 24.1603 49.4179 24.0819 49.4179 24.0819C49.1149 23.8524 48.9313 24.5785 48.5553 24.2823C48.6769 24.0681 49.6367 23.9214 48.8168 23.8067C48.5731 24.1298 48.0363 24.2304 47.5162 24.2227C46.989 24.2249 46.4659 24.2001 46.3016 24.1139C46.0216 24.2761 45.7416 24.4383 45.5775 24.7126C45.1503 24.7857 44.3801 24.6009 44.9926 24.2235C43.8242 24.8983 43.5056 24.3724 43.6259 25.1784C43.0584 25.7679 42.425 25.9203 41.8591 26.2105C41.2902 26.4837 40.7114 26.7498 40.3612 27.4781C38.3198 28.6011 36.7224 30.2638 34.906 31.366L35.0182 31.6106C34.7362 30.9905 33.3789 32.4626 33.4295 31.6273C33.3247 32.4543 32.6578 33.4389 32.1711 33.9355L32.0168 33.4959C32.9388 32.5115 32.0079 33.0841 32.9043 31.7964C32.8594 31.9448 32.7886 32.0448 32.9169 32.0756C33.0906 31.7029 33.4147 31.1814 33.7317 30.6699C34.0658 30.1555 34.4528 29.6936 34.6565 29.3422L34.7662 29.6751C35.2045 29.2044 35.3465 28.7493 35.4826 28.2599C35.6187 27.7706 35.6861 27.1875 36.1085 26.6755C37.1487 26.3305 36.157 27.0102 36.7668 27.3367C37.7847 26.4503 36.1288 25.098 37.9077 25.2158L37.6964 25.4717C39.1415 24.5122 37.3233 26.1687 38.5697 25.7445C39.6164 24.9235 39.2825 24.8223 38.8874 24.7228C38.5022 24.6304 37.9987 24.5143 38.9441 23.6667C39.0389 24.1693 39.5952 23.9773 40.2304 23.8863C40.2301 23.1652 41.8156 22.0498 42.3363 21.1869C42.3059 21.4207 42.9598 21.388 43.7037 21.0585C43.3654 21.6 42.9862 21.5418 42.0714 21.9005C42.0511 22.1414 41.9391 22.6179 42.3809 22.6302C42.5124 22.0625 43.3071 21.6188 44.0688 21.1367C44.8664 20.7101 45.6698 20.3177 45.8855 19.7795C45.5393 20.1201 46.605 20.0785 46.6305 20.3819C46.9692 19.9458 47.7652 19.8184 47.9939 19.665L47.2671 19.6311C48.6237 19.6452 50.2343 18.7277 51.9197 18.6592L51.8877 18.8318C52.4757 18.7224 53.0283 18.663 53.6022 18.5736C53.8856 18.5339 54.189 18.5084 54.4953 18.4999C54.8717 18.5411 55.3781 18.6743 55.8404 18.8062C54.8814 18.8032 55.621 19.4769 55.8516 19.7453C55.9142 20.0599 55.1306 20.106 54.6109 20.2037C54.3346 20.2334 54.1655 20.3239 54.1288 20.4181C54.1022 20.5194 54.1651 20.579 54.5507 20.7768C55.7631 20.7189 56.8561 20.0658 58.7465 20.9383C59.668 20.8247 58.2003 20.1613 57.675 19.9697C58.1044 20.0634 58.5696 20.2123 59.0377 20.3785C59.2632 20.463 59.4987 20.5547 59.7313 20.6292L60.0781 20.7545L60.2465 20.8136C60.2865 20.842 60.2569 20.9262 60.2757 20.9845C60.3027 21.9648 60.3647 22.7895 60.6382 23.1033C60.5725 22.411 60.6424 22.1001 60.8104 22.0538C60.7691 22.0696 61.056 22.513 61.3338 23.1601C61.6045 23.8173 61.8944 24.6383 61.7654 25.1177C61.4756 24.6572 61.5904 25.1739 61.233 24.5756C61.0396 25.6551 61.1274 26.5282 61.2559 26.9195C61.0833 26.8875 61.0087 26.7596 60.9724 26.5987C60.9548 26.4962 60.939 26.455 60.9368 26.2883C60.9447 26.1286 60.9426 25.9619 60.9404 25.7952C60.966 25.1225 60.8967 24.5628 60.4699 24.7413C60.4081 25.6137 60.3363 26.4789 60.3648 26.7994C60.3866 27.2353 60.3755 27.633 60.4227 28.0118C60.4628 28.4007 60.5372 28.7837 60.5519 29.2296C60.5495 29.6785 60.5147 30.1945 60.4091 30.8105C60.2075 31.3286 59.923 31.773 59.7069 32.2057C59.5853 32.4199 59.4636 32.6342 59.3149 32.8443C59.1561 33.0474 58.9532 33.2492 58.7503 33.4509C58.8224 33.3067 59.0448 33.0136 58.8769 33.0599C57.954 33.8334 57.7403 34.1777 57.5078 34.4637C57.2824 34.7397 57.1213 35.0311 56.252 35.3469C55.8193 36.4674 53.6654 37.6009 52.3597 37.8331C52.4859 37.6971 52.4621 37.455 52.6296 37.3033C50.2501 38.3523 48.1407 39.2319 45.8337 38.9056L45.8903 38.8256C44.487 38.8985 43.2521 39.0307 41.7479 38.822C42.1326 38.8089 42.263 38.6459 42.2767 38.5205C40.3298 38.0885 38.7796 38.7934 36.7372 38.369C36.2099 38.0107 34.985 38.1499 35.2403 37.5346C33.5869 37.4306 35.8407 38.32 34.254 38.143L34.4024 38.188C32.3502 38.4776 30.5945 37.7754 28.7567 38.1866C28.344 37.9846 27.677 37.6326 26.8093 37.6492C26.5302 38.0223 25.9609 38.1901 25.5104 38.487C25.0999 38.4517 24.7094 38.4305 24.1997 38.5353C24.9587 38.7572 23.8164 38.8647 23.7289 39.0731C23.9251 38.6263 23.4178 38.6427 24.0428 38.184C22.5624 38.2175 23.5452 39.4387 22.54 39.6283C22.4 39.5291 22.2499 39.4229 22.0927 39.3267C22.3248 39.2958 22.3264 38.9965 22.561 38.8772C22.4998 38.8789 22.3872 38.8894 22.2676 38.9098C22.168 38.9445 22.0542 38.9991 21.9505 39.0608C21.6959 39.166 21.55 39.3931 21.5639 39.6282C21.6961 39.887 22.3353 39.4083 22.0517 40.0636C21.7857 39.8453 21.7174 39.857 21.6074 40.1396C21.4946 40.4051 21.3363 40.7135 20.8791 40.7654C21.0768 40.9954 21.0548 41.5356 20.8257 41.9441C20.699 41.9746 20.7015 41.8862 20.6456 41.8166C20.2258 42.6007 21.0951 42.2849 20.8303 42.9985C20.5627 43.0795 20.4087 42.3847 20.0725 42.7324C19.5763 43.3273 20.2527 43.2204 19.8824 43.9345C20.1295 43.734 20.6156 44.1081 20.6687 44.5211C20.3211 44.5454 19.6555 44.5097 19.7319 43.7228C19.3515 44.0693 19.0754 44.82 18.743 44.0591C18.972 44.6267 19.1143 45.2531 19.2295 45.8753C19.4673 46.4941 19.6338 47.1076 20.0391 47.5747C19.8704 47.7706 19.9389 48.1194 20.049 48.5578C20.4372 49.0278 21.4641 48.9137 21.4405 49.3926C21.7644 49.4867 21.703 49.1278 21.8622 49.0303L22.3363 49.5911C22.3044 50.1241 21.5572 49.355 21.4135 49.7489C21.4403 50.0082 21.5084 50.2515 21.6005 50.482C22.1496 50.9157 22.2889 50.1884 22.436 49.917C22.4562 50.6522 23.1534 50.4098 23.194 50.9041C22.554 50.1958 22.7321 51.8536 22.0308 50.7865L22.1614 51.3445C21.8889 51.6022 21.4356 50.9059 21.118 50.9515C21.2866 51.3711 21.4883 51.574 21.6943 51.7498C21.9103 51.9327 22.1616 52.0656 22.3797 52.4152C21.7863 52.5959 21.7693 51.6227 21.0695 51.5929C21.1689 52.1739 21.5237 52.5001 21.7543 52.7684C21.9948 53.0438 22.1454 53.2555 22.0513 53.5794C21.5498 53.2695 21.4915 52.3121 20.8752 52.4615C20.7728 52.8396 20.3608 53.464 21.3059 54.2081C21.7552 54.3159 21.4886 53.6316 21.1834 53.2354L20.9771 53.3147L21.2267 53.0257C21.4411 53.5079 22.1227 53.9453 22.5216 54.2727C22.5279 54.4123 22.5826 54.5261 22.6614 54.6269C22.6826 54.5969 22.701 54.5498 22.7022 54.5057C22.731 54.5711 22.7527 54.6465 22.7473 54.7178C23.1726 55.199 24.1611 55.1178 24.403 55.7096L23.4422 55.2848C23.2386 55.6362 23.7751 56.1512 24.3622 56.807C24.6907 56.9794 25.2034 57.2522 25.6315 57.39C26.0554 57.5549 26.4326 57.4464 26.4029 57.1701C26.2232 57.1481 26.0365 57.136 25.8652 57.0598C26.3372 56.4778 27.0199 57.8472 27.1259 56.9761C26.9971 56.8398 26.8091 56.872 26.5924 56.8387C27.1021 56.7339 27.1227 56.2379 26.5512 55.8784C26.3195 56.0148 26.1062 56.1041 25.8616 56.2163C25.5262 55.4382 24.752 56.0016 24.3053 55.1899C24.4316 55.054 24.3682 54.8889 24.5579 54.918C25.0078 55.4918 25.9264 55.7215 26.3607 55.6384C25.6495 55.2853 26.5668 55.1987 26.2196 54.9679C26.7223 55.2336 26.9039 55.0619 27.0885 54.9072C27.2731 54.7525 27.4548 54.5807 27.9641 54.731C27.7937 54.8657 27.6162 55.0104 27.4187 55.1409C28.3854 55.5999 28.5468 54.6929 28.9159 54.3835C29.0743 54.4355 29.262 54.6584 29.4879 54.8484C29.7222 54.9842 30.009 55.0671 30.289 54.9048C31.1668 55.2559 30.831 54.3724 31.3828 54.1022C31.4404 54.5936 30.8508 55.0022 30.4737 55.1107C30.5208 55.129 30.565 55.1302 30.6091 55.1315C30.5679 55.1473 30.5366 55.1702 30.5283 55.2244C30.6796 55.2865 30.8664 55.2985 31.0356 55.208C31.2118 55.1075 31.3823 54.9728 31.5143 54.8711C31.7885 54.6747 31.9677 54.5912 31.8745 55.126C31.574 55.1686 31.3265 55.2637 31.0777 55.403C30.826 55.5252 30.5856 55.6103 30.3397 55.7667C30.0768 55.926 29.8209 56.0753 29.5409 56.2375C29.2592 56.3385 28.9575 56.4253 28.6258 56.4908C28.4103 56.4134 28.1793 56.4001 27.9726 56.374C27.77 56.3207 27.5987 56.2444 27.4969 56.1124C27.2649 56.5038 27.0871 56.9035 27.4853 57.3806C28.4176 57.1244 28.2161 56.6665 29.2576 56.6378C29.6044 56.7631 30.007 56.5975 30.3971 56.5131C30.7884 56.3846 31.1543 56.3133 31.4455 56.114L31.2274 55.7644C31.5841 55.5363 32.1175 55.3131 32.5484 55.1075C33.0047 54.8448 33.3497 54.5483 33.2121 54.3608C33.2076 54.643 33.6065 54.6099 33.9231 54.3534L33.602 54.8921C33.9763 55.127 35.1664 54.5277 34.952 55.0216C36.1162 54.374 35.7797 54.0006 36.9061 53.4914C37.2711 53.2091 37.359 52.7456 37.3154 52.2342C37.3087 51.9891 37.319 51.7411 37.3765 51.5115C37.3797 51.2735 37.4972 51.0864 37.6517 50.9104C38.2449 50.9848 37.5445 51.8257 38.2793 51.7C38.6675 51.1939 38.6745 50.8233 38.5594 50.5616C38.4884 50.3012 38.1912 50.1058 37.954 49.9529C37.7311 50.1406 37.5364 49.9277 37.2342 49.909C37.3209 49.8502 37.3233 49.7619 37.3871 49.6718C37.8076 49.7142 37.288 49.8119 37.709 49.9597C37.8398 49.9021 37.8864 49.8151 37.9231 49.7209C37.9597 49.6266 38.0034 49.5224 37.9371 49.3403C38.0584 49.3811 38.1797 49.4219 38.311 49.4698C38.336 49.3072 38.2313 49.1581 38.1837 49.0343C38.1162 48.8964 38.0957 48.7768 38.3403 48.6646C38.069 48.5175 37.7734 48.3834 37.4808 48.2664C37.513 47.4783 36.9433 47.5405 36.4631 47.2006C36.4952 47.3886 36.5445 47.5736 36.5666 47.7545L36.3088 47.1215C35.839 46.8941 36.169 47.7434 35.6166 47.1871C36.4448 47.2477 35.4291 46.3487 35.9604 45.9588C36.2168 46.2755 36.5872 46.898 36.825 46.5407C36.6374 46.3178 36.6318 45.6681 36.5382 45.1213C36.5074 45.2497 36.0959 44.643 35.9608 44.7276C35.7051 45.2374 35.4364 45.7231 35.1607 46.2187C34.6818 46.1951 35.4957 44.5785 35.0696 44.2469C35.8454 44.721 35.0658 44.0189 35.4612 43.8633C34.4529 43.3148 33.1562 42.9827 32.2965 42.224L32.7537 42.1722C31.9476 41.932 32.4946 41.5834 31.4859 41.2899C31.0554 41.2404 32.1038 41.8173 31.3806 41.6508C29.8094 40.4335 28.1597 39.2209 26.4489 38.0099C25.5755 37.3766 24.7221 36.7576 23.8617 36.1485C22.9683 35.5012 22.0657 34.6971 21.2502 33.9397C21.7773 33.5769 20.2686 32.3137 19.9974 31.5511C19.5547 31.3279 19.5853 31.815 20.0026 32.0954C19.1922 31.5218 18.8986 31.1939 18.392 30.3397C18.636 29.7615 18.0919 29.1511 17.6462 28.5502C17.9988 28.7097 18.1078 28.2162 18.4979 29.4685C18.4636 29.1139 20.0241 30.4737 19.2038 28.9169C17.8055 27.8371 16.5067 26.0016 16.3666 23.5897C16.4335 22.9012 16.4271 22.401 16.4253 21.9793C16.4505 21.5616 16.5588 21.2178 16.7712 20.9176L16.8956 21.336C17.1734 20.6465 16.9103 20.4453 16.7722 20.1524C17.2361 19.009 17.5519 19.8783 17.5992 20.2571C17.8103 19.6406 17.9777 19.1284 18.1138 18.639C18.2799 18.1709 18.4777 17.7853 18.6697 17.3656C18.7672 17.1642 18.8717 16.9529 18.9933 16.7386C19.1379 16.5556 19.2825 16.3726 19.4683 16.1737C19.647 15.9849 19.8499 15.7831 20.0799 15.5855C20.307 15.3707 20.5741 15.1844 20.8841 15.0434C21.4992 14.9381 21.324 15.61 22.3504 15.0299C23.175 14.6075 23.9889 14.3275 24.7898 14.0234C25.5742 13.8277 26.3585 13.6319 27.1445 13.4975C27.9151 13.4272 28.6986 13.381 29.5051 13.3662C30.3203 13.4026 31.1314 13.4661 32.0159 13.7017L32.8334 14.2653C33.1647 14.0943 33.516 13.9375 33.8672 13.7807C35.5546 14.4945 37.2141 15.3537 38.5683 16.7928C39.8913 18.2548 40.6321 20.221 40.6715 22.0961C40.5489 21.7389 40.5383 21.2659 40.294 21.123C40.6082 22.2915 41.5568 23.5187 41.2992 24.5828C41.4889 24.6119 40.8203 24.5592 40.6661 24.48C40.7857 25.7962 41.3578 26.6217 41.3071 28.0725C41.1154 28.2372 41.1218 27.4007 40.7831 27.8367L40.7054 28.6679C40.5814 27.9944 40.1854 29.0206 40.1545 28.7885C40.2295 28.6613 40.3628 28.5154 40.3148 28.2862C40.0168 28.2405 39.8261 28.9766 39.5428 29.3768C39.5059 29.7261 39.6468 30.0361 39.8651 29.7701C39.4969 30.2904 39.6259 29.811 39.325 29.7482C38.9947 30.4906 39.1549 30.6039 39.5405 30.8017C39.8597 30.8175 39.8597 30.8175 40.2297 30.3585C39.7285 31.1301 39.4133 32.0634 38.9121 32.4745L39.1152 32.9938L38.9873 33.0684C39.1315 33.1404 39.2086 33.18 39.2416 33.2183L39.2512 33.12C39.625 35.5622 38.2478 38.7173 39.327 40.5024L39.4094 41.4468L39.5698 42.2811C38.8235 41.7229 38.6762 39.9366 38.3519 39.7371C38.3894 39.8538 38.397 39.9492 38.4545 40.0801C38.2983 40.1947 38.4235 39.4874 38.0142 39.4079C37.9238 39.5993 37.8576 39.7777 37.7772 39.9761C37.6888 40.9497 38.8572 40.275 38.3216 41.3075C37.8902 40.0711 38.0405 41.8745 37.5042 41.1044C37.2781 41.53 37.7783 41.8841 38.311 42.1711C38.1759 41.8953 38.1062 41.5906 38.1107 41.3085C38.3808 41.4997 38.4566 42.5595 39.0493 42.5285C39.0785 42.6993 39.0477 42.8277 39.0223 42.8848C39.0915 43.084 38.9741 43.2712 38.8537 43.4413C38.8825 43.5067 38.9384 43.5763 39.0072 43.67C39.1363 43.5512 39.3318 43.6145 39.5044 43.6465C39.6769 43.6786 39.8312 43.7577 39.8916 43.9056C39.9334 43.9952 39.577 43.9683 39.3936 44.0788C39.3862 44.3439 39.4755 44.5572 39.6202 44.7347C39.689 44.8285 39.7578 44.9222 39.8337 45.0059L40.1209 45.1942C40.321 45.3359 40.5436 45.4034 40.8003 45.465C41.0358 45.5566 41.348 45.5823 41.669 45.6593C41.1467 45.4848 40.9923 45.0452 40.966 44.8914C41.0585 44.8668 41.154 44.8592 41.2936 44.8529C41.3244 44.7245 41.5478 44.6424 41.7299 44.576L41.4503 44.8437C41.7525 44.8623 42.0788 44.8681 42.3059 44.6534C42.4417 44.4191 42.5138 44.2748 42.994 44.6148C42.7877 44.694 42.6969 44.7799 42.6219 44.907C42.9241 44.9257 43.2487 44.8702 43.5846 44.7776C43.6322 44.9013 43.8803 45.2721 44.5317 45.3278L44.2039 44.6452C45.4601 44.8436 45.2859 44.7503 45.934 44.6834C46.403 45.0604 47.1673 44.8505 47.8703 44.6423C48.5833 44.4412 49.241 44.2759 49.3624 44.6772L48.1258 44.7481C48.5982 45.2477 47.1723 46.0104 47.6779 46.2933C48.1501 46.0718 48.6209 45.8945 49.0989 45.7072C47.6875 45.2188 50.4644 44.7964 50.2125 44.1976C50.8935 44.169 51.3034 44.7145 52.1026 44.3491C52.6349 44.5307 51.6273 44.8086 52.2621 44.9726C52.6922 44.9166 52.6591 44.5177 53.2726 44.7117C53.206 44.7847 52.9773 44.9381 53.059 45.056C53.7184 45.3126 53.5695 44.8017 54.3888 44.811L54.2305 44.7589C54.6621 44.4036 55.1566 45.0841 55.2771 45.2745C55.9652 45.236 56.6663 45.2215 57.3831 45.2484C57.0448 45.4294 56.002 45.5023 56.5594 45.8818C55.7718 46.3155 53.8812 44.7219 53.7907 45.8894C54.2897 46.2876 55.2477 45.7192 55.6451 46.3459C55.9096 45.8874 56.7824 46.0547 57.3992 46.0107L57.5027 46.2041C58.6585 46.5867 57.7624 45.3066 59.0288 45.8726C59.1251 46.076 58.5959 46.272 59.3495 46.5652C59.5375 46.533 59.8826 46.5971 60.0201 46.4241L59.8513 46.2595C59.7711 45.8424 60.9525 46.5284 61.489 47.0433C61.0485 46.9868 60.8256 47.1745 61.2108 47.6274C60.3399 46.9058 60.0135 47.8762 59.3278 47.4659C59.6808 47.3703 60.6307 47.5771 60.2808 47.0741C59.7638 46.4679 58.9199 46.7266 58.0458 46.6036L58.5698 46.8393C58.4351 47.6449 56.9828 46.9173 56.5271 47.646C56.7667 47.7105 56.9605 47.7126 56.9297 47.8409C56.9317 47.6471 56.1153 47.6549 55.7343 47.5354L56.2077 47.2698C55.1637 46.4107 55.212 47.361 54.0215 46.8787C54.1657 46.5903 56.0145 46.7576 55.065 46.2957C54.9897 46.6779 54.2439 46.2252 54.0868 46.4894L53.3685 45.7857C52.622 45.8431 51.7239 46.0935 51.2814 46.2308C51.6422 45.9756 51.9002 45.993 52.324 45.7974C51.8327 45.855 51.4996 45.6042 51.1711 45.4318C50.8455 45.2764 50.5288 45.1724 50.1738 45.4617L50.7431 45.6545C49.925 45.6011 49.6032 45.6736 49.2578 45.8646C48.9787 46.2378 49.6564 46.4472 50.0958 46.5479C49.7094 46.4997 48.8891 46.2795 48.9192 46.6612C48.5049 46.398 48.0598 46.6236 47.947 46.8891C47.2226 46.7668 47.661 46.6567 47.5742 46.3549C46.9966 46.5769 45.6283 46.4944 45.9356 47.0573C46.2153 47.1502 46.9833 46.8078 46.6947 47.2793C46.3577 46.8005 46.3326 47.5786 45.8137 47.5267C46.6445 46.8833 44.6111 47.2312 45.2061 46.7513C44.2571 46.7553 44.1577 47.1505 43.4817 47.3629L43.4245 46.9769C43.0815 47.0796 42.7227 47.141 42.3597 47.2295C42.1211 46.7603 42.6278 46.2778 41.6666 46.1081C40.9078 46.6073 41.1611 47.5224 39.5744 47.3454C39.7277 47.2137 39.874 47.0919 40.0244 46.9431C39.833 46.8527 39.4333 46.6749 39.0581 46.5896C38.7013 46.4572 38.3916 46.3431 38.3183 46.5315C38.3705 46.7336 38.4698 46.954 38.6132 47.1757C38.7779 47.3674 39.011 47.5474 39.2994 47.6915L39.1152 47.5911C38.6375 47.5233 38.901 47.8299 39.1158 48.057C39.3305 48.2841 39.4481 48.4575 38.4972 48.0398C38.7006 47.9434 38.6514 47.7583 38.5079 47.5367C38.3615 47.2979 38.1364 46.9583 37.8941 46.6216C37.4379 45.9082 37.075 45.0207 37.1557 44.5672C36.9668 44.3885 36.6521 44.0905 36.4357 43.8022C36.2193 43.5138 35.9887 43.2456 35.8144 43.1523C35.6482 43.2598 35.7555 44.0417 35.3228 43.8255C35.3164 43.3254 35.2192 42.9111 35.1136 42.5511C35.0351 42.1952 34.9112 41.8822 34.7873 41.5692C34.6705 41.2463 34.5425 40.9604 34.4953 40.5816C34.4522 40.1756 34.4575 39.7438 34.6436 39.2899C34.7066 39.3495 34.8191 39.339 34.7856 38.8347L35.0027 38.6129C34.9559 38.3395 34.8945 37.9807 34.9961 37.7523C35.0727 37.3259 35.1492 36.8995 35.2458 36.4872C35.3583 36.4768 35.2119 36.2381 35.1068 35.9834C35.0601 36.0706 35.0264 36.1818 34.9815 36.3302L35.1068 35.9834C35.0305 35.7943 34.9812 35.6092 35.0521 35.5091C34.6689 35.2229 35.4973 34.6679 35.7305 34.2323C35.701 34.3165 35.7073 34.4562 35.7219 34.5416C36.0776 33.7421 35.3697 33.1509 36.068 32.5038L36.2572 32.4275C36.1922 32.5617 36.1543 32.7 36.1973 32.7455C36.2451 32.6142 36.2859 32.4929 36.3126 32.3916C36.475 32.056 36.4337 32.0719 36.3658 32.1891C36.5227 31.5642 36.2323 31.6139 36.4862 30.6824L36.1775 31.1396C36.215 30.8958 36.2429 30.7503 36.2895 30.6632C36.2526 30.0364 36.3771 28.5026 36.824 27.7227C36.4753 26.8151 36.1707 26.8847 36.2128 25.7432L36.6867 25.9435C36.7933 25.5384 36.8999 25.1332 36.9793 24.7239C37.1682 24.9026 37.4293 24.3215 37.5016 23.5617C37.5045 23.5788 37.4974 23.5888 37.5074 23.5959C38.1137 23.0789 37.5957 22.2617 37.3852 22.0076C37.2263 21.8501 36.937 21.4951 37.0791 21.4004C36.6685 21.3651 36.5467 20.8584 36.2673 20.5104C36.2602 20.5205 36.2431 20.5234 36.236 20.5334C36.2202 20.4921 36.2014 20.4338 36.1726 20.3684C36.1614 20.4055 36.126 20.4555 36.0976 20.4955C36.1 20.0466 35.4958 20.3698 35.4889 19.7642C35.3138 19.46 35.47 19.3454 35.6262 19.2307C35.7654 19.119 35.9529 18.9814 35.5793 18.5969L35.0434 18.5478C34.9799 18.3828 35.0671 18.4294 35.1596 18.4048C34.7215 18.2599 34.5467 17.7007 34.158 18.1013C34.7875 18.6971 34.8342 18.9705 35.2883 19.5172C34.5059 19.1586 34.1985 19.5718 33.4965 19.3753C33.4086 19.4783 33.5812 19.5103 33.6459 19.6311C33.2495 19.5758 33.0026 19.1607 33.2514 19.0215C32.9029 18.8349 32.6442 19.3276 32.1236 19.2144L31.9642 19.9276C31.5942 20.0261 31.212 19.9508 30.8451 19.8113C30.4571 19.7018 30.0844 19.5281 29.7676 19.424C30.4903 19.4851 31.1425 19.0305 31.6272 19.0883C31.5774 18.4373 32.13 18.3779 32.6936 18.5365C33.2925 18.6451 33.7857 19.0092 34.0215 18.8457C33.675 18.4653 34.7771 18.5846 33.9471 18.1022C33.3012 18.3358 33.1855 17.9687 32.5695 17.8631C32.2755 17.4297 33.2129 17.3573 32.0208 17.1743C32.4935 17.4188 31.3208 17.7601 32.2628 17.766C31.4626 17.9205 31.0279 17.8982 30.5477 17.9188C30.0918 17.9264 29.62 17.8928 28.8799 18.0898C30.1147 17.9576 28.3795 18.7118 29.1073 18.9566C28.975 18.3374 31.0535 18.5621 29.4863 18.2938C29.8551 18.2395 30.2328 18.2364 30.6045 18.1992C30.6884 18.4839 29.4631 18.5176 30.4139 18.9353C29.4858 19.1645 29.1857 18.952 28.3727 19.4428C28.5193 19.066 27.5756 18.9988 27.4276 18.6988C27.0604 18.8144 26.7959 19.2729 26.3403 19.0255L26.8874 18.6769C26.2835 18.745 26.1392 18.3125 25.5878 18.3276C25.2794 18.5299 25.3262 18.8033 25.5263 18.9449C25.1333 19.0122 24.7278 19.1607 24.4095 19.3558C24.1241 19.5893 23.7798 19.7361 23.4127 19.8517C24.2203 19.4321 23.2479 19.2995 23.9559 18.9146L23.2966 19.0186C23.0724 19.2504 22.98 19.6356 22.8359 19.924C22.6818 20.2054 22.6619 20.5517 22.6574 20.8339C22.6637 20.9735 22.66 21.1061 22.6705 21.2186C22.711 21.3524 22.7656 21.4662 22.8202 21.5799C22.9365 21.7975 23.0754 21.9408 23.2496 22.0341C23.3269 22.4341 23.0664 22.5051 22.8406 22.6756C22.7598 22.7686 22.6818 22.8786 22.7011 23.0424C22.6932 23.202 22.7654 23.4184 23.0902 23.7233C22.9626 23.5429 22.5951 23.9135 22.3825 23.8532C22.3859 23.9757 22.381 24.1524 22.3831 24.3191C22.4053 24.5 22.4887 24.6792 22.6046 24.7913C22.6791 24.5587 22.7095 24.3248 22.834 24.1276C23.0604 24.4231 23.226 24.8256 23.2991 25.2528C23.4876 25.6866 23.5282 26.1809 23.8034 26.5559C23.6092 26.4485 23.5197 26.8507 23.1161 26.4449C22.8231 26.5829 23.2089 27.1413 23.3269 27.4201C23.9031 27.8579 24.0954 27.1831 24.7216 27.6563C25.8916 29.3556 27.3103 30.555 29.5098 32.0517C31.6079 33.5218 33.8245 35.0157 35.9907 36.7291C38.1498 38.4526 40.3222 40.3057 42.2315 42.9337C43.1606 44.2521 44.0822 45.8356 44.4901 47.9114C44.5878 48.4311 44.6684 48.9537 44.6524 49.528C44.6776 50.0865 44.6173 50.6596 44.52 51.2215C44.3282 52.3623 43.8668 53.4173 43.3078 54.3132L43.1077 54.1715C41.8936 56.4809 40.0598 57.841 38.3117 58.9315C37.4204 59.427 36.5191 59.9154 35.6114 60.2641L34.923 60.5578C34.6925 60.6499 34.3808 60.7297 34.1062 60.8206C33.554 60.9854 32.9918 61.1431 32.4267 61.2838C30.1171 61.6613 27.6035 61.6693 25.3897 60.8081C23.1905 60.0324 21.2116 58.7969 19.6973 57.2445L19.6411 57.43C19.0101 56.1574 18.6361 56.0279 18.0997 55.8734C17.6245 55.7173 16.9839 55.5191 16.7662 53.9383C16.3077 53.6738 15.8758 53.308 15.5972 52.8105C15.3115 52.323 15.0754 51.7654 14.8435 51.1807C14.6216 50.6031 14.5134 49.9709 14.3056 49.3733C14.0808 48.7786 13.9143 48.1652 13.6553 47.5764L13.969 47.3029C13.695 46.8837 13.5278 46.4199 13.5413 45.9339C13.552 45.4308 13.651 44.9303 13.7671 44.4267L13.9449 43.6665C14.0336 43.4139 14.1122 43.1542 14.1838 42.9045C14.3783 42.3964 14.4573 41.8817 14.405 41.319Z" fill="#E0E1DC"/>
<path d="M35.0444 38.6576L34.9388 38.8301C35.2647 39.3246 35.1448 39.0748 35.0444 38.6576Z" fill="#E0E1DC"/>
<path d="M37.3596 27.436C37.0382 27.5085 36.846 27.8225 36.7478 28.1731C36.8573 28.1456 37.0168 28.1534 37.1629 28.0318C36.7822 28.8875 36.8403 29.4837 36.4389 30.4747C36.6166 30.4355 36.8062 30.8248 36.83 29.7314C36.3775 30.1163 37.8673 27.9904 37.3596 27.436Z" fill="#E0E1DC"/>
<path d="M42.1708 44.9468C42.227 44.8936 42.2708 44.8317 42.3022 44.7611L42.1708 44.9468Z" fill="#E0E1DC"/>
<path d="M38.8452 43.4551C38.8599 43.5974 38.8558 43.7429 38.7625 43.8747C38.6462 43.7594 38.7286 43.6198 38.8452 43.4551Z" fill="#E0E1DC"/>
<path d="M39.2905 33.4384C39.2451 33.8426 39.2061 34.3868 38.9113 34.5694C39.0656 33.9262 39.2171 33.6271 39.2905 33.4384Z" fill="#E0E1DC"/>
<path d="M36.5938 45.0304C36.5909 45.0133 36.598 45.0033 36.585 44.9791C36.2084 45.0436 36.1773 44.4497 35.8373 44.4197C35.6125 43.9295 36.1788 44.1498 36.4608 44.3043C36.5068 44.3669 36.5424 44.678 36.5938 45.0304Z" fill="#E0E1DC"/>
<path d="M21.772 54.1154C21.9508 54.1818 22.1016 54.3939 22.2524 54.606C22.1739 54.6106 22.1715 54.6991 22.1719 54.8048C22.159 54.7806 22.136 54.7492 22.1159 54.7351C22.1027 54.9664 21.7473 55.0008 21.5323 55.1345C21.0665 54.7295 20.9958 54.5742 21.0869 54.4882C21.2021 54.3892 21.4618 54.3623 21.772 54.1154Z" fill="#E0E1DC"/>
<path d="M30.883 55.0556C30.7949 55.0706 30.7245 55.0827 30.6717 55.0917C30.7172 55.093 30.7876 55.0809 30.883 55.0556Z" fill="#E0E1DC"/>
<path d="M21.6916 54.07C21.6328 54.0889 21.8005 54.3438 22.0044 54.6546C22.0182 54.5282 21.9442 54.3547 21.6916 54.07Z" fill="#E0E1DC"/>
<path d="M59.0299 48.1912L58.7412 48.1524C58.8733 48.3061 59.0296 48.4468 59.1445 48.6034C60.0365 48.7681 60.244 48.5387 60.6717 48.3597C59.7739 48.1608 59.3995 47.7754 58.2627 47.4675C58.5322 47.7034 58.7946 47.9494 59.0299 48.1912Z" fill="#E0E1DC"/>
<path d="M59.5551 45.5438C59.487 45.4046 59.3014 45.0459 59.1356 44.9589L58.8905 45.1339C59.1168 45.2638 59.3259 45.3967 59.5551 45.5438Z" fill="#E0E1DC"/>
<path d="M46.5413 43.0133L47.6502 43.0822C47.9713 42.8221 46.6595 42.6096 46.5413 43.0133Z" fill="#E0E1DC"/>
<path d="M51.2523 46.8793L51.7485 46.6517C51.3181 46.3775 50.7026 46.4293 50.6186 46.7202C51.2061 46.5572 50.7624 46.8829 51.2523 46.8793Z" fill="#E0E1DC"/>
<path d="M43.7515 43.3707C43.5543 43.8861 42.8046 43.3098 42.6982 43.7828C42.8926 43.6158 43.7897 43.8547 43.7515 43.3707Z" fill="#E0E1DC"/>
<path d="M45.2282 47.7263C45.6197 48.1087 46.0588 47.6371 46.6685 47.6473C46.1891 47.7294 45.391 47.3901 45.2282 47.7263Z" fill="#E0E1DC"/>
<path d="M39.9006 44.5655C40.1052 44.3191 40.2856 44.4469 40.5162 44.6101C40.3951 44.6748 40.2757 44.801 40.1157 44.7931C40.6895 44.7478 40.6854 44.7749 41.0834 44.6804C40.7295 44.4149 40.3912 44.0852 40.6395 43.7343C40.3777 43.9553 39.8015 44.0891 39.9006 44.5655Z" fill="#E0E1DC"/>
<path d="M43.7261 48.0306C44.2687 48.0758 44.6655 48.3272 45.2564 48.2002C45.0989 47.9856 44.8767 47.6957 44.1378 47.8653L44.3332 47.4436C43.6109 47.2565 44.6874 47.9007 43.7261 48.0306Z" fill="#E0E1DC"/>
<path d="M39.6222 42.6498L39.5605 42.907C40.0618 43.2618 40.1705 43.6397 40.6018 43.328C40.4886 43.2329 40.3729 43.2262 40.1937 43.0542C40.0044 42.8751 39.7939 42.7261 39.6222 42.6498Z" fill="#E0E1DC"/>
<path d="M40.8167 47.4113L40.6224 47.944C41.5931 48.1436 40.5725 47.7563 40.9407 47.6666C41.1897 47.7667 41.5541 47.8113 41.7329 47.7094C40.7446 47.7714 41.6963 47.2876 40.8167 47.4113Z" fill="#E0E1DC"/>
<path d="M37.6323 46.7686C37.2334 46.5755 36.9257 46.2536 36.5801 45.9644C36.6397 46.3636 36.736 46.7739 36.862 47.2053C38.3366 48.0853 37.1208 46.9867 37.6323 46.7686Z" fill="#E0E1DC"/>
<path d="M36.9477 45.3829C36.946 45.3215 36.9472 45.2772 36.9627 45.2129C36.4913 44.8793 35.9197 44.4747 35.478 44.0566C36.1956 44.8505 36.2202 44.9433 36.9477 45.3829Z" fill="#E0E1DC"/>
<path d="M40.7731 28.7237C40.5695 28.519 40.1084 29.2989 40.4464 28.9926C40.6055 29.1961 41.1401 28.1197 40.7731 28.7237Z" fill="#E0E1DC"/>
<path d="M35.7369 30.9553C36.0125 30.6085 35.9782 29.2746 35.9429 28.7078C35.9143 29.3649 35.4027 30.9596 35.7369 30.9553Z" fill="#E0E1DC"/>
<path d="M35.8765 28.5278C35.8749 28.5825 35.893 28.6882 35.8935 28.8186C35.9017 28.6758 35.8873 28.5912 35.8765 28.5278Z" fill="#E0E1DC"/>
<path d="M25.9548 19.9883C25.9179 20.0154 25.8726 20.0543 25.8391 20.1016C25.8844 20.0627 25.9095 20.0272 25.9548 19.9883Z" fill="#E0E1DC"/>
<path d="M26.3882 19.7814C26.6875 19.8164 27.2346 19.5848 27.3089 19.3132C26.8792 19.5248 26.4265 19.6022 26.0284 19.9982C26.1678 19.9053 26.4606 20.0537 26.3882 19.7814Z" fill="#E0E1DC"/>
<path d="M23.31 21.1405C23.2308 20.903 23.498 20.8284 23.2705 20.6839C23.0623 20.6519 23.1238 21.1241 23.31 21.1405Z" fill="#E0E1DC"/>
<path d="M37.1706 48.3652C37.1951 48.7155 37.3695 48.8541 37.6529 48.6461C37.4776 48.295 37.374 48.5697 37.1706 48.3652Z" fill="#E0E1DC"/>
<path d="M37.839 49.0348L37.6779 49.1276C37.6179 49.2124 37.5398 49.3003 37.4586 49.3701C37.6016 49.2804 37.7203 49.1576 37.839 49.0348Z" fill="#E0E1DC"/>
<path d="M37.2353 50.3281C37.1735 50.2843 37.1116 50.2406 37.0796 50.1808C37.1152 50.2617 37.1632 50.3513 37.2353 50.3281Z" fill="#E0E1DC"/>
<path d="M37.0796 50.1808C37.0886 50.2333 37.0885 50.2333 37.0975 50.2858L37.0796 50.1808Z" fill="#E0E1DC"/>
<path d="M37.2762 50.1954L37.068 50.1223C37.0927 50.1398 37.1123 50.1908 37.1196 50.2331C37.1123 50.1908 37.1634 50.1712 37.2762 50.1954Z" fill="#E0E1DC"/>
<path d="M37.0274 50.6183C37.2432 50.6346 37.4114 50.6325 37.6313 50.6215C37.5421 50.2552 37.2323 50.7785 36.862 50.2739C36.9171 50.3887 37.0068 50.4976 37.0274 50.6183Z" fill="#E0E1DC"/>
<path d="M36.154 51.7294C35.9096 51.7978 35.8323 52.1201 35.6273 52.3671C35.4394 52.6112 35.2427 52.8038 34.9543 52.6147C33.7496 53.6774 35.8461 53.3364 34.2781 54.4436C36.0601 53.8649 34.5208 52.9715 35.9382 52.4817C35.5277 52.5078 35.5858 52.383 35.7611 52.2206C35.8921 52.0569 36.1201 51.8412 36.154 51.7294Z" fill="#E0E1DC"/>
<path d="M37.0068 52.3177C36.8619 52.0351 36.3454 52.4045 36.3168 52.6993C36.4787 52.6189 37.0257 52.736 37.0068 52.3177Z" fill="#E0E1DC"/>
<path d="M33.882 53.5245C33.707 53.5368 33.519 53.5247 33.3239 53.5226L33.2934 53.758C33.4939 53.6883 33.7045 53.6257 33.882 53.5245Z" fill="#E0E1DC"/>
<path d="M32.2196 54.1816L32.5047 53.672C32.3779 53.9153 31.8054 54.0398 32.2196 54.1816Z" fill="#E0E1DC"/>
<path d="M30.0605 54.1921C29.737 54.1145 29.4278 55.0005 30.1863 54.72L30.0082 54.7151C30.0363 54.5685 29.6317 54.3275 30.0605 54.1921Z" fill="#E0E1DC"/>
<path d="M25.0103 54.1309C25.2455 54.3125 25.5753 54.4247 25.6118 54.2232L24.8786 53.9316L25.0103 54.1309Z" fill="#E0E1DC"/>
<path d="M24.1342 55.9903C24.1299 56.6279 24.9221 56.4139 25.4272 56.8161C25.1223 56.6152 24.9933 56.5239 24.8444 56.4184C24.6785 56.3159 24.5056 56.2234 24.1342 55.9903Z" fill="#E0E1DC"/>
<path d="M24.8313 53.118C25.1356 53.057 25.3087 53.3331 25.4405 53.4724C25.5222 53.1617 25.0652 52.9611 24.8313 53.118Z" fill="#E0E1DC"/>
<path d="M23.6113 52.422C23.5758 52.1119 23.8469 52.2587 23.819 52.0439C23.6373 51.4952 23.2982 51.1052 22.8752 51.0458C22.7907 51.2711 22.467 51.792 22.111 51.7651C22.8582 52.3839 23.7877 52.0668 23.6131 52.8433C23.9916 52.7962 24.3671 52.7319 24.7156 52.6635C24.3332 52.1228 23.9374 52.7879 23.6113 52.422Z" fill="#E0E1DC"/>
<path d="M24.0553 54.8982L23.7974 54.3696C23.7002 54.677 23.3623 54.4528 23.0933 54.3226C22.9318 54.6146 23.1122 54.7423 23.3453 54.8169C23.5996 54.8615 23.9208 54.8331 24.0553 54.8982Z" fill="#E0E1DC"/>
<path d="M20.7374 48.5089L20.2983 47.5583L20.3648 47.8948L20.7374 48.5089Z" fill="#E0E1DC"/>
<path d="M20.7913 47.787L20.965 47.713C20.7958 47.5023 20.572 47.2833 20.4272 47.0596C20.5131 47.3022 20.6781 47.5402 20.7913 47.787Z" fill="#E0E1DC"/>
<path d="M20.8374 46.7665L20.8236 46.8929C20.8904 47.0765 20.9917 47.2541 21.1073 47.4115C20.9829 47.2024 20.9001 46.9773 20.8374 46.7665Z" fill="#E0E1DC"/>
<path d="M20.7938 44.7761L20.5214 44.9469C20.59 45.1925 20.2772 45.6986 20.6393 45.6366C20.5249 45.4344 20.5773 44.9107 20.7938 44.7761Z" fill="#E0E1DC"/>
<path d="M19.1955 33.8773C18.9929 34.2492 19.2646 34.2293 19.5279 34.2641C19.5959 34.0395 19.6741 33.822 19.7594 33.5945C19.6362 33.7043 19.3768 33.8995 19.1955 33.8773Z" fill="#E0E1DC"/>
<path d="M21.3991 33.5749C21.7167 33.2746 22.0696 32.9243 22.3959 32.6752C20.9926 33.0471 20.9361 33.4872 19.8047 34.2166C20.092 34.1499 20.3729 33.9437 20.6681 33.7175C20.959 33.5184 21.2729 33.3505 21.6142 33.2921L21.3991 33.5749Z" fill="#E0E1DC"/>
<path d="M41.2296 33.2242C41.1382 33.566 41.3509 33.5208 40.6634 33.7265C41.6095 33.5382 42.3982 33.6148 43.4634 33.556C43.2783 33.3497 44.0464 32.945 43.6512 33.0567C43.2703 33.1483 42.8734 33.1986 42.4896 33.2731L42.6699 33.0395C41.8318 32.7774 42.1203 33.4332 41.2296 33.2242Z" fill="#E0E1DC"/>
<path d="M35.0663 28.8799C35.0135 28.6753 34.7958 28.7037 34.5811 28.7493C34.2743 29.5049 35.1362 28.7166 35.0663 28.8799Z" fill="#E0E1DC"/>
</svg>
