<svg width="108" height="115" viewBox="0 0 108 115" fill="none" xmlns="http://www.w3.org/2000/svg">
<path d="M26.8866 48.7274L27.0901 47.9814L26.6332 47.7236L26.8866 48.7274Z" fill="#224486"/>
<path d="M28.7871 45.2982L28.7008 44.0237C27.2829 44.6309 27.753 43.6694 26.62 45.6014C26.703 45.9636 26.8364 46.542 27.0178 47.0049C27.2068 47.4686 27.4416 47.8163 27.7121 47.7276C27.6773 47.224 27.2063 46.4526 27.4236 45.7162C27.7963 46.0628 27.6887 46.8582 28.1843 47.2635C28.6785 46.0941 27.8956 46.4854 28.1764 45.1831L28.7873 45.2985L28.7871 45.2982Z" fill="#224486"/>
<path d="M27.5609 43.6809C27.7874 43.8212 28.0084 43.9635 28.2013 43.9615C27.9751 43.8211 27.7438 43.1707 27.5609 43.6809Z" fill="#224486"/>
<path d="M27.5026 42.8931C27.6399 42.0926 28.0003 42.958 28.0819 42.8849L27.3056 41.8712L27.5028 42.8934L27.5026 42.8931Z" fill="#224486"/>
<path d="M27.976 39.5546C27.9744 39.4186 27.9668 39.2925 27.9531 39.1653C27.7948 39.2722 27.8923 39.3991 27.976 39.5546Z" fill="#224486"/>
<path d="M28.1292 37.8956C27.769 38.1734 27.8932 38.6203 27.9538 39.1642C27.972 39.1511 27.9843 39.1395 28.0156 39.1218C28.3382 38.7024 28.8947 39.2291 28.6148 39.9369C28.6518 40.7252 28.05 40.5788 28.3668 41.2992L28.9896 40.4511C29.0791 39.2431 28.2928 38.4153 28.1288 37.8956L28.1292 37.8956Z" fill="#224486"/>
<path d="M27.9763 39.5532C27.979 39.6946 27.9721 39.8369 27.951 39.9934C28.0804 39.8139 28.0401 39.677 27.9763 39.5532Z" fill="#224486"/>
<path d="M27.6788 41.222L27.7549 41.6529L28.0313 41.585L27.6788 41.222Z" fill="#224486"/>
<path d="M28.6041 35.1712C29.0007 35.3528 28.8778 35.8281 28.7309 36.3047C28.593 36.7829 28.4385 37.2643 28.7451 37.4284C28.8926 36.3456 29.6972 35.6312 30.1058 35.955L30.088 34.7421C29.8648 34.2894 29.1217 34.6315 28.6041 35.1712Z" fill="#224486"/>
<path d="M31.2269 33.3906C31.1743 33.2986 31.1483 33.1974 31.1518 33.0936C31.1517 33.2246 31.1671 33.3415 31.2269 33.3906Z" fill="#224486"/>
<path d="M31.6341 27.2867C31.589 27.7662 31.5706 28.2518 31.5548 28.7338C31.5399 29.216 31.5123 29.6885 31.5209 30.1709C31.339 29.8437 31.0363 29.8528 31.1563 29.2263C30.8943 29.7858 30.9123 30.1581 30.9183 30.4932C30.9341 30.8324 30.9452 31.1382 30.7726 31.6138C29.9095 31.6832 31.2374 29.886 30.3857 30.2374C30.1806 30.9271 29.9328 31.9852 30.4347 32.7109C30.1563 33.0268 29.9016 33.354 29.6366 33.6813L30.5733 33.5126C30.9142 33.1343 30.1453 32.4503 30.8007 32.3333C31.1989 32.2948 31.1477 32.7515 31.1511 33.0801C31.1606 32.7107 31.4549 32.2792 31.7785 31.7688C32.1144 31.262 32.4899 30.6837 32.6528 29.983C32.8612 29.2574 32.6121 28.8609 32.3056 28.5055C31.9963 28.149 31.6333 27.8393 31.6333 27.2862L31.6341 27.2867Z" fill="#224486"/>
<path d="M32.5675 27.5321L32.9492 27.4971L32.4768 27.4427L32.5675 27.5321Z" fill="#224486"/>
<path d="M32.7268 24.3284C32.6713 24.8403 32.6531 25.3633 32.6186 25.87C32.4877 25.9807 32.2841 25.9866 32.0961 26.0175C32.2998 26.0415 32.4602 26.5312 32.6407 26.5398C33.1299 26.3917 33.2523 25.9825 33.2714 25.5C33.2834 25.2601 33.2647 24.9998 33.2675 24.7577C33.2729 24.517 33.2877 24.2876 33.3439 24.1009C33.9633 23.2757 34.0433 23.3516 34.1011 23.5807C34.1575 23.8119 34.1921 24.1931 34.6955 24.0236C34.4273 24.5046 34.248 24.4347 33.8535 25.0996C34.535 24.7577 34.8337 24.162 35.0346 23.5645C35.2393 22.9769 35.2948 22.331 35.4026 21.961C35.2195 22.0982 34.9825 22.0226 34.8268 22.4352C34.8869 22.1555 34.9466 21.8734 35.0181 21.6076C34.5278 21.782 34.1686 22.0471 33.8061 22.4498C33.4344 22.8516 33.1196 23.445 32.7271 24.3289L32.7268 24.3284Z" fill="#224486"/>
<path d="M31.6814 26.7054C31.8245 26.1791 31.9592 26.0148 32.08 26.0189C31.8242 26.0607 31.6161 26.1752 31.6814 26.7054Z" fill="#224486"/>
<path d="M35.6022 21.6069C35.5133 21.6468 35.457 21.7793 35.4033 21.9611C35.4823 21.9005 35.5496 21.8003 35.6022 21.6069Z" fill="#224486"/>
<path d="M34.3938 21.7742C34.5877 21.4997 34.7855 21.2355 34.9945 20.9811C34.8207 21.0181 34.642 21.0552 34.4693 21.1008C34.4289 21.241 34.2139 21.6915 34.3936 21.774L34.3938 21.7742Z" fill="#224486"/>
<path d="M54.9675 39.3037C55.2845 39.211 55.4326 38.8516 55.3293 38.1122C55.7695 38.1661 55.7211 39.147 55.9898 39.6045C56.2222 38.5868 56.4903 39.6128 56.8934 39.349C56.8846 38.7617 56.7528 38.3425 56.5935 37.9255C56.4233 37.5078 56.27 37.0885 56.2489 36.4674C56.3811 36.5103 56.5645 36.4633 56.6801 36.28C56.5466 35.9177 56.3941 35.495 56.2424 35.0437C56.0776 34.5949 55.8869 34.1228 55.7301 33.6463C55.3819 32.7017 55.0839 31.759 54.9958 31.0131C54.6718 29.6272 54.0489 28.735 53.216 27.4324C52.177 25.1135 50.7397 22.9236 49.1053 20.8539C48.3016 19.8594 47.3165 18.9953 46.2077 18.3033C45.1002 17.612 43.8812 17.065 42.5736 16.758C42.2803 16.9836 42.0075 17.2462 41.7608 17.499C41.6602 17.2821 41.3632 17.2751 41.1187 17.2585C40.8756 17.2551 40.6741 17.2318 40.7253 16.9598C40.8676 17.006 41.0018 17.004 41.1446 16.9868C41.2875 16.9762 41.4394 16.9598 41.6078 16.9581C41.0739 16.556 40.272 16.6149 39.537 16.8701C38.7889 17.1227 38.1386 17.5699 37.5089 17.8238C37.7297 17.8629 38.2581 18.3916 38.0282 18.6812C37.9217 18.4736 37.796 18.4216 37.6481 18.4529C37.5743 18.4684 37.4953 18.5038 37.4127 18.5507C37.3331 18.6034 37.2499 18.6669 37.1632 18.7316C36.985 18.8549 36.8128 19.0145 36.6062 19.0931C36.4066 19.1818 36.1846 19.2109 35.9202 19.0985C35.357 19.5177 35.5074 19.6678 35.6617 19.8202C35.8182 19.9794 35.97 20.1336 35.4998 20.634C35.6785 20.8546 35.9195 20.6274 36.1888 20.382C36.4556 20.1324 36.7531 19.8611 36.9801 19.9302C36.9995 20.215 36.7875 20.396 36.6129 20.5455C36.4462 20.706 36.3255 20.8331 36.5697 20.9874C37.2996 20.2818 38.0297 19.1837 39.2286 18.4152C39.8236 18.0221 40.5618 17.7324 41.3852 17.6072C42.2045 17.4803 43.0852 17.5072 43.8949 17.7025C43.7312 17.824 43.57 17.9618 43.4168 18.0931C43.828 18.1085 44.2951 18.2173 44.7729 18.3829C45.2469 18.5597 45.7242 18.812 46.1492 19.1206C46.9961 19.7463 47.6029 20.6016 47.6797 21.3373C47.7748 21.077 48.0726 21.5062 48.4902 22.0636C48.6928 22.3256 48.9152 22.5755 49.1288 22.7114C49.3374 22.8506 49.5468 22.8707 49.7354 22.6558C49.7853 23.1782 49.901 23.2642 50.1824 23.8525L50.5718 23.8089C50.8154 24.203 50.8026 24.4406 50.8022 24.6871C50.8029 24.9335 50.8172 25.1876 51.0891 25.634C51.1577 24.7967 51.6587 25.3847 52.1591 25.4617C52.2382 26.1121 52.3239 26.8155 52.4072 27.5011C52.4904 28.1731 52.5287 28.8328 52.5612 29.3954C52.6648 29.2586 52.7834 29.0997 52.8157 28.6822C52.9696 29.4098 53.3376 29.1075 53.559 29.2235C53.8511 29.8684 53.2533 30.0361 52.9544 30.1255C53.0313 30.4358 53.1723 30.6717 53.3372 30.8719C53.492 31.075 53.6755 31.241 53.8506 31.4017C54.196 31.7235 54.5307 32.024 54.4722 32.5458L54.8387 32.0677C54.9644 32.3801 55.0473 32.6928 55.1093 33.0052C55.1744 33.3173 55.2137 33.6299 55.2331 33.9498C55.2588 34.2683 55.2869 34.5886 55.3397 34.9157C55.3954 35.2425 55.4358 35.582 55.5455 35.9337C55.2769 36.3356 55.0803 36.064 54.9056 35.6385C54.7466 35.2097 54.5294 34.6285 54.3261 34.3774C54.2518 34.6919 54.3751 35.2883 54.1801 35.5185C54.4002 35.7765 54.6712 36.1332 54.9453 36.5199C55.218 36.9059 55.4444 37.3259 55.6552 37.6914C55.2243 37.3706 55.0716 37.6664 55.0264 38.0865C54.9672 38.5081 54.9767 39.065 54.966 39.3042L54.9675 39.3037Z" fill="#224486"/>
<path d="M54.1816 35.5194C54.0579 35.3736 53.9283 35.2532 53.838 35.1872C53.9115 35.3086 53.9858 35.4212 53.9848 35.6251C54.0735 35.6266 54.1349 35.5854 54.1816 35.519L54.1816 35.5194Z" fill="#224486"/>
<path d="M54.9656 39.3042C54.9401 39.3095 54.9193 39.3317 54.8915 39.3348C54.9418 39.4706 54.9583 39.4248 54.9656 39.3042Z" fill="#224486"/>
<path d="M54.9661 30.8157C54.9682 30.8761 54.9871 30.9502 54.9936 31.0147C55.0116 31.1 55.0406 31.1675 55.0562 31.2534L54.9661 30.8157Z" fill="#224486"/>
<path d="M52.4967 30.6044C52.5474 30.2887 52.5712 29.868 52.5625 29.3967C52.412 29.5948 52.287 29.7627 52.4967 30.6044Z" fill="#224486"/>
<path d="M48.722 22.7251C48.4896 22.5596 48.4635 22.7709 48.2232 22.7127C48.5375 23.167 48.7765 23.2293 48.722 22.7251Z" fill="#224486"/>
<path d="M54.3133 37.0334L54.5839 38.0523C54.6449 38.1759 54.6972 38.3 54.7423 38.4247C54.6226 37.9555 54.4525 37.4912 54.3135 37.0337L54.3133 37.0334Z" fill="#224486"/>
<path d="M50.08 50.2282C49.8763 50.4187 49.7246 50.5686 49.5534 50.785C49.388 50.9958 49.2318 51.2418 49.09 51.5153C48.949 51.7902 48.8189 52.0886 48.72 52.4293C48.6707 52.5992 48.6318 52.7861 48.6181 52.9963C48.6093 53.2095 48.6371 53.4754 48.7918 53.732L48.9691 54.0259L49.3161 53.9429C49.4365 53.9141 49.5541 53.8886 49.671 53.8671C50.2462 53.6479 50.492 53.3871 50.6034 53.2067C50.7123 53.0187 50.678 52.8683 50.6448 52.7256C50.6096 52.581 50.5744 52.4434 50.6533 52.2829C50.6928 52.2026 50.7602 52.1168 50.8699 52.0223C50.984 51.9349 51.1252 51.813 51.3212 51.6713C51.452 52.0665 51.566 52.4732 51.6618 52.8906C52.6302 52.2835 53.6763 51.3259 54.3376 50.1789C54.9944 49.0324 55.2977 47.7747 55.1011 46.7497C55.2939 46.6494 55.5955 46.3454 55.569 46.9356C55.7924 46.2403 55.4214 45.9246 55.1427 45.5894C54.8493 45.244 54.6366 44.8883 55.061 44.0321C55.2029 44.9721 55.4086 44.8886 55.658 44.6337C55.7827 44.5073 55.9178 44.3404 56.0592 44.245C56.1937 44.1495 56.3392 44.1238 56.4957 44.2906C56.5068 44.3919 56.5062 44.4898 56.5121 44.5899C56.5782 44.2873 56.5894 43.9415 56.6154 43.5995C56.6243 43.4279 56.6333 43.2547 56.6422 43.0827C56.6512 42.9114 56.6594 42.7416 56.6468 42.5725C56.6331 42.2361 56.6216 41.9165 56.6226 41.6317C56.6232 41.4892 56.6266 41.3556 56.6347 41.2324C56.6371 41.1089 56.6369 40.9958 56.6478 40.8957C56.3408 40.8518 55.8428 41.492 55.838 40.4573C55.7635 40.8728 55.4189 40.6852 55.1077 40.6362C55.2812 41.1636 55.2393 41.5628 55.2482 41.9145C55.2477 42.2665 55.2774 42.5704 55.4026 42.9142C54.8907 43.4102 55.3524 42.5126 54.8415 43.0033L55.0477 43.8934C54.8174 44.4726 54.7935 43.175 54.4924 44.0945C54.6942 44.2596 54.7443 45.112 54.4551 45.8248L54.3895 45.5732C54.3735 46.1839 53.8918 46.8728 54.6234 46.8484C54.3383 46.9916 54.0377 47.1142 53.7514 47.2348L54.2173 47.3026C54.033 47.6585 53.7861 47.905 53.5561 48.1271C53.3042 48.3303 53.0734 48.5195 52.8268 48.686C52.7069 48.7728 52.5917 48.8633 52.4836 48.9652C52.3685 49.0584 52.258 49.1594 52.1564 49.2804C52.0591 49.4075 51.9487 49.5247 51.8524 49.6788C51.7595 49.8387 51.6557 50.0001 51.5532 50.1983C51.9439 50.0083 51.8525 50.4398 51.7424 50.6778C52.1203 50.5229 52.241 50.2943 52.281 50.0235C52.3048 49.8914 52.3185 49.7568 52.3486 49.6184C52.3725 49.4716 52.4141 49.3228 52.5063 49.17C52.7259 49.2545 52.7651 49.6271 52.8294 49.9291C52.8641 50.0805 52.8947 50.199 52.9789 50.2533C53.0625 50.3066 53.1938 50.288 53.3923 50.1228C52.856 50.4026 52.5355 50.7668 52.1918 51.0148C52.029 51.147 51.838 51.2125 51.6495 51.232C51.5531 51.2387 51.4532 51.2285 51.3478 51.1951C51.2399 51.158 51.1239 51.0936 51.0027 51.0039C50.7865 51.1234 50.6259 51.2632 50.4612 51.3689C50.3007 51.4804 50.1731 51.622 50.0191 51.7174C49.8692 51.82 49.7238 51.935 49.5478 52.0193C49.3676 52.094 49.1661 52.1573 48.9295 52.1967L49.6209 53.1773C49.6389 53.163 49.6575 53.153 49.6751 53.147C49.684 53.1441 49.6925 53.142 49.7009 53.1407L49.7668 53.1181C49.8161 53.1035 49.866 53.0965 49.9149 53.0969C49.9727 53.0928 50.0761 53.0771 50.1545 53.0812C50.1207 53.0805 50.0863 53.0814 50.0521 53.0837C50.1361 53.0772 50.2256 53.0822 50.363 53.0991C50.4299 53.1026 50.3981 53.0986 50.3934 53.0959C50.3859 53.093 50.3792 53.0902 50.3739 53.0872C50.3631 53.0802 50.3545 53.076 50.3521 53.0656C50.3522 53.009 50.4111 52.936 50.5037 52.8196C50.678 52.5924 50.9462 52.2545 50.8594 51.5857L50.3724 52.1622C50.1088 51.9925 50.2572 51.6879 50.4513 51.1925C50.5296 51.2986 50.5284 51.3011 50.7419 51.2066C50.637 51.1072 50.604 50.9409 50.5983 50.7104C50.5826 50.5015 50.5876 50.2806 50.6094 50.0492C50.6508 49.5928 50.7326 49.1466 50.6886 49.0262C50.5384 49.3305 50.5027 49.7112 50.4877 50.1172L50.4777 50.425C50.4749 50.5282 50.4738 50.6299 50.4565 50.7509C50.4262 50.9777 50.3795 51.1887 50.3187 51.3813C50.2711 51.1271 50.128 50.9733 50.0443 50.82C50.0007 50.7425 49.9733 50.6648 49.9745 50.574C49.9734 50.4872 50.0019 50.3789 50.0788 50.2278L50.08 50.2282Z" fill="#224486"/>
<path d="M54.2593 45.094C54.3058 45.2548 54.35 45.4151 54.3899 45.5741C54.3999 45.3974 54.3686 45.2239 54.2593 45.094Z" fill="#224486"/>
<path d="M52.9578 44.542C53.3627 43.7544 53.3222 44.9154 53.8204 44.2276C53.7611 43.2635 52.7472 44.9321 52.5046 43.9221C52.9948 43.5222 52.7679 42.5 52.8955 42.1542C53.048 42.6436 53.8097 42.6859 54.0032 42.5968C53.9374 42.2095 54.5505 41.6466 54.8014 41.1404C53.8226 42.2429 55.027 39.9485 54.0633 40.9125C53.7017 40.6602 53.9829 39.2811 54.5336 38.9424C54.7931 39.1187 54.5365 39.4814 54.3934 39.8153C54.795 40.327 55.0697 39.141 55.6409 39.2144C55.5728 38.4375 56.099 37.1214 56.5199 36.0821C56.9283 35.0429 57.2151 34.2253 56.2978 34.319C56.0495 34.4369 55.9241 34.6304 55.8288 34.8485C55.7384 35.0699 55.6814 35.3175 55.5525 35.5477C56.0823 35.0171 56.2207 35.1221 56.2485 35.3789C56.2754 35.6368 56.1933 36.0455 56.2567 36.1597C55.7416 36.5461 55.562 37.6568 55.284 37.2121C55.3107 36.8531 55.3366 36.4867 55.3825 36.1241C54.4104 37.3821 53.5073 39.0414 52.7713 40.8157C52.0301 42.5901 51.4691 44.486 51.0204 46.2103L51.5238 44.7507C51.8021 45.0341 51.5963 45.7325 51.5864 46.3214L52.6383 45.8747C52.4403 46.2727 52.4344 46.7149 52.1522 46.5846C52.3362 47.2108 52.6228 47.0426 53.0027 46.8256C52.7997 47.9617 52.421 48.0386 52.6829 49.064C53.9516 47.4519 52.6135 47.326 53.8779 45.4776L52.9576 44.5425L52.9578 44.542Z" fill="#224486"/>
<path d="M52.1198 48.6481L51.8461 48.0756L51.8313 48.8169L52.1198 48.6481Z" fill="#224486"/>
<path d="M50.5301 47.3706C50.7181 47.4059 50.7139 47.7 50.9025 47.7359C51.2936 46.9262 51.0089 46.9461 50.5301 47.3706Z" fill="#224486"/>
<path d="M56.2152 38.2407C56.3492 37.8957 56.5001 37.5607 56.6494 37.2217C56.4737 37.3924 56.3058 37.5715 56.132 37.7477C56.3049 37.8299 56.2422 38.0997 56.215 38.2409L56.2152 38.2407Z" fill="#224486"/>
<path d="M59.9677 30.7849C59.7746 30.9061 59.5996 31.0243 59.4379 31.1391C59.2783 31.2567 59.1465 31.3902 59.0139 31.5084C58.8856 31.6316 58.7545 31.7404 58.6444 31.8647C58.5333 31.9867 58.4237 32.1068 58.3133 32.2282C57.862 32.7033 57.4361 33.1502 56.6481 33.7311C56.5724 34.2716 56.8525 34.3493 57.1578 34.3851C57.4651 34.4189 57.7981 34.4101 57.8776 34.7181C58.5366 34.148 57.7445 33.5887 58.2844 32.7763C58.5841 32.8274 58.8195 32.5838 59.0898 32.2513C59.2373 32.0998 59.3949 31.9267 59.5687 31.7626C59.739 31.594 59.955 31.4767 60.1679 31.3807C59.9724 31.2586 59.8534 31.0641 59.9673 30.7853L59.9677 30.7849Z" fill="#224486"/>
<path d="M65.5937 31.9174C65.9172 32.0002 66.2688 31.9891 66.5984 32.0394C66.9308 32.0701 67.2349 32.1651 67.4427 32.3725C67.2472 32.6336 66.8485 32.5641 66.493 32.3771C66.5058 32.7475 66.6793 32.7681 66.9191 32.811C67.1576 32.8451 67.4734 32.8778 67.6926 33.2481C67.6709 33.1543 67.4852 32.9335 67.731 32.886C68.1249 33.1086 68.3825 33.2427 68.5943 33.3118C68.8071 33.3786 68.9638 33.4014 69.1331 33.4405C69.4664 33.5189 69.8835 33.6447 70.7284 34.5432C71.1228 34.6073 71.3874 34.8436 71.6391 34.4498C71.9973 35.129 72.0078 35.3636 72.0738 35.5974C72.1054 35.7142 72.1362 35.8442 72.2148 36.0332C72.2909 36.2241 72.4186 36.4721 72.5975 36.8603C72.7599 36.6331 72.8252 35.8049 73.2337 35.4076C73.5217 35.9912 73.761 36.3908 73.9712 36.6999C74.1881 37.0027 74.3789 37.2103 74.5567 37.3961C74.7385 37.5784 74.9031 37.7411 75.044 37.9626C75.1158 38.0721 75.1834 38.1949 75.2453 38.3403C75.3025 38.4886 75.3516 38.6605 75.3932 38.8624C75.2672 38.7366 75.0502 38.6399 74.8664 38.2643C74.7307 38.4215 74.716 38.5578 74.7756 38.6873C74.8302 38.8196 74.9586 38.946 75.1166 39.0802C75.2781 39.2121 75.4561 39.3592 75.6155 39.5243C75.7772 39.6876 75.9181 39.8697 75.9775 40.0772L75.332 40.3313C75.5582 40.6313 75.9138 41.0247 76.1731 41.4962C76.3013 41.7315 76.4153 41.9821 76.463 42.2407C76.5253 42.4972 76.5199 42.7593 76.449 43.0046C76.3209 42.9654 76.1932 42.9288 76.0664 42.895C76.5399 43.6759 76.7292 44.7306 76.7751 45.7314C76.8233 46.7422 76.7468 47.725 76.7573 48.5711C76.5729 48.8491 76.3777 49.1191 76.1904 49.3844C76.2154 50.5475 76.3925 50.0182 76.6413 49.3975C76.8752 48.7834 77.163 48.0573 77.543 48.996C76.89 49.0284 76.9579 49.3376 77.0618 49.8096C77.1727 50.2781 77.3283 50.9305 76.8968 51.5228C76.5615 51.7596 76.605 51.4136 76.6141 51.0753C76.6224 50.7344 76.6169 50.4091 76.2513 50.6738C76.8149 51.1191 76.2576 51.4049 76.2262 52.1287C75.9586 51.9626 75.8198 52.3008 75.6849 52.6008C75.5408 52.8982 75.394 53.1495 75.1517 52.8275C75.2204 53.7058 75.2208 54.6035 75.1101 55.5165C74.8638 55.6076 74.6437 55.7915 74.4619 56.018C74.2907 56.2526 74.1149 56.5032 73.9797 56.7336C74.408 56.2312 74.5335 56.4342 74.6941 56.6539C74.8523 56.8673 75.0609 57.124 75.6543 56.5102C76.2249 55.4242 76.7716 53.9558 77.229 52.4017C77.6761 50.8442 78.0366 49.2046 78.3248 47.7693C77.9144 47.5697 77.9706 47.1193 78.0014 46.6421C78.0515 46.1678 78.0735 45.6647 77.7301 45.4491C78.0033 45.3771 78.2188 45.1521 78.4841 45.0665C78.4124 44.5935 78.346 44.3903 78.2795 44.3417C78.2158 44.2933 78.1697 44.3989 78.1153 44.547C78.0018 44.8448 77.8818 45.3035 77.7155 45.0887C77.6759 44.8916 77.6757 44.7033 77.7015 44.5293C77.7184 44.3564 77.7632 44.1982 77.8237 44.0631C77.9447 43.7937 78.1285 43.6166 78.2836 43.6328C78.1873 42.9525 78.1237 42.9266 78.0142 42.9954C77.9033 43.0661 77.7487 43.2175 77.4612 42.938C77.6902 42.6023 77.9366 42.2272 78.1285 41.8471C77.3301 39.7804 75.8316 37.7911 74.0857 36.0278C72.3249 34.2647 70.3242 32.7156 68.2591 31.476C68.2883 31.7037 68.3132 31.9294 68.3337 32.1529C67.4559 31.5506 66.4927 31.5465 65.6655 31.5814C65.2469 31.6032 64.8566 31.6003 64.4649 31.5491C64.3669 31.5333 64.2684 31.5107 64.1689 31.4806C64.0693 31.4555 63.9687 31.4302 63.8653 31.3917C63.6584 31.3182 63.441 31.1982 63.2022 31.075C63.0114 31.2675 62.829 31.4311 62.6703 31.6418C62.8011 31.4699 62.6902 31.2708 62.5869 31.0555C62.4869 30.8415 62.392 30.6042 62.6556 30.3597C62.3673 30.5131 62.0574 30.5594 61.7469 30.6362C61.443 30.7299 61.1185 30.7942 60.869 31.0167L61.149 30.9711L61.4342 30.9534C61.6233 30.9445 61.8068 30.9276 61.9912 30.929C61.8392 31.094 61.6839 31.2277 61.5211 31.3118C61.4405 31.3563 61.3565 31.3853 61.2756 31.4159C61.1958 31.4493 61.115 31.4736 61.0345 31.4901C60.8737 31.5228 60.7127 31.5241 60.5627 31.5008C60.4149 31.4812 60.2838 31.4481 60.1748 31.384C59.6016 32.0483 59.9834 32.1189 60.4832 32.1091C60.6109 32.1086 60.7423 32.0892 60.8832 32.0923C61.0241 32.0954 61.1641 32.0983 61.2931 32.1057C61.5482 32.1115 61.7721 32.1723 61.88 32.2672C62.0606 32.068 62.2427 31.9192 62.423 31.8467C62.6019 31.7697 62.7653 31.7114 62.9231 31.7232C63.2373 31.7372 63.4903 31.8482 63.7271 32.0301L64.0732 32.2864C64.1889 32.3733 64.3085 32.4677 64.4378 32.5368C64.5678 32.6076 64.7083 32.6561 64.8737 32.7047C65.039 32.7531 65.227 32.7482 65.455 32.7562C66.03 32.7266 66.0523 32.5909 65.9232 32.4247C65.7977 32.2587 65.5253 32.0583 65.5937 31.9174Z" fill="#224486"/>
<path d="M62.9844 30.1709C62.842 30.2309 62.7345 30.2952 62.6547 30.3596C62.7712 30.3117 62.879 30.2521 62.9844 30.1709Z" fill="#224486"/>
<path d="M73.9813 56.733C73.9298 56.7922 73.8764 56.8588 73.8182 56.9365L73.6058 57.1893C73.5868 57.3117 73.616 57.2986 73.6853 57.2054C73.7563 57.1137 73.8653 56.9427 73.9813 56.733Z" fill="#224486"/>
<path d="M60.1653 31.3801C60.1653 31.3801 60.1671 31.3835 60.1736 31.3843C60.1743 31.3795 60.1787 31.3756 60.1848 31.369L60.1653 31.3801Z" fill="#224486"/>
<path d="M60.0789 33.1208C60.223 33.029 60.3599 32.9246 60.5078 32.8418C60.4353 32.7817 60.3605 32.7199 60.2879 32.6653L60.0789 33.1208Z" fill="#224486"/>
<path d="M68.7858 59.3308L68.8891 59.6152C68.9021 59.508 68.8861 59.4076 68.7858 59.3308Z" fill="#224486"/>
<path d="M52.4852 60.2762L52.8438 60.2686C52.7278 60.2267 52.6048 60.2439 52.4852 60.2762Z" fill="#224486"/>
<path d="M77.9446 79.5856C78.2013 80.0499 78.4613 80.6105 78.7116 81.1544C78.9515 81.7 79.1945 82.2279 79.4604 82.6238L79.1502 82.5651C79.2576 82.8447 79.4157 83.4567 79.5936 83.8814C79.6909 84.0924 79.7755 84.254 79.9013 84.285C80.0174 84.3153 80.1823 84.2137 80.3338 83.8811L80.0864 83.5407C79.8753 82.7881 79.9641 82.5341 80.156 82.2789C80.2533 82.153 80.3612 82.0344 80.4515 81.8681C80.5392 81.7029 80.6181 81.4848 80.607 81.1778C80.4105 80.4608 79.9406 79.9954 79.5308 79.5769C79.1124 79.1569 78.746 78.7825 78.6395 78.183C78.3976 77.7221 78.7061 77.6669 78.983 77.7164C78.7711 77.1359 78.3924 76.8423 78.0224 76.628C77.6506 76.4096 77.2883 76.2511 77.0327 75.937C77.9483 75.2228 77.3365 74.47 76.4747 73.7241C76.2667 73.5325 76.0293 73.3508 75.8082 73.1578C75.5896 72.9625 75.3672 72.7707 75.173 72.5653C74.9829 72.3564 74.8131 72.1402 74.6834 71.9059C74.5556 71.6698 74.4779 71.4063 74.4494 71.1219C73.9881 70.7791 73.5172 70.3168 72.9694 69.8831C72.697 69.6652 72.4097 69.4508 72.096 69.2688C71.7881 69.0787 71.4547 68.9223 71.1027 68.805C71.5759 68.7985 71.3159 68.5894 71.0106 68.3405C70.701 68.1012 70.3484 67.8211 70.6593 67.641C70.1167 68.0749 69.3549 67.4003 68.5458 66.7984C67.7508 66.2012 66.8521 65.6928 66.3822 66.3977C65.6229 65.7903 65.5834 65.8114 65.5201 65.8222C65.4871 65.8281 65.4446 65.8327 65.2949 65.7573C65.1425 65.6872 64.8797 65.5481 64.3993 65.2572C64.4687 65.0811 64.8156 65.2135 64.9664 65.2342C64.6166 64.9132 64.2355 64.9549 63.8925 64.9831C63.5484 65.0063 63.2512 64.9809 63.0159 64.5072C61.3468 63.8995 62.6006 64.8531 61.4833 65.0225C60.6365 64.7026 60.3419 64.5283 60.159 64.3176C59.9757 64.1053 59.9066 63.8488 59.4797 63.4019C59.1555 64.159 58.1684 63.5646 57.2183 63.8218C57.4304 63.8999 58.613 64.276 57.7634 64.4312C55.7184 63.9361 56.0246 64.6662 54.0433 64.5568C53.2018 63.5182 55.9901 64.852 54.3934 63.8757C55.6932 63.6701 56.6158 63.8657 57.3899 63.3459C55.737 63.0002 53.7013 62.8377 51.8359 62.8813C50.8586 62.5805 52.4193 62.5615 51.6518 62.3366C50.5157 61.8664 49.6165 62.17 48.7253 62.2119L48.729 62.2533C49.07 61.9767 49.504 61.8094 50.001 61.8562C49.9283 62.0242 49.859 62.1896 49.7985 62.3601C50.5139 61.5508 52.9658 62.1925 54.5807 61.7428C54.3629 61.5172 54.2102 61.3671 54.4302 61.2085C54.4406 61.786 55.0042 61.6072 55.8112 61.4504C56.6169 61.2873 57.6564 61.1462 58.4428 61.6289C58.3814 60.8869 60.0221 60.6411 60.9708 60.5885C61.302 60.7978 61.2283 61.0975 61.2184 61.2891C60.4174 61.0578 60.0161 61.2185 59.6349 61.4897C59.2552 61.7554 58.9017 62.1185 58.2266 62.225C58.7927 62.0872 59.5219 62.1601 60.2415 62.1879C60.9588 62.2201 61.6749 62.1851 62.1452 61.9024C62.0266 62.101 61.9029 62.2925 61.7758 62.4841C62.5704 62.516 62.9 62.1469 63.2079 61.8515C63.5187 61.5398 63.8301 61.3023 64.6532 61.4461L64.5631 61.8833C65.3598 61.7454 66.1953 61.6175 67.0365 61.4488C67.8793 61.2893 68.7262 61.0773 69.5337 60.7952C70.3445 60.5242 71.0997 60.1378 71.7542 59.6945C72.0713 59.454 72.3788 59.2254 72.6262 58.9444C72.7532 58.809 72.8724 58.6725 72.9826 58.5348C73.0853 58.3869 73.1791 58.2385 73.2632 58.0898C73.2336 57.8854 72.8376 57.8399 72.4494 57.8027C72.0465 57.7548 71.6429 57.7096 71.5441 57.6181C71.3166 57.88 71.0916 58.1068 70.9043 58.3553C70.7019 58.5851 70.5166 58.8124 70.3363 59.0402C70.147 59.2539 69.9623 59.4662 69.7656 59.6737C69.5647 59.8724 69.3485 60.0586 69.1073 60.239L68.8875 59.6163C68.853 59.8769 68.5279 60.1737 68.3131 60.4285C68.0978 60.6784 67.9873 60.8707 68.4178 60.9224C67.5873 61.531 67.5624 60.5877 66.6022 61.2248C66.5326 60.5305 67.1241 60.3008 66.9796 59.7444C66.7177 59.9256 66.4555 60.1207 66.1809 60.2947C66.402 59.9713 65.5972 60.1839 65.8116 59.8619C65.0837 60.4509 64.466 60.4625 63.8594 60.4165C63.5561 60.3842 63.2354 60.3474 62.9158 60.3368C62.6046 60.3259 62.2668 60.347 61.8529 60.4493C62.1607 60.4803 62.4706 60.5122 62.7748 60.52C62.7889 60.7102 62.6633 60.8115 62.4803 60.8765C62.2954 60.9347 62.0594 60.9705 61.8516 61.0261C61.3753 60.4903 61.1114 60.5701 60.2334 60.2828C59.4478 60.5357 58.9348 61.174 57.8439 61.0693C57.9933 60.7183 57.5484 60.577 57.0343 60.4529C56.5223 60.3261 55.9355 60.2277 55.8365 59.9188C55.6971 60.2746 55.1399 60.3183 54.5833 60.3589C54.0318 60.3926 53.4662 60.4398 53.4206 60.6507C52.889 60.8488 52.071 60.8094 52.0539 60.4276C52.1372 60.4005 52.3092 60.3186 52.4858 60.2761L51.9002 60.2838C51.9512 60.1971 51.9269 60.1362 51.9949 60.1177C51.4589 60.1366 51.5002 60.6582 50.7548 60.3664C50.7413 60.1738 51.137 60.1352 51.4415 60.0425C50.856 60.0347 50.3189 60.2539 49.8145 60.517C49.3056 60.7833 48.8476 61.0757 48.305 61.2908L45.4058 62.4385L48.481 63.2355C48.7032 63.2932 48.9148 63.3988 49.1164 63.5789C49.4228 63.3085 51.0188 63.5911 50.8219 62.766C51.1955 63.1157 50.9194 63.6842 52.1016 63.7904C52.8774 63.2648 53.3562 64.2488 54.3039 63.9802C53.0258 64.4591 54.269 64.1656 53.1396 64.6391C53.8847 65.0392 55.1985 64.3598 56.5301 64.7135C56.6435 64.8883 56.6053 65.0777 56.7189 65.253C57.2544 65.1182 57.9347 64.6937 58.3138 65.3221L58.3403 64.8579C59.2049 65.2593 60.5025 65.398 61.3187 66.1346C61.759 65.9489 62.2034 65.7778 62.6613 65.603C62.9661 65.9371 63.3183 66.1908 63.7112 66.36C64.0957 66.5466 64.516 66.6604 64.9493 66.731C65.373 66.8197 65.8234 66.8397 66.2505 66.8582C66.6748 66.8806 67.096 66.8661 67.4715 66.8405C67.7152 67.0029 68.007 67.2258 68.2236 67.4293C68.4368 67.6385 68.5758 67.8253 68.5243 67.9075C68.3738 67.8983 68.1128 67.8928 67.8266 67.8625C68.5422 68.3222 69.1197 69.2789 69.916 68.9463C70.7574 69.2545 70.1433 69.722 70.5778 70.1874C71.5727 70.2898 72.4496 71.2717 73.1312 72.1491C73.8239 73.0274 74.3665 73.7917 75.1475 73.5245C75.0422 73.3789 74.917 73.1977 74.7781 72.9867C74.6409 72.7746 74.4894 72.5328 74.3082 72.2874C74.1324 72.0372 73.9365 71.7754 73.7106 71.5259C73.4922 71.269 73.2434 71.0264 72.9761 70.8039C73.375 70.9156 73.3732 70.4924 73.7822 70.8268C74.0443 71.068 74.2509 71.3052 74.4224 71.5427C74.5887 71.7856 74.7263 72.0233 74.8669 72.2553C75.0009 72.4936 75.1351 72.7286 75.3064 72.9595C75.4755 73.1926 75.6667 73.4335 75.9347 73.6736L75.034 74.1407C75.3134 75.359 76.1546 76.0738 76.917 76.8658C77.2941 77.2589 77.6509 77.6532 77.8551 78.1047C78.0675 78.5508 78.129 79.0499 77.9436 79.5854L77.9446 79.5856Z" fill="#224486"/>
<path d="M66.489 67.2756C66.7004 67.573 66.9019 67.8628 67.1028 68.1778L67.2255 67.7524C66.9262 67.6546 66.6584 67.5303 66.489 67.2756Z" fill="#224486"/>
<path d="M67.2249 67.7533C67.4213 67.8158 67.6283 67.8453 67.8281 67.8633C67.6431 67.7475 67.4519 67.6602 67.2534 67.6454L67.2249 67.7533Z" fill="#224486"/>
<path d="M78.7891 83.2678C78.7739 83.3721 78.7328 83.5236 78.7119 83.6997C78.6968 83.8772 78.6802 84.0754 78.7081 84.284C78.869 84.039 78.9449 83.4788 78.7891 83.2678Z" fill="#224486"/>
<path d="M79.0021 84.3988C79.0723 84.2452 79.1506 84.0891 79.2157 83.9286L79.1044 83.8474C79.0849 84.0337 79.035 84.2159 79.0021 84.3988Z" fill="#224486"/>
<path d="M54.3984 94.2403L53.5118 94.2347L52.6177 94.1964C52.5427 93.9938 52.0318 93.789 51.6439 93.5887C51.257 93.3851 50.9884 93.208 51.3823 93.1054C50.7751 93.2123 50.0673 92.8347 49.5556 92.584C49.0412 92.3388 48.7065 92.2143 48.7821 92.8804C49.9072 93.4615 51.1374 94.086 52.4808 94.6481C53.8231 95.2092 55.2769 95.7131 56.8063 96.0629C59.8811 96.7644 63.1723 96.7173 65.9544 95.8546C65.6704 96.0392 65.38 96.2104 65.0848 96.3824C66.5377 95.807 67.5627 95.8263 68.5396 95.7184C69.498 95.6072 70.419 95.3603 71.2396 94.1537C71.2446 94.4543 71.2453 94.7574 71.2416 95.0607C71.9467 94.9094 72.4626 94.364 72.9621 93.8548C73.4738 93.354 73.9642 92.8998 74.8271 92.8691L74.5189 92.6595C74.8355 92.4426 75.0509 92.486 75.3738 92.2568C75.3018 92.2475 75.2304 92.2379 75.1574 92.2249C75.7675 91.3414 76.2363 90.9918 77.1105 90.4297C77.2315 90.4963 77.172 90.6045 77.0588 90.7288C76.9409 90.8482 76.7713 90.983 76.6821 91.1197C76.944 91.0554 77.1328 90.7837 77.2917 90.4412C77.4632 90.1089 77.6031 89.7121 77.8498 89.4104C78.408 89.059 78.1591 89.6558 78.1843 89.7942C78.7894 88.7274 79.3176 88.0272 79.6896 87.3157C79.7776 87.1369 79.8566 86.9596 79.922 86.7789C79.9827 86.5879 80.0244 86.3839 80.0479 86.1796C80.081 85.766 80.0177 85.3211 79.7816 84.8516C79.5851 84.6636 79.2526 85.3403 79.2956 84.5245C78.9887 85.2129 78.8213 85.8091 78.6678 86.4438C78.5898 86.7589 78.5296 87.083 78.4447 87.4071C78.3746 87.7389 78.2734 88.0641 78.1609 88.4023L78.3643 88.0797C78.5949 88.8746 78.3876 89.0278 78.0909 89.1733C77.9431 89.2502 77.7617 89.3241 77.569 89.4793C77.4741 89.5581 77.3778 89.6588 77.2822 89.7935C77.1826 89.9245 77.0777 90.0847 76.9744 90.2941C76.9398 89.617 77.4151 89.0537 77.3681 88.6505C77.1375 88.7815 76.9285 88.898 76.7633 89.03C76.5996 89.1628 76.4576 89.293 76.3346 89.426C76.0975 89.6997 75.9212 89.9744 75.7522 90.2374C75.583 90.4993 75.4003 90.7269 75.1655 90.896C74.9171 91.0469 74.6164 91.1413 74.1863 91.0744L74.2774 90.9657C73.9825 91.0268 73.7089 91.4991 73.3937 91.8174C73.5944 91.875 74.0064 91.719 74.3087 91.6407C74.0138 91.9938 74.0943 92.5567 74.0809 92.8387C73.718 92.7506 73.6041 92.8871 73.4671 93.0778C73.3325 93.2691 73.1721 93.5133 72.7357 93.5768C72.2536 93.2618 73.1446 92.8616 73.2661 92.472C73.0436 92.7302 72.8123 92.9859 72.5684 93.2298C72.1755 93.4532 71.9096 93.4074 71.6935 93.3191C71.4752 93.2271 71.297 93.0771 71.0471 93.0301C70.5055 93.6593 71.5534 93.1164 71.1973 93.8376C70.638 93.7385 69.4427 94.066 68.1223 94.4057C66.8065 94.7632 65.3559 95.1206 64.404 95.4371C65.065 95.3117 64.5898 94.8857 65.3927 94.882C65.2424 94.8398 64.9215 94.9151 64.6368 95.0419C64.3523 95.164 64.1025 95.3459 64.1114 95.5377C62.781 95.9794 61.0124 95.7118 59.812 95.2235L60.14 95.644C59.58 95.9142 58.9021 95.73 58.1605 95.4402C57.4152 95.1488 56.6131 94.7884 55.6639 94.6968L55.6991 94.7172C55.3956 94.6774 55.0545 94.8319 54.6516 94.9315C54.2478 95.037 53.7894 95.0604 53.2887 94.7698C53.7522 94.4565 54.302 94.6972 54.3984 94.2411L54.3984 94.2403Z" fill="#224486"/>
<path d="M48.0433 92.0343C48.3151 92.0036 48.5849 91.9686 48.8555 91.9248C48.3511 91.4692 47.2637 91.5427 47.1811 91.9072C47.6308 92.0862 48.0175 92.6205 48.2534 92.4085C48.2296 92.3028 48.3421 92.1458 48.0431 92.0345L48.0433 92.0343Z" fill="#224486"/>
<path d="M40.2778 81.5376C40.1124 81.3031 39.9268 81.4085 39.7591 81.3222C40.0315 82.7409 40.566 84.3325 41.2411 85.6298C41.4174 85.9498 41.5648 86.2686 41.7371 86.5516C41.9043 86.8384 42.0611 87.1073 42.2045 87.3528C42.5121 87.8298 42.7296 88.2478 42.8591 88.5369C43.1369 88.9788 43.4591 89.1051 43.8432 89.1836C44.2238 89.2671 44.646 89.351 45.14 89.6487C45.1524 89.898 45.1629 90.1555 45.1847 90.4042C45.5388 90.4764 45.9939 90.9301 46.3813 91.21C46.7625 91.4991 47.0644 91.6063 47.0485 91.0547C47.0379 90.9579 46.3644 91.0623 46.0341 90.6111L46.2927 90.4233C45.9547 90.1934 45.6122 89.9666 45.2818 89.722C45.463 89.7128 45.643 89.7027 45.8253 89.6865C45.3756 88.9422 44.9814 88.973 44.5087 88.9382C44.2734 88.925 44.0205 88.9027 43.7424 88.768C43.4806 88.6162 43.1807 88.3569 42.9002 87.8625L43.5139 87.3976C43.3131 87.1053 43.1135 86.8674 42.9457 86.6353C42.7834 86.3995 42.6317 86.1849 42.4949 85.9675C42.2483 85.5195 42.0491 85.056 42.0326 84.3981C42.0326 84.3981 41.6714 84.5394 41.9093 84.7C41.9619 84.9273 41.8151 85.3427 41.5384 85.2934C40.8138 84.3924 40.9534 84.4165 41.2348 84.4927C41.5231 84.5642 41.9105 84.6481 41.793 83.9087C41.216 83.1749 40.639 81.936 40.3715 80.7481C40.0952 79.5606 40.095 78.4585 40.3815 77.9667C40.169 78.3871 39.9255 78.3032 39.7339 77.9772C39.5478 77.6548 39.4199 77.0925 39.443 76.5992C39.7169 76.1506 39.8971 76.9084 40.1355 77.0652C40.2099 76.609 40.4076 76.2444 40.2963 75.7965C39.8659 76.374 39.2915 75.9891 39.0528 74.9203C38.7846 76.0734 39.0167 77.1533 39.3449 78.2171C39.6756 79.2863 40.0923 80.3246 40.278 81.5382L40.2778 81.5376Z" fill="#224486"/>
<path d="M39.5155 80.9191C39.5839 81.1709 39.6713 81.2747 39.7608 81.3216C39.6917 80.9865 39.6326 80.6505 39.5976 80.3397C39.5705 80.5317 39.5346 80.7232 39.5157 80.9193L39.5155 80.9191Z" fill="#224486"/>
</svg>
