<svg width="77" height="76" viewBox="0 0 77 76" fill="none" xmlns="http://www.w3.org/2000/svg">
<path d="M58.9916 53.6446C58.9198 54.2233 59.171 53.6948 59.5166 53.4019L58.9916 53.6446Z" fill="#224486"/>
<path d="M59.4154 53.4713C59.5513 53.4191 59.6839 53.3482 59.8166 53.2772C59.6633 53.2841 59.5417 53.3629 59.4154 53.4713Z" fill="#224486"/>
<path d="M62.3164 50.8804C62.2504 51.4187 61.8879 51.8673 61.5662 52.1947C61.2374 52.532 60.951 52.8094 60.8929 53.1883C61.3491 53.0311 61.8398 52.6134 62.1453 52.1395C62.4578 51.6556 62.5309 51.1072 62.3164 50.8804Z" fill="#224486"/>
<path d="M61.262 51.8051L61.3983 52.0835C61.4617 51.7798 61.5281 51.4934 61.5469 51.1885C61.4687 51.4059 61.3704 51.6091 61.262 51.8051Z" fill="#224486"/>
<path d="M60.5892 51.9981L60.7388 51.999C60.9455 51.6645 61.1293 51.2988 61.2617 50.9419C61.088 51.3147 60.8572 51.662 60.5892 51.9981Z" fill="#224486"/>
<path d="M61.5043 47.4913C61.7812 47.6723 62.0527 47.9245 62.296 48.2167C62.4223 48.8012 62.1912 48.6826 61.9972 48.5752C61.7931 48.4608 61.5778 48.3834 61.6545 48.6777C61.944 49.1377 62.1393 49.201 62.3605 49.3125C62.5416 49.3957 62.9001 49.6945 62.5965 50.5897C62.783 50.6017 63.0542 49.7735 62.7975 48.9917C62.5878 48.2282 62.1489 47.7675 62.4873 47.692C62.0033 47.0193 61.9155 47.1222 61.8947 47.2575C61.8598 47.4128 61.8436 47.6264 61.5043 47.4913Z" fill="#224486"/>
<path d="M36.1444 20.6268C36.163 20.5654 36.1581 20.5371 36.1484 20.4805C36.0898 20.5633 36.0595 20.6413 36.1444 20.6268Z" fill="#224486"/>
<path d="M26.1207 18.9849C25.9291 18.9313 25.7831 18.9755 25.6229 18.9933C25.6884 19.0397 25.7617 19.0752 25.8427 19.0997C25.9405 19.0542 26.0197 19.0118 26.1207 18.9849Z" fill="#224486"/>
<path d="M37.4961 27.6333C37.4025 27.808 37.3161 27.9727 37.2539 28.1244C37.355 28.0454 37.4444 27.8978 37.4961 27.6333Z" fill="#224486"/>
<path d="M25.8309 56.3855C25.8907 56.3536 25.9381 56.3129 25.9783 56.2299C25.9783 56.2299 25.9659 56.2211 25.9623 56.2L25.7319 56.3155L25.8309 56.3855Z" fill="#224486"/>
<path d="M23.8502 26.581C23.9485 26.7286 24.0438 26.8584 24.1538 26.9675C24.0122 26.7268 23.9199 26.6148 23.8502 26.581Z" fill="#224486"/>
<path d="M36.3672 32.3196C36.3903 32.2435 36.4061 32.1777 36.4219 32.1118C36.3783 32.1734 36.3377 32.2525 36.3001 32.3491L36.3672 32.3196Z" fill="#224486"/>
<path d="M29.7958 19.4138C29.6308 19.3595 29.4897 19.3378 29.362 19.3414C29.5092 19.3986 29.6473 19.4025 29.7958 19.4138Z" fill="#224486"/>
<path d="M48.6892 44.0359C48.4286 44.0074 48.2082 44.0542 48.0325 44.1482C48.2001 44.22 48.4118 44.2295 48.6892 44.0359Z" fill="#224486"/>
<path d="M43.5969 44.7877L43.6381 44.7657C43.5769 44.6711 43.5528 44.7052 43.5969 44.7877Z" fill="#224486"/>
<path d="M40.9837 44.9431L41.0257 44.9359C41.0113 44.852 40.999 44.8434 40.9837 44.9431Z" fill="#224486"/>
<path d="M48.0348 44.1179C47.5944 43.9402 47.3609 43.2386 46.9249 44.1072L47.0539 44.1985C46.697 44.0502 46.2844 44.4436 45.9242 44.5314C45.9797 44.6004 46.0322 44.6525 46.0848 44.7046C46.2742 44.6896 46.5144 44.666 46.8961 44.6531C47.3688 44.7641 47.6032 44.3488 48.0348 44.1179Z" fill="#224486"/>
<path d="M36.2583 20.5144C36.1194 20.6288 36.3239 20.8316 36.2583 20.5144V20.5144Z" fill="#224486"/>
<path d="M37.497 23.5382L37.5156 23.1392C37.4786 23.2613 37.4526 23.3913 37.497 23.5382Z" fill="#224486"/>
<path d="M34.7048 39.3349C34.7234 39.2735 34.7469 39.2404 34.7538 39.1955C34.6143 39.1466 34.6337 39.2597 34.7048 39.3349Z" fill="#224486"/>
<path d="M37.5 22.8047L37.5046 23.1623C37.5331 23.0537 37.551 22.9374 37.5 22.8047Z" fill="#224486"/>
<path d="M35.8549 34.2023C35.8738 34.1754 35.8929 34.1486 35.8984 34.1123C35.8794 34.1391 35.8604 34.1659 35.8549 34.2023Z" fill="#224486"/>
<path d="M61.1254 27.3802C61.1272 27.7987 60.8721 27.9906 60.7436 28.3616C61.1083 29.3201 61.0726 26.6126 61.3158 27.9321C61.3736 27.5558 61.3792 27.232 61.3229 26.9537C61.1567 27.1043 60.9496 27.2706 60.7565 27.4171C60.8163 28.1746 60.9991 26.9481 61.1254 27.3802Z" fill="#224486"/>
<path d="M23.381 53.5916L23.4346 53.7032C23.5274 53.4889 23.628 53.4717 23.3915 53.098C22.8742 53.1002 22.9628 53.8702 22.1775 53.6681C22.3092 53.7318 22.4385 53.8823 22.5608 54.0425C22.5591 53.6287 22.9937 53.5975 23.381 53.5916Z" fill="#224486"/>
<path d="M22.5159 53.9961C22.5189 54.0139 22.5189 54.0138 22.5115 54.0243C22.5029 54.0807 22.4942 54.1372 22.5033 54.1906C22.5793 54.26 22.6511 54.3577 22.6915 54.4332C22.691 54.3233 22.6175 54.1619 22.5159 53.9961Z" fill="#224486"/>
<path d="M52.3886 37.754C52.212 37.7939 52.0574 37.8493 51.9151 37.864C52.164 37.9083 52.2967 37.8373 52.3886 37.754Z" fill="#224486"/>
<path d="M17.6984 28.5594C17.5759 28.4122 17.4504 28.2478 17.3438 28.1421C17.484 28.3925 17.6007 28.5053 17.6984 28.5594Z" fill="#224486"/>
<path d="M28.9938 56.5522C29.1042 56.5985 29.204 56.6373 29.3294 56.6624C29.3943 56.6606 29.4593 56.6588 29.5423 56.6539L28.9938 56.5522Z" fill="#224486"/>
<path d="M16.4474 37.2639C16.7855 37.8495 16.4949 37.0266 17.22 36.5765C17.306 36.3062 17.409 36.0329 17.5121 35.7597C17.229 36.0108 16.9889 36.3075 16.7902 36.5883C16.6712 36.8202 16.5522 37.0521 16.4474 37.2639Z" fill="#224486"/>
<path d="M61.3102 26.901C61.2895 26.9045 61.2773 26.896 61.2446 26.8909C61.2481 26.9116 61.2516 26.9323 61.2551 26.953L61.3102 26.901Z" fill="#224486"/>
<path d="M33.1049 31.9473C33.1912 31.9776 33.2776 32.008 33.3639 32.0383C33.3024 31.9947 33.2263 31.9716 33.1049 31.9473Z" fill="#224486"/>
<path d="M24.545 55.8681C25.0628 56.1454 25.5987 56.376 26.1236 56.6434L25.7155 56.2951C25.3676 56.4504 24.907 55.693 24.545 55.8681Z" fill="#224486"/>
<path d="M14.4036 41.319C14.9168 40.7212 15.3994 40.6122 15.569 39.2905C15.5723 39.0526 14.9117 39.2008 15.5517 38.5725C15.5801 38.893 15.6828 39.2359 15.7725 39.5547C16.0182 39.0378 16.3953 38.5688 16.6339 38.0619C16.9067 37.5492 17.0187 37.0728 17.2102 36.5476C17.6031 36.1198 17.9801 35.6508 18.4276 35.3368C18.3314 35.494 18.2522 35.6482 18.196 35.8337C18.6602 35.4114 19.2219 35.1482 19.6865 34.8313C20.1728 34.5898 20.5991 34.3058 20.9549 33.8668C20.6916 34.2812 20.366 35.1019 21.2561 34.6507L21.9036 34.1178C22.0507 34.2069 21.7241 34.4563 22.94 33.9053C22.5244 33.6862 23.9551 33.3624 24.3104 33.794C24.1248 33.3773 23.2583 33.3496 23.141 32.9212C24.5201 32.8612 24.0084 31.8231 25.2713 31.9061L25.1435 32.3412C26.0896 32.32 26.7467 32.0494 27.3426 31.7803L27.2652 31.9958C28.9103 32.1541 29.95 31.7036 31.0034 32.4642L31.8532 32.2398C31.6103 32.4132 31.6991 32.5211 32.073 32.6506C32.699 32.7633 33.7058 32.2746 33.3756 32.0409C35.3751 32.7804 36.0513 31.9524 38.29 32.2905C38.168 32.7598 39.1815 32.5161 38.7657 32.9126L39.4546 32.7244C39.3521 32.7419 39.4338 32.8598 39.4768 32.9052C39.721 33.0481 39.8372 32.9052 39.9606 32.7522L39.9039 32.8321L40.8492 32.9606L40.9045 32.5643L41.5573 32.9362C41.1019 33.4099 40.0815 33.048 39.8571 33.5349C40.1509 33.6078 41.2923 34.2655 42.2185 33.6146C42.8246 33.7131 43.4507 33.8258 44.0509 33.8902C44.136 34.1307 43.9841 33.9632 44.5731 34.0647C45.0624 34.2008 45.0769 33.9257 45.7096 33.923C45.5175 33.9823 45.4179 34.0169 45.3613 34.0969C46.1428 34.2446 46.2701 33.704 46.7877 33.4396C46.413 33.4597 46.0617 33.6165 45.77 33.7104C45.6741 33.6125 45.7737 33.5779 45.7307 33.5325C45.439 33.6263 45.1473 33.7202 44.8456 33.807C44.906 33.5944 45.0011 33.842 44.4688 33.6604C45.0614 33.6294 45.214 33.6473 45.8433 33.522C46.1353 33.1731 45.4209 33.0579 45.8089 32.8068C47.3355 32.5808 48.6245 32.4571 49.7323 32.25C50.8529 32.067 51.8552 31.8604 52.697 31.435C53.1579 31.2506 53.5029 30.9541 53.8949 30.676C54.1941 30.3171 54.5874 29.9947 54.7848 29.5037C55.3025 28.6237 55.4426 27.3862 55.2217 26.0434C55.3291 25.8492 55.4416 25.8387 55.5437 25.7157C55.6487 25.6098 55.7491 25.4256 55.8153 25.2472C55.9377 24.8833 55.9801 24.4627 55.8471 24.3536L55.7154 24.5608C55.6254 24.4971 55.6804 24.3558 55.6274 24.3033C55.5745 24.2508 55.5628 24.1824 55.5411 24.107C55.5006 23.9732 55.3918 23.8511 55.0547 23.988C54.81 24.1001 54.5954 24.2336 54.4038 24.3983C54.3062 24.2391 53.861 24.1042 53.9998 23.887C53.8918 23.9758 53.4142 23.908 53.0849 23.8852C52.7386 23.8653 52.4381 23.908 52.3698 24.2802C51.1995 24.1727 50.4934 24.0033 49.3415 24.2091C49.4211 24.1603 49.4165 24.0819 49.4165 24.0819C49.1134 23.8524 48.9298 24.5785 48.5538 24.2823C48.6754 24.0681 49.6352 23.9214 48.8154 23.8067C48.5717 24.1298 48.0349 24.2304 47.5147 24.2227C46.9875 24.2249 46.4644 24.2001 46.3002 24.1139C46.0202 24.2761 45.7402 24.4383 45.576 24.7126C45.1489 24.7857 44.3786 24.6009 44.9911 24.2235C43.8227 24.8983 43.5041 24.3724 43.6244 25.1784C43.057 25.7679 42.4235 25.9203 41.8576 26.2105C41.2888 26.4837 40.71 26.7498 40.3597 27.4781C38.3183 28.6011 36.7209 30.2638 34.9046 31.366L35.0167 31.6106C34.7348 30.9905 33.3774 32.4626 33.428 31.6273C33.3232 32.4543 32.6563 33.4389 32.1697 33.9355L32.0153 33.4959C32.9373 32.5115 32.0064 33.0841 32.9029 31.7964C32.8579 31.9448 32.7871 32.0448 32.9155 32.0756C33.0891 31.7029 33.4132 31.1814 33.7302 30.6699C34.0643 30.1555 34.4514 29.6936 34.6551 29.3422L34.7648 29.6751C35.2031 29.2044 35.345 28.7493 35.4811 28.2599C35.6173 27.7706 35.6846 27.1875 36.1071 26.6755C37.1472 26.3305 36.1555 27.0102 36.7654 27.3367C37.7833 26.4503 36.1273 25.098 37.9062 25.2158L37.695 25.4717C39.1401 24.5122 37.3218 26.1687 38.5682 25.7445C39.6149 24.9235 39.281 24.8223 38.8859 24.7228C38.5007 24.6304 37.9972 24.5143 38.9426 23.6667C39.0374 24.1693 39.5937 23.9773 40.2289 23.8863C40.2286 23.1652 41.8141 22.0498 42.3348 21.1869C42.3044 21.4207 42.9584 21.388 43.7022 21.0585C43.364 21.6 42.9847 21.5418 42.07 21.9005C42.0496 22.1414 41.9377 22.6179 42.3794 22.6302C42.511 22.0625 43.3056 21.6188 44.0674 21.1367C44.8649 20.7101 45.6683 20.3177 45.884 19.7795C45.5378 20.1201 46.6035 20.0785 46.629 20.3819C46.9677 19.9458 47.7637 19.8184 47.9925 19.665L47.2656 19.6311C48.6222 19.6452 50.2328 18.7277 51.9182 18.6592L51.8862 18.8318C52.4742 18.7224 53.0268 18.663 53.6007 18.5736C53.8841 18.5339 54.1875 18.5084 54.4939 18.4999C54.8702 18.5411 55.3767 18.6743 55.8389 18.8062C54.8799 18.8032 55.6195 19.4769 55.8501 19.7453C55.9127 20.0599 55.1292 20.106 54.6095 20.2037C54.3332 20.2334 54.164 20.3239 54.1273 20.4181C54.1007 20.5194 54.1637 20.579 54.5493 20.7768C55.7617 20.7189 56.8547 20.0658 58.7451 20.9383C59.6665 20.8247 58.1988 20.1613 57.6736 19.9697C58.1029 20.0634 58.5681 20.2123 59.0362 20.3785C59.2617 20.463 59.4972 20.5547 59.7298 20.6292L60.0766 20.7545L60.245 20.8136C60.285 20.842 60.2555 20.9262 60.2742 20.9845C60.3013 21.9648 60.3632 22.7895 60.6367 23.1033C60.5711 22.411 60.6409 22.1001 60.8089 22.0538C60.7676 22.0696 61.0545 22.513 61.3323 23.1601C61.603 23.8173 61.893 24.6383 61.7639 25.1177C61.4741 24.6572 61.5889 25.1739 61.2315 24.5756C61.0381 25.6551 61.1259 26.5282 61.2544 26.9195C61.0819 26.8875 61.0072 26.7596 60.9709 26.5987C60.9534 26.4962 60.9375 26.455 60.9354 26.2883C60.9432 26.1286 60.9411 25.9619 60.939 25.7952C60.9646 25.1225 60.8952 24.5628 60.4685 24.7413C60.4067 25.6137 60.3349 26.4789 60.3633 26.7994C60.3851 27.2353 60.374 27.633 60.4212 28.0118C60.4614 28.4007 60.5357 28.7837 60.5504 29.2296C60.5481 29.6785 60.5132 30.1945 60.4076 30.8105C60.206 31.3286 59.9216 31.773 59.7054 32.2057C59.5838 32.4199 59.4621 32.6342 59.3134 32.8443C59.1547 33.0474 58.9518 33.2492 58.7489 33.4509C58.8209 33.3067 59.0434 33.0136 58.8754 33.0599C57.9525 33.8334 57.7388 34.1777 57.5064 34.4637C57.281 34.7397 57.1198 35.0311 56.2505 35.3469C55.8178 36.4674 53.6639 37.6009 52.3582 37.8331C52.4844 37.6971 52.4606 37.455 52.6281 37.3033C50.2486 38.3523 48.1392 39.2319 45.8322 38.9056L45.8888 38.8256C44.4856 38.8985 43.2507 39.0307 41.7464 38.822C42.1311 38.8089 42.2615 38.6459 42.2752 38.5205C40.3283 38.0885 38.7781 38.7934 36.7357 38.369C36.2084 38.0107 34.9836 38.1499 35.2388 37.5346C33.5854 37.4306 35.8392 38.32 34.2525 38.143L34.4009 38.188C32.3488 38.4776 30.5931 37.7754 28.7552 38.1866C28.3425 37.9846 27.6756 37.6326 26.8078 37.6492C26.5287 38.0223 25.9594 38.1901 25.509 38.487C25.0984 38.4517 24.7079 38.4305 24.1982 38.5353C24.9573 38.7572 23.8149 38.8647 23.7274 39.0731C23.9236 38.6263 23.4163 38.6427 24.0414 38.184C22.561 38.2175 23.5438 39.4387 22.5386 39.6283C22.3985 39.5291 22.2484 39.4229 22.0912 39.3267C22.3234 39.2958 22.325 38.9965 22.5596 38.8772C22.4983 38.8789 22.3857 38.8894 22.2661 38.9098C22.1665 38.9445 22.0528 38.9991 21.949 39.0608C21.6944 39.166 21.5486 39.3931 21.5624 39.6282C21.6946 39.887 22.3338 39.4083 22.0502 40.0636C21.7843 39.8453 21.7159 39.857 21.606 40.1396C21.4931 40.4051 21.3349 40.7135 20.8777 40.7654C21.0753 40.9954 21.0533 41.5356 20.8242 41.9441C20.6976 41.9746 20.7 41.8862 20.6442 41.8166C20.2243 42.6007 21.0936 42.2849 20.8288 42.9985C20.5613 43.0795 20.4072 42.3847 20.071 42.7324C19.5748 43.3273 20.2512 43.2204 19.8809 43.9345C20.128 43.734 20.6141 44.1081 20.6672 44.5211C20.3196 44.5454 19.654 44.5097 19.7304 43.7228C19.35 44.0693 19.074 44.82 18.7415 44.0591C18.9705 44.6267 19.1128 45.2531 19.2281 45.8753C19.4658 46.4941 19.6323 47.1076 20.0376 47.5747C19.8689 47.7706 19.9374 48.1194 20.0476 48.5578C20.4358 49.0278 21.4627 48.9137 21.4391 49.3926C21.7629 49.4867 21.7015 49.1278 21.8607 49.0303L22.3348 49.5911C22.3029 50.1241 21.5557 49.355 21.4121 49.7489C21.4388 50.0082 21.5069 50.2515 21.5991 50.482C22.1481 50.9157 22.2875 50.1884 22.4345 49.917C22.4548 50.6522 23.152 50.4098 23.1926 50.9041C22.5526 50.1958 22.7307 51.8536 22.0293 50.7865L22.1599 51.3445C21.8875 51.6022 21.4341 50.9059 21.1166 50.9515C21.2851 51.3711 21.4869 51.574 21.6928 51.7498C21.9088 51.9327 22.1601 52.0656 22.3782 52.4152C21.7848 52.5959 21.7678 51.6227 21.068 51.5929C21.1674 52.1739 21.5222 52.5001 21.7528 52.7684C21.9934 53.0438 22.1439 53.2555 22.0498 53.5794C21.5483 53.2695 21.4901 52.3121 20.8737 52.4615C20.7713 52.8396 20.3593 53.464 21.3044 54.2081C21.7538 54.3159 21.4872 53.6316 21.1819 53.2354L20.9757 53.3147L21.2253 53.0257C21.4397 53.5079 22.1212 53.9453 22.5202 54.2727C22.5265 54.4123 22.5811 54.5261 22.6599 54.6269C22.6812 54.5969 22.6995 54.5498 22.7007 54.5057C22.7295 54.5711 22.7512 54.6465 22.7458 54.7178C23.1711 55.199 24.1596 55.1178 24.4016 55.7096L23.4408 55.2848C23.2371 55.6362 23.7737 56.1512 24.3607 56.807C24.6892 56.9794 25.2019 57.2522 25.63 57.39C26.0539 57.5549 26.4311 57.4464 26.4014 57.1701C26.2218 57.1481 26.0351 57.136 25.8637 57.0598C26.3358 56.4778 27.0184 57.8472 27.1244 56.9761C26.9956 56.8398 26.8077 56.872 26.5909 56.8387C27.1006 56.7339 27.1213 56.2379 26.5498 55.8784C26.3181 56.0148 26.1047 56.1041 25.8601 56.2163C25.5248 55.4382 24.7505 56.0016 24.3039 55.1899C24.4301 55.054 24.3667 54.8889 24.5564 54.918C25.0063 55.4918 25.925 55.7215 26.3592 55.6384C25.6481 55.2853 26.5654 55.1987 26.2181 54.9679C26.7208 55.2336 26.9025 55.0619 27.087 54.9072C27.2716 54.7525 27.4533 54.5807 27.9627 54.731C27.7922 54.8657 27.6147 55.0104 27.4172 55.1409C28.3839 55.5999 28.5453 54.6929 28.9145 54.3835C29.0729 54.4355 29.2605 54.6584 29.4865 54.8484C29.7207 54.9842 30.0075 55.0671 30.2875 54.9048C31.1654 55.2559 30.8296 54.3724 31.3813 54.1022C31.439 54.5936 30.8494 55.0022 30.4722 55.1107C30.5193 55.129 30.5635 55.1302 30.6077 55.1315C30.5664 55.1473 30.5352 55.1702 30.5269 55.2244C30.6782 55.2865 30.8649 55.2985 31.0341 55.208C31.2104 55.1075 31.3808 54.9728 31.5129 54.8711C31.7871 54.6747 31.9662 54.5912 31.873 55.126C31.5726 55.1686 31.325 55.2637 31.0763 55.403C30.8246 55.5252 30.5841 55.6103 30.3382 55.7667C30.0753 55.926 29.8195 56.0753 29.5394 56.2375C29.2577 56.3385 28.956 56.4253 28.6243 56.4908C28.4088 56.4134 28.1778 56.4001 27.9711 56.374C27.7685 56.3207 27.5972 56.2444 27.4955 56.1124C27.2635 56.5038 27.0857 56.9035 27.4839 57.3806C28.4161 57.1244 28.2146 56.6665 29.2561 56.6378C29.603 56.7631 30.0056 56.5975 30.3956 56.5131C30.7869 56.3846 31.1528 56.3133 31.4441 56.114L31.226 55.7644C31.5827 55.5363 32.1161 55.3131 32.547 55.1075C33.0032 54.8448 33.3482 54.5483 33.2106 54.3608C33.2061 54.643 33.605 54.6099 33.9217 54.3534L33.6005 54.8921C33.9749 55.127 35.165 54.5277 34.9505 55.0216C36.1148 54.374 35.7783 54.0006 36.9047 53.4914C37.2697 53.2091 37.3575 52.7456 37.314 52.2342C37.3072 51.9891 37.3176 51.7411 37.375 51.5115C37.3782 51.2735 37.4957 51.0864 37.6503 50.9104C38.2434 50.9848 37.5431 51.8257 38.2778 51.7C38.6661 51.1939 38.673 50.8233 38.5579 50.5616C38.487 50.3012 38.1898 50.1058 37.9526 49.9529C37.7296 50.1406 37.5349 49.9277 37.2328 49.909C37.3194 49.8502 37.3219 49.7619 37.3856 49.6718C37.8062 49.7142 37.2865 49.8119 37.7075 49.9597C37.8383 49.9021 37.885 49.8151 37.9216 49.7209C37.9582 49.6266 38.002 49.5224 37.9356 49.3403C38.0569 49.3811 38.1782 49.4219 38.3095 49.4698C38.3345 49.3072 38.2298 49.1581 38.1823 49.0343C38.1147 48.8964 38.0943 48.7768 38.3389 48.6646C38.0675 48.5175 37.7719 48.3834 37.4793 48.2664C37.5116 47.4783 36.9419 47.5405 36.4616 47.2006C36.4938 47.3886 36.543 47.5736 36.5652 47.7545L36.3074 47.1215C35.8376 46.8941 36.1675 47.7434 35.6151 47.1871C36.4433 47.2477 35.4277 46.3487 35.9589 45.9588C36.2154 46.2755 36.5857 46.898 36.8236 46.5407C36.6359 46.3178 36.6303 45.6681 36.5368 45.1213C36.506 45.2497 36.0944 44.643 35.9594 44.7276C35.7037 45.2374 35.435 45.7231 35.1592 46.2187C34.6803 46.1951 35.4942 44.5785 35.0682 44.2469C35.8439 44.721 35.0643 44.0189 35.4598 43.8633C34.4514 43.3148 33.1547 42.9827 32.295 42.224L32.7522 42.1722C31.9461 41.932 32.4932 41.5834 31.4845 41.2899C31.0539 41.2404 32.1023 41.8173 31.3792 41.6508C29.8079 40.4335 28.1583 39.2209 26.4474 38.0099C25.574 37.3766 24.7207 36.7576 23.8602 36.1485C22.9669 35.5012 22.0642 34.6971 21.2488 33.9397C21.7759 33.5769 20.2671 32.3137 19.9959 31.5511C19.5532 31.3279 19.5838 31.815 20.0011 32.0954C19.1907 31.5218 18.8972 31.1939 18.3905 30.3397C18.6345 29.7615 18.0904 29.1511 17.6447 28.5502C17.9974 28.7097 18.1064 28.2162 18.4965 29.4685C18.4622 29.1139 20.0227 30.4737 19.2023 28.9169C17.8041 27.8371 16.5052 26.0016 16.3652 23.5897C16.432 22.9012 16.4256 22.401 16.4238 21.9793C16.4491 21.5616 16.5573 21.2178 16.7698 20.9176L16.8941 21.336C17.1719 20.6465 16.9088 20.4453 16.7708 20.1524C17.2347 19.009 17.5505 19.8783 17.5977 20.2571C17.8088 19.6406 17.9762 19.1284 18.1123 18.639C18.2785 18.1709 18.4763 17.7853 18.6683 17.3656C18.7657 17.1642 18.8702 16.9529 18.9919 16.7386C19.1364 16.5556 19.281 16.3726 19.4668 16.1737C19.6456 15.9849 19.8485 15.7831 20.0785 15.5855C20.3055 15.3707 20.5726 15.1844 20.8826 15.0434C21.4978 14.9381 21.3226 15.61 22.3489 15.0299C23.1736 14.6075 23.9874 14.3275 24.7884 14.0234C25.5727 13.8277 26.357 13.6319 27.143 13.4975C27.9136 13.4272 28.6972 13.381 29.5036 13.3662C30.3189 13.4026 31.1299 13.4661 32.0144 13.7017L32.8319 14.2653C33.1632 14.0943 33.5145 13.9375 33.8658 13.7807C35.5532 14.4945 37.2127 15.3537 38.5669 16.7928C39.8898 18.2548 40.6307 20.221 40.6701 22.0961C40.5474 21.7389 40.5368 21.2659 40.2925 21.123C40.6068 22.2915 41.5554 23.5187 41.2977 24.5828C41.4874 24.6119 40.8189 24.5592 40.6646 24.48C40.7843 25.7962 41.3564 26.6217 41.3056 28.0725C41.1139 28.2372 41.1203 27.4007 40.7816 27.8367L40.704 28.6679C40.58 27.9944 40.184 29.0206 40.1531 28.7885C40.228 28.6613 40.3613 28.5154 40.3133 28.2862C40.0153 28.2405 39.8246 28.9766 39.5414 29.3768C39.5044 29.7261 39.6454 30.0361 39.8637 29.7701C39.4954 30.2904 39.6245 29.811 39.3235 29.7482C38.9933 30.4906 39.1534 30.6039 39.539 30.8017C39.8582 30.8175 39.8582 30.8175 40.2282 30.3585C39.7271 31.1301 39.4119 32.0634 38.9106 32.4745L39.1138 32.9938L38.9858 33.0684C39.1301 33.1404 39.2072 33.18 39.2401 33.2183L39.2497 33.12C39.6235 35.5622 38.2463 38.7173 39.3256 40.5024L39.408 41.4468L39.5683 42.2811C38.8221 41.7229 38.6747 39.9366 38.3504 39.7371C38.388 39.8538 38.3955 39.9492 38.4531 40.0801C38.2968 40.1947 38.422 39.4874 38.0127 39.4079C37.9223 39.5993 37.8562 39.7777 37.7758 39.9761C37.6873 40.9497 38.8557 40.275 38.3201 41.3075C37.8887 40.0711 38.039 41.8745 37.5028 41.1044C37.2766 41.53 37.7768 41.8841 38.3096 42.1711C38.1744 41.8953 38.1047 41.5906 38.1092 41.3085C38.3794 41.4997 38.4551 42.5595 39.0478 42.5285C39.077 42.6993 39.0462 42.8277 39.0208 42.8848C39.0901 43.084 38.9726 43.2712 38.8522 43.4413C38.881 43.5067 38.9369 43.5763 39.0057 43.67C39.1349 43.5512 39.3304 43.6145 39.5029 43.6465C39.6755 43.6786 39.8297 43.7577 39.8902 43.9056C39.9319 43.9952 39.5755 43.9683 39.3922 44.0788C39.3847 44.3439 39.474 44.5572 39.6187 44.7347C39.6875 44.8285 39.7563 44.9222 39.8322 45.0059L40.1194 45.1942C40.3195 45.3359 40.5421 45.4034 40.7989 45.465C41.0344 45.5566 41.3466 45.5823 41.6675 45.6593C41.1452 45.4848 40.9909 45.0452 40.9646 44.8914C41.0571 44.8668 41.1525 44.8592 41.2921 44.8529C41.3229 44.7245 41.5463 44.6424 41.7284 44.576L41.4488 44.8437C41.751 44.8623 42.0773 44.8681 42.3044 44.6534C42.4402 44.4191 42.5123 44.2748 42.9925 44.6148C42.7863 44.694 42.6954 44.7799 42.6204 44.907C42.9226 44.9257 43.2473 44.8702 43.5832 44.7776C43.6307 44.9013 43.8788 45.2721 44.5303 45.3278L44.2024 44.6452C45.4587 44.8436 45.2844 44.7503 45.9325 44.6834C46.4015 45.0604 47.1658 44.8505 47.8688 44.6423C48.5819 44.4412 49.2395 44.2759 49.3609 44.6772L48.1244 44.7481C48.5967 45.2477 47.1708 46.0104 47.6765 46.2933C48.1486 46.0718 48.6195 45.8945 49.0975 45.7072C47.6861 45.2188 50.463 44.7964 50.211 44.1976C50.892 44.169 51.3019 44.7145 52.1012 44.3491C52.6335 44.5307 51.6258 44.8086 52.2606 44.9726C52.6907 44.9166 52.6576 44.5177 53.2712 44.7117C53.2045 44.7847 52.9758 44.9381 53.0575 45.056C53.717 45.3126 53.568 44.8017 54.3874 44.811L54.229 44.7589C54.6607 44.4036 55.1552 45.0841 55.2757 45.2745C55.9638 45.236 56.6648 45.2215 57.3817 45.2484C57.0433 45.4294 56.0005 45.5023 56.5579 45.8818C55.7703 46.3155 53.8797 44.7219 53.7892 45.8894C54.2883 46.2876 55.2463 45.7192 55.6437 46.3459C55.9082 45.8874 56.781 46.0547 57.3978 46.0107L57.5012 46.2041C58.6571 46.5867 57.761 45.3066 59.0273 45.8726C59.1237 46.076 58.5944 46.272 59.3481 46.5652C59.536 46.533 59.8812 46.5971 60.0187 46.4241L59.8498 46.2595C59.7696 45.8424 60.951 46.5284 61.4876 47.0433C61.047 46.9868 60.8241 47.1745 61.2093 47.6274C60.3384 46.9058 60.0121 47.8762 59.3263 47.4659C59.6793 47.3703 60.6292 47.5771 60.2794 47.0741C59.7623 46.4679 58.9184 46.7266 58.0444 46.6036L58.5684 46.8393C58.4336 47.6449 56.9813 46.9173 56.5256 47.646C56.7653 47.7105 56.9591 47.7126 56.9283 47.8409C56.9303 47.6471 56.1138 47.6549 55.7328 47.5354L56.2062 47.2698C55.1623 46.4107 55.2106 47.361 54.0201 46.8787C54.1642 46.5903 56.0131 46.7576 55.0635 46.2957C54.9882 46.6779 54.2424 46.2252 54.0854 46.4894L53.367 45.7857C52.6206 45.8431 51.7225 46.0935 51.2799 46.2308C51.6408 45.9756 51.8988 45.993 52.3226 45.7974C51.8312 45.855 51.4981 45.6042 51.1696 45.4318C50.8441 45.2764 50.5273 45.1724 50.1723 45.4617L50.7416 45.6545C49.9235 45.6011 49.6018 45.6736 49.2563 45.8646C48.9772 46.2378 49.655 46.4472 50.0943 46.5479C49.7079 46.4997 48.8876 46.2795 48.9178 46.6612C48.5034 46.398 48.0584 46.6236 47.9455 46.8891C47.2211 46.7668 47.6595 46.6567 47.5727 46.3549C46.9951 46.5769 45.6268 46.4944 45.9342 47.0573C46.2139 47.1502 46.9819 46.8078 46.6932 47.2793C46.3563 46.8005 46.3311 47.5786 45.8122 47.5267C46.6431 46.8833 44.6097 47.2312 45.2047 46.7513C44.2557 46.7553 44.1562 47.1505 43.4802 47.3629L43.423 46.9769C43.0801 47.0796 42.7212 47.141 42.3582 47.2295C42.1197 46.7603 42.6263 46.2778 41.6652 46.1081C40.9064 46.6073 41.1597 47.5224 39.5729 47.3454C39.7263 47.2137 39.8725 47.0919 40.0229 46.9431C39.8316 46.8527 39.4318 46.6749 39.0567 46.5896C38.6999 46.4572 38.3901 46.3431 38.3169 46.5315C38.369 46.7336 38.4683 46.954 38.6118 47.1757C38.7764 47.3674 39.0095 47.5474 39.2979 47.6915L39.1137 47.5911C38.6361 47.5233 38.8996 47.8299 39.1143 48.057C39.329 48.2841 39.4466 48.4575 38.4958 48.0398C38.6991 47.9434 38.6499 47.7583 38.5064 47.5367C38.3601 47.2979 38.1349 46.9583 37.8926 46.6216C37.4364 45.9082 37.0735 45.0207 37.1542 44.5672C36.9654 44.3885 36.6506 44.0905 36.4342 43.8022C36.2178 43.5138 35.9872 43.2456 35.813 43.1523C35.6467 43.2598 35.7541 44.0417 35.3214 43.8255C35.315 43.3254 35.2177 42.9111 35.1122 42.5511C35.0337 42.1952 34.9098 41.8822 34.7859 41.5692C34.6691 41.2463 34.5411 40.9604 34.4938 40.5816C34.4508 40.1756 34.456 39.7438 34.6422 39.2899C34.7051 39.3495 34.8177 39.339 34.7841 38.8347L35.0012 38.6129C34.9544 38.3395 34.8931 37.9807 34.9947 37.7523C35.0712 37.3259 35.1477 36.8995 35.2443 36.4872C35.3568 36.4768 35.2104 36.2381 35.1053 35.9834C35.0587 36.0706 35.025 36.1818 34.98 36.3302L35.1053 35.9834C35.029 35.7943 34.9798 35.6092 35.0506 35.5091C34.6675 35.2229 35.4958 34.6679 35.7291 34.2323C35.6995 34.3165 35.7058 34.4562 35.7204 34.5416C36.0761 33.7421 35.3682 33.1509 36.0665 32.5038L36.2557 32.4275C36.1907 32.5617 36.1528 32.7 36.1958 32.7455C36.2437 32.6142 36.2845 32.4929 36.3111 32.3916C36.4735 32.056 36.4323 32.0719 36.3644 32.1891C36.5213 31.5642 36.2308 31.6139 36.4847 30.6824L36.1761 31.1396C36.2135 30.8958 36.2414 30.7503 36.288 30.6632C36.2511 30.0364 36.3756 28.5026 36.8226 27.7227C36.4738 26.8151 36.1692 26.8847 36.2113 25.7432L36.6853 25.9435C36.7918 25.5384 36.8984 25.1332 36.9779 24.7239C37.1667 24.9026 37.4278 24.3215 37.5001 23.5617C37.503 23.5788 37.496 23.5888 37.506 23.5959C38.1122 23.0789 37.5943 22.2617 37.3837 22.0076C37.2249 21.8501 36.9355 21.4951 37.0776 21.4004C36.6671 21.3651 36.5452 20.8584 36.2658 20.5104C36.2588 20.5205 36.2416 20.5234 36.2346 20.5334C36.2187 20.4921 36.2 20.4338 36.1712 20.3684C36.1599 20.4055 36.1245 20.4555 36.0962 20.4955C36.0985 20.0466 35.4943 20.3698 35.4874 19.7642C35.3123 19.46 35.4685 19.3454 35.6248 19.2307C35.7639 19.119 35.9514 18.9814 35.5779 18.5969L35.0419 18.5478C34.9785 18.3828 35.0656 18.4294 35.1582 18.4048C34.7201 18.2599 34.5452 17.7007 34.1565 18.1013C34.7861 18.6971 34.8328 18.9705 35.2868 19.5172C34.5044 19.1586 34.197 19.5718 33.4951 19.3753C33.4072 19.4783 33.5797 19.5103 33.6444 19.6311C33.248 19.5758 33.0011 19.1607 33.2499 19.0215C32.9014 18.8349 32.6427 19.3276 32.1221 19.2144L31.9628 19.9276C31.5927 20.0261 31.2105 19.9508 30.8437 19.8113C30.4556 19.7018 30.0829 19.5281 29.7661 19.424C30.4889 19.4851 31.141 19.0305 31.6258 19.0883C31.5759 18.4373 32.1285 18.3779 32.6921 18.5365C33.291 18.6451 33.7842 19.0092 34.02 18.8457C33.6736 18.4653 34.7756 18.5846 33.9456 18.1022C33.2997 18.3358 33.1841 17.9687 32.568 17.8631C32.2741 17.4297 33.2114 17.3573 32.0193 17.1743C32.492 17.4188 31.3194 17.7601 32.2613 17.766C31.4611 17.9205 31.0264 17.8982 30.5463 17.9188C30.0903 17.9264 29.6185 17.8928 28.8784 18.0898C30.1133 17.9576 28.3781 18.7118 29.1058 18.9566C28.9735 18.3374 31.052 18.5621 29.4848 18.2938C29.8537 18.2395 30.2313 18.2364 30.6031 18.1992C30.6869 18.4839 29.4616 18.5176 30.4124 18.9353C29.4843 19.1645 29.1842 18.952 28.3712 19.4428C28.5178 19.066 27.5742 18.9988 27.4261 18.6988C27.059 18.8144 26.7945 19.2729 26.3388 19.0255L26.886 18.6769C26.2821 18.745 26.1377 18.3125 25.5863 18.3276C25.278 18.5299 25.3247 18.8033 25.5248 18.9449C25.1318 19.0122 24.7264 19.1607 24.408 19.3558C24.1226 19.5893 23.7784 19.7361 23.4112 19.8517C24.2188 19.4321 23.2464 19.2995 23.9544 18.9146L23.2951 19.0186C23.0709 19.2504 22.9786 19.6356 22.8345 19.924C22.6803 20.2054 22.6605 20.5517 22.656 20.8339C22.6623 20.9735 22.6586 21.1061 22.669 21.2186C22.7095 21.3524 22.7641 21.4662 22.8187 21.5799C22.9351 21.7975 23.0739 21.9408 23.2482 22.0341C23.3254 22.4341 23.065 22.5051 22.8391 22.6756C22.7583 22.7686 22.6804 22.8786 22.6996 23.0424C22.6917 23.202 22.7639 23.4184 23.0887 23.7233C22.9611 23.5429 22.5936 23.9135 22.3811 23.8532C22.3844 23.9757 22.3795 24.1524 22.3816 24.3191C22.4038 24.5 22.4872 24.6792 22.6031 24.7913C22.6776 24.5587 22.708 24.3248 22.8325 24.1276C23.059 24.4231 23.2245 24.8256 23.2976 25.2528C23.4861 25.6866 23.5267 26.1809 23.802 26.5559C23.6077 26.4485 23.5182 26.8507 23.1146 26.4449C22.8217 26.5829 23.2074 27.1413 23.3255 27.4201C23.9016 27.8579 24.0939 27.1831 24.7201 27.6563C25.8902 29.3556 27.3089 30.555 29.5083 32.0517C31.6065 33.5218 33.823 35.0157 35.9892 36.7291C38.1483 38.4526 40.3207 40.3057 42.2301 42.9337C43.1591 44.2521 44.0807 45.8356 44.4886 47.9114C44.5863 48.4311 44.667 48.9537 44.6509 49.528C44.6761 50.0865 44.6158 50.6596 44.5185 51.2215C44.3268 52.3623 43.8654 53.4173 43.3063 54.3132L43.1062 54.1715C41.8921 56.4809 40.0583 57.841 38.3103 58.9315C37.4189 59.427 36.5176 59.9154 35.61 60.2641L34.9215 60.5578C34.6911 60.6499 34.3794 60.7297 34.1047 60.8206C33.5526 60.9854 32.9904 61.1431 32.4253 61.2838C30.1156 61.6613 27.602 61.6693 25.3882 60.8081C23.189 60.0324 21.2101 58.7969 19.6958 57.2445L19.6396 57.43C19.0086 56.1574 18.6347 56.0279 18.0982 55.8734C17.623 55.7173 16.9824 55.5191 16.7647 53.9383C16.3062 53.6738 15.8743 53.308 15.5957 52.8105C15.3101 52.323 15.0739 51.7654 14.842 51.1807C14.6201 50.6031 14.5119 49.9709 14.3042 49.3733C14.0793 48.7786 13.9128 48.1652 13.6538 47.5764L13.9676 47.3029C13.6936 46.8837 13.5263 46.4199 13.5399 45.9339C13.5505 45.4308 13.6496 44.9303 13.7657 44.4267L13.9434 43.6665C14.0321 43.4139 14.1108 43.1542 14.1824 42.9045C14.3768 42.3964 14.4558 41.8817 14.4036 41.319Z" fill="#224486"/>
<path d="M35.043 38.6577L34.9373 38.8303C35.2632 39.3248 35.1433 39.075 35.043 38.6577Z" fill="#224486"/>
<path d="M37.3581 27.4357C37.0367 27.5083 36.8445 27.8222 36.7464 28.1728C36.8559 28.1453 37.0153 28.1532 37.1614 28.0316C36.7807 28.8873 36.8388 29.4835 36.4374 30.4745C36.6152 30.4353 36.8047 30.8245 36.8285 29.7312C36.3761 30.116 37.8658 27.9901 37.3581 27.4357Z" fill="#224486"/>
<path d="M42.1694 44.9469C42.2255 44.8938 42.2694 44.8319 42.3008 44.7612L42.1694 44.9469Z" fill="#224486"/>
<path d="M38.8438 43.4551C38.8584 43.5974 38.8543 43.7429 38.761 43.8747C38.6448 43.7594 38.7271 43.6198 38.8438 43.4551Z" fill="#224486"/>
<path d="M39.2891 33.4385C39.2437 33.8427 39.2046 34.3869 38.9098 34.5695C39.0641 33.9263 39.2156 33.6273 39.2891 33.4385Z" fill="#224486"/>
<path d="M36.5924 45.0304C36.5895 45.0133 36.5965 45.0033 36.5836 44.9791C36.2069 45.0436 36.1758 44.4497 35.8358 44.4197C35.611 43.9295 36.1774 44.1498 36.4593 44.3043C36.5053 44.3669 36.5409 44.678 36.5924 45.0304Z" fill="#224486"/>
<path d="M21.7706 54.1157C21.9493 54.182 22.1001 54.3941 22.251 54.6062C22.1725 54.6109 22.17 54.6994 22.1705 54.805C22.1575 54.7808 22.1345 54.7495 22.1145 54.7353C22.1012 54.9667 21.7458 55.001 21.5308 55.1347C21.065 54.7298 20.9944 54.5745 21.0854 54.4884C21.2006 54.3894 21.4604 54.3626 21.7706 54.1157Z" fill="#224486"/>
<path d="M30.8815 55.0558C30.7935 55.0709 30.7231 55.0829 30.6703 55.0919C30.7158 55.0932 30.7862 55.0812 30.8815 55.0558Z" fill="#224486"/>
<path d="M21.6902 54.0702C21.6314 54.0892 21.7991 54.3441 22.0029 54.6548C22.0167 54.5284 21.9427 54.3549 21.6902 54.0702Z" fill="#224486"/>
<path d="M59.0284 48.191L58.7398 48.1523C58.8718 48.306 59.0281 48.4467 59.143 48.6033C60.035 48.768 60.2425 48.5386 60.6702 48.3596C59.7724 48.1607 59.398 47.7753 58.2612 47.4673C58.5307 47.7033 58.7932 47.9492 59.0284 48.191Z" fill="#224486"/>
<path d="M59.5537 45.5438C59.4855 45.4046 59.2999 45.0459 59.1342 44.9589L58.889 45.1339C59.1153 45.2638 59.3244 45.3967 59.5537 45.5438Z" fill="#224486"/>
<path d="M46.5398 43.0132L47.6487 43.0821C47.9699 42.822 46.6581 42.6094 46.5398 43.0132Z" fill="#224486"/>
<path d="M51.2508 46.8791L51.747 46.6515C51.3166 46.3773 50.7011 46.4291 50.6171 46.7199C51.2046 46.557 50.7609 46.8826 51.2508 46.8791Z" fill="#224486"/>
<path d="M43.75 43.3708C43.5528 43.8862 42.8031 43.3099 42.6967 43.7829C42.8911 43.6159 43.7882 43.8548 43.75 43.3708Z" fill="#224486"/>
<path d="M45.2265 47.7263C45.618 48.1087 46.0571 47.6371 46.6668 47.6473C46.1874 47.7294 45.3893 47.3901 45.2265 47.7263Z" fill="#224486"/>
<path d="M39.8992 44.5657C40.1037 44.3192 40.2841 44.447 40.5147 44.6102C40.3936 44.675 40.2742 44.8011 40.1143 44.7932C40.6881 44.7479 40.6839 44.7751 41.0819 44.6805C40.7281 44.4151 40.3897 44.0853 40.6381 43.7344C40.3763 43.9554 39.8 44.0892 39.8992 44.5657Z" fill="#224486"/>
<path d="M43.7246 48.0304C44.2673 48.0756 44.6641 48.327 45.2549 48.2C45.0974 47.9854 44.8752 47.6955 44.1364 47.865L44.3317 47.4433C43.6094 47.2563 44.686 47.9004 43.7246 48.0304Z" fill="#224486"/>
<path d="M39.6208 42.65L39.5591 42.9072C40.0603 43.262 40.169 43.64 40.6003 43.3283C40.4871 43.2331 40.3714 43.2265 40.1922 43.0545C40.003 42.8754 39.7924 42.7264 39.6208 42.65Z" fill="#224486"/>
<path d="M40.8155 47.4112L40.6212 47.9439C41.5918 48.1435 40.5713 47.7562 40.9394 47.6665C41.1885 47.7666 41.5529 47.8112 41.7316 47.7093C40.7433 47.7713 41.6951 47.2874 40.8155 47.4112Z" fill="#224486"/>
<path d="M37.6306 46.7686C37.2317 46.5755 36.924 46.2536 36.5784 45.9644C36.638 46.3636 36.7343 46.7739 36.8603 47.2053C38.3349 48.0853 37.1191 46.9867 37.6306 46.7686Z" fill="#224486"/>
<path d="M36.9462 45.3829C36.9445 45.3215 36.9458 45.2772 36.9612 45.2129C36.4899 44.8793 35.9183 44.4747 35.4766 44.0566C36.1941 44.8505 36.2188 44.9433 36.9462 45.3829Z" fill="#224486"/>
<path d="M40.7716 28.7235C40.568 28.5187 40.1069 29.2987 40.4449 28.9924C40.604 29.1959 41.1386 28.1194 40.7716 28.7235Z" fill="#224486"/>
<path d="M35.7354 30.9555C36.011 30.6087 35.9767 29.2749 35.9414 28.708C35.9128 29.3651 35.4012 30.9598 35.7354 30.9555Z" fill="#224486"/>
<path d="M35.875 28.5278C35.8735 28.5825 35.8915 28.6882 35.8921 28.8186C35.9003 28.6758 35.8858 28.5912 35.875 28.5278Z" fill="#224486"/>
<path d="M25.9533 19.9884C25.9164 20.0155 25.8711 20.0544 25.8376 20.1017C25.8829 20.0628 25.908 20.0273 25.9533 19.9884Z" fill="#224486"/>
<path d="M26.3867 19.7814C26.686 19.8164 27.2331 19.5848 27.3075 19.3132C26.8777 19.5248 26.4251 19.6022 26.0269 19.9982C26.1663 19.9053 26.4592 20.0537 26.3867 19.7814Z" fill="#224486"/>
<path d="M23.3085 21.1406C23.2293 20.9032 23.4965 20.8285 23.2691 20.684C23.0609 20.652 23.1223 21.1242 23.3085 21.1406Z" fill="#224486"/>
<path d="M37.1691 48.3651C37.1936 48.7154 37.368 48.854 37.6515 48.646C37.4762 48.2949 37.3725 48.5696 37.1691 48.3651Z" fill="#224486"/>
<path d="M37.8376 49.0348L37.6765 49.1276C37.6164 49.2124 37.5383 49.3003 37.4571 49.3701C37.6001 49.2804 37.7188 49.1576 37.8376 49.0348Z" fill="#224486"/>
<path d="M37.2339 50.328C37.172 50.2842 37.1101 50.2404 37.0781 50.1807C37.1137 50.2616 37.1617 50.3512 37.2339 50.328Z" fill="#224486"/>
<path d="M37.0781 50.1807C37.0871 50.2331 37.087 50.2332 37.096 50.2856L37.0781 50.1807Z" fill="#224486"/>
<path d="M37.2748 50.1954L37.0665 50.1223C37.0912 50.1398 37.1109 50.1908 37.1181 50.2331C37.1109 50.1908 37.1619 50.1712 37.2748 50.1954Z" fill="#224486"/>
<path d="M37.026 50.6181C37.2417 50.6345 37.4099 50.6323 37.6299 50.6213C37.5406 50.255 37.2308 50.7783 36.8605 50.2738C36.9156 50.3886 37.0053 50.4974 37.026 50.6181Z" fill="#224486"/>
<path d="M36.1525 51.7296C35.9081 51.7979 35.8308 52.1202 35.6258 52.3672C35.438 52.6113 35.2413 52.8039 34.9528 52.6148C33.7482 53.6775 35.8446 53.3365 34.2767 54.4437C36.0587 53.865 34.5193 52.9716 35.9368 52.4818C35.5262 52.5079 35.5844 52.3831 35.7597 52.2207C35.8906 52.057 36.1187 51.8413 36.1525 51.7296Z" fill="#224486"/>
<path d="M37.0054 52.3174C36.8604 52.0348 36.3439 52.4043 36.3153 52.699C36.4772 52.6186 37.0243 52.7358 37.0054 52.3174Z" fill="#224486"/>
<path d="M33.8805 53.5245C33.7055 53.5368 33.5175 53.5247 33.3224 53.5226L33.2919 53.758C33.4924 53.6883 33.703 53.6257 33.8805 53.5245Z" fill="#224486"/>
<path d="M32.2181 54.1818L32.5032 53.6721C32.3764 53.9154 31.8039 54.0399 32.2181 54.1818Z" fill="#224486"/>
<path d="M30.059 54.192C29.7356 54.1144 29.4263 55.0003 30.1848 54.7199L30.0067 54.7149C30.0348 54.5683 29.6302 54.3274 30.059 54.192Z" fill="#224486"/>
<path d="M25.0089 54.1311C25.244 54.3127 25.5738 54.4248 25.6103 54.2233L24.8772 53.9317L25.0089 54.1311Z" fill="#224486"/>
<path d="M24.1327 55.9905C24.1284 56.6282 24.9207 56.4141 25.4257 56.8163C25.1209 56.6154 24.9918 56.5241 24.8429 56.4187C24.6771 56.3162 24.5042 56.2236 24.1327 55.9905Z" fill="#224486"/>
<path d="M24.8299 53.1182C25.1341 53.0572 25.3073 53.3333 25.439 53.4726C25.5207 53.1619 25.0638 52.9613 24.8299 53.1182Z" fill="#224486"/>
<path d="M23.6098 52.4219C23.5743 52.1117 23.8455 52.2586 23.8175 52.0438C23.6358 51.4951 23.2967 51.1051 22.8737 51.0457C22.7893 51.271 22.4655 51.7919 22.1096 51.765C22.8567 52.3838 23.7863 52.0667 23.6117 52.8432C23.9901 52.796 24.3656 52.7318 24.7141 52.6634C24.3317 52.1227 23.936 52.7878 23.6098 52.4219Z" fill="#224486"/>
<path d="M24.0538 54.8983L23.7959 54.3697C23.6987 54.6771 23.3608 54.4529 23.0918 54.3227C22.9303 54.6147 23.1108 54.7424 23.3438 54.8171C23.5982 54.8617 23.9193 54.8332 24.0538 54.8983Z" fill="#224486"/>
<path d="M20.7359 48.5092L20.2969 47.5586L20.3633 47.895L20.7359 48.5092Z" fill="#224486"/>
<path d="M20.7898 47.787L20.9635 47.713C20.7944 47.5023 20.5705 47.2833 20.4258 47.0596C20.5117 47.3022 20.6766 47.5402 20.7898 47.787Z" fill="#224486"/>
<path d="M20.8359 46.7666L20.8221 46.8931C20.8889 47.0766 20.9902 47.2542 21.1058 47.4117C20.9814 47.2025 20.8986 46.9774 20.8359 46.7666Z" fill="#224486"/>
<path d="M20.7924 44.7761L20.5199 44.9469C20.5885 45.1925 20.2758 45.6986 20.6379 45.6366C20.5234 45.4344 20.5758 44.9107 20.7924 44.7761Z" fill="#224486"/>
<path d="M19.194 33.8772C18.9914 34.2491 19.2631 34.2292 19.5264 34.264C19.5945 34.0394 19.6726 33.8219 19.7579 33.5944C19.6347 33.7042 19.3753 33.8994 19.194 33.8772Z" fill="#224486"/>
<path d="M21.3974 33.5749C21.715 33.2746 22.0679 32.9243 22.3942 32.6752C20.9909 33.0471 20.9344 33.4872 19.803 34.2166C20.0903 34.1499 20.3712 33.9437 20.6663 33.7175C20.9573 33.5184 21.2711 33.3505 21.6125 33.2921L21.3974 33.5749Z" fill="#224486"/>
<path d="M41.2282 33.2243C41.1368 33.5661 41.3494 33.5209 40.6619 33.7266C41.608 33.5383 42.3967 33.6149 43.462 33.5561C43.2768 33.3498 44.0449 32.9452 43.6498 33.0568C43.2688 33.1484 42.872 33.1987 42.4881 33.2732L42.6685 33.0396C41.8304 32.7776 42.1189 33.4333 41.2282 33.2243Z" fill="#224486"/>
<path d="M35.0648 28.88C35.012 28.6755 34.7944 28.7038 34.5797 28.7494C34.2728 29.505 35.1348 28.7167 35.0648 28.88Z" fill="#224486"/>
</svg>
