<svg width="74" height="80" viewBox="0 0 74 80" fill="none" xmlns="http://www.w3.org/2000/svg">
<path d="M66.9168 20.2829L66.8506 20.0432L64.9814 21.0451L65.1263 21.289L66.5347 21.5217C67.3555 20.936 67.1193 20.9234 66.9168 20.2829Z" fill="#E0E1DC"/>
<path d="M66.9208 20.2752C67.0446 20.9111 67.2806 20.9237 66.539 21.5133C67.0026 21.6954 65.9255 22.6603 67.1096 22.645C67.1883 22.6492 67.5354 23.5329 67.5889 24.0077C67.6424 24.4825 67.4641 24.8662 67.3602 25.3326C67.356 25.4111 67.2029 25.3242 67.1987 25.4026C67.2491 24.4615 66.9879 24.9194 66.7393 25.1421C66.8096 25.3032 66.9501 25.6253 67.0288 25.6295C67.269 25.5637 67.6948 26.4517 67.8983 25.5974C68.0021 25.131 68.4122 24.8383 68.752 24.3846C68.8223 24.5456 68.9671 24.7893 68.9587 24.9462C68.3472 29.0035 70.1952 32.7992 68.495 36.5623C68.4038 36.7934 68.5401 37.1939 68.5234 37.5077C68.6104 37.355 68.623 37.1197 68.71 36.9671C69.075 36.0427 69.5187 35.1226 69.8837 34.1983C70.3358 33.1213 70.6336 33.4519 70.6578 34.4757C70.641 34.7894 70.2225 35.2389 70.0442 35.6226C70.6903 35.3426 71.4108 35.1452 71.9908 34.6256C72.1565 34.4772 72.3558 33.7013 72.3768 33.3091C72.51 32.2938 72.2499 31.2573 72.23 30.1551C72.1031 28.1033 71.5535 26.5795 70.3064 27.7712C70.2235 27.8454 70.0746 27.6802 70.0043 27.5191C69.934 27.358 69.9509 27.0443 69.8848 26.8048C69.9593 26.8874 69.955 26.9659 70.0379 26.8917L70.5309 26.5247C70.3945 26.1242 70.1795 25.7194 70.039 25.3973C69.8901 25.232 69.7369 25.1452 69.5838 25.0583L70.1763 24.3035C70.2634 24.1508 70.4207 24.1592 70.5823 24.0892C70.813 25.6746 71.4182 24.6845 71.4224 24.6061C71.4025 23.5038 71.0102 21.9884 70.5928 20.9436C70.34 21.2447 70.1575 21.7068 69.8303 21.9253C69.6645 22.0737 69.3541 21.9785 69.0395 21.9617C68.9608 21.9574 68.8905 21.7964 68.8161 21.7137C68.8203 21.6353 68.9031 21.5611 68.9031 21.5611C70.191 21.0794 69.4674 19.8609 68.7269 18.9561L66.7802 19.9531L66.9208 20.2752Z" fill="#E0E1DC"/>
<path d="M52.491 49.628C52.9126 50.5944 53.3899 49.0469 53.8577 49.1506L54.3968 47.9209C54.4838 47.7683 54.4136 47.6072 54.422 47.4503C54.5793 47.4588 54.7408 47.3887 54.8195 47.393C54.9684 47.5582 55.0387 47.7193 55.0303 47.8762C55.0261 47.9546 54.8603 48.103 54.8561 48.1815C54.8436 48.4168 54.8352 48.5736 54.8226 48.8089C55.5022 47.9014 56.7451 46.7881 56.6958 46.2349C56.5805 45.4421 56.1745 45.6564 56.9738 45.4632C57.2139 45.3974 57.4793 44.861 57.7279 44.6383C57.8108 44.5641 58.0425 44.6552 58.1957 44.742C58.2701 44.8246 58.1789 45.0557 58.0132 45.2042C57.9261 45.3568 57.6817 45.5011 57.5947 45.6537C57.752 45.6621 57.9796 45.8316 58.0624 45.7574C58.3068 45.6131 58.4767 45.3863 58.6466 45.1594C58.8207 44.8541 58.9162 44.5446 59.0116 44.2351L59.04 45.1804L59.2214 46.2127C59.5528 45.9158 59.9629 45.6231 60.2985 45.2478C60.9782 44.3403 61.5834 43.3501 62.263 42.4426C62.433 42.2158 62.6774 42.0715 62.6899 41.8362C62.7067 41.5225 62.6448 41.2046 62.6658 40.8124C62.3218 41.3446 62.0522 41.9594 61.6295 42.4874L61.0369 43.2423C60.9625 43.1596 60.8838 43.1554 60.888 43.077C61.1251 41.5952 61.3579 40.1919 62.3029 38.748C62.647 38.2158 62.7634 37.5142 62.8714 36.9694L62.1131 37.8726L61.7775 38.248L62.0428 37.7116C62.1425 37.3236 62.3208 36.9399 62.3376 36.6262C62.3585 36.234 62.1393 35.9077 61.9988 35.5856C61.5215 37.1331 60.8041 38.7465 60.0122 40.2772C59.7427 40.892 59.3158 41.4984 58.8931 42.0264C58.8061 42.1791 58.4956 42.0838 58.2638 41.9927C58.2638 41.9927 58.2806 41.679 58.3677 41.5264C59.9137 39.1708 61.3023 36.8068 62.1362 34.4917C62.1655 33.9427 62.2694 33.4764 62.2988 32.9273L61.4954 33.199C62.3061 34.2649 60.671 33.8628 60.7905 34.5771C60.8566 34.8166 60.6825 35.1219 60.757 35.2045C60.9059 35.3698 61.2164 35.465 61.3695 35.5519C61.0255 36.0841 60.4245 36.9958 60.027 37.0532C58.3709 37.0432 59.4459 39.0671 58.3237 39.4003C58.3677 41.5264 57.6251 43.6103 55.4918 45.1479C53.9343 46.2444 53.5682 48.6631 51.6299 49.5033C51.7789 49.6686 51.8942 50.4613 52.491 49.628Z" fill="#E0E1DC"/>
<path d="M64.6328 43.5933C64.5542 43.5891 64.4755 43.5848 64.3968 43.5806C63.5148 43.8481 62.5708 43.7976 62.0978 45.2667C62.0191 45.2625 61.8618 45.2541 61.866 45.1757C61.7915 45.093 61.7212 44.9319 61.7212 44.9319L62.2226 44.4082C61.8167 44.6224 61.3405 44.6756 61.0091 44.9725C59.5753 46.7049 58.8905 49.1852 56.8526 50.4133C57.8752 50.468 58.2391 51.038 57.3811 52.3293C57.3769 52.4077 57.5259 52.573 57.6004 52.6556C57.7577 52.664 57.9937 52.6767 58.0765 52.6024C59.0215 51.1585 59.8176 49.5494 60.8371 48.1881C61.4297 47.4333 62.4775 47.0174 63.1529 46.1884C63.7413 45.5119 64.1105 44.5092 64.6328 43.5933Z" fill="#E0E1DC"/>
<path d="M66.3152 25.5184C66.3236 25.3616 66.1872 24.961 66.1086 24.9568C65.6324 25.01 64.8415 25.0463 64.7461 25.3558C64.6255 26.1359 64.8196 26.9329 64.8605 27.6429C64.8594 29.1373 64.8583 30.6317 64.3853 32.1008C64.1944 32.7199 63.7676 33.3263 63.4235 33.8584C63.821 33.8011 64.2888 33.9047 64.6905 33.7689C64.852 33.6989 65.1132 33.2409 65.13 32.9272C65.3712 31.367 65.5831 30.3559 66.9623 29.6431C68.1842 28.9219 65.796 27.8503 66.7242 26.7201L65.967 26.1291C65.967 26.1291 65.8799 26.2817 65.8715 26.4386L65.6481 26.1907L65.9879 25.7369L66.1369 25.9022C66.2239 25.7495 66.3068 25.6753 66.3152 25.5184Z" fill="#E0E1DC"/>
<path d="M61.5866 24.0794C61.3496 25.5612 62.9186 25.7238 62.7728 26.9745L63.3277 26.9255C63.3319 26.8471 63.2658 26.6076 63.3445 26.6118L64.4049 25.9606C63.6518 25.2911 63.9003 25.0684 64.5506 24.7099C64.8779 24.4915 65.0562 24.1077 65.309 23.8066C64.6346 23.1413 64.5223 23.7646 64.3398 24.2267C64.3356 24.3051 64.021 24.2883 63.9465 24.2057C63.7976 24.0404 63.7315 23.8009 63.6655 23.5614C64.063 23.504 64.6052 23.6903 64.3367 22.8108C63.699 22.934 62.9952 22.8177 62.5023 23.1846C62.0093 23.5515 62.7792 23.9073 62.9984 24.2336C63.0728 24.3163 62.9774 24.6258 62.8987 24.6216C62.7372 24.6916 62.4226 24.6747 62.3523 24.5137C62.0544 24.1831 61.7859 23.3036 61.5499 23.2909C61.0779 23.2657 60.8378 23.3315 60.7591 23.3273C60.5147 23.4715 61.6821 23.7699 61.5866 24.0794Z" fill="#E0E1DC"/>
<path d="M62.2626 29.1588C62.1796 29.2331 62.0883 29.4643 62.0799 29.6213C62.1502 29.7824 62.3822 29.8735 62.4525 30.0347C62.5396 29.882 62.548 29.725 62.6351 29.5723C62.888 29.271 63.0623 28.9655 63.3194 28.5857L63.5471 28.7553C62.9878 28.8828 64.0394 29.8835 63.0119 29.9072C62.9332 29.903 62.8209 30.5267 62.8041 30.8406C62.7999 30.9191 62.9489 31.0845 62.9489 31.0845C64.7142 30.5492 63.6385 28.524 64.2524 27.3763L63.2501 26.9291L62.6949 26.9782C62.972 27.7013 63.0004 28.6473 62.2626 29.1588Z" fill="#E0E1DC"/>
<path d="M47.7737 55.2753C47.7737 55.2753 47.844 55.4363 47.8398 55.5147C50.1934 52.8091 47.8598 56.617 48.6799 56.0316C48.9243 55.8874 49.1645 55.8216 49.326 55.7516L49.885 55.6242C49.798 55.7768 49.7068 56.0079 49.5452 56.0779C49.3753 56.3048 49.1309 56.449 48.8866 56.5933C49.0397 56.6801 49.1057 56.9196 49.263 56.928C49.4246 56.858 49.6732 56.6353 50.0833 56.3427C50.1829 55.9547 50.1294 55.4799 50.3822 55.1788C51.4719 53.9787 48.938 54.1577 50.5081 52.8259C50.3591 52.6606 50.293 52.4211 50.057 52.4085C48.8519 52.816 48.6852 54.4588 47.7737 55.2753Z" fill="#E0E1DC"/>
<path d="M67.8985 34.0944L67.1019 35.7046C67.019 35.7788 67.0148 35.8573 66.9319 35.9316C66.8574 35.8489 66.8657 35.6919 66.7912 35.6092L66.7629 34.6633C66.5844 35.0472 66.3315 35.3485 66.2402 35.5798C66.0072 36.984 65.5518 36.6448 65.2621 36.1571C65.0008 36.6153 64.4823 37.4534 64.5568 37.5361C64.9871 38.3462 65.1372 37.0162 65.5349 36.9588C66.3347 36.7654 67.2751 36.8944 68.0171 36.3045C68.9291 35.4875 67.9352 34.8834 67.8985 34.0944Z" fill="#E0E1DC"/>
<path d="M67.6039 39.8249C67.1687 40.5882 66.7292 41.4299 66.2153 42.1889L64.6776 44.3877C64.3378 44.8414 64.1512 45.382 63.8858 45.9184C64.7228 45.0193 65.5555 44.1987 66.1439 43.5223C66.4051 43.0643 66.488 42.9901 66.575 42.8374L66.5457 43.3864C66.5373 43.5433 66.6033 43.7828 66.6033 43.7828C68.38 43.0126 66.7334 41.3515 67.9679 40.395C68.0507 40.3208 68.0014 39.7675 67.9395 39.4496C67.8567 39.5238 67.7738 39.5981 67.6868 39.7507C67.6165 39.5896 67.6081 39.7465 67.6039 39.8249Z" fill="#E0E1DC"/>
<path d="M54.8024 51.883L54.7845 53.6923C55.3523 53.4078 55.8456 53.0407 56.575 52.6862C56.6789 52.2195 56.7828 51.7528 56.8867 51.2861L54.8024 51.883Z" fill="#E0E1DC"/>
<path d="M64.0191 34.5198C63.7662 34.8211 63.4303 35.1966 63.0987 35.4937C63.5584 35.7544 63.7777 36.081 63.4954 36.9317C63.4041 37.1629 63.9299 37.6633 64.145 38.0683C64.5145 37.0649 63.3967 35.8245 65.0917 35.1281C64.7065 34.9501 64.4043 34.6978 64.0191 34.5198Z" fill="#E0E1DC"/>
<path d="M66.6891 33.246C66.7017 33.0106 66.4739 32.841 66.4078 32.6013C66.1507 32.9811 65.8935 33.3609 65.5619 33.658C65.5157 34.5213 65.4034 35.1449 65.3656 35.8512C66.1076 35.2613 66.6303 34.3448 66.6891 33.246Z" fill="#E0E1DC"/>
<path d="M56.1002 50.0616C55.3707 50.4161 54.5584 50.8449 53.8206 51.3564C53.7377 51.4306 53.7209 51.7446 53.6296 51.9758C53.87 51.9099 54.3422 51.9352 54.3464 51.8567C54.9688 50.552 55.905 50.7595 56.7089 50.4877C56.5599 50.3223 56.3405 49.9957 56.1002 50.0616Z" fill="#E0E1DC"/>
<path d="M65.13 21.2806L64.5118 22.5069C64.9054 22.5279 65.448 22.7144 65.7754 22.4958C66.0987 22.3557 66.2855 21.8147 66.5385 21.5134L65.13 21.2806Z" fill="#E0E1DC"/>
<path d="M60.8202 48.818C60.0572 49.8003 61.1886 49.3099 61.1802 49.4669C61.0679 50.0905 60.794 50.7842 60.52 51.4779C60.8685 50.8669 61.3785 50.1858 61.5695 49.5664C61.6692 49.1782 61.4541 48.7732 61.3218 48.2938C61.0773 48.4382 60.9073 48.6652 60.8202 48.818Z" fill="#E0E1DC"/>
<path d="M35.477 50.3702C35.1327 50.9027 37.6379 52.7683 34.44 52.0462C34.5932 52.1331 34.7422 52.2985 34.8955 52.3854C37.9233 53.3345 36.9798 51.7886 36.7238 50.673C36.347 50.338 35.8999 49.8419 35.477 50.3702Z" fill="#E0E1DC"/>
<path d="M34.4523 32.8567C34.2204 32.7656 33.9926 32.596 33.6819 32.5006C31.0266 31.9651 34.8658 33.9807 33.4531 33.8264L35.2299 34.5511C35.421 33.9317 33.6232 33.5994 34.4523 32.8567Z" fill="#E0E1DC"/>
<path d="M12.0385 62.4043C12.0301 62.5612 12.0218 62.7181 12.0962 62.8008L12.241 63.0445L12.6512 62.7518L12.5022 62.5865C12.3491 62.4996 12.1959 62.4127 12.0385 62.4043Z" fill="#E0E1DC"/>
<path d="M38.8303 29.0753L38.7138 29.7774C38.9584 29.6331 39.9313 30.6296 39.5965 29.5098C39.46 29.109 39.9491 28.8203 40.202 28.519C39.9617 28.5849 39.5513 28.8778 39.3981 28.7909C38.2636 27.8644 38.6981 28.596 38.8303 29.0753Z" fill="#E0E1DC"/>
<path d="M7.12251 65.9248L7.48672 66.4952L8.2245 65.9837C7.84773 65.6488 7.48779 64.9999 7.09842 64.9003C6.32387 64.6228 6.75413 65.4328 7.12251 65.9248Z" fill="#E0E1DC"/>
<path d="M52.5518 48.2957C52.7177 48.1472 52.8877 47.9202 53.041 48.0071C53.2729 48.0982 53.6455 48.5117 53.7284 48.4374C54.2384 47.7563 53.6255 47.4087 52.3137 45.3709C53.8323 47.9707 52.2874 47.3371 52.5518 48.2957Z" fill="#E0E1DC"/>
<path d="M9.88539 58.2027C9.4173 58.099 8.8086 57.6729 8.55986 57.8957C7.90496 58.3329 7.22902 59.1625 7.42318 59.96C7.4851 60.2781 8.51257 60.2544 9.05937 60.3623C10.5927 59.736 9.44563 59.045 9.88539 58.2027Z" fill="#E0E1DC"/>
<path d="M35.076 57.9803C35.7844 58.0182 36.8035 58.1515 37.2181 57.7801C37.7858 57.4957 38.0556 56.8804 37.0533 56.4333C36.8833 56.6603 36.7133 56.8873 36.4645 57.1101C36.1287 57.4857 35.5651 57.6917 35.076 57.9803Z" fill="#E0E1DC"/>
<path d="M52.7147 8.58214L52.6444 8.42097C52.4828 8.49103 52.3169 8.63957 52.1553 8.70963C52.0766 8.70542 51.8404 8.69279 51.7659 8.61009C51.6998 8.37044 51.555 8.12657 51.5676 7.89113C51.576 7.73416 51.7418 7.58562 51.8289 7.43287C51.5928 7.42024 51.2779 7.40339 51.1163 7.47345C49.5367 8.96307 51.6872 8.60588 51.9685 9.25058C52.9708 9.69773 52.0062 8.54424 52.7147 8.58214Z" fill="#E0E1DC"/>
<path d="M39.3447 37.0445C39.6344 37.5322 39.8454 38.0157 40.2179 38.4292C40.2883 38.5904 40.7647 38.5372 41.0009 38.5498C40.7196 37.9051 40.6042 37.1119 40.0784 36.6115C39.18 35.6977 39.8957 37.074 39.3447 37.0445Z" fill="#E0E1DC"/>
<path d="M66.1965 17.5604C66.1965 17.5604 66.209 17.3252 66.1304 17.3209C66.0559 17.2383 65.9773 17.2341 65.8986 17.2299C65.6584 17.2957 65.2525 17.5099 65.1822 17.3489C64.6651 16.692 64.1481 16.0351 63.7097 15.3824C63.5607 15.2171 63.6562 14.9076 63.6688 14.6723L62.4973 14.4523L63.3908 15.444C63.9824 16.1835 64.5739 16.9231 65.0826 17.7368C65.2273 17.9805 65.285 18.3769 65.2724 18.6122C65.0857 19.1528 64.8864 19.9287 63.997 18.8586C63.91 19.0112 63.7401 19.2381 63.8146 19.3207L64.7448 21.1009L66.6128 20.0997C66.2657 19.2159 65.4507 18.2284 66.1965 17.5604Z" fill="#E0E1DC"/>
<path d="M21.1083 53.7672C21.0957 54.0025 21.166 54.1636 21.166 54.1636C23.3727 54.203 25.2166 52.1779 27.4223 53.7117C27.609 53.1711 28.189 52.6516 28.0568 52.1726C27.8544 51.5325 26.2549 53.4133 26.1856 51.7579C25.9371 51.9805 25.6057 52.2774 25.4358 52.5043C25.3529 52.5785 25.5018 52.7438 25.5721 52.9049C25.2574 52.888 24.8599 52.9454 24.7068 52.8586C24.5537 52.7717 24.3386 52.3669 24.4215 52.2927C25.4074 51.5589 23.9538 52.189 24.1237 51.9622C23.1336 52.7744 20.63 50.9101 20.438 53.0235C20.3384 53.4114 20.9593 53.6019 21.1083 53.7672Z" fill="#E0E1DC"/>
<path d="M18.1746 49.521C18.6595 49.3108 18.9208 48.8525 19.3354 48.4812C19.0205 48.4643 18.7886 48.3732 18.0844 48.2568C17.8356 48.4797 17.6614 48.7852 17.4084 49.0865C16.8123 48.4249 16.6465 48.5735 16.4513 49.2714C16.4471 49.3499 15.2496 49.6006 15.9496 49.7955C16.4093 50.0562 17.4494 49.797 18.1746 49.521Z" fill="#E0E1DC"/>
<path d="M40.7141 19.0356C40.6889 19.5062 40.9784 19.9936 41.1106 20.4726C41.1934 20.3984 41.2847 20.1673 41.3633 20.1715C41.6822 20.1099 42.0755 20.131 42.3902 20.1478C42.4688 20.152 42.6838 20.5568 42.6754 20.7136C42.559 21.4153 42.3597 22.1912 43.2502 21.7669C43.8176 21.4826 44.385 21.1984 44.3032 19.7782C42.6146 18.9013 42.881 16.8706 43.5408 14.8608C43.6278 14.7082 43.4254 14.0681 43.3467 14.0639C41.5207 14.2808 40.84 16.6827 40.7141 19.0356Z" fill="#E0E1DC"/>
<path d="M51.701 40.5447C50.4435 38.983 49.016 37.6481 47.5844 36.3917C47.5844 36.3917 47.5057 36.3875 47.4271 36.3833C47.4973 36.5444 47.7249 36.7139 47.7207 36.7923C47.6704 37.7335 49.9799 38.8009 48.9814 39.77C48.5514 38.9604 48.0385 38.2251 47.5256 37.4898C47.1029 38.0177 46.2911 38.4462 46.2492 39.2305C46.2198 39.7795 47.7648 38.9183 47.9955 40.5038L48.973 39.9268C49.7764 39.6552 50.004 39.8247 50.1068 40.8527C51.6716 41.0937 50.8263 42.1496 51.1074 42.7939C51.1735 43.0334 51.1651 43.1903 51.1525 43.4256C51.314 43.3556 51.4011 43.2029 51.5584 43.2113C52.8254 43.1218 50.6616 40.8037 51.701 40.5447Z" fill="#E0E1DC"/>
<path d="M52.7552 53.4956C52.7552 53.4956 52.3619 53.4746 52.2004 53.5446C52.601 54.9031 53.4044 54.6315 54.0914 55.0615L55.3122 55.8347L51.5689 56.4997C51.4116 56.4913 51.2543 56.4828 51.1011 56.396L51.2375 56.7966L53.246 62.0165L54.4931 54.9257L54.5057 54.6904C53.7526 54.0209 53.0646 55.0852 52.7552 53.4956Z" fill="#E0E1DC"/>
<path d="M54.5194 49.8936C54.4197 50.2818 53.7732 50.562 53.5538 50.2355L53.2789 52.4245C53.5853 52.5983 54.194 53.0244 54.2811 52.8717C54.4637 52.4092 54.4144 51.8556 54.5194 49.8936Z" fill="#E0E1DC"/>
<path d="M47.7007 9.33898C46.4035 9.97794 46.0225 9.72144 46.4171 8.24713C46.5956 7.86314 46.3762 7.53658 46.3972 7.14418C46.2314 7.29272 46.0656 7.44126 45.9039 7.51132C44.1796 8.75708 46.3174 8.63533 45.6415 9.46494C46.1967 9.41593 45.0853 11.0093 46.1421 10.4362C46.6312 10.1475 47.2651 10.1027 47.5842 10.0411C47.771 9.50015 47.9284 9.50857 48.0155 9.35582C47.9326 9.43009 47.8581 9.3474 47.7007 9.33898Z" fill="#E0E1DC"/>
<path d="M14.0253 50.2429C14.1082 50.1686 14.1124 50.0901 14.1166 50.0116C13.997 49.2969 13.7115 48.7307 12.8992 49.1595C12.0827 49.6667 11.2241 50.9588 11.5306 51.1326C12.7522 51.9063 12.6337 49.6962 14.0253 50.2429Z" fill="#E0E1DC"/>
<path d="M52.4035 46.6367C52.3993 46.7152 52.6355 46.7278 52.71 46.8105L52.3133 45.3726L52.3175 45.2941L52.1894 44.7363C52.1191 44.5751 51.7256 44.5541 51.4978 44.3845C50.9584 45.6149 52.2881 45.8435 52.4035 46.6367Z" fill="#E0E1DC"/>
<path d="M7.47484 66.4884L5.66873 67.8076C5.40863 66.7712 5.22299 65.8174 3.78609 66.1338C2.55791 64.0231 1.28042 61.3591 1.8038 58.9488C1.81639 58.7135 2.06501 58.4909 2.06921 58.4125C1.67487 53.9867 8.02869 50.2366 10.6088 49.1948C13.533 47.6208 15.7145 48.1308 17.9339 47.9349C19.3624 47.7753 20.7374 47.141 21.9625 47.8358C22.1156 47.9226 22.2729 47.931 22.5089 47.9437L22.0202 48.2321L21.6142 48.4464C21.995 48.7027 22.3757 48.959 22.8351 49.2196C22.9138 49.2238 23.0711 49.2322 23.1539 49.158C23.7256 48.7953 24.2972 48.4326 25.1457 48.7926C25.2988 48.8795 25.6963 48.8221 26.0109 48.8389L26.806 48.7241L26.2637 48.5378C26.5123 48.3151 26.6864 48.0098 27.0881 47.874C27.4112 47.734 28.0404 47.7677 28.4338 47.7887C31.0789 48.4808 33.6129 48.3017 36.1133 48.7501C36.5066 48.7711 36.8087 49.0233 37.1978 49.1227C37.115 49.197 37.1023 49.4322 37.0237 49.428C36.7919 49.337 36.4856 49.1633 36.2496 49.1507C35.6245 49.0386 34.9953 49.0049 34.366 48.9712L35.355 49.6534C35.355 49.6534 35.6864 49.3565 35.7609 49.4391C37.0027 49.8202 38.1617 50.2755 39.2378 50.805C38.7081 50.3833 37.934 50.106 37.2261 50.0681C36.9901 50.0555 36.8905 50.4434 36.8034 50.5961C36.4227 50.3397 35.9759 49.8439 35.5532 50.3719C35.2092 50.9041 37.7128 52.7684 34.517 52.0469C34.6701 52.1337 34.819 52.299 34.9722 52.3858C37.998 53.3342 37.0552 51.7894 36.7992 50.6745C38.9231 50.7881 40.939 51.4465 41.7036 53.3752L43.8274 59.3879L41.7696 59.5138L41.5336 59.5011C41.5336 59.5011 41.1277 59.7154 41.1235 59.7938C40.9494 60.0991 40.6138 60.4744 40.6799 60.7139C40.7543 60.7966 41.6322 60.6076 42.1954 60.4017C41.3753 60.9871 40.3149 61.6383 39.5157 61.8315L39.1559 61.183C36.344 62.1337 34.8096 59.8493 32.9626 60.4584C32.8839 60.4542 33.0989 60.859 33.1776 60.8632C33.7198 61.0495 34.2705 61.0789 34.8998 61.1126C34.9784 61.1168 35.0487 61.2779 35.2018 61.3647C34.411 61.4011 33.616 61.5159 32.8336 61.3954C32.4444 61.2959 31.9892 60.9569 31.6085 60.7006C31.534 60.6179 31.5424 60.4611 31.468 60.3784C30.2461 61.0996 29.9943 59.9063 29.3902 59.4021C29.9325 59.5884 30.5492 59.8574 31.1785 59.891C31.8036 60.0031 33.4261 60.6405 32.6154 59.5746C32.4004 59.1698 30.8355 58.9288 30.0699 58.4946C29.6849 58.3167 28.9277 57.7256 29.0106 57.6514C29.4458 56.8881 30.4139 57.9624 31.1261 57.9219C31.1628 58.7104 32.0281 58.7567 32.7276 58.9514C31.8173 58.2735 31.0768 57.3686 30.2325 56.9302C28.5397 56.1317 28.1841 55.4048 28.8637 54.4973C28.9466 54.4231 28.6487 54.0926 28.4211 53.9231C28.3467 53.8404 28.032 53.8236 28.0278 53.902C27.9449 53.9763 28.0939 54.1415 28.0855 54.2984L27.9607 55.1569C27.6712 54.6695 27.3073 54.0995 26.7357 54.4621C26.4084 54.6806 26.4042 54.759 26.3507 54.2842L26.1735 53.1736C26.2144 53.8837 25.5851 53.85 24.96 53.7379C25.4896 54.1595 26.077 54.9775 26.5447 55.0812C28.7347 55.4343 27.8317 56.0939 27.6408 56.7129C25.9522 55.836 24.2594 55.0376 22.8193 53.938C22.0621 53.3469 21.3835 52.76 20.816 53.0443C20.0871 53.3986 21.159 54.0065 21.5355 54.3413C22.061 54.8413 22.8267 55.2755 23.5262 55.4703C24.8467 55.8555 26.0256 57.413 27.4751 56.8613L28.0624 57.6793L25.6113 57.7841C25.6983 57.6315 24.531 57.3331 25.4047 57.2225C24.0674 57.151 23.6416 56.263 22.8141 55.5108C22.0652 54.7629 20.2559 54.6661 19.2711 53.9055C18.5096 53.3928 19.3005 53.3565 19.8553 53.3075C20.0913 53.3202 18.9743 52.0806 20.2203 52.3832C20.3776 52.3916 20.6136 52.4042 20.622 52.2474L20.7888 50.6046L20.3 50.893C20.2214 50.8888 20.064 50.8804 20.0682 50.802C19.9938 50.7193 19.9277 50.4798 19.9277 50.4798C21.373 50.0066 20.471 49.1718 19.4117 48.3286C19.2628 48.1633 19.118 47.9196 18.9691 47.7543C19.2754 47.928 19.4988 48.1759 19.8092 48.2712C20.2728 48.4533 21.1171 48.8917 21.2042 48.7391C21.9625 47.8358 22.9221 49.0669 23.7832 49.1916C23.9405 49.2001 24.1388 49.9186 24.358 50.2449C23.7706 49.4269 23.8158 50.0586 23.6458 50.2855C21.9992 48.6243 22.5855 50.9366 21.6541 50.6508C21.6541 50.6508 21.5461 51.1956 21.5335 51.4309C21.8481 51.4478 22.3159 51.5515 22.403 51.3988C24.2468 49.3738 25.3795 51.794 26.7367 52.9678C26.9643 53.1372 27.1919 53.3067 27.4237 53.3978L27.5852 53.3278L26.8741 51.874C26.8039 51.7129 26.5762 51.5434 26.4273 51.3781L26.9119 51.1681C27.0608 51.3334 27.2884 51.5028 27.28 51.6597C27.2129 52.9146 30.5125 53.1698 29.406 54.6837L31.1408 54.6978L30.8429 54.3672C30.7642 54.363 30.6856 54.3588 30.6069 54.3546L31.0967 52.5718C31.3243 52.7413 31.5561 52.8323 31.705 52.9976C31.7795 53.0802 31.6096 53.3071 31.6012 53.464C33.6674 53.1812 33.2846 55.9136 35.2679 55.7051C35.3466 55.7093 35.4997 55.7962 35.657 55.8046C34.7571 57.8801 37.3131 55.8145 37.4327 56.5288C37.2628 56.7557 37.0929 56.9826 36.8443 57.2052C36.4342 57.4979 35.9454 57.7864 35.378 58.0707C36.086 58.1085 37.1044 58.2417 37.5187 57.8706C38.0861 57.5863 38.3557 56.9715 37.3541 56.5246C37.5491 55.8272 35.3791 56.5763 36.2203 55.5988C36.386 55.4503 37.5659 55.5134 37.5659 55.5134C38.1071 57.1941 39.2713 56.0766 39.5367 55.5402L39.5933 57.431L39.2042 57.3315C39.1255 57.3273 39.0426 57.4015 38.8853 57.3931C39.1129 57.5626 39.2618 57.7278 39.3321 57.8889L39.3217 55.1354C38.4648 54.9323 38.813 54.3217 38.6725 53.9996L38.7227 58.9575C38.4081 58.9407 38.0106 58.998 37.849 59.0681C37.6875 59.1381 37.3813 58.9644 37.1453 58.9518C37.9571 58.5233 35.2291 57.9054 36.8275 57.519C36.9062 57.5232 36.9188 57.2879 36.9188 57.2879C36.6167 57.0358 36.3105 56.8621 35.9255 56.6842C35.8511 56.6015 35.6895 56.6715 35.5322 56.6631C35.5406 56.5063 35.4745 56.2668 35.4787 56.1883C35.4829 56.1099 35.7976 56.1267 35.9507 56.2136C36.493 56.3999 36.9565 56.582 37.4988 56.7683C37.5072 56.6115 37.5197 56.3762 37.4411 56.372C36.7457 56.0988 35.5165 55.4825 35.3466 55.7093C34.0953 56.9795 33.1157 54.6461 32.2168 55.2273C31.4009 55.7342 30.2556 53.5493 29.7741 55.1753C29.7699 55.2537 29.6912 55.2495 29.6084 55.3237C29.2738 54.2047 28.0645 54.6905 27.2863 54.4916C25.8872 54.1021 24.5331 54.3443 23.5556 54.9213C22.8225 55.354 22.7816 54.6439 22.533 54.8666C22.2058 55.085 22.0316 55.3903 21.7789 55.6914L20.1238 54.1871C20.0493 54.1045 19.656 54.0834 19.5774 54.0792C19.2543 54.2192 19.0058 54.4419 18.8401 54.5903C18.7572 54.6646 18.9019 54.9083 18.9722 55.0693L17.4902 54.7541C17.6559 54.6057 17.9003 54.4614 17.9874 54.3088C18.0828 53.9993 18.0209 53.6813 18.0377 53.3676L17.3874 53.7261L16.9815 53.9403C17.2312 52.2233 15.4041 53.9346 14.3983 53.5662C13.0904 52.9456 10.6424 54.4664 10.0781 56.1666C9.98686 56.3977 9.65961 56.6162 9.41103 56.8388C9.24951 56.9089 9.00932 56.9747 8.76913 57.0405C9.22852 57.301 9.69209 57.4831 10.0728 57.7394C11.3639 58.6737 11.2517 59.297 10.8909 60.1429C10.8039 60.2955 10.0088 60.4103 9.60292 60.6245C11.0566 59.9944 9.91024 59.3038 10.3497 58.4622C9.88193 58.3585 9.27362 57.9327 9.02505 58.1553C8.37057 58.5922 7.69514 59.4213 7.88917 60.2182C7.95105 60.5362 8.97785 60.5124 9.5243 60.6203C10.463 62.2436 8.8866 60.7435 8.64642 60.8093C8.40204 60.9536 8.30656 61.2631 8.13664 61.4899L8.74497 61.9158C8.17756 62.2 7.68884 62.4885 7.19589 62.8554L8.38836 62.6832C8.78587 62.6258 9.10891 62.4858 9.50222 62.5069C9.65954 62.5153 9.87457 62.92 10.0938 63.2464L9.23687 63.0432C9.29456 63.4396 9.35225 63.836 9.48859 64.2365C9.62914 64.5587 10.2626 64.5139 10.5689 64.6876L8.43559 66.2252C8.05906 65.8905 7.69931 65.242 7.31019 65.1425C6.53615 64.8651 6.96617 65.6747 7.25565 66.1621L7.47484 66.4884ZM20.3357 53.1759C20.3231 53.4112 20.9398 53.6802 21.0929 53.767C21.0804 54.0023 21.1506 54.1634 21.1506 54.1634C23.3574 54.2028 25.2013 52.1777 27.4069 53.7115C27.5936 53.1709 28.1736 52.6514 28.0415 52.1724C27.8391 51.5323 26.2395 53.4131 26.1703 51.7576C25.9218 51.9803 25.5904 52.2772 25.4204 52.5041C25.3376 52.5783 25.4865 52.7436 25.5568 52.9046C25.2421 52.8878 24.8446 52.9452 24.6915 52.8584C24.5383 52.7715 24.3233 52.3667 24.4062 52.2925C25.3921 51.5587 23.9385 52.1888 24.1084 51.962C23.0354 52.8484 20.5318 50.9841 20.3357 53.1759ZM15.8582 49.8689C16.4005 50.0552 17.4399 49.7962 18.1646 49.5203C18.6492 49.3103 18.9103 48.8523 19.3246 48.4812C19.01 48.4644 18.7782 48.3733 18.0744 48.257C17.8259 48.4797 17.6517 48.785 17.399 49.0861C16.8032 48.425 16.6375 48.5734 16.4424 49.2709C16.3554 49.4235 15.1586 49.6741 15.8582 49.8689ZM11.5265 51.2102C12.7516 51.905 12.6331 49.6963 14.0238 50.2427C14.1067 50.1684 14.1109 50.09 14.115 50.0116C13.9955 49.2973 13.7102 48.7314 12.8984 49.1599C12.0824 49.6669 11.2203 51.0365 11.5265 51.2102Z" fill="#E0E1DC"/>
<path d="M68.2465 18.7773L68.5444 19.1078L66.5977 20.1049C66.2506 19.2211 65.4356 18.2336 66.1814 17.5656C66.1814 17.5656 66.1939 17.3304 66.1153 17.3261C66.0408 17.2435 65.9622 17.2393 65.8835 17.2351C65.6433 17.3009 65.2374 17.5151 65.1671 17.3541C64.65 16.6972 64.133 16.0403 63.6946 15.3876C63.5456 15.2223 63.6411 14.9128 63.6537 14.6775L62.4822 14.4575L63.3757 15.4492C63.9673 16.1887 64.5588 16.9283 65.0675 17.742C65.2123 17.9857 65.2699 18.3821 65.2573 18.6174C65.0706 19.158 64.8713 19.9339 63.9819 18.8638C63.8949 19.0164 63.725 19.2433 63.7995 19.3259L64.7297 21.1061L63.918 21.5346C63.7648 21.4477 63.6903 21.3651 63.5414 21.1998C63.318 20.9519 63.1985 20.2376 63.2897 20.0066C63.8121 19.0906 62.4957 18.6269 62.3762 17.9127C61.2791 17.7753 60.182 17.638 59.0808 17.5791C59.6062 18.0791 60.4547 18.4391 60.011 19.3592C60.0027 19.5161 60.1432 19.8382 60.2135 19.9993C60.2135 19.9993 60.0519 20.0693 59.9733 20.0651C59.7258 18.7934 58.1599 20.0467 58.5249 19.1224C59.0808 17.5791 57.5977 18.7582 57.5568 18.0481C57.4991 17.6518 57.3922 16.7022 56.444 16.7301C56.1294 16.7133 55.7444 16.5354 55.3595 16.3575C55.8031 15.4374 53.6583 15.7159 54.5037 14.6599C54.3505 14.5731 54.2719 14.5689 54.1229 14.4036L53.2996 13.573C53.4611 13.503 53.6227 13.433 53.7758 13.5198C53.9289 13.6067 54.0694 13.9288 54.0694 13.9288C54.9599 13.5045 56.0035 13.1671 56.9642 12.9039C57.2831 12.8423 57.6848 12.7064 57.7016 12.3927C57.7142 12.1574 57.3418 11.7442 57.1226 11.4179C56.7996 11.5579 56.3276 11.5327 56.315 11.768C55.6962 14.4878 54.2037 11.4191 53.2472 11.6039C53.007 11.6697 52.8581 11.5044 52.9199 11.8223C52.9818 12.1402 52.965 12.454 52.5056 12.1934C52.2738 12.1024 51.976 11.7718 51.9802 11.6934C52.0756 11.3839 52.2497 11.0786 52.4239 10.7733C52.1795 10.9175 51.9351 11.0617 51.8438 11.2928C51.5617 12.1429 51.1978 11.5729 51.0405 11.5645C50.9618 11.5603 50.8999 11.2423 50.9041 11.1639C51.0824 10.7802 51.3393 10.4006 51.7075 10.8922C52.3955 9.82789 53.2231 10.5801 53.8891 11.4022C53.8356 10.9274 53.8565 10.5353 53.7989 10.1389C53.1318 10.8111 52.7018 10.0016 52.1553 9.8937C52.0767 9.88949 52.0851 9.73263 52.0935 9.57577C53.1035 9.86576 52.1396 8.71304 52.7647 8.82513L52.6944 8.66406C52.5329 8.73408 52.3672 8.88252 52.2057 8.95254C52.127 8.94833 51.891 8.9357 51.8166 8.85306C51.7505 8.61356 51.6058 8.36986 51.6183 8.13457C51.6267 7.97771 51.7924 7.82927 51.8795 7.67661C51.6435 7.66399 51.3289 7.64716 51.1674 7.71717C49.5889 9.20582 51.7379 8.84886 52.019 9.49313C51.0583 9.75635 50.5118 9.64847 49.9203 8.90893C49.7011 8.58258 49.1505 8.55313 48.6869 8.37102L49.1169 9.18057L49.4525 8.80525L49.8164 9.3753C47.9034 9.74489 49.7158 11.2576 49.5994 11.9593L49.5952 12.0377C47.787 10.4466 49.5406 13.0573 48.518 13.0026C47.7974 13.2 48.0586 12.7421 48.067 12.5852C48.0838 12.2715 48.1792 11.962 48.2746 11.6525C47.4135 11.5277 46.4707 9.98287 45.4177 11.9716L45.3264 12.2026C45.5624 12.2153 45.8854 12.0752 45.9557 12.2363C46.1833 12.4058 46.6888 11.8036 46.5682 12.5837C46.4685 12.9716 45.4826 13.7054 46.5011 13.8386C47.2835 13.9591 46.9405 12.9969 47.2762 12.6216C47.359 12.5473 47.4419 12.4731 47.6034 12.4031C47.2426 13.249 48.1037 13.3737 48.3187 13.7785C49.2616 15.3234 48.5442 16.9367 48.5137 18.9801L47.252 17.4969L46.7308 16.9184C46.7182 17.1537 46.7885 17.3147 46.7759 17.55C46.7087 18.8049 46.8692 20.2293 46.7234 21.48C46.4863 22.9617 47.8435 24.1355 47.2834 25.7573C47.1009 26.2194 48.9626 28.2854 46.7569 26.7516C46.7527 26.83 46.7402 27.0653 46.8188 27.0695C48.7266 28.2728 46.6384 30.442 47.6642 31.9127C47.8131 32.078 47.7092 32.5443 47.7669 32.9407C47.7837 32.627 47.8792 32.3175 47.9704 32.0864L48.4266 30.931C48.5672 31.2531 48.5504 31.5668 48.6951 31.8105C48.7696 31.8932 49.0056 31.9058 49.0885 31.8316C49.25 31.7616 49.4115 31.6915 49.573 31.6215C49.4199 31.5347 49.3496 31.3736 49.1965 31.2868C49.122 31.2041 49.0517 31.0431 48.9815 30.882C49.0643 30.8078 49.2258 30.7378 49.3045 30.742C49.6108 30.9157 49.9957 31.0936 50.2149 31.4199C50.4341 31.7463 50.6449 32.2295 50.7771 32.7085C51.0907 34.2197 51.6319 35.9004 51.5605 37.2337C51.506 38.2533 51.3749 36.2799 50.8777 36.7252C50.7949 36.7994 50.6994 37.109 50.6952 37.1874C50.9019 37.749 51.0256 38.3849 51.6717 38.1048C51.9119 38.039 52.1437 38.1301 52.4584 38.1469C52.3545 38.6133 52.3167 39.3192 52.0724 39.4634C51.1819 39.8877 52.1762 38.997 51.8658 38.9018C49.3905 37.9828 50.1708 35.193 49.8122 33.0501C49.8163 32.9717 49.5888 32.8022 49.5888 32.8022C49.5017 32.9548 49.336 33.1033 49.3276 33.2602L47.6474 38.1255C47.639 38.2824 47.4774 38.3524 47.3159 38.4224C47.2414 38.3398 47.2456 38.2613 47.1711 38.1787L47.2425 36.8454C46.8282 37.2165 46.1821 37.4965 45.9954 38.0371C45.6881 39.3578 45.1217 38.1477 44.72 38.2835C44.6707 37.7303 44.6215 37.1771 44.6508 36.6281C44.6676 36.3144 44.7672 35.9264 44.8627 35.6169C44.6267 35.6043 44.2376 35.5048 44.1506 35.6575C44.0551 35.967 44.2659 36.4502 44.2449 36.8423C43.6387 39.3268 45.9492 38.8999 46.18 40.4853C46.2912 41.3565 46.0048 42.285 46.1947 43.1603C46.2482 43.6351 46.7694 44.2136 47.1543 44.3915C47.4648 44.4868 47.7302 43.9504 48.1361 43.7361C48.3805 43.5919 48.7035 43.4519 48.9437 43.3861C48.7737 43.6129 48.4381 43.9882 48.5126 44.0709C48.8765 44.6409 49.2447 45.1326 49.6086 45.7026L49.8981 46.19L49.509 46.0906L48.8094 45.8958C48.9541 46.1395 49.3307 46.4743 49.3181 46.7096C49.3789 48.5219 49.5184 50.3384 49.8981 52.0891L49.5834 52.0723C49.3726 51.5891 49.166 51.0274 49.0338 50.5484C48.9677 50.3089 49.1418 50.0037 49.0716 49.8426C48.4842 49.0246 47.9011 48.1282 47.3966 47.236L47.4459 47.7893C47.6232 48.8999 47.9577 50.019 48.2136 51.1338C48.544 52.3313 49.6946 52.9434 50.2704 52.5023C50.5148 52.3581 51.2018 52.7881 51.5783 53.1229C51.8059 53.2923 51.8636 53.6887 52.0041 54.0108C51.9957 54.1677 52.066 54.3288 52.2149 54.494C52.1446 54.333 52.0744 54.1719 52.0041 54.0108C51.9548 53.4576 52.9732 53.5908 52.9281 52.9591C52.9533 52.4885 52.3691 53.0865 52.1835 52.1327C51.9569 50.4689 53.4012 51.49 53.3645 50.7015C53.7494 50.8794 54.0514 51.1315 54.4364 51.3094C54.2381 50.5909 54.0399 49.8724 53.9245 49.0797L52.8065 49.3345C52.6041 48.6944 52.3765 48.5249 51.7597 48.256C49.9967 47.2965 51.8364 45.3499 50.7194 44.1103L51.808 44.4045C51.2773 45.4773 52.5233 45.7799 52.7173 46.5768C52.7132 46.6552 52.9491 46.6679 53.0236 46.7505L52.6272 45.3135C54.0662 47.9074 52.6009 47.2785 52.8652 48.2365C53.0309 48.088 53.2009 47.8612 53.354 47.948C53.5858 48.0391 53.9581 48.4522 54.041 48.378C54.5507 47.6974 53.9382 47.35 52.6272 45.3135L52.4992 44.7561C52.4289 44.595 52.0356 44.574 51.808 44.4045C51.9329 43.546 52.2769 43.0138 52.9764 43.2085C53.1296 43.2954 53.2533 43.9312 53.311 44.3276C53.7242 45.4509 54.6304 46.2072 54.4805 47.5363C54.3347 48.787 55.2566 50.724 55.1695 50.8767C54.5602 51.9452 55.2555 52.2184 55.8061 52.2479L48.8849 56.2823C48.5125 55.8691 48.1402 55.4559 48.244 54.9895C48.3437 54.6016 48.2944 54.0484 48.5388 53.9041C49.6946 52.9434 49.6274 54.1983 49.6558 55.1437C49.6516 55.2221 49.8047 55.309 49.8749 55.47L50.133 53.5961L50.3166 51.6396C50.4571 51.9617 50.6721 52.3665 50.8127 52.6886C50.8829 52.8497 50.713 53.0766 50.6259 53.2292C51.8803 53.375 51.3329 54.7615 51.5227 55.6368L53.9623 54.2729C53.8133 54.1076 53.6602 54.0208 53.4242 54.0082C53.3456 54.004 53.2585 54.1566 53.2585 54.1566L53.5438 54.7224L52.1604 55.5136C52.1069 55.0389 52.1362 54.4898 52.0041 54.0108C51.6737 52.8133 51.1032 51.6817 50.69 50.5584C50.5494 50.2363 50.5746 49.7657 50.6616 49.613C50.7487 49.4604 51.1294 49.7167 51.3654 49.7293C51.2741 49.9604 51.9317 50.9394 51.0832 50.5794C51.079 50.6579 51.0707 50.8147 51.0707 50.8147C51.2983 50.9842 51.5175 51.3106 51.7493 51.4016C51.8279 51.4058 52.0807 51.1047 52.0891 50.9479C51.7545 49.8288 51.3455 48.6271 50.8536 47.4996C49.9023 46.1116 49.6464 44.9967 50.3344 43.9324C50.0984 43.9198 49.9327 44.0682 49.7009 43.9772C47.7595 43.4014 48.0175 41.5275 47.1407 40.2221C46.9215 39.8957 46.6153 39.722 46.3132 39.4699C46.3006 39.7052 46.3709 39.8663 46.3583 40.1016L46.631 40.9027C46.0972 40.5595 45.5633 40.2163 45.1123 39.7989C44.9633 39.6337 45.0756 39.0104 45.2497 38.7051C45.5109 38.2472 46.0741 38.0413 46.1779 37.575C46.2734 37.2655 45.5989 36.6001 45.3137 36.0343C45.2308 36.1085 45.0651 36.257 45.0651 36.257C45.2885 36.5049 45.5119 36.7528 45.6567 36.9965C45.7311 37.0791 45.6357 37.3887 45.557 37.3844C45.1595 37.4418 44.6833 37.495 44.2072 37.5482C44.5218 37.565 44.8323 37.6603 45.1427 37.7556C45.2214 37.7598 45.3535 38.2388 45.2749 38.2346C44.7033 38.5972 44.1274 39.0384 43.4813 39.3184C43.4027 39.3142 43.1006 39.0621 42.9517 38.8968L43.3398 40.4907C43.4268 40.338 43.5222 40.0285 43.6796 40.0369C43.9984 39.9753 44.4002 39.8395 44.7064 40.0132C45.9314 40.708 44.6068 40.4011 44.59 40.7149C44.7337 42.4529 46.5628 43.652 47.1051 43.8383C50.1226 44.9436 47.2697 45.1842 47.4763 45.7459C48.0008 47.7403 46.2712 46.1533 45.9975 46.8466L45.8443 46.7597L45.8202 45.7359C45.8244 45.6575 45.8286 45.5791 45.9073 45.5833C46.2303 45.4432 46.159 46.7765 46.5943 46.0133C46.8554 45.5553 46.7401 44.7626 46.695 44.131L45.4196 44.3774C44.3057 44.5537 45.8622 44.9516 45.5266 45.3269C45.1909 45.7023 45.0829 46.2471 44.8217 46.705C44.3917 45.8955 43.3534 44.6601 43.4404 44.5074C44.4557 43.2246 43.0482 42.992 42.3738 42.3267C41.6994 41.6614 39.8157 41.482 40.7649 39.9597L40.0443 40.1571C39.6227 39.1907 39.0564 37.9805 38.2645 39.5113C37.9624 39.2591 37.4988 39.077 37.2796 38.7507C37.1349 38.507 37.2345 38.119 37.2471 37.8838C37.2933 37.021 37.1779 36.2283 35.8616 35.7646C35.7085 35.6778 35.568 35.3556 35.4232 35.1119C35.5805 35.1203 35.6634 35.0461 35.8207 35.0545L36.665 35.493L35.6928 34.4971C35.8837 33.8781 34.087 33.546 34.8369 32.7996C34.6051 32.7085 34.3775 32.539 34.0671 32.4438C31.4135 31.9085 35.2502 33.9228 33.8384 33.7687L35.6141 34.4929C35.1421 34.4677 34.1982 34.4172 34.2024 34.3387C33.7723 33.5292 32.0586 33.1229 32.6763 31.8974C32.8546 31.5137 32.4991 30.7868 32.3753 30.1509C32.1351 30.2167 31.8121 30.3568 31.5803 30.2657C30.6531 29.9015 29.6431 29.6115 28.8817 29.0988C27.5119 28.1604 29.5194 28.9756 29.2257 28.5667C28.932 28.1577 28.4149 27.5008 28.0258 27.4013C26.7798 27.0987 25.7614 26.9656 25.6754 25.6238C25.6796 25.5454 25.3691 25.4501 25.1373 25.3591C24.6696 25.2554 23.713 25.4402 23.9039 24.8212C24.2238 23.2652 23.1383 24.3869 22.7492 24.2875C21.4287 23.9022 22.8037 23.2679 22.3569 22.772C22.2037 22.6852 22.2121 22.5283 22.0632 22.3631C21.5115 23.828 17.8889 23.7128 18.1815 25.6162C18.235 26.091 17.891 26.6232 17.7871 27.0896C17.1746 26.7422 16.7729 26.878 16.0272 27.546C15.5132 28.305 16.238 28.0292 16.2338 28.1076C16.3659 28.5866 16.6638 28.9172 16.9575 29.3261L16.3072 29.6846C15.9013 29.8989 15.6443 30.2784 15.3087 30.6537C15.4125 30.1874 15.5206 29.6426 15.6202 29.2546C15.6286 29.0978 15.3266 28.8456 15.1776 28.6804C15.1032 28.5977 14.8545 28.8204 14.693 28.8904C12.9331 29.3468 13.9757 30.5038 13.9337 31.2881C13.9295 31.3665 13.8466 31.4407 13.7679 31.4365L12.911 31.2334C12.911 31.2334 12.9278 30.9196 13.0149 30.767C13.1806 30.6185 13.425 30.4743 13.5907 30.3259C13.5121 30.3217 13.3589 30.2348 13.2761 30.309C12.9488 30.5275 12.6174 30.8244 12.3604 31.2039C12.5093 31.3692 12.6583 31.5345 12.8114 31.6213C13.2708 31.8818 13.7302 32.1424 14.1896 32.4029C13.1911 33.372 15.1943 34.2657 13.8025 35.2138C12.9656 36.1129 14.6343 35.8875 14.3647 36.5023C14.5965 36.5934 14.8283 36.6844 15.1387 36.7797C14.6626 36.8329 14.1864 36.8861 13.6358 36.8566L13.0852 36.8271L13.1428 37.2235C13.8057 36.6297 14.3637 37.9967 14.4549 37.7656C15.1765 36.0738 15.8006 37.6803 16.024 37.9282C17.12 39.5599 18.6796 41.3738 20.4049 43.0392C20.558 43.126 20.6283 43.2871 20.6986 43.4482C20.5454 43.3613 20.3881 43.3529 20.235 43.266L19.246 42.5839C19.3907 42.8276 19.4484 43.224 19.6802 43.315C20.2885 43.7408 20.9797 44.0924 21.5964 44.3614C21.5964 44.3614 21.6876 44.1303 21.7705 44.0561C21.9152 44.2998 22.2131 44.6303 22.2833 44.7914C22.3201 45.5799 23.028 45.6178 23.4874 45.8783L24.187 46.0731C24.2656 46.0773 24.2531 46.3126 24.2447 46.4694C22.7585 46.2326 24.0611 48.426 23.6185 47.8517C22.5844 46.5379 21.33 46.3922 20.4028 46.0279C19.1694 45.49 17.7451 45.5711 17.5228 43.8288L16.7319 43.8652C17.787 44.7868 15.0716 43.9337 16.5903 45.0374C16.5903 45.0374 16.5861 45.1159 16.6606 45.1985C16.4288 45.1074 16.11 45.169 15.961 45.0038C15.3569 44.4995 14.9143 43.9253 14.393 43.3468C14.2483 43.1031 14.3479 42.7151 14.199 42.5499C13.061 41.7024 11.9272 40.7766 10.9634 39.6239C10.8144 39.4586 10.5868 39.2891 10.5952 39.1322C10.4798 38.3395 10.2984 37.3073 9.66491 37.3521C9.11008 37.401 9.61038 38.3717 9.89146 39.0159C9.96174 39.177 10.0152 39.6518 9.8537 39.7218C9.44361 40.0145 8.65696 39.9724 9.94387 40.9851C9.67851 41.5215 9.67433 41.5999 10.5061 42.2737C11.4909 43.0342 13.5403 43.0652 13.4973 45.3439C13.4931 45.4223 13.7994 45.596 13.9525 45.6829L15.5457 46.8693C15.0779 46.7656 14.1549 46.3229 14.1465 46.4798C13.7773 47.4825 14.8461 46.6745 15.2058 47.323C15.9914 48.8595 15.3705 48.6689 14.2283 47.8999C12.7379 47.7416 13.8319 46.463 12.7516 46.0119C12.1349 45.7429 11.5349 45.1603 10.8479 44.7302C10.6948 44.6434 10.5291 44.7918 10.3676 44.8619L10.4336 45.1013C12.0352 46.1309 12.6845 47.2668 13.2382 48.7122C12.3142 49.7639 12.0006 48.2527 11.4835 47.5958C9.63443 45.2946 7.57032 42.5885 6.81099 39.0871C6.36944 37.0185 8.13466 40.8883 7.92071 38.9892C7.96161 39.6992 8.00665 40.3309 8.13041 40.9667C8.47863 40.3561 9.12893 39.9977 9.17089 39.2134C9.20026 38.6643 8.55105 37.5284 8.28675 36.5705C8.08747 37.3463 7.88399 38.2007 7.83784 39.0634C7.28825 37.5396 6.98301 35.8715 7.07532 34.146C7.0879 33.9107 6.79006 33.5802 6.64951 33.258C6.22789 32.2916 5.65315 31.2384 5.4801 30.0493C5.35634 29.4134 5.54303 28.8728 6.10206 28.7454C6.21848 28.0438 6.41776 27.2679 7.04287 27.38C7.12153 27.3842 7.28306 27.3142 7.36173 27.3184C7.37012 27.1615 7.46556 26.852 7.3911 26.7694C7.24636 26.5257 7.01457 26.4346 6.86563 26.2693L8.52174 26.2793L8.99788 26.2261C9.09333 25.9166 9.19298 25.5286 9.36708 25.2233C9.20976 25.2149 9.04822 25.2849 8.96955 25.2807L7.80645 24.9039C9.02414 24.2611 8.91297 23.39 9.34824 22.6267C8.83011 23.4642 11.4522 21.6381 9.77405 23.5147C9.69119 23.5889 9.84009 23.7542 9.91036 23.9153C10.2418 23.6184 10.5774 23.2431 10.8302 22.942C12.7611 20.7643 15.7063 18.7982 19.0311 18.5827C20.3725 18.5759 21.5766 19.6628 22.4785 20.4976C21.9279 20.4681 21.3773 20.4387 20.9053 20.4134C20.5949 20.3181 20.533 20.0002 20.2309 19.7481C19.9991 19.657 19.5272 19.6318 19.2125 19.615L19.9194 21.1472C20.1596 21.0814 20.3998 21.0156 20.6358 21.0282C21.2735 20.905 21.8241 20.9345 22.3706 21.0424C22.9212 21.0718 23.5421 21.2624 23.9354 21.2834C24.25 21.3002 24.4242 20.9949 24.6728 20.7723C24.1221 20.7428 24.1022 19.6406 23.1246 20.2175C23.1246 20.2175 22.5824 20.0312 22.5866 19.9528C22.682 19.6433 22.8687 19.1027 23.1834 19.1195C24.2102 19.0958 25.1416 19.3816 26.0687 19.7458C27.6913 20.3832 28.6384 21.8496 30.4644 21.6327C30.4644 21.6327 31.2049 22.5375 31.573 23.0291C31.2626 22.9338 30.7245 22.6691 30.563 22.7391C29.9127 23.0976 29.4155 23.5429 28.8397 23.9841C28.997 23.9925 29.0757 23.9967 29.2331 24.0051C29.9368 24.1214 30.7109 24.3988 31.4849 24.6761C31.638 24.763 31.8782 24.6972 32.0355 24.7056L32.2873 25.8989C32.0555 25.8078 31.9023 25.721 31.6663 25.7084L31.1943 25.6831C31.3433 25.8484 31.4838 26.1705 31.6412 26.1789C33.9801 26.6973 34.3513 28.6049 35.3813 29.9971C35.4558 30.0798 35.6047 30.245 35.6792 30.3277C35.7578 30.3319 35.8407 30.2577 35.9193 30.2619C36.3084 30.3613 36.706 30.304 37.008 30.5561C38.1418 31.4819 39.0102 32.9442 40.6003 32.7146C40.0003 32.1319 39.479 31.5535 38.8749 31.0492C38.4197 30.7103 37.9603 30.4497 37.5009 30.1892C37.8408 29.7354 37.8083 28.8685 38.8183 29.1585L38.7019 29.8602C38.9463 29.7159 39.9185 30.7118 39.5839 29.5927C39.4476 29.1922 39.9364 28.9037 40.1891 28.6026C39.9489 28.6684 39.5389 28.9611 39.3857 28.8742C38.2478 28.0268 38.682 28.7579 38.8183 29.1585C37.7632 28.2368 36.8674 30.2339 35.5606 28.119C35.0519 27.3053 33.7441 26.6847 32.755 26.0026C33.3518 25.1693 34.0545 26.78 34.4604 26.5657C34.7835 26.4257 34.5936 25.5503 34.9082 25.5672C35.4631 25.5182 35.2942 24.2507 36.4154 25.4118C36.0924 25.5519 35.5334 25.6793 35.5292 25.7577L37.3489 28.608L38.0369 27.5436C38.0369 27.5436 37.7348 27.2915 37.5859 27.1262C36.9902 26.4651 37.1685 26.0814 37.7978 26.115C38.0338 26.1276 38.5257 27.2551 38.8361 27.3504C40.7775 27.9262 40.6191 29.4121 41.3554 30.3954C41.5746 30.7217 41.9595 30.8996 42.2616 31.1518C42.1955 30.9123 42.2868 30.6812 42.1421 30.4375C41.9313 29.9543 41.6376 29.5453 41.3481 29.0579C41.882 29.401 42.8049 29.8437 42.9455 30.1658C43.1479 30.8059 42.957 31.4249 42.849 31.9697C42.5668 32.8198 42.1357 33.5047 41.8578 34.2763C41.7707 34.429 42.2878 35.0859 42.4452 35.0943C43.4552 35.3843 43.2653 34.5089 43.2947 33.9599C44.2051 34.6379 45.0326 35.39 45.9388 36.1464C46.2408 36.3985 46.9236 36.907 47.0065 36.8327C47.3505 36.3006 47.5372 35.76 47.8068 35.1452L46.4905 34.6815L46.0227 34.5778C46.0311 34.4209 45.9734 34.0246 46.0521 34.0288C46.5985 34.1367 47.3893 34.1003 47.7617 34.5135C50.0827 36.84 52.5359 39.6455 53.4033 42.6021C53.9445 44.2828 54.9829 45.5182 55.0605 47.0168C56.9735 46.6472 55.3856 49.7871 56.7973 49.9413C55.6583 50.5882 56.8329 52.2241 56.6169 53.3138C56.513 53.7801 56.4921 54.1723 56.5581 54.4118L58.2247 68.9734L50.1256 58.1577C49.3894 57.1745 48.8093 57.694 48.1633 57.9741C48.0017 58.0441 47.5549 57.5482 47.2487 57.3746C47.3315 57.3003 47.4144 57.2261 47.4973 57.1519C47.5015 57.0735 47.5183 56.7597 47.5183 56.7597C44.936 54.8912 44.719 51.5761 43.4121 49.4612C43.3418 49.3001 43.69 48.6895 43.8683 48.3057C43.9554 48.1531 44.1169 48.0831 44.1253 47.9262C44.1295 47.8478 43.989 47.5257 43.9145 47.443C43.84 47.3604 43.6785 47.4304 43.517 47.5004L42.7964 47.6978C42.8048 47.541 42.7387 47.3015 42.7387 47.3015C43.4509 47.2609 41.821 45.286 43.1373 45.7497C43.216 45.7539 43.3859 45.527 43.4729 45.3744C42.3182 44.8407 43.1677 43.7063 42.8164 42.901L42.5427 43.5942L42.2479 44.6796C42.0413 44.118 41.7518 43.6306 41.7025 43.0773C41.5872 42.2846 41.6291 41.5003 41.7455 40.7987C41.9574 39.7875 43.1909 40.3254 43.1132 38.8268C43.1258 38.5915 42.9108 38.1867 42.7619 38.0215C42.6129 37.8562 42.2154 37.9136 42.2154 37.9136C42.0822 38.929 41.5893 39.2959 41.0302 39.4233C41.0428 39.188 40.9065 38.7874 40.9893 38.7132C41.5735 38.1152 41.7938 36.9472 42.8825 37.2414C44.8239 37.8172 42.4913 34.2316 43.9984 34.0762C44.2344 34.0889 44.2932 32.9908 44.4799 32.4502C43.8202 34.46 41.5956 30.3296 41.2537 33.7721C41.2411 34.0074 40.8436 34.0648 40.6778 34.2132L40.2153 32.5367C40.2856 32.6978 40.4261 33.0199 40.509 32.9457C41.3995 32.5214 40.0832 32.0577 40.4146 31.7608C40.4975 31.6866 40.6548 31.695 40.8163 31.625C39.393 30.2117 39.9164 27.8014 39.5494 25.8154C39.2358 24.3042 39.6469 22.5172 39.735 20.8701C39.7518 20.5564 38.9819 20.2006 38.8498 19.7216C38.7176 19.2426 38.9127 18.5452 39.025 17.9219C39.091 18.1614 39.3144 18.4094 39.3103 18.4878C39.2977 18.7231 39.0575 18.7889 38.9662 19.02L39.111 19.2637C39.5998 18.9752 40.0843 18.7652 40.4986 18.394C40.5856 18.2414 40.7105 17.3829 40.5615 17.2176C39.6144 15.7511 41.0681 15.121 41.2055 14.0272C41.2139 13.8703 41.7687 13.8214 42.0876 13.7598C41.5411 13.6519 40.9244 13.3829 40.3654 13.5103C40.1252 13.5761 39.9134 14.5873 39.8011 15.2105C39.6427 16.6965 39.3606 17.5466 38.3956 17.8883C38.5991 17.034 38.7984 16.2581 38.9191 15.478C39.2809 13.1377 39.7172 10.8801 40.0172 8.22184C40.0256 8.06498 40.2784 7.76389 40.3696 7.53281C42.139 5.42513 44.5492 4.61021 47.4818 2.87938C48.6984 3.73102 49.9906 3.1709 51.5848 2.86292C53.2535 2.63757 54.9013 2.80437 55.1572 3.91923C55.2232 4.15872 54.188 4.3393 53.5545 4.38407C52.5277 4.40779 50.5527 4.45945 51.2271 5.12477C51.6781 5.54217 53.4706 5.95267 54.3023 6.62641C54.5299 6.79589 54.7617 6.88694 55.068 7.06063L54.8939 7.36594C54.6621 7.27489 54.5173 7.03118 54.2813 7.01855C53.9709 6.92329 53.4202 6.89383 53.4161 6.97226C53.3164 7.36021 53.3699 7.835 53.266 8.30137C53.4234 8.30978 53.7339 8.40505 53.7339 8.40505C53.7465 8.16976 53.7632 7.85604 53.6971 7.61654C53.7013 7.53811 53.6269 7.45547 53.5566 7.2944C53.8671 7.38967 54.0988 7.48072 54.4093 7.57598C55.1046 7.84914 55.7172 8.19653 56.3255 8.62235C55.2001 7.53963 56.7859 7.3885 56.422 6.81845C55.7686 5.76099 59.192 6.65202 56.4483 4.85349C56.8416 4.87453 57.3136 4.89978 57.624 4.99505C57.7027 4.99925 58.0047 5.25138 58.0005 5.32981C58.2029 5.96987 58.3225 6.68416 58.3718 7.23738C58.3634 7.39424 57.9617 7.53006 58.032 7.69113C58.1725 8.01326 58.5323 8.66174 58.6854 8.74859C59.9356 8.97278 61.2603 9.27961 60.3153 10.7235C60.696 10.9798 61.2424 11.0877 61.5361 11.4967C62.2807 12.3231 62.5325 13.5164 63.7785 13.819C63.7659 14.0543 63.5876 14.438 63.6621 14.5206C64.2662 15.0249 64.8661 15.6076 65.4084 15.7939C65.7188 15.8891 65.9884 15.2743 66.1709 14.8122C66.2621 14.5811 66.0471 14.1763 65.9852 13.8584C66.6512 14.6806 67.2386 15.4985 67.8217 16.3949C67.8217 16.3949 67.7347 16.5476 67.6476 16.7002C67.4735 17.0055 66.5757 16.0923 66.9932 17.1371C68.3472 16.895 67.7252 18.1988 68.2465 18.7773ZM41.0019 38.4779C40.7208 37.8336 40.6055 37.0409 40.08 36.5409C39.1036 35.6234 39.8146 37.0773 39.3469 36.9736C39.6363 37.461 39.8472 37.9442 40.2195 38.3574C40.2898 38.5185 40.7659 38.4653 41.0019 38.4779ZM51.699 40.5446C50.4414 38.9829 49.014 37.648 47.5823 36.3916C47.5823 36.3916 47.5037 36.3874 47.425 36.3832C47.4953 36.5443 47.7229 36.7138 47.7187 36.7922C47.6683 37.7334 49.9779 38.8008 48.9794 39.7699C48.5493 38.9603 48.0364 38.225 47.5236 37.4896C47.1009 38.0176 46.2891 38.4461 46.2471 39.2304C46.2177 39.7794 47.7627 38.9182 47.9934 40.5037L48.971 39.9267C49.7744 39.6551 50.0019 39.8246 50.1047 40.8526C51.6696 41.0936 50.8243 42.1495 51.1053 42.7938C51.1714 43.0333 51.163 43.1902 51.1504 43.4255C51.3119 43.3554 51.399 43.2028 51.5563 43.2112C52.8233 43.1217 50.6596 40.8036 51.699 40.5446ZM54.2738 52.8738C54.4521 52.4901 54.407 51.8584 54.5119 49.8976C54.4122 50.2856 53.7661 50.5656 53.5469 50.2393L53.2722 52.4269C53.5784 52.6006 54.1909 52.948 54.2738 52.8738ZM51.0874 56.4001L51.2237 56.8007L53.2322 62.0207L54.4793 54.9298L54.4919 54.6945C53.7347 54.1034 53.0466 55.1678 52.6628 53.4955C52.6628 53.4955 52.2695 53.4745 52.108 53.5445C52.5086 54.903 53.312 54.6314 53.999 55.0614L55.2198 55.8346L51.4766 56.4996C51.4766 56.4996 51.2405 56.4869 51.0874 56.4001ZM43.3336 14.0624C41.5076 14.2793 40.7482 16.677 40.701 19.0341C40.6758 19.5047 40.9653 19.9921 41.0974 20.4711C41.1803 20.3969 41.2715 20.1658 41.3502 20.17C41.669 20.1084 42.0624 20.1294 42.377 20.1463C42.4557 20.1505 42.6707 20.5553 42.6623 20.7121C42.5459 21.4138 42.3466 22.1897 43.237 21.7654C43.8045 21.4811 44.3719 21.1969 44.2901 19.7767C42.6015 18.8998 42.8679 16.869 43.5276 14.8593C43.6189 14.6282 43.4123 14.0666 43.3336 14.0624ZM47.9988 9.43538C47.9202 9.43117 47.767 9.34432 47.6884 9.34011C46.392 9.97866 46.0113 9.72232 46.4057 8.24898C46.584 7.86525 46.3648 7.5389 46.3857 7.14675C46.22 7.2952 46.0543 7.44364 45.8928 7.51366C44.1696 8.7586 46.306 8.63693 45.6305 9.46599C46.1854 9.41702 45.0747 11.0093 46.1308 10.4366C46.6196 10.1481 47.2531 10.1034 47.5719 10.0418C47.7544 9.57961 47.9118 9.58803 47.9988 9.43538Z" fill="#E0E1DC"/>
<path d="M52.4017 45.3776L52.3221 45.289L52.4017 45.3776Z" fill="#E0E1DC"/>
<path d="M51.9866 54.6279C51.9164 54.4675 51.8462 54.307 51.776 54.1466C51.7718 54.2247 51.7634 54.3809 51.9866 54.6279Z" fill="#E0E1DC"/>
<path d="M22.7673 28.3736C24.1171 28.2098 25.2509 29.1357 26.1445 30.1273C26.5955 30.5447 27.4482 30.8263 28.1394 31.1779L29.4148 30.9315L28.1153 30.1541C26.7455 29.2156 25.3632 28.5124 23.9766 27.8877C23.5917 27.7098 23.2812 27.6145 22.8879 27.5935C22.5733 27.5766 22.3289 27.7209 22.0058 27.8609C22.3121 28.0346 22.5313 28.361 22.7673 28.3736Z" fill="#E0E1DC"/>
<path d="M34.0306 36.2159C34.1052 36.2986 34.2626 36.3071 34.42 36.3155C33.9855 35.5839 33.5511 34.8523 32.9675 33.9553C32.2633 33.8389 31.5591 33.7225 30.859 33.5277C31.4174 34.8955 32.8132 35.3638 34.0306 36.2159Z" fill="#E0E1DC"/>
<path d="M50.0896 11.8296C50.3803 10.822 50.6647 12.8836 50.7602 12.5739L50.7644 12.4954C51.2619 12.0498 50.8064 11.7106 50.8274 11.3182C50.5168 11.2228 50.1189 11.2803 49.7212 11.3377C49.7212 11.3377 49.7831 11.6558 49.7789 11.7343C50.0686 12.222 49.9941 12.1393 50.0896 11.8296Z" fill="#E0E1DC"/>
<path d="M18.5004 49.3889C18.8152 49.4058 19.0514 49.4184 19.362 49.5137C19.5195 49.5222 19.6643 49.766 19.8133 49.9314C19.2917 49.3526 18.853 48.6994 18.3314 48.1206C18.1079 47.8725 17.5485 48 17.1591 47.9005C17.3081 48.0659 17.5359 48.2355 17.9872 48.6531C17.8087 49.0371 17.771 49.7434 18.769 50.2691C18.9223 50.356 18.9842 50.6741 19.0503 50.9138C19.1164 51.1534 17.9777 50.3055 18.7187 51.2109C18.9422 51.4589 19.2529 51.5543 19.5593 51.7281C19.4974 51.4099 19.5887 51.1787 19.4481 50.8564C19.1584 50.3686 18.79 49.8767 18.5004 49.3889Z" fill="#E0E1DC"/>
<path d="M50.07 47.6102C49.2797 46.1512 48.7697 46.8322 48.4957 47.5259C48.4915 47.6044 49.2325 48.5098 49.6009 49.0018C49.8244 49.2498 50.218 49.2709 50.4499 49.362C50.4583 49.2051 50.4751 48.8911 50.4751 48.8911C49.4938 48.0516 50.3639 48.0194 50.4636 47.6312C50.3891 47.5485 50.1487 47.6144 50.07 47.6102Z" fill="#E0E1DC"/>
<path d="M48.0913 40.1174C47.2874 40.3892 48.1795 38.4692 47.2884 38.8938C46.9652 39.0339 46.6335 39.331 46.306 39.5496C47.1792 40.9343 48.0661 40.5882 49.4462 39.875C48.6507 39.9899 48.4104 40.0557 48.0913 40.1174Z" fill="#E0E1DC"/>
<path d="M11.0898 62.5171C11.2304 62.8395 11.3669 63.2403 11.5904 63.4884L12.2453 63.0512L12.1005 62.8073C12.0301 62.6461 12.0385 62.4892 12.0427 62.4107C12.196 62.4976 12.3534 62.506 12.4279 62.5887L12.577 62.7541L12.6599 62.6798C11.9441 61.3035 11.6943 63.0217 11.0898 62.5171Z" fill="#E0E1DC"/>
<path d="M31.8045 51.1941C31.4319 50.7806 31.0636 50.2887 30.6868 49.9537C30.4591 49.7841 29.9784 49.9158 29.6593 49.9774C30.0235 50.5479 30.3174 50.9571 30.3919 51.0398C32.197 52.7105 31.1129 50.8423 31.8045 51.1941Z" fill="#E0E1DC"/>
<path d="M16.5867 51.2473L15.1657 51.25C15.1531 51.4855 15.132 51.8779 15.2107 51.8821C15.9769 52.3166 16.7473 52.6726 17.4389 53.0244L16.8103 51.4954C16.8932 51.4211 16.6654 51.2515 16.5867 51.2473Z" fill="#E0E1DC"/>
<path d="M5.40175 33.0257C4.82871 34.884 5.59908 29.337 4.85915 32.8392C4.75525 33.3059 5.12359 33.7979 5.17292 34.3514C5.23064 34.7481 5.048 35.2105 5.02281 35.6814C5.45837 34.9177 6.1259 34.245 6.70629 33.7251L6.49535 33.2416C6.10598 33.1421 5.49306 32.7945 5.40175 33.0257Z" fill="#E0E1DC"/>
<path d="M46.794 49.795C46.8853 49.5638 46.9021 49.2499 47.0679 49.1013C47.8183 48.3544 45.9208 48.4103 46.5138 47.655C46.2608 47.9562 46.0908 48.1833 45.7507 48.6373C46.0488 48.9681 46.4214 49.3815 46.794 49.795Z" fill="#E0E1DC"/>
<path d="M49.3201 26.2572C48.2391 25.8058 49.021 27.4218 48.6106 27.7146C48.4941 28.4168 49.7336 27.3812 49.19 28.6901C49.19 28.6901 49.4838 29.0994 49.488 29.0209C50.7191 28.1423 48.7187 27.1695 49.3201 26.2572Z" fill="#E0E1DC"/>
<path d="M65.5915 14.0697C65.6083 13.7558 64.7057 12.9205 64.2628 12.3458L64.0382 13.5931C64.5147 13.5399 65.3501 15.6309 65.5915 14.0697Z" fill="#E0E1DC"/>
<path d="M15.2313 51.2595L14.5449 49.3339L13.7693 50.5517L15.2313 51.2595Z" fill="#E0E1DC"/>
<path d="M20.8235 55.9593L20.496 56.1779C21.1174 56.3686 21.7428 56.4808 22.3642 56.6714C22.6916 56.4528 23.1723 56.3211 23.102 56.1599C22.8627 54.7304 21.3283 56.8521 20.8235 55.9593Z" fill="#E0E1DC"/>
<path d="M59.8749 22.0279C59.9001 21.557 60.004 21.0903 59.7931 20.6068C59.6483 20.363 59.1015 20.255 58.7163 20.077C58.9272 20.5605 59.1382 21.044 59.3449 21.606L59.8749 22.0279Z" fill="#E0E1DC"/>
<path d="M17.6613 74.5161C17.8931 74.6072 18.2864 74.6282 18.5224 74.6409C18.5224 74.6409 18.535 74.4056 18.4605 74.3229C18.0011 74.0624 17.397 73.5582 17.0824 73.5413C15.6622 73.544 16.4657 73.2724 16.4867 72.8802C16.5947 72.3354 16.5496 71.7038 16.5832 71.0763L16.1437 71.918C14.7036 70.8185 14.2673 73.0761 12.6165 71.4934C13.4639 73.3477 16.13 73.6477 17.6613 74.5161Z" fill="#E0E1DC"/>
<path d="M12.7041 71.4905C12.94 71.5032 13.3334 71.5242 13.3418 71.3673C13.4372 71.0578 14.6171 71.1209 13.5536 70.3562C11.8199 68.8476 10.3096 67.587 8.40181 66.3838L8.17417 66.2143L7.43687 66.7254C8.90942 68.6919 10.8004 70.2089 12.7041 71.4905Z" fill="#E0E1DC"/>
<path d="M48.006 66.1425L48.1099 65.6758L48.2011 65.4446L48.2095 65.2876L48.2137 65.2091L50.4293 66.5869L50.6318 67.2274C50.7105 67.2316 50.7148 67.1531 50.7977 67.0789L47.5137 65.0142C47.5011 65.2497 47.4886 65.4851 47.5505 65.8033C47.6995 65.9687 47.9314 66.0598 48.006 66.1425Z" fill="#E0E1DC"/>
<path d="M50.2703 66.7423L50.5149 66.598L48.2993 65.2202L48.3781 65.2244L48.5313 65.3113C48.5313 65.3113 48.5313 65.3113 48.5355 65.2328L50.4445 66.4368C50.3658 66.4326 50.3532 66.668 50.2703 66.7423Z" fill="#E0E1DC"/>
<path d="M47.205 67.8315C47.0509 69.239 48.1731 68.9058 49.3248 68.0235L49.3909 68.263C48.1732 68.9058 46.8894 69.309 45.6801 69.7949C45.614 69.5554 42.5745 70.3367 45.4074 68.9938C45.5689 68.9238 45.7808 67.9126 44.861 68.8859C44.6952 69.0343 43.9914 68.918 43.5194 68.8928L42.4885 68.9949L43.7272 67.96C43.7272 67.96 44.0334 68.1337 44.1865 68.2206C44.2652 68.2248 44.5882 68.0847 44.6711 68.0105C44.8536 67.5484 44.9532 67.1604 45.0571 66.694C44.4812 67.1352 43.6611 67.7205 43.0527 67.2947C42.672 67.0384 42.7884 66.3367 42.6563 65.8577C41.5173 66.5047 40.1548 66.9037 39.1689 67.6375C38.8417 67.856 38.9361 69.0409 39.3871 69.4582C40.0615 70.1236 40.0405 70.5157 38.591 71.0674C38.1106 71.199 37.6302 71.3306 37.1499 71.4622L37.9701 70.8769L37.13 70.36C37.0513 70.3558 36.8153 70.3432 36.8153 70.3432L36.38 71.1064C36.2437 70.7059 35.9543 70.2185 36.0539 69.8305C36.0665 69.5952 36.8615 69.4805 37.1929 69.1836C37.4373 69.0393 37.5327 68.7298 37.6984 68.5814C37.4667 68.4903 37.2391 68.3208 36.9989 68.3866C34.6841 68.892 34.8414 68.9005 34.4848 69.6679C34.3065 70.0517 33.5073 70.2449 33.0185 70.5333C33.1968 70.1496 31.5774 70.9282 32.4889 70.1117C32.986 69.6664 30.7583 70.0192 32.1375 69.3064C32.3819 69.1622 32.5518 68.9353 32.7176 68.7868L30.9167 68.5332C30.838 68.529 30.7552 68.6032 30.7552 68.6032C31.2093 70.4366 29.7241 68.7054 29.1525 69.0681C28.6596 69.435 27.7199 69.306 27.0077 69.3466L27.6863 69.9335C28.6218 70.1408 29.6403 70.274 30.6545 70.4855C30.0168 70.6087 29.292 70.8846 28.7456 70.7767C26.9489 70.4446 27.9831 71.7584 27.7513 71.6674C26.9112 71.1505 26.3155 70.4894 25.6411 69.8241C25.0118 69.7904 24.3866 69.6783 23.8444 69.492C21.9901 68.7635 22.0582 71.9134 19.7823 70.2185C19.5547 70.049 18.9254 70.0154 18.5321 69.9943C18.1388 69.9733 17.5755 70.1791 17.2692 70.0054C16.7312 69.7407 16.446 69.1749 16.0736 68.7617C16.5246 69.1791 17.436 68.3626 17.5388 69.3906L19.2033 69.2437C19.2033 69.2437 19.1414 68.9258 19.0712 68.7647L18.0444 68.7884C17.9657 68.7842 17.8126 68.6974 17.8126 68.6974C17.8545 67.9131 15.652 67.7952 16.4187 66.7351L15.8429 67.1762C15.5114 67.4731 15.1842 67.6916 14.7783 67.9058C14.6955 67.98 14.4762 67.6537 14.3231 67.5668L14.3315 67.41L15.1265 67.2952C14.816 67.1999 14.4311 67.022 14.1165 67.0052C12.3733 67.1479 12.5726 66.372 13.0865 65.613C13.1736 65.4603 13.1862 65.225 13.2732 65.0724C13.1117 65.1424 12.7887 65.2824 12.7845 65.3609C12.9082 65.9967 11.4713 66.3131 12.7625 67.2474C11.8972 67.2011 11.1231 66.9237 10.2746 66.5637C10.1215 66.4769 9.85299 65.5973 10.0271 65.292C10.3711 64.7598 10.3837 64.5245 10.2347 64.3593L8.09727 65.9753L8.32485 66.1448C10.2327 67.348 11.8216 68.6128 13.4767 70.1172C14.5402 70.882 13.2816 70.8146 13.2648 71.1283C13.2606 71.2068 12.8673 71.1857 12.6272 71.2515L12.623 71.33C14.1951 72.9085 14.7101 70.6551 16.1502 71.7546L16.5896 70.9129C16.5561 71.5404 16.6054 72.0936 16.4931 72.7168C16.3977 73.0263 15.6687 73.3806 17.0888 73.3779C17.4035 73.3948 18.0076 73.899 18.467 74.1596C18.5415 74.2422 18.5289 74.4775 18.5289 74.4775C18.21 74.5391 17.8167 74.518 17.6678 74.3528C16.0578 73.4801 13.4746 73.1059 12.7016 71.3342L12.6272 71.2515C10.7235 69.9699 8.83247 68.4529 7.43858 66.4907L5.63247 67.8098C5.82231 68.6852 6.09503 69.4863 6.80299 69.5242C6.88165 69.5284 7.24137 70.1769 7.46058 70.5032C8.17273 70.4627 9.69457 72.9824 10.1634 71.5917C10.2505 71.439 10.5735 71.299 10.6522 71.3032C11.1116 71.5637 11.4881 71.8985 11.8604 72.3117C13.3047 73.3328 12.5621 75.4168 15.3855 75.7251C16.5655 75.7882 17.2693 75.9045 18.2709 76.3514C21.2013 77.6093 24.1496 77.0591 26.8451 76.8101C26.6961 76.6448 26.4686 76.4753 26.3196 76.31C26.2493 76.149 25.2477 75.7021 26.4277 75.7652C26.9783 75.7947 29.1693 74.6534 28.2075 76.411C29.1598 76.3047 30.108 76.2767 30.9859 76.0877C31.226 76.0219 31.1726 75.5471 31.3425 75.3203C31.5994 74.9407 31.8522 74.6397 32.1879 74.2643C32.1879 74.2643 32.3452 74.2727 32.4239 74.277L31.997 74.8834L32.4647 74.987C33.802 75.0586 35.5211 73.892 36.315 75.2717L36.4597 75.5154C36.7828 75.3753 37.2632 75.2437 37.5076 75.0995C38.7546 73.9077 39.7153 73.6445 41.0064 74.5788C41.5403 74.922 42.6541 74.7456 43.5194 74.7919C43.6065 74.6392 43.7722 74.4908 43.6978 74.4081C43.7062 74.2513 43.5572 74.086 43.3999 74.0776C43.1681 73.9865 42.8493 74.0481 42.6175 73.9571C43.2719 73.5202 43.9264 73.0832 44.5064 72.5637C44.5064 72.5637 44.8169 72.6589 44.8913 72.7416C45.8762 73.5022 46.5684 72.3594 47.2271 71.844C48.1302 71.1844 47.4096 71.3819 46.9418 71.2782C46.5527 71.1787 46.582 70.6297 46.5243 70.2333C46.4132 69.3622 47.4232 69.6522 47.8375 69.2811C49.652 67.8051 49.3772 69.9927 51.071 69.2968L50.3233 67.0544C49.4863 67.9535 48.4311 67.0318 47.205 67.8315Z" fill="#E0E1DC"/>
<path d="M45.0669 66.6956L45.8205 67.3655C46.7283 66.6271 47.6403 65.8101 48.3992 64.9062C48.4863 64.7534 48.4946 64.5965 48.5859 64.3652C48.3498 64.3526 47.9563 64.3316 47.8733 64.4058C46.9613 65.2228 46.0534 65.9613 45.0669 66.6956Z" fill="#E0E1DC"/>
<path d="M11.6847 63.8838C11.9083 64.1319 12.3848 64.0787 12.7783 64.0998C12.5548 63.8517 12.3355 63.5251 12.1907 63.2813L11.5357 63.7185L11.6847 63.8838Z" fill="#E0E1DC"/>
</svg>
