<svg width="94" height="95" viewBox="0 0 94 95" fill="none" xmlns="http://www.w3.org/2000/svg">
<path d="M46.0444 53.7539C45.4971 53.7146 45.9949 53.9308 46.2634 54.2571L46.0444 53.7539Z" fill="#224486"/>
<path d="M46.1913 54.2545L46.3635 54.6401C46.3675 54.4946 46.2888 54.373 46.1913 54.2545Z" fill="#224486"/>
<path d="M47.672 57.4072C47.0297 56.8473 46.9667 55.8092 46.269 55.6465C46.3783 56.4916 47.098 57.4525 47.672 57.4072Z" fill="#224486"/>
<path d="M47.3825 56.2014L47.0894 56.2516L47.8259 56.6669L47.3825 56.2014Z" fill="#224486"/>
<path d="M47.457 55.5553L47.4119 55.704L48.2165 56.5444L47.457 55.5553Z" fill="#224486"/>
<path d="M48.5374 59.9086L48.2129 59.1973C48.3422 58.3555 48.8698 59.4816 48.9573 58.9114C48.609 57.9573 48.0717 58.8866 47.7024 57.707C47.5558 57.829 47.7548 58.2709 47.9237 58.6915C48.0755 59.1151 48.1458 59.5261 47.8388 59.5346C47.9774 60.5509 48.1642 59.4789 48.5374 59.9086Z" fill="#224486"/>
<path d="M43.7724 54.0306C43.7821 53.9674 43.7719 53.9076 43.7733 53.8561C43.7121 53.9179 43.6824 53.9845 43.7724 54.0306Z" fill="#224486"/>
<path d="M54.4319 47.96C54.6208 48.0335 54.8039 48.0727 54.9869 48.1119C54.9409 48.0493 54.8678 47.9825 54.7804 47.9357L54.4319 47.96Z" fill="#224486"/>
<path d="M45.5585 62.3583C45.4646 62.5337 45.395 62.6961 45.3325 62.8485C45.424 62.762 45.5137 62.6138 45.5585 62.3583Z" fill="#224486"/>
<path d="M64.6061 39.5713C64.6256 39.5213 64.6419 39.4531 64.6189 39.373C64.6189 39.373 64.6008 39.3762 64.5901 39.3687L64.4941 39.5718L64.6061 39.5713Z" fill="#224486"/>
<path d="M69.3122 48.0436C69.5091 48.0358 69.6961 48.021 69.8608 47.9756C69.5409 47.97 69.3902 47.9958 69.3122 48.0436Z" fill="#224486"/>
<path d="M44.5659 67.0241C44.589 66.948 44.6047 66.8821 44.6132 66.8265C44.5769 66.8779 44.5291 66.9672 44.4915 67.0639L44.5659 67.0241Z" fill="#224486"/>
<path d="M49.2876 47.0741C49.63 47.1042 49.945 47.1302 50.1923 47.1234C49.8844 47.0873 49.5795 47.0685 49.2876 47.0741Z" fill="#224486"/>
<path d="M47.3487 71.2907C47.2108 71.4642 47.1716 71.6472 47.1667 71.8244C47.2991 71.7224 47.3856 71.5577 47.3487 71.2907Z" fill="#224486"/>
<path d="M45.3046 75.3508L45.3249 75.3221C45.2185 75.2899 45.2227 75.3144 45.3046 75.3508Z" fill="#224486"/>
<path d="M43.4032 77.7103L43.4296 77.6424C43.3515 77.6304 43.3167 77.6491 43.4032 77.7103Z" fill="#224486"/>
<path d="M47.0488 71.7606C46.6771 72.0093 45.9778 71.7852 46.5011 72.577L46.6352 72.5365C46.3574 72.7162 46.4111 73.2359 46.2796 73.5492C46.3681 73.5517 46.4395 73.5571 46.5151 73.5353C46.6045 73.3878 46.7394 73.1973 46.9552 72.9136C47.2739 72.6123 47.0436 72.1934 47.0488 71.7606Z" fill="#224486"/>
<path d="M43.8493 54.0326C43.6539 54.0986 44 54.6593 43.8493 54.0326V54.0326Z" fill="#224486"/>
<path d="M45.6454 58.3718C45.6604 58.234 45.6568 58.0995 45.6718 57.9618C45.638 58.1027 45.6119 58.2327 45.6454 58.3718Z" fill="#224486"/>
<path d="M42.3468 73.3731C42.3703 73.3399 42.3937 73.3068 42.4289 73.2571C42.3012 73.1916 42.2923 73.3096 42.3468 73.3731Z" fill="#224486"/>
<path d="M45.6523 57.6122L45.6493 57.9804C45.6671 57.8642 45.7033 57.7449 45.6523 57.6122Z" fill="#224486"/>
<path d="M43.9413 68.8372C43.9603 68.8104 43.9793 68.7836 43.9983 68.7568C43.9659 68.7741 43.9469 68.8009 43.9413 68.8372Z" fill="#224486"/>
<path d="M17.2059 41.6603C17.0387 41.8119 16.8488 41.6775 16.634 41.7054C16.5273 42.3649 17.4294 41.3234 17.1007 42.0208C17.2527 41.9333 17.3887 41.8046 17.5148 41.6689L17.0181 41.3323C16.7193 41.6908 17.3328 41.3751 17.2059 41.6603Z" fill="#224486"/>
<path d="M60.4534 39.854L60.5905 39.8479C60.4219 39.6696 60.4746 39.5743 59.959 39.6366C59.6688 40.1091 60.4794 40.3586 59.9046 40.9833C60.0273 40.8933 60.2424 40.8392 60.4534 40.8118C60.0513 40.6303 60.2229 40.2213 60.4534 39.854Z" fill="#224486"/>
<path d="M60.4548 40.8139C60.4646 40.8209 60.4744 40.8278 60.4842 40.8347C60.5332 40.8694 60.5794 40.8874 60.6354 40.9123C60.733 40.8784 60.8502 40.8583 60.9369 40.8607C60.8318 40.8011 60.6489 40.7893 60.4548 40.8139Z" fill="#224486"/>
<path d="M16.7973 45.3175C16.8337 45.4123 16.8749 45.476 16.908 45.5511C16.9204 45.3874 16.8629 45.3467 16.7973 45.3175Z" fill="#224486"/>
<path d="M68.491 54.463C68.3265 54.5186 68.162 54.5742 68.033 54.6238C68.2853 54.5989 68.4112 54.5316 68.491 54.463Z" fill="#224486"/>
<path d="M67.7625 38.0559C67.9002 38.0598 68.0244 38.0385 68.1591 38.0246C68.227 37.9947 68.295 37.9648 68.3911 37.9392L67.7625 38.0559Z" fill="#224486"/>
<path d="M45.9474 51.0357C46.0331 50.4053 45.764 51.1463 45.149 50.9964L44.759 51.4414C45.2263 51.3966 45.6002 51.1655 45.9474 51.0357Z" fill="#224486"/>
<path d="M17.5489 41.7442C17.543 41.7098 17.5228 41.6955 17.5312 41.641C17.5169 41.6611 17.5169 41.6611 17.4884 41.7014L17.5489 41.7442Z" fill="#224486"/>
<path d="M31.2118 54.823C31.1205 54.8034 31.0392 54.7909 30.9479 54.7713C30.9979 54.8068 31.0793 54.8193 31.2118 54.823Z" fill="#224486"/>
<path d="M63.3004 40.1337L65.0809 39.576L64.5198 39.611C64.3685 39.9509 63.44 39.7259 63.3004 40.1337Z" fill="#224486"/>
<path d="M49.3507 50.1231C48.7388 49.9904 48.397 49.6883 47.5232 50.2863C47.3899 50.4322 47.8518 50.8193 47.1432 50.7382L47.5489 49.9741C46.6304 50.1049 45.6827 50.4253 45.1194 50.9877L44.0547 51.2402L44.3213 50.9484C43.5069 51.1229 42.6487 51.0411 42.0759 51.7019C42.2825 51.3675 42.6316 50.6835 41.8744 50.8834L41.3177 51.3303C41.1976 51.2454 41.4772 50.9777 40.4504 51.4524C40.8077 51.6902 39.6203 51.9461 39.2567 51.5686C39.4707 51.9453 40.2076 51.9863 40.342 52.4118C39.1879 52.451 39.7226 53.5203 38.6352 53.4865L38.6817 53.0388C37.8515 53.1721 37.3115 53.5106 36.8085 53.8605L36.8419 53.6438C35.3119 53.7472 34.3926 54.3881 33.2305 53.8659L32.4412 54.2383C32.6412 54.0194 32.5382 53.9316 32.1519 53.8834C31.515 53.9132 30.5929 54.537 30.9585 54.7206C28.8023 54.3509 28.2392 55.2738 25.7505 55.1192C25.8554 54.6528 24.7493 54.9211 25.1893 54.5117L24.425 54.7216C24.5447 54.7012 24.4458 54.5861 24.4029 54.5407C24.1415 54.4008 24.0011 54.5567 23.8678 54.7026L23.9345 54.6297L22.8649 54.4433L22.7825 54.8355C22.5382 54.6926 22.2969 54.5668 22.0568 54.3969C22.6263 53.9741 23.7439 54.3897 23.9984 53.924C23.6545 53.8158 22.506 53.1681 21.388 53.6232C20.7231 53.4379 20.0437 53.1672 19.3914 52.9007C19.3717 52.6315 19.4839 52.8761 18.874 52.5496C18.3967 52.2267 18.278 52.4581 17.5856 52.1632C17.8294 52.2007 17.9478 52.2244 18.0445 52.1727C17.29 51.6686 16.9125 52.0322 16.1952 51.8999C16.6166 52.1531 17.0772 52.2238 17.4452 52.3191C17.4957 52.46 17.3773 52.4363 17.4061 52.5017L18.5098 52.6822C18.3723 52.8552 18.3527 52.586 18.8788 52.9884C18.2052 52.7519 18.0438 52.6828 17.2848 52.4609C16.778 52.5828 17.5484 53.1281 16.9712 53.0949C15.0116 52.3837 13.4482 51.0068 12.4416 49.5434C11.9041 48.8176 11.5759 48.0295 11.2706 47.2728C11.0065 46.5001 10.8366 45.7642 10.6879 44.9982C10.6378 44.6022 10.5735 44.2264 10.5475 43.8175C10.5428 43.3786 10.5027 42.9898 10.5463 42.5251C10.6235 41.5886 10.8303 40.6386 11.2997 39.7844C11.762 38.9403 12.4582 38.1265 13.2236 37.512C13.9649 36.9103 14.7408 36.4082 15.4996 35.9091C16.3748 35.988 18.2452 35.8702 18.7707 35.4462L18.5239 35.3916C19.2256 34.8671 19.8027 35.5158 20.3897 34.835L20.9862 34.0559C21.4222 34.034 22.4845 33.8699 22.3204 34.1442C22.6116 33.9449 23.1272 33.8742 23.5485 33.767C23.9857 33.701 24.3428 33.5784 24.3569 33.1978C25.1304 33.1446 25.7359 33.1377 26.3461 33.2092C26.9534 33.2636 27.539 33.2426 28.2717 33.3107C28.1721 33.3453 28.1497 33.4195 28.1497 33.4195C28.4444 33.7032 28.8948 33.0458 29.2571 33.4675C29.0254 33.6039 27.8579 33.5134 28.7841 33.8386C29.165 33.5976 29.8493 33.6915 30.4375 33.9426C31.0298 34.1666 31.5343 34.4936 31.6448 34.677C32.0112 34.711 32.3775 34.7451 32.7276 34.6324C33.2074 34.8669 33.6907 35.5845 32.9204 35.3997C34.3755 35.7839 34.1786 36.3804 34.7431 35.7738C36.5529 36.1237 37.086 37.4922 38.759 37.8655C40.6518 39.6257 42.4113 41.5319 42.9759 43.5985L43.2422 43.5617C42.6 43.6628 43.4608 45.3534 42.7143 45.0502C43.475 45.3334 43.8901 46.4231 44.0578 46.9924L43.6072 46.9288C43.2617 45.7832 43.3129 46.7505 42.6494 45.545C42.7695 45.63 42.8212 45.7267 42.8991 45.6166C42.3867 45.0887 41.5452 43.9224 40.9803 43.4475L41.305 43.3919C40.6594 42.3944 39.5881 42.7624 38.6734 42.145C38.3276 41.2544 38.9893 42.0381 39.2917 41.4412C38.3249 40.6217 37.3535 42.3972 37.2171 40.8289L37.4798 40.9247C36.3512 39.9306 38.1971 41.0569 37.5686 40.0564C36.5752 39.3383 36.5924 39.6958 36.5913 40.1005C36.5902 40.5052 36.6062 40.907 35.6724 40.4864C36.0687 40.1811 35.7522 39.822 35.4636 39.3174C35.1807 39.4625 34.6589 39.3935 34.1158 39.3545C33.5768 39.2884 32.9967 39.2382 32.6012 39.3938C32.7687 39.242 32.4193 38.8445 31.8128 38.6405C32.3121 38.4232 32.4943 38.7174 33.1855 39.0564C33.353 38.9047 33.7609 38.6678 33.5386 38.3453C32.6331 38.8607 30.6052 37.8007 29.8907 38.6616C30.249 38.4948 29.5321 38.1074 29.6178 37.8377C29.2299 38.0888 28.6409 37.9872 28.4375 38.0836L28.9344 38.3151C28.4634 38.1319 27.8849 38.143 27.3027 38.2865C26.7193 38.4743 26.1371 38.6179 25.5649 38.7685L25.5699 38.5918C25.1585 38.7061 24.806 38.9071 24.4505 39.0911C24.0909 39.3021 23.7284 39.496 23.2683 39.5308C23.6346 39.2043 23.1143 38.836 22.8741 38.6661C22.4943 38.1419 24.3591 37.3744 23.1617 37.2627C22.3687 37.7677 22.2302 38.7059 21.017 38.9134C20.8267 39.3945 21.7553 39.2708 22.0228 39.1898C21.3749 39.6172 19.4961 39.7892 19.2479 40.3944C19.6192 40.2518 19.8088 40.2809 19.8352 40.4346C19.7893 40.3721 18.9021 41.8166 18.4928 41.7371C18.5981 41.3762 18.4022 41.568 18.5871 41.1582C18.0299 41.1392 17.7945 41.4081 17.5662 41.667C17.2984 41.0269 18.6672 41.2149 18.3148 40.4398C17.3808 40.6347 16.9362 40.9658 16.6771 41.3531C16.5155 41.539 16.4722 41.7487 16.3818 41.94C16.3698 42.1267 16.3348 42.2822 16.3936 42.3688C16.2911 42.3864 16.317 42.4347 16.0978 42.4898C16.0778 42.4757 16.096 42.4286 15.9806 42.4219C15.6618 42.5116 15.6935 42.5942 15.7653 42.705C15.8011 42.7605 15.827 42.8088 15.8145 42.89C15.792 42.9642 15.7312 43.0714 15.6395 43.3069C16.2323 43.6363 16.6345 44.7019 16.8481 45.3337C16.7368 45.3 16.5264 45.4063 16.4021 45.3484C17.3249 46.5272 18.5011 46.6689 19.6597 47.6842L19.5901 47.7401C20.488 48.1053 21.3649 48.2454 22.522 48.5839C22.2269 48.5552 22.1007 48.6911 22.0598 48.8124C23.5988 49.4812 24.9694 48.7544 26.7958 48.9959C27.2932 49.3329 28.4146 49.0003 28.2535 49.6522C29.7976 49.5288 27.5894 48.9569 29.0768 48.9134L28.9343 48.9027C30.7742 48.2977 32.5539 48.6263 34.2921 47.8893C34.7443 48.0142 35.4663 48.2248 36.3548 48.0728C36.5939 47.6714 37.1598 47.3811 37.6486 47.0513C38.0945 47.0365 38.5446 46.9947 39.1668 46.8795C38.294 46.7122 39.6056 46.5142 39.8255 46.3095C39.5098 46.7768 40.1095 46.7357 39.3307 47.2207C41.0903 47.1747 40.0547 45.901 41.8309 45.7466L42.2687 46.1465C41.9152 46.1366 41.6657 46.4256 41.3327 46.5353C41.689 46.5623 42.8002 46.4777 43.2556 46.0041C43.4451 45.6727 41.8247 45.9675 43.1274 45.3577C43.236 46.0954 44.0504 44.9448 44.8863 45.4613C44.912 45.1491 45.4316 44.6909 46.0255 44.6157C46.1426 44.6836 46.0559 44.7423 46.0193 44.8365C47.097 44.6082 46.1674 44.1605 47.118 43.8572C47.3623 44 46.7394 44.6254 47.3037 44.6344C48.199 44.7274 47.7166 44.2208 48.6781 44.1355C48.3471 44.0514 48.4853 43.3682 48.9858 43.1068C49.1738 43.4351 49.3728 43.9814 48.5323 44.3626C49.0771 44.4629 49.9489 44.4193 49.326 45.0446C50.2556 44.1558 51.7608 43.5993 52.7541 42.6203C52.9984 42.7632 53.3826 42.6447 53.8635 42.4745C54.3601 41.985 54.3431 41.0118 54.9116 40.9937C55.0741 40.6581 54.6298 40.7342 54.5322 40.575L55.3193 40.0358C55.9549 40.0502 54.8741 40.8771 55.3363 41.009L56.2319 40.847C56.8723 40.3241 56.0821 40.1252 55.7707 39.9498C56.6872 40.0129 56.6211 39.2152 57.2738 39.2266C56.172 39.8284 58.1825 39.8098 56.7161 40.4388L57.3884 40.359C57.5835 40.6773 56.6747 41.0703 56.666 41.3795C57.6554 41.1487 57.7273 40.6439 58.6766 40.3848C58.6352 41.0162 57.554 40.7615 57.3492 41.5177C58.5899 41.4197 59.1965 40.6476 59.7226 41.05C59.2355 41.4412 58.2214 41.2189 58.1799 41.8504C58.5584 42.0582 59.0325 42.619 60.013 41.9764C60.2792 41.5792 59.5469 41.6165 59.0559 41.7796L59.0669 41.9976L58.8717 41.6793C59.4043 41.6057 60.0889 41.0841 60.6211 40.9051C60.7553 40.97 60.8879 40.9738 61.0146 40.9433C60.9987 40.9021 60.9687 40.8808 60.9286 40.8525C61.007 40.8478 61.0812 40.8704 61.1413 40.9129C61.7489 40.7122 62.3554 39.9401 63.0015 40.067L62.0277 40.5941C62.2145 40.9667 62.9534 40.8139 63.814 40.8073C64.51 40.6091 65.9973 40.2051 65.582 39.731L65.0687 39.9684C65.098 39.1631 66.5036 39.9779 66.0941 39.1774C65.9015 39.1312 65.7482 39.2629 65.5448 39.3592C65.9394 38.9928 65.7167 38.5648 64.889 38.6097L64.5075 39.3609C63.6655 39.0653 63.434 39.9226 62.5075 39.8525C62.4753 39.6645 62.2998 39.6154 62.4602 39.4737C63.2421 39.3663 64.2052 38.9817 64.5639 38.5598C63.6546 38.8473 64.4478 38.0872 63.9452 38.182C65.3242 37.7614 64.2846 37.2357 65.7803 36.7776L65.3729 37.4804C66.724 37.2053 66.517 36.4581 66.9565 35.9433C67.4692 35.8556 68.345 36.4004 69.0797 35.9142C70.2942 36.023 69.8163 35.2342 70.6826 34.9013C70.6649 35.4143 69.8344 35.8027 69.3439 36.0712C69.4152 36.0766 69.4665 36.0678 69.5248 36.0491C69.4765 36.0749 69.4281 36.1008 69.4227 36.1721C70.2184 36.2997 71.5929 34.8247 71.1944 35.9393C69.6619 36.1311 68.7492 37.2722 67.4045 38.0475C66.866 38.0868 66.3856 38.3624 66.0246 38.2571C65.991 38.7289 66.0712 39.1461 66.6606 39.3531C67.4043 38.663 67.0441 38.4081 68.1422 37.9388C68.9382 37.8114 69.8849 37.2801 70.5775 36.9594L70.3081 36.6185C71.1923 36.1331 73.0715 35.7061 72.883 35.2723C72.8172 35.5561 73.2519 35.5785 73.6486 35.3787L73.1861 35.8623C73.5192 36.1131 74.9316 35.8364 74.5659 36.2683C75.9424 35.9361 75.778 35.4893 77.2142 35.4547C78.3124 35.3459 78.5177 33.7192 80.5742 33.7631C80.9623 34.2331 79.1773 34.3362 80.0868 34.7697C81.9673 34.6591 82.4173 34.2567 83.2828 33.7129C82.6421 33.5148 83.2297 33.2999 83.2484 32.9977C83.5764 33.0647 83.9986 33.1684 84.3667 33.2637C84.0763 33.6739 83.7231 33.0484 83.1906 33.4825C83.4361 33.5812 83.7287 33.6982 84.0126 33.7639C84.161 33.8089 84.3164 33.8439 84.4961 33.8659C84.6657 33.8809 84.8854 33.9312 85.1893 34.0111C84.9901 34.0804 84.7608 34.1284 84.6016 34.2259C85.3353 34.5049 86.5601 34.3657 86.4457 34.9305C87.0342 34.9266 87.6586 34.978 88.2521 35.1579C89.2449 36.3862 89.8663 36.4206 90.5536 37.5077C90.5276 37.0989 90.3507 36.7334 90.2051 36.345L90.5459 37.0518C90.624 37.3023 90.6678 37.5586 90.7358 37.802C91.3013 38.7429 90.9004 36.657 91.5079 38.4085C90.731 37.3631 91.4389 40.2669 90.5978 40.1822C90.6913 39.3924 90.4658 37.9712 90.1313 38.3802C90.249 38.9141 90.0326 39.9624 89.564 40.6669C89.6931 40.5481 89.4501 41.6976 89.5231 41.7643C90.1619 41.5407 90.7249 41.2333 91.2903 40.8376C91.3596 41.0368 91.295 41.2764 91.1592 41.5107C90.9893 41.7508 90.7281 41.9714 90.4668 42.192C89.9485 42.606 89.423 43.03 89.3089 43.3398C89.5481 41.9622 89.0748 43.5645 88.815 43.1253C88.671 43.7743 88.5946 44.5612 88.3993 45.219C88.2241 45.8909 87.9976 46.5715 87.5185 47.1635L87.475 46.6521C87.1657 47.6196 86.8683 47.0637 86.3903 48.2271C86.2471 48.7265 87.081 47.4846 86.7683 48.3295C85.1293 50.2631 82.8913 51.7276 80.6564 52.5936C78.4103 53.4967 76.1836 53.948 74.1344 54.2546C74.1617 53.6432 72.3963 54.0155 71.6931 53.8632C71.3123 54.1043 71.6895 54.3563 72.0962 54.1636C71.2728 54.5419 70.8781 54.5479 70.0233 54.5886C69.6964 54.1169 68.9788 54.2397 68.3682 54.4233C68.6166 54.1785 68.273 53.8152 69.4054 54.0611C69.0999 53.9199 70.861 53.2142 69.2635 53.1797C67.7933 53.9412 66.0397 54.382 64.2396 54.2942C63.2313 54.1062 62.7479 54.3648 62.2848 54.0219L62.5689 53.8326C62.0496 53.6752 61.9255 53.9778 61.7538 54.1567C60.9198 54.0619 61.4148 53.5112 61.6989 53.3219C59.7567 53.3288 59.1956 54.0579 57.2095 53.8085C56.801 53.5794 57.2093 53.0875 56.2986 53.0587C54.8366 53.045 53.5116 53.1134 52.2151 53.1418C51.8987 53.1431 51.5653 53.1474 51.2318 53.1517L50.7559 53.1451L50.552 53.136C50.2941 53.1186 50.0302 53.067 49.6622 52.9717C49.4621 52.8301 49.2349 52.6843 48.9735 52.5444C49.0316 52.7807 49.1408 53.0082 49.2943 53.2369C48.9975 53.147 48.6794 53.0871 48.3673 53.0614L48.1264 53.041C48.1022 53.0539 48.128 53.1023 48.131 53.1194C48.1497 53.1777 48.1715 53.2531 48.2032 53.3356C48.2607 53.4665 48.3312 53.6215 48.3733 53.8165C48.4255 54.0187 48.496 54.1737 48.5428 54.4471C48.5925 54.7376 48.6422 55.0281 48.6948 55.3356C48.7438 55.7757 48.7735 56.4125 48.7958 56.9539C48.659 56.6168 48.6884 56.1721 48.4713 56.0334C48.5577 56.5902 48.9092 57.1544 49.1253 57.6978C49.3414 58.2412 49.5262 58.8075 49.4201 59.3181C49.6169 59.3372 48.9412 59.2945 48.7899 59.2325C48.9078 60.4874 49.5512 61.3182 49.5117 62.732C49.32 62.8966 49.3022 62.0731 48.9906 62.5133L48.9401 63.3485C48.799 62.678 48.4401 63.7155 48.3921 63.4863C48.457 63.3521 48.5904 63.2062 48.5424 62.9769C48.2444 62.9312 48.0808 63.6714 47.7875 64.0645C47.7576 64.4038 47.8986 64.7139 48.1169 64.4479C47.7657 64.9652 47.8706 64.4988 47.5797 64.4431C47.2665 65.1826 47.4266 65.2958 47.8122 65.4937C48.1314 65.5094 48.1314 65.5094 48.4914 65.0433C48.0173 65.8191 47.6822 66.7383 47.1739 67.1594L47.3699 67.6886L47.242 67.7632C47.3862 67.8353 47.4633 67.8749 47.4891 67.9232L47.4987 67.8249C47.8101 70.3129 46.3157 73.4001 46.3737 75.9491C46.1826 76.5798 45.9844 77.2204 45.8688 77.8294C45.6544 77.3473 45.6929 76.6987 45.7502 76.1085C45.7834 75.5313 45.8695 75.0065 45.7673 74.769L45.7278 75.2066C45.5445 75.3171 45.9497 74.4476 45.55 74.2698L45.1292 74.843C44.6714 75.7655 46.0143 75.5446 45.1284 76.3292C45.1926 75.008 44.6643 76.7516 44.4352 75.8235C44.076 76.1399 44.4159 76.6358 44.7486 77.1417C44.7543 76.8153 44.8313 76.4944 44.92 76.2418C45.0318 76.381 44.9577 76.719 44.952 77.0453C44.9563 77.3788 45.0018 77.6963 45.2773 77.8163C45.2382 77.9988 45.1674 78.0989 45.0978 78.1548C45.0462 78.4186 44.8287 78.5349 44.6354 78.6384C44.6329 78.7267 44.6404 78.8222 44.6709 78.9488C44.9814 78.9133 45.3629 79.4988 45.2497 80.0194C45.229 80.1548 44.9621 79.7257 44.7524 79.6824C44.652 79.8666 44.5787 80.055 44.5125 80.2334L42.2721 79.4736C43.1175 78.9156 43.7199 78.1706 44.5828 77.3547C44.1111 77.6816 43.6335 77.6139 43.4668 77.616C43.5217 77.4747 43.5796 77.3505 43.6717 77.2204C43.5758 77.1225 43.6786 76.8499 43.7661 76.6415L43.7879 77.0774C44.0104 76.7843 44.2529 76.5054 44.2374 76.2091C44.1493 75.9516 44.1201 75.7807 44.6852 75.64C44.6048 75.8385 44.6211 75.9852 44.6616 76.1189C44.8758 75.88 45.0428 75.6228 45.191 75.3073C45.3223 75.3552 45.7558 75.4217 46.22 74.9994L45.488 74.7816C46.441 74.0294 46.2289 74.0745 46.5659 73.5772C47.1639 73.4749 47.4016 72.7571 47.5527 72.0981C47.7408 71.4504 47.7982 70.8602 48.2116 70.9125C48.0792 71.2694 47.9368 71.6191 47.7644 71.9476C48.442 71.7965 48.3604 73.3757 48.8509 73.1071C48.9099 72.5782 49.0189 72.0847 49.0338 71.5546C48.0463 72.5677 48.7377 69.9784 48.0084 70.0328C48.1899 69.5005 48.7787 69.2415 48.5276 68.493C48.7779 68.0545 48.9187 68.9801 49.1686 68.4361C49.1597 68.0244 48.7608 68.0574 48.9565 67.5051C49.0195 67.5647 49.1729 67.7934 49.2909 67.7117C49.5391 67.1065 49.0665 67.2225 49.022 66.5002L48.9841 66.6386C48.5864 66.267 49.1914 65.7942 49.3518 65.6524C49.2537 65.0273 49.0188 64.4255 48.8311 63.8421C49.1041 64.0504 49.4558 64.9751 49.6698 64.3757C49.8287 64.5332 49.8896 64.7865 49.8851 65.0687C49.8635 65.3538 49.7765 65.6677 49.7278 65.9486C49.6234 66.5204 49.5456 66.991 50.1129 67.0171C50.5124 66.4739 49.7849 65.6135 50.3528 65.1294C49.8505 64.9691 49.7827 64.1101 49.5524 63.5867L49.6999 63.4208C49.5683 62.2914 48.7855 63.5245 48.7476 62.3263C48.878 62.1632 49.3182 62.4749 49.1855 61.7501C49.0495 61.6239 48.9002 61.368 48.6793 61.3618L48.6431 61.5615C48.3365 61.825 48.2719 60.7281 48.15 60.2213C48.4402 60.4267 48.7595 60.4424 48.716 59.9311C48.9322 60.835 49.7656 60.4638 49.923 61.281C49.6412 61.0215 49.1621 60.2768 49.0276 60.8274C48.9166 61.5147 49.5911 61.9621 49.8498 62.806L49.8245 62.2475C50.6013 61.9564 50.6356 63.6476 51.3876 63.8795C51.375 63.6003 51.3129 63.3911 51.4425 63.3777C51.2604 63.4441 51.5149 64.3151 51.5025 64.7569L51.1131 64.331C50.5772 65.6186 51.421 65.3599 51.1077 66.715C50.8263 66.5609 50.7298 64.6604 50.3979 65.702C50.7885 65.7232 50.4286 66.5497 50.7142 66.6768C50.513 66.9398 50.2476 67.1875 50.0264 67.4364C50.0636 67.8081 50.1167 68.2212 50.1568 68.61C50.1799 69.0018 50.2141 69.3564 50.2409 69.6156C50.0524 69.1818 50.124 68.9322 49.9938 68.4796C49.9112 69.4874 48.886 69.6628 49.1859 70.4909C49.2992 70.3308 49.4397 70.1748 49.543 70.0077C49.2427 70.7713 49.1899 71.0793 49.2229 71.4782C49.4356 71.8991 49.9406 71.3554 50.1738 70.9198C50.006 71.3266 49.419 72.0074 49.7958 72.154C49.3525 72.4409 49.3318 72.9369 49.4782 73.1757C48.9749 73.7806 49.1239 73.3154 48.8201 73.2355C48.7303 73.8928 47.7458 74.923 48.3889 75.0328C48.6318 74.8593 48.8562 74.0119 49.0523 74.5412C48.4538 74.538 49.0558 75.0242 48.67 75.442C48.7038 74.3546 47.6687 76.22 47.691 75.4248C47.0656 76.1386 47.2878 76.461 47.0013 77.0992L46.6741 76.8827C46.5258 77.1982 46.3575 77.4996 46.1822 77.811C45.6716 77.7049 45.6171 76.9755 44.8847 77.6284C44.8487 78.5491 45.6636 78.8406 45.0042 79.9207L44.7569 79.4002C44.4415 79.6125 43.7745 80.5971 44.1271 80.7566C44.4918 80.7294 44.9074 80.588 45.2765 80.2786L45.1544 80.3874C44.8937 81.0739 46.4209 79.9773 45.4976 81.0058C45.345 80.6274 44.7945 80.8535 44.1832 81.1867L41.0541 82.8916L41.9356 80.4369C42.168 79.7903 42.3786 79.0684 42.6094 78.7212C42.4392 78.2403 42.3168 77.2675 42.0733 76.975C41.8853 77.0072 41.6617 77.705 41.3524 77.3358C41.7263 76.4892 41.7537 75.8778 41.7409 75.238C41.7282 74.5983 41.7826 73.991 42.3013 73.3219C42.3471 73.3844 42.4655 73.4081 42.532 72.9746L42.7779 72.8183C42.7682 72.5561 42.7868 72.2539 42.9085 72.0397L43.287 70.9109C43.3924 70.9105 43.2731 70.6758 43.188 70.4353C43.1313 70.5154 43.0847 70.6025 43.0298 70.7438L43.188 70.4353C43.1217 70.2532 43.0824 70.0753 43.1633 69.9824C42.7972 69.6932 43.6502 69.2307 43.8964 68.8193C43.8669 68.9035 43.8631 69.036 43.8677 69.1144C44.2593 68.3703 43.5584 67.7691 44.2655 67.1733L44.4547 67.097C44.3968 67.2212 44.3489 67.3524 44.3919 67.3979C44.4398 67.2666 44.4835 67.1624 44.5273 67.0582C44.6926 66.7397 44.6584 66.7455 44.5734 66.8656C44.7162 66.2608 44.4428 66.3075 44.6825 65.396L44.3709 65.8362C44.4013 65.6024 44.4392 65.464 44.4758 65.3698C44.4418 64.7601 44.5238 63.2863 44.9537 62.5093C44.5595 61.6446 44.2962 61.6984 44.29 60.5827L44.771 60.773L45.0394 59.5664C45.2454 59.7422 45.4794 59.1569 45.5346 58.4C45.5375 58.4171 45.5304 58.4271 45.5404 58.4342C45.84 58.1807 45.9041 57.8356 45.8244 57.5239C45.7276 57.2151 45.5512 56.955 45.4536 56.7959C45.3089 56.6184 45.045 56.2063 45.2141 56.1158C44.756 55.9567 44.4027 54.9708 43.9585 54.0707C43.9414 54.0736 43.9414 54.0736 43.9243 54.0765C43.8897 53.9769 43.9092 53.8856 43.7787 53.6881C43.7604 53.7352 43.7621 53.7965 43.7167 53.8394C43.6024 53.4281 43.2517 53.0747 42.8923 52.6702C42.5429 52.2727 42.1548 51.8027 42.12 51.3426C41.7876 50.5817 42.2466 50.9516 42.6251 51.1595C43.0165 51.3915 43.3591 51.5439 43.0401 50.9126L42.8942 50.7793C42.7766 50.6059 42.669 50.4397 42.5885 50.2776C42.7794 50.2625 42.7669 50.3437 42.8828 50.4558C42.8653 50.3533 42.8977 50.2862 42.9402 50.2261L42.9969 50.1461C43.004 50.1361 43.001 50.119 43.0352 50.1132L43.1578 50.1098C43.4541 50.0943 43.6292 50.038 43.4928 49.8063C43.1664 49.8006 42.9014 49.7932 42.6463 49.7928L42.4696 49.7879L42.387 49.8196L42.2291 49.873C42.0128 49.9452 41.7765 50.0032 41.4877 50.1142C41.4823 50.1854 41.5887 50.3958 41.7238 50.6717C41.5103 50.4004 41.2997 50.1463 41.095 49.9263C41.1308 49.6212 41.0799 49.3749 41.1031 49.1511C41.1215 49.104 41.0927 49.0386 41.1723 48.9898C41.2448 48.951 41.3244 48.9022 41.424 48.8676C41.6132 48.7912 41.8536 48.7061 42.1924 48.6306C42.1448 48.5068 41.8261 48.5965 41.4426 48.5654C42.2994 48.3309 43.333 48.4618 43.156 48.7119C43.9437 48.6387 43.6881 48.1725 44.7717 47.9783L44.2629 47.3178C44.6001 47.181 44.9872 47.0796 45.3973 47.0094C45.8374 46.9605 46.3004 46.9429 46.7593 46.9523C47.6612 46.9299 48.5482 47.0772 49.2368 47.144C47.6322 47.1196 46.6517 47.7621 45.7473 47.8729C46.3981 48.4387 45.6096 48.6615 44.6298 48.7939C43.66 48.9335 42.3709 49.0573 42.3035 49.2799C43.3738 49.3166 41.954 49.8585 43.6519 49.7087C44.0131 49.1985 44.7109 49.422 45.5823 49.2729C46.3843 49.5402 45.4154 49.8907 46.9107 49.6876C46.1067 49.6141 47.2781 48.9564 46.0595 49.2353C47.9231 48.5119 48.7121 48.7551 50.9581 48.4675C49.0417 48.5228 51.8077 47.8825 50.6393 47.5812C50.8242 48.1475 47.2045 48.0633 49.9682 48.2324C49.3372 48.2964 48.7103 48.3333 48.1094 48.4185C47.7504 48.1194 49.9985 47.9986 48.0691 47.6691C48.9105 47.4988 49.5332 47.489 50.1229 47.4409C50.3922 47.4212 50.7598 47.4111 50.9548 47.3689C51.1499 47.3268 51.3661 47.2546 51.6307 47.1566C51.4229 47.5351 52.539 47.6343 52.6788 47.9885C53.1389 47.9537 53.5848 47.5785 54.065 47.9184L53.3278 48.1324C54.0634 48.2176 54.0994 48.6336 54.7242 48.7906C55.1443 48.7275 55.213 48.4607 55.0354 48.2448C56.0636 48.447 57.1084 48.1804 58.1742 48.4993C56.8826 48.3509 57.8973 49.0391 56.8453 48.9553L57.6231 49.2355C59.18 48.7757 61.4893 48.2927 61.9062 47.4915C63.7091 47.2358 63.1678 48.5947 65.3101 47.7533C65.0084 47.8401 65.4891 48.2855 65.3275 48.4714C65.6767 48.5084 66.2815 48.6512 66.6599 48.4985L65.8487 48.0745C66.8506 47.7624 68.2415 48.1311 69.3172 48.0966C69.0996 48.2129 69.4628 48.485 68.8122 48.6403C68.8207 48.9466 69.58 48.9134 69.9235 48.9162C70.6902 48.618 70.1465 48.113 70.9975 47.8443C73.3356 47.7872 75.5486 47.4614 77.4652 46.7906C78.407 46.436 79.2588 46.0177 80.0075 45.5115C80.7434 44.9811 81.3621 44.3827 81.922 43.6978C82.1641 43.3134 82.4207 43.0145 82.6793 42.5218L83.0655 41.849L83.3479 41.2379L83.499 40.9394L83.5032 40.9123C83.5003 40.8952 83.5144 40.8753 83.5115 40.8582C83.5228 40.8211 83.5269 40.794 83.5111 40.7527C83.4894 40.6773 83.4364 40.6247 83.3593 40.5852C83.2963 40.5256 82.0035 40.4215 80.9619 40.4502L80.9552 40.2051C75.4024 41.2606 68.3026 42.783 61.9803 44.8407L62.1092 44.977C59.8222 44.6647 61.4091 46.5389 58.877 46.2334C57.896 47.7467 55.4828 47.5703 53.9853 48.9433L53.7035 48.6837C52.7441 49.9119 50.6811 49.0074 49.3507 50.1231Z" fill="#224486"/>
<path d="M42.8148 72.8789L42.6841 73.0172C42.902 73.5012 42.8337 73.2715 42.8148 72.8789Z" fill="#224486"/>
<path d="M45.509 62.2367C45.1876 62.3092 45.0224 62.6274 44.9213 62.9609C45.0308 62.9334 45.1903 62.9413 45.3264 62.8126C44.9599 63.6483 45.035 64.2415 44.6448 65.1955C44.8226 65.1563 45.0293 65.5426 45.0318 64.4793C44.5865 64.8542 46.0579 62.7752 45.509 62.2367Z" fill="#224486"/>
<path d="M44.3393 76.5496C44.3373 76.4772 44.3151 76.4082 44.2929 76.3392L44.3393 76.5496Z" fill="#224486"/>
<path d="M44.6806 78.665C44.6354 78.8142 44.5571 78.9248 44.4357 78.9897C44.3992 78.828 44.5277 78.753 44.6806 78.665Z" fill="#224486"/>
<path d="M47.496 68.1019C47.4506 68.5062 47.3773 69.0562 47.0725 69.2317C47.2611 68.5827 47.4197 68.2736 47.496 68.1019Z" fill="#224486"/>
<path d="M89.5077 40.87C89.4937 40.8898 89.4866 40.8997 89.4684 40.9464C89.7959 41.2823 89.2145 41.9567 89.284 42.3629C88.8834 43.076 88.9021 42.1669 88.937 41.7602C89.0113 41.6343 89.2795 41.3184 89.5077 40.87Z" fill="#224486"/>
<path d="M60.0048 41.6243C60.1413 41.4952 60.4153 41.4484 60.665 41.4145C60.6253 41.4918 60.7097 41.5214 60.817 41.5823C60.7828 41.5882 60.7486 41.5941 60.7315 41.597C60.9361 41.7118 60.8076 42.0421 60.8415 42.2918C59.7495 42.7077 60.208 42.4002 60.0048 41.6243Z" fill="#224486"/>
<path d="M69.9058 35.9814C69.789 36.019 69.6965 36.0436 69.6239 36.0824C69.6994 36.0607 69.7819 36.029 69.9058 35.9814Z" fill="#224486"/>
<path d="M60.0782 41.5711C60.0699 41.6255 60.3812 41.5899 60.7539 41.5525C60.6536 41.4815 60.4492 41.4724 60.0782 41.5711Z" fill="#224486"/>
<path d="M50.7559 61.0894L50.9043 61.3901L50.9814 60.7071C50.4743 59.7009 50.1147 59.7624 49.6442 59.6402C49.9915 60.0215 50.0902 60.3924 50.219 60.7846C50.3236 61.1898 50.4411 61.6192 50.5608 62.2157C50.6534 61.8297 50.7218 61.4566 50.7559 61.0894Z" fill="#224486"/>
<path d="M48.2692 62.1504C48.1735 62.2642 47.9463 62.5423 47.9426 62.6759L48.2073 62.7725L48.2692 62.1504Z" fill="#224486"/>
<path d="M45.4699 72.2917C45.6626 72.0625 45.8451 71.8261 46.0277 71.5898C45.9367 71.2664 45.1984 72.0082 45.4699 72.2917Z" fill="#224486"/>
<path d="M50.9803 69.928L50.8606 69.3316C50.5355 69.7485 50.4054 70.3788 50.6318 70.5691C50.6675 69.9022 50.8327 70.4555 50.9803 69.928Z" fill="#224486"/>
<path d="M44.2617 74.2721C44.5137 74.7665 43.6033 74.9046 43.8819 75.2975C43.8994 75.039 44.6385 74.5689 44.2617 74.2721Z" fill="#224486"/>
<path d="M48.4436 76.0289C48.9849 75.9799 48.9127 75.303 49.312 74.7809C49.0455 75.2628 48.281 75.6903 48.4436 76.0289Z" fill="#224486"/>
<path d="M42.4632 79.0167C42.235 78.7649 42.5023 78.4723 42.8409 78.1852C42.8289 78.3724 42.8924 78.5378 42.8018 78.7296C43.0715 77.9871 43.1429 77.9925 43.3905 77.4302C42.8362 77.7453 42.1588 78.3196 41.8889 77.9779C41.864 78.5022 41.8742 79.232 42.4632 79.0167Z" fill="#224486"/>
<path d="M47.7126 77.3832C48.1111 77.0097 48.5461 76.9003 48.8788 76.3461C48.6129 76.3218 48.2114 76.3207 47.8523 76.9754L47.6652 76.545C47.0562 76.9633 48.2479 76.5849 47.7126 77.3832Z" fill="#224486"/>
<path d="M45.704 78.1577L45.4918 78.4148C45.7607 79.0576 45.6438 79.8193 46.1202 80.1264L41.0957 78.425L41.0928 78.4079L41.0857 78.4179L46.1273 80.1163C46.1258 79.4366 45.8703 78.562 45.704 78.1577Z" fill="#224486"/>
<path d="M45.6006 79.1434L45.9855 79.5681C46.4875 79.0095 45.8045 79.5009 45.8611 79.2058C46.0542 79.0836 46.2815 78.8485 46.2937 78.6591C45.8488 79.3952 45.8967 78.4238 45.6006 79.1434Z" fill="#224486"/>
<path d="M44.6017 81.3899L44.5875 81.41L42.8287 85.0666L41.7184 80.4349L41.4795 79.4514L40.8721 80.2883C40.8867 80.3741 40.9085 80.4498 40.9144 80.4841L43.0681 86.156L45.1707 81.9284C45.5668 81.1983 44.8668 81.8037 44.6017 81.3899Z" fill="#224486"/>
<path d="M42.0559 79.2451L42.1601 79.14C41.8737 78.6393 41.6581 78.144 41.4296 77.6246C41.681 78.5327 41.6289 78.5852 42.0559 79.2451Z" fill="#224486"/>
<path d="M48.9542 63.3751C48.7506 63.1704 48.2996 63.9575 48.6276 63.644C48.814 63.8517 49.301 62.7568 48.9542 63.3751Z" fill="#224486"/>
<path d="M43.9449 65.6085C44.2202 65.2827 44.1751 64.0012 44.1093 63.4637C44.112 64.0904 43.6246 65.6198 43.9449 65.6085Z" fill="#224486"/>
<path d="M44.1484 63.3146C44.1468 63.3692 44.1649 63.4749 44.1742 63.5929C44.1773 63.4837 44.1716 63.3867 44.1484 63.3146Z" fill="#224486"/>
<path d="M55.0414 47.0559C55.1045 47.0542 55.1749 47.0422 55.232 47.0052C55.1616 47.0173 55.1118 47.0439 55.0414 47.0559Z" fill="#224486"/>
<path d="M54.4617 47.092C54.074 46.9944 53.3039 47.083 53.1568 47.3325C53.773 47.253 54.3083 47.2045 55.0317 46.9945C54.7744 47.004 54.4563 46.8082 54.4617 47.092Z" fill="#224486"/>
<path d="M59.924 47.6541C59.6359 47.7832 59.2447 47.6728 59.3305 47.9152C59.4818 48.0222 60.0941 47.82 59.924 47.6541Z" fill="#224486"/>
<path d="M88.7711 35.0053C88.4427 34.6991 88.1551 34.4808 87.9437 34.4048C87.7183 34.3485 87.5998 34.4119 87.6076 34.609C88.4346 35.106 88.093 34.6726 88.7711 35.0053Z" fill="#224486"/>
<path d="M86.4328 34.239L86.3902 34.0421L85.8867 33.6403C86.0803 33.8379 86.2708 34.0182 86.4328 34.239Z" fill="#224486"/>
<path d="M81.5177 33.1512C81.5456 33.0885 81.6595 33.0208 81.7876 32.9796C81.5282 33.0433 81.3063 33.1005 81.5177 33.1512Z" fill="#224486"/>
<path d="M81.8269 32.9614C81.7703 32.9711 81.6854 32.9856 81.6288 32.9953L81.8269 32.9614Z" fill="#224486"/>
<path d="M82.1211 33.0554L82.1814 32.8565C82.1005 32.8798 81.9539 32.9049 81.8288 32.9452C81.928 32.9187 82.0657 32.9518 82.1211 33.0554Z" fill="#224486"/>
<path d="M80.2496 33.1379C80.5215 33.2853 80.7863 33.4426 81.0612 33.607C81.8738 33.3094 80.1064 33.3827 80.8934 32.781C80.6583 32.9005 80.4505 33.0243 80.2496 33.1379Z" fill="#224486"/>
<path d="M77.6402 33.5608C76.9073 33.5096 76.0601 34.4935 75.5626 33.9604C73.7053 34.6667 76.1962 34.8764 74.0899 35.5724C76.1801 35.4532 74.8838 34.1737 76.8071 34.1625C75.823 33.9335 77.3577 33.7681 77.6402 33.5608Z" fill="#224486"/>
<path d="M78.0318 34.5505C78.0994 34.2195 77.2142 34.3354 76.9737 34.5895C77.2382 34.5798 77.743 34.9371 78.0318 34.5505Z" fill="#224486"/>
<path d="M73.7981 34.5155L73.1601 34.412L73.0576 34.6422L73.7981 34.5155Z" fill="#224486"/>
<path d="M71.7 34.9459L72.169 34.4529C72.0075 34.6386 71.1701 34.8258 71.7 34.9459Z" fill="#224486"/>
<path d="M68.5927 35.3646C68.0449 35.3968 67.8183 36.3314 68.841 35.8403L68.585 35.8841C68.6128 35.7388 67.9434 35.625 68.5927 35.3646Z" fill="#224486"/>
<path d="M62.1954 38.7306C62.5433 38.6265 62.9296 38.382 62.799 38.2438L61.902 38.7362L62.1954 38.7306Z" fill="#224486"/>
<path d="M63.039 40.5873C63.516 40.9551 63.897 40.2467 64.5765 40.2009C63.8432 40.344 63.8971 40.2467 63.039 40.5873Z" fill="#224486"/>
<path d="M60.902 38.4368C61.092 38.1469 61.5319 38.1249 61.7906 38.0807C61.5638 37.8444 60.9411 38.1461 60.902 38.4368Z" fill="#224486"/>
<path d="M59.426 39.1483C59.0422 39.0727 59.3933 38.8536 59.1041 38.8148C58.3415 38.8481 57.653 39.1601 57.3857 39.5591C57.6381 39.6926 58.0866 40.1457 57.9164 40.4928C58.8855 39.9119 59.1242 38.829 59.8861 39.308L60.4649 38.1492C59.5785 38.3362 60.032 38.974 59.426 39.1483Z" fill="#224486"/>
<path d="M62.1592 39.9269L61.4934 39.847C61.7015 40.0845 61.294 40.2776 61.0364 40.4715C61.3957 41.0268 61.8485 40.0682 62.1592 39.9269Z" fill="#224486"/>
<path d="M53.9237 41.7496L52.8268 42.3426L53.2118 42.2239L53.9237 41.7496Z" fill="#224486"/>
<path d="M53.0688 41.7978L52.9666 41.6186L52.1974 42.2955L53.0688 41.7978Z" fill="#224486"/>
<path d="M51.8518 42.1381L51.9897 42.1144L52.6192 41.6962L51.8518 42.1381Z" fill="#224486"/>
<path d="M49.3304 42.8986L49.6446 43.0755C49.9171 42.9047 50.6018 42.965 50.4221 42.6408C50.193 42.8575 49.5769 43.0428 49.3304 42.8986Z" fill="#224486"/>
<path d="M43.3649 52.2158C43.5362 51.9738 43.3576 51.8625 43.169 51.7441L42.9445 52.2966C43.0591 52.2415 43.254 52.1373 43.3649 52.2158Z" fill="#224486"/>
<path d="M41.6993 51.9407L40.9242 52.7167C42.0145 52.495 42.0339 52.0421 42.9366 51.7026C42.505 51.653 42.0674 52.1863 41.529 52.1814L41.6993 51.9407Z" fill="#224486"/>
<path d="M22.3777 54.1706C22.5058 53.8413 22.2739 53.8721 23.0461 53.7137C22.5311 53.7842 22.0457 53.7706 21.5415 53.6988C21.0402 53.644 20.516 53.558 19.9118 53.4154C20.0709 53.6781 19.0651 53.8062 19.5535 53.8369C20.0348 53.8775 20.4949 53.9481 20.9574 53.9305L20.7106 54.1308C21.6304 54.5269 21.4012 53.8545 22.3777 54.1706Z" fill="#224486"/>
<path d="M40.688 43.0402C40.4906 43.0828 40.4814 43.2891 40.4722 43.4954C41.0882 43.8706 40.5594 42.9643 40.688 43.0402Z" fill="#224486"/>
</svg>
