<svg width="79" height="82" viewBox="0 0 79 82" fill="none" xmlns="http://www.w3.org/2000/svg">
<path d="M43.5426 21.7362C44.0618 21.9221 43.6496 21.5849 43.4785 21.2065L43.5426 21.7362Z" fill="#E0E1DC"/>
<path d="M43.3961 21.2368L43.3379 20.8413C43.3017 20.9607 43.3268 21.1072 43.3961 21.2368Z" fill="#E0E1DC"/>
<path d="M42.8345 17.8473C43.3644 18.5234 43.1546 19.5641 43.8001 19.8856C43.885 19.0425 43.4502 17.8918 42.8345 17.8473Z" fill="#E0E1DC"/>
<path d="M42.6717 18.9909L42.9766 19.0097L42.3574 18.4502L42.6717 18.9909Z" fill="#E0E1DC"/>
<path d="M42.6237 19.6013L42.6917 19.4839L42.1191 18.5068L42.6237 19.6013Z" fill="#E0E1DC"/>
<path d="M42.3975 15.1879L42.6765 15.9422C42.4829 16.7686 42.0351 15.5936 41.9074 16.1354C42.1601 17.097 42.7763 16.2688 42.9702 17.5049C43.2993 17.3163 42.472 15.5718 43.0807 15.6263C42.9976 14.574 42.7352 15.6677 42.3975 15.1879Z" fill="#E0E1DC"/>
<path d="M46.9392 36.0475C46.9376 36.1035 46.9451 36.1469 46.9436 36.203C46.9848 36.1178 47.0042 36.0364 46.9392 36.0475Z" fill="#E0E1DC"/>
<path d="M52.8809 48.4336C52.8712 48.6495 52.8797 48.8623 52.9032 49.054C52.9557 48.9798 52.9871 48.8906 53.0153 48.7833L52.8809 48.4336Z" fill="#E0E1DC"/>
<path d="M42.1453 29.4127C42.1201 29.2137 42.0807 29.0349 42.0371 28.8833C42.0162 29.0195 42.0254 29.1769 42.1453 29.4127Z" fill="#E0E1DC"/>
<path d="M41.0112 40.2082C41.055 40.1913 41.1139 40.1533 41.1741 40.0683C41.1741 40.0683 41.1709 40.0501 41.1678 40.032L40.9745 40.1025L41.0112 40.2082Z" fill="#E0E1DC"/>
<path d="M53.373 64.9395C53.2915 65.1818 53.2101 65.4241 53.1427 65.6464C53.3474 65.2513 53.3735 65.0448 53.373 64.9395Z" fill="#E0E1DC"/>
<path d="M40.0939 25.1836C40.1295 25.2645 40.1528 25.3367 40.1971 25.4052C40.195 25.3295 40.1769 25.2238 40.1465 25.1094L40.0939 25.1836Z" fill="#E0E1DC"/>
<path d="M52.2715 43.7236C52.3067 43.9297 52.3461 44.1086 52.404 44.2401C52.3817 44.0583 52.3352 43.8895 52.2715 43.7236Z" fill="#E0E1DC"/>
<path d="M38.6434 3.15891C38.6305 3.13464 38.6247 3.10037 38.6217 3.08321L37.8135 0.837063L36.0371 3.04844C35.899 3.22218 35.8326 3.40141 35.7933 3.58475C35.9289 3.49974 36.0456 3.3561 36.0873 3.08403L36.2748 1.75381L38.5761 3.12634C38.5861 3.13346 38.6162 3.15474 38.6434 3.15891Z" fill="#E0E1DC"/>
<path d="M34.0315 7.87075L34.0382 7.82693C33.9276 7.84584 33.9486 7.88494 34.0315 7.87075Z" fill="#E0E1DC"/>
<path d="M33.7459 11.1415L33.7231 11.0709C33.6682 11.1228 33.6511 11.1471 33.7459 11.1415Z" fill="#E0E1DC"/>
<path d="M35.6909 3.53813C35.285 3.79267 34.507 3.57319 35.0036 4.46658L35.1518 4.40593C34.8486 4.6429 34.8969 5.23403 34.7914 5.59583C34.877 5.58118 34.9455 5.56946 35.0182 5.53059C35.0946 5.35887 35.2306 5.12401 35.4477 4.796C35.7705 4.46755 35.5917 4.03987 35.6909 3.53813Z" fill="#E0E1DC"/>
<path d="M46.7682 36.0874C46.6521 35.7267 46.8837 35.968 46.7682 36.0874V36.0874Z" fill="#E0E1DC"/>
<path d="M44.3301 32.8276C44.3901 32.9525 44.4533 33.0962 44.5133 33.2211C44.472 33.093 44.4386 32.9539 44.3301 32.8276Z" fill="#E0E1DC"/>
<path d="M38.3667 19.1944C38.361 19.2315 38.3553 19.2687 38.3496 19.3059C38.4806 19.2956 38.4313 19.2195 38.3667 19.1944Z" fill="#E0E1DC"/>
<path d="M44.7639 33.5915L44.5684 33.2388C44.6096 33.3669 44.6586 33.484 44.7639 33.5915Z" fill="#E0E1DC"/>
<path d="M39.5371 23.5151C39.542 23.5434 39.5351 23.5883 39.54 23.6166C39.5517 23.6 39.5585 23.5552 39.5371 23.5151Z" fill="#E0E1DC"/>
<path d="M44.9113 39.015C44.5726 38.9521 44.4736 38.6757 44.2016 38.4979C43.3315 38.7072 45.5504 39.0695 44.4181 39.1079C44.715 39.2297 44.971 39.2635 45.2143 39.2737L44.9851 38.6399C44.339 38.5952 45.3067 38.9559 44.9113 39.015Z" fill="#E0E1DC"/>
<path d="M40.0065 38.3996L39.9976 38.3476C40.0221 38.3345 40.0408 38.2868 40.0848 38.4398C40.029 38.5831 39.999 38.6685 39.966 38.7365C39.9259 38.8148 39.906 38.9073 39.7413 39.2477C39.8203 39.136 39.8414 38.9987 39.9002 38.8727C39.8457 38.9712 40.0349 38.6177 40.0065 38.3996Z" fill="#E0E1DC"/>
<path d="M39.8219 38.8831C39.8294 38.8725 39.8081 38.8575 39.8126 38.8287C39.8183 38.753 39.8241 38.6774 39.8223 38.6123C39.8316 38.6667 39.8396 38.7681 39.8219 38.8831Z" fill="#E0E1DC"/>
<path d="M35.663 34.0721C35.5664 34.0037 35.427 33.905 35.4238 33.8867C35.435 34.0074 35.5897 34.0846 35.663 34.0721Z" fill="#E0E1DC"/>
<path d="M47.6812 61.8022C47.6669 61.6632 47.6419 61.5167 47.623 61.4067C47.5918 61.6101 47.6289 61.7169 47.6812 61.8022Z" fill="#E0E1DC"/>
<path d="M41.998 43.8828C41.9661 44.0552 41.9341 44.2276 41.9192 44.397C41.9267 44.4923 41.9312 44.5705 41.9446 44.7L41.998 43.8828Z" fill="#E0E1DC"/>
<path d="M24.5392 47.8624C24.8752 47.3027 24.3095 47.9105 23.7239 47.5261L23.1239 47.7785C23.6413 47.9191 24.1337 47.8613 24.5392 47.8624Z" fill="#E0E1DC"/>
<path d="M45.3964 39.4248C45.4081 39.4082 45.415 39.3633 45.4267 39.3467C45.3984 39.3516 45.3818 39.3398 45.3535 39.3446L45.3964 39.4248Z" fill="#E0E1DC"/>
<path d="M19.0204 32.9712C19.12 32.9365 19.2126 32.9119 19.3123 32.8773C19.2439 32.889 19.1513 32.9136 19.0204 32.9712Z" fill="#E0E1DC"/>
<path d="M40.4065 39.4281C40.5829 39.8035 40.7997 40.1632 40.9928 40.5357L41.0433 40.8809L41.0484 40.4571L40.9943 40.2421C40.8394 40.2945 40.7797 40.0459 40.699 39.8268C40.6016 39.6105 40.5071 39.4109 40.4065 39.4281Z" fill="#E0E1DC"/>
<path d="M28.4026 48.0671C27.7915 47.7848 27.5434 47.4139 26.4632 47.7307C26.287 47.8312 26.6297 48.344 25.9202 48.0521L26.5902 47.4451C25.6078 47.3054 24.5576 47.2828 23.7266 47.5657C23.3202 47.5033 22.9209 47.4309 22.5086 47.3343L22.9242 47.193C21.9914 46.9832 21.1896 46.4608 20.1644 46.6362C20.6099 46.516 21.3551 46.1424 20.4889 45.8597L19.6365 45.8119C19.5631 45.6398 20.0637 45.7389 18.6519 45.1451C18.7299 45.3955 18.4173 45.2644 18.0683 44.9723C17.7235 44.6532 17.3808 44.1402 17.4378 43.8051C17.1775 44.2366 17.9084 45.2195 17.6576 45.5526C16.9805 44.833 16.5707 44.6481 16.1151 44.4007C15.6394 44.1391 15.291 43.9526 15.0623 43.1299L15.547 43.1877C15.0444 41.9458 14.651 40.9315 14.4202 39.9421L14.6274 40.0738C14.7316 38.7809 15.0092 37.7309 15.4586 36.8626C15.898 35.9872 16.5492 35.3218 17.3047 35.0606C17.5072 34.7534 17.7196 34.4532 17.9421 34.1602C17.8309 34.487 17.9976 34.4848 18.4073 34.3092C19.0481 33.8918 19.7122 32.8901 19.2733 32.8948C20.4531 32.5435 21.0443 32.1961 21.6752 31.7716C22.299 31.3571 22.9582 30.8926 24.0926 30.5842C24.1644 31.0556 25.0324 30.4235 24.7896 30.9574L25.3804 30.5045C25.2837 30.5563 25.4108 30.6313 25.4709 30.6737C25.7518 30.7224 25.808 30.5369 25.8642 30.3514L25.8346 30.4357L26.7828 30.2207L26.6985 29.8306L27.45 29.9571C27.1747 30.5582 26.069 30.5715 26.0471 31.1116C26.3547 31.059 27.6408 31.2786 28.3124 30.3723L30.1466 30.0937C30.2871 30.2983 30.1 30.1809 30.6968 30.1227C31.1869 30.1092 31.1431 29.8529 31.7394 29.6893C31.5732 29.7969 31.4864 29.8557 31.4569 29.9399C32.2404 29.8937 32.2053 29.3282 32.6169 28.9588C32.271 29.0444 31.9985 29.302 31.7356 29.4613C31.6256 29.3834 31.7051 29.3347 31.6451 29.2922L30.8663 29.7771C30.8654 29.5662 31.0229 29.7679 30.4728 29.7389C31.0291 29.547 31.1758 29.5307 31.7417 29.2404C31.9337 28.8206 31.2273 28.9063 31.5294 28.5645C32.0044 28.3601 32.4724 28.1657 32.9162 27.9843C33.6401 27.6406 34.341 27.2657 34.9794 26.9366C35.906 27.3673 36.7902 27.858 37.6143 28.3061C37.8186 28.4207 38.0228 28.5351 38.1799 28.6314L38.5373 28.8693C38.7674 29.0322 38.9974 29.195 39.2246 29.3408C40.098 29.974 40.9243 30.589 41.7677 31.2009C43.4327 32.3494 45.2598 33.4174 47.6977 33.6863C47.9041 33.9675 48.3459 34.3404 48.8274 34.6361C49.3089 34.9319 49.8254 35.0722 50.1359 35.0366L49.9741 34.862C50.7847 34.8201 50.9032 35.5648 51.567 35.1786C51.7758 35.011 51.9904 34.8776 52.1663 34.6716C52.4418 34.7916 53.1899 34.7955 53.0571 35.0469C53.2917 34.9276 53.6221 34.9062 53.9138 34.8123C54.1985 34.7284 54.4331 34.6092 54.3546 34.2533C55.2627 34.01 55.9066 33.9702 56.6833 33.3185C56.6508 33.3856 56.6896 33.4582 56.6896 33.4582C57.0347 33.5222 56.8352 32.8704 57.2745 32.9711C57.2913 33.2232 56.575 33.6623 57.291 33.4783C57.348 33.1432 57.6883 32.7684 58.1063 32.5386C58.5313 32.2988 59.0051 32.1386 59.166 32.1023C59.293 31.8167 59.4202 31.5313 59.4017 31.2179C59.7255 30.9514 60.4826 30.7515 60.1531 31.3443C60.3568 30.9928 60.5497 30.784 60.6931 30.6452L61.3188 32.3496C60.919 32.1717 60.8685 32.0309 60.607 32.5065C59.8805 32.578 59.3383 32.3894 58.7706 32.2579C58.2058 32.1435 57.6127 32.0691 56.976 32.4594C54.8149 32.2663 52.5886 32.823 50.5471 32.6095L50.5027 32.8634C50.6367 32.2073 48.7513 32.4947 49.2787 31.8768C48.7513 32.4947 47.6277 32.6605 47.0038 32.7145L47.1687 32.2906C48.3953 32.2127 47.414 32.0288 48.8047 31.6765C48.6797 31.7683 48.5701 31.7958 48.666 31.8937C49.3427 31.5317 50.7759 31.1195 51.4914 30.83L51.3973 31.1538C52.5892 30.9763 52.8098 29.9009 54.0092 29.4583C55.032 29.7318 53.8779 29.7709 54.2011 30.3752C55.4827 30.1559 54.8473 28.1894 56.2268 29.2108C56.1272 29.2455 56.0275 29.2801 55.9209 29.3247C57.6151 29.3075 55.2371 29.6968 56.4897 30.0277C57.7716 29.9139 57.5669 29.6939 57.3005 29.3701C57.037 29.0635 56.6863 28.7101 57.9395 28.5309C57.7362 28.9877 58.3069 29.1364 58.8525 29.4475C59.2662 28.8843 61.2384 28.8986 62.2349 28.6578C62.1582 28.7237 62.2028 28.8303 62.3529 28.9366L65.6631 31.58L63.7225 32.6242C63.5049 32.7406 63.2013 33.0212 62.9322 33.4014C62.9374 32.9696 63.1062 32.7737 63.4253 32.4289L65.2622 30.4702L62.2618 29.2776C62.0834 29.2114 61.8549 29.1097 61.5752 29.0169C61.4006 29.1786 61.0086 29.4568 61.3534 29.776C61.558 29.6354 61.8384 29.5786 62.189 29.5714L64.1766 29.5216L63.1851 32.2589C62.7949 33.3193 61.768 34.7701 61.7888 35.6107C61.9207 35.1484 61.007 35.7181 60.8435 35.4823C60.7603 36.0241 60.187 36.5794 60.0141 36.8024C60.2717 36.7144 60.4521 36.5868 60.6696 36.4705C59.4683 37.1069 58.3852 38.7431 56.6712 39.4672L56.642 39.2964C56.082 39.6208 55.5386 39.837 54.9798 40.1172C54.6939 40.2453 54.4009 40.3833 54.0792 40.4559C53.7716 40.5085 53.424 40.5328 53.0635 40.5329C53.7206 40.2622 53.0391 39.8248 52.7931 39.6207C52.537 39.0489 54.9076 38.5643 53.4771 38.2726C52.992 38.4699 52.6057 38.7822 52.1536 39.0179C51.7015 39.2535 51.1688 39.327 50.4114 39.1663C49.9085 39.5162 51.0839 39.8076 51.4803 39.8628C50.8877 39.8939 50.0979 39.8004 49.4702 39.6264C48.8353 39.4624 48.2776 39.338 47.9321 39.529C48.3956 39.6167 48.5486 39.7401 48.4866 39.8914C48.4978 39.8543 48.0682 40.0158 47.5614 40.1376C47.0759 40.2295 46.5304 40.2789 46.3244 40.1031C46.6841 39.8921 46.3536 39.9134 46.8216 39.719C46.2784 39.3195 45.8211 39.3713 45.3493 39.3377C45.6175 38.7467 46.8832 39.8227 47.0292 38.98C45.9742 38.5185 45.3281 38.3916 44.6525 38.3489C43.9698 38.3162 43.3159 38.349 42.3872 38.1121C41.6373 37.6865 41.1163 37.4678 40.4855 36.9162C40.5968 36.9499 40.821 37.0787 40.7876 36.9349C39.5994 35.6433 39.6317 36.5522 38.8132 35.4172C37.8976 35.565 36.5103 34.7032 35.7029 34.1467C35.8496 34.1304 36.0012 33.9373 36.1779 33.9423C35.9895 33.869 35.7139 33.7491 35.6027 33.7153C35.5114 33.6958 35.4701 33.7116 35.3917 33.7162C35.2721 33.7367 35.1767 33.7442 35.09 33.803C35.005 33.9231 34.9143 34.009 34.8559 34.0278C34.2954 34.2468 33.7373 34.3774 33.1576 34.4326L33.1871 34.3484C31.9519 34.7356 30.9294 35.1832 29.5895 35.4212C29.9025 35.2973 29.9686 35.1189 29.9452 34.9822C28.1248 35.1353 27.0683 36.3098 25.2988 36.7093C24.724 36.5878 23.856 37.2198 23.7549 36.5776C22.4552 37.2045 24.5662 37.0016 23.3302 37.5385L23.4568 37.508C22.1647 38.5908 20.6878 39.1073 20.9356 39.7332C20.6793 39.7771 20.2201 40.0227 20.2791 40.4699C20.6442 40.5481 20.8572 40.7139 21.1628 40.8551C21.1145 40.881 20.9823 40.9827 21.2183 41.1797C21.1877 40.6925 21.5071 41.0688 21.7121 41.0337C21.3625 41.2518 21.5831 41.5131 21.0288 41.5112C21.3328 41.9516 21.6982 41.7748 21.9353 41.5671C22.2236 41.3507 22.4337 41.139 23.0506 41.4555C23.0899 41.6335 23.1391 41.8185 23.1954 41.9935C22.9411 41.8435 22.6723 41.9686 22.3843 41.93C22.5973 42.0958 23.4415 42.5582 23.9974 42.2608C24.2487 42.0332 22.9318 41.6868 24.1242 41.6147C23.9578 42.3379 24.9649 41.594 25.4982 42.347C25.6181 42.0714 26.1599 41.7941 26.6876 41.8973C26.7664 41.9981 26.6838 42.0298 26.6272 42.1099C27.6079 42.1883 26.9195 41.5058 27.8014 41.4693C27.9861 41.6751 27.304 42.1083 27.7963 42.2616C28.5799 42.576 28.2497 41.9818 29.1137 42.0978C28.8394 41.9337 29.0847 41.3113 29.5614 41.1682C29.6741 41.5182 29.7764 42.1163 28.945 42.2937C29.4148 42.5211 30.2276 42.6459 29.5371 43.1333C30.5488 42.4678 32.0266 42.1622 32.959 41.2904C33.1691 41.4391 33.5309 41.3948 33.9706 41.2404C34.0826 41.1245 34.1717 40.9774 34.2338 40.8261C34.3129 40.6718 34.483 40.4318 34.6105 40.2517C34.7521 40.0516 34.8966 39.8685 35.0741 39.7238C35.1579 39.6479 35.2516 39.5791 35.3483 39.5274C35.4537 39.5269 35.5655 39.6662 35.6856 39.7512C35.8039 39.7749 35.8381 39.769 35.8293 39.7177C35.8018 39.6081 35.3165 39.0844 35.2577 38.9977C35.4203 39.0227 35.612 39.2185 35.7892 39.3289L36.7723 38.9585C37.5816 38.9607 35.7326 39.7694 36.2632 39.8897L37.411 39.711C38.3465 39.2168 37.7259 39.0327 37.3832 38.8803C38.4194 38.9229 38.7613 38.2488 39.2802 38.3008C38.0154 38.7722 39.7125 38.772 38.1018 39.3289L38.7199 39.2407C38.6991 39.3762 38.4974 39.5338 38.2103 39.7061C37.9232 39.8783 37.6291 40.0605 37.5399 40.2077C38.3526 39.9719 38.706 39.6213 39.1764 39.3386C39.2702 39.2698 39.401 39.2122 39.4776 39.1464C39.3914 39.3106 39.2622 39.4294 39.103 39.527C38.8459 39.7204 38.4146 39.8206 38.0447 40.2796C38.4248 40.1882 38.7561 40.0172 38.9819 39.8467C39.3811 39.5586 39.5852 39.3126 39.5939 39.3638C39.5219 39.5081 39.4199 39.6311 39.2878 39.7328C39.1828 39.8387 39.0648 39.9204 38.9298 40.005C38.7735 40.1197 38.6132 40.2615 38.4645 40.4716C38.5445 40.5283 38.5749 40.655 38.7016 40.6245C38.8212 40.604 39.0372 40.4264 39.3542 39.915C39.5945 39.4693 39.3511 39.8978 39.0132 40.1843L38.9129 40.3685L38.9633 40.1489C39.2858 39.9267 39.7744 39.2362 39.8126 38.8428C39.7968 38.8015 39.8093 38.7203 39.8188 38.6219C39.8259 38.6119 39.8259 38.6119 39.8288 38.629C39.8301 38.5848 39.8312 38.5406 39.8183 38.5164C39.8008 38.4139 39.7586 38.2189 39.767 38.1647C39.8316 38.2856 39.9062 38.4135 39.9779 38.5243C40.1214 38.746 40.2861 38.9377 40.35 39.2082C40.1894 38.9894 40.0431 38.7506 39.9109 38.4918C39.873 38.6302 40.1362 39.192 40.1436 40.2635C40.1879 40.6253 40.2272 41.1637 40.3228 41.5167C40.4313 41.8938 40.5877 42.1397 40.8239 41.7212L40.685 41.2174C41.0116 40.968 40.988 41.4469 40.9498 41.8404C40.8945 42.2367 40.8416 42.5447 41.2216 42.0928C41.2902 41.826 41.2098 41.6639 41.1547 41.4447C41.394 41.7643 41.8666 41.2878 41.8386 40.0967C41.6932 40.0688 41.5577 40.0479 41.4222 40.0272L41.1817 40.1123C41.2053 39.6334 40.9628 39.5518 40.7727 39.4172C40.5755 39.2927 40.4379 39.1052 40.294 38.7781C40.3536 38.7151 40.299 38.6014 40.4161 38.6693C40.6972 39.0784 41.2749 39.5775 41.8317 39.4911C41.8576 39.5394 41.8776 39.5535 41.9076 39.5748C41.8959 39.5064 41.8872 39.4552 41.8813 39.421C41.3627 39.114 42.3538 38.9445 41.9982 38.7679C42.1266 38.7987 42.245 38.8224 42.3333 38.8249C42.6688 39.9634 43.1401 38.555 43.4342 40.6854C43.2212 40.5196 43.0211 40.378 42.8239 40.2535C42.9368 42.3006 43.7097 41.7814 44.1517 42.5148C44.1252 42.9766 43.9341 43.6073 43.7743 44.2151C43.6174 44.8399 43.5046 45.4659 43.6528 46.1264C43.5408 46.6028 43.478 46.9038 43.4918 47.1388C43.4957 47.3668 43.5687 47.4335 43.6433 47.5614C43.8039 47.7802 44.0297 47.9701 44.0332 48.4531C43.7948 48.3444 43.6498 48.0616 43.5671 47.7327C43.5279 47.5548 43.4944 47.411 43.4765 47.203C43.4597 46.9509 43.4429 46.6987 43.4249 46.4908C43.3983 46.5921 43.3858 46.6733 43.3692 46.7817C43.3716 46.6933 43.3499 46.6179 43.2999 46.5825C43.0705 47.2461 43.2153 47.7841 43.2772 48.2484C43.3461 48.7026 43.3487 48.9748 42.8939 48.5778C42.9792 48.2026 42.9932 47.8221 42.9589 47.4675L42.8991 46.8094C42.8753 46.5672 42.8314 46.3109 42.7734 46.0746C42.5313 45.1224 42.2485 44.2914 42.0652 43.4258C42.1162 42.696 41.9285 42.1126 42.07 41.552C41.6545 41.6934 41.2812 42.0299 40.9897 42.8448C41.2291 43.1644 41.4317 43.2176 41.6118 43.3451C41.7919 43.4726 41.9324 43.6772 41.9797 44.4165C41.9307 44.9525 41.9659 45.5181 42.0382 46.0949C42.0776 46.6333 42.1269 47.1789 42.1687 47.629L42.5843 47.4876C42.7597 48.5128 42.4243 50.408 42.9074 50.4045C42.6673 50.2346 42.4895 50.6343 42.5213 51.0773L42.2493 50.4643C41.8997 50.6824 41.5993 52.0616 41.3378 51.5612C41.1157 52.9358 41.5845 52.9523 41.0827 54.2341C40.7922 55.2599 42.1891 56.0234 41.5254 57.7462C40.952 57.941 41.4211 56.3658 40.7299 57.0029C40.2412 58.6694 40.5909 59.1722 40.9492 59.9815C41.265 59.5142 41.3627 60.0339 41.6566 60.1067L41.3146 60.7808C40.9344 60.5116 41.5454 60.4335 41.1985 59.9477C40.8994 60.3066 40.7436 60.5268 40.5854 61.1958L40.3415 60.7978C40.087 61.2635 40.3464 61.9577 39.8134 61.9258L40.1972 63.0385C39.5965 63.8447 40.0354 64.2005 40.0627 64.9257L40.4323 64.3613L40.0879 65.1237C40.1832 65.7317 40.6733 64.7421 40.5619 65.6845C40.107 64.927 40.0025 66.4749 39.3589 66.2596C39.4625 65.8374 39.7286 65.0796 39.3056 65.1256C39.2257 65.4295 38.7462 65.9161 38.3416 66.2755C38.4541 66.265 38.2704 66.6306 38.4301 66.6384C38.9898 66.569 39.527 66.5738 40.0588 66.6499C40.2343 66.699 39.8921 66.6521 39.4891 66.7123C39.0932 66.7624 38.6393 66.9367 38.6569 67.0393C38.493 66.698 38.4707 67.1327 38.086 67.1458C38.2533 67.6096 38.7538 67.7086 38.8514 67.8678C38.8673 67.909 38.9839 67.8715 39.014 67.8927C38.8648 67.9974 38.7056 68.0949 38.5293 68.1954C39.1494 67.9135 38.4794 68.5206 39.2174 68.1569C39.5058 67.9405 38.9777 68.0924 39.4482 67.8096C39.7233 67.8241 39.9883 67.8315 40.2605 67.8289C40.3317 67.8343 40.3901 67.8155 40.4684 67.8109L41.0723 67.7427C41.4524 67.6513 41.8412 67.6112 42.1984 67.4886C43.6486 67.0734 44.8767 66.3357 45.7086 65.2876C46.1239 65.7618 46.7933 64.6888 47.1679 64.3081C47.1236 63.9464 46.7606 64.0349 46.7507 64.3883C46.7734 63.6985 46.9221 63.4884 47.1519 62.9302C47.7063 62.9321 47.7907 62.3461 47.7601 61.8589C47.9265 62.1119 48.3719 61.9916 47.8208 62.7278C48.0608 62.5373 48.1248 64.1444 48.6853 62.9493C48.4298 61.5069 48.2614 60.1112 48.4046 58.6357C48.6419 57.8125 48.3238 57.3921 48.6613 57.0002L48.8589 57.2302C49.0109 56.7821 48.6769 56.6809 48.4868 56.5464C48.5137 55.8295 49.1052 56.2032 49.3228 56.4473C49.1401 54.7111 48.3377 54.3384 48.1692 52.5821C48.3099 52.1711 48.871 52.418 48.6865 51.5966C47.9842 48.982 46.9415 47.1026 46.2004 44.4155L46.2981 43.5986L45.3749 43.2905C44.6221 40.535 43.3401 38.3361 42.0755 35.5187C42.3073 35.7428 42.4228 36.1099 42.6666 36.1474C42.1258 35.299 40.8256 34.8443 40.5782 33.9633C40.399 34.0467 40.9962 33.7335 41.16 33.7143C40.4307 32.7926 39.5163 32.5358 38.7465 31.4804C38.804 31.2507 39.2838 31.8457 39.3016 31.3326L38.8742 30.6847C39.359 31.1029 39.077 30.1224 39.2329 30.2628C39.2563 30.3995 39.2372 30.5962 39.3931 30.7366C39.6589 30.5944 39.3712 29.9401 39.3606 29.4671C39.1813 29.19 38.8757 29.0488 38.87 29.3751C38.836 28.7654 39.0317 29.1892 39.3075 29.0541C39.1176 28.3039 38.9168 28.3119 38.4925 28.4021C38.2325 28.5785 38.2324 28.5785 38.2264 29.1599C38.1486 28.2938 37.817 27.3833 37.9639 26.7514L37.4852 26.4727L37.5402 26.3314C37.3793 26.3677 37.294 26.3823 37.2469 26.364L37.2956 26.4436C35.5041 24.7099 34.7728 21.3089 33.5832 18.7248C33.4646 17.9801 33.3631 17.2324 33.2857 16.4718C33.9612 17.4906 34.2353 19.2464 34.6843 19.6093L34.4958 19.1755C34.6032 18.9812 34.6802 19.9969 35.1232 19.965L35.2014 19.2394C35.1527 18.1838 34.0802 18.9564 34.5341 17.806C35.0413 19.1262 34.7922 17.2077 35.3785 18.0132C35.5917 17.5634 35.039 17.2623 34.5641 16.8511C34.6568 17.187 34.7394 17.5157 34.7549 17.8121C34.4164 17.6325 34.451 16.3956 33.845 16.297C33.817 16.082 33.8578 15.9606 33.9144 15.8806C33.8889 15.5772 34.0606 15.3984 34.2281 15.2466C34.2035 15.1541 34.1859 15.0516 34.1355 14.9107C33.8296 15.0246 33.3509 14.3854 33.3965 13.7269C33.4043 13.5672 33.7272 14.066 33.941 14.0822C34.3756 12.7679 34.1726 11.6331 34.5297 10.1738C34.2898 10.7249 33.8949 10.9859 33.7557 11.0977C33.7123 10.9468 33.6931 10.783 33.6909 10.6163C33.5525 10.5784 33.5 10.2709 33.4561 10.0146L33.7071 10.4025C33.7424 9.99197 33.8047 9.58556 33.6325 9.29845C33.4236 9.10555 33.3132 8.92225 33.7915 8.47988C33.7883 8.71786 33.8758 8.86994 33.9646 8.97786C34.0529 8.61981 34.1198 8.29179 34.141 7.90125C34.2806 7.89496 34.7161 7.76768 35.0314 7.19492L34.2791 7.21813C34.991 6.08508 34.8947 6.24219 35.13 5.61277C35.5184 5.46718 35.7463 5.10289 35.9183 4.66897C36.0974 4.22503 36.2977 3.75107 36.4584 3.35424L37.0605 1.88818L38.2026 3.37235C38.4719 3.71319 38.61 4.00614 38.3971 4.20085L37.9951 3.49582L37.3604 2.35575L36.6555 3.47874L36.4489 3.81309C37.1199 3.77744 36.8871 5.2946 37.4205 5.07144L37.6374 4.12865L37.0288 4.11841L37.3936 4.45175C37.2193 3.02183 38.7805 5.20812 39.2229 4.71034C39.5474 5.27038 39.2208 5.88021 39.9254 6.34885C40.0231 6.86854 39.2976 6.17487 39.4541 6.78123C39.6964 7.11791 40.009 6.8886 40.1384 7.4908C40.0471 7.47124 39.7986 7.35544 39.7407 7.47966C39.8377 8.14898 40.1981 7.78837 40.5872 8.46926L40.5608 8.31542C41.086 8.50696 40.7187 9.23816 40.6112 9.43242C40.9698 9.98661 41.3214 10.5508 41.6558 11.1179C41.3273 10.9455 40.7481 10.13 40.6995 10.7715C39.9396 10.3387 40.4269 7.99539 39.3589 8.48589C39.2532 9.10192 40.2016 9.60802 39.8538 10.2479C40.371 10.2385 40.658 11.0424 41.012 11.5183L40.8946 11.7055C41.1729 12.8186 41.7826 11.448 41.9889 12.7053C41.8714 12.8925 41.4171 12.6009 41.6111 13.324C41.7541 13.4402 41.9064 13.7132 42.1243 13.7023L42.1504 13.4955C42.4271 13.2107 42.5717 14.3643 42.6481 14.914C42.3692 14.6715 42.0671 14.6529 42.0593 15.173C41.8985 14.2332 41.0139 14.6133 40.8724 13.8373C41.1483 14.0627 41.6374 14.8143 41.7718 14.2637C41.89 13.5664 41.1985 13.122 40.8289 12.3498L40.9224 12.8966C40.1744 13.2532 39.9809 11.6595 39.1544 11.6602C39.2295 11.8935 39.33 12.0698 39.2033 12.1003C39.3696 11.9927 38.9463 11.3176 38.8549 10.9375L39.3135 11.2021C39.5473 9.89581 38.7472 10.4108 38.598 9.1788C38.9114 9.16036 39.6551 10.7831 39.6052 9.77161C39.231 9.89718 39.2786 9.04482 38.9723 9.05326L39.2433 8.11874C38.8175 7.53206 38.2305 6.87625 37.8786 6.56712C38.2713 6.75495 38.3876 6.9725 38.7508 7.24453C38.2145 6.4745 38.9219 5.62361 38.0782 5.26671L38.1576 5.83347C37.8481 5.10379 37.6334 4.87672 37.3161 4.66719C36.8656 4.60357 36.9625 5.27295 37.0769 5.68427C36.9371 5.33006 36.7998 4.52698 36.4743 4.73214C36.4839 4.63378 36.4793 4.55542 36.4576 4.47999L38.1675 4.50392C37.9305 4.71156 37.9147 5.03083 38.0352 5.22125C37.5298 5.65946 37.6865 5.28976 37.3868 5.18275C37.321 5.4666 37.116 5.86216 36.9849 6.17479C36.8666 6.51159 36.8593 6.77668 37.1785 6.79241C37.3502 6.61355 37.4654 5.89917 37.7252 6.33837C37.1367 6.34232 37.8124 6.74552 37.5475 7.09862C37.3455 6.17469 36.7471 7.86874 36.5819 7.21112C36.2233 7.99354 36.5163 8.21598 36.5403 8.81864L36.151 8.75329C36.1523 9.06963 36.1196 9.39188 36.148 9.71237C35.6642 9.8655 35.2355 9.26168 34.9503 10.2162C35.4253 10.9879 36.2409 10.7692 36.4238 11.8899L35.8928 11.6642C35.7845 12.0081 35.9745 13.1187 36.3287 12.979C36.5741 12.7172 36.7978 12.3799 36.8502 11.9664L36.8294 12.1019C37.1026 12.6707 37.4893 11.1273 37.5043 12.2943C36.7848 11.9953 36.517 14.0284 36.1997 14.7949C36.4537 15.2 36.8462 16.0034 37.1576 16.1788C37.3267 16.0883 37.3511 15.4598 37.7467 15.6647C37.4472 17.2548 38.7102 17.6983 38.4261 19.2242C38.3589 19.1917 38.2351 19.2392 38.3948 19.6076L38.252 19.8519C38.3925 20.0565 38.5389 20.2952 38.5427 20.5232L38.8423 21.6063C38.7556 21.6651 38.987 21.7838 39.1871 21.9254C39.1796 21.83 39.1721 21.7346 39.1487 21.5979L39.1871 21.9254C39.3442 22.0217 39.4773 22.1309 39.4636 22.2563C39.9325 22.2728 39.4943 23.104 39.5561 23.5683C39.5344 23.4929 39.4456 23.385 39.3997 23.3225C39.5442 24.1156 40.4378 24.1473 40.2635 25.0301L40.1602 25.1973C40.1297 25.0706 40.0793 24.9298 40.018 24.9315C40.0585 25.0653 40.0931 25.1648 40.1277 25.2644C40.1962 25.6132 40.2074 25.5762 40.2111 25.4436C40.4643 25.9983 40.6572 25.7894 41.0213 26.6328L40.9919 26.1014C41.1154 26.309 41.18 26.4297 41.1875 26.5252C41.587 26.9581 42.4443 28.1656 42.5692 29.05C43.3921 29.5423 43.5963 29.2964 44.2559 30.274L43.7562 30.3858L44.2289 31.6064C43.965 31.5548 44.0932 32.2012 44.4127 32.938C44.4027 32.9309 44.3998 32.9138 44.3897 32.9067C44.1066 33.6674 44.9212 34.214 45.2272 34.4606C45.4344 34.5922 45.8676 34.9138 45.7513 35.0568C46.1773 35.0279 46.4792 35.6622 46.8591 36.1864C46.8662 36.1764 46.8733 36.1664 46.8904 36.1635C46.9091 36.2218 46.9408 36.3043 46.9854 36.4109C47.0037 36.3638 47.0291 36.3067 47.0474 36.2596C47.0956 36.8493 47.8162 36.7437 47.7798 37.559C48.0678 38.5737 46.935 37.6067 47.3405 38.7948L47.8366 39.176C47.8246 39.3627 47.7558 39.269 47.6616 39.2323C47.9756 39.6799 47.7998 40.2463 48.3583 40.2211C48.1846 39.2571 48.2746 38.9604 47.9542 38.0127C48.668 38.9986 49.1648 38.8696 49.7115 39.7522C49.8511 39.7459 49.7235 39.5655 49.7426 39.3687C50.0666 39.8233 50.0234 40.3935 49.7108 40.2623C49.891 40.7503 50.392 40.5943 50.7369 41.2739L51.4081 40.9832C52.1382 41.7552 52.2191 42.9989 52.3394 43.8049C52.0337 42.9427 51.2519 42.4345 50.9717 41.8757C50.4633 42.2968 50.0905 41.7626 49.7786 41.1213C49.4695 40.497 49.1942 39.7615 48.9245 39.6757C48.9856 40.2896 48.1463 39.2901 48.5214 40.3515C49.2054 40.7005 49.0317 41.0732 49.3749 41.6916C49.2205 42.228 48.5788 41.4584 49.1794 42.6044C49.09 42.0305 50.0855 42.9154 49.5217 42.0358C50.7088 43.3716 50.6081 43.8109 51.4751 45.2806C50.9095 43.9792 52.2475 45.6321 52.208 44.7331C51.7092 45.0559 50.9841 42.7705 51.4349 44.5313C51.228 44.1446 51.0482 43.762 50.8272 43.3953C51.0413 43.1564 51.6782 44.4632 51.569 43.2596C52.2641 44.1871 52.1533 44.6194 52.9363 45.4439C52.5199 45.3744 52.8155 46.4847 52.523 46.7282C52.7115 47.162 53.2301 47.469 53.0473 48.0454L52.6099 47.3904C52.7627 48.1293 52.3772 48.292 52.437 48.9501C52.6197 49.3497 52.8989 49.3371 53.0489 49.0828C53.1547 50.1639 53.716 51.1319 53.6285 52.3164C53.483 50.9519 53.0549 52.1507 52.8707 51.0742C52.8491 51.3593 52.8347 51.6344 52.7861 51.9153C53.6272 53.3367 54.427 55.75 55.2111 56.1698C55.4207 57.1892 55.1273 57.5823 54.9324 57.985C54.7404 58.4047 54.6055 58.8499 54.9331 60.1481C54.8959 59.7763 54.381 60.3129 54.2163 60.1212C54.1268 60.5235 53.9245 61.1912 53.9722 61.6755C54.1776 61.3854 54.3629 61.081 54.5312 60.7797C54.7075 62.0158 53.9507 63.6577 53.4419 64.9495C53.4334 64.6432 53.0231 64.9684 53.1649 64.1527C52.8752 64.0528 52.6054 64.9431 52.3875 65.3145C52.1965 66.3057 53.0371 65.9245 52.6474 67.0903C51.7718 68.6031 50.6166 70.0231 49.2066 71.1876C47.7866 72.3451 46.1402 73.2072 44.4825 73.7458C43.6544 74.0458 42.8101 74.199 41.9757 74.3593L40.4774 74.5453C39.8435 74.5922 39.2121 74.5507 38.5894 74.5605C37.3128 74.6031 36.1279 74.4101 34.9134 74.3013L31.2322 73.8583C31.5236 71.7067 31.8292 69.5352 32.1919 67.389C32.2751 66.8472 32.3683 66.3125 32.4856 65.7648L32.7682 64.5381C32.9039 63.9433 33.0424 63.3656 33.1981 62.7849C33.7966 60.4753 34.4882 58.2466 35.1543 56.075L35.3868 56.1494C35.7769 53.7524 36.3038 51.332 36.6869 48.945C36.7955 48.3461 36.8869 47.75 36.9513 47.1498L36.9995 46.7634C37.0107 46.7263 37.0221 46.6893 37.0192 46.6722L37.067 46.5409C37.1303 46.3454 37.1919 46.0886 37.2147 45.7594C37.2296 45.5897 37.2416 45.403 37.2266 45.2121L37.211 44.9158C37.2123 44.8716 37.2399 44.9812 37.2286 45.0183L37.0974 45.3309C37.3614 44.7669 37.261 44.9512 37.1311 45.2196C36.997 45.5151 36.8771 45.7907 36.7459 46.1033C36.6526 46.2776 36.7122 46.2146 36.7203 45.7999C36.5571 46.2851 36.5435 46.4106 36.5151 46.4506C36.501 46.4706 36.4909 46.4635 36.4638 46.4593C36.4468 46.4623 36.4781 46.4394 36.4197 46.4582L36.1693 46.5362L35.6613 46.7022C34.9712 46.9346 34.284 47.1841 33.6773 47.5956L33.4166 47.306C32.0383 48.5531 30.0495 47.3105 28.4026 48.0671Z" fill="#E0E1DC"/>
<path d="M38.2652 19.8039L38.3112 19.6223C37.8893 19.3566 38.0495 19.503 38.2652 19.8039Z" fill="#E0E1DC"/>
<path d="M42.2172 29.4783C42.4311 29.2396 42.384 28.8613 42.2573 28.5316C42.1937 28.6215 42.0588 28.7061 42.0197 28.8885C41.7996 28.0126 41.3764 27.593 41.1046 26.6205C40.9956 26.7534 40.5991 26.5928 41.2389 27.4057C41.349 26.8685 41.4835 29.3491 42.2172 29.4783Z" fill="#E0E1DC"/>
<path d="M33.8479 9.57105C33.8035 9.50251 33.7504 9.4463 33.6973 9.39014L33.8479 9.57105Z" fill="#E0E1DC"/>
<path d="M34.3038 15.1689C34.3185 15.0026 34.3724 14.8641 34.4782 14.7771C34.5403 14.9388 34.4374 15.0426 34.3038 15.1689Z" fill="#E0E1DC"/>
<path d="M37.0885 26.1912C36.8702 25.854 36.5805 25.3595 36.7207 25.0322C36.9619 25.6599 37.0385 26.0036 37.0885 26.1912Z" fill="#E0E1DC"/>
<path d="M38.2502 66.3346C38.2431 66.3447 38.233 66.3376 38.2187 66.3577C38.5195 66.5101 38.0853 66.7174 38.284 66.8429C38.0468 67.1139 37.8345 66.8577 37.7819 66.654C37.8075 66.5965 38.0138 66.4548 38.2502 66.3346Z" fill="#E0E1DC"/>
<path d="M39.5226 39.5256C39.635 39.3667 39.6739 39.1856 39.7367 38.9916C39.7214 39.0553 39.7255 39.0284 39.7168 38.9775C39.7127 39.0044 39.7086 39.0313 39.7115 39.0483C39.7086 39.0313 39.7085 39.0313 39.6945 39.0512C39.6763 39.0979 39.6611 39.1616 39.6288 39.2282C39.5338 39.4888 39.4007 39.782 39.3027 40.0256C39.1408 40.507 39.035 40.5513 39.1317 40.3515C39.1821 40.2382 39.2578 40.0682 39.3586 39.8416C39.4148 39.7622 39.4581 39.6588 39.5226 39.5256Z" fill="#E0E1DC"/>
<path d="M43.4076 47.2124C43.4201 47.0179 43.4208 46.862 43.4277 46.7417C43.4135 46.8724 43.4097 47.0105 43.4076 47.2124Z" fill="#E0E1DC"/>
<path d="M39.5219 39.5115C39.5205 39.5585 39.6062 39.3472 39.7051 39.0493C39.6931 39.0888 39.6678 39.2149 39.5219 39.5115Z" fill="#E0E1DC"/>
<path d="M40.0135 13.9606L39.8538 13.697L39.778 14.3358C40.2746 15.2292 40.6302 15.1948 41.0693 15.3401C40.4875 14.567 40.5378 13.9855 40.1348 12.9175L40.0135 13.9606Z" fill="#E0E1DC"/>
<path d="M42.5019 12.8655C42.5775 12.7374 42.7714 12.4206 42.755 12.2727L42.4832 12.1863L42.5019 12.8655Z" fill="#E0E1DC"/>
<path d="M33.9207 4.26144C34.1474 3.94117 34.3741 3.62093 34.6479 3.31899C34.647 3.10804 34.3981 3.24729 34.1668 3.48917C33.9555 3.74523 33.7889 4.10806 33.9207 4.26144Z" fill="#E0E1DC"/>
<path d="M37.0787 6.69645L37.5191 7.02342C37.5431 6.53658 37.2569 6.01338 36.9544 6.07407C37.3604 6.51416 36.8798 6.26561 37.0787 6.69645Z" fill="#E0E1DC"/>
<path d="M32.7853 7.15652C33.1442 7.60618 32.3631 8.24206 32.767 8.54303C32.6771 8.22358 33.2172 7.31173 32.7853 7.15652Z" fill="#E0E1DC"/>
<path d="M37.3801 7.60685C37.8808 7.49476 37.643 6.98031 37.918 6.52794C37.764 6.91554 37.1148 7.34384 37.3801 7.60685Z" fill="#E0E1DC"/>
<path d="M33.7395 12.9556C33.3994 12.9256 33.3948 12.4858 33.4456 12.01C33.5605 12.1666 33.728 12.2701 33.7903 12.4798C33.4713 11.6971 33.5482 11.6311 33.3926 10.979C33.1254 11.6329 33.0326 12.6359 32.6123 12.5491C32.95 13.029 33.4665 13.5752 33.7395 12.9556Z" fill="#E0E1DC"/>
<path d="M37.1478 8.88714C37.3228 8.47016 37.7355 8.31165 37.8104 7.82384C37.5581 7.8406 37.185 7.92201 37.0964 8.53532L36.7645 8.24026C36.3561 8.73236 37.2955 8.10537 37.1478 8.88714Z" fill="#E0E1DC"/>
<path d="M33.2957 16.0349L33.4212 15.6873C32.9598 14.9994 33.0083 13.9951 32.4668 13.6118C32.5766 14.5626 32.9856 15.6649 33.2957 16.0349Z" fill="#E0E1DC"/>
<path d="M36.2751 11.0259L36.832 11.117C36.9083 10.474 36.6452 11.1667 36.5148 10.9228C36.5887 10.7327 36.658 10.4635 36.5625 10.3201C36.6032 11.0763 36.1083 10.3623 36.2751 11.0259Z" fill="#E0E1DC"/>
<path d="M36.9795 13.1002L37.3085 13.8899L37.8394 13.1822C37.5171 12.2769 37.4882 13.1894 36.9795 13.1002Z" fill="#E0E1DC"/>
<path d="M36.7189 14.1638L36.6317 14.266C36.9755 14.6434 37.2993 15.0067 37.6402 15.3672C37.1694 14.7061 37.2215 14.6536 36.7189 14.1638Z" fill="#E0E1DC"/>
<path d="M38.8101 30.6219C39.0902 30.6537 38.9975 29.8011 38.9103 30.2237C38.6717 30.1759 38.8775 31.2751 38.8101 30.6219Z" fill="#E0E1DC"/>
<path d="M41.4305 25.8039C41.4223 26.2195 42.2476 27.18 42.635 27.5896C42.2442 27.0572 41.6752 25.5857 41.4305 25.8039Z" fill="#E0E1DC"/>
<path d="M42.7647 27.7863C42.7298 27.7456 42.6735 27.6898 42.6035 27.6084C42.6553 27.6929 42.7116 27.7487 42.7647 27.7863Z" fill="#E0E1DC"/>
<path d="M54.0879 48.6753C54.1111 48.7475 54.1467 48.8284 54.221 48.8809C54.1555 48.816 54.1235 48.7562 54.0879 48.6753Z" fill="#E0E1DC"/>
<path d="M53.8309 48.1219C53.8023 47.7 53.4591 46.9661 53.161 46.9039C53.4683 47.4784 53.6625 48.0027 54.1086 48.6755C54.0354 48.4005 54.11 48.0219 53.8309 48.1219Z" fill="#E0E1DC"/>
<path d="M54.6847 53.9476C54.501 53.6511 54.5437 53.2273 54.3174 53.3546C54.2334 53.5374 54.5348 54.1594 54.6847 53.9476Z" fill="#E0E1DC"/>
<path d="M40.5282 63.2813C40.7775 62.8221 40.769 62.5134 40.3872 62.561C40.2487 63.0987 40.5264 62.8562 40.5282 63.2813Z" fill="#E0E1DC"/>
<path d="M40.5118 61.9634L40.6939 61.9411L41.04 61.6872L40.5118 61.9634Z" fill="#E0E1DC"/>
<path d="M41.991 58.7021C42.0441 58.7397 42.0734 58.8561 42.092 58.965C42.0911 58.7411 42.0856 58.5459 41.991 58.7021Z" fill="#E0E1DC"/>
<path d="M42.0729 59.0979C42.0798 59.053 42.0819 58.9799 42.0723 58.9233L42.0729 59.0979Z" fill="#E0E1DC"/>
<path d="M41.8885 59.2414L42.057 59.3299C42.045 59.2597 42.0518 59.1413 42.0513 59.0332C42.0518 59.1413 41.9966 59.2409 41.8885 59.2414Z" fill="#E0E1DC"/>
<path d="M42.1877 57.6596L41.4934 58.1887C41.5617 58.9529 41.9687 57.4741 42.332 58.2949L42.1877 57.6596Z" fill="#E0E1DC"/>
<path d="M42.7166 55.329C43.0328 54.7127 42.4287 53.595 43.1181 53.3629C43.1553 51.4239 42.0215 53.5768 42.1973 51.4209C41.508 53.3484 43.1949 52.6821 42.4648 54.3706C43.0337 53.5881 42.634 55.0005 42.7166 55.329Z" fill="#E0E1DC"/>
<path d="M41.5381 55.3511C41.8193 55.5348 42.0355 54.713 41.8925 54.3986C41.7996 54.6374 41.2835 54.9576 41.5381 55.3511Z" fill="#E0E1DC"/>
<path d="M43.2004 51.5925L43.5564 51.0461L43.3809 50.8604C43.3251 51.1127 43.2489 51.3505 43.2004 51.5925Z" fill="#E0E1DC"/>
<path d="M43.6975 49.395L43.9745 50.03C43.8673 49.8179 44.0115 48.9513 43.6975 49.395Z" fill="#E0E1DC"/>
<path d="M44.3863 45.4717C44.4861 44.4589 43.6499 43.8971 43.8577 45.7296L43.88 45.2939C44.0133 45.4033 44.294 44.2627 44.3863 45.4717Z" fill="#E0E1DC"/>
<path d="M40.538 38.3131C40.7682 38.4155 41.0828 38.4414 41.0966 38.315C40.8467 38.3046 40.6009 38.2668 40.3796 38.2161L40.538 38.3131Z" fill="#E0E1DC"/>
<path d="M40.1035 39.2603C40.0473 39.8074 40.3893 40.0043 40.4835 40.6578C40.3605 39.9387 40.3936 39.9772 40.1035 39.2603Z" fill="#E0E1DC"/>
<path d="M39.9605 37.9494C40.1873 37.9284 40.5061 37.927 40.6901 37.9664C40.6522 37.8488 40.0638 37.9318 39.9605 37.9494Z" fill="#E0E1DC"/>
<path d="M40.0339 38.2458C40.0549 38.2161 40.0982 38.1128 40.1023 38.086C40.0317 38.0807 39.8217 38.1254 39.4766 38.2976C39.3569 38.3617 39.2471 38.4327 39.1472 38.5108C39.2381 38.6346 39.2663 38.952 38.9922 39.2341L39.1709 39.1077C39.908 38.5286 40.1011 38.1298 39.993 38.2615C40.0049 38.0766 39.9677 37.961 39.8137 37.9263C40.0465 37.9126 40.0355 37.9494 40.047 38.0171C40.0784 38.0989 40.0421 38.1922 40.0339 38.2458Z" fill="#E0E1DC"/>
<path d="M40.2176 38.4538C40.1498 38.3155 40.0578 38.1902 39.9616 38.092C39.9875 38.1404 39.9374 38.1049 39.8643 38.0381C39.8501 38.0582 39.9137 38.2237 39.9384 38.3164C39.9213 38.3194 39.9053 38.278 39.8865 38.2195C39.8806 38.1852 39.8748 38.151 39.8589 38.1096L39.84 38.0511L39.876 38.1067C39.991 38.2633 40.1344 38.3799 40.2176 38.4538Z" fill="#E0E1DC"/>
<path d="M33.9789 40.4256C33.6429 40.5991 33.3171 40.7798 32.9853 40.9257L33.339 40.8562L33.9789 40.4256Z" fill="#E0E1DC"/>
<path d="M33.2399 40.4903L33.1486 40.3196C32.9236 40.5089 32.7088 40.7054 32.4666 40.8976C32.7277 40.7642 32.9788 40.6237 33.2399 40.4903Z" fill="#E0E1DC"/>
<path d="M32.0423 40.5914L32.1659 40.588C32.3607 40.4838 32.5354 40.3653 32.7202 40.2539C32.5081 40.3611 32.2716 40.4813 32.0423 40.5914Z" fill="#E0E1DC"/>
<path d="M29.9018 40.9527L30.1458 41.1861C30.3998 41.0628 31.0088 41.2514 30.8779 40.9011C30.6673 41.0702 30.0953 41.1503 29.9018 40.9527Z" fill="#E0E1DC"/>
<path d="M21.2913 47.788C21.6168 47.6703 21.4781 47.4813 21.3466 47.2823C21.1618 47.3936 20.9799 47.5222 20.785 47.6264C20.9316 47.6545 21.1988 47.662 21.2913 47.788Z" fill="#E0E1DC"/>
<path d="M19.5661 46.4665C19.1136 46.4912 18.5894 46.4052 18.0723 46.3092C18.8131 46.7886 19.2761 46.8763 19.6791 46.9215C20.1122 46.988 20.4665 46.9537 21.0577 47.0721C20.6309 46.785 19.8115 46.9252 19.2048 46.5107L19.5661 46.4665Z" fill="#E0E1DC"/>
<path d="M27.3029 30.3034C27.3271 30.6506 27.5102 30.5402 26.9342 30.9726C27.7534 30.4723 28.5398 30.2938 29.5218 29.9237C29.2848 29.771 29.9129 29.1804 29.5637 29.3983L28.5085 29.9566L28.6012 29.6771C27.7315 29.6766 28.2063 30.1928 27.3029 30.3034Z" fill="#E0E1DC"/>
<path d="M52.0309 30.7066C52.0944 30.5106 51.9026 30.42 51.7179 30.3194C51.0724 30.7208 52.1663 30.6217 52.0309 30.7066Z" fill="#E0E1DC"/>
</svg>
