<svg width="94" height="95" viewBox="0 0 94 95" fill="none" xmlns="http://www.w3.org/2000/svg">
<path d="M46.0444 53.7541C45.4971 53.7148 45.9949 53.9309 46.2635 54.2572L46.0444 53.7541Z" fill="#AD4419"/>
<path d="M46.1914 54.2544L46.3635 54.64C46.3676 54.4945 46.2889 54.3729 46.1914 54.2544Z" fill="#AD4419"/>
<path d="M47.672 57.4071C47.0298 56.8471 46.9667 55.8091 46.2691 55.6464C46.3784 56.4914 47.0981 57.4524 47.672 57.4071Z" fill="#AD4419"/>
<path d="M47.3826 56.2016L47.0894 56.2517L47.826 56.667L47.3826 56.2016Z" fill="#AD4419"/>
<path d="M47.457 55.5552L47.4119 55.7039L48.2166 56.5443L47.457 55.5552Z" fill="#AD4419"/>
<path d="M48.5375 59.9085L48.213 59.1972C48.3422 58.3554 48.8698 59.4815 48.9574 58.9112C48.6091 57.9572 48.0717 58.8865 47.7024 57.7069C47.5559 57.8289 47.7549 58.2708 47.9238 58.6914C48.0755 59.1149 48.1459 59.526 47.8389 59.5345C47.9775 60.5508 48.1643 59.4788 48.5375 59.9085Z" fill="#AD4419"/>
<path d="M43.7725 54.0308C43.7822 53.9676 43.7719 53.9078 43.7734 53.8562C43.7121 53.918 43.6825 53.9846 43.7725 54.0308Z" fill="#AD4419"/>
<path d="M54.4319 47.9599C54.6208 48.0334 54.8039 48.0726 54.9869 48.1118C54.9409 48.0491 54.8678 47.9823 54.7804 47.9356L54.4319 47.9599Z" fill="#AD4419"/>
<path d="M45.5586 62.3584C45.4647 62.5338 45.3951 62.6963 45.3326 62.8486C45.424 62.7621 45.5138 62.6139 45.5586 62.3584Z" fill="#AD4419"/>
<path d="M64.6061 39.5712C64.6256 39.5212 64.6419 39.453 64.6189 39.3729C64.6189 39.3729 64.6007 39.3761 64.5901 39.3685L64.4941 39.5717L64.6061 39.5712Z" fill="#AD4419"/>
<path d="M69.3121 48.0438C69.5091 48.0359 69.6961 48.0211 69.8607 47.9757C69.5409 47.9701 69.3902 47.9959 69.3121 48.0438Z" fill="#AD4419"/>
<path d="M44.566 67.0242C44.589 66.9481 44.6047 66.8822 44.6133 66.8267C44.577 66.878 44.5291 66.9674 44.4916 67.064L44.566 67.0242Z" fill="#AD4419"/>
<path d="M49.2877 47.0739C49.63 47.1041 49.9451 47.1301 50.1924 47.1232C49.8845 47.0872 49.5796 47.0684 49.2877 47.0739Z" fill="#AD4419"/>
<path d="M47.3487 71.2908C47.2109 71.4643 47.1717 71.6473 47.1667 71.8245C47.2992 71.7225 47.3856 71.5578 47.3487 71.2908Z" fill="#AD4419"/>
<path d="M45.3046 75.3509L45.3249 75.3223C45.2185 75.29 45.2227 75.3145 45.3046 75.3509Z" fill="#AD4419"/>
<path d="M43.4033 77.7105L43.4297 77.6425C43.3516 77.6306 43.3167 77.6492 43.4033 77.7105Z" fill="#AD4419"/>
<path d="M47.0489 71.7607C46.6772 72.0094 45.9778 71.7853 46.5011 72.5772L46.6352 72.5366C46.3575 72.7163 46.4111 73.236 46.2796 73.5493C46.3682 73.5518 46.4396 73.5572 46.5152 73.5355C46.6046 73.388 46.7394 73.1974 46.9553 72.9137C47.2739 72.6124 47.0436 72.1935 47.0489 71.7607Z" fill="#AD4419"/>
<path d="M43.8493 54.0324C43.654 54.0985 44.0001 54.6592 43.8493 54.0324V54.0324Z" fill="#AD4419"/>
<path d="M45.6454 58.3719C45.6605 58.2342 45.6568 58.0996 45.6719 57.9619C45.6381 58.1029 45.612 58.2328 45.6454 58.3719Z" fill="#AD4419"/>
<path d="M42.3469 73.3732C42.3703 73.3401 42.3938 73.307 42.4289 73.2573C42.3012 73.1917 42.2923 73.3097 42.3469 73.3732Z" fill="#AD4419"/>
<path d="M45.6523 57.6123L45.6493 57.9805C45.6672 57.8643 45.7033 57.745 45.6523 57.6123Z" fill="#AD4419"/>
<path d="M43.9414 68.8371C43.9604 68.8103 43.9794 68.7835 43.9983 68.7566C43.9659 68.774 43.947 68.8008 43.9414 68.8371Z" fill="#AD4419"/>
<path d="M17.206 41.6602C17.0387 41.8118 16.8489 41.6774 16.6341 41.7053C16.5273 42.3647 17.4294 41.3233 17.1008 42.0207C17.2527 41.9332 17.3888 41.8045 17.5149 41.6688L17.0181 41.3322C16.7194 41.6907 17.3329 41.375 17.206 41.6602Z" fill="#AD4419"/>
<path d="M60.4534 39.8539L60.5905 39.8477C60.4219 39.6695 60.4746 39.5742 59.959 39.6365C59.6688 40.1089 60.4794 40.3585 59.9046 40.9831C60.0273 40.8931 60.2424 40.8391 60.4534 40.8116C60.0513 40.6302 60.2229 40.2212 60.4534 39.8539Z" fill="#AD4419"/>
<path d="M60.4549 40.8138C60.4647 40.8207 60.4745 40.8277 60.4843 40.8346C60.5333 40.8693 60.5795 40.8873 60.6355 40.9122C60.7331 40.8783 60.8504 40.8582 60.937 40.8606C60.832 40.801 60.649 40.7892 60.4549 40.8138Z" fill="#AD4419"/>
<path d="M16.7973 45.3174C16.8338 45.4122 16.875 45.4759 16.9081 45.551C16.9205 45.3873 16.863 45.3465 16.7973 45.3174Z" fill="#AD4419"/>
<path d="M68.491 54.4631C68.3265 54.5187 68.1619 54.5743 68.033 54.6239C68.2853 54.599 68.4112 54.5317 68.491 54.4631Z" fill="#AD4419"/>
<path d="M67.7625 38.0558C67.9002 38.0596 68.0244 38.0384 68.159 38.0245C68.227 37.9946 68.2949 37.9647 68.391 37.9391L67.7625 38.0558Z" fill="#AD4419"/>
<path d="M45.9475 51.0358C46.0332 50.4054 45.7641 51.1464 45.1491 50.9965L44.759 51.4415C45.2264 51.3967 45.6003 51.1656 45.9475 51.0358Z" fill="#AD4419"/>
<path d="M17.549 41.7443C17.5431 41.7099 17.5229 41.6956 17.5312 41.6411C17.517 41.6612 17.517 41.6612 17.4885 41.7015L17.549 41.7443Z" fill="#AD4419"/>
<path d="M31.2119 54.8228C31.1206 54.8033 31.0393 54.7908 30.948 54.7712C30.998 54.8066 31.0793 54.8191 31.2119 54.8228Z" fill="#AD4419"/>
<path d="M63.3005 40.1338L65.081 39.5761L64.5199 39.6111C64.3686 39.9511 63.4402 39.726 63.3005 40.1338Z" fill="#AD4419"/>
<path d="M49.3508 50.123C48.7389 49.9903 48.397 49.6882 47.5232 50.2862C47.3899 50.4321 47.8519 50.8191 47.1433 50.7381L47.549 49.974C46.6304 50.1047 45.6828 50.4252 45.1195 50.9876L44.0547 51.2401L44.3213 50.9483C43.507 51.1228 42.6488 51.0409 42.076 51.7017C42.2826 51.3674 42.6316 50.6834 41.8744 50.8833L41.3177 51.3302C41.1977 51.2452 41.4773 50.9776 40.4505 51.4523C40.8077 51.6901 39.6204 51.946 39.2568 51.5685C39.4707 51.9452 40.2077 51.9862 40.342 52.4117C39.188 52.4509 39.7226 53.5201 38.6352 53.4863L38.6818 53.0387C37.8516 53.1719 37.3115 53.5105 36.8086 53.8604L36.8419 53.6436C35.3119 53.7471 34.3927 54.388 33.2305 53.8657L32.4413 54.2382C32.6413 54.0193 32.5383 53.9315 32.1519 53.8832C31.5151 53.913 30.593 54.5368 30.9585 54.7205C28.8024 54.3507 28.2393 55.2737 25.7506 55.1191C25.8555 54.6527 24.7494 54.921 25.1894 54.5116L24.4251 54.7215C24.5447 54.701 24.4459 54.586 24.4029 54.5406C24.1415 54.4007 24.0012 54.5566 23.8679 54.7025L23.9345 54.6296L22.8649 54.4432L22.7826 54.8354C22.5383 54.6925 22.2969 54.5667 22.0568 54.3968C22.6264 53.9739 23.7439 54.3895 23.9984 53.9239C23.6545 53.8157 22.5061 53.168 21.388 53.623C20.7232 53.4378 20.0438 53.1671 19.3914 52.9006C19.3717 52.6314 19.4839 52.876 18.8741 52.5494C18.3967 52.2266 18.278 52.458 17.5857 52.1631C17.8295 52.2006 17.9479 52.2242 18.0446 52.1725C17.29 51.6685 16.9126 52.0321 16.1952 51.8998C16.6167 52.153 17.0772 52.2237 17.4453 52.319C17.4957 52.4599 17.3774 52.4362 17.4061 52.5016L18.5099 52.6821C18.3724 52.8551 18.3527 52.5859 18.8788 52.9883C18.2052 52.7518 18.0439 52.6827 17.2849 52.4608C16.7781 52.5827 17.5485 53.1279 16.9712 53.0948C15.0117 52.3836 13.4483 51.0067 12.4417 49.5433C11.9042 48.8174 11.576 48.0294 11.2706 47.2726C11.0065 46.5 10.8366 45.764 10.688 44.998C10.6379 44.6021 10.5736 44.2262 10.5476 43.8174C10.5429 43.3785 10.5027 42.9897 10.5463 42.525C10.6235 41.5884 10.8303 40.6385 11.2997 39.7843C11.7621 38.9402 12.4583 38.1264 13.2237 37.5118C13.9649 36.9102 14.7408 36.4081 15.4996 35.9089C16.3749 35.9878 18.2453 35.8701 18.7707 35.446L18.524 35.3915C19.2256 34.867 19.8027 35.5157 20.3897 34.8349L20.9863 34.0557C21.4222 34.0339 22.4845 33.8697 22.3204 34.144C22.6117 33.9447 23.1272 33.8741 23.5486 33.7669C23.9857 33.7009 24.3429 33.5782 24.3569 33.1977C25.1305 33.1445 25.736 33.1376 26.3462 33.2091C26.9535 33.2635 27.5391 33.2424 28.2718 33.3105C28.1722 33.3452 28.1497 33.4194 28.1497 33.4194C28.4445 33.7031 28.8948 33.0457 29.2571 33.4674C29.0255 33.6037 27.858 33.5133 28.7842 33.8385C29.1651 33.5974 29.8494 33.6914 30.4376 33.9425C31.0299 34.1665 31.5343 34.4935 31.6448 34.6769C32.0112 34.7109 32.3776 34.745 32.7276 34.6323C33.2074 34.8668 33.6907 35.5843 32.9204 35.3996C34.3756 35.7837 34.1786 36.3803 34.7432 35.7736C36.5529 36.1235 37.086 37.4921 38.7591 37.8653C40.6519 39.6256 42.4114 41.5318 42.976 43.5984L43.2423 43.5616C42.6 43.6627 43.4609 45.3533 42.7143 45.0501C43.4751 45.3333 43.8901 46.423 44.0579 46.9923L43.6073 46.9287C43.2618 45.7831 43.313 46.7504 42.6495 45.5449C42.7695 45.6299 42.8213 45.7265 42.8992 45.6165C42.3868 45.0886 41.5453 43.9223 40.9804 43.4473L41.305 43.3918C40.6595 42.3942 39.5881 42.7622 38.6735 42.1449C38.3277 41.2543 38.9893 42.038 39.2917 41.4411C38.3249 40.6216 37.3536 42.397 37.2172 40.8287L37.4798 40.9245C36.3513 39.9305 38.1971 41.0568 37.5687 40.0563C36.5753 39.3381 36.5925 39.6957 36.5914 40.1004C36.5902 40.5051 36.6062 40.9069 35.6725 40.4862C36.0687 40.181 35.7523 39.8219 35.4637 39.3173C35.1808 39.4624 34.6589 39.3934 34.1158 39.3544C33.5769 39.2883 32.9968 39.2381 32.6013 39.3937C32.7688 39.2419 32.4194 38.8444 31.8129 38.6404C32.3121 38.4231 32.4944 38.7173 33.1855 39.0563C33.353 38.9045 33.7609 38.6677 33.5387 38.3452C32.6332 38.8606 30.6052 37.8006 29.8907 38.6615C30.2491 38.4947 29.5321 38.1073 29.6179 37.8376C29.2299 38.0886 28.641 37.9871 28.4376 38.0835L28.9345 38.315C28.4634 38.1318 27.885 38.1429 27.3028 38.2864C26.7194 38.4742 26.1372 38.6177 25.565 38.7684L25.5699 38.5917C25.1586 38.706 24.806 38.907 24.4506 39.0909C24.091 39.302 23.7285 39.4959 23.2684 39.5306C23.6346 39.2042 23.1143 38.8359 22.8742 38.6659C22.4943 38.1418 24.3592 37.3743 23.1617 37.2625C22.3688 37.7675 22.2303 38.7058 21.0171 38.9133C20.8268 39.3943 21.7553 39.2706 22.0229 39.1897C21.3749 39.6171 19.4962 39.7891 19.248 40.3943C19.6193 40.2516 19.8089 40.2807 19.8352 40.4345C19.7893 40.372 18.9021 41.8165 18.4928 41.737C18.5981 41.3761 18.4023 41.5678 18.5872 41.1581C18.03 41.1391 17.7946 41.408 17.5663 41.6669C17.2985 41.0268 18.6673 41.2147 18.3148 40.4397C17.3809 40.6346 16.9363 40.9657 16.6772 41.3529C16.5155 41.5389 16.4723 41.7485 16.3819 41.9399C16.3699 42.1266 16.3349 42.282 16.3937 42.3687C16.2911 42.3863 16.317 42.4346 16.0978 42.4897C16.0778 42.4756 16.0961 42.4284 15.9807 42.4218C15.6618 42.5115 15.6936 42.5941 15.7653 42.7049C15.8012 42.7603 15.827 42.8086 15.8146 42.8899C15.7921 42.9641 15.7312 43.0712 15.6396 43.3067C16.2324 43.6362 16.6345 44.7018 16.8481 45.3336C16.7368 45.2998 16.5264 45.4062 16.4022 45.3483C17.3249 46.5271 18.5012 46.6688 19.6598 47.6841L19.5902 47.74C20.488 48.1052 21.365 48.2453 22.5221 48.5838C22.227 48.5551 22.1007 48.691 22.0599 48.8123C23.5989 49.4811 24.9695 48.7543 26.7959 48.9958C27.2932 49.3328 28.4146 49.0002 28.2536 49.6521C29.7977 49.5286 27.5894 48.9567 29.0769 48.9133L28.9344 48.9025C30.7743 48.2976 32.554 48.6262 34.2921 47.8892C34.7444 48.0141 35.4663 48.2247 36.3549 48.0727C36.594 47.6713 37.1599 47.381 37.6486 47.0512C38.0946 47.0364 38.5447 46.9946 39.1669 46.8793C38.2941 46.7121 39.6056 46.5141 39.8256 46.3094C39.5098 46.7767 40.1096 46.7356 39.3308 47.2206C41.0904 47.1746 40.0547 45.9008 41.831 45.7464L42.2687 46.1464C41.9153 46.1365 41.6657 46.4254 41.3327 46.5352C41.6891 46.5621 42.8003 46.4776 43.2556 46.004C43.4452 45.6726 41.8248 45.9673 43.1274 45.3576C43.2361 46.0952 44.0505 44.9447 44.8863 45.4612C44.9121 45.149 45.4316 44.6908 46.0255 44.6155C46.1427 44.6834 46.056 44.7422 46.0193 44.8364C47.097 44.6081 46.1675 44.1604 47.118 43.8571C47.3623 43.9999 46.7394 44.6253 47.3038 44.6343C48.199 44.7273 47.7166 44.2207 48.6781 44.1353C48.3472 44.0513 48.4854 43.3681 48.9858 43.1066C49.1739 43.435 49.3729 43.9813 48.5324 44.3625C49.0771 44.4628 49.949 44.4191 49.3261 45.0445C50.2556 44.1556 51.7609 43.5991 52.7542 42.6202C52.9984 42.7631 53.3827 42.6446 53.8636 42.4744C54.3602 41.9849 54.3432 41.0117 54.9117 40.9936C55.0741 40.658 54.6299 40.7341 54.5323 40.5749L55.3194 40.0357C55.955 40.0501 54.8742 40.8769 55.3364 41.0089L56.232 40.8469C56.8724 40.324 56.0821 40.1251 55.7707 39.9497C56.6873 40.0127 56.6212 39.2151 57.2739 39.2265C56.1721 39.8283 58.1826 39.8097 56.7161 40.4387L57.3884 40.3588C57.5836 40.6772 56.6747 41.0701 56.6661 41.3794C57.6554 41.1486 57.7274 40.6438 58.6767 40.3847C58.6352 41.0161 57.554 40.7614 57.3492 41.5175C58.59 41.4196 59.1965 40.6475 59.7226 41.0499C59.2355 41.441 58.2214 41.2188 58.18 41.8502C58.5585 42.0581 59.0326 42.6189 60.013 41.9763C60.2792 41.579 59.5469 41.6164 59.056 41.7795L59.067 41.9975L58.8718 41.6791C59.4044 41.6056 60.089 41.0839 60.6211 40.905C60.7554 40.9699 60.8879 40.9737 61.0146 40.9432C60.9988 40.902 60.9687 40.8807 60.9287 40.8523C61.0071 40.8477 61.0813 40.8702 61.1413 40.9127C61.7489 40.7121 62.3555 39.9399 63.0015 40.0668L62.0277 40.594C62.2146 40.9665 62.9534 40.8138 63.8141 40.8072C64.51 40.609 65.9974 40.205 65.5821 39.7309L65.0687 39.9682C65.098 39.163 66.5037 39.9777 66.0941 39.1772C65.9016 39.131 65.7482 39.2628 65.5449 39.3591C65.9394 38.9926 65.7167 38.5647 64.889 38.6096L64.5076 39.3608C63.6656 39.0651 63.4341 39.9225 62.5076 39.8524C62.4754 39.6644 62.2999 39.6153 62.4603 39.4735C63.2421 39.3662 64.2052 38.9816 64.5639 38.5597C63.6546 38.8471 64.4479 38.0871 63.9453 38.1819C65.3243 37.7613 64.2846 37.2356 65.7803 36.7775L65.3729 37.4803C66.724 37.2052 66.5171 36.458 66.9566 35.9431C67.4692 35.8554 68.3451 36.4003 69.0797 35.9141C70.2943 36.0229 69.8163 35.234 70.6827 34.9011C70.6649 35.4142 69.8345 35.8025 69.344 36.0711C69.4153 36.0765 69.4665 36.0677 69.5249 36.0489C69.4765 36.0748 69.4282 36.1007 69.4228 36.1719C70.2185 36.2996 71.5929 34.8246 71.1944 35.9392C69.662 36.131 68.7493 37.2721 67.4046 38.0473C66.8661 38.0867 66.3856 38.3623 66.0247 38.257C65.9911 38.7288 66.0712 39.146 66.6606 39.3529C67.4043 38.6629 67.0442 38.408 68.1422 37.9387C68.9382 37.8113 69.885 37.28 70.5775 36.9593L70.3082 36.6184C71.1924 36.133 73.0716 35.706 72.883 35.2722C72.8173 35.556 73.252 35.5784 73.6487 35.3786L73.1862 35.8622C73.5193 36.113 74.9317 35.8363 74.5659 36.2682C75.9424 35.9359 75.7781 35.4892 77.2143 35.4545C78.3125 35.3458 78.5178 33.719 80.5742 33.7629C80.9624 34.2329 79.1773 34.336 80.0869 34.7696C81.9674 34.6589 82.4174 34.2566 83.2828 33.7128C82.6422 33.5147 83.2298 33.2998 83.2484 32.9976C83.5765 33.0646 83.9987 33.1682 84.3667 33.2636C84.0764 33.6738 83.7232 33.0483 83.1907 33.4824C83.4362 33.5811 83.7288 33.6981 84.0127 33.7638C84.161 33.8088 84.3165 33.8438 84.4961 33.8658C84.6658 33.8807 84.8855 33.9311 85.1893 34.011C84.9901 34.0803 84.7609 34.1282 84.6017 34.2258C85.3353 34.5048 86.5602 34.3656 86.4458 34.9304C87.0343 34.9264 87.6586 34.9779 88.2522 35.1578C89.2449 36.3861 89.8664 36.4205 90.5536 37.5076C90.5277 37.0988 90.3508 36.7333 90.2052 36.3449L90.546 37.0517C90.624 37.3022 90.6678 37.5585 90.7359 37.8018C91.3013 38.7427 90.9005 36.6569 91.5079 38.4084C90.7311 37.363 91.4389 40.2668 90.5979 40.1821C90.6914 39.3923 90.4659 37.9711 90.1313 38.3801C90.249 38.9139 90.0327 39.9622 89.564 40.6668C89.6932 40.5479 89.4502 41.6975 89.5231 41.7642C90.162 41.5405 90.7249 41.2332 91.2904 40.8374C91.3596 41.0366 91.2951 41.2763 91.1593 41.5106C90.9893 41.7507 90.7281 41.9713 90.4669 42.1919C89.9486 42.6059 89.4231 43.0299 89.309 43.3396C89.5482 41.9621 89.0749 43.5644 88.8151 43.1252C88.6711 43.7741 88.5946 44.5611 88.3994 45.2188C88.2242 45.8907 87.9977 46.5714 87.5186 47.1634L87.4751 46.652C87.1657 47.6195 86.8684 47.0636 86.3903 48.227C86.2471 48.7264 87.0811 47.4845 86.7684 48.3294C85.1294 50.263 82.8914 51.7275 80.6565 52.5935C78.4103 53.4966 76.1836 53.9479 74.1344 54.2545C74.1617 53.6431 72.3964 54.0154 71.6932 53.8631C71.3123 54.1041 71.6896 54.3562 72.0963 54.1635C71.2729 54.5418 70.8782 54.5477 70.0234 54.5885C69.6965 54.1168 68.9788 54.2396 68.3683 54.4231C68.6166 54.1784 68.273 53.8151 69.4055 54.061C69.0999 53.9198 70.8611 53.2141 69.2636 53.1796C67.7934 53.9411 66.0397 54.3819 64.2396 54.2941C63.2314 54.1061 62.748 54.3646 62.2848 54.0218L62.569 53.8324C62.0496 53.6751 61.9255 53.9777 61.7539 54.1565C60.9199 54.0618 61.4148 53.5111 61.699 53.3218C59.7568 53.3287 59.1956 54.0578 57.2096 53.8084C56.8011 53.5793 57.2094 53.0874 56.2987 53.0585C54.8366 53.0449 53.5117 53.1133 52.2151 53.1416C51.8988 53.143 51.5653 53.1473 51.2319 53.1515L50.7559 53.145L50.5521 53.1359C50.2941 53.1185 50.0303 53.0669 49.6622 52.9716C49.4621 52.83 49.235 52.6842 48.9736 52.5442C49.0316 52.7805 49.1409 53.008 49.2943 53.2368C48.9975 53.1469 48.6795 53.087 48.3673 53.0612L48.1264 53.0409C48.1023 53.0538 48.1281 53.1021 48.131 53.1192C48.1498 53.1776 48.1715 53.253 48.2032 53.3355C48.2608 53.4664 48.3312 53.6214 48.3734 53.8164C48.4256 54.0185 48.4961 54.1736 48.5429 54.447C48.5926 54.7375 48.6423 55.0279 48.6949 55.3355C48.7438 55.7756 48.7736 56.4124 48.7959 56.9538C48.659 56.6167 48.6885 56.172 48.4713 56.0333C48.5578 56.5901 48.9093 57.1542 49.1254 57.6976C49.3414 58.2411 49.5263 58.8074 49.4202 59.318C49.6169 59.3371 48.9413 59.2944 48.79 59.2324C48.9079 60.4873 49.5513 61.3181 49.5118 62.7318C49.3201 62.8965 49.3023 62.073 48.9907 62.5132L48.9401 63.3484C48.799 62.6779 48.4401 63.7154 48.3921 63.4862C48.4571 63.3519 48.5905 63.206 48.5425 62.9768C48.2444 62.9311 48.0809 63.6713 47.7876 64.0644C47.7577 64.4037 47.8987 64.7137 48.117 64.4478C47.7658 64.9651 47.8707 64.4987 47.5798 64.443C47.2666 65.1824 47.4266 65.2957 47.8122 65.4936C48.1315 65.5093 48.1315 65.5093 48.4914 65.0432C48.0174 65.819 47.6822 66.7381 47.1739 67.1593L47.3699 67.6885L47.242 67.7631C47.3862 67.8352 47.4633 67.8748 47.4892 67.9231L47.4988 67.8247C47.8101 70.3128 46.3158 73.4 46.3737 75.949C46.1827 76.5797 45.9845 77.2203 45.8688 77.8293C45.6544 77.3471 45.693 76.6986 45.7503 76.1084C45.7834 75.5312 45.8695 75.0064 45.7673 74.7689L45.7279 75.2065C45.5445 75.317 45.9498 74.4475 45.55 74.2696L45.1292 74.8429C44.6715 75.7654 46.0143 75.5444 45.1285 76.3291C45.1927 75.0079 44.6644 76.7515 44.4352 75.8234C44.0761 76.1398 44.4159 76.6357 44.7487 77.1416C44.7544 76.8152 44.8314 76.4943 44.9201 76.2417C45.0318 76.3808 44.9578 76.7189 44.9521 77.0452C44.9564 77.3786 45.0018 77.6962 45.2774 77.8161C45.2382 77.9987 45.1675 78.0988 45.0979 78.1547C45.0463 78.4185 44.8288 78.5348 44.6354 78.6382C44.633 78.7266 44.6405 78.822 44.6709 78.9487C44.9814 78.9132 45.363 79.4987 45.2498 80.0193C45.229 80.1547 44.9621 79.7255 44.7525 79.6823C44.6521 79.8665 44.5788 80.0549 44.5126 80.2333L42.2721 79.4735C43.1176 78.9155 43.72 78.1705 44.5829 77.3546C44.1112 77.6815 43.6335 77.6137 43.4668 77.6159C43.5218 77.4746 43.5797 77.3503 43.6718 77.2203C43.5759 77.1224 43.6787 76.8497 43.7661 76.6413L43.788 77.0773C44.0105 76.7842 44.253 76.5053 44.2374 76.209C44.1494 75.9515 44.1201 75.7806 44.6852 75.6399C44.6049 75.8383 44.6212 75.985 44.6617 76.1188C44.8758 75.8799 45.0428 75.6227 45.1911 75.3072C45.3224 75.355 45.7559 75.4216 46.2201 74.9992L45.4881 74.7815C46.441 74.0293 46.2289 74.0744 46.5659 73.5771C47.164 73.4747 47.4017 72.757 47.5527 72.098C47.7409 71.4502 47.7982 70.86 48.2117 70.9124C48.0793 71.2692 47.9369 71.619 47.7644 71.9474C48.4421 71.7963 48.3605 73.3756 48.851 73.107C48.91 72.5781 49.019 72.0846 49.0338 71.5544C48.0464 72.5675 48.7378 69.9783 48.0084 70.0327C48.1899 69.5004 48.7788 69.2413 48.5276 68.4929C48.778 68.0544 48.9188 68.98 49.1686 68.436C49.1597 68.0242 48.7609 68.0573 48.9566 67.505C49.0195 67.5646 49.173 67.7933 49.2909 67.7116C49.5391 67.1063 49.0665 67.2224 49.0221 66.5001L48.9842 66.6385C48.5864 66.2669 49.1915 65.794 49.3519 65.6523C49.2538 65.0271 49.0189 64.4254 48.8311 63.8419C49.1042 64.0502 49.4559 64.975 49.6699 64.3755C49.8287 64.533 49.8896 64.7864 49.8851 65.0686C49.8636 65.3537 49.7766 65.6675 49.7279 65.9485C49.6235 66.5203 49.5457 66.9909 50.1129 67.017C50.5125 66.4738 49.7849 65.6133 50.3528 65.1293C49.8506 64.969 49.7827 64.11 49.5525 63.5866L49.7 63.4207C49.5683 62.2913 48.7856 63.5244 48.7477 62.3261C48.8781 62.1631 49.3183 62.4747 49.1855 61.75C49.0496 61.6238 48.9003 61.3679 48.6794 61.3617L48.6432 61.5614C48.3365 61.8249 48.272 60.7279 48.1501 60.2212C48.4402 60.4265 48.7595 60.4423 48.716 59.9309C48.9322 60.8349 49.7657 60.4636 49.9231 61.2809C49.6412 61.0213 49.1621 60.2767 49.0277 60.8273C48.9166 61.5146 49.5911 61.962 49.8498 62.8059L49.8246 62.2474C50.6014 61.9562 50.6357 63.6475 51.3876 63.8794C51.375 63.6002 51.3129 63.391 51.4425 63.3776C51.2604 63.4439 51.515 64.3149 51.5026 64.7567L51.1132 64.3309C50.5772 65.6185 51.4211 65.3598 51.1077 66.7149C50.8263 66.5608 50.7298 64.6603 50.398 65.7019C50.7885 65.723 50.4287 66.5496 50.7142 66.6766C50.513 66.9397 50.2477 67.1874 50.0264 67.4363C50.0636 67.808 50.1167 68.221 50.1569 68.6099C50.1799 69.0016 50.2142 69.3563 50.241 69.6155C50.0524 69.1817 50.1241 68.9321 49.9939 68.4795C49.9113 69.4873 48.886 69.6627 49.186 70.4907C49.2993 70.3307 49.4397 70.1747 49.543 70.0076C49.2428 70.7712 49.1899 71.0792 49.223 71.4781C49.4357 71.8989 49.9406 71.3553 50.1739 70.9197C50.0061 71.3265 49.4191 72.0073 49.7959 72.1539C49.3525 72.4408 49.3319 72.9368 49.4782 73.1756C48.975 73.7805 49.124 73.3153 48.8201 73.2354C48.7303 73.8927 47.7458 74.9228 48.389 75.0327C48.6319 74.8592 48.8563 74.0118 49.0523 74.541C48.4538 74.5379 49.0558 75.0241 48.67 75.4418C48.7038 74.3544 47.6688 76.2199 47.691 75.4247C47.0657 76.1384 47.2879 76.4609 47.0013 77.0991L46.6741 76.8825C46.5259 77.1981 46.3576 77.4994 46.1822 77.8108C45.6717 77.7047 45.6172 76.9754 44.8847 77.6283C44.8488 78.549 45.6637 78.8405 45.0043 79.9206L44.757 79.4001C44.4415 79.6123 43.7746 80.597 44.1272 80.7565C44.4919 80.7293 44.9074 80.5879 45.2766 80.2785L45.1545 80.3873C44.8938 81.0738 46.4209 79.9772 45.4977 81.0057C45.345 80.6273 44.7946 80.8534 44.1833 81.1866L41.0542 82.8915L41.9357 80.4367C42.168 79.7902 42.3787 79.0683 42.6095 78.7211C42.4393 78.2401 42.3168 77.2674 42.0733 76.9749C41.8854 77.0071 41.6618 77.7049 41.3524 77.3357C41.7264 76.4891 41.7537 75.8777 41.741 75.2379C41.7283 74.5982 41.7827 73.9909 42.3013 73.3217C42.3472 73.3842 42.4655 73.408 42.5321 72.9745L42.778 72.8181C42.7683 72.556 42.7869 72.2538 42.9085 72.0395L43.287 70.9108C43.3925 70.9103 43.2732 70.6757 43.1881 70.4352C43.1314 70.5153 43.0848 70.6024 43.0298 70.7437L43.1881 70.4352C43.1217 70.2531 43.0825 70.0752 43.1633 69.9822C42.7973 69.6931 43.6503 69.2306 43.8965 68.8191C43.8669 68.9033 43.8632 69.0359 43.8678 69.1142C44.2593 68.3702 43.5585 67.769 44.2656 67.1731L44.4548 67.0968C44.3969 67.2211 44.349 67.3523 44.3919 67.3977C44.4398 67.2664 44.4836 67.1623 44.5273 67.058C44.6927 66.7396 44.6584 66.7454 44.5735 66.8654C44.7162 66.2606 44.4428 66.3074 44.6826 65.3958L44.371 65.8361C44.4013 65.6022 44.4392 65.4639 44.4759 65.3697C44.4419 64.76 44.5239 63.2862 44.9538 62.5091C44.5596 61.6444 44.2962 61.6983 44.29 60.5826L44.771 60.7729L45.0395 59.5663C45.2454 59.7421 45.4795 59.1568 45.5346 58.3999C45.5375 58.417 45.5305 58.427 45.5405 58.4341C45.8401 58.1806 45.9041 57.8355 45.8244 57.5237C45.7276 57.2149 45.5512 56.9549 45.4536 56.7957C45.309 56.6182 45.045 56.2061 45.2142 56.1157C44.7561 55.9566 44.4028 54.9706 43.9586 54.0705C43.9415 54.0735 43.9415 54.0734 43.9244 54.0764C43.8898 53.9768 43.9093 53.8855 43.7788 53.6879C43.7605 53.735 43.7622 53.7963 43.7168 53.8393C43.6024 53.428 43.2518 53.0746 42.8924 52.67C42.543 52.2725 42.1548 51.8026 42.1201 51.3425C41.7876 50.5815 42.2466 50.9515 42.6251 51.1594C43.0166 51.3914 43.3592 51.5438 43.0401 50.9124L42.8942 50.7792C42.7767 50.6058 42.6691 50.4395 42.5886 50.2774C42.7795 50.2624 42.767 50.3436 42.8829 50.4557C42.8653 50.3532 42.8978 50.2861 42.9403 50.226L42.9969 50.146C43.004 50.136 43.0011 50.1189 43.0353 50.1131L43.1578 50.1097C43.4542 50.0942 43.6292 50.0378 43.4928 49.8062C43.1665 49.8004 42.9014 49.793 42.6463 49.7927L42.4696 49.7878L42.3871 49.8195L42.2292 49.8729C42.0129 49.9451 41.7766 50.0031 41.4878 50.114C41.4824 50.1853 41.5888 50.3957 41.7239 50.6716C41.5104 50.4003 41.2998 50.1462 41.0951 49.9262C41.1308 49.6211 41.0799 49.3748 41.1032 49.1509C41.1215 49.1038 41.0928 49.0385 41.1723 48.9897C41.2449 48.9509 41.3244 48.9021 41.424 48.8674C41.6132 48.7911 41.8536 48.706 42.1925 48.6304C42.1449 48.5067 41.8261 48.5964 41.4427 48.5653C42.2995 48.3307 43.3331 48.4617 43.1561 48.7118C43.9438 48.6386 43.6882 48.1723 44.7717 47.9782L44.263 47.3177C44.6001 47.1809 44.9873 47.0795 45.3974 47.0093C45.8375 46.9604 46.3005 46.9428 46.7594 46.9522C47.6613 46.9298 48.5483 47.0771 49.2368 47.1439C47.6322 47.1195 46.6517 47.762 45.7473 47.8728C46.3981 48.4385 45.6097 48.6614 44.6299 48.7938C43.6601 48.9333 42.371 49.0572 42.3035 49.2797C43.3738 49.3165 41.9541 49.8584 43.652 49.7086C44.0132 49.1983 44.7109 49.4219 45.5824 49.2728C46.3843 49.5401 45.4154 49.8905 46.9108 49.6875C46.1068 49.614 47.2782 48.9563 46.0596 49.2351C47.9232 48.5118 48.7122 48.7549 50.9581 48.4674C49.0418 48.5227 51.8077 47.8824 50.6394 47.581C50.8242 48.1474 47.2045 48.0632 49.9682 48.2323C49.3373 48.2963 48.7104 48.3332 48.1094 48.4184C47.7505 48.1193 49.9986 47.9984 48.0692 47.669C48.9106 47.4987 49.5333 47.4889 50.123 47.4408C50.3922 47.4211 50.7599 47.411 50.9549 47.3688C51.1499 47.3266 51.3662 47.2545 51.6308 47.1564C51.423 47.5349 52.5391 47.6341 52.6788 47.9884C53.139 47.9536 53.5848 47.5784 54.0651 47.9183L53.3278 48.1323C54.0635 48.2175 54.0995 48.6335 54.7243 48.7904C55.1444 48.7274 55.213 48.4605 55.0354 48.2447C56.0637 48.4469 57.1085 48.1803 58.1743 48.4991C56.8826 48.3508 57.8973 49.039 56.8454 48.9551L57.6231 49.2354C59.1801 48.7755 61.4893 48.2926 61.9062 47.4914C63.7091 47.2357 63.1678 48.5946 65.3102 47.7532C65.0085 47.84 65.4892 48.2853 65.3275 48.4713C65.6768 48.5083 66.2816 48.651 66.66 48.4984L65.8488 48.0744C66.8506 47.7623 68.2415 48.131 69.3172 48.0965C69.0997 48.2128 69.4628 48.4849 68.8123 48.6402C68.8207 48.9465 69.5801 48.9133 69.9235 48.9161C70.6903 48.6179 70.1466 48.1129 70.9976 47.8442C73.3357 47.7871 75.5487 47.4613 77.4652 46.7904C78.4071 46.4358 79.2588 46.0176 80.0076 45.5113C80.7435 44.9809 81.3622 44.3826 81.9221 43.6977C82.1641 43.3133 82.4208 43.0144 82.6794 42.5217L83.0655 41.8489L83.3479 41.2378L83.4991 40.9393L83.5032 40.9122C83.5003 40.8951 83.5145 40.8751 83.5116 40.858C83.5228 40.8209 83.527 40.7939 83.5112 40.7526C83.4895 40.6772 83.4365 40.6246 83.3593 40.5851C83.2964 40.5255 82.0035 40.4213 80.962 40.45L80.9552 40.205C75.4024 41.2605 68.3026 42.7829 61.9804 44.8406L62.1092 44.9768C59.8222 44.6646 61.4091 46.5388 58.8771 46.2333C57.8961 47.7466 55.4828 47.5702 53.9854 48.9432L53.7036 48.6836C52.7441 49.9118 50.6812 49.0073 49.3508 50.123Z" fill="#AD4419"/>
<path d="M42.8149 72.8788L42.6841 73.0171C42.9021 73.5011 42.8338 73.2714 42.8149 72.8788Z" fill="#AD4419"/>
<path d="M45.509 62.2368C45.1876 62.3093 45.0225 62.6275 44.9214 62.961C45.0309 62.9335 45.1904 62.9414 45.3265 62.8127C44.96 63.6484 45.0351 64.2417 44.6449 65.1956C44.8226 65.1564 45.0293 65.5428 45.0319 64.4794C44.5865 64.8543 46.0579 62.7754 45.509 62.2368Z" fill="#AD4419"/>
<path d="M44.3394 76.5497C44.3374 76.4773 44.3152 76.4083 44.293 76.3394L44.3394 76.5497Z" fill="#AD4419"/>
<path d="M44.6807 78.6649C44.6355 78.814 44.5572 78.9246 44.4357 78.9896C44.3992 78.8279 44.5278 78.7529 44.6807 78.6649Z" fill="#AD4419"/>
<path d="M47.4961 68.1021C47.4507 68.5063 47.3774 69.0564 47.0726 69.2319C47.2611 68.5828 47.4197 68.2737 47.4961 68.1021Z" fill="#AD4419"/>
<path d="M89.5078 40.8701C89.4938 40.8899 89.4867 40.8998 89.4686 40.9465C89.7961 41.2824 89.2146 41.9568 89.2841 42.363C88.8835 43.0761 88.9022 42.167 88.9371 41.7604C89.0114 41.6344 89.2797 41.3185 89.5078 40.8701Z" fill="#AD4419"/>
<path d="M60.0049 41.6245C60.1414 41.4954 60.4154 41.4485 60.6651 41.4146C60.6255 41.4919 60.7098 41.5215 60.8172 41.5825C60.7829 41.5883 60.7487 41.5942 60.7316 41.5971C60.9362 41.7119 60.8077 42.0422 60.8416 42.292C59.7497 42.7079 60.2081 42.4003 60.0049 41.6245Z" fill="#AD4419"/>
<path d="M69.9058 35.9815C69.789 36.0191 69.6965 36.0437 69.6239 36.0825C69.6994 36.0608 69.7819 36.0291 69.9058 35.9815Z" fill="#AD4419"/>
<path d="M60.0782 41.5713C60.0698 41.6256 60.3811 41.59 60.7539 41.5527C60.6536 41.4817 60.4492 41.4725 60.0782 41.5713Z" fill="#AD4419"/>
<path d="M50.756 61.0895L50.9044 61.3902L50.9815 60.7072C50.4744 59.701 50.1147 59.7625 49.6443 59.6403C49.9916 60.0216 50.0903 60.3925 50.2191 60.7847C50.3237 61.1899 50.4412 61.6193 50.5609 62.2158C50.6535 61.8298 50.7219 61.4567 50.756 61.0895Z" fill="#AD4419"/>
<path d="M48.2693 62.1502C48.1736 62.2641 47.9464 62.5422 47.9427 62.6758L48.2074 62.7723L48.2693 62.1502Z" fill="#AD4419"/>
<path d="M45.47 72.2918C45.6627 72.0627 45.8452 71.8263 46.0277 71.5899C45.9367 71.2666 45.1985 72.0083 45.47 72.2918Z" fill="#AD4419"/>
<path d="M50.9804 69.9279L50.8607 69.3315C50.5355 69.7484 50.4055 70.3787 50.6319 70.569C50.6676 69.9021 50.8327 70.4554 50.9804 69.9279Z" fill="#AD4419"/>
<path d="M44.2617 74.272C44.5137 74.7663 43.6033 74.9045 43.882 75.2974C43.8995 75.0388 44.6385 74.5688 44.2617 74.272Z" fill="#AD4419"/>
<path d="M48.4437 76.029C48.985 75.98 48.9128 75.3031 49.3121 74.7811C49.0455 75.2629 48.281 75.6904 48.4437 76.029Z" fill="#AD4419"/>
<path d="M42.4632 79.0166C42.2351 78.7647 42.5023 78.4722 42.841 78.1851C42.829 78.3723 42.8925 78.5377 42.8019 78.7294C43.0715 77.987 43.143 77.9924 43.3905 77.43C42.8363 77.7452 42.1589 78.3194 41.8889 77.9778C41.864 78.5021 41.8743 79.2319 42.4632 79.0166Z" fill="#AD4419"/>
<path d="M47.7127 77.3831C48.1112 77.0095 48.5462 76.9002 48.8789 76.3459C48.613 76.3216 48.2115 76.3206 47.8523 76.9753L47.6652 76.5449C47.0562 76.9632 48.2479 76.5848 47.7127 77.3831Z" fill="#AD4419"/>
<path d="M45.704 78.1578L45.4919 78.4149C45.7608 79.0577 45.6438 79.8195 46.1202 80.1265L41.0958 78.4251L41.0929 78.408L41.0858 78.418L46.1274 80.1165C46.1259 79.4367 45.8703 78.5621 45.704 78.1578Z" fill="#AD4419"/>
<path d="M45.6007 79.1432L45.9855 79.5679C46.4875 79.0094 45.8046 79.5008 45.8611 79.2057C46.0543 79.0835 46.2816 78.8484 46.2938 78.659C45.8489 79.3951 45.8968 78.4237 45.6007 79.1432Z" fill="#AD4419"/>
<path d="M44.6018 81.3898L44.5876 81.4099L42.8288 85.0665L41.7185 80.4348L41.4796 79.4513L40.8721 80.2881C40.8868 80.3739 40.9086 80.4497 40.9145 80.484L43.0682 86.1559L45.1708 81.9282C45.5669 81.1982 44.8669 81.8036 44.6018 81.3898Z" fill="#AD4419"/>
<path d="M42.0559 79.245L42.1601 79.1399C41.8738 78.6392 41.6581 78.1438 41.4297 77.6245C41.681 78.5326 41.6289 78.5851 42.0559 79.245Z" fill="#AD4419"/>
<path d="M48.9543 63.3753C48.7507 63.1705 48.2997 63.9576 48.6276 63.6442C48.814 63.8519 49.3011 62.7569 48.9543 63.3753Z" fill="#AD4419"/>
<path d="M43.945 65.6087C44.2202 65.2828 44.1752 64.0014 44.1094 63.4639C44.1121 64.0906 43.6246 65.6199 43.945 65.6087Z" fill="#AD4419"/>
<path d="M44.1484 63.3145C44.1469 63.3691 44.165 63.4748 44.1743 63.5928C44.1773 63.4835 44.1716 63.3866 44.1484 63.3145Z" fill="#AD4419"/>
<path d="M55.0414 47.0558C55.1045 47.0541 55.1749 47.0421 55.232 47.0051C55.1616 47.0172 55.1118 47.0438 55.0414 47.0558Z" fill="#AD4419"/>
<path d="M54.4617 47.0919C54.074 46.9943 53.3039 47.0829 53.1568 47.3324C53.773 47.2528 54.3083 47.2044 55.0316 46.9944C54.7744 47.0038 54.4562 46.8081 54.4617 47.0919Z" fill="#AD4419"/>
<path d="M59.924 47.654C59.6359 47.783 59.2447 47.6727 59.3305 47.915C59.4818 48.0221 60.0941 47.8198 59.924 47.654Z" fill="#AD4419"/>
<path d="M88.7711 35.0054C88.4426 34.6992 88.1551 34.4809 87.9437 34.4049C87.7183 34.3486 87.5997 34.412 87.6076 34.6091C88.4346 35.1061 88.093 34.6727 88.7711 35.0054Z" fill="#AD4419"/>
<path d="M86.4328 34.2388L86.3902 34.042L85.8867 33.6401C86.0802 33.8377 86.2708 34.0181 86.4328 34.2388Z" fill="#AD4419"/>
<path d="M81.5177 33.1513C81.5456 33.0887 81.6595 33.0209 81.7876 32.9797C81.5282 33.0434 81.3063 33.1006 81.5177 33.1513Z" fill="#AD4419"/>
<path d="M81.8269 32.9615C81.7703 32.9712 81.6854 32.9857 81.6288 32.9954L81.8269 32.9615Z" fill="#AD4419"/>
<path d="M82.1211 33.0553L82.1814 32.8564C82.1005 32.8797 81.9539 32.9048 81.8288 32.945C81.928 32.9186 82.0657 32.9516 82.1211 33.0553Z" fill="#AD4419"/>
<path d="M80.2496 33.1381C80.5215 33.2854 80.7863 33.4427 81.0612 33.6071C81.8737 33.3095 80.1064 33.3828 80.8934 32.7811C80.6583 32.9007 80.4504 33.0244 80.2496 33.1381Z" fill="#AD4419"/>
<path d="M77.6402 33.561C76.9073 33.5097 76.0601 34.4936 75.5626 33.9605C73.7053 34.6668 76.1962 34.8766 74.0899 35.5725C76.1801 35.4533 74.8838 34.1738 76.807 34.1627C75.823 33.9336 77.3577 33.7682 77.6402 33.561Z" fill="#AD4419"/>
<path d="M78.0318 34.5506C78.0994 34.2196 77.2142 34.3356 76.9737 34.5897C77.2382 34.5799 77.743 34.9372 78.0318 34.5506Z" fill="#AD4419"/>
<path d="M73.7981 34.5156L73.16 34.4121L73.0576 34.6423L73.7981 34.5156Z" fill="#AD4419"/>
<path d="M71.7 34.9458L72.169 34.4527C72.0075 34.6385 71.1701 34.8257 71.7 34.9458Z" fill="#AD4419"/>
<path d="M68.5927 35.3647C68.0449 35.397 67.8183 36.3316 68.841 35.8404L68.5849 35.8842C68.6128 35.7389 67.9434 35.6251 68.5927 35.3647Z" fill="#AD4419"/>
<path d="M62.1954 38.7307C62.5433 38.6266 62.9296 38.3822 62.799 38.244L61.902 38.7363L62.1954 38.7307Z" fill="#AD4419"/>
<path d="M63.039 40.5874C63.516 40.9552 63.897 40.2468 64.5765 40.201C63.8432 40.3441 63.8971 40.2468 63.039 40.5874Z" fill="#AD4419"/>
<path d="M60.9022 38.4367C61.0922 38.1468 61.532 38.1248 61.7907 38.0805C61.5639 37.8443 60.9412 38.146 60.9022 38.4367Z" fill="#AD4419"/>
<path d="M59.426 39.1482C59.0422 39.0725 59.3933 38.8535 59.1041 38.8147C58.3415 38.848 57.653 39.16 57.3857 39.559C57.6381 39.6924 58.0866 40.1456 57.9164 40.4926C58.8855 39.9118 59.1242 38.8289 59.8861 39.3079L60.4649 38.1491C59.5785 38.3361 60.032 38.9738 59.426 39.1482Z" fill="#AD4419"/>
<path d="M62.1592 39.9268L61.4934 39.8468C61.7015 40.0844 61.294 40.2775 61.0364 40.4714C61.3957 41.0267 61.8485 40.0681 62.1592 39.9268Z" fill="#AD4419"/>
<path d="M53.9238 41.7495L52.8269 42.3425L53.2119 42.2237L53.9238 41.7495Z" fill="#AD4419"/>
<path d="M53.0689 41.7979L52.9667 41.6187L52.1975 42.2956L53.0689 41.7979Z" fill="#AD4419"/>
<path d="M51.8519 42.1382L51.9898 42.1146L52.6193 41.6963L51.8519 42.1382Z" fill="#AD4419"/>
<path d="M49.3304 42.8985L49.6446 43.0754C49.9171 42.9046 50.6019 42.9649 50.4222 42.6407C50.193 42.8574 49.5769 43.0427 49.3304 42.8985Z" fill="#AD4419"/>
<path d="M43.365 52.2159C43.5363 51.9739 43.3577 51.8627 43.169 51.7443L42.9445 52.2967C43.0592 52.2417 43.254 52.1374 43.365 52.2159Z" fill="#AD4419"/>
<path d="M41.6994 51.9409L40.9243 52.7169C42.0145 52.4951 42.034 52.0422 42.9366 51.7027C42.5051 51.6532 42.0675 52.1864 41.529 52.1816L41.6994 51.9409Z" fill="#AD4419"/>
<path d="M22.3777 54.1708C22.5058 53.8414 22.2739 53.8723 23.0462 53.7138C22.5312 53.7843 22.0457 53.7707 21.5415 53.6989C21.0402 53.6441 20.516 53.5581 19.9119 53.4155C20.071 53.6782 19.0652 53.8063 19.5536 53.837C20.0349 53.8776 20.4949 53.9483 20.9575 53.9306L20.7107 54.1309C21.6305 54.527 21.4013 53.8547 22.3777 54.1708Z" fill="#AD4419"/>
<path d="M40.6881 43.0403C40.4907 43.0829 40.4815 43.2892 40.4723 43.4955C41.0883 43.8707 40.5594 42.9644 40.6881 43.0403Z" fill="#AD4419"/>
</svg>
