<svg width="28" height="24" viewBox="0 0 28 24" fill="none" xmlns="http://www.w3.org/2000/svg">
<path d="M14.0015 24L2.12316 12.271C1.17567 11.3354 0.544054 10.2477 0.228225 9.00784C-0.0799008 7.768 -0.0760161 6.53577 0.239813 5.31115C0.555642 4.07892 1.18337 3.00642 2.12316 2.09365C3.08605 1.15807 4.18386 0.53815 5.41636 0.233896C6.65657 -0.0779654 7.89285 -0.0779654 9.12535 0.233896C10.3656 0.545757 11.4671 1.16568 12.43 2.09365L14.0015 3.59971L15.5729 2.09365C16.5435 1.16568 17.6451 0.545757 18.8776 0.233896C20.1101 -0.0779654 21.3425 -0.0779654 22.575 0.233896C23.8152 0.53815 24.9168 1.15807 25.8797 2.09365C26.8194 3.00642 27.4473 4.07892 27.7631 5.31115C28.079 6.53577 28.079 7.768 27.7631 9.00784C27.455 10.2477 26.8272 11.3354 25.8797 12.271L14.0015 24Z" fill="#E0E1DC"/>
</svg>
