<svg width="250" height="67" viewBox="0 0 250 67" fill="none" xmlns="http://www.w3.org/2000/svg">
<path d="M27.3324 62.6966C27.3203 62.8555 27.3015 62.9601 27.2762 63.0104C27.1399 63.1844 26.9127 63.3222 26.5946 63.4239C25.8656 63.5126 24.2525 62.8038 21.7554 61.2975L14.7487 57.0738L11.1216 55.0124C8.68612 53.6246 7.0826 52.6706 6.31102 52.1506L6.78571 57.2163L7.06543 61.4558C7.22213 63.9079 6.84292 65.1897 5.92779 65.301C5.32288 65.3746 4.91096 64.5118 4.69204 62.7126L4.5873 61.8517L3.16083 49.1576C3.05556 48.1631 2.87963 46.8466 2.63306 45.2081L2.21507 42.3549C1.84352 39.8187 1.49356 37.2012 1.16518 34.5023C1.07271 33.7423 1.1758 33.0372 1.47445 32.387C1.80642 31.6225 2.32632 31.1737 3.03415 31.0403L4.34898 30.7859C7.40917 30.1932 10.8276 31.186 14.6041 33.7644C18.3807 36.3427 20.4568 39.1752 20.8323 42.2618C20.9946 43.5957 20.5354 44.7377 19.4548 45.6877C18.0748 46.8944 16.1522 47.7816 13.6871 48.3491L11.2521 48.9051L8.48908 49.2885L10.5246 50.8824L15.4025 54.4916L22.9737 59.4729C25.7971 61.333 27.25 62.4076 27.3324 62.6966ZM17.4782 42.0561C17.2121 39.8691 15.6257 37.827 12.7191 35.9298C9.93038 34.0969 7.41153 33.3173 5.16249 33.591C4.97637 33.6136 4.77054 33.7331 4.54502 33.9494C4.25893 34.3148 4.14796 34.7611 4.21213 35.2885L5.07235 41.5822L6.05863 47.5537C6.32231 47.5216 6.93309 47.4316 7.89098 47.2835L9.3278 47.0615C9.74659 47.0105 10.2178 46.9375 10.7414 46.8423C11.3176 46.662 12.2982 46.3774 13.6832 45.9885C16.4453 45.2747 17.7103 43.9639 17.4782 42.0561ZM53.2068 50.4584C53.5126 52.9712 52.4414 55.1635 49.9933 57.0353C47.7609 58.7393 44.954 59.797 41.5727 60.2084C40.4715 60.3424 39.5777 60.4354 38.8915 60.4875C38.2983 60.5282 37.1982 60.6069 35.5912 60.7237C33.7999 60.8787 32.575 60.9019 31.9164 60.7931C31.0331 60.6487 30.5679 60.3827 30.5207 59.9949C30.4735 59.6071 30.5589 59.2741 30.7769 58.9957C31.0179 58.7775 31.3751 58.6081 31.8484 58.4876L36.7216 58.1779L41.2755 57.7655C43.9372 57.5204 46.1285 56.8366 47.8493 55.7143C49.7876 54.4396 50.637 52.8173 50.3973 50.8475C50.1218 48.583 49.0195 46.962 47.0905 45.9847C45.7825 45.3254 43.9038 44.9559 41.4544 44.8761L37.4255 44.7524C35.3559 44.6895 33.4459 44.127 31.6954 43.065C29.676 41.8626 28.5503 40.3075 28.3181 38.3997C28.0954 36.5695 29.3823 34.7916 32.1788 33.0662C34.5946 31.576 37.2838 30.6507 40.2463 30.2903C41.7198 30.111 43.3521 30.2665 45.1432 30.7569C47.3738 31.3669 48.5712 32.3467 48.7354 33.6961L48.8301 34.086C48.6628 34.2637 48.5172 34.3601 48.3931 34.3752C49.6494 34.2224 48.8937 33.8972 46.1258 33.3997C43.3561 32.8868 41.4982 32.6878 40.552 32.803C39.2802 32.9577 37.6397 33.5115 35.6307 34.4642C32.8627 35.7769 31.558 37.0847 31.7166 38.3876C31.8713 39.6595 32.6762 40.6476 34.1313 41.352C35.2672 41.8906 36.5705 42.1885 38.0413 42.2457L43.3753 42.423C45.2085 42.4833 47.019 42.9398 48.807 43.7926C51.3477 45.0103 52.8143 47.2322 53.2068 50.4584ZM78.2973 24.598C78.3898 25.358 78.0095 25.7899 77.1564 25.8937L74.4003 25.9457L71.3792 26.1481C69.8963 26.2498 67.6723 26.8588 64.7073 27.9751C59.831 29.8119 56.552 31.5173 54.8704 33.0913C54.4466 33.4891 54.1749 33.9078 54.0552 34.3474C53.9404 35.0854 53.8557 35.4892 53.8013 35.5588C53.6468 35.9711 53.3534 36.2114 52.921 36.2798C51.713 36.4425 50.9826 35.4846 50.7297 33.4062C50.5844 32.2119 52.2871 30.6826 55.8379 28.8182C61.2835 25.9677 66.4105 24.2499 71.2188 23.6649L74.9878 23.2063C76.8646 22.9779 77.9678 23.4418 78.2973 24.598ZM66.8065 33.1973L67.3561 38.49C67.5463 40.1825 67.8151 42.7155 68.1626 46.0888C68.4285 48.9212 68.5103 51.469 68.4079 53.7323C68.2645 56.6932 67.8205 58.2189 67.076 58.3095C66.6882 58.3567 66.4055 58.2967 66.2277 58.1294L65.8592 57.0409L65.4632 48.3533C65.3995 47.7 65.2946 46.5794 65.1486 44.9917C65.1075 44.5245 65.0481 43.4535 64.9702 41.7788L63.5209 31.6138C63.4526 31.1814 63.5692 30.7815 63.8708 30.4143C64.1104 30.0546 64.3737 29.8258 64.6609 29.7279C65.4674 29.6298 66.0389 29.9931 66.3754 30.8179C66.5349 31.2234 66.6786 32.0166 66.8065 33.1973ZM104.363 53.3241C104.351 53.483 104.332 53.5876 104.307 53.6379C104.171 53.8118 103.943 53.9497 103.625 54.0513C102.896 54.14 101.283 53.4312 98.7861 51.9249L91.7793 47.7013L88.1522 45.6399C85.7168 44.252 84.1132 43.2981 83.3417 42.7781L83.8164 47.8438L84.0961 52.0832C84.2528 54.5354 83.8736 55.8171 82.9584 55.9285C82.3535 56.0021 81.9416 55.1392 81.7227 53.34L81.618 52.4792L80.1915 39.7851C80.0862 38.7905 79.9103 37.474 79.6637 35.8356L79.2457 32.9823C78.8742 30.4461 78.5242 27.8286 78.1958 25.1298C78.1034 24.3698 78.2064 23.6646 78.5051 23.0144C78.8371 22.25 79.357 21.8011 80.0648 21.6678L81.3796 21.4133C84.4398 20.8206 87.8582 21.8135 91.6348 24.3918C95.4113 26.9702 97.4874 29.8027 97.863 32.8893C98.0253 34.2232 97.5661 35.3651 96.4854 36.3151C95.1054 37.5219 93.1829 38.409 90.7178 38.9765L88.2827 39.5325L85.5197 39.9159L87.5553 41.5099L92.4332 45.119L100.004 50.1004C102.828 51.9605 104.281 53.035 104.363 53.3241ZM94.5089 32.6835C94.2428 30.4965 92.6564 28.4544 89.7497 26.5572C86.961 24.7244 84.4422 23.9448 82.1931 24.2184C82.007 24.2411 81.8012 24.3606 81.5757 24.5769C81.2896 24.9422 81.1786 25.3886 81.2428 25.916L82.103 32.2097L83.0893 38.1812C83.353 38.1491 83.9637 38.059 84.9216 37.911L86.3584 37.689C86.7772 37.638 87.2484 37.5649 87.772 37.4697C88.3482 37.2894 89.3288 37.0049 90.7139 36.616C93.476 35.9021 94.741 34.5913 94.5089 32.6835ZM133.834 21.3586L131.827 27.1749C130.441 31.1841 129.971 35.0112 130.414 38.6561C130.608 40.2537 130.843 41.5317 131.117 42.49L131.982 45.5249L132.492 47.7767C132.647 49.0485 132.266 49.7401 131.351 49.8515C130.467 49.959 128.649 49.1808 125.896 47.5167C120.732 44.3988 116.548 40.7368 113.345 36.5304C112.258 35.1043 111.203 33.4777 110.178 31.6506C110.319 32.8139 110.425 33.8162 110.496 34.6576L110.709 37.1816C110.743 37.4608 110.788 37.9591 110.844 38.6763C110.835 38.9922 110.749 40.1596 110.585 42.1785L110.119 47.8545C109.951 49.8424 109.511 50.8797 108.797 50.9666C108.317 51.0251 108.016 50.8177 107.895 50.3444L107.806 50.0011L107.755 49.5823L107.577 46.3694L107.502 41.869L107.162 33.8356C107.125 33.2734 107.088 32.1996 107.053 30.6142C107.041 30.0017 107.033 29.0898 107.027 27.8785C107.05 25.6092 107.449 24.4273 108.225 24.3329C108.768 24.2669 109.233 24.407 109.622 24.7532L110.307 25.9212L111.008 27.4177L112.003 29.1856C113.249 31.4107 114.313 33.1071 115.195 34.2747C116.716 36.2933 118.485 38.1558 120.503 39.8621C121.626 40.8115 123.085 41.9404 124.881 43.2486C126.453 44.3953 127.694 45.1494 128.604 45.5109L128.125 43.3261L127.443 39.6552L127.124 35.8691C127.066 35.2623 127.151 34.2209 127.381 32.7448C127.859 29.5544 128.769 26.6891 130.113 24.1488C131.238 22.0129 132.067 20.8731 132.601 20.7295C132.942 20.688 133.212 20.7102 133.412 20.7962C133.617 20.8026 133.758 20.9901 133.834 21.3586ZM189.135 32.4794C189.543 35.8297 188.868 38.501 187.112 40.4934C185.421 42.3833 182.885 43.5339 179.504 43.9453C178.992 44.0076 178.595 44.0402 178.312 44.0432C178.029 44.0461 177.444 44.0229 176.556 43.9735L169.413 43.2843L164.981 42.95C163.805 42.857 163.153 42.5506 163.027 42.0308C162.916 41.1157 163.574 40.5713 165.001 40.3977L165.536 40.3326C167.04 40.1495 169.298 40.2684 172.308 40.6891C175.334 41.1079 177.599 41.2258 179.104 41.0428C184.47 40.3898 186.899 37.9694 186.389 33.7815C185.859 29.423 182.151 27.6627 175.264 28.5007C174.675 28.5724 173.552 28.9844 171.896 29.7368L169.547 30.8018C169.066 30.8603 168.711 30.7225 168.481 30.3884C168.226 30.1046 168.064 29.6758 167.994 29.1019C167.949 28.7296 169.041 27.9357 171.27 26.7201C172.287 26.1556 173.331 25.5485 174.401 24.8989C177.549 21.6668 179.014 19.1512 178.795 17.352C178.659 16.2352 177.668 15.7891 175.822 16.0137C174.969 16.1175 173.82 16.4383 172.374 16.9763C170.853 17.5391 169.798 18.0531 169.209 18.5183L169.068 18.9132C169.091 18.9733 169.132 19.0471 169.19 19.1345C169.406 19.36 169.686 19.7825 170.029 20.4018C170.085 20.8672 169.86 21.1465 169.351 21.2398L168.88 21.2498L168.055 21.2559C167.111 21.2605 166.548 20.5106 166.364 19.0061C166.23 17.9048 167.62 16.6496 170.534 15.2405C173.001 14.0431 174.956 13.3567 176.398 13.1812C177.686 13.0245 178.818 13.1465 179.796 13.547C181.003 14.0296 181.68 14.8681 181.825 16.0624C182.167 18.8699 180.522 22.0371 176.89 25.564C179.418 25.2564 181.732 25.4549 183.833 26.1595C186.985 27.2241 188.752 29.3308 189.135 32.4794ZM201.258 39.1736C201.447 40.7246 200.797 41.5907 199.308 41.7719C198.175 41.9097 197.366 41.1425 196.879 39.4703C196.815 38.9429 197.032 38.4601 197.529 38.0218C197.968 37.622 198.459 37.3891 199.002 37.3231C200.355 37.3159 201.107 37.9327 201.258 39.1736ZM235.106 16.5919C235.625 20.8574 234.32 25.4627 231.191 30.4081C227.916 35.5758 224.2 38.4126 220.043 38.9184C213.172 39.7544 209.058 34.5964 207.701 23.4442C207.339 20.4662 208.03 16.7697 209.775 12.3547C211.724 7.41131 214.04 4.77636 216.723 4.44987C218.104 4.28191 219.081 4.55644 219.657 5.27347L220.679 4.74773C220.854 4.63202 221.158 4.54774 221.592 4.4949C224.85 4.09858 227.851 5.22086 230.596 7.86173C233.199 10.3626 234.702 13.2727 235.106 16.5919ZM232.358 17.6818C232.088 15.4638 231.379 13.4566 230.232 11.6601C228.93 9.63056 227.313 8.3006 225.379 7.67021C224.821 7.48621 223.995 7.35849 222.9 7.28707C222.09 7.22822 221.454 7.24261 220.993 7.33024L220.231 7.47019C219.891 7.52722 219.548 7.23055 219.202 6.58016C213.583 9.68783 210.608 14.9292 210.278 22.3044L210.378 23.5199C210.602 26.2629 211.461 29.0546 212.956 31.8949C214.759 35.3273 216.877 36.8953 219.313 36.599C223.283 36.1159 226.628 33.5289 229.347 28.838C231.752 24.6733 232.756 20.9545 232.358 17.6818ZM249.37 33.3196C249.559 34.8707 248.909 35.7368 247.42 35.918C246.287 36.0557 245.478 35.2885 244.991 33.6163C244.927 33.089 245.144 32.6061 245.641 32.1678C246.08 31.7681 246.572 31.5352 247.114 31.4691C248.467 31.4619 249.219 32.0788 249.37 33.3196Z" fill="#65D200"/>
</svg>
