<svg width="223" height="85" viewBox="0 0 223 85" fill="none" xmlns="http://www.w3.org/2000/svg">
<path d="M10.2215 33.0099L9.1001 46.1084L7.61532 68.0578C7.49106 68.7183 7.13423 69.0844 6.54483 69.1561C6.064 69.2146 5.76331 69.0072 5.64276 68.5339L5.59588 67.7605L5.52776 63.7078C5.50989 62.6554 5.53236 61.417 5.59517 59.9928L5.59862 59.8271C5.64722 59.1916 5.72607 57.8991 5.83517 55.9498C5.88312 54.9209 5.98028 53.0674 6.12666 50.3895C6.16499 49.9284 6.20645 49.1049 6.25104 47.9189C6.25794 47.5875 6.22836 47.1504 6.16231 46.6075L5.21053 45.1887C4.94054 44.7808 4.77912 44.3597 4.72628 43.9254C4.71118 43.8013 4.7116 43.6753 4.72752 43.5475L4.88843 36.1379C4.96664 32.3822 5.77351 30.4109 7.30906 30.2241C7.57274 30.192 7.85361 30.2365 8.15168 30.3577C9.40975 30.8657 10.0963 31.5928 10.2115 32.5389L10.2215 33.0099ZM54.8072 51.1481C55.0789 53.3817 54.9078 55.3385 54.2937 57.0188C53.5173 59.1752 52.1208 60.3761 50.1044 60.6214C46.8938 61.0121 44.6938 59.6192 43.5045 56.4427C43.4546 56.2914 43.2197 55.5251 42.7998 54.1438C42.6271 53.6296 42.3735 52.6452 42.0391 51.1906L41.1708 45.6062L40.5175 46.2523C40.3347 46.4319 40.0417 46.5463 39.6384 46.5954C38.9094 46.6841 38.4056 46.3597 38.127 45.6224C38.0761 45.2036 38.4755 44.5411 39.3254 43.6349L40.7462 42.1163L40.1496 38.7654L39.4523 34.199C39.3707 33.658 39.2997 33.1393 39.2394 32.643C38.8732 29.6339 38.8546 27.346 39.1834 25.7792C39.7307 23.1627 41.1987 21.7091 43.5873 21.4185C46.1931 21.1014 48.0877 23.4129 49.2712 28.353L49.558 29.5459L49.7489 30.7268C50.184 33.3969 49.615 36.0947 48.0421 38.8203C46.9116 40.7837 45.4451 42.3788 43.6425 43.6055L43.9256 45.9321L44.2694 48.3693L44.4647 49.9747C44.6591 51.5723 45.1994 53.4898 46.0855 55.7273C46.2903 56.5051 46.7601 57.1326 47.495 57.6099C48.2299 58.0871 49.0007 58.2767 49.8072 58.1785C51.8391 57.9313 52.6191 55.8689 52.1473 51.9912C51.9964 50.7504 51.4054 49.5158 50.3745 48.2876C49.2355 46.9466 48.0765 46.3478 46.8977 46.4912C46.1532 46.5818 45.5718 46.5896 45.1534 46.5146C44.6923 46.4763 44.4287 46.1857 44.3626 45.6428C44.3098 45.2085 44.4013 44.796 44.637 44.4053C44.8883 44.0127 45.2234 43.7909 45.6422 43.7399C47.9688 43.4569 50.0914 44.2138 52.01 46.0109C53.6445 47.5434 54.5769 49.2559 54.8072 51.1481ZM46.9041 29.4674C46.6865 28.455 46.2898 27.3936 45.7139 26.2832C44.963 24.769 44.2386 24.0544 43.5406 24.1393C42.0516 24.3205 41.6704 27.3969 42.397 33.3685L42.6348 35.3228C42.6302 35.5437 42.6397 35.881 42.6634 36.3346L42.9397 40.7397C44.0162 39.8847 45.0088 38.5991 45.9176 36.883C47.0193 34.8129 47.4532 32.8162 47.2192 30.8929L46.9041 29.4674ZM84.3871 50.7365C84.4456 51.2173 83.5062 52.2288 81.5689 53.7709C80.0611 54.9618 78.8324 55.8589 77.8827 56.4624C74.8842 58.3383 71.671 59.4848 68.2431 59.9019C66.3974 60.1265 64.6969 59.7982 63.1415 58.9171C61.298 57.8665 60.198 56.1351 59.8416 53.723L59.5573 51.7743L59.2968 49.6339L59.1112 47.7204C59.055 47.1291 59.0472 46.5477 59.0879 45.9761C59.1691 44.8329 59.7064 43.8152 60.6997 42.9231C61.6347 42.0695 62.6838 41.572 63.8471 41.4305C65.4913 41.2304 67.0343 41.4283 68.4762 42.0241C70.1329 42.704 71.0462 43.7419 71.2161 45.1379C71.3633 46.3477 71.0467 47.4329 70.2664 48.3936C69.7877 48.987 68.8641 49.6109 67.4956 50.2654L64.9305 51.4983L62.4873 52.7636C62.6288 53.9269 63.14 54.9587 64.0208 55.8589C65.0986 56.9554 66.5061 57.3981 68.2433 57.1867C69.7013 57.0093 71.1094 56.6806 72.4676 56.2005C75.3645 55.1712 78.2398 53.6408 81.0935 51.6094L83.0487 50.2146C83.5605 50.1523 83.8997 50.1583 84.0661 50.2325C84.2095 50.2465 84.3165 50.4145 84.3871 50.7365ZM67.796 45.554C67.6488 44.3442 66.3033 43.894 63.7596 44.2035C63.3563 44.2526 62.9465 44.5071 62.5303 44.967C62.1295 45.425 61.9149 45.8603 61.8864 46.273L61.9664 48.4827L62.1055 50.4018C62.5924 50.2639 63.3212 49.9155 64.2921 49.3566L66.4561 48.1253C67.4871 47.5434 67.9337 46.6863 67.796 45.554ZM98.0626 44.9643C98.3438 47.2754 97.9937 49.7026 97.0125 52.246C95.8984 55.1204 94.4262 56.6689 92.596 56.8916C91.4327 57.0331 90.4335 56.777 89.5984 56.123C88.7788 55.4672 88.2973 54.5499 88.1539 53.3711C87.9066 51.3392 88.194 50.2733 89.0161 50.1732C89.7606 50.0827 90.1831 50.3854 90.2835 51.0815L90.5197 52.6347C90.7036 53.8872 91.1998 54.4722 92.0082 54.3896C93.0338 54.2805 93.864 53.4712 94.4988 51.9616C95.2782 50.0881 95.4924 47.7089 95.1414 44.8239C95.0433 44.0174 94.655 43.3485 93.9764 42.8171C93.3115 42.2684 92.5758 42.0431 91.7693 42.1413C90.2958 42.3206 88.8451 43.5281 87.4171 45.7638L87.3235 47.7112C87.2402 49.4843 87.3556 51.5322 87.6697 53.855L88.5695 60.4745C88.77 61.9926 89.0662 63.5857 89.458 65.2537L90.1545 68.2619C90.1904 68.5566 90.5661 69.2507 91.2815 70.3442C91.5708 70.7812 91.7806 71.2121 91.911 71.637C92.0148 72.4901 91.976 73.0772 91.7948 73.3983C91.5726 73.7716 91.0505 74.0083 90.2284 74.1083C89.4219 74.2064 88.7456 73.5647 88.1998 72.183C87.9518 71.5678 87.746 70.7822 87.5825 69.8262L85.9355 60.5589L84.9079 52.1133C84.7059 50.4537 84.5693 48.6838 84.4979 46.8037L84.2332 39.7764C84.2245 39.4469 84.0911 39.0617 83.8329 38.621L83.2329 37.1829C83.1102 36.1747 83.5065 35.6149 84.4216 35.5036C84.9489 35.4394 85.4318 35.6561 85.8701 36.1537C86.2698 36.593 86.5037 37.0919 86.5716 37.6503L87.1293 42.2336C88.3581 40.4314 89.8799 39.4199 91.6946 39.1991C93.2457 39.0103 94.6645 39.546 95.9511 40.8061C97.1663 41.9962 97.8701 43.3822 98.0626 44.9643ZM128.358 45.3864C128.416 45.8672 127.477 46.8787 125.54 48.4209C124.032 49.6117 122.803 50.5089 121.853 51.1124C118.855 52.9883 115.642 54.1348 112.214 54.5519C110.368 54.7764 108.668 54.4482 107.112 53.5671C105.269 52.5164 104.169 50.785 103.812 48.3729L103.528 46.4243L103.268 44.2838L103.082 42.3703C103.026 41.779 103.018 41.1976 103.059 40.626C103.14 39.4828 103.677 38.4652 104.67 37.573C105.605 36.7195 106.655 36.2219 107.818 36.0804C109.462 35.8804 111.005 36.0782 112.447 36.6741C114.104 37.354 115.017 38.3919 115.187 39.7878C115.334 40.9976 115.017 42.0829 114.237 43.0435C113.758 43.637 112.835 44.2609 111.466 44.9153L108.901 46.1483L106.458 47.4136C106.6 48.5769 107.111 49.6086 107.992 50.5088C109.069 51.6054 110.477 52.048 112.214 51.8366C113.672 51.6592 115.08 51.3305 116.438 50.8505C119.335 49.8212 122.211 48.2908 125.064 46.2594L127.019 44.8646C127.531 44.8023 127.87 44.8082 128.037 44.8824C128.18 44.8965 128.287 45.0645 128.358 45.3864ZM111.767 40.204C111.619 38.9941 110.274 38.544 107.73 38.8535C107.327 38.9025 106.917 39.157 106.501 39.6169C106.1 40.0749 105.886 40.5103 105.857 40.923L105.937 43.1326L106.076 45.0518C106.563 44.9138 107.292 44.5654 108.263 44.0066L110.427 42.7752C111.458 42.1933 111.904 41.3362 111.767 40.204ZM150.005 41.2887C150.05 41.661 149.552 42.2882 148.51 43.1705L145.426 45.7652C141.156 49.354 137.339 51.3532 133.973 51.7627C132.251 51.9722 130.748 51.3917 129.464 50.0211C128.274 48.7808 127.572 47.2765 127.356 45.5083C127.1 43.3988 127.234 41.1395 127.76 38.7303C128.505 35.2868 129.972 33.4321 132.159 33.166C133.213 33.0377 134.204 33.1611 135.131 33.5362C136.225 33.9856 136.831 34.6988 136.95 35.676C137.031 36.3429 136.816 36.7075 136.304 36.7698C135.963 36.8113 135.563 36.5687 135.106 36.042C134.759 35.5176 134.298 35.2903 133.724 35.3602C132.359 35.5262 131.381 36.6054 130.789 38.5977C130.287 40.2958 130.165 42.1995 130.422 44.309C130.82 47.5817 132.267 49.0661 134.765 48.7623C135.664 48.6528 136.961 48.1881 138.656 47.368C140.485 46.4844 142.201 45.4571 143.806 44.286C144.227 43.9986 144.819 43.5567 145.581 42.9603C145.88 42.7035 146.494 42.1881 147.423 41.414C148.111 40.8581 148.638 40.5342 149.005 40.4424C149.594 40.3707 149.927 40.6528 150.005 41.2887ZM182.683 37.4307C182.748 37.958 181.943 39.0397 180.269 40.6758C178.976 41.9507 177.874 42.919 176.962 43.5807C174.363 45.5025 171.885 46.6068 169.527 46.8937C165.882 47.3372 163.358 46.3221 161.955 43.8484L161.289 42.2532L160.754 40.3822L160.015 40.5193L158.387 40.7174L157.195 40.8153L152.332 41.4069L152.522 42.9657L153.725 46.4553C153.88 47.7272 153.415 48.4291 152.329 48.5612C151.538 48.6575 150.919 48.2291 150.473 47.276C150.094 46.236 149.822 45.0335 149.656 43.6686L149.424 41.7608C148.276 41.9004 147.63 41.3809 147.487 40.2021C147.444 39.8453 147.984 39.5041 149.11 39.1783L148.895 36.253L148.786 34.1887C148.724 33.0314 149.243 32.3858 150.345 32.2518C150.825 32.1933 151.125 32.5189 151.243 33.2287L151.636 35.6835L151.717 36.7361L151.838 37.7366L152.012 38.7779L160.429 37.7066L160.08 34.0658C159.887 32.0903 160.264 31.045 161.21 30.9298C161.908 30.8449 162.377 31.7874 162.616 33.7572C162.584 33.4935 162.681 34.1586 162.906 35.7524L163.244 38.1432C163.337 38.7772 163.447 39.2911 163.574 39.685C163.673 39.9877 163.864 40.4524 164.145 41.0794C164.791 42.5118 165.378 43.4556 165.906 43.9108C166.627 44.5314 167.662 44.7596 169.011 44.5954C169.802 44.4992 170.597 44.308 171.397 44.0218C172.076 43.7818 173.334 43.125 175.171 42.0516C176.303 41.3944 177.942 39.9908 180.089 37.8408C180.987 36.9445 181.545 36.4831 181.762 36.4567C182.227 36.4001 182.515 36.5619 182.624 36.9421L182.683 37.4307ZM219.55 32.8741C219.571 33.0447 219.069 33.704 218.044 34.8518C217.657 35.2924 217.151 35.7947 216.527 36.3585C216.273 36.5941 215.782 37.0237 215.055 37.6473C211.843 40.2261 208.942 41.673 206.352 41.9882C204.444 42.2203 202.788 41.8709 201.384 40.9399C199.879 39.9582 199.014 38.5367 198.787 36.6754L198.422 33.6741C198.204 33.9525 197.82 34.3533 197.27 34.8768L196.756 36.285L195.872 38.1397C194.142 41.766 191.787 43.7603 188.809 44.1226C187.491 44.283 186.09 43.8317 184.607 42.7687C183.139 41.7038 182.326 40.5198 182.168 39.217C182.109 38.7361 182.217 38.2587 182.489 37.7848C182.762 37.3109 183.13 37.0379 183.594 36.9657C184.352 36.8577 184.89 36.9419 185.207 37.2181C185.537 37.477 185.75 37.9942 185.844 38.7697C186.112 40.9722 187.262 41.9498 189.294 41.7026C190.271 41.5837 191.297 40.8293 192.371 39.4394C193.309 38.2234 193.947 37.0597 194.284 35.9484C193.794 36.1968 193.287 36.3608 192.762 36.4405L191.581 36.6314C190.099 36.8746 188.859 36.451 187.861 35.3605C186.957 34.4001 186.412 33.1522 186.225 31.6166C186.021 29.9415 186.461 28.5107 187.544 27.3243C188.587 26.19 189.953 25.5201 191.644 25.3144C195.615 24.8312 197.793 26.1718 198.178 29.3359L198.271 30.1037C198.314 30.4604 198.271 30.8828 198.142 31.3708L198.743 28.7476C198.928 27.9381 199.097 27.2565 199.25 26.7027C199.568 25.5623 200.014 24.9571 200.588 24.8873C201.286 24.8023 201.745 25.1479 201.965 25.9238L201.785 31.2344C201.723 33.0521 201.724 34.2247 201.788 34.752C201.982 36.3496 202.331 37.4719 202.835 38.1189C203.489 38.968 204.545 39.3039 206.003 39.1265C208.33 38.8434 210.777 37.8058 213.345 36.0138C213.881 35.6337 214.927 34.7825 216.482 33.46C217.537 32.5603 218.23 32.051 218.562 31.9319C219.136 31.8621 219.466 32.1761 219.55 32.8741ZM195.841 29.9271C195.632 28.2055 194.333 27.4899 191.944 27.7806C191.184 27.873 190.457 28.2999 189.762 29.0612C189.066 29.8071 188.763 30.5522 188.854 31.2967C189.097 33.2976 190.026 34.1999 191.639 34.0036L192.267 33.9272L194.216 33.6429C194.642 33.528 195.19 33.304 195.857 32.9709C195.952 31.8103 195.947 30.7957 195.841 29.9271Z" fill="#65D200"/>
</svg>
