<svg width="218" height="59" viewBox="0 0 218 59" fill="none" xmlns="http://www.w3.org/2000/svg">
<path d="M9.58594 8.30469L6.89062 21.1719L2.76562 42.7812C2.5625 43.4219 2.16406 43.7422 1.57031 43.7422C1.08594 43.7422 0.8125 43.5 0.75 43.0156L0.796875 42.2422L1.21875 38.2109C1.32812 37.1641 1.5 35.9375 1.73438 34.5312L1.75781 34.3672C1.88281 33.7422 2.11719 32.4688 2.46094 30.5469C2.63281 29.5312 2.95312 27.7031 3.42188 25.0625C3.51562 24.6094 3.65625 23.7969 3.84375 22.625C3.89062 22.2969 3.91406 21.8594 3.91406 21.3125L3.14062 19.7891C2.92188 19.3516 2.8125 18.9141 2.8125 18.4766C2.8125 18.3516 2.82812 18.2266 2.85938 18.1016L3.91406 10.7656C4.44531 7.04687 5.48438 5.1875 7.03125 5.1875C7.29688 5.1875 7.57031 5.26562 7.85156 5.42188C9.03906 6.07812 9.63281 6.88281 9.63281 7.83594L9.58594 8.30469ZM51.6544 31.6953C51.6544 33.9453 51.2481 35.8672 50.4356 37.4609C49.4044 39.5078 47.8731 40.5312 45.8419 40.5312C42.6075 40.5312 40.5919 38.8828 39.795 35.5859C39.7637 35.4297 39.6231 34.6406 39.3731 33.2188C39.2637 32.6875 39.1309 31.6797 38.9747 30.1953L38.7872 24.5469L38.0606 25.1094C37.8575 25.2656 37.5528 25.3438 37.1466 25.3438C36.4122 25.3438 35.9512 24.9609 35.7637 24.1953C35.7637 23.7734 36.2403 23.1641 37.1934 22.3672L38.7872 21.0312L38.5997 17.6328L38.4591 13.0156C38.4434 12.4688 38.4356 11.9453 38.4356 11.4453C38.4356 8.41406 38.6934 6.14063 39.2091 4.625C40.0684 2.09375 41.7012 0.828125 44.1075 0.828125C46.7325 0.828125 48.3341 3.35156 48.9122 8.39844L49.0528 9.61719L49.0997 10.8125C49.2091 13.5156 48.3184 16.125 46.4278 18.6406C45.0684 20.4531 43.42 21.8594 41.4825 22.8594V25.2031L41.5294 27.6641V29.2812C41.5294 30.8906 41.8341 32.8594 42.4434 35.1875C42.5528 35.9844 42.9434 36.6641 43.6153 37.2266C44.2872 37.7891 45.0294 38.0703 45.8419 38.0703C47.8887 38.0703 48.9122 36.1172 48.9122 32.2109C48.9122 30.9609 48.4747 29.6641 47.5997 28.3203C46.6309 26.8516 45.5528 26.1172 44.3653 26.1172C43.6153 26.1172 43.0372 26.0547 42.6309 25.9297C42.1778 25.8359 41.9512 25.5156 41.9512 24.9688C41.9512 24.5312 42.0919 24.1328 42.3731 23.7734C42.67 23.4141 43.0294 23.2344 43.4512 23.2344C45.795 23.2344 47.8106 24.2422 49.4981 26.2578C50.9356 27.9766 51.6544 29.7891 51.6544 31.6953ZM46.4278 9.21875C46.3341 8.1875 46.0684 7.08594 45.6309 5.91406C45.0684 4.32031 44.4356 3.52344 43.7325 3.52344C42.2325 3.52344 41.4825 6.53125 41.4825 12.5469V14.5156C41.4512 14.7344 41.42 15.0703 41.3887 15.5234L41.1309 19.9297C42.3028 19.2109 43.4434 18.0547 44.5528 16.4609C45.8966 14.5391 46.5684 12.6094 46.5684 10.6719L46.4278 9.21875ZM81.0675 34.8594C81.0675 35.3438 80.0128 36.2344 77.9034 37.5312C76.2628 38.5312 74.9347 39.2734 73.9191 39.7578C70.7159 41.2578 67.3878 42.0078 63.9347 42.0078C62.0753 42.0078 60.4269 41.4766 58.9894 40.4141C57.2863 39.1484 56.4034 37.2969 56.3409 34.8594L56.2941 32.8906V30.7344L56.3409 28.8125C56.3566 28.2188 56.4191 27.6406 56.5284 27.0781C56.7472 25.9531 57.4034 25.0078 58.4972 24.2422C59.5284 23.5078 60.63 23.1406 61.8019 23.1406C63.4581 23.1406 64.9659 23.5234 66.3253 24.2891C67.8878 25.1641 68.6691 26.3047 68.6691 27.7109C68.6691 28.9297 68.2238 29.9688 67.3331 30.8281C66.7863 31.3594 65.7941 31.8672 64.3566 32.3516L61.6613 33.2656L59.0831 34.2266C59.0831 35.3984 59.4659 36.4844 60.2316 37.4844C61.1691 38.7031 62.5128 39.3125 64.2628 39.3125C65.7316 39.3125 67.1691 39.1562 68.5753 38.8438C71.5753 38.1719 74.6144 37 77.6925 35.3281L79.8019 34.1797C80.3175 34.1797 80.6534 34.2266 80.8097 34.3203C80.9503 34.3516 81.0363 34.5312 81.0675 34.8594ZM65.2238 27.7109C65.2238 26.4922 63.9425 25.8828 61.38 25.8828C60.9738 25.8828 60.5363 26.0859 60.0675 26.4922C59.6144 26.8984 59.3488 27.3047 59.2706 27.7109L59.0831 29.9141L58.9894 31.8359C59.4894 31.7578 60.255 31.5 61.2863 31.0625L63.5831 30.1016C64.6769 29.6484 65.2238 28.8516 65.2238 27.7109ZM95.34 30.7812C95.34 33.1094 94.6994 35.4766 93.4181 37.8828C91.965 40.6016 90.3166 41.9609 88.4728 41.9609C87.3009 41.9609 86.34 41.5859 85.59 40.8359C84.8556 40.0859 84.4884 39.1172 84.4884 37.9297C84.4884 35.8828 84.9025 34.8594 85.7306 34.8594C86.4806 34.8594 86.8634 35.2109 86.8791 35.9141L86.9259 37.4844C86.9572 38.75 87.3791 39.3906 88.1916 39.4062C89.2228 39.4219 90.1447 38.7188 90.9572 37.2969C91.9572 35.5312 92.4572 33.1953 92.4572 30.2891C92.4572 29.4766 92.1525 28.7656 91.5431 28.1562C90.9494 27.5312 90.2462 27.2188 89.4337 27.2188C87.9494 27.2188 86.3634 28.2422 84.6759 30.2891L84.3478 32.2109C84.0509 33.9609 83.9181 36.0078 83.9494 38.3516L84.0431 45.0312C84.0587 46.5625 84.1603 48.1797 84.3478 49.8828L84.6759 52.9531C84.6759 53.25 84.965 53.9844 85.5431 55.1562C85.7775 55.625 85.9337 56.0781 86.0119 56.5156C86.0119 57.375 85.9025 57.9531 85.6837 58.25C85.4181 58.5938 84.8712 58.7656 84.0431 58.7656C83.2306 58.7656 82.6369 58.0469 82.2619 56.6094C82.09 55.9688 81.9806 55.1641 81.9337 54.1953L81.4181 44.7969V36.2891C81.4181 34.6172 81.4962 32.8438 81.6525 30.9688L82.2384 23.9609C82.2697 23.6328 82.1837 23.2344 81.9806 22.7656L81.5587 21.2656C81.5587 20.25 82.0197 19.7422 82.9416 19.7422C83.4728 19.7422 83.9259 20.0156 84.3009 20.5625C84.6447 21.0469 84.8166 21.5703 84.8166 22.1328V26.75C86.2541 25.1094 87.8869 24.2891 89.715 24.2891C91.2775 24.2891 92.6212 24.9922 93.7462 26.3984C94.8087 27.7266 95.34 29.1875 95.34 30.7812ZM125.363 34.8594C125.363 35.3438 124.308 36.2344 122.198 37.5312C120.558 38.5312 119.23 39.2734 118.214 39.7578C115.011 41.2578 111.683 42.0078 108.23 42.0078C106.37 42.0078 104.722 41.4766 103.284 40.4141C101.581 39.1484 100.698 37.2969 100.636 34.8594L100.589 32.8906V30.7344L100.636 28.8125C100.652 28.2188 100.714 27.6406 100.823 27.0781C101.042 25.9531 101.698 25.0078 102.792 24.2422C103.823 23.5078 104.925 23.1406 106.097 23.1406C107.753 23.1406 109.261 23.5234 110.62 24.2891C112.183 25.1641 112.964 26.3047 112.964 27.7109C112.964 28.9297 112.519 29.9688 111.628 30.8281C111.081 31.3594 110.089 31.8672 108.652 32.3516L105.956 33.2656L103.378 34.2266C103.378 35.3984 103.761 36.4844 104.527 37.4844C105.464 38.7031 106.808 39.3125 108.558 39.3125C110.027 39.3125 111.464 39.1562 112.87 38.8438C115.87 38.1719 118.909 37 121.988 35.3281L124.097 34.1797C124.613 34.1797 124.948 34.2266 125.105 34.3203C125.245 34.3516 125.331 34.5312 125.363 34.8594ZM109.519 27.7109C109.519 26.4922 108.238 25.8828 105.675 25.8828C105.269 25.8828 104.831 26.0859 104.363 26.4922C103.909 26.8984 103.644 27.3047 103.566 27.7109L103.378 29.9141L103.284 31.8359C103.784 31.7578 104.55 31.5 105.581 31.0625L107.878 30.1016C108.972 29.6484 109.519 28.8516 109.519 27.7109ZM147.346 33.4062C147.346 33.7812 146.776 34.3438 145.635 35.0938L142.26 37.2969C137.588 40.3438 133.557 41.8672 130.166 41.8672C128.432 41.8672 127.01 41.1094 125.901 39.5938C124.869 38.2188 124.354 36.6406 124.354 34.8594C124.354 32.7344 124.76 30.5078 125.573 28.1797C126.729 24.8516 128.408 23.1875 130.612 23.1875C131.674 23.1875 132.643 23.4297 133.518 23.9141C134.549 24.4922 135.065 25.2734 135.065 26.2578C135.065 26.9297 134.807 27.2656 134.291 27.2656C133.948 27.2656 133.58 26.9766 133.19 26.3984C132.908 25.8359 132.479 25.5547 131.901 25.5547C130.526 25.5547 129.424 26.5078 128.596 28.4141C127.893 30.0391 127.541 31.9141 127.541 34.0391C127.541 37.3359 128.799 38.9844 131.315 38.9844C132.221 38.9844 133.565 38.6797 135.346 38.0703C137.268 37.4141 139.096 36.6016 140.83 35.6328C141.283 35.3984 141.924 35.0312 142.752 34.5312C143.08 34.3125 143.752 33.875 144.768 33.2188C145.518 32.75 146.08 32.4922 146.455 32.4453C147.049 32.4453 147.346 32.7656 147.346 33.4062ZM180.251 33.5234C180.251 34.0547 179.322 35.0312 177.462 36.4531C176.025 37.5625 174.814 38.3906 173.829 38.9375C171.017 40.5312 168.423 41.3281 166.048 41.3281C162.376 41.3281 159.993 40.0156 158.9 37.3906L158.431 35.7266L158.126 33.8047L157.376 33.8516H155.736L154.54 33.8047H149.642V35.375L150.415 38.9844C150.415 40.2656 149.868 40.9062 148.775 40.9062C147.978 40.9062 147.415 40.4062 147.087 39.4062C146.837 38.3281 146.712 37.1016 146.712 35.7266V33.8047C145.556 33.8047 144.978 33.2109 144.978 32.0234C144.978 31.6641 145.556 31.3906 146.712 31.2031L146.853 28.2734L146.993 26.2109C147.072 25.0547 147.665 24.4766 148.775 24.4766C149.259 24.4766 149.517 24.8359 149.548 25.5547L149.642 28.0391L149.595 29.0938V30.1016L149.642 31.1562L158.126 31.1094L158.22 27.4531C158.267 25.4688 158.767 24.4766 159.72 24.4766C160.423 24.4766 160.775 25.4688 160.775 27.4531C160.775 27.1875 160.79 27.8594 160.822 29.4688L160.868 31.8828C160.884 32.5234 160.931 33.0469 161.009 33.4531C161.072 33.7656 161.204 34.25 161.408 34.9062C161.876 36.4062 162.345 37.4141 162.814 37.9297C163.454 38.6328 164.454 38.9844 165.814 38.9844C166.611 38.9844 167.423 38.8906 168.251 38.7031C168.954 38.5469 170.283 38.0469 172.236 37.2031C173.439 36.6875 175.236 35.4922 177.626 33.6172C178.626 32.8359 179.236 32.4453 179.454 32.4453C179.923 32.4453 180.189 32.6406 180.251 33.0312V33.5234ZM217.399 33.4531C217.399 33.625 216.821 34.2188 215.664 35.2344C215.227 35.625 214.664 36.0625 213.977 36.5469C213.696 36.75 213.157 37.1172 212.36 37.6484C208.86 39.8203 205.805 40.9062 203.196 40.9062C201.274 40.9062 199.672 40.3594 198.391 39.2656C197.016 38.1094 196.328 36.5938 196.328 34.7188V31.6953C196.078 31.9453 195.649 32.2969 195.039 32.75L194.36 34.0859L193.258 35.8203C191.102 39.2109 188.524 40.9062 185.524 40.9062C184.196 40.9062 182.86 40.2891 181.516 39.0547C180.188 37.8203 179.524 36.5469 179.524 35.2344C179.524 34.75 179.688 34.2891 180.016 33.8516C180.344 33.4141 180.742 33.1875 181.211 33.1719C181.977 33.1562 182.5 33.3047 182.782 33.6172C183.078 33.9141 183.227 34.4531 183.227 35.2344C183.227 37.4531 184.25 38.5625 186.297 38.5625C187.282 38.5625 188.391 37.9375 189.625 36.6875C190.703 35.5938 191.477 34.5156 191.946 33.4531C191.43 33.6406 190.907 33.7422 190.375 33.7578L189.18 33.8047C187.68 33.8672 186.5 33.2969 185.641 32.0938C184.86 31.0312 184.469 29.7266 184.469 28.1797C184.469 26.4922 185.078 25.125 186.297 24.0781C187.469 23.0781 188.907 22.5781 190.61 22.5781C194.61 22.5781 196.61 24.1719 196.61 27.3594V28.1328C196.61 28.4922 196.516 28.9062 196.328 29.375L197.242 26.8438C197.524 26.0625 197.774 25.4062 197.992 24.875C198.446 23.7812 198.961 23.2344 199.539 23.2344C200.242 23.2344 200.657 23.6328 200.782 24.4297L199.961 29.6797C199.68 31.4766 199.539 32.6406 199.539 33.1719C199.539 34.7812 199.75 35.9375 200.172 36.6406C200.719 37.5625 201.727 38.0234 203.196 38.0234C205.539 38.0234 208.094 37.2891 210.86 35.8203C211.438 35.5078 212.578 34.7891 214.282 33.6641C215.438 32.8984 216.188 32.4766 216.532 32.3984C217.11 32.3984 217.399 32.75 217.399 33.4531ZM194.219 27.6641C194.219 25.9297 193.016 25.0625 190.61 25.0625C189.844 25.0625 189.071 25.3984 188.289 26.0703C187.508 26.7266 187.117 27.4297 187.117 28.1797C187.117 30.1953 187.93 31.2031 189.555 31.2031H190.188L192.157 31.1562C192.594 31.0938 193.164 30.9375 193.867 30.6875C194.102 29.5469 194.219 28.5391 194.219 27.6641Z" fill="#56FF89"/>
</svg>
