<svg width="479" height="130" viewBox="0 0 479 130" fill="none" xmlns="http://www.w3.org/2000/svg">
<path d="M337.488 8.87628C337.696 9.77745 337.434 10.9849 336.703 12.4986C335.577 14.8154 333.751 16.727 331.224 18.2334C330.16 18.8748 329.127 19.3112 328.125 19.5425C326.623 19.8894 325.198 19.9417 323.85 19.6993L320.549 18.7612C319.135 18.3493 317.708 17.3078 316.267 15.6366L315.738 14.3744C315.345 12.6722 315.862 11.6563 317.289 11.3268C317.764 11.2169 318.528 11.5547 319.58 12.3402L321.923 14.0931L324.488 15.4386C325.441 15.7985 326.406 15.8657 327.382 15.6402C329.134 15.2355 330.725 14.3012 332.153 12.8375C333.072 11.3333 334.222 9.74924 335.604 8.08519C336.681 7.83657 337.308 8.10027 337.488 8.87628ZM372.449 33.3525C372.709 34.479 371.14 36.819 367.742 40.3725C363.753 44.5636 359.431 47.1968 354.774 48.2722C349.768 49.4286 346.277 48.244 344.303 44.7185L342.084 40.7617L340.396 36.8798C340.218 39.5315 339.159 42.7688 337.221 46.5916C335.03 50.921 332.858 53.3343 330.706 53.8315C328.778 54.2767 326.944 53.8698 325.203 52.6107C323.622 51.4729 322.437 49.9403 321.649 48.0129C321.285 47.1214 320.663 44.7731 319.785 40.9682L318.865 36.988L318.258 33.3313C317.874 31.0995 318.521 29.7899 320.198 29.4025C320.749 29.2753 321.32 29.4071 321.911 29.7979C322.499 30.4005 322.905 31.3613 323.131 32.6804L323.605 35.4186L324.391 39.5086L325.207 43.0382C325.403 43.8893 325.644 44.7038 325.929 45.4817C326.856 48.01 328.183 49.0746 329.91 48.6756C331.062 48.4097 332.353 46.6349 333.783 43.3514C335.057 40.4203 335.899 37.7867 336.309 35.4508C337.092 31.0774 338.303 28.6749 339.944 28.2433C341.14 27.9407 342.526 29.8883 344.102 34.0859C345.017 36.5641 345.757 38.3442 346.324 39.4264C347.378 41.477 348.481 42.8305 349.635 43.487C350.9 44.1703 352.609 44.2634 354.762 43.7662C358.517 42.8989 361.494 41.2884 363.692 38.9348L370.641 31.5158C371.517 31.3134 372.12 31.9257 372.449 33.3525Z" fill="#FFD55A"/>
<path d="M288.889 16.1065C289.236 17.6084 288.533 18.5618 286.781 18.9665C285.854 19.1804 284.643 18.6165 283.146 17.2746C281.717 15.9962 280.89 14.8689 280.665 13.8926C280.26 12.1403 280.821 11.0878 282.348 10.7351C283.575 10.4518 284.921 10.9715 286.386 12.2941C287.754 13.534 288.588 14.8048 288.889 16.1065ZM321.716 44.3584C322.1 45.9047 320.198 48.7435 316.01 52.8749C311.436 57.3857 307.096 60.1152 302.99 61.0634L297.615 61.5931C295.474 61.7976 293.607 60.7388 292.016 58.4168C291.257 57.3001 290.635 55.6903 290.149 53.5876L288.814 47.805L287.449 41.5545L286.793 39.0561C286.502 37.9104 286.416 36.7964 286.535 35.7142C286.632 34.8745 287.13 34.3507 288.031 34.1425C289.859 33.7204 291.149 35.2549 291.903 38.746L294.563 50.9466C295.162 53.6559 295.807 55.3658 296.499 56.0762C297.533 57.1294 299.515 57.3177 302.444 56.6412C305.823 55.8607 309.066 54.202 312.171 51.6653L319.55 43.7118L320.714 43.443C321.201 43.3832 321.535 43.6883 321.716 44.3584Z" fill="#FFD55A"/>
<path d="M288.865 51.788C289.062 52.6391 287.934 54.5477 285.481 57.5137C283.588 59.8229 281.955 61.5978 280.58 62.8382C276.664 66.4322 272.804 68.6687 268.999 69.5475C263.116 70.9063 258.813 69.6853 256.089 65.8845L254.722 63.392L253.523 60.4257L252.339 60.7784L249.71 61.3854L247.778 61.7527L239.93 63.5653L240.511 66.0811L243.086 71.5774C243.56 73.6301 242.921 74.8588 241.169 75.2635C239.892 75.5584 238.806 74.9655 237.91 73.4848C237.111 71.8501 236.457 69.9313 235.948 67.7284L235.237 64.6494C233.384 65.0772 232.238 64.3399 231.799 62.4374C231.666 61.8617 232.491 61.2097 234.274 60.4814L233.415 55.7358L232.877 52.3794C232.575 50.4981 233.312 49.3522 235.089 48.9417C235.865 48.7624 236.411 49.2428 236.727 50.3827L237.797 54.3282L238.112 56.0353L238.485 57.6499L238.95 59.3222L252.526 56.1076L251.323 50.2153C250.664 47.0188 251.098 45.2442 252.625 44.8915C253.751 44.6313 254.681 46.0908 255.416 49.2699C255.317 48.8444 255.591 49.915 256.237 52.4818L257.205 56.332C257.467 57.3525 257.736 58.1738 258.011 58.7957C258.227 59.2733 258.619 60.0001 259.188 60.9763C260.494 63.206 261.617 64.6472 262.559 65.2998C263.846 66.1892 265.578 66.3824 267.756 65.8794C269.032 65.5845 270.299 65.1336 271.557 64.5268C272.625 64.0163 274.568 62.7238 277.385 60.6493C279.122 59.378 281.558 56.7981 284.694 52.9096C286.007 51.2879 286.839 50.4366 287.19 50.3556C287.941 50.1822 288.438 50.3968 288.683 50.9995L288.865 51.788Z" fill="#FFD55A"/>
<path d="M234.834 64.268C235.03 65.1191 233.902 67.0277 231.45 69.9937C229.557 72.3029 227.923 74.0777 226.549 75.3181C222.633 78.9122 218.772 81.1487 214.967 82.0275C209.084 83.3863 204.781 82.1652 202.058 78.3645L200.691 75.872L199.492 72.9057L198.307 73.2583L195.679 73.8654L193.747 74.2326L185.899 76.0453L186.48 78.561L189.055 84.0574C189.529 86.1101 188.89 87.3388 187.137 87.7435C185.861 88.0384 184.775 87.4455 183.879 85.9648C183.079 84.3301 182.425 82.4112 181.916 80.2084L181.205 77.1294C179.353 77.5572 178.207 76.8199 177.767 74.9174C177.635 74.3417 178.46 73.6897 180.243 72.9614L179.384 68.2158L178.846 64.8594C178.543 62.9781 179.28 61.8322 181.058 61.4217C181.834 61.2424 182.38 61.7228 182.696 62.8627L183.765 66.8082L184.081 68.5153L184.453 70.1299L184.919 71.8022L198.494 68.5876L197.291 62.6952C196.632 59.4988 197.066 57.7242 198.593 57.3715C199.72 57.1113 200.65 58.5708 201.384 61.7499C201.286 61.3244 201.56 62.395 202.205 64.9618L203.174 68.812C203.436 69.8325 203.705 70.6538 203.98 71.2757C204.196 71.7532 204.588 72.4801 205.156 73.4563C206.462 75.686 207.586 77.1271 208.528 77.7798C209.814 78.6692 211.547 78.8624 213.724 78.3593C215.001 78.0645 216.268 77.6136 217.525 77.0068C218.594 76.4963 220.537 75.2038 223.354 73.1293C225.09 71.858 227.527 69.2781 230.663 65.3895C231.976 63.7679 232.808 62.9166 233.158 62.8356C233.909 62.6622 234.407 62.8768 234.652 63.4795L234.834 64.268Z" fill="#FFD55A"/>
<path d="M179 77.1639C179.104 77.6145 178.557 78.7296 177.36 80.5091C175.931 82.6585 174.292 84.5796 172.442 86.2727C166.897 91.3768 161.396 94.5591 155.939 95.8195C150.907 96.9817 147.238 92.5687 144.931 82.5807C144.102 86.0683 143.264 88.8327 142.417 90.8741C140.627 95.1109 138.58 97.4953 136.277 98.0272C134.074 98.5361 132.424 98.1262 131.326 96.7977C130.557 95.8677 129.887 94.1637 129.315 91.6854C128.488 88.1058 128.786 83.8047 130.21 78.7823C132 72.4888 135.023 68.8506 139.278 67.8677C141.706 67.3069 143.891 67.6329 145.832 68.8457L145.983 68.811C146.658 68.6549 147.352 69.088 148.063 70.1104C148.658 70.9749 149.03 71.7855 149.178 72.5423L151.459 84.4743C151.905 86.7446 152.453 88.3187 153.104 89.1967C154.059 90.479 155.513 90.8947 157.466 90.4437C159.168 90.0505 160.798 89.5158 162.356 88.8396C164.56 87.8821 167.003 86.1842 169.683 83.7458C170.228 83.2507 172.102 81.0907 175.306 77.2657L176.825 75.4515C177.986 75.3415 178.711 75.9123 179 77.1639ZM142.668 74.837L142.624 73.621C142.306 72.2442 141.559 71.6917 140.382 71.9634C138.28 72.4491 136.484 74.7227 134.997 78.7842C133.378 83.1924 132.872 86.3679 133.479 88.3108L134.381 91.1876C134.693 91.8538 135.086 92.185 135.56 92.181C136.886 91.8746 138.553 88.4177 140.561 81.8103L142.668 74.837Z" fill="#FFD55A"/>
<path d="M132.573 87.2937C132.886 88.6455 131.301 91.1473 127.82 94.799C123.812 99.0209 119.718 101.615 115.537 102.58C111.031 103.621 107.003 102.903 103.451 100.428C100.421 97.3568 98.5658 95.5442 97.884 94.9897C96.4233 99.9678 94.504 102.732 92.1259 103.281C91.2998 103.472 90.4159 103.412 89.4742 103.102C88.5613 102.575 87.6763 101.883 86.8192 101.026C86.409 100.62 85.8639 99.915 85.1839 98.9119L83.7565 96.1565L82.5659 93.7419C82.1018 93.2163 81.5548 92.9603 80.9251 92.9739C79.8988 93.211 78.9211 96.1131 77.9921 101.68L77.1842 106.574C76.6492 108.253 75.7058 109.249 74.3541 109.561C73.6532 109.723 73.06 109.438 72.5746 108.706L71.378 105.067L70.849 102.777L70.369 100.356L69.6058 97.0518C69.4267 96.6185 69.1502 95.8782 68.7764 94.8307L67.2301 89.8483C66.5884 87.7552 67.1302 86.3908 68.8555 85.755C69.8819 85.5179 71.0683 86.7732 72.4149 89.5209C72.6133 89.9233 73.0429 90.9843 73.7038 92.7038C74.1623 93.8899 74.4986 94.9461 74.7125 95.8723C76.2751 90.7651 77.9326 88.0091 79.6849 87.6044C81.0367 87.2922 82.4078 87.4633 83.7982 88.1178C85.1887 88.7722 86.2875 89.705 87.0946 90.9161L89.0682 95.0087C89.939 96.838 90.6526 97.7015 91.2091 97.5993C92.066 97.4278 92.7263 96.4051 93.19 94.5313C93.2228 94.4447 93.2699 94.0778 93.3314 93.4308C93.3698 93.0264 93.4774 92.0654 93.6543 90.548L93.7172 87.0529C93.8383 86.2075 94.4872 85.6489 95.6637 85.3772C96.7902 85.117 97.8398 85.6656 98.8125 87.023C99.3287 87.7739 100.1 88.8878 101.127 90.3646C105.734 96.8416 110.529 99.5049 115.51 98.3543C118.589 97.6431 121.361 96.1723 123.825 93.9419L130.283 86.7945C131.66 86.4765 132.423 86.6429 132.573 87.2937Z" fill="#FFD55A"/>
<path d="M71.0063 101.91C71.1451 102.51 70.4395 103.623 68.8897 105.246L64.2978 110.025C57.9405 116.635 52.0459 120.567 46.6138 121.822C43.8352 122.464 41.2768 121.776 38.9386 119.758C36.7776 117.937 35.3676 115.599 34.7085 112.746C33.9221 109.341 33.7491 105.624 34.1893 101.593C34.8101 95.8335 36.8854 92.546 40.415 91.7307C42.1172 91.3376 43.7588 91.3671 45.3399 91.8193C47.206 92.3639 48.3212 93.4248 48.6854 95.0018C48.934 96.0782 48.6453 96.7118 47.8192 96.9026C47.2685 97.0298 46.5733 96.7026 45.7335 95.9209C45.0748 95.1238 44.2823 94.8323 43.3561 95.0462C41.1532 95.555 39.7411 97.4896 39.1198 100.85C38.5946 103.714 38.7252 106.848 39.5116 110.252C40.7316 115.534 43.3567 117.709 47.3869 116.779C48.8388 116.443 50.8789 115.458 53.5071 113.822C56.3433 112.06 58.9714 110.082 61.3916 107.888C62.0308 107.345 62.9213 106.519 64.063 105.412C64.5077 104.94 65.4222 103.991 66.8065 102.563C67.8346 101.535 68.6404 100.914 69.2238 100.7C70.1751 100.48 70.7692 100.883 71.0063 101.91Z" fill="#FFD55A"/>
<path d="M24.7162 100.301C25.1363 101.891 24.1198 102.97 21.6666 103.537C23.1574 105.539 24.2122 107.879 24.8309 110.558C25.5652 113.737 25.3116 117.092 24.0702 120.622C22.6326 124.672 20.3742 127.052 17.2952 127.763C14.892 128.318 12.6804 128.104 10.6601 127.12C8.66496 126.131 7.20787 124.503 6.28888 122.237L4.90143 117.257C4.2289 114.802 3.99719 111.573 4.20631 107.569C4.27543 106.499 4.62855 105.231 5.26566 103.765C6.02597 102.034 6.79219 101.013 7.56432 100.703C8.84099 100.408 9.62097 100.874 9.90429 102.1C10.0546 102.751 10.0201 103.629 9.80081 104.735L9.16308 107.967C8.8441 111.495 9.19341 115.462 10.211 119.868C10.5232 121.219 11.2436 122.226 12.3722 122.889C13.495 123.526 14.7448 123.685 16.1216 123.367C17.7487 122.991 18.8855 121.463 19.532 118.783C20.0843 116.493 20.1522 114.447 19.7359 112.644L19.5191 111.706C18.9467 109.227 18.437 107.592 17.9901 106.798C17.4969 105.462 16.9412 104.483 16.3229 103.861C14.8979 103.742 13.882 103.568 13.2754 103.339C12.2663 102.965 11.6192 102.39 11.334 101.612C10.883 99.6594 11.4239 98.3479 12.9566 97.6775L13.8404 97.3942C14.6491 97.1283 15.5783 97.2697 16.6279 97.8183C17.2018 98.134 18.1032 98.7828 19.3319 99.7646L22.3879 99.2961C23.7127 99.0956 24.4888 99.4305 24.7162 100.301Z" fill="#FFD55A"/>
<path d="M475.665 60.0399C475.827 60.7408 474.436 62.5387 471.492 65.4336C469.087 67.8084 467.234 69.4889 465.933 70.4751C461.017 74.1945 456.019 76.6411 450.937 77.8148C448.959 78.2716 446.485 77.7752 443.513 76.3258C440.659 74.9283 438.631 73.34 437.429 71.5609C437.692 77.3803 437.135 80.4489 435.758 80.7669C434.732 81.004 433.903 80.8395 433.271 80.2735L432.014 77.9138L429.896 71.9957L428.471 66.5107C427.858 64.2 427.32 62.5575 426.858 61.5832L424.896 58.3975C424.555 56.9206 425.073 56.0231 426.45 55.7051C427.927 55.364 429.273 56.0551 430.488 57.7783C431.382 59.0221 432.056 60.5144 432.511 62.2551L433.763 66.9891L434.581 69.8457C434.603 65.8326 435.522 62.2189 437.337 59.0046C439.866 54.5442 442.37 52.0279 444.849 51.4554C445.725 51.2531 446.622 51.4281 447.541 51.9806C448.486 52.4214 449.053 52.9894 449.24 53.6845C449.712 55.5004 448.566 57.3338 445.803 59.1849C442.353 61.4848 440.294 63.8721 439.626 66.3467C443.263 72.046 447.334 74.3753 451.84 73.3346C454.143 72.8026 456.166 72.0849 457.908 71.1814C459.368 70.4225 461.483 69.077 464.254 67.145C466.614 65.4923 468.72 63.8194 470.57 62.1264L473.507 59.4308L474.671 59.162C475.172 59.0464 475.503 59.339 475.665 60.0399Z" fill="#FFD55A"/>
<path d="M396.971 41.4322C397.318 42.9341 396.615 43.8875 394.863 44.2922C393.937 44.5061 392.725 43.9421 391.229 42.6002C389.8 41.3219 388.973 40.1945 388.747 39.2183C388.342 37.466 388.903 36.4135 390.43 36.0608C391.657 35.7775 393.003 36.2972 394.469 37.6198C395.836 38.8597 396.67 40.1305 396.971 41.4322ZM429.799 69.6841C430.182 71.2304 428.28 74.0692 424.093 78.2005C419.518 82.7114 415.178 85.4409 411.073 86.3891L405.697 86.9188C403.556 87.1233 401.69 86.0645 400.099 83.7425C399.34 82.6257 398.718 81.016 398.232 78.9132L396.896 73.1307L395.532 66.8802L394.876 64.3818C394.585 63.2361 394.499 62.1221 394.618 61.0398C394.714 60.2002 395.213 59.6763 396.114 59.4682C397.941 59.0461 399.232 60.5806 399.985 64.0717L402.645 76.2723C403.244 78.9816 403.89 80.6915 404.581 81.4019C405.616 82.4551 407.597 82.6434 410.526 81.9669C413.905 81.1864 417.148 79.5277 420.254 76.991L427.632 69.0375L428.796 68.7686C429.283 68.7089 429.618 69.014 429.799 69.6841Z" fill="#FFD55A"/>
<path d="M397.569 76.3772C397.881 77.729 396.296 80.2308 392.816 83.8825C388.807 88.1044 384.713 90.6981 380.532 91.6637C376.026 92.7044 371.998 91.9869 368.446 89.5112C365.417 86.4403 363.561 84.6276 362.879 84.0732C361.418 89.0513 359.499 91.8151 357.121 92.3643C356.295 92.5551 355.411 92.4956 354.469 92.1858C353.556 91.6583 352.671 90.9662 351.814 90.1094C351.404 89.7032 350.859 88.9985 350.179 87.9954L348.752 85.24L347.561 82.8254C347.097 82.2998 346.55 82.0438 345.92 82.0574C344.894 82.2945 343.916 85.1966 342.987 90.7639L342.179 95.6572C341.644 97.3365 340.701 98.3323 339.349 98.6445C338.648 98.8064 338.055 98.5215 337.57 97.7898L336.373 94.1506L335.844 91.8601L335.364 89.4396L334.601 86.1353C334.422 85.702 334.145 84.9617 333.772 83.9142L332.225 78.9318C331.584 76.8387 332.125 75.4743 333.851 74.8385C334.877 74.6014 336.063 75.8567 337.41 78.6044C337.608 79.0068 338.038 80.0678 338.699 81.7873C339.157 82.9734 339.494 84.0296 339.708 84.9558C341.27 79.8486 342.928 77.0926 344.68 76.6879C346.032 76.3757 347.403 76.5468 348.793 77.2013C350.184 77.8557 351.283 78.7885 352.09 79.9996L354.063 84.0922C354.934 85.9214 355.648 86.785 356.204 86.6828C357.061 86.5113 357.721 85.4886 358.185 83.6148C358.218 83.5282 358.265 83.1613 358.326 82.5143C358.365 82.1099 358.473 81.1489 358.649 79.6315L358.712 76.1364C358.833 75.291 359.482 74.7324 360.659 74.4607C361.785 74.2005 362.835 74.7491 363.808 76.1065C364.324 76.8574 365.095 77.9713 366.122 79.4481C370.729 85.9251 375.524 88.5884 380.505 87.4378C383.584 86.7266 386.356 85.2558 388.821 83.0254L395.278 75.878C396.655 75.56 397.418 75.7264 397.569 76.3772Z" fill="#FFD55A"/>
<path d="M324.743 81.2925C325.163 82.8831 324.147 83.9616 321.693 84.5283C323.184 86.5307 324.239 88.8711 324.858 91.5496C325.592 94.7288 325.338 98.0833 324.097 101.613C322.659 105.663 320.401 108.044 317.322 108.755C314.919 109.31 312.707 109.096 310.687 108.112C308.692 107.123 307.235 105.495 306.316 103.229L304.928 98.2491C304.256 95.7939 304.024 92.5646 304.233 88.5611C304.302 87.4904 304.655 86.2223 305.292 84.7567C306.053 83.0254 306.819 82.0047 307.591 81.6945C308.868 81.3996 309.648 81.8655 309.931 83.0921C310.081 83.7429 310.047 84.621 309.828 85.7264L309.19 88.9588C308.871 92.4867 309.22 96.4535 310.238 100.859C310.55 102.211 311.27 103.218 312.399 103.88C313.522 104.517 314.772 104.677 316.148 104.359C317.776 103.983 318.912 102.455 319.559 99.7742C320.111 97.4845 320.179 95.4385 319.763 93.6361L319.546 92.6974C318.974 90.2192 318.464 88.5834 318.017 87.7901C317.524 86.4538 316.968 85.4747 316.35 84.8528C314.925 84.7337 313.909 84.5596 313.302 84.3306C312.293 83.9572 311.646 83.3815 311.361 82.6036C310.91 80.6511 311.451 79.3396 312.983 78.6692L313.867 78.3859C314.676 78.12 315.605 78.2614 316.655 78.81C317.229 79.1257 318.13 79.7745 319.359 80.7563L322.415 80.2878C323.74 80.0873 324.516 80.4222 324.743 81.2925Z" fill="#FFD55A"/>
<path d="M305.661 98.6734C305.863 99.5495 304.933 101.346 302.871 104.064C301.364 106.1 299.979 107.751 298.716 109.018C294.584 113.163 290.065 115.802 285.159 116.936C281.779 117.716 279.166 117.647 277.319 116.729C275.114 115.63 273.222 113.602 271.642 110.644L269.209 106.104C268.439 104.937 267.628 104.452 266.777 104.649C266.226 104.776 265.415 105.833 264.345 107.821C263.752 108.907 263.413 109.552 263.329 109.756C262.772 110.887 262.141 112.377 261.435 114.228L260.219 117.356C259.559 119.065 258.753 120.029 257.802 120.248C256.576 120.532 255.447 119.869 254.416 118.262L252.379 113.551L249.466 105.562L247.616 99.2652C247.088 97.4359 247.8 96.2958 249.753 95.8448C250.454 95.6829 251.137 96.1844 251.801 97.3493C252.2 98.0483 252.716 99.4847 253.35 101.659L254.504 105.624C254.879 106.566 255.224 107.317 255.538 107.877C255.794 108.53 256.391 109.856 257.327 111.854C257.927 110.002 259.006 107.538 260.563 104.462C262.573 100.491 264.542 98.2827 266.469 97.8375C268.347 97.4039 270.031 98.0169 271.521 99.6765C272.34 100.595 273.481 102.625 274.946 105.768C276.194 108.433 277.159 110.214 277.841 111.111C279.334 113.007 281.031 113.736 282.934 113.297C287.239 112.302 291.492 110.107 295.691 106.711C296.823 105.79 298.838 103.44 301.735 99.6591C302.788 98.2821 303.529 97.4914 303.956 97.2872C304.657 97.1253 305.056 97.1387 305.152 97.3274L305.661 98.6734Z" fill="#FFD55A"/>
</svg>
