<svg width="724" height="379" viewBox="0 0 724 379" fill="none" xmlns="http://www.w3.org/2000/svg">
<path d="M495.141 29.0476C495.933 30.9452 495.81 33.6891 494.771 37.2795C493.166 42.7771 489.877 47.6475 484.902 51.8909C482.807 53.6937 480.705 55.0352 478.597 55.9154C475.435 57.2356 472.331 57.8814 469.286 57.8528L461.7 57.0275C458.448 56.6519 454.932 54.9012 451.151 51.7754L449.522 49.2062C448.025 45.622 448.779 43.2028 451.784 41.9485C452.785 41.5304 454.585 41.9861 457.182 43.3157L462.971 46.2841L469.095 48.2768C471.318 48.7103 473.458 48.4979 475.514 47.6398C479.203 46.0994 482.341 43.4589 484.926 39.7181C486.378 36.0791 488.309 32.1784 490.718 28.0159C492.984 27.0697 494.459 27.4136 495.141 29.0476ZM580.892 69.6595C581.882 72.0314 579.316 77.7449 573.193 86.8001C566.012 97.4729 557.519 104.856 547.715 108.949C537.174 113.349 529.082 112.054 523.44 105.063L517.101 97.2185L511.955 89.3397C512.552 95.218 511.439 102.708 508.616 111.809C505.428 122.115 501.568 128.213 497.035 130.106C492.977 131.8 488.805 131.592 484.519 129.482C480.63 127.577 477.462 124.66 475.016 120.729C473.886 118.911 471.649 113.996 468.304 105.984L464.805 97.6034L462.111 89.8152C460.438 85.0668 461.367 81.9554 464.899 80.4811C466.059 79.997 467.359 80.073 468.801 80.7091C470.313 81.8109 471.562 83.7652 472.548 86.5721L474.608 92.3968L477.857 101.068L480.959 108.5C481.708 110.292 482.539 111.987 483.454 113.586C486.428 118.782 489.733 120.62 493.37 119.102C495.795 118.09 497.962 113.719 499.873 105.989C501.573 99.0898 502.436 93.0039 502.463 87.7315C502.549 77.8544 504.309 72.137 507.744 70.5793C510.252 69.4703 514.015 73.2222 519.035 81.8348C521.964 86.9251 524.251 90.5505 525.896 92.7111C528.97 96.8127 531.894 99.3679 534.667 100.377C537.695 101.403 541.475 100.969 546.008 99.0771C553.915 95.7764 559.839 91.137 563.78 85.1589L576.243 66.3081C578.088 65.5379 579.637 66.655 580.892 69.6595Z" fill="#FFD55A"/>
<path d="M391.32 63.0122C392.64 66.1748 391.455 68.5262 387.766 70.0665C385.816 70.8807 382.95 70.0962 379.17 67.713C375.561 65.4439 373.328 63.2815 372.47 61.2258C370.929 57.5362 371.767 55.0202 374.982 53.678C377.565 52.5997 380.709 53.2369 384.415 55.5894C387.874 57.7971 390.176 60.2713 391.32 63.0122ZM473.801 112.695C475.218 115.941 472.108 122.872 464.47 133.488C456.126 145.08 447.631 152.68 438.987 156.289L427.403 159.453C422.786 160.7 418.301 159.075 413.948 154.579C411.869 152.414 409.905 149.118 408.056 144.691L402.973 132.515L397.652 119.324L395.283 114.093C394.218 111.69 393.614 109.281 393.472 106.864C393.37 104.988 394.267 103.654 396.165 102.862C400.013 101.256 403.413 104.138 406.366 111.508L416.744 137.257C419.068 142.972 421.12 146.479 422.9 147.778C425.56 149.701 429.973 149.375 436.14 146.8C443.256 143.83 449.744 138.986 455.605 132.268L468.812 112.085L471.263 111.062C472.308 110.749 473.155 111.294 473.801 112.695Z" fill="#FFD55A"/>
<path d="M405.657 139.379C406.845 142.225 404.305 148.299 398.037 157.6C390.826 168.348 382.819 175.559 374.016 179.234C364.529 183.195 355.432 183.124 346.725 179.022C338.94 173.421 334.197 170.14 332.496 169.179C331.15 180.634 327.974 187.407 322.966 189.497C321.227 190.223 319.268 190.422 317.088 190.094C314.891 189.279 312.693 188.092 310.495 186.533C309.444 185.796 307.987 184.455 306.123 182.509L301.967 177.003L298.458 172.154C297.244 171.175 295.95 170.818 294.575 171.083C292.414 171.985 291.353 178.71 291.392 191.259L291.446 202.284C290.899 206.164 289.203 208.699 286.357 209.887C284.881 210.503 283.475 210.1 282.138 208.677L278.159 201.147L276.145 196.324L274.191 191.198L271.286 184.24C270.732 183.357 269.85 181.838 268.64 179.681L263.394 169.338C261.207 164.989 261.886 161.797 265.43 159.76C267.592 158.858 270.66 161.167 274.636 166.687C275.22 167.495 276.558 169.66 278.647 173.183C280.094 175.611 281.225 177.801 282.039 179.751C283.56 167.975 286.165 161.317 289.855 159.777C292.701 158.588 295.77 158.452 299.062 159.368C302.353 160.284 305.109 161.919 307.33 164.273L313.181 172.507C315.771 176.191 317.657 177.818 318.839 177.386C320.653 176.691 321.719 174.203 322.037 169.924C322.076 169.722 322.043 168.9 321.936 167.459C321.87 166.558 321.748 164.412 321.57 161.02L320.404 153.337C320.355 151.438 321.569 149.972 324.046 148.938C326.418 147.948 328.923 148.759 331.561 151.372C332.972 152.825 335.078 154.979 337.879 157.833C350.392 170.311 361.893 174.361 372.382 169.982C378.865 167.275 384.392 163.018 388.962 157.211L400.45 139.139C403.349 137.928 405.085 138.009 405.657 139.379Z" fill="#FFD55A"/>
<path d="M277.818 199.432C278.5 201.066 276.196 205.556 270.907 212.901C266.781 218.585 263.346 222.959 260.602 226.024C251.909 235.595 241.738 242.812 230.089 247.675C223.817 250.293 217.508 250.822 211.162 249.263C203.634 247.392 198.049 242.389 194.405 234.254L191.475 227.679L188.438 220.405L185.89 213.856C185.106 211.831 184.503 209.792 184.08 207.741C183.233 203.638 184.116 199.525 186.727 195.401C189.172 191.472 192.371 188.682 196.324 187.032C201.911 184.699 207.537 183.867 213.201 184.535C219.704 185.287 223.946 188.034 225.926 192.778C227.642 196.889 227.603 201.022 225.809 205.175C224.713 207.737 222.081 210.848 217.914 214.506L210.108 221.385L202.765 228.258C204.415 232.211 207.236 235.335 211.227 237.63C216.106 240.421 221.497 240.585 227.4 238.12C232.355 236.052 236.984 233.5 241.288 230.466C250.462 223.974 259.064 215.741 267.093 205.766L272.591 198.922C274.331 198.195 275.53 197.881 276.189 197.977C276.707 197.884 277.25 198.369 277.818 199.432ZM214.304 197.63C212.587 193.519 207.407 193.267 198.763 196.876C197.392 197.448 196.202 198.75 195.193 200.78C194.237 202.789 193.913 204.533 194.221 206.014L196.691 213.71L199.082 220.325C200.658 219.357 202.878 217.409 205.741 214.481L212.136 208.005C215.187 204.936 215.91 201.478 214.304 197.63Z" fill="#FFD55A"/>
<path d="M170.797 227.955C174.075 235.809 175.248 244.696 174.315 254.618C173.241 265.836 169.595 272.743 163.375 275.34C159.422 276.99 155.652 277.078 152.066 275.604C148.532 274.109 145.93 271.358 144.257 267.352C141.375 260.447 141.33 256.411 144.124 255.245C146.654 254.189 148.44 254.836 149.483 257.186L151.853 262.417C153.741 266.642 156.066 268.209 158.829 267.118C162.33 265.718 164.449 262.048 165.188 256.107C166.075 248.743 164.472 240.159 160.379 230.355C159.235 227.614 157.206 225.645 154.292 224.447C151.409 223.175 148.597 223.111 145.856 224.255C140.848 226.345 136.94 232.031 134.13 241.313L135.729 248.258C137.192 254.58 139.627 261.672 143.033 269.534L152.756 291.935C154.965 297.079 157.585 302.391 160.616 307.872L166.047 317.768C166.465 318.769 168.474 320.839 172.075 323.979C173.526 325.23 174.691 326.538 175.571 327.904C176.781 330.803 177.226 332.907 176.906 334.217C176.494 335.751 174.891 337.101 172.098 338.267C169.357 339.411 166.342 337.823 163.052 333.501C161.57 331.582 160.068 329.022 158.546 325.82L143.571 294.841L131.589 266.141C129.235 260.501 127.001 254.409 124.887 247.864L116.995 223.398C116.638 222.247 115.787 221.024 114.442 219.729L110.906 215.263C109.476 211.837 110.316 209.475 113.426 208.176C115.218 207.428 117.132 207.713 119.167 209.029C121.009 210.179 122.325 211.703 123.118 213.6L129.62 229.176C132.159 221.617 136.512 216.55 142.679 213.976C147.95 211.776 153.473 212.255 159.248 215.415C164.703 218.399 168.552 222.579 170.797 227.955Z" fill="#FFD55A"/>
<path d="M98.5945 170.639C99.6727 173.222 98.7623 175.118 95.8633 176.328L86.2167 179.241L75.7864 182.946C72.0614 184.253 65.5636 188.111 56.2929 194.519C48.1244 200.157 40.8306 206.111 34.4112 212.381C29.4453 217.239 26.1658 221.022 24.5727 223.73C23.5896 225.378 23.1053 227.035 23.1196 228.7C23.1344 231.108 23.052 232.69 22.8724 233.446C22.4558 234.672 21.4152 235.663 19.7505 236.42C17.9804 237.221 16.3085 237.145 14.7349 236.193C13.3281 235.047 11.8546 232.629 10.3143 228.94C8.61996 224.881 13.0967 217.813 23.7446 207.735C40.083 192.311 56.4222 181.188 72.7621 174.367L85.5705 169.02C91.9483 166.357 96.2896 166.897 98.5945 170.639ZM66.6785 212.28L73.8547 230.359C76.2005 236.127 79.6554 244.773 84.2196 256.299C87.9608 266.003 90.7722 274.887 92.6538 282.952C95.082 293.513 95.031 299.322 92.501 300.378C91.1832 300.928 90.1288 300.997 89.3376 300.584L86.9627 297.119L76.964 266.942C76.0925 264.706 74.6137 260.867 72.5273 255.424C71.9199 253.821 70.6498 250.111 68.717 244.295L53.5485 209.962C52.8797 208.509 52.894 206.986 53.5916 205.395C54.0782 203.892 54.7783 202.826 55.6918 202.197C58.4327 201.053 60.8035 201.765 62.8044 204.334C63.7675 205.603 65.0589 208.252 66.6785 212.28Z" fill="#FFD55A"/>
<path d="M683.842 177.04C687.121 184.893 688.294 193.781 687.36 203.703C686.287 214.92 682.64 221.828 676.421 224.424C672.468 226.074 668.698 226.163 665.112 224.689C661.578 223.193 658.975 220.442 657.303 216.436C654.42 209.531 654.376 205.496 657.169 204.33C659.699 203.273 661.486 203.92 662.529 206.27L664.898 211.501C666.786 215.727 669.111 217.294 671.874 216.202C675.375 214.803 677.495 211.132 678.233 205.192C679.12 197.827 677.517 189.243 673.424 179.439C672.28 176.698 670.251 174.729 667.337 173.532C664.454 172.259 661.642 172.195 658.901 173.34C653.894 175.43 649.985 181.116 647.175 190.397L648.775 197.343C650.238 203.664 652.672 210.756 656.078 218.619L665.801 241.02C668.011 246.163 670.631 251.476 673.662 256.957L679.092 266.852C679.511 267.854 681.52 269.924 685.12 273.063C686.571 274.314 687.736 275.623 688.616 276.989C689.826 279.888 690.272 281.992 689.952 283.301C689.54 284.835 687.937 286.185 685.143 287.351C682.402 288.496 679.387 286.907 676.098 282.586C674.616 280.667 673.114 278.106 671.591 274.904L656.616 243.926L644.635 215.226C642.28 209.586 640.046 203.493 637.933 196.948L630.041 172.483C629.684 171.332 628.833 170.109 627.488 168.814L623.952 164.348C622.522 160.921 623.361 158.559 626.471 157.261C628.263 156.513 630.177 156.797 632.212 158.114C634.054 159.264 635.371 160.787 636.163 162.685L642.665 178.261C645.204 170.702 649.557 165.635 655.724 163.06C660.995 160.86 666.518 161.34 672.294 164.499C677.748 167.483 681.598 171.663 683.842 177.04Z" fill="#FFD55A"/>
<path d="M557.603 156.858C558.923 160.021 557.739 162.372 554.049 163.913C552.099 164.727 549.233 163.942 545.453 161.559C541.844 159.29 539.611 157.128 538.753 155.072C537.213 151.382 538.05 148.866 541.265 147.524C543.848 146.446 546.992 147.083 550.698 149.436C554.157 151.643 556.459 154.118 557.603 156.858ZM640.085 206.541C641.502 209.787 638.391 216.718 630.753 227.334C622.409 238.926 613.914 246.526 605.27 250.135L593.686 253.3C589.069 254.546 584.584 252.921 580.231 248.425C578.152 246.261 576.188 242.964 574.339 238.537L569.256 226.361L563.935 213.17L561.566 207.939C560.501 205.536 559.897 203.127 559.755 200.71C559.653 198.834 560.55 197.5 562.448 196.708C566.296 195.102 569.696 197.984 572.649 205.355L583.027 231.103C585.351 236.818 587.403 240.325 589.183 241.624C591.843 243.547 596.256 243.221 602.423 240.646C609.539 237.676 616.027 232.832 621.888 226.114L635.095 205.932L637.546 204.908C638.592 204.596 639.438 205.14 640.085 206.541Z" fill="#FFD55A"/>
<path d="M521.876 123.309C523.944 128.264 519.449 136.918 508.389 149.272L496.587 160.141C492.736 163.668 491.503 167.091 492.89 170.412C495.728 177.211 500.355 183.698 506.769 189.871C510.806 193.756 517.452 198.781 526.71 204.943C541.453 214.757 550.629 223.987 554.237 232.631C557.626 240.748 558.497 248.617 556.85 256.236C555.015 264.74 550.777 270.377 544.135 273.15C538.126 275.658 532.177 275.419 526.288 272.43C520.697 269.565 516.625 265.075 514.073 258.961C511.674 253.216 510.043 248.419 509.179 244.571L507.92 233.77C507.619 231.419 507.91 228.482 508.79 224.958C509.781 220.954 511.09 218.458 512.72 217.468C515.408 216.346 517.291 217.076 518.369 219.659C518.941 221.029 519.193 222.967 519.125 225.471L518.899 232.714C519.121 236.212 519.525 239.478 520.112 242.514L523.605 252.661C524.635 255.573 526.977 258.588 530.63 261.705C533.874 264.435 536.973 265.185 539.924 263.952C543.35 262.522 545.272 258.749 545.69 252.632C546.047 247.408 545.433 242.898 543.848 239.103C541.384 233.2 537.555 227.587 532.363 222.266C528.507 218.367 524.476 215.16 520.269 212.645C501.562 201.638 488.897 188.202 482.274 172.337C479.875 166.592 481.056 161.487 485.815 157.025L500.832 142.957C502.255 141.62 504.441 138.479 507.39 133.534C511.612 126.449 514.391 122.504 515.726 121.699C518.625 120.488 520.675 121.025 521.876 123.309Z" fill="#FFD55A"/>
<path d="M508.792 260.98C509.188 261.929 508.405 264.577 506.444 268.923C504.115 274.167 501.238 278.988 497.814 283.389C487.564 296.643 476.693 305.668 465.203 310.465C454.608 314.888 444.921 306.584 436.141 285.553C435.624 293.506 434.817 299.877 433.722 304.667C431.378 314.621 427.782 320.609 422.932 322.634C418.294 324.57 414.524 324.287 411.623 321.785C409.591 320.033 407.487 316.548 405.308 311.33C402.162 303.792 401.213 294.254 402.461 282.716C404.038 268.255 409.306 259.154 418.267 255.413C423.38 253.279 428.289 253.179 432.996 255.113L433.313 254.981C434.736 254.387 436.417 255.078 438.356 257.054C439.983 258.727 441.1 260.365 441.707 261.968L451.155 287.27C452.978 292.079 454.766 295.325 456.52 297.007C459.092 299.461 462.434 299.83 466.545 298.114C470.129 296.617 473.503 294.838 476.665 292.775C481.14 289.855 485.86 285.223 490.825 278.879C491.835 277.591 495.137 272.158 500.733 262.581L503.385 258.038C505.889 257.364 507.691 258.345 508.792 260.98ZM428.294 269.425L427.745 266.776C426.535 263.877 424.691 262.944 422.214 263.978C417.786 265.827 414.699 271.479 412.952 280.936C411.048 291.201 411.123 298.349 413.178 302.381L416.227 308.35C417.159 309.694 418.144 310.273 419.18 310.088C421.974 308.922 424.339 300.724 426.275 285.494L428.294 269.425Z" fill="#FFD55A"/>
<path d="M409.728 302.336C410.476 304.128 408.715 308.732 404.445 316.147C401.158 321.914 398.239 326.413 395.689 329.644C388.445 338.981 380.818 345.322 372.806 348.666C360.419 353.837 350.533 352.765 343.146 345.451L339.222 340.497L335.487 334.443L333.023 335.657L327.489 337.968L323.39 339.493L306.866 346.391L309.077 351.689L316.77 362.775C318.574 367.098 317.631 370.029 313.942 371.569C311.253 372.691 308.652 371.797 306.137 368.885C303.775 365.601 301.626 361.639 299.69 357.001L296.983 350.517C293.082 352.146 290.296 350.957 288.624 346.951C288.118 345.739 289.683 344.002 293.319 341.741L289.668 331.66L287.238 324.504C285.873 320.494 287.062 317.707 290.804 316.145C292.438 315.463 293.814 316.312 294.931 318.693L298.746 326.942L300.074 330.566L301.493 333.965L303.136 337.457L331.691 325.351L326.859 312.885C324.222 306.125 324.512 302.073 327.727 300.731C330.099 299.741 332.682 302.593 335.477 309.287C335.103 308.391 336.101 310.635 338.473 316.02L342.031 324.098C342.986 326.237 343.881 327.937 344.717 329.197C345.368 330.163 346.498 331.61 348.107 333.538C351.801 337.938 354.802 340.678 357.109 341.757C360.26 343.227 364.129 343.004 368.715 341.09C371.403 339.968 374.012 338.507 376.541 336.709C378.693 335.191 382.469 331.634 387.87 326.037C391.202 322.604 395.58 316.041 401.004 306.349C403.278 302.305 404.783 300.129 405.521 299.821C407.102 299.161 408.273 299.446 409.034 300.676L409.728 302.336Z" fill="#FFD55A"/>
</svg>
