<svg width="202" height="43" viewBox="0 0 202 43" fill="none" xmlns="http://www.w3.org/2000/svg">
<path d="M38.1604 37.6874C37.6936 36.9851 37.4602 36.2244 37.4602 34.8199C37.4602 30.3723 35.0095 26.2173 30.9251 23.6424C30.575 23.4668 30.575 22.9987 30.9251 22.7646C34.4844 20.6578 36.8183 16.854 36.8183 12.8746C36.8183 5.79356 31.1001 0.585208 20.0721 0.585208C19.1385 0.585208 2.10057 0.585208 2.04222 0.585208C0.70019 0.585208 0.116698 1.05337 0 1.93119C0 2.75048 0.350095 2.92604 1.45873 4.5061C2.21727 5.618 2.27562 6.32024 2.27562 8.66108V33.4739C2.27562 35.8147 2.21727 36.5755 1.45873 37.6874C0.350095 39.2674 0 39.443 0 40.2038C0.116698 41.1401 0.70019 41.5498 2.04222 41.5498C2.10057 41.5498 14.9374 41.5498 14.9374 41.5498C16.2794 41.5498 16.9213 41.1401 16.9796 40.2038C17.038 39.443 16.6879 39.2674 15.5792 37.6874C14.7623 36.5755 14.7623 35.8147 14.7623 33.4739V28.4996C14.8207 25.8662 15.8126 25.281 18.1466 25.281C22.056 25.281 24.8568 28.9678 24.8568 33.5324C24.8568 35.8147 24.7984 36.5755 24.0399 37.6874C22.9312 39.2674 22.5811 39.443 22.6395 40.2038C22.6978 41.1401 23.2813 41.5498 24.6817 41.5498C24.6817 41.5498 37.5185 41.5498 37.5769 41.5498C38.9189 41.5498 39.5024 41.1401 39.6191 40.2038C39.6191 39.443 39.269 39.2674 38.1604 37.6874ZM18.1466 20.9504C15.4625 20.9504 14.879 20.4238 14.7623 18.3755V11.7042C14.7623 6.08616 14.1789 4.91574 18.1466 4.91574C21.1808 4.91574 24.7401 8.83664 24.7401 13.9279C24.7401 18.4926 21.7642 20.9504 18.1466 20.9504Z" fill="#E0E1DC"/>
<path d="M62.316 17.0295C56.0143 15.1569 53.797 12.4649 53.4469 9.77297C53.0968 6.96397 55.0807 4.91574 58.1732 4.91574C63.5997 5.03279 64.4749 10.3582 66.2254 12.8746C68.2093 15.7421 71.8269 15.7421 74.0442 13.9279C78.362 10.2411 71.5935 0 58.1732 0C53.7387 0 44.2861 1.17041 42.3606 10.1241C39.8516 22.1794 54.4389 25.5151 60.0404 28.3826C62.3744 29.6115 64.2999 31.6012 63.8914 33.8835C63.4246 36.517 60.8573 37.3948 58.5817 37.2192C52.3383 36.8096 51.288 32.362 49.8876 29.553C48.1955 26.1588 43.7026 26.5099 41.7187 28.5581C37.8677 32.5376 43.5276 42.135 58.64 42.135C67.3924 42.135 75.5613 38.5067 76.5532 31.4257C77.7202 23.4083 72.2354 20.0726 62.316 17.0295Z" fill="#E0E1DC"/>
<path d="M116.207 10.4167C115.916 8.25143 115.332 5.50095 114.982 3.39421C114.69 1.28746 113.757 0.585208 111.773 0.585208H81.8397C79.8559 0.585208 78.9806 1.28746 78.6305 3.39421C78.2804 5.50095 77.7553 8.25143 77.4052 10.4167C77.1718 11.9382 77.6386 12.7575 78.8639 12.7575C81.1395 12.7575 82.2482 10.4167 83.2401 8.60256C83.9403 7.19806 84.6405 4.91574 88.0831 4.91574H88.3165C89.6585 4.91574 90.242 5.20835 90.4754 6.2032C90.5921 6.84693 90.5921 7.54918 90.5921 8.66108V33.4739C90.5921 35.8147 90.5338 36.5755 89.7752 37.6874C88.6082 39.2674 88.2581 39.443 88.3165 40.2038C88.4332 41.1401 89.0167 41.5498 90.3587 41.5498C90.4171 41.5498 103.196 41.5498 103.254 41.5498C104.596 41.5498 105.238 41.1401 105.296 40.2038C105.354 39.443 105.004 39.2674 103.896 37.6874C103.079 36.5755 103.02 35.8147 103.02 33.4739V8.66108C103.02 7.54918 103.079 6.84693 103.137 6.2032C103.371 5.20835 103.954 4.91574 105.354 4.91574H105.588C109.03 4.91574 109.731 7.19806 110.431 8.60256C111.364 10.4167 112.473 12.7575 114.749 12.7575C115.974 12.7575 116.499 11.9382 116.207 10.4167Z" fill="#E0E1DC"/>
<path d="M157.138 37.6874C156.671 36.9851 156.438 36.2244 156.438 34.8199C156.438 30.3723 153.987 26.2173 149.903 23.6424C149.553 23.4668 149.553 22.9987 149.903 22.7646C153.462 20.6578 155.796 16.854 155.796 12.8746C155.796 5.79356 150.078 0.585208 139.05 0.585208C138.116 0.585208 121.078 0.585208 121.02 0.585208C119.678 0.585208 119.094 1.05337 118.978 1.93119C118.978 2.75048 119.328 2.92604 120.436 4.5061C121.195 5.618 121.253 6.32024 121.253 8.66108V33.4739C121.253 35.8147 121.195 36.5755 120.436 37.6874C119.328 39.2674 118.978 39.443 118.978 40.2038C119.094 41.1401 119.678 41.5498 121.02 41.5498C121.078 41.5498 133.915 41.5498 133.915 41.5498C135.257 41.5498 135.899 41.1401 135.957 40.2038C136.016 39.443 135.665 39.2674 134.557 37.6874C133.74 36.5755 133.74 35.8147 133.74 33.4739V28.4996C133.798 25.8662 134.79 25.281 137.124 25.281C141.034 25.281 143.834 28.9678 143.834 33.5324C143.834 35.8147 143.776 36.5755 143.017 37.6874C141.909 39.2674 141.559 39.443 141.617 40.2038C141.675 41.1401 142.259 41.5498 143.659 41.5498C143.659 41.5498 156.496 41.5498 156.554 41.5498C157.897 41.5498 158.48 41.1401 158.597 40.2038C158.597 39.443 158.247 39.2674 157.138 37.6874ZM137.124 20.9504C134.44 20.9504 133.857 20.4238 133.74 18.3755V11.7042C133.74 6.08616 133.156 4.91574 137.124 4.91574C140.158 4.91574 143.718 8.83664 143.718 13.9279C143.718 18.4926 140.742 20.9504 137.124 20.9504Z" fill="#E0E1DC"/>
<path d="M201.994 1.93119C201.936 1.05337 201.294 0.585208 199.952 0.585208C199.893 0.585208 194.175 0.585208 194.117 0.585208C192.775 0.585208 192.191 1.05337 192.075 1.93119C192.016 2.75048 192.366 2.92604 193.533 4.5061C194.292 5.618 194.35 6.32024 194.35 8.66108V26.5684C194.35 27.1536 193.533 27.3877 193.242 26.861C187.523 17.3807 179.413 4.38906 178.771 3.33568C177.371 0.994854 176.729 0.585208 173.928 0.585208C173.928 0.585208 163.017 0.585208 162.958 0.585208C161.616 0.585208 161.033 1.05337 160.916 1.93119C160.916 2.75048 161.266 2.92604 162.375 4.5061C163.133 5.618 163.192 5.67652 163.192 8.66108V33.4739C163.192 35.8147 163.133 36.5755 162.375 37.6874C161.266 39.2674 160.916 39.443 160.916 40.2038C161.033 41.1401 161.616 41.5498 162.958 41.5498C163.017 41.5498 168.793 41.5498 168.793 41.5498C170.135 41.5498 170.777 41.1401 170.835 40.2038C170.894 39.443 170.544 39.2674 169.435 37.6874C168.618 36.5755 168.618 35.8147 168.618 33.4739V13.5183C168.618 12.9331 169.377 12.699 169.668 13.2257C176.029 23.5254 184.081 36.6925 185.248 38.5652C186.881 41.3157 187.99 41.5498 190.733 41.5498H196.976C198.901 41.5498 199.718 40.0282 199.718 38.3311V8.66108C199.718 6.32024 199.777 5.618 200.535 4.5061C201.702 2.92604 202.052 2.75048 201.994 1.93119Z" fill="#E0E1DC"/>
</svg>
