<svg width="96" height="34" viewBox="0 0 96 34" fill="none" xmlns="http://www.w3.org/2000/svg">
<path fill-rule="evenodd" clip-rule="evenodd" d="M0 3C0 1.34315 1.34315 0 3 0H69C70.6569 0 72 1.34315 72 3C72 4.65685 70.6569 6 69 6H3C1.34315 6 0 4.65685 0 3ZM24 31C24 29.3431 25.3431 28 27 28H93C94.6569 28 96 29.3431 96 31C96 32.6569 94.6569 34 93 34H27C25.3431 34 24 32.6569 24 31ZM3 14C1.34315 14 0 15.3431 0 17C0 18.6569 1.34315 20 3 20H93C94.6569 20 96 18.6569 96 17C96 15.3431 94.6569 14 93 14H3Z" fill="#E0E1DC"/>
</svg>
