<svg width="96" height="34" viewBox="0 0 96 34" fill="none" xmlns="http://www.w3.org/2000/svg">
<path fill-rule="evenodd" clip-rule="evenodd" d="M-2.62268e-07 31C-1.17422e-07 32.6569 1.34315 34 3 34L69 34C70.6569 34 72 32.6568 72 31C72 29.3431 70.6569 28 69 28L3 28C1.34315 28 -4.07115e-07 29.3431 -2.62268e-07 31ZM24 3C24 4.65685 25.3431 6 27 6L93 5.99999C94.6569 5.99999 96 4.65685 96 2.99999C96 1.34314 94.6568 -8.27516e-06 93 -8.13032e-06L27 -2.36042e-06C25.3431 -2.21557e-06 24 1.34315 24 3ZM3 20C1.34314 20 -1.34134e-06 18.6569 -1.48619e-06 17C-1.63103e-06 15.3431 1.34314 14 3 14L93 14C94.6569 14 96 15.3431 96 17C96 18.6568 94.6569 20 93 20L3 20Z" fill="#E0E1DC"/>
</svg>
