<svg width="266" height="264" viewBox="0 0 266 264" fill="none" xmlns="http://www.w3.org/2000/svg">
<path d="M131.921 197.012L130.122 197.063L129.855 198.238L131.921 197.012Z" fill="#FFD55A"/>
<path d="M122.997 195.12L120.214 196.159C122.521 198.868 120.062 198.476 125.131 199.677C125.883 199.253 127.082 198.575 127.992 197.868C128.899 197.144 129.516 196.397 129.136 195.862C128.037 196.274 126.634 197.822 124.846 197.836C125.368 196.786 127.214 196.493 127.784 195.134C124.844 194.828 126.244 196.287 123.151 196.538L122.997 195.119L122.997 195.12Z" fill="#FFD55A"/>
<path d="M120.219 198.882C120.379 198.292 120.548 197.712 120.413 197.289C120.253 197.879 118.959 198.821 120.219 198.882Z" fill="#FFD55A"/>
<path d="M118.501 199.534C116.625 199.766 118.311 198.398 118.093 198.267L116.356 200.647L118.501 199.533L118.501 199.534Z" fill="#FFD55A"/>
<path d="M110.741 200.71C110.44 200.804 110.163 200.905 109.889 201.02C110.234 201.296 110.451 200.997 110.741 200.71Z" fill="#FFD55A"/>
<path d="M106.94 201.49C107.801 202.096 108.714 201.525 109.885 201.03C109.844 200.999 109.81 200.979 109.749 200.922C108.597 200.494 109.397 198.921 111.163 199.064C112.895 198.457 112.974 199.876 114.366 198.701L112.057 197.898C109.304 198.506 107.988 200.784 106.94 201.491L106.94 201.49Z" fill="#FFD55A"/>
<path d="M110.738 200.721C111.051 200.621 111.373 200.541 111.736 200.483C111.249 200.319 110.971 200.498 110.738 200.721Z" fill="#FFD55A"/>
<path d="M114.659 200.268L115.568 199.814L115.23 199.253L114.659 200.268Z" fill="#FFD55A"/>
<path d="M100.546 202.252C100.684 201.26 101.826 201.213 102.988 201.219C104.147 201.203 105.324 201.221 105.483 200.438C102.97 200.836 100.836 199.545 101.283 198.432L98.5906 199.279C97.7317 200.071 98.9944 201.475 100.546 202.252Z" fill="#FFD55A"/>
<path d="M94.8107 197.667C94.6409 197.844 94.4329 197.968 94.1993 198.03C94.4912 197.943 94.7414 197.831 94.8107 197.667Z" fill="#FFD55A"/>
<path d="M80.93 200.837C82.0294 200.617 83.1244 200.333 84.2095 200.047C85.2945 199.759 86.3664 199.504 87.4362 199.164C86.8291 199.781 87.0531 200.44 85.5757 200.594C86.9991 200.797 87.8172 200.509 88.5601 200.273C89.3057 200.012 89.9799 199.784 91.1564 199.846C91.892 201.695 86.9918 199.976 88.3482 201.613C90.0238 201.603 92.5494 201.443 93.8295 199.857C94.7211 200.258 95.6219 200.599 96.5299 200.963L95.5237 199.018C94.4508 198.522 93.4434 200.666 92.7414 199.305C92.3878 198.456 93.4403 198.264 94.1706 198.037C93.3407 198.263 92.1806 197.904 90.825 197.533C89.4692 197.133 87.9273 196.694 86.2556 196.803C84.4978 196.829 83.7815 197.64 83.1953 198.55C82.6087 199.467 82.1626 200.471 80.9295 200.839L80.93 200.837Z" fill="#FFD55A"/>
<path d="M80.8495 198.622L80.5146 197.808L80.7112 198.881L80.8495 198.622Z" fill="#FFD55A"/>
<path d="M73.5979 200.399C74.7766 200.179 75.9548 199.871 77.1078 199.609C77.4427 199.823 77.5929 200.266 77.7883 200.658C77.7048 200.195 78.6887 199.516 78.5864 199.114C77.927 198.138 76.9323 198.142 75.8435 198.421C75.3005 198.555 74.7328 198.769 74.1911 198.925C73.6507 199.073 73.1293 199.194 72.6753 199.195C70.4184 198.384 70.5339 198.158 71.0057 197.878C71.4833 197.6 72.3101 197.27 71.5933 196.277C72.8463 196.546 72.811 196.986 74.559 197.409C73.338 196.14 71.8089 195.881 70.3414 195.838C68.8936 195.78 67.4161 196.089 66.5186 196.099C66.9478 196.409 66.9387 196.98 67.9634 197.047C67.2994 197.102 66.6301 197.159 65.9893 197.179C66.7082 198.14 67.5409 198.752 68.6829 199.28C69.8288 199.828 71.3639 200.124 73.5986 200.397L73.5979 200.399Z" fill="#FFD55A"/>
<path d="M79.6021 201.113C78.3323 201.149 77.8752 200.963 77.8031 200.695C78.0685 201.229 78.4639 201.61 79.6021 201.113Z" fill="#FFD55A"/>
<path d="M65.5937 195.893C65.7424 196.062 66.0758 196.097 66.5172 196.094C66.329 195.961 66.0603 195.88 65.5937 195.893Z" fill="#FFD55A"/>
<path d="M66.7808 198.439C66.0381 198.196 65.3159 197.938 64.6081 197.648C64.8076 198.005 65.0106 198.373 65.2285 198.722C65.5682 198.717 66.7173 198.889 66.7805 198.44L66.7808 198.439Z" fill="#FFD55A"/>
<path d="M91.9809 141.606C91.561 140.971 90.6608 140.886 89.0829 141.605C88.9067 140.603 91.1248 140.056 91.9635 139.161C89.5397 139.329 91.6454 138.057 90.7866 137.348C89.484 137.758 88.6386 138.327 87.8166 138.954C87.0003 139.606 86.1691 140.222 84.7994 140.682C84.8061 140.363 84.5782 139.992 84.0919 139.86C83.3744 140.394 82.5351 141.011 81.6317 141.644C80.7425 142.305 79.8188 143.038 78.8626 143.7C76.9921 145.093 75.0921 146.375 73.4894 147.066C70.6193 148.7 69.0503 150.661 66.708 153.357C62.24 157.183 58.3273 161.796 54.8148 166.763C53.1395 169.189 51.8767 171.928 51.0806 174.822C50.2851 177.714 49.8862 180.754 50.0815 183.829C50.7814 184.323 51.55 184.747 52.2792 185.12C51.8636 185.485 52.0478 186.142 52.1751 186.69C52.331 187.225 52.4145 187.683 51.7742 187.752C51.7814 187.409 51.6868 187.116 51.5523 186.814C51.4327 186.507 51.2938 186.184 51.1769 185.816C50.64 187.256 51.3104 188.977 52.3735 190.42C53.4394 191.894 54.8732 193.024 55.8625 194.237C55.8011 193.726 56.6237 192.214 57.4235 192.526C57.0326 192.898 57.0012 193.209 57.1705 193.513C57.2546 193.664 57.3866 193.814 57.5468 193.964C57.7175 194.104 57.9151 194.244 58.1177 194.391C58.5123 194.701 58.9836 194.972 59.2975 195.373C59.6294 195.752 59.8437 196.22 59.7711 196.876C61.0839 197.833 61.3172 197.403 61.5529 196.962C61.8023 196.513 62.0439 196.077 63.4751 196.776C63.8464 196.237 63.178 195.859 62.4502 195.431C61.7147 195.012 60.91 194.539 60.9113 193.995C61.5329 193.763 62.0788 194.108 62.5293 194.391C62.9991 194.65 63.3634 194.831 63.543 194.192C61.4799 193.059 58.5421 192.188 56.0236 190.068C54.7476 189.024 53.6056 187.596 52.7728 185.872C51.939 184.158 51.4068 182.207 51.2973 180.3C51.6782 180.578 52.0936 180.84 52.4893 181.089C52.2468 180.176 52.1752 179.078 52.2228 177.919C52.2979 176.761 52.5392 175.545 52.9409 174.407C53.7656 172.13 55.2632 170.229 56.8507 169.57C56.2069 169.535 56.9627 168.595 57.9239 167.307C58.3715 166.688 58.7786 166.033 58.938 165.474C59.1076 164.923 59.0117 164.45 58.406 164.179C59.5363 163.722 59.6503 163.411 60.7718 162.401L60.4127 161.575C61.127 160.778 61.6651 160.648 62.2146 160.485C62.7631 160.319 63.3196 160.118 64.1314 159.224C62.2196 159.631 63.1928 158.14 63.0278 156.99C64.424 156.383 65.9336 155.727 67.4051 155.087C68.8465 154.457 70.2906 153.933 71.5224 153.487C71.1477 153.351 70.714 153.197 69.7621 153.404C71.2796 152.581 70.3586 151.975 70.4682 151.411C71.7086 150.341 72.4843 151.541 72.8846 152.138C73.5243 151.762 73.955 151.296 74.2903 150.8C74.6387 150.325 74.885 149.812 75.1254 149.321C75.6101 148.348 76.0545 147.413 77.2566 147.194L75.9448 146.708C76.5562 146.224 77.1973 145.834 77.8517 145.489C78.5032 145.139 79.1734 144.844 79.8732 144.589C80.5655 144.32 81.2602 144.045 81.9534 143.711C82.6443 143.371 83.3735 143.056 84.0834 142.581C85.1595 142.903 84.6866 143.516 83.8561 144.183C83.0076 144.817 81.8586 145.681 81.4358 146.295C82.1865 146.248 83.4326 145.58 84.0764 145.855C84.5033 145.2 85.1159 144.368 85.7931 143.509C86.4698 142.653 87.2533 141.876 87.926 141.17C87.5009 142.329 88.2627 142.467 89.2291 142.287C90.2084 142.136 91.4429 141.744 91.983 141.608L91.9809 141.606Z" fill="#FFD55A"/>
<path d="M84.0713 145.854C83.8296 146.222 83.6484 146.587 83.562 146.829C83.783 146.587 83.9842 146.349 84.4392 146.215C84.3828 146.019 84.2498 145.912 84.0703 145.854L84.0713 145.854Z" fill="#FFD55A"/>
<path d="M91.9786 141.614C92.0078 141.667 92.0718 141.698 92.0976 141.758C92.3683 141.555 92.2543 141.549 91.9786 141.614Z" fill="#FFD55A"/>
<path d="M73.0574 147.248C73.1905 147.204 73.3431 147.113 73.4824 147.055C73.6603 146.959 73.7912 146.85 73.9722 146.759L73.0574 147.248Z" fill="#FFD55A"/>
<path d="M74.252 152.818C73.5141 152.917 72.5605 153.145 71.5158 153.478C72.0584 153.676 72.5169 153.839 74.252 152.818Z" fill="#FFD55A"/>
<path d="M59.2344 166.346C59.0218 166.966 59.5102 166.883 59.5422 167.449C60.3433 166.457 60.3214 165.89 59.2344 166.346Z" fill="#FFD55A"/>
<path d="M87.3563 144.563L89.4446 143.291C89.6791 143.074 89.9204 142.877 90.1679 142.695C89.2031 143.27 88.2828 143.953 87.3567 144.563L87.3563 144.563Z" fill="#FFD55A"/>
<path d="M119.621 145.078C120.182 145.398 120.619 145.631 121.216 145.863C121.798 146.086 122.451 146.265 123.157 146.394C123.864 146.521 124.617 146.608 125.443 146.598C125.855 146.593 126.298 146.554 126.776 146.444C127.257 146.321 127.832 146.083 128.3 145.572L128.835 144.987L128.417 144.28C128.272 144.034 128.136 143.793 128.009 143.551C127.133 142.433 126.386 142.067 125.909 141.943C125.417 141.829 125.105 142.004 124.809 142.173C124.51 142.346 124.227 142.515 123.816 142.449C123.61 142.416 123.374 142.325 123.089 142.147C122.818 141.954 122.451 141.725 122.003 141.389C122.796 140.839 123.626 140.317 124.492 139.829C122.487 138.106 119.648 136.447 116.645 135.758C113.647 135.08 110.639 135.252 108.486 136.367C108.132 136.01 107.252 135.55 108.585 135.215C106.885 135.188 106.431 136.213 105.871 137.049C105.298 137.923 104.648 138.628 102.454 138.266C104.454 137.328 104.129 136.932 103.393 136.554C103.027 136.364 102.564 136.179 102.256 135.932C101.953 135.7 101.798 135.397 102.064 134.942C102.283 134.851 102.501 134.787 102.721 134.707C102.001 134.763 101.223 134.969 100.443 135.14C100.054 135.235 99.6621 135.331 99.2727 135.426C98.8845 135.52 98.5005 135.615 98.132 135.756C97.3912 136.01 96.6862 136.248 96.0506 136.436C95.7325 136.53 95.4324 136.611 95.1523 136.675C94.8752 136.752 94.6231 136.828 94.3927 136.871C94.5015 137.575 96.264 138.242 93.9603 138.942C94.9367 138.829 94.7504 139.71 94.8506 140.427C95.9097 139.694 96.8281 139.52 97.6063 139.266C98.3912 139.033 99.0489 138.765 99.7311 138.261C101.182 139.055 98.8697 138.639 100.307 139.434L102.153 138.388C103.6 138.508 100.723 139.425 102.975 139.473C103.208 138.92 105.074 138.242 106.858 138.402L106.342 138.714C107.714 138.342 109.574 138.941 109.027 137.35C109.539 137.881 110.014 138.46 110.476 139.008L110.313 137.94C111.231 138.107 111.947 138.485 112.597 138.843C113.219 139.26 113.796 139.641 114.333 140.072C114.608 140.278 114.887 140.47 115.187 140.64C115.472 140.83 115.772 141.006 116.11 141.148C116.459 141.277 116.794 141.442 117.203 141.551C117.622 141.648 118.052 141.768 118.562 141.862C117.876 141.13 118.899 141.043 119.504 141.126C118.905 140.4 118.314 140.287 117.683 140.379C117.372 140.415 117.063 140.475 116.734 140.501C116.391 140.546 116.031 140.554 115.628 140.453C115.669 139.915 116.473 139.58 117.103 139.238C117.418 139.06 117.661 138.914 117.726 138.693C117.788 138.474 117.658 138.198 117.156 137.872C118.141 138.864 119.169 139.325 119.953 139.915C120.357 140.184 120.632 140.56 120.802 140.961C120.882 141.168 120.927 141.395 120.923 141.648C120.913 141.91 120.847 142.208 120.729 142.534C121.141 142.929 121.561 143.189 121.907 143.48C122.264 143.758 122.666 143.944 122.982 144.219C123.311 144.48 123.666 144.722 123.972 145.053C124.26 145.399 124.537 145.799 124.784 146.293L126.505 144.12C126.461 144.091 126.426 144.056 126.401 144.022C126.388 144.004 126.378 143.987 126.369 143.969L126.275 143.84C126.209 143.741 126.16 143.636 126.128 143.528C126.08 143.404 125.975 143.187 125.932 143.013C125.953 143.087 125.978 143.162 126.006 143.236C125.935 143.056 125.886 142.856 125.831 142.543C125.794 142.393 125.806 142.466 125.804 142.478C125.802 142.496 125.8 142.513 125.797 142.527C125.789 142.555 125.785 142.577 125.764 142.589C125.637 142.626 125.435 142.546 125.113 142.42C124.489 142.188 123.556 141.824 122.123 142.461L123.736 143.146C123.535 143.838 122.756 143.716 121.521 143.619C121.704 143.377 121.711 143.377 121.357 142.971C121.205 143.268 120.857 143.451 120.347 143.618C119.892 143.791 119.396 143.928 118.865 144.034C117.82 144.247 116.77 144.365 116.531 144.542C117.31 144.669 118.183 144.494 119.099 144.256L119.792 144.073C120.024 144.01 120.251 143.945 120.532 143.902C121.059 143.818 121.56 143.779 122.031 143.785C121.496 144.059 121.249 144.476 120.964 144.762C120.821 144.909 120.666 145.021 120.463 145.079C120.27 145.139 120.009 145.149 119.62 145.08L119.621 145.078Z" fill="#FFD55A"/>
<path d="M105.358 139.321C105.685 139.111 106.013 138.908 106.34 138.714C105.94 138.81 105.574 138.994 105.358 139.321Z" fill="#FFD55A"/>
<path d="M105.007 142.532C102.978 142.168 105.594 141.483 103.725 140.847C101.616 141.62 106.018 142.735 103.93 143.941C102.708 143.13 100.582 144.31 99.7253 144.26C100.714 143.599 100.295 141.898 99.9665 141.533C99.1474 141.935 97.4799 140.964 96.1825 140.75C99.2991 142.165 93.3737 141.049 96.1712 142.523C95.8521 143.485 92.5882 143.787 91.4625 142.803C91.6811 142.115 92.6624 142.437 93.5031 142.529C94.3735 141.306 91.5447 141.493 91.3239 140.19C89.6377 140.857 86.3497 140.578 83.7493 140.347C81.1579 140.142 79.1421 140.057 79.9682 142.009C80.3981 142.476 80.9138 142.622 81.4642 142.686C82.0187 142.737 82.6091 142.698 83.209 142.827C81.6697 142.017 81.8105 141.643 82.3642 141.411C82.9212 141.18 83.8875 141.088 84.0995 140.873C85.3074 141.747 87.9046 141.401 87.1002 142.308C86.2819 142.488 85.4477 142.676 84.6083 142.817C88.067 144.113 92.3739 144.991 96.8247 145.425C101.279 145.87 105.884 145.839 110.03 145.676L106.437 145.543C106.881 144.743 108.577 144.729 109.897 144.358L108.193 142.346C109.213 142.515 110.203 142.234 110.102 142.94C111.375 142.119 110.807 141.602 110.067 140.912C112.737 140.601 113.163 141.381 115.273 140.123C110.825 138.411 111.445 141.433 106.473 139.888L105.008 142.532L105.007 142.532Z" fill="#FFD55A"/>
<path d="M114.725 141.651L113.633 142.634L115.296 142.173L114.725 141.651Z" fill="#FFD55A"/>
<path d="M112.95 145.994C112.903 145.558 113.561 145.371 113.514 144.933C111.446 144.614 111.682 145.226 112.95 145.994Z" fill="#FFD55A"/>
<path d="M88.7665 139.581C87.9071 139.516 87.0585 139.408 86.2022 139.306C86.701 139.578 87.2133 139.828 87.7234 140.092C87.7902 139.658 88.4339 139.615 88.7671 139.581L88.7665 139.581Z" fill="#FFD55A"/>
<path d="M69.6154 136.294C70.0155 136.637 70.3969 136.943 70.7617 137.222C71.1313 137.494 71.5176 137.694 71.8706 137.907C72.2316 138.107 72.5624 138.322 72.9137 138.481C73.2605 138.644 73.6021 138.805 73.9472 138.966C75.3102 139.641 76.5932 140.279 78.419 141.623C79.675 141.429 79.6598 140.762 79.5343 140.067C79.4028 139.37 79.1589 138.644 79.7923 138.264C78.0774 137.196 77.3634 139.309 75.1886 138.664C75.1009 137.972 74.3993 137.617 73.476 137.245C73.0388 137.022 72.5469 136.791 72.0639 136.519C71.5733 136.257 71.1664 135.861 70.809 135.457C70.6684 135.968 70.3147 136.359 69.6165 136.295L69.6154 136.294Z" fill="#FFD55A"/>
<path d="M68.3411 123.188C68.3081 122.423 68.0468 121.658 67.9373 120.901C67.7821 120.151 67.7893 119.42 68.1116 118.826C68.825 119.081 68.9383 120.002 68.7607 120.907C69.5775 120.633 69.5066 120.238 69.441 119.683C69.3567 119.137 69.217 118.421 69.8948 117.694C69.7003 117.804 69.3332 118.359 69.0619 117.851C69.2932 116.838 69.4186 116.183 69.4303 115.672C69.436 115.16 69.3813 114.801 69.3547 114.403C69.3051 113.619 69.3048 112.62 70.7388 110.166C70.6165 109.258 70.965 108.519 69.9181 108.229C71.1907 106.99 71.7065 106.811 72.1832 106.511C72.422 106.363 72.6911 106.209 73.0594 105.911C73.4335 105.616 73.9003 105.171 74.6451 104.519C74.0294 104.314 72.14 104.723 70.98 104.09C72.0868 103.069 72.8162 102.278 73.3637 101.611C73.8926 100.933 74.2268 100.376 74.5213 99.8615C74.8052 99.3409 75.0571 98.8711 75.4558 98.4143C75.6515 98.1837 75.8798 97.9536 76.1621 97.7209C76.4541 97.4964 76.8043 97.2741 77.2262 97.0484C77.0305 97.4088 76.961 97.9495 76.2477 98.6032C76.6892 98.7964 77.003 98.738 77.2513 98.5209C77.5095 98.3129 77.7048 97.9469 77.8974 97.5105C78.0828 97.0681 78.291 96.5794 78.5515 96.1195C78.8068 95.6557 79.1178 95.225 79.5402 94.9563L80.5407 96.2043C81.057 95.5079 81.6945 94.4652 82.5708 93.5818C83.0088 93.1435 83.4906 92.7265 84.0349 92.4494C84.5646 92.1419 85.1521 91.9792 85.7465 91.9713C85.7453 92.2787 85.7497 92.5833 85.7596 92.8843C87.1812 91.3245 89.4042 90.2064 91.6035 89.4392C93.8236 88.6599 96.0651 88.1732 97.9434 87.5866C98.687 87.8062 99.4201 88.055 100.137 88.2894C102.712 87.4598 101.414 87.4234 99.8631 87.2908C98.3373 87.1862 96.5256 87.0382 98.3618 85.5787C98.8734 86.9907 99.5166 86.6357 100.498 86.0931C101.468 85.5375 102.817 84.7615 104.427 85.3142C105.18 85.8926 104.38 86.0276 103.62 86.2329C102.855 86.4417 102.134 86.6704 102.969 87.2968C103.583 85.7628 104.594 86.796 106.229 86.3827C106.038 87.0808 106.885 87.1604 107.645 87.2567C108.404 87.3748 109.063 87.5298 108.508 88.2762C110.419 87.5403 112.42 86.9415 114.529 86.5763C114.897 87.0565 115.455 87.4171 116.082 87.6654C116.72 87.8848 117.397 88.1038 118.001 88.2472C116.593 87.6416 116.961 87.231 117.343 86.732C117.712 86.2425 118.144 85.6135 116.377 84.7196C113.573 84.1905 109.933 83.9683 106.162 83.9994C102.391 84.0554 98.4946 84.356 95.1024 84.6794C94.9338 85.7134 93.8922 85.8899 92.8082 86.1402C91.7175 86.3463 90.5817 86.633 90.3321 87.5304C89.988 86.9788 89.3417 86.6554 88.9724 86.1301C87.9666 86.6025 87.5583 86.8837 87.4949 87.062C87.4299 87.2341 87.6962 87.265 88.0628 87.2859C88.8028 87.3366 89.9056 87.2946 89.5389 87.8026C89.1263 88.0208 88.7067 88.1468 88.3016 88.2059C87.905 88.2841 87.5224 88.2912 87.1806 88.2483C86.4989 88.1621 85.9807 87.8766 85.9123 87.5253C84.4611 88.1898 84.4462 88.3468 84.6732 88.5414C84.9054 88.7376 85.3466 88.9762 84.9172 89.7935C84.0152 89.5145 83.0136 89.2234 82.0374 89.0552C77.969 92.1847 74.544 96.7995 71.7891 101.807C69.0443 106.847 66.9381 112.271 65.5647 117.63C66.0525 117.415 66.5389 117.21 67.0231 117.016C66.2712 119.344 66.9099 121.461 67.5442 123.254C67.8742 124.158 68.1304 125.017 68.2798 125.911C68.3104 126.137 68.3264 126.368 68.3261 126.607C68.3373 126.842 68.3485 127.08 68.3323 127.333C68.3076 127.836 68.1864 128.393 68.0726 128.999C68.6299 129.29 69.1171 129.581 69.6933 129.789C69.2223 129.617 68.8532 129.993 68.443 130.363C68.0333 130.725 67.5684 131.092 66.8463 130.676C67.3819 131.207 67.6936 131.856 68.0735 132.486C68.4868 133.091 68.8484 133.761 69.5119 134.16L69.222 133.576L68.9908 132.962C68.8438 132.553 68.6826 132.161 68.5616 131.755C69.0317 131.979 69.434 132.231 69.731 132.532C69.8842 132.68 70.0054 132.844 70.1281 133.002C70.256 133.155 70.3647 133.316 70.4555 133.482C70.6366 133.813 70.7479 134.165 70.7968 134.51C70.8526 134.848 70.867 135.158 70.7973 135.44C72.6632 136.256 72.5638 135.37 72.2058 134.28C72.1187 134 71.9872 133.724 71.8993 133.413C71.8115 133.101 71.7237 132.792 71.6534 132.504C71.4947 131.94 71.4796 131.408 71.6186 131.108C71.0532 130.844 70.5992 130.543 70.3164 130.196C70.0244 129.854 69.7845 129.534 69.7048 129.18C69.5244 128.481 69.6018 127.852 69.8477 127.211L70.1862 126.28C70.302 125.968 70.432 125.643 70.499 125.313C70.5692 124.98 70.5828 124.64 70.5799 124.244C70.5767 123.849 70.4393 123.439 70.3036 122.934C69.8508 121.691 69.5335 121.733 69.2501 122.127C68.9646 122.513 68.7011 123.244 68.3411 123.188Z" fill="#FFD55A"/>
<path d="M66.2095 130.07C66.4393 130.343 66.6549 130.536 66.8521 130.668C66.6669 130.444 66.4615 130.247 66.2095 130.07Z" fill="#FFD55A"/>
<path d="M117.999 88.2734C118.165 88.3472 118.35 88.4202 118.562 88.4962L119.269 88.7944C119.555 88.7545 119.506 88.6991 119.251 88.609C118.999 88.5141 118.544 88.3887 117.999 88.2734Z" fill="#FFD55A"/>
<path d="M70.8076 135.453C70.8076 135.453 70.8141 135.446 70.8115 135.431C70.7999 135.433 70.7883 135.426 70.7691 135.417L70.8076 135.453Z" fill="#FFD55A"/>
<path d="M74.7483 134.496C74.4467 134.241 74.1218 134.01 73.8376 133.74C73.7525 133.939 73.665 134.145 73.5921 134.341L74.7483 134.496Z" fill="#FFD55A"/>
<path d="M127.296 97.9543L127.86 97.538C127.613 97.581 127.4 97.6831 127.296 97.9543Z" fill="#FFD55A"/>
<path d="M140.395 133.125L140.137 132.342C140.122 132.625 140.243 132.883 140.395 133.125Z" fill="#FFD55A"/>
<path d="M166.279 64.3691C167.141 63.4962 168.215 62.5519 169.259 61.6399C170.313 60.7498 171.326 59.8647 172.03 59.0173L172.108 59.7374C172.659 59.3152 173.916 58.5604 174.743 57.887C175.148 57.5327 175.451 57.2393 175.436 56.9425C175.425 56.6674 175.088 56.3731 174.245 56.262L173.652 57.0319C172.117 57.9969 171.491 57.971 170.793 57.7197C170.447 57.5901 170.111 57.432 169.679 57.3447C169.252 57.2621 168.713 57.2342 168.036 57.463C166.57 58.3721 165.849 59.7139 165.192 60.8924C164.538 62.0908 163.95 63.1445 162.685 63.7778C161.821 64.616 161.49 63.9753 161.414 63.3343C160.263 64.1864 159.864 65.2134 159.635 66.1685C159.398 67.1303 159.289 68.0314 158.761 68.8017C156.553 67.2674 155.287 69.112 154.204 71.5009C153.917 72.0853 153.672 72.7276 153.391 73.3416C153.103 73.9515 152.825 74.5676 152.498 75.1308C152.16 75.6874 151.792 76.2042 151.357 76.6451C150.917 77.083 150.382 77.429 149.767 77.681C149.314 78.9223 148.6 80.2641 148.002 81.7556C147.7 82.499 147.415 83.2726 147.221 84.0824C147.004 84.885 146.88 85.7214 146.855 86.5722C146.522 85.5376 146.231 86.2478 145.882 87.0838C145.557 87.9231 145.17 88.8836 144.559 88.3211C145.891 89.2234 144.9 91.3453 144.103 93.5227C143.307 95.666 142.779 97.9777 144.666 98.5399C143.823 100.612 143.896 100.684 143.963 100.816C143.998 100.884 144.037 100.975 143.97 101.354C143.916 101.735 143.783 102.405 143.458 103.653C143.019 103.618 143.08 102.768 143.025 102.423C142.545 103.405 142.894 104.214 143.188 104.948C143.471 105.688 143.614 106.358 142.717 107.19C142.485 111.259 143.767 107.871 144.896 110.212C144.753 112.284 144.563 113.047 144.216 113.589C143.866 114.132 143.341 114.455 142.632 115.69C144.538 115.897 143.877 118.461 145.089 120.375C145.121 119.858 145.163 117.011 146.081 118.773C146.353 123.592 147.774 122.434 148.863 126.856C147.115 129.396 148.211 122.386 147.11 126.542C145.777 123.825 145.593 121.669 143.913 120.316C144.255 124.175 145.262 128.753 146.614 132.819C146.601 135.165 145.509 131.751 145.524 133.586C145.24 136.394 146.522 138.166 147.215 140.094L147.304 140.059C146.459 139.494 145.794 138.653 145.564 137.53C145.987 137.578 146.402 137.62 146.823 137.639C144.538 136.608 144.319 130.797 142.23 127.551C141.874 128.18 141.642 128.615 141.141 128.238C142.421 127.83 141.643 126.712 140.751 125.044C139.846 123.384 138.832 121.196 139.378 119.148C137.766 119.777 136.115 116.338 135.359 114.291C135.603 113.424 136.32 113.386 136.754 113.28C136.778 115.193 137.406 115.967 138.267 116.623C139.114 117.28 140.161 117.814 140.853 119.225C140.165 118.074 139.836 116.425 139.414 114.826C139.004 113.23 138.444 111.681 137.497 110.837C138.02 110.965 138.53 111.109 139.042 111.26C138.579 109.494 137.535 109.017 136.669 108.538C135.765 108.063 135.027 107.537 134.794 105.634L135.828 105.541C134.985 103.884 134.138 102.134 133.196 100.4C132.274 98.6559 131.232 96.9378 130.06 95.3529C128.91 93.7532 127.541 92.3525 126.113 91.2108C125.364 90.6749 124.648 90.1522 123.855 89.7961C123.468 89.6074 123.083 89.4366 122.702 89.2865C122.304 89.1595 121.91 89.0525 121.522 88.9669C121.086 89.1681 121.251 90.0678 121.429 90.9448C121.594 91.8612 121.764 92.7776 121.627 93.0553C122.364 93.3805 123.021 93.7234 123.7 93.9689C124.349 94.2604 124.98 94.5158 125.609 94.7598C126.212 95.0331 126.81 95.2973 127.404 95.5907C127.982 95.8995 128.543 96.2501 129.107 96.6594L127.867 97.557C128.471 97.4591 129.351 97.9751 130.064 98.2769C130.766 98.583 131.268 98.6977 131.094 97.7181C133.009 99.1361 130.923 99.8191 132.989 101.503C131.489 102.118 130.579 100.972 129.436 101.66C130.016 102.115 130.627 102.56 131.2 103.047C130.33 102.777 131.346 104.403 130.484 104.147C132.286 105.352 132.727 106.701 133.033 108.063C133.165 108.75 133.299 109.479 133.49 110.188C133.675 110.878 133.949 111.606 134.456 112.447C134.318 111.75 134.18 111.049 133.993 110.375C134.408 110.218 134.718 110.426 134.986 110.785C135.24 111.152 135.478 111.646 135.742 112.065C134.868 113.468 135.224 113.994 135.174 116.113C136.266 117.669 138.034 118.371 138.534 120.835C137.652 120.741 137.636 121.812 137.705 123.024C137.767 124.232 137.942 125.586 137.321 126.009C138.207 126.078 138.68 127.272 139.144 128.467C139.59 129.656 140.076 130.866 140.577 130.826C141.376 131.861 141.838 133.683 140.999 133.975C140.883 133.81 140.584 133.487 140.371 133.128L140.782 134.408C140.554 134.354 140.435 134.448 140.348 134.311C140.751 135.475 141.885 135.037 141.736 136.868C141.316 137.026 140.964 136.183 140.553 135.576C140.929 136.867 141.779 137.9 142.705 138.832C143.64 139.772 144.6 140.583 145.444 141.631L149.953 147.231L149.66 139.949C149.639 139.422 149.732 138.888 149.998 138.325C149.189 137.832 148.745 134.14 147.039 135.122C147.567 134.069 149.02 134.296 148.461 131.63C146.768 130.277 148.639 128.57 147.403 126.668C149.33 129.156 147.839 126.621 149.654 128.786C150.045 126.883 147.647 124.451 147.54 121.292C147.853 120.927 148.301 120.884 148.615 120.518C147.954 119.432 146.551 118.222 147.696 116.971L146.644 117.222C146.957 115.056 146.393 112.115 147.485 109.832C146.775 108.989 146.095 108.127 145.398 107.238C145.937 106.347 146.266 105.405 146.378 104.429C146.536 103.461 146.507 102.462 146.372 101.464C146.285 100.475 146.027 99.4722 145.781 98.5223C145.545 97.5757 145.229 96.6606 144.92 95.8534C145.118 95.2102 145.418 94.4209 145.726 93.8098C146.049 93.2023 146.372 92.7727 146.589 92.8312C146.67 93.1676 146.833 93.7443 146.959 94.3928C147.502 92.5155 149.245 90.6102 147.969 89.0836C148.089 87.0309 149.544 88.0677 150.289 86.8038C149.848 84.5512 151.447 81.9719 152.943 79.8909C154.435 77.7849 155.773 76.0846 154.652 74.5479C154.399 74.876 154.079 75.2715 153.702 75.717C153.322 76.1595 152.885 76.6534 152.46 77.2146C152.02 77.7672 151.569 78.3718 151.165 79.034C150.739 79.6845 150.366 80.3925 150.05 81.1276C150.03 80.1774 149.088 80.4632 149.559 79.3425C149.92 78.6064 150.309 77.9948 150.724 77.46C151.153 76.9331 151.59 76.4726 152.013 76.0093C152.453 75.5565 152.887 75.1054 153.286 74.5754C153.692 74.0488 154.1 73.4686 154.455 72.7201L156.102 74.3865C158.629 72.9615 159.656 70.6384 160.909 68.437C161.531 67.3471 162.17 66.3012 163.038 65.5521C163.89 64.7886 164.961 64.321 166.279 64.3715L166.279 64.3691Z" fill="#FFD55A"/>
<path d="M146.554 97.7233C147.074 97.0613 147.584 96.426 148.151 95.7751L147.121 95.7892C147.104 96.5112 147.007 97.1818 146.554 97.7233Z" fill="#FFD55A"/>
<path d="M147.12 95.7869C147.127 95.314 147.054 94.8399 146.959 94.3893C146.826 94.8725 146.76 95.3505 146.86 95.7964L147.12 95.7869Z" fill="#FFD55A"/>
<path d="M173.902 60.0863C174.145 60.0502 174.51 60.0395 174.917 59.9681C175.323 59.8831 175.776 59.7875 176.222 59.5871C175.567 59.3972 174.268 59.6037 173.902 60.0863Z" fill="#FFD55A"/>
<path d="M176.276 58.8607C175.886 58.8089 175.485 58.741 175.084 58.7049L174.978 59.0034C175.406 58.9222 175.846 58.9103 176.276 58.8607Z" fill="#FFD55A"/>
<path d="M214.795 106.348L215.379 108.299L215.895 110.288C215.494 110.588 215.381 111.846 215.196 112.832C215.002 113.817 214.788 114.525 214.294 113.729C214.941 114.991 214.575 116.797 214.361 118.088C214.161 119.381 214.108 120.199 215.542 119.589C216.081 116.731 216.645 113.613 216.994 110.288C217.342 106.966 217.487 103.437 217.238 99.8447C216.733 92.6238 214.413 85.4266 210.617 79.8911C211.22 80.3918 211.797 80.9157 212.379 81.4494C210.119 78.6419 209.472 76.3776 208.574 74.304C207.681 72.2731 206.511 70.4147 203.269 69.4166C203.935 69.2054 204.611 69.0017 205.289 68.8078C204.478 67.3601 202.915 66.5904 201.443 65.8326C199.982 65.0425 198.64 64.2681 197.99 62.3932L197.731 63.21C197.034 62.6591 196.986 62.157 196.258 61.6006C196.285 61.765 196.312 61.9281 196.332 62.0971C193.952 61.346 192.857 60.5493 191.016 59.0038C191.083 58.6938 191.364 58.7523 191.717 58.918C192.063 59.0975 192.477 59.3802 192.842 59.485C192.522 58.9527 191.79 58.7189 190.919 58.5983C190.063 58.4429 189.084 58.4001 188.246 58.0593C187.087 57.0675 188.584 57.2165 188.876 57.0688C186.091 56.4509 184.174 55.7574 182.337 55.4145C181.88 55.3404 181.431 55.2851 180.984 55.2619C180.518 55.2557 180.035 55.3 179.563 55.3846C178.619 55.5875 177.67 56.023 176.782 56.8544C176.495 57.4113 178.227 57.6907 176.38 58.14C178.121 58.3552 179.563 58.3255 181.081 58.2397C181.836 58.2011 182.599 58.1173 183.379 58.0877C184.166 58.0207 184.959 58.0262 185.789 58.048L184.933 57.8163C186.55 56.78 187.031 57.1331 187.555 57.6879C187.826 57.9611 188.112 58.3103 188.588 58.6302C188.828 58.7862 189.117 58.9306 189.482 59.0508C189.841 59.1822 190.268 59.3058 190.805 59.3931C189.319 59.9203 187.743 59.2519 186.876 59.6238C187.323 60.043 187.723 60.4243 188.129 60.6991C188.535 60.9704 188.921 61.1953 189.3 61.3769C190.07 61.7151 190.801 61.9193 191.501 62.1154C192.199 62.3124 192.829 62.562 193.364 62.9649C193.868 63.41 194.28 64.0075 194.421 64.9968L194.117 64.8691C194.452 65.4762 195.689 65.7622 196.611 66.2425C196.604 65.7632 195.979 64.9623 195.601 64.3505C196.586 64.7629 197.787 64.2111 198.425 64.0524C198.473 64.9082 198.854 65.0675 199.371 65.2412C199.888 65.4094 200.541 65.5989 200.976 66.5151C200.598 67.7839 199.106 66.0935 198.156 66.0865C198.881 66.4031 199.607 66.7407 200.315 67.1138C201.077 67.8278 201.154 68.4425 201.103 68.9759C201.044 69.5167 200.83 70.008 200.893 70.5882C202.66 71.3585 200.745 69.4186 202.593 69.7202C202.748 71.0146 204.282 73.4217 205.928 76.0953C207.611 78.7469 209.384 81.6948 210.73 83.5747C210.005 82.2064 209.375 83.534 208.827 81.773C208.834 82.1311 209.218 82.7859 209.692 83.3266C210.156 83.8702 210.73 84.2976 211.151 84.1502C213.031 86.7778 213.625 90.8407 213.344 93.8025L214.06 92.802C215.04 93.8519 215.085 95.4634 214.938 97.2853C214.79 99.1165 214.526 101.118 214.961 103.264L214.983 103.173C215.098 103.866 215.672 104.512 216.165 105.331C216.672 106.148 217.033 107.139 216.722 108.432C215.712 107.623 215.878 106.255 214.797 106.347L214.795 106.348Z" fill="#FFD55A"/>
<path d="M214.184 121.771C213.932 121.195 213.673 120.625 213.393 120.06C212.717 121.472 213.612 123.811 214.48 123.749C214.577 122.642 215.508 121.437 214.876 121.06C214.657 121.183 214.231 121.041 214.184 121.771L214.184 121.771Z" fill="#FFD55A"/>
<path d="M196.018 145.801C195.607 146.32 195.967 146.657 195.887 147.083C198.865 145.54 202.052 143.307 204.489 140.961C205.083 140.36 205.694 139.825 206.209 139.258C206.735 138.7 207.229 138.176 207.68 137.698C208.536 136.705 209.321 135.949 209.878 135.472C210.676 134.568 210.74 133.777 210.657 132.881C210.587 131.99 210.49 131.007 210.821 129.725C211.368 129.532 211.935 129.337 212.475 129.123C212.397 128.298 213.102 126.997 213.465 125.96C213.853 124.931 213.889 124.197 212.671 124.599C212.462 124.686 213.148 126.096 212.364 127.121L211.772 126.678C211.487 127.574 211.212 128.476 210.889 129.365C210.747 128.973 210.603 128.585 210.445 128.195C209.089 129.678 209.422 130.523 209.663 131.584C209.791 132.109 209.912 132.679 209.799 133.379C209.637 134.055 209.26 134.886 208.348 135.831L206.899 134.794C206.383 135.429 205.987 136.026 205.583 136.549C205.166 137.062 204.79 137.538 204.398 137.983C203.565 138.823 202.667 139.569 201.212 140.044C201.212 140.044 201.769 140.742 201.967 140.113C202.438 139.846 203.463 139.892 203.539 140.532C202.019 142.723 201.979 142.4 201.959 141.732C201.924 141.051 201.851 140.145 200.282 140.895C199.035 142.651 196.663 144.743 194.196 146.121C191.736 147.519 189.28 148.253 187.992 147.952C189.072 148.138 189.048 148.729 188.451 149.366C187.858 149.99 186.691 150.645 185.576 150.923C184.392 150.62 185.959 149.72 186.149 149.092C185.082 149.233 184.137 149.042 183.214 149.584C184.79 150.144 184.318 151.662 182.098 152.898C184.847 152.718 187.097 151.49 189.247 150.061C191.407 148.622 193.44 147.016 196.02 145.8L196.018 145.801Z" fill="#FFD55A"/>
<path d="M195.159 147.889C195.674 147.571 195.846 147.31 195.891 147.082C195.19 147.457 194.481 147.811 193.812 148.094C194.258 148.026 194.709 147.977 195.159 147.888L195.159 147.889Z" fill="#FFD55A"/>
</svg>
