<svg width="123" height="95" viewBox="0 0 123 95" fill="none" xmlns="http://www.w3.org/2000/svg">
<path d="M42.8489 59.9851C43.0393 60.4411 42.5912 61.6127 41.5045 63.4997C40.668 64.9673 39.9252 66.1122 39.2762 66.9345C37.4329 69.3106 35.4918 70.9243 33.4529 71.7755C30.3006 73.0914 27.7846 72.8187 25.9049 70.9571L24.9061 69.6966L23.9558 68.1559L23.3287 68.4649L21.9202 69.0529L20.8773 69.441L16.6721 71.1965L17.2349 72.5446L19.1924 75.366C19.6516 76.466 19.4117 77.2119 18.4727 77.6039C17.7886 77.8895 17.1265 77.6618 16.4864 76.921C15.8854 76.085 15.3385 75.0768 14.8458 73.8964L14.157 72.2465C13.1644 72.6609 12.4553 72.3584 12.0297 71.3389C11.9009 71.0304 12.2992 70.5885 13.2246 70.0131L12.2954 67.4476L11.6769 65.6266C11.3296 64.606 11.6321 63.8969 12.5845 63.4993C13.0003 63.3257 13.3505 63.5418 13.6349 64.1477L14.6057 66.2469L14.9435 67.1691L15.3047 68.0343L15.7229 68.9229L22.9898 65.842L21.7599 62.6695C21.089 60.9492 21.1626 59.9182 21.9809 59.5766C22.5845 59.3246 23.2419 60.0504 23.9531 61.754C23.8579 61.5259 24.1121 62.0971 24.7157 63.4676L25.6211 65.5232C25.8641 66.0676 26.0919 66.5001 26.3046 66.8209C26.4703 67.0668 26.7579 67.435 27.1674 67.9256C28.1074 69.0453 28.871 69.7425 29.4582 70.0172C30.2602 70.3912 31.2447 70.3346 32.4117 69.8474C33.0958 69.5618 33.7597 69.1902 34.4034 68.7324C34.9511 68.3463 35.912 67.441 37.2864 66.0167C38.1344 65.1429 39.2486 63.4727 40.629 61.0063C41.2075 59.9772 41.5906 59.4235 41.7784 59.3451C42.1808 59.1771 42.4789 59.2496 42.6725 59.5625L42.8489 59.9851ZM68.0593 49.4606C68.1601 49.702 67.961 50.3758 67.4619 51.482C66.8691 52.8163 66.137 54.0434 65.2656 55.1633C62.6571 58.5362 59.8907 60.8331 56.9665 62.0538C54.2703 63.1794 51.8051 61.0661 49.5708 55.714C49.4391 57.7379 49.2339 59.3594 48.9552 60.5783C48.3587 63.1113 47.4434 64.6354 46.2094 65.1506C45.029 65.6434 44.0695 65.5713 43.3311 64.9345C42.8143 64.4887 42.2786 63.6018 41.7242 62.2739C40.9235 60.3557 40.682 57.9284 40.9998 54.992C41.4009 51.3119 42.7417 48.9959 45.022 48.0439C46.3231 47.5008 47.5726 47.4753 48.7705 47.9676L48.851 47.934C49.2131 47.7828 49.6409 47.9586 50.1344 48.4614C50.5484 48.8872 50.8327 49.304 50.9873 49.712L53.3917 56.1509C53.8555 57.3749 54.3105 58.2009 54.757 58.6288C55.4115 59.2534 56.2619 59.3473 57.3082 58.9105C58.2203 58.5297 59.0787 58.0769 59.8834 57.5519C61.0223 56.8087 62.2235 55.6299 63.487 54.0156C63.744 53.6878 64.5844 52.3052 66.0084 49.8678L66.6835 48.7118C67.3207 48.5403 67.7793 48.7899 68.0593 49.4606ZM47.5738 51.6096L47.4341 50.9355C47.1261 50.1977 46.6569 49.9604 46.0264 50.2236C44.8997 50.694 44.1141 52.1324 43.6696 54.539C43.185 57.1513 43.2041 58.9705 43.727 59.9965L44.5029 61.5156C44.7401 61.8576 44.9907 62.005 45.2545 61.9578C45.9655 61.661 46.5673 59.5748 47.06 55.699L47.5738 51.6096ZM71.389 14.4253C71.9154 15.6862 70.7714 17.8885 67.957 21.0324L64.9533 23.7985C63.9733 24.6959 63.6597 25.5671 64.0125 26.4122C64.7349 28.1426 65.9123 29.7933 67.5447 31.3643C68.5718 32.3531 70.2633 33.6317 72.6192 35.1999C76.3711 37.6975 78.7062 40.0462 79.6246 42.2461C80.487 44.3118 80.7086 46.3142 80.2895 48.2534C79.8225 50.4173 78.7439 51.852 77.0538 52.5576C75.5246 53.196 74.0106 53.1349 72.5118 52.3745C71.089 51.6453 70.0529 50.5028 69.4033 48.9468C68.7929 47.4847 68.3778 46.2639 68.158 45.2846L67.8374 42.5359C67.761 41.9377 67.8348 41.1902 68.059 40.2933C68.311 39.2745 68.6443 38.6392 69.059 38.3873C69.7431 38.1017 70.2223 38.2876 70.4967 38.9449C70.6423 39.2936 70.7064 39.7867 70.6889 40.424L70.6315 42.2673C70.688 43.1573 70.7909 43.9886 70.9401 44.7611L71.8291 47.3434C72.0912 48.0845 72.6872 48.8517 73.6169 49.645C74.4425 50.3399 75.231 50.5305 75.9821 50.217C76.854 49.853 77.3431 48.8927 77.4494 47.3362C77.5402 46.0067 77.384 44.859 76.9808 43.8932C76.3536 42.3909 75.3793 40.9626 74.0579 39.6083C73.0766 38.6161 72.0507 37.8 70.9802 37.16C66.2195 34.359 62.9964 30.9397 61.3109 26.9021C60.7005 25.44 61.0009 24.1411 62.2122 23.0054L66.0338 19.4253C66.3958 19.0851 66.9521 18.2858 67.7027 17.0274C68.7771 15.2243 69.4842 14.2203 69.8239 14.0154C70.5617 13.7074 71.0834 13.844 71.389 14.4253ZM80.4811 22.9631C80.8171 23.7679 80.5156 24.3663 79.5767 24.7583C79.0804 24.9655 78.3512 24.7658 77.3892 24.1593C76.4708 23.5819 75.9024 23.0316 75.684 22.5084C75.292 21.5695 75.5052 20.9292 76.3234 20.5876C76.9807 20.3132 77.7808 20.4754 78.7238 21.074C79.6042 21.6359 80.1899 22.2655 80.4811 22.9631ZM101.472 35.6066C101.832 36.4326 101.041 38.1965 99.0969 40.8981C96.9733 43.8481 94.8116 45.7822 92.6117 46.7006L89.6638 47.506C88.4888 47.8232 87.3475 47.4097 86.2398 46.2655C85.7105 45.7146 85.2107 44.8758 84.7403 43.7491L83.4467 40.6505L82.0926 37.2936L81.4896 35.9624C81.2186 35.3509 81.065 34.7377 81.0288 34.1228C81.0028 33.6454 81.2312 33.3058 81.7141 33.1043C82.6933 32.6955 83.5587 33.4289 84.3102 35.3046L86.9512 41.8574C87.5426 43.3116 88.0648 44.2041 88.5179 44.5348C89.1947 45.0241 90.3178 44.9411 91.8872 44.2859C93.6981 43.53 95.3493 42.2972 96.8408 40.5877L100.202 35.4515L100.826 35.1911C101.092 35.1115 101.307 35.25 101.472 35.6066ZM112.607 28.0989C113.442 30.0976 113.74 32.3593 113.502 34.8842C113.229 37.739 112.301 39.4968 110.719 40.1576C109.713 40.5776 108.753 40.6 107.841 40.225C106.941 39.8443 106.279 39.1442 105.853 38.1248C105.12 36.3676 105.108 35.3406 105.819 35.0438C106.463 34.775 106.918 34.9396 107.183 35.5376L107.786 36.8689C108.267 37.9442 108.858 38.343 109.562 38.0652C110.452 37.7091 110.992 36.775 111.18 35.2632C111.406 33.3891 110.998 31.2045 109.956 28.7095C109.665 28.012 109.148 27.5109 108.407 27.2061C107.673 26.8824 106.958 26.8661 106.26 27.1573C104.986 27.6893 103.991 29.1362 103.276 31.4982L103.683 33.2657C104.055 34.8745 104.675 36.6793 105.542 38.6801L108.016 44.3809C108.578 45.6899 109.245 47.0418 110.016 48.4367L111.398 50.9549C111.505 51.2098 112.016 51.7367 112.933 52.5355C113.302 52.8539 113.598 53.1869 113.822 53.5345C114.13 54.2723 114.243 54.8078 114.162 55.141C114.057 55.5313 113.649 55.8749 112.938 56.1717C112.241 56.4629 111.474 56.0586 110.636 54.9589C110.259 54.4706 109.877 53.819 109.49 53.0041L105.679 45.1205L102.63 37.8167C102.03 36.3814 101.462 34.831 100.924 33.1653L98.9155 26.9392C98.8247 26.6463 98.6081 26.3351 98.2658 26.0055L97.366 24.8689C97.002 23.997 97.2157 23.3959 98.0071 23.0655C98.4632 22.8751 98.9502 22.9475 99.4681 23.2825C99.9368 23.5752 100.272 23.9629 100.474 24.4458L102.128 28.4096C102.774 26.486 103.882 25.1966 105.452 24.5414C106.793 23.9814 108.199 24.1035 109.668 24.9075C111.056 25.6669 112.036 26.7307 112.607 28.0989Z" fill="#FFD55A"/>
</svg>
