<svg width="214" height="247" viewBox="0 0 214 247" fill="none" xmlns="http://www.w3.org/2000/svg">
<path d="M52.1765 87.8962L53.1009 86.3515L52.2535 85.4949L52.1765 87.8962Z" fill="#FFD55A"/>
<path d="M58.5673 81.3862L59.1863 78.4806C55.6614 78.9712 57.3133 77.1072 53.577 80.7376C53.5306 81.5991 53.4582 82.9754 53.5655 84.1224C53.6892 85.276 53.9879 86.1981 54.6432 86.1651C54.886 85.0167 54.334 83.0018 55.283 81.4866C55.8878 82.4906 55.144 84.2049 55.9833 85.4156C57.8208 83.101 55.839 83.4974 57.2884 80.7544L58.5675 81.3868L58.5673 81.3862Z" fill="#FFD55A"/>
<path d="M56.8871 77.0215C57.299 77.4739 57.6977 77.9276 58.1259 78.0413C57.7145 77.5887 57.6159 75.9919 56.8871 77.0215Z" fill="#FFD55A"/>
<path d="M57.2602 75.2227C58.0727 73.5157 58.3204 75.6726 58.5474 75.5588L57.4736 72.8158L57.2605 75.2233L57.2602 75.2227Z" fill="#FFD55A"/>
<path d="M60.437 68.0463C60.5198 67.741 60.5833 67.4541 60.6336 67.1611C60.2153 67.3034 60.3504 67.6471 60.437 68.0463Z" fill="#FFD55A"/>
<path d="M61.8217 64.4209C60.848 64.822 60.8388 65.8981 60.6272 67.1522C60.6759 67.1342 60.7104 67.1157 60.791 67.0953C61.7715 66.3542 62.6685 67.8737 61.5991 69.2861C61.1799 71.0729 59.9411 70.3768 60.1843 72.1829L62.1019 70.6663C63.0678 68.0178 61.8536 65.684 61.8209 64.4206L61.8217 64.4209Z" fill="#FFD55A"/>
<path d="M60.4296 68.0369C60.3457 68.3552 60.2401 68.6694 60.094 69.0066C60.4945 68.6842 60.4922 68.353 60.4296 68.0369Z" fill="#FFD55A"/>
<path d="M58.7051 71.5872L58.5997 72.5979L59.2544 72.6151L58.7051 71.5872Z" fill="#FFD55A"/>
<path d="M64.614 58.6185C65.3765 59.268 64.8023 60.2565 64.174 61.2334C63.5648 62.2193 62.9166 63.2022 63.4912 63.7573C64.506 61.4239 66.7415 60.3177 67.4403 61.2926L68.172 58.5668C67.9657 57.4169 66.103 57.7275 64.614 58.6185Z" fill="#FFD55A"/>
<path d="M71.5629 56.2448C71.5049 56.0066 71.5118 55.7644 71.5853 55.5342C71.502 55.8272 71.4618 56.0983 71.5629 56.2448Z" fill="#FFD55A"/>
<path d="M76.3462 42.8344C75.9415 43.8801 75.5922 44.9558 75.2507 46.0248C74.9112 47.0951 74.5497 48.1357 74.2621 49.2209C74.0673 48.377 73.3915 48.212 74.0554 46.8832C73.1198 47.975 72.9228 48.8194 72.7232 49.5732C72.5424 50.342 72.3727 51.0333 71.6882 51.9922C69.7332 51.619 73.8155 48.4095 71.7066 48.6743C70.8142 50.0926 69.5929 52.309 70.2428 54.2407C69.4256 54.7774 68.6536 55.3537 67.859 55.9241L70.0398 56.1202C71.035 55.4821 69.7675 53.4803 71.2931 53.6197C72.1989 53.7776 71.7953 54.7683 71.594 55.506C71.8497 54.6849 72.7757 53.8993 73.8165 52.9551C74.8824 52.0265 76.0812 50.962 76.8873 49.4935C77.8101 47.9971 77.5105 46.957 77.058 45.9737C76.6 44.9864 75.9931 44.0708 76.3448 42.8329L76.3462 42.8344Z" fill="#FFD55A"/>
<path d="M78.2579 43.9566L79.125 44.112L78.1139 43.701L78.2579 43.9566Z" fill="#FFD55A"/>
<path d="M80.6559 36.8861C80.2076 37.9981 79.8348 39.1576 79.4364 40.2709C79.076 40.4383 78.6216 40.327 78.1856 40.2809C78.6213 40.4595 78.6652 41.654 79.0594 41.7839C80.2366 41.7519 80.7679 40.9109 81.1171 39.8424C81.296 39.3126 81.4202 38.7186 81.5802 38.1783C81.7454 37.6428 81.9238 37.1383 82.167 36.7548C84.0631 35.2868 84.1919 35.5058 84.1745 36.0541C84.1522 36.6061 83.9864 37.4809 85.2089 37.4098C84.3092 38.3222 83.9567 38.0557 82.6605 39.3026C84.3868 38.9547 85.4269 37.8042 86.2515 36.5896C87.0784 35.3997 87.6119 33.9877 88.0859 33.2256C87.5932 33.4205 87.1166 33.1061 86.5095 33.9344C86.8203 33.3451 87.132 32.7501 87.4593 32.1989C86.2627 32.2889 85.2989 32.6623 84.2402 33.3419C83.1617 34.0135 82.0874 35.1492 80.6564 36.8873L80.6559 36.8861Z" fill="#FFD55A"/>
<path d="M76.8273 41.5663C77.4788 40.4757 77.8816 40.1904 78.1464 40.2735C77.5534 40.2104 77.0199 40.3394 76.8273 41.5663Z" fill="#FFD55A"/>
<path d="M88.7564 32.556C88.5342 32.5908 88.3253 32.853 88.0908 33.227C88.3042 33.1398 88.5169 32.9567 88.7564 32.556Z" fill="#FFD55A"/>
<path d="M85.9712 32.1893C86.5751 31.6934 87.1809 31.223 87.8056 30.7817C87.3972 30.758 86.9779 30.7316 86.5664 30.7279C86.3879 31.017 85.6254 31.8937 85.9709 32.1887L85.9712 32.1893Z" fill="#FFD55A"/>
<path d="M120.366 83.9781C121.126 83.9647 121.682 83.2515 121.923 81.5342C122.863 81.9241 122.133 84.0888 122.437 85.2768C123.598 83.1424 123.539 85.6018 124.599 85.2584C124.952 83.9393 124.927 82.9208 124.839 81.8904C124.728 80.8517 124.656 79.8199 125.003 78.4175C125.269 78.5944 125.704 78.6016 126.077 78.2622C126.011 77.3699 125.943 76.331 125.894 75.2287C125.814 74.1238 125.692 72.9508 125.648 71.7889C125.477 69.4626 125.417 67.1713 125.696 65.4487C125.86 62.1501 125.048 59.7728 124.033 56.3487C123.207 50.5252 121.418 44.7464 119.116 39.1157C117.97 36.3989 116.339 33.8628 114.325 31.636C112.313 29.4115 109.963 27.4416 107.265 25.9543C106.473 26.2795 105.702 26.6999 104.996 27.1145C104.911 26.5676 104.258 26.3702 103.728 26.1833C103.192 26.0268 102.761 25.8513 103.047 25.2744C103.333 25.4648 103.631 25.5425 103.958 25.5913C104.281 25.6553 104.627 25.7114 105.001 25.8107C104.075 24.5844 102.263 24.2252 100.475 24.3462C98.6589 24.4533 96.9358 25.0557 95.381 25.2382C95.8447 25.4608 96.6781 26.967 95.9853 27.474C95.8816 26.9445 95.6365 26.7511 95.2893 26.7307C95.1163 26.7201 94.9188 26.7509 94.7062 26.8054C94.4968 26.8745 94.2723 26.9656 94.0392 27.0574C93.5665 27.2241 93.0842 27.4757 92.5771 27.5249C92.0792 27.6012 91.5694 27.5305 91.0557 27.1172C89.5431 27.7102 89.7805 28.1381 90.0252 28.5734C90.2704 29.0253 90.5082 29.4632 89.1499 30.2949C89.4051 30.8977 90.0829 30.5369 90.8347 30.1529C91.5836 29.758 92.4143 29.333 92.8727 29.6266C92.7346 30.2756 92.1504 30.5508 91.6692 30.7783C91.1983 31.0353 90.8506 31.2458 91.2929 31.7405C93.3563 30.6087 95.6694 28.599 98.8105 27.6139C100.377 27.0988 102.194 26.9026 104.096 27.1265C105.99 27.3442 107.921 27.9436 109.589 28.8761C109.149 29.0478 108.705 29.2573 108.283 29.4574C109.183 29.7433 110.147 30.2727 111.099 30.9358C112.036 31.6213 112.932 32.4781 113.676 33.4284C115.153 35.3468 115.952 37.6317 115.654 39.3244C116.03 38.8004 116.417 39.9427 116.986 41.4453C117.268 42.1555 117.602 42.8507 117.988 43.2856C118.361 43.7245 118.812 43.8978 119.365 43.5325C119.144 44.7316 119.345 44.9949 119.594 46.4832L120.484 46.624C120.772 47.6548 120.593 48.1786 120.436 48.7298C120.281 49.2813 120.151 49.8586 120.469 51.0236C121.153 49.1925 121.888 50.8145 122.946 51.2932C122.708 52.7967 122.45 54.4227 122.199 56.0075C121.956 57.5617 121.622 59.061 121.336 60.3394C121.653 60.0967 122.016 59.8139 122.353 58.8998C122.231 60.6215 123.237 60.1706 123.654 60.5657C123.89 62.1871 122.461 62.1963 121.743 62.2133C121.716 62.9547 121.878 63.5686 122.115 64.1176C122.329 64.6666 122.63 65.1502 122.915 65.6169C123.475 66.5483 124.024 67.4253 123.563 68.557L124.678 67.7118C124.758 68.4875 124.743 69.2378 124.681 69.9748C124.627 70.7126 124.516 71.4361 124.355 72.1637C124.21 72.8919 124.068 73.6256 123.977 74.3896C123.893 75.1548 123.767 75.939 123.786 76.7929C122.936 77.5276 122.674 76.7998 122.558 75.7409C122.478 74.6844 122.367 73.2512 122.077 72.565C121.712 73.223 121.606 74.6328 121.029 75.0282C121.352 75.7402 121.725 76.704 122.085 77.7369C122.444 78.7674 122.678 79.8456 122.912 80.7923C122.162 79.8107 121.637 80.379 121.27 81.2911C120.871 82.1982 120.538 83.4499 120.362 83.9784L120.366 83.9781Z" fill="#FFD55A"/>
<path d="M121.033 75.0246C120.852 74.6227 120.641 74.274 120.483 74.0709C120.569 74.3875 120.662 74.6851 120.53 75.1407C120.725 75.1983 120.887 75.1437 121.033 75.0237L121.033 75.0246Z" fill="#FFD55A"/>
<path d="M120.36 83.9715C120.3 83.9677 120.239 84.0049 120.175 83.9949C120.2 84.3319 120.266 84.2388 120.36 83.9715Z" fill="#FFD55A"/>
<path d="M125.774 64.986C125.74 65.1223 125.735 65.2998 125.708 65.4481C125.694 65.6499 125.715 65.8187 125.695 66.0204L125.774 64.986Z" fill="#FFD55A"/>
<path d="M120.435 63.0016C120.748 62.326 121.068 61.3992 121.348 60.3391C120.889 60.6902 120.506 60.9895 120.435 63.0016Z" fill="#FFD55A"/>
<path d="M117.093 43.0671C116.684 42.5544 116.492 43.0111 115.997 42.7339C116.404 43.9428 116.893 44.2286 117.093 43.0671Z" fill="#FFD55A"/>
<path d="M120.356 78.4885L120.307 80.9336C120.364 81.2475 120.401 81.5571 120.421 81.8637C120.454 80.7408 120.373 79.5978 120.356 78.4891L120.356 78.4885Z" fill="#FFD55A"/>
<path d="M102.588 105.424C102.016 105.726 101.585 105.969 101.068 106.348C100.568 106.719 100.065 107.174 99.5774 107.699C99.0905 108.228 98.6126 108.816 98.177 109.519C97.9598 109.869 97.755 110.263 97.591 110.726C97.4359 111.197 97.3284 111.81 97.5078 112.479L97.7136 113.245L98.5347 113.272C98.8195 113.281 99.0961 113.296 99.3686 113.32C100.782 113.181 101.492 112.748 101.853 112.413C102.214 112.058 102.233 111.701 102.25 111.361C102.264 111.016 102.274 110.686 102.551 110.375C102.689 110.22 102.893 110.069 103.196 109.924C103.504 109.799 103.894 109.612 104.418 109.415C104.457 110.38 104.451 111.36 104.397 112.353C106.928 111.587 109.853 110.085 112.046 107.922C114.229 105.758 115.701 103.128 115.917 100.713C116.408 100.607 117.268 100.111 116.835 101.416C117.771 99.9963 117.151 99.0624 116.747 98.1411C116.317 97.1884 116.072 96.2618 117.556 94.605C117.272 96.7962 117.781 96.7354 118.495 96.3176C118.852 96.1109 119.257 95.8199 119.631 95.693C119.989 95.5618 120.328 95.5932 120.568 96.0626C120.528 96.2961 120.465 96.5148 120.414 96.7425C120.753 96.1056 120.998 95.3384 121.273 94.5887C121.401 94.21 121.531 93.8278 121.66 93.4483C121.789 93.0703 121.915 92.6952 121.995 92.309C122.179 91.5476 122.356 90.8251 122.54 90.1881C122.631 89.8695 122.724 89.5725 122.82 89.3018C122.904 89.0268 122.976 88.7733 123.063 88.556C122.411 88.2696 120.902 89.3978 121.549 87.0787C121.12 87.963 120.476 87.3321 119.818 87.0318C119.867 88.3187 119.521 89.1867 119.317 89.9795C119.092 90.767 118.964 91.4656 119.023 92.3117C117.574 93.1086 119.167 91.3822 117.724 92.1675L117.615 94.2864C116.736 95.442 117.508 92.5226 116.257 94.3966C116.599 94.8896 116.168 96.8284 115.074 98.2471L115.089 97.6436C114.666 99.0008 113.161 100.248 114.796 100.642C114.074 100.787 113.331 100.878 112.62 100.972L113.609 101.409C112.974 102.093 112.271 102.494 111.62 102.85C110.933 103.151 110.302 103.433 109.65 103.654C109.329 103.775 109.017 103.907 108.713 104.069C108.399 104.207 108.09 104.366 107.788 104.574C107.491 104.799 107.173 104.994 106.861 105.28C106.554 105.581 106.222 105.879 105.869 106.26C106.855 106.074 106.378 106.984 105.983 107.449C106.918 107.334 107.33 106.896 107.591 106.314C107.728 106.033 107.844 105.74 107.999 105.449C108.145 105.135 108.331 104.827 108.633 104.542C109.065 104.865 108.915 105.723 108.865 106.439C108.846 106.799 108.838 107.083 108.99 107.256C109.142 107.427 109.444 107.466 109.989 107.217C108.623 107.515 107.682 108.134 106.763 108.479C106.319 108.675 105.854 108.705 105.425 108.633C105.207 108.589 104.992 108.505 104.78 108.365C104.565 108.216 104.349 108.001 104.138 107.726C103.583 107.861 103.138 108.076 102.706 108.211C102.28 108.363 101.908 108.602 101.506 108.721C101.109 108.859 100.714 109.027 100.271 109.108C99.824 109.165 99.3378 109.183 98.7889 109.126L99.6963 111.745C99.7451 111.724 99.7928 111.713 99.8356 111.71C99.8571 111.709 99.8772 111.71 99.8966 111.712L100.057 111.702C100.175 111.699 100.29 111.714 100.398 111.745C100.529 111.771 100.768 111.799 100.939 111.857C100.864 111.834 100.788 111.815 100.711 111.8C100.901 111.836 101.096 111.902 101.389 112.024C101.535 112.073 101.467 112.045 101.458 112.036C101.444 112.025 101.431 112.014 101.421 112.004C101.401 111.982 101.385 111.968 101.386 111.943C101.422 111.816 101.599 111.689 101.878 111.485C102.409 111.083 103.217 110.491 103.45 108.941L102.005 109.933C101.53 109.391 102.052 108.8 102.797 107.81C102.903 108.096 102.899 108.101 103.431 108.02C103.262 107.733 103.295 107.341 103.429 106.821C103.527 106.344 103.678 105.853 103.874 105.348C104.256 104.352 104.72 103.403 104.699 103.106C104.174 103.696 103.852 104.526 103.561 105.426L103.343 106.108C103.271 106.338 103.204 106.565 103.089 106.825C102.878 107.314 102.64 107.758 102.383 108.152C102.439 107.554 102.22 107.122 102.132 106.727C102.085 106.527 102.074 106.336 102.134 106.134C102.187 105.939 102.319 105.714 102.585 105.423L102.588 105.424Z" fill="#FFD55A"/>
<path d="M115.106 96.4882C115.107 96.8765 115.102 97.2622 115.09 97.6424C115.224 97.253 115.265 96.8457 115.106 96.4882Z" fill="#FFD55A"/>
<path d="M112.586 94.4662C113.983 92.9514 113.155 95.5253 114.696 94.2908C115.177 92.0966 111.872 95.2104 111.977 92.8012C113.317 92.2064 113.464 89.7795 113.966 89.0835C113.993 90.2724 115.652 90.8334 116.137 90.7525C116.238 89.8453 117.953 88.9609 118.83 87.9815C115.962 89.8497 120.087 85.4519 117.341 87.0193C116.701 86.2332 118.2 83.3185 119.635 82.8977C120.097 83.4513 119.298 84.106 118.769 84.7658C119.333 86.1569 120.695 83.6706 121.913 84.1846C122.256 82.404 124.258 79.7806 125.85 77.7119C127.415 75.6362 128.57 73.9817 126.48 73.6295C125.855 73.7414 125.454 74.0977 125.105 74.5275C124.764 74.9677 124.48 75.4871 124.048 75.9234C125.559 75.0603 125.798 75.3799 125.697 75.9717C125.592 76.5655 125.151 77.43 125.219 77.7246C123.832 78.2738 122.729 80.6501 122.396 79.4844C122.683 78.6972 122.974 77.893 123.306 77.1094C120.354 79.3298 117.3 82.4907 114.542 86.0115C111.773 89.5292 109.326 93.4292 107.236 97.014L109.279 94.0553C109.715 94.86 108.815 96.2972 108.419 97.6093L111.032 97.2537C110.34 98.0233 110.046 99.0095 109.504 98.545C109.513 100.059 110.255 99.8582 111.234 99.6052C110.062 102.024 109.175 101.964 109.103 104.42C112.937 101.588 110.054 100.487 114.028 97.124L112.585 94.4674L112.586 94.4662Z" fill="#FFD55A"/>
<path d="M108.107 103.136L107.866 101.688L107.362 103.337L108.107 103.136Z" fill="#FFD55A"/>
<path d="M105.398 99.3063C105.792 99.5003 105.596 100.156 105.99 100.352C107.371 98.7791 106.728 98.6494 105.398 99.3063Z" fill="#FFD55A"/>
<path d="M123.8 82.3549C124.317 81.6647 124.864 81.007 125.41 80.3396C124.912 80.6141 124.426 80.9122 123.93 81.2004C124.26 81.4902 123.95 82.0558 123.8 82.3552L123.8 82.3549Z" fill="#FFD55A"/>
<path d="M136.862 67.9685C136.357 68.1214 135.895 68.2789 135.464 68.4369C135.036 68.6023 134.659 68.8205 134.29 69.0039C133.927 69.201 133.568 69.3643 133.245 69.5751C132.922 69.7803 132.602 69.9819 132.281 70.1862C130.979 70.9733 129.752 71.7128 127.638 72.5307C127.127 73.6943 127.697 74.0397 128.351 74.3071C129.01 74.5709 129.753 74.7552 129.733 75.4935C131.555 74.6208 130.156 72.8834 131.868 71.3954C132.5 71.6935 133.176 71.2923 133.986 70.7136C134.409 70.4646 134.868 70.1738 135.357 69.9128C135.841 69.6397 136.394 69.5094 136.927 69.425C136.571 69.0319 136.431 68.5234 136.861 67.969L136.862 67.9685Z" fill="#FFD55A"/>
<path d="M148.6 73.9351C149.264 74.3185 150.049 74.5089 150.746 74.8233C151.462 75.0954 152.075 75.4941 152.403 76.0854C151.805 76.5498 150.966 76.1503 150.298 75.5143C150.091 76.3508 150.462 76.503 150.966 76.7459C151.472 76.9683 152.15 77.2348 152.4 78.1974C152.411 77.9742 152.141 77.3665 152.715 77.4107C153.445 78.1499 153.93 78.6076 154.355 78.892C154.783 79.1717 155.115 79.3186 155.465 79.5098C156.153 79.8891 156.996 80.4259 158.295 82.9535C159.127 83.3384 159.562 84.0291 160.369 83.302C160.731 85.0409 160.605 85.5723 160.602 86.1358C160.598 86.4163 160.584 86.7262 160.637 87.1971C160.685 87.6707 160.809 88.3038 160.959 89.282C161.463 88.8729 162.133 87.0599 163.29 86.4213C163.556 87.9033 163.832 88.9437 164.101 89.764C164.388 90.5743 164.679 91.1555 164.954 91.6801C165.24 92.1992 165.501 92.6641 165.672 93.2458C165.762 93.5348 165.833 93.8509 165.878 94.2141C165.91 94.581 165.91 94.9957 165.873 95.4728C165.674 95.1142 165.256 94.7651 165.088 93.8122C164.687 94.0808 164.568 94.3768 164.618 94.7028C164.655 95.0324 164.858 95.3938 165.123 95.7907C165.396 96.1847 165.697 96.6228 165.945 97.0897C166.199 97.5542 166.395 98.0479 166.394 98.5485L164.804 98.7218C165.114 99.5314 165.651 100.629 165.926 101.843C166.06 102.448 166.153 103.078 166.094 103.686C166.069 104.298 165.89 104.881 165.578 105.387C165.319 105.221 165.06 105.061 164.801 104.907C165.352 106.944 165.101 109.42 164.567 111.687C164.031 113.978 163.237 116.13 162.723 118.03C162.138 118.539 161.534 119.023 160.951 119.502C160.268 122.12 160.996 121.044 161.941 119.808C162.849 118.577 163.947 117.128 164.191 119.461C162.726 119.134 162.68 119.867 162.61 120.987C162.557 122.103 162.487 123.658 161.156 124.719C160.263 125.043 160.579 124.296 160.815 123.545C161.049 122.787 161.244 122.056 160.267 122.424C161.231 123.766 159.816 124.064 159.287 125.664C158.8 125.129 158.278 125.8 157.789 126.389C157.281 126.966 156.796 127.438 156.465 126.57C156.059 128.577 155.489 130.586 154.664 132.56C154.061 132.613 153.457 132.89 152.911 133.286C152.383 133.706 151.835 134.159 151.389 134.591C152.656 133.73 152.805 134.261 153.021 134.85C153.235 135.425 153.534 136.127 155.237 135.117C157.19 133.036 159.333 130.086 161.332 126.889C163.312 123.678 165.151 120.23 166.701 117.195C165.92 116.498 166.33 115.524 166.702 114.475C167.114 113.445 167.482 112.333 166.859 111.64C167.51 111.646 168.13 111.275 168.771 111.246C168.913 110.144 168.895 109.648 168.779 109.499C168.669 109.352 168.499 109.56 168.285 109.858C167.845 110.455 167.287 111.407 167.056 110.825C167.094 110.36 167.213 109.938 167.381 109.565C167.528 109.188 167.727 108.862 167.947 108.597C168.386 108.068 168.905 107.784 169.238 107.915C169.458 106.334 169.333 106.237 169.047 106.324C168.757 106.415 168.319 106.659 167.86 105.857C168.58 105.247 169.364 104.558 170.03 103.825C169.576 98.7125 167.524 93.3444 164.781 88.3305C162.005 83.3077 158.562 78.6171 154.779 74.5794C154.699 75.1066 154.611 75.627 154.514 76.1396C152.954 74.2545 150.826 73.6556 148.973 73.2275C148.033 73.0199 147.171 72.7746 146.336 72.4202C146.13 72.3248 145.926 72.214 145.725 72.0857C145.52 71.9686 145.314 71.8504 145.11 71.7009C144.698 71.4098 144.294 71.0082 143.843 70.5865C143.299 70.9002 142.791 71.1546 142.306 71.5289C142.705 71.2243 142.586 70.711 142.494 70.1661C142.409 69.626 142.35 69.0371 143.088 68.6515C142.353 68.818 141.638 68.732 140.902 68.7136C140.17 68.7374 139.411 68.6826 138.717 69.0276L139.366 69.097L140.008 69.232C140.432 69.3279 140.849 69.4023 141.256 69.5183C140.815 69.7945 140.386 69.9985 139.973 70.087C139.766 70.1371 139.562 70.1507 139.363 70.1696C139.166 70.1954 138.971 70.2005 138.783 70.188C138.406 70.1629 138.049 70.0672 137.732 69.9231C137.417 69.7889 137.148 69.6345 136.948 69.4243C135.257 70.5597 136.057 70.9515 137.169 71.2355C137.452 71.3125 137.755 71.3496 138.065 71.4428C138.375 71.536 138.683 71.6281 138.964 71.7237C139.525 71.8928 139.981 72.1659 140.16 72.4443C140.686 72.1093 141.184 71.8878 141.629 71.836C142.074 71.7732 142.472 71.7427 142.814 71.8659C143.5 72.0894 143.99 72.4927 144.398 73.0445L145.001 73.83C145.202 74.0952 145.407 74.3797 145.649 74.6134C145.892 74.8513 146.172 75.0458 146.507 75.2559C146.842 75.4655 147.261 75.5696 147.761 75.727C149.052 76.0127 149.187 75.7228 149.007 75.2719C148.835 74.8238 148.36 74.2085 148.6 73.9351Z" fill="#FFD55A"/>
<path d="M143.941 68.4401C143.588 68.4873 143.309 68.5653 143.091 68.6605C143.38 68.6247 143.656 68.5573 143.941 68.4401Z" fill="#FFD55A"/>
<path d="M151.369 134.575C151.217 134.676 151.056 134.793 150.878 134.931L150.247 135.367C150.127 135.629 150.2 135.618 150.413 135.452C150.628 135.29 150.978 134.974 151.369 134.575Z" fill="#FFD55A"/>
<path d="M136.931 69.4258C136.931 69.4258 136.933 69.4347 136.947 69.4406C136.952 69.43 136.964 69.424 136.982 69.4128L136.931 69.4258Z" fill="#FFD55A"/>
<path d="M135.62 73.2633C135.998 73.1462 136.367 72.9964 136.748 72.9016C136.625 72.7227 136.499 72.5384 136.373 72.3717L135.62 73.2633Z" fill="#FFD55A"/>
<path d="M138.208 137.216L138.256 137.915C138.353 137.683 138.381 137.449 138.208 137.216Z" fill="#FFD55A"/>
<path d="M101.508 129.368L102.306 129.57C102.076 129.406 101.793 129.369 101.508 129.368Z" fill="#FFD55A"/>
<path d="M145.591 188.138C145.864 189.334 146.083 190.748 146.291 192.118C146.475 193.486 146.678 194.816 147.014 195.865L146.365 195.543C146.425 196.235 146.386 197.701 146.51 198.76C146.591 199.292 146.676 199.705 146.935 199.852C147.172 199.991 147.602 199.864 148.149 199.213L147.817 198.299C147.828 196.486 148.186 195.972 148.773 195.519C149.068 195.297 149.383 195.097 149.688 194.781C149.987 194.465 150.301 194.025 150.471 193.331C150.492 191.606 149.748 190.277 149.107 189.09C148.448 187.894 147.875 186.832 148.02 185.425C147.777 184.246 148.495 184.312 149.077 184.592C148.977 183.163 148.325 182.274 147.642 181.568C146.958 180.852 146.257 180.276 145.891 179.416C148.371 178.379 147.496 176.32 146.063 174.123C145.724 173.567 145.314 173.015 144.947 172.448C144.588 171.877 144.218 171.312 143.918 170.733C143.63 170.15 143.392 169.562 143.254 168.958C143.121 168.352 143.116 167.714 143.234 167.061C142.431 166.011 141.683 164.689 140.746 163.383C140.281 162.728 139.782 162.073 139.203 161.473C138.643 160.86 138.004 160.305 137.3 159.828C138.351 160.103 137.909 159.476 137.391 158.732C136.858 158.007 136.256 157.164 137.058 156.952C135.582 157.59 134.324 155.614 132.916 153.772C131.536 151.949 129.87 150.261 128.383 151.551C127.088 149.727 126.987 149.75 126.84 149.736C126.764 149.728 126.667 149.713 126.383 149.452C126.091 149.202 125.597 148.73 124.719 147.785C124.984 147.434 125.668 147.942 125.989 148.081C125.419 147.148 124.549 147.008 123.772 146.862C122.995 146.703 122.354 146.464 122.134 145.26C118.826 142.878 120.995 145.78 118.415 145.475C116.744 144.24 116.202 143.67 115.932 143.087C115.661 142.499 115.671 141.883 115.01 140.622C113.812 142.117 112.005 140.183 109.739 140.177C110.158 140.481 112.537 142.047 110.558 141.874C106.346 139.514 106.56 141.335 102.245 139.878C101.043 137.038 106.366 141.73 103.452 138.568C106.46 138.904 108.377 139.906 110.421 139.217C106.982 137.431 102.58 135.822 98.4244 134.777C96.4526 133.506 99.9187 134.419 98.363 133.446C96.1476 131.698 93.9645 131.827 91.9655 131.375L91.9474 131.47C92.8779 131.06 93.9446 130.951 95.0149 131.36C94.7472 131.691 94.4887 132.019 94.2464 132.364C96.3442 130.991 101.363 133.928 105.223 133.91C104.884 133.272 104.641 132.843 105.229 132.622C104.885 133.921 106.246 133.866 108.132 134.009C110.018 134.138 112.409 134.458 113.842 136.02C114.178 134.322 117.965 134.776 120.098 135.24C120.698 135.911 120.345 136.536 120.201 136.959C118.575 135.951 117.585 136.065 116.569 136.438C115.56 136.8 114.547 137.396 112.985 137.221C114.325 137.26 115.893 137.869 117.468 138.372C119.035 138.883 120.642 139.243 121.862 138.898C121.474 139.27 121.078 139.623 120.675 139.974C122.413 140.532 123.377 139.908 124.247 139.435C125.133 138.928 125.973 138.587 127.703 139.413L127.226 140.336C129.076 140.515 131.007 140.741 132.976 140.878C134.942 141.037 136.951 141.081 138.918 140.944C140.884 140.835 142.801 140.432 144.532 139.841C145.386 139.497 146.212 139.174 146.938 138.697C147.305 138.471 147.656 138.239 147.987 137.998C148.308 137.73 148.61 137.456 148.891 137.174C148.955 136.699 148.108 136.355 147.272 136.034C146.411 135.68 145.547 135.332 145.386 135.066C144.716 135.513 144.074 135.883 143.502 136.324C142.908 136.715 142.353 137.11 141.809 137.509C141.255 137.871 140.711 138.233 140.144 138.577C139.573 138.899 138.976 139.183 138.328 139.439L138.237 137.911C137.995 138.473 137.087 138.938 136.449 139.377C135.814 139.804 135.447 140.167 136.367 140.546C134.142 141.399 134.687 139.273 132.157 140.111C132.444 138.515 133.899 138.363 133.933 137.03C133.238 137.275 132.534 137.551 131.816 137.772C132.51 137.184 130.594 137.167 131.273 136.578C129.288 137.45 127.914 137.097 126.6 136.623C125.95 136.365 125.263 136.087 124.563 135.867C123.881 135.652 123.12 135.493 122.139 135.468C122.8 135.726 123.466 135.987 124.134 136.191C124.045 136.625 123.702 136.775 123.256 136.808C122.81 136.825 122.265 136.761 121.769 136.758C121.056 135.267 120.421 135.285 118.661 134.104C116.761 134.189 115.22 135.303 112.872 134.401C113.426 133.707 112.531 133.119 111.472 132.526C110.42 131.929 109.184 131.349 109.161 130.598C108.626 131.309 107.365 131.065 106.108 130.815C104.866 130.553 103.584 130.312 103.349 130.756C102.047 130.874 100.261 130.285 100.466 129.42C100.668 129.411 101.1 129.333 101.518 129.346L100.217 129.004C100.385 128.842 100.37 128.691 100.533 128.691C99.3343 128.405 99.0941 129.597 97.6301 128.488C97.7225 128.049 98.6229 128.205 99.3555 128.184C98.0648 127.808 96.7367 127.969 95.4532 128.249C94.1577 128.534 92.9584 128.907 91.6208 129.057L84.475 129.85L90.7743 133.516C91.2296 133.781 91.6306 134.147 91.9625 134.673C92.8124 134.256 96.165 135.865 96.2535 133.898C96.858 134.91 95.8856 136.013 98.4347 136.974C100.486 136.273 100.92 138.768 103.188 138.747C100.055 139.036 102.993 139.14 100.193 139.509C101.587 140.86 104.927 140.144 107.649 141.751C107.789 142.211 107.584 142.612 107.724 143.074C108.995 143.1 110.77 142.566 111.21 144.205L111.563 143.182C113.222 144.61 116.005 145.714 117.343 147.862C118.436 147.716 119.528 147.605 120.653 147.495C121.115 148.429 121.733 149.212 122.495 149.831C123.228 150.484 124.085 150.996 124.999 151.419C125.881 151.877 126.865 152.198 127.798 152.501C128.723 152.811 129.665 153.036 130.512 153.209C130.948 153.721 131.452 154.399 131.802 154.987C132.141 155.585 132.33 156.088 132.164 156.241C131.837 156.128 131.262 155.956 130.648 155.713C131.94 157.18 132.61 159.674 134.584 159.417C136.25 160.622 134.594 161.292 135.259 162.599C137.396 163.438 138.713 166.171 139.664 168.552C140.639 170.941 141.354 172.984 143.252 172.864C143.112 172.474 142.95 171.992 142.777 171.435C142.608 170.876 142.426 170.242 142.181 169.582C141.951 168.915 141.684 168.209 141.342 167.512C141.022 166.804 140.626 166.109 140.175 165.447C140.987 165.941 141.252 164.993 141.945 165.992C142.372 166.692 142.678 167.349 142.907 167.986C143.121 168.631 143.274 169.247 143.438 169.852C143.583 170.467 143.73 171.075 143.963 171.697C144.189 172.322 144.459 172.978 144.9 173.68L142.609 174.173C142.454 177.07 143.861 179.185 145.045 181.424C145.63 182.534 146.169 183.635 146.334 184.77C146.52 185.898 146.339 187.053 145.589 188.137L145.591 188.138Z" fill="#FFD55A"/>
<path d="M128.057 153.582C128.335 154.377 128.597 155.148 128.842 155.976L129.383 155.099C128.783 154.698 128.27 154.255 128.057 153.582Z" fill="#FFD55A"/>
<path d="M129.386 155.1C129.781 155.36 130.22 155.553 130.651 155.715C130.315 155.343 129.947 155.031 129.517 154.876L129.386 155.1Z" fill="#FFD55A"/>
<path d="M145.107 196.869C145.007 197.093 144.82 197.407 144.661 197.788C144.515 198.176 144.352 198.61 144.281 199.094C144.793 198.644 145.317 197.437 145.107 196.869Z" fill="#FFD55A"/>
<path d="M144.865 199.529C145.118 199.229 145.391 198.927 145.637 198.608L145.442 198.358C145.28 198.763 145.054 199.14 144.865 199.529Z" fill="#FFD55A"/>
<path d="M84.1193 206.504L82.1599 205.948L80.2047 205.315C80.1675 204.816 79.1666 204.044 78.4351 203.358C77.7079 202.665 77.226 202.105 78.1631 202.116C76.7509 201.984 75.4241 200.705 74.4506 199.83C73.4674 198.966 72.8056 198.483 72.5496 200.02C74.671 202.01 76.9977 204.161 79.6145 206.242C82.2294 208.32 85.1279 210.339 88.2914 212.058C94.653 215.512 101.97 217.422 108.678 217.195C107.931 217.434 107.179 217.639 106.417 217.844C109.999 217.445 112.256 218.116 114.488 218.473C116.68 218.811 118.876 218.823 121.46 216.624C121.28 217.3 121.089 217.979 120.888 218.656C122.545 218.749 124.034 217.844 125.463 217.01C126.915 216.203 128.289 215.486 130.219 215.946L129.67 215.288C130.509 214.997 130.958 215.226 131.819 214.911C131.665 214.845 131.514 214.78 131.36 214.706C133.272 213.103 134.533 212.607 136.825 211.884C137.051 212.108 136.851 212.313 136.521 212.522C136.184 212.717 135.723 212.915 135.438 213.167C136.059 213.183 136.65 212.69 137.219 212.021C137.81 211.382 138.372 210.58 139.11 210.056C140.569 209.611 139.639 210.794 139.607 211.12C141.625 209.102 143.239 207.858 144.515 206.494C144.824 206.147 145.111 205.799 145.371 205.434C145.627 205.044 145.849 204.613 146.031 204.17C146.367 203.265 146.51 202.23 146.286 201.034C145.97 200.493 144.804 201.804 145.417 200.005C144.3 201.358 143.551 202.59 142.807 203.916C142.434 204.574 142.095 205.262 141.701 205.936C141.335 206.636 140.904 207.301 140.44 207.99L141.095 207.392C141.1 209.313 140.544 209.528 139.795 209.672C139.419 209.754 138.97 209.808 138.445 210.038C138.184 210.156 137.907 210.322 137.61 210.565C137.306 210.798 136.972 211.092 136.61 211.498C136.964 209.961 138.375 208.991 138.527 208.06C137.933 208.212 137.396 208.344 136.947 208.539C136.5 208.736 136.103 208.94 135.746 209.163C135.047 209.63 134.482 210.137 133.94 210.622C133.399 211.105 132.85 211.502 132.223 211.737C131.577 211.923 130.851 211.95 129.942 211.536L130.212 211.349C129.521 211.305 128.615 212.195 127.714 212.714C128.122 212.966 129.133 212.869 129.852 212.879C128.975 213.489 128.795 214.798 128.587 215.421C127.839 215.002 127.5 215.237 127.076 215.58C126.656 215.926 126.146 216.375 125.139 216.249C124.272 215.249 126.499 214.899 127.016 214.101C126.359 214.543 125.684 214.974 124.989 215.37C123.977 215.63 123.418 215.364 122.995 215.034C122.571 214.695 122.272 214.25 121.748 213.991C120.149 215.068 122.814 214.495 121.567 215.891C120.392 215.327 117.537 215.328 114.398 215.279C111.258 215.274 107.819 215.185 105.51 215.311C107.054 215.435 106.272 214.19 108.052 214.674C107.746 214.487 106.988 214.459 106.277 214.569C105.569 214.668 104.901 214.922 104.799 215.357C101.572 215.531 97.8268 213.848 95.4796 212.02L95.9384 213.162C94.5268 213.424 93.1432 212.597 91.6855 211.494C90.2206 210.385 88.674 209.087 86.6307 208.301L86.6957 208.368C86.0492 208.093 85.1957 208.23 84.2403 208.206C83.2793 208.195 82.2495 207.966 81.3257 207.009C82.5511 206.592 83.6154 207.467 84.1187 206.506L84.1193 206.504Z" fill="#FFD55A"/>
<path d="M71.4393 197.702C72.0604 197.8 72.6799 197.886 73.3066 197.954C72.4797 196.626 70.0259 196.124 69.6115 196.889C70.493 197.565 71.0096 198.998 71.6663 198.668C71.6808 198.417 72.0298 198.134 71.4387 197.702L71.4393 197.702Z" fill="#FFD55A"/>
<path d="M60.9319 169.47C60.7149 168.844 60.2372 168.967 59.9208 168.671C59.6222 172.012 59.7937 175.899 60.4634 179.215C60.6502 180.039 60.7738 180.842 60.9753 181.581C61.1631 182.325 61.3392 183.022 61.5006 183.659C61.8782 184.915 62.0937 185.983 62.1967 186.709C62.5307 187.868 63.1633 188.347 63.9635 188.758C64.7527 189.178 65.6335 189.624 66.5375 190.592C66.4066 191.158 66.2662 191.74 66.1564 192.31C66.8942 192.688 67.6128 193.982 68.2923 194.845C68.9521 195.725 69.5519 196.15 69.8673 194.906C69.9053 194.683 68.3486 194.505 67.9044 193.293L68.5961 193.031C67.9942 192.31 67.3804 191.593 66.8047 190.843C67.2115 190.934 67.6163 191.021 68.0299 191.097C67.5078 189.156 66.6159 188.984 65.5921 188.617C65.0797 188.443 64.5343 188.238 64.0046 187.767C63.5217 187.267 63.0228 186.503 62.7161 185.225L64.3695 184.561C64.111 183.784 63.8203 183.13 63.5965 182.508C63.3872 181.881 63.188 181.308 63.0232 180.738C62.7623 179.585 62.616 178.426 62.9974 176.944C62.9974 176.944 62.1084 177.039 62.5329 177.544C62.5047 178.084 61.9161 178.924 61.3351 178.644C60.3042 176.185 60.5978 176.325 61.1719 176.667C61.7644 177.004 62.5685 177.429 62.7783 175.702C61.9676 173.708 61.478 170.583 61.6407 167.761C61.7838 164.936 62.4836 162.47 63.4302 161.545C62.6928 162.356 62.2072 162.019 61.9905 161.172C61.7836 160.337 61.8577 159.001 62.2221 157.912C63.1133 157.076 63.0306 158.881 63.4585 159.378C63.9131 158.403 64.5822 157.708 64.6204 156.638C63.3012 157.667 62.2746 156.454 62.4254 153.917C61.0994 156.332 60.9269 158.89 60.9772 161.471C61.0296 164.065 61.2922 166.643 60.9319 169.472L60.9319 169.47Z" fill="#FFD55A"/>
<path d="M59.633 167.624C59.6244 168.229 59.7519 168.515 59.9202 168.675C59.9802 167.882 60.0629 167.094 60.183 166.378C60.0009 166.79 59.7998 167.197 59.6333 167.624L59.633 167.624Z" fill="#FFD55A"/>
</svg>
