<svg width="144" height="137" viewBox="0 0 144 137" fill="none" xmlns="http://www.w3.org/2000/svg">
<path d="M51.0169 19.8575C50.5417 20.3881 50.0064 20.3867 49.4108 19.8534L47.685 17.9566L45.6915 15.9665C44.9831 15.2541 43.3852 14.1841 40.8978 12.7565C38.7079 11.4978 36.5412 10.4746 34.3978 9.68688C32.7379 9.07838 31.5097 8.73946 30.7132 8.67012C30.2269 8.62486 29.7933 8.69509 29.4123 8.88078C28.8609 9.14793 28.4885 9.30228 28.2952 9.34381C27.968 9.38244 27.6262 9.25201 27.27 8.95253C26.8922 8.63365 26.7264 8.24133 26.7728 7.77554C26.8819 7.32689 27.2758 6.72357 27.9546 5.96559C28.7013 5.13181 30.8153 5.38588 34.2965 6.72782C39.6293 8.79122 43.974 11.326 47.3308 14.3321L49.9621 16.6885C51.2723 17.8619 51.6239 18.9182 51.0169 19.8575ZM37.9557 17.0877L34.5888 20.7166C33.521 21.8872 31.9133 23.628 29.7657 25.9389C27.9467 27.8612 26.2139 29.4802 24.5673 30.7959C22.4074 32.5105 21.0676 33.1351 20.5479 32.6696C20.2772 32.4272 20.1458 32.1925 20.1539 31.9656L20.6897 31.0405L26.5264 25.438C26.9445 24.993 27.6644 24.2327 28.6859 23.1573C28.9877 22.8422 29.7007 22.144 30.8249 21.063L37.0497 13.8179C37.3104 13.505 37.6617 13.3415 38.1036 13.3274C38.5021 13.2746 38.8237 13.3186 39.0682 13.4596C39.6313 13.9638 39.7273 14.5864 39.3564 15.3275C39.1704 15.6877 38.7035 16.2745 37.9557 17.0877ZM45.7603 42.7212C44.3154 44.3346 42.4023 45.5775 40.0211 46.4499C37.3267 47.4322 35.3407 47.3512 34.0629 46.207C33.2508 45.4797 32.8176 44.6234 32.7633 43.6382C32.7198 42.6627 33.0666 41.7634 33.8036 40.9405C35.0739 39.522 35.996 39.0697 36.5699 39.5836C37.0897 40.0491 37.1368 40.5303 36.7112 41.0273L35.7692 42.1446C35.0053 43.0411 34.9001 43.7469 35.4535 44.262C36.1585 44.9128 37.2337 44.9977 38.6792 44.5165C40.468 43.9136 42.2643 42.605 44.0679 40.5909C44.5722 40.0279 44.8022 39.3461 44.7581 38.5456C44.7345 37.744 44.4412 37.091 43.8781 36.5868C42.8494 35.6656 41.1152 35.3905 38.6754 35.7618L37.2553 36.89C35.9634 37.9185 34.6011 39.2546 33.1682 40.8983L29.0876 45.5856C28.1481 46.6565 27.2148 47.8402 26.2878 49.1369L24.6097 51.4683C24.4255 51.674 24.17 52.3624 23.8434 53.5333C23.7149 54.0036 23.542 54.4146 23.3246 54.7663C22.7912 55.3618 22.3566 55.6946 22.0208 55.7646C21.6234 55.8379 21.1377 55.6177 20.5638 55.1037C20.0007 54.5995 20.0353 53.7329 20.6676 52.5039C20.9461 51.9533 21.3697 51.3277 21.9384 50.6273L27.4139 43.794L32.694 37.898C33.7316 36.7394 34.8864 35.5588 36.1583 34.3564L40.9135 29.8635C41.1388 29.6555 41.3265 29.3261 41.4767 28.8752L42.1152 27.5738C42.7456 26.87 43.3802 26.8041 44.019 27.3763C44.3872 27.706 44.5315 28.1767 44.452 28.7884C44.3896 29.3374 44.1839 29.8068 43.8348 30.1966L40.9693 33.3964C42.9837 33.1516 44.6243 33.5964 45.8912 34.731C46.9741 35.7007 47.469 37.022 47.3759 38.6947C47.2879 40.2745 46.7494 41.6167 45.7603 42.7212ZM64.0354 64.1798C63.7348 64.5155 62.4511 64.4782 60.1844 64.0678C58.4268 63.7426 57.0458 63.4327 56.0413 63.1381C52.8906 62.1897 50.1187 60.644 47.7256 58.5009C46.4371 57.3469 45.6244 55.9557 45.2876 54.3273C44.8928 52.3932 45.4301 50.5621 46.8995 48.8341L48.0889 47.4406L49.4271 45.9463L50.6523 44.6435C51.0316 44.2418 51.4337 43.8799 51.8586 43.558C52.7084 42.9141 53.7499 42.6662 54.983 42.8145C56.1535 42.9455 57.1447 43.3747 57.9569 44.102C59.1047 45.1299 59.912 46.331 60.3789 47.7052C60.9187 49.2813 60.7523 50.5566 59.8795 51.5312C59.1231 52.3758 58.1697 52.8195 57.0191 52.8623C56.3104 52.8911 55.3077 52.6273 54.0108 52.0708L51.5757 51.0315L49.1926 50.0974C48.4653 50.9095 48.0567 51.8997 47.9666 53.0679C47.86 54.4943 48.413 55.7506 49.6258 56.8366C50.6437 57.7482 51.7368 58.532 52.9053 59.1882C55.4014 60.5844 58.2348 61.6584 61.4055 62.4101L63.5801 62.9233C63.9374 63.2433 64.1412 63.4843 64.1913 63.6463C64.2693 63.7552 64.2174 63.933 64.0354 64.1798ZM57.4919 49.393C58.2482 48.5484 57.7385 47.3309 55.9627 45.7406C55.6811 45.4884 55.2519 45.3577 54.6749 45.3483C54.1087 45.3486 53.6725 45.4653 53.3663 45.6984L51.869 47.1088L50.6113 48.3825C51.0063 48.6387 51.6969 48.9351 52.6831 49.272L54.8712 50.0315C55.9104 50.3963 56.784 50.1834 57.4919 49.393ZM91.8335 86.9666C91.3098 87.5513 89.6364 87.6332 86.8133 87.2124C83.5546 86.7332 81.0211 85.6838 79.2127 84.0644C77.2636 82.3189 76.2833 80.2215 76.2719 77.7722C76.7057 75.3704 76.9398 73.9215 76.9742 73.4255C74.1955 74.3713 72.2918 74.3835 71.2631 73.4623C70.9058 73.1423 70.6454 72.714 70.482 72.1774C70.4287 71.5833 70.4606 70.9485 70.5778 70.2729C70.6321 69.9508 70.7805 69.4691 71.0231 68.8278L71.8329 67.27L72.5621 65.9328C72.654 65.5468 72.5943 65.2104 72.3829 64.9236C71.939 64.526 70.2779 65.019 67.3998 66.4026L64.873 67.6227C63.9219 67.9222 63.154 67.8101 62.5692 67.2864C62.266 67.0149 62.2046 66.6477 62.385 66.1848L63.6788 64.4459L64.5661 63.4551L65.5295 62.4447L66.8096 61.0154C66.9516 60.7914 67.2041 60.4223 67.5669 59.9082L69.3682 57.57C70.1274 56.5914 70.9351 56.3976 71.7912 56.9887C72.2352 57.3863 72.0409 58.344 71.2084 59.8619C71.0869 60.0848 70.736 60.6291 70.1558 61.4949C69.7564 62.0934 69.3773 62.5929 69.0185 62.9936C71.8902 62.053 73.705 61.9221 74.463 62.6009C75.0477 63.1245 75.4151 63.8145 75.5653 64.671C75.7154 65.5274 75.6418 66.3395 75.3444 67.1074L74.094 69.3534C73.5314 70.3521 73.3643 70.9635 73.5928 71.1876C73.9513 71.5282 74.6395 71.5005 75.6574 71.1047C75.7081 71.0916 75.8932 70.9939 76.2125 70.8116C76.4121 70.6977 76.8917 70.4345 77.6513 70.0221L79.2887 68.9127C79.7192 68.6934 80.189 68.8116 80.6979 69.2674C81.1852 69.7038 81.2733 70.368 80.9621 71.2602C80.7829 71.7436 80.5189 72.4632 80.1701 73.4192C78.6745 77.6604 79.0041 80.7458 81.1589 82.6756C82.4908 83.8683 84.074 84.6715 85.9085 85.0851L91.3183 85.7443C91.9139 86.2776 92.0856 86.685 91.8335 86.9666ZM107.805 75.308C107.223 75.9577 106.553 75.9432 105.795 75.2644C105.394 74.9056 105.261 74.1615 105.394 73.0321C105.52 71.9546 105.772 71.2047 106.15 70.7824C106.829 70.0244 107.499 69.9412 108.159 70.5327C108.69 71.0079 108.888 71.7999 108.753 72.9087C108.625 73.9452 108.309 74.7449 107.805 75.308ZM105.428 99.6966C104.837 100.378 102.904 100.422 99.6292 99.8309C96.0524 99.1839 93.3761 98.0653 91.6003 96.475L89.6044 94.1607C88.8123 93.2368 88.6942 92.0286 89.2502 90.5362C89.5196 89.8214 90.0616 89.0092 90.8762 88.0996L93.1162 85.5982L95.5633 82.9311L96.5054 81.8137C96.9406 81.3059 97.428 80.9033 97.9675 80.606C98.3872 80.3769 98.792 80.437 99.1818 80.7861C99.9722 81.494 99.6827 82.5908 98.3131 84.0765L93.5354 89.2809C92.4772 90.4407 91.8965 91.2962 91.793 91.8475C91.6427 92.669 92.201 93.647 93.4679 94.7816C94.9298 96.0907 96.7532 97.0505 98.9383 97.6609L105.021 98.4838L105.525 98.9347C105.711 99.1406 105.679 99.3946 105.428 99.6966ZM126.979 95.4355C126.63 95.8253 125.986 96.0976 125.048 96.2522C123.609 96.4859 122.13 96.2638 120.61 95.5858C119.967 95.3021 119.428 94.9664 118.995 94.5785C118.346 93.9967 117.857 93.3545 117.53 92.6519L116.889 90.8189C116.619 90.0309 116.636 89.0314 116.94 87.8206L117.351 87.1648C118.011 86.4285 118.649 86.3367 119.266 86.8894C119.472 87.0737 119.565 87.537 119.544 88.2793L119.496 89.9341L119.709 91.5591C119.853 92.1173 120.136 92.5855 120.559 92.9637C121.316 93.6425 122.267 94.0739 123.409 94.258C124.404 94.1929 125.512 94.2091 126.732 94.3065C127.197 94.7235 127.28 95.0998 126.979 95.4355ZM127.044 119.581C126.607 120.069 125.014 120.105 122.263 119.691C119.025 119.21 116.399 118.068 114.385 116.265C112.219 114.325 111.63 112.325 112.618 110.263L113.726 107.947L114.972 105.902C113.687 106.683 111.844 107.248 109.445 107.597C106.728 107.993 104.905 107.775 103.973 106.941C103.139 106.194 102.73 105.213 102.746 103.997C102.757 102.895 103.08 101.848 103.715 100.856C104.009 100.397 104.893 99.3446 106.367 97.6987L107.909 95.977L109.402 94.505C110.31 93.6006 111.126 93.4732 111.852 94.1229C112.09 94.3363 112.215 94.6434 112.227 95.0442C112.14 95.5122 111.827 96.0132 111.291 96.5472L110.178 97.6585L108.543 99.3545L107.175 100.881C106.846 101.249 106.547 101.626 106.28 102.011C105.412 103.264 105.352 104.224 106.099 104.893C106.597 105.34 107.839 105.359 109.824 104.951C111.595 104.585 113.087 104.117 114.301 103.546C116.58 102.484 118.086 102.262 118.82 102.88C119.349 103.335 118.9 104.61 117.471 106.706C116.623 107.937 116.041 108.859 115.724 109.474C115.119 110.629 114.852 111.581 114.924 112.328C115.02 113.136 115.534 113.957 116.465 114.791C118.089 116.246 119.804 117.098 121.609 117.349L127.304 118.147C127.683 118.486 127.597 118.964 127.044 119.581Z" fill="#FFD55A"/>
</svg>
