<svg width="32" height="32" viewBox="0 0 32 32" fill="none" xmlns="http://www.w3.org/2000/svg">
<path d="M32 16C32 7.16385 24.8362 0 16 0C7.16385 0 0 7.16385 0 16C0 24.8362 7.16385 32 16 32C24.8362 32 32 24.8362 32 16ZM15.6423 23.0277C15.5275 22.9139 15.4363 22.7785 15.3738 22.6294C15.3114 22.4803 15.2789 22.3204 15.2783 22.1587C15.2776 21.9971 15.3088 21.8369 15.3701 21.6873C15.4314 21.5377 15.5215 21.4017 15.6354 21.2869L19.66 17.2308H9.38462C9.0582 17.2308 8.74514 17.1011 8.51433 16.8703C8.28352 16.6395 8.15385 16.3264 8.15385 16C8.15385 15.6736 8.28352 15.3605 8.51433 15.1297C8.74514 14.8989 9.0582 14.7692 9.38462 14.7692H19.66L15.6354 10.7131C15.5215 10.5982 15.4314 10.4621 15.3702 10.3124C15.309 10.1627 15.2778 10.0024 15.2785 9.84072C15.2793 9.679 15.3118 9.51901 15.3744 9.36987C15.4369 9.22074 15.5282 9.08539 15.6431 8.97154C15.7579 8.85769 15.8941 8.76758 16.0438 8.70636C16.1935 8.64513 16.3537 8.61399 16.5154 8.6147C16.842 8.61614 17.1547 8.74727 17.3846 8.97923L23.4915 15.1331C23.7203 15.3636 23.8487 15.6752 23.8487 16C23.8487 16.3248 23.7203 16.6364 23.4915 16.8669L17.3846 23.0208C17.2708 23.1358 17.1353 23.2272 16.9861 23.2898C16.8369 23.3524 16.6767 23.3849 16.5149 23.3856C16.3531 23.3862 16.1927 23.355 16.043 23.2935C15.8932 23.2321 15.7571 23.1418 15.6423 23.0277Z" fill="#E0E1DC"/>
</svg>
